<?xml version="1.0" encoding="UTF-8"?>
<svg id="_레이어_1" data-name="레이어_1" xmlns="http://www.w3.org/2000/svg" viewBox="0 0 432 96">
  <defs>
    <style>
      .cls-1 {
        fill: #ffe94a;
      }

      .cls-2 {
        fill: #fff;
      }

      .cls-3 {
        fill: #599afe;
      }

      .cls-4 {
        fill: #fcc12b;
      }

      .cls-5 {
        fill: #31a844;
      }

      .cls-6 {
        fill: #f3d98e;
      }

      .cls-7 {
        fill: #88a8f8;
      }

      .cls-8 {
        fill: #d7e3fd;
      }

      .cls-9 {
        fill: #f3f4d2;
      }

      .cls-10 {
        fill: #ffcb39;
      }

      .cls-11 {
        fill: #c2d3ff;
      }

      .cls-12 {
        fill: #8ad545;
      }

      .cls-13 {
        fill: #ccdafd;
      }
    </style>
  </defs>
  <rect class="cls-3" x="-3.46" y="-2.88" width="438.27" height="103.31"/>
  <path class="cls-8" d="M434.81,26.03v74.4H-3.46V-1.49c.18-.47.37-.93.57-1.39h71.12c.31.69.6,1.4.86,2.12,14.8.63,26.79,12.07,28.29,26.62,3.52.41,6.85,1.43,9.89,2.96,5.38-5.4,12.83-8.74,21.06-8.74,13.4,0,24.72,8.86,28.44,21.04h34.84c5.45-6.88,13.87-11.3,23.33-11.3.53,0,1.06.01,1.58.04-.46-2.08-.71-4.25-.71-6.48,0-11.39,6.4-21.28,15.81-26.26h72.38c8.52,4.04,14.41,12.73,14.41,22.79,0,3.44-.69,6.73-1.94,9.72.92-.1,1.86-.16,2.81-.16,8.94,0,16.78,4.65,21.26,11.65h2.83c2.91-1.44,6.18-2.26,9.65-2.26,1.88,0,3.69.24,5.43.68,3.92-5.66,10.46-9.37,17.88-9.37,4.25,0,8.21,1.22,11.56,3.33,3.27-7.88,11.03-13.42,20.09-13.42,7.14,0,13.47,3.44,17.43,8.75,2.8-1.59,6-2.59,9.4-2.8Z"/>
  <circle class="cls-13" cx="254.98" cy="53.56" r="8.35"/>
  <circle class="cls-7" cx="276.37" cy="17.21" r="5.57"/>
  <circle class="cls-11" cx="58.28" cy="22.17" r="3.48"/>
  <circle class="cls-13" cx="40.28" cy="11.74" r="6.61"/>
  <circle class="cls-7" cx="30.89" cy="27.65" r="4"/>
  <g>
    <path class="cls-5" d="M169.15,27.95h0c41.63,0,75.43,33.8,75.43,75.43v13.79H93.71v-13.79c0-41.63,33.8-75.43,75.43-75.43Z"/>
    <g>
      <path class="cls-2" d="M217.28,63.91c.75-1.98-.25-4.19-2.22-4.94-.11-.04-.21-.06-.32-.09.44-1.84-.53-3.77-2.35-4.46s-3.83.11-4.72,1.79c-.13-.07-.26-.15-.41-.2-1.98-.75-4.19.25-4.94,2.22-.54,1.42-.17,2.95.81,3.98-.26.32-.49.67-.64,1.07-.75,1.98.25,4.19,2.22,4.94.79.3,1.61.31,2.37.1.43.66,1.05,1.2,1.84,1.5,1.98.75,4.19-.25,4.94-2.22.16-.42.22-.84.23-1.26,1.39-.15,2.66-1.04,3.19-2.44Z"/>
      <circle class="cls-10" cx="209.55" cy="61.72" r="2.41"/>
    </g>
    <g>
      <path class="cls-4" d="M176.6,80.28c.69-1.81-.23-3.84-2.04-4.52-.1-.04-.2-.05-.29-.08.4-1.69-.49-3.45-2.16-4.08s-3.51.1-4.33,1.64c-.12-.06-.24-.14-.37-.19-1.81-.69-3.84.23-4.52,2.04-.49,1.3-.15,2.7.75,3.65-.24.29-.45.61-.59.98-.69,1.81.23,3.84,2.04,4.52.72.27,1.48.28,2.17.09.39.6.96,1.1,1.69,1.37,1.81.69,3.84-.23,4.52-2.04.14-.38.2-.77.21-1.16,1.28-.13,2.44-.95,2.92-2.23Z"/>
      <circle class="cls-1" cx="169.52" cy="78.27" r="2.21"/>
    </g>
    <g>
      <path class="cls-2" d="M140.49,58.65c-1.01-2.35-3.72-3.43-6.07-2.42-.13.05-.23.13-.35.19-1.17-1.97-3.62-2.82-5.78-1.9s-3.23,3.31-2.6,5.51c-.17.05-.35.09-.52.17-2.35,1.01-3.43,3.72-2.42,6.07.72,1.68,2.33,2.7,4.04,2.78.04.49.13.99.34,1.47,1.01,2.35,3.72,3.43,6.07,2.42.94-.4,1.66-1.08,2.14-1.9.92.21,1.92.16,2.85-.24,2.35-1.01,3.43-3.72,2.42-6.07-.21-.49-.51-.92-.85-1.29,1.09-1.29,1.44-3.13.73-4.79Z"/>
      <circle class="cls-10" cx="131.94" cy="63.21" r="2.91"/>
    </g>
  </g>
  <g>
    <path class="cls-12" d="M63.11,44.04h0c35.71,0,64.7,28.99,64.7,64.7v11.83H-1.59v-11.83C-1.59,73.03,27.4,44.04,63.11,44.04Z"/>
    <g>
      <path class="cls-4" d="M103.24,66.43c-.85-1.24-2.55-1.55-3.79-.7-.07.05-.12.1-.18.15-.9-1-2.42-1.21-3.56-.43s-1.49,2.29-.87,3.49c-.1.05-.19.09-.28.16-1.24.85-1.55,2.55-.7,3.79.61.89,1.66,1.29,2.66,1.14.08.28.19.56.37.81.85,1.24,2.55,1.55,3.79.7.5-.34.84-.82,1.02-1.35.56.02,1.13-.13,1.62-.47,1.24-.85,1.55-2.55.7-3.79-.18-.26-.4-.47-.64-.65.48-.87.47-1.98-.13-2.85Z"/>
      <circle class="cls-1" cx="98.83" cy="70.06" r="1.71"/>
    </g>
    <g>
      <path class="cls-2" d="M84.67,85.69c.32-1.9-.96-3.7-2.86-4.02-.1-.02-.2-.01-.3-.02.07-1.72-1.14-3.27-2.89-3.57s-3.4.77-3.9,2.43c-.13-.04-.26-.09-.4-.11-1.9-.32-3.7.96-4.02,2.86-.23,1.36.37,2.67,1.43,3.42-.18.33-.32.68-.39,1.07-.32,1.9.96,3.7,2.86,4.02.76.13,1.5,0,2.14-.33.5.51,1.15.88,1.91,1.01,1.9.32,3.7-.96,4.02-2.86.07-.4.05-.79-.01-1.17,1.22-.38,2.19-1.39,2.42-2.74Z"/>
      <circle class="cls-10" cx="77.38" cy="85.08" r="2.19"/>
    </g>
    <g>
      <path class="cls-4" d="M18.96,89.31c1.08-1.09,1.08-2.85,0-3.93-.06-.06-.13-.1-.19-.15.84-1.09.77-2.65-.23-3.65s-2.57-1.07-3.66-.22c-.07-.09-.13-.18-.21-.26-1.09-1.08-2.85-1.08-3.93,0-.78.78-.99,1.9-.65,2.88-.27.13-.52.3-.75.52-1.08,1.09-1.08,2.85,0,3.93.43.43.98.69,1.54.77.09.56.34,1.11.77,1.54,1.09,1.08,2.85,1.08,3.93,0,.23-.23.4-.49.53-.77.97.32,2.07.1,2.84-.66Z"/>
      <circle class="cls-1" cx="14.51" cy="85.56" r="1.75"/>
    </g>
  </g>
  <g>
    <path class="cls-9" d="M8.01,37.3c-.55-.03-.69.27-.3.67l16.56,17.09c.38.39.69.75.69.8l-.1,1.07-1.97,20.59c-.05.55.33.84.84.65l15.12-5.58c.52-.19,1.24,0,1.6.4l13.31,14.95c.37.41,1.01.46,1.43.1l53.22-45.19c.42-.36.31-.67-.24-.7l-100.16-4.85Z"/>
    <path class="cls-6" d="M24.77,56.28c.05-.55.53-1.06,1.08-1.15l74.99-11.38c.54-.08.58.04.08.27l-60.22,27.81c-.5.23-1.33.57-1.85.77l-15.12,5.58c-.52.19-.9-.1-.85-.65l1.89-21.25Z"/>
  </g>
  <g>
    <path class="cls-9" d="M127.95,37.6c-.51.2-.52.53,0,.73l12.84,5.18c.51.21.93.4.94.42l.33.99,3.78,11.32c.17.52.64.64,1.03.25l6.55-6.36c.39-.38,1.13-.51,1.63-.28l10.49,4.76c.5.23,1.11,0,1.35-.49l18.3-37.93c.24-.5.01-.74-.5-.54l-56.73,21.94Z"/>
    <path class="cls-6" d="M141.84,44.58c-.18-.52.06-1.19.52-1.48l38.63-24.64c.46-.3.55-.2.18.21l-26.38,30.03c-.36.41-.98,1.06-1.38,1.45l-6.55,6.36c-.39.38-.86.27-1.04-.25l-3.98-11.67Z"/>
  </g>
  <g>
    <path class="cls-9" d="M209.85,8.35c-.51-.21-.74.03-.51.53l4.5,9.83c.23.5.41.93.4.94l-.44.94-3.91,8.4c-.23.5.03.9.58.89l6.99-.09c.55,0,1.17.4,1.38.91l3.37,8.27c.21.51.8.77,1.31.57l31.46-11.96c.51-.2.52-.53,0-.73l-45.13-18.5Z"/>
    <path class="cls-6" d="M213.86,20.27c.23-.5.86-.82,1.4-.72l35.99,6.92c.54.1.53.23-.01.28l-31.79,2.93c-.55.05-1.45.1-2,.1l-6.99.09c-.55,0-.81-.4-.58-.9l3.99-8.71Z"/>
  </g>
</svg>