<?xml version="1.0" encoding="UTF-8"?>
<svg width="96" height="96" id="_레이어_1" data-name="레이어_1" xmlns="http://www.w3.org/2000/svg" xmlns:xlink="http://www.w3.org/1999/xlink" viewBox="0 0 148 148">
  <defs>
    <style>
      .choco-ball-1 {
        fill: #572212;
      }

      .choco-ball-2 {
        fill: #ffebe9;
      }

      .choco-ball-3 {
        fill: #f7d1cd;
      }

      .choco-ball-4 {
        fill: #fff;
      }

      .choco-ball-5 {
        fill: none;
      }

      .choco-ball-6 {
        clip-path: url(#choco-ball-clippath-1);
      }

      .choco-ball-7 {
        fill: #773525;
      }

      .choco-ball-8 {
        fill: #d7e3fd;
      }

      .choco-ball-9 {
        fill: #400f0a;
      }

      .choco-ball-10 {
        clip-path: url(#choco-ball-clippath-2);
      }

      .choco-ball-11 {
        clip-path: url(#choco-ball-clippath);
      }

      .choco-ball-12 {
        fill: #c68768;
      }

      .choco-ball-13 {
        fill: #fff2bb;
      }
    </style>
    <clipPath id="choco-ball-clippath">
      <rect class="choco-ball-5" x="-157.39" y="10" width="128" height="128" rx="8.09" ry="8.09" transform="translate(-5.33 -6.27) rotate(-3.96)"/>
    </clipPath>
    <clipPath id="choco-ball-clippath-1">
      <ellipse class="choco-ball-1" cx="74.61" cy="74" rx="63.39" ry="64"/>
    </clipPath>
    <clipPath id="choco-ball-clippath-2">
      <rect class="choco-ball-5" x="10" y="196.26" width="128" height="128" rx="13.03" ry="13.03"/>
    </clipPath>
  </defs>
  <g class="choco-ball-11">
    <g>
      <rect class="choco-ball-8" x="-89.51" y="41.51" width=".2" height="180" transform="translate(47.96 211.63) rotate(86.04)"/>
      <rect class="choco-ball-8" x="-89.04" y="48.28" width=".2" height="180" transform="translate(55.15 217.46) rotate(86.04)"/>
      <rect class="choco-ball-8" x="-88.57" y="55.05" width=".2" height="180" transform="translate(62.34 223.3) rotate(86.04)"/>
    </g>
  </g>
  <g>
    <g>
      <ellipse class="choco-ball-1" cx="74.61" cy="74" rx="63.39" ry="64"/>
      <g class="choco-ball-6">
        <path class="choco-ball-7" d="M19.95,28.59c-7.24,28.74-13.65,62.12,9.06,85.86,9.55,9.99,23.13,19.11,36.44,23.04,7,2.07,14.41,2.38,21.66,2.67,9.04.36,18.09.48,27.14.4,3.86-.03,3.87-6.03,0-6-14.52.12-30.46,1.13-44.68-2.2-12.81-3-25.92-11.81-35.18-21-22.23-22.04-15.48-54.09-8.65-81.18.94-3.75-4.84-5.34-5.79-1.6h0Z"/>
      </g>
    </g>
    <path class="choco-ball-12" d="M44.09,59.75c-16.69-.12-28.67-3.41-28.94-3.49-1.21-.34-1.92-1.65-1.6-2.92.33-1.27,1.58-2.02,2.78-1.68.61.17,61.44,16.8,98.81-25.64.85-.97,2.28-1.02,3.21-.13.92.89.98,2.4.13,3.36-22.3,25.33-52.42,30.65-74.38,30.49Z"/>
    <path class="choco-ball-12" d="M94.72,94.09c-46.37-.34-83.07-20.39-83.54-20.65-1.08-.6-1.49-2.01-.92-3.15.57-1.14,1.91-1.57,2.99-.97.59.33,59.66,32.55,121.94,14.78,1.18-.33,2.4.4,2.72,1.64.32,1.24-.38,2.52-1.56,2.86-14.25,4.07-28.34,5.59-41.63,5.49Z"/>
    <path class="choco-ball-13" d="M62.49,126.48c-17.75-.13-31.05-3.47-32.23-3.78-1.18-.31-1.9-1.57-1.61-2.82.29-1.25,1.48-2.02,2.65-1.71.62.16,61.73,15.46,98.22-19.45.9-.86,2.29-.79,3.1.17.81.96.74,2.43-.16,3.29-20.87,19.97-48.64,24.45-69.97,24.29Z"/>
    <path class="choco-ball-13" d="M111.97,57.45c-23.74-.17-51.43-6.78-82.63-19.75-1.45-.6-2.81-1.17-3.13-1.26-1.2-.19-1.96-1.36-1.79-2.64.18-1.27,1.33-2.15,2.55-1.95.54.08,1.21.36,3.96,1.5,39.71,16.5,73.49,22.54,100.4,17.95,1.2-.21,2.32.66,2.51,1.93.19,1.27-.62,2.46-1.82,2.67-6.33,1.08-13.02,1.59-20.06,1.54Z"/>
    <path class="choco-ball-4" d="M41.26,86.31l-7.92-1.2-7,3.88c-.73.4-1.6-.2-1.47-1.02l1.2-7.92-3.88-7c-.4-.73.2-1.6,1.02-1.47l7.92,1.2,7-3.88c.73-.4,1.6.2,1.47,1.02l-1.2,7.92,3.88,7c.4.73-.2,1.6-1.02,1.47Z"/>
    <path class="choco-ball-3" d="M59.24,83.04l-1.41,3.37.94,3.53c.22.84-.61,1.57-1.42,1.24l-3.37-1.41-3.53.94c-.84.22-1.57-.61-1.24-1.42l1.41-3.37-.94-3.53c-.22-.84.61-1.57,1.42-1.24l3.37,1.41,3.53-.94c.84-.22,1.57.61,1.24,1.42Z"/>
    <path class="choco-ball-4" d="M37.9,30.79c7.67-8.24,18.64-12.89,29.62-14.77,1.01-.12,3.62-.48,4.6-.6,1-.06,3.61-.2,4.64-.26,2.06-.05,4.13.05,6.2.07,2.63.09,2.61,3.97-.04,4.01-2.93-.28-6.18-.67-9.16-.66-12.8-.18-26.2,3.48-35.86,12.21h0Z"/>
    <circle class="choco-ball-4" cx="90.16" cy="19.05" r="2.78"/>
    <circle class="choco-ball-2" cx="55.6" cy="84.84" r="1.4"/>
  </g>
  <g class="choco-ball-10">
    <path class="choco-ball-9" d="M-10.16,284.9c12.67,19.84,28.1,37.7,45.95,53.06,1.3,1.12,3.88,1.3,4.71-.61,3.16-7.21-3.35-12.9-7.66-18.01-6.32-7.49-12.71-14.92-19.01-22.43-12.82-15.26-25.23-30.87-35.95-47.69l-5.18,3.03c24.81,37.25,59.43,67.36,99.88,86.55,2.54,1.21,5.8-1.36,4.1-4.1-6.55-10.56-15.58-18.96-24.73-27.22-9.96-8.98-20.01-17.86-29.9-26.93-19.73-18.1-38.83-37.04-54.73-58.66l-4.71,3.64c40.6,48.88,92.05,88.31,149.8,114.79,2.37,1.09,6.13-1.44,4.1-4.1-8.74-11.51-19.42-21.04-30.37-30.39-11.78-10.05-23.27-20.38-34.27-31.28-21.99-21.78-42.31-45.17-62.19-68.88-2.16-2.58-6.79.92-4.71,3.64,18.75,24.47,43.55,43,68.25,61.05,27.71,20.24,55.99,39.71,84.08,59.41,2.55,1.79,5.51-1.65,4.1-4.1-7.55-13.2-21.18-21.08-32.83-30.22-13.28-10.42-25.89-21.69-37.74-33.7-11.57-11.72-22.31-24.17-32.43-37.16-9.54-12.24-19.08-24.44-31.91-33.43-2.4-1.68-5.85,1.7-4.1,4.1,37.71,51.94,90.36,89.56,142.18,126.21,2.48,1.75,5.66-1.66,4.1-4.1-7.94-12.46-20.39-20.38-31.33-29.91-11.54-10.05-21.86-21.43-31.48-33.32-19.22-23.75-35.8-49.52-55.35-73.02-2.5-3.01-6.56,1.26-4.24,4.24,34.77,44.85,78.76,81.07,122.43,116.85,2.97,2.43,6.8-1.29,4.24-4.24-18.16-20.96-36.38-41.97-52.12-64.86-14.57-21.19-26.81-43.95-43.49-63.64-2.27-2.68-6.27.74-4.71,3.64,4.76,8.83,11.32,16.36,18.11,23.67,7.5,8.08,15.22,15.94,23.15,23.59,15.65,15.08,32.14,29.27,49.33,42.57,2.44,1.88,6.81-.53,4.71-3.64-19.51-28.85-40.24-57.57-52.98-90.22l-5.01,2.92c17.49,21.31,35.97,41.77,55.38,61.34,1.61,1.63,4.38.83,5.01-1.32,3.81-12.98-5.9-27.34-11.71-38.34-7.24-13.7-15.24-26.97-23.24-40.23l-4.71,3.64c10.01,11.63,18.37,24.47,25.06,38.28l4.71-3.64c-8.96-10.39-18.93-20.08-30.69-27.28-11.49-7.04-25.85-12.74-39.46-9.42-13.02,3.17-24.22,13.69-33.42,22.9-10.71,10.73-20.36,22.62-29.64,34.59-10.81,13.95-20.79,28.51-29.25,44.02l5.48,2.31c17.87-46.42,55.86-80.71,92.04-113.11,2.88-2.58-1.37-6.8-4.24-4.24C29.8,178.43-2.2,224.61-27.7,273.7c-1.81,3.48,2.95,6.13,5.18,3.03,37.08-51.51,75.22-104.18,127.73-141.15l-3.64-4.71C56.66,183.26,10.83,237.29-12.6,303.24c-1.16,3.25,3.8,5.2,5.48,2.31,32.93-56.59,71.07-112.21,124.93-150.87l-3.64-4.71C71.5,199.62,29.31,251.21,4.83,312.65c-1.26,3.16,3.94,5.31,5.48,2.31,29.95-58.08,70.42-111.7,124.25-149.58l-3.64-4.71c-47.49,46.48-86.97,100.83-116.46,160.38-1.7,3.43,3.36,6.46,5.18,3.03,28.54-53.86,65.82-103.02,112.18-142.79l-4.24-4.24c-42.5,44.48-74.71,98.14-94.02,156.54-1.06,3.22,3.9,5.32,5.48,2.31,27.54-52.17,62.91-101.44,111.17-136.32l-3.64-4.71c-16.97,19.91-32.57,40.97-46.55,63.08-7,11.07-13.59,22.4-19.77,33.95s-13.29,22.9-15.56,35.38c-.57,3.11,3.88,5.58,5.48,2.31,20.96-42.65,51.95-79.93,90.24-108.12l-3.64-4.71c-14.28,17.67-27.95,35.88-39.98,55.17-6.01,9.64-11.61,19.54-16.65,29.73s-9.88,19.77-9.92,30.84c0,2.82,4.28,4.3,5.59,1.51,13.53-28.8,33.93-53.94,59.52-72.88l-4.1-4.1c-10.41,21.86-20.82,43.71-31.22,65.57-1.65,3.47,3.04,6.29,5.18,3.03,11.7-17.77,23.4-35.54,35.1-53.32,2.13-3.23-3.06-6.24-5.18-3.03-11.7,17.77-23.4,35.54-35.1,53.32l5.18,3.03c10.41-21.86,20.82-43.71,31.22-65.57,1.14-2.4-1.45-6.07-4.1-4.1-26.42,19.56-47.68,45.26-61.67,75.03l5.59,1.51c.04-11.07,5.8-21.39,10.71-31.02s10.26-18.93,15.99-28.04c11.52-18.3,24.5-35.63,38.08-52.44,1.94-2.4-.65-6.91-3.64-4.71-39.12,28.8-70.96,66.66-92.39,110.27l5.48,2.31c2.23-12.24,9.55-23.88,15.38-34.73,6.05-11.28,12.51-22.34,19.35-33.16,13.71-21.69,28.97-42.35,45.61-61.87,2.05-2.4-.68-6.85-3.64-4.71-49.12,35.51-85.27,85.33-113.32,138.47l5.48,2.31c18.99-57.41,50.71-110.18,92.48-153.9,2.7-2.83-1.34-6.73-4.24-4.24-46.71,40.07-84.36,89.74-113.12,144.01l5.18,3.03c29.28-59.12,68.37-113.01,115.52-159.16,2.37-2.32-.79-6.72-3.64-4.71-54.69,38.49-95.96,92.71-126.4,151.74l5.48,2.31c24.06-60.41,65.85-111.22,107.8-160.03,2.06-2.4-.68-6.83-3.64-4.71C60.04,188.79,21.18,244.98-12.3,302.52l5.48,2.31c23.06-64.91,68.43-118.17,112.64-169.72,2.06-2.41-.66-6.8-3.64-4.71C48.78,168,10.02,221.3-27.7,273.7l5.18,3.03c25.29-48.68,56.9-94.36,98.05-131l-4.24-4.24C34.22,174.69-3.99,209.73-22.29,257.25c-1.23,3.19,3.88,5.26,5.48,2.31,8.94-16.39,19.56-31.77,31.13-46.41,10.59-13.4,21.57-26.89,34.45-38.17,6.47-5.67,13.89-11.72,22.36-13.99s18.07.03,26.2,3.64c15.46,6.87,27.96,18.67,38.89,31.33,2.35,2.72,6.11-.74,4.71-3.64-6.92-14.28-15.65-27.47-26-39.49-2.24-2.6-6.45.75-4.71,3.64,7.04,11.67,14.09,23.35,20.61,35.32,3.26,5.98,6.38,12.04,9.3,18.19,3.02,6.37,6.54,13.26,4.44,20.44l5.01-1.32c-19.42-19.57-37.89-40.03-55.38-61.34-1.86-2.27-6.09.17-5.01,2.92,12.96,33.19,33.76,62.33,53.59,91.66l4.71-3.64c-16.71-12.92-32.75-26.68-48.01-41.29-7.52-7.2-14.84-14.59-21.97-22.17s-14.57-15.67-19.68-25.14l-4.71,3.64c17.15,20.24,29.51,43.88,44.7,65.52,15.53,22.11,33.23,42.57,50.9,62.97l4.24-4.24c-43.67-35.77-87.66-71.99-122.43-116.85l-4.24,4.24c19.19,23.07,35.53,48.32,54.3,71.72,9.22,11.49,19.06,22.53,30.02,32.4,11.12,10.02,24.72,18.06,32.9,30.91l4.1-4.1c-50.92-36.01-102.97-73.01-140.03-124.06l-4.1,4.1c12.58,8.82,21.85,21.17,31.2,33.15,9.96,12.76,20.55,24.98,31.92,36.5,11.23,11.38,23.14,22.09,35.65,32.04,11.73,9.34,26.35,17.31,33.99,30.66l4.1-4.1c-27.04-18.96-54.24-37.72-80.96-57.14-24.85-18.06-50.37-36.57-69.22-61.17l-4.71,3.64c19.48,23.24,39.39,46.17,60.88,67.58,10.56,10.53,21.54,20.6,32.88,30.28s23.01,19.46,32.12,31.47l4.1-4.1c-57.35-26.3-108.27-65.32-148.59-113.86-2.15-2.59-6.74.88-4.71,3.64,15.5,21.09,33.85,39.72,53.03,57.45,9.63,8.9,19.45,17.6,29.21,26.36,9.86,8.86,20.07,17.62,27.12,28.99l4.1-4.1c-39.53-18.75-73.48-47.97-97.73-84.4-2.12-3.19-7.27-.25-5.18,3.03,9.18,14.4,19.58,27.96,30.43,41.14,5.45,6.62,11,13.16,16.56,19.69,2.78,3.27,5.56,6.53,8.32,9.81,1.89,2.24,8.74,8.19,7.32,11.44l4.71-.61c-17.47-15.03-32.6-32.42-45.01-51.85-2.07-3.24-7.27-.24-5.18,3.03h0Z"/>
  </g>
</svg>