<?xml version="1.0" encoding="UTF-8"?>
<svg id="_레이어_1" data-name="레이어_1" xmlns="http://www.w3.org/2000/svg" viewBox="0 0 148 148">
  <defs>
    <style>
      .choco-cream-1 {
        fill: #572212;
      }

      .choco-cream-2 {
        fill: #ffaa39;
      }

      .choco-cream-3 {
        fill: #fff;
      }

      .choco-cream-4 {
        fill: #fee58b;
      }

      .choco-cream-5 {
        fill: #ffd45c;
      }

      .choco-cream-6 {
        fill: #945745;
      }

      .choco-cream-7 {
        fill: #fff2bb;
      }
    </style>
  </defs>
  <g>
    <path class="choco-cream-6" d="M137.88,95.4c-1.01,5.06-9.43,7.53-9.43,7.53,0,0,2.13,8.87-.9,11.57-.16.15-.34.28-.54.4-2.46,1.53-7.56,1.35-11.77.15-.02,0-.03,0-.04-.02-1.51-.44-2.9-.99-4.01-1.67-.23-.14-.53-.02-.57.24-.41,2.21-2.46,10.34-11.38,12.37-6.78,1.55-14.62.63-20.64-2.25-2.33-1.11-4.4-2.52-6.01-4.2-.58-.59-1.09-1.21-1.55-1.87,0,0-.32.06-.92.15-6.01.9-39.88,5-55.16-13.58-5.19-6.31-6.61-15.09-2.76-22.3,1.14-2.14,2.73-4.07,4.94-5.25,0,0,.54-13.75,25.17-19.51,0,0-3.7-34.16,35.52-35.73,0,0,12.02-1.8,16.8,8.93,0,0-16.19,1.69-10,8.76,6.18,7.08,41.68,9.44,43.36,28.76,0,0,1.02,5.96-2.47,11.8,0,0-1.79,2.02,2.93,3.82,4.71,1.8,10.45,6.86,9.43,11.91Z"/>
    <path class="choco-cream-1" d="M87.43,26.08c-8.57.1-18.46,2.37-23.19,10.13-2.84,4.83-3.16,11.04-1.39,16.27,2.62,8.54,9.2,13.78,17.55,17.52,0,0-.1.42-.1.42-9.8-.33-19.49-6.86-21.56-16.81-2.96-14.59,4.47-26.04,19.48-27.83,3.07-.42,6.19-.46,9.21-.12v.43h0Z"/>
    <path class="choco-cream-1" d="M74.42,54.02c-.38-.26,6.29,9.66,17.3,12.58,11.01,2.92,30.9,12.36,31.91,14.49,0,0,.9-8.31-15.62-15.73-16.52-7.42-14.49,1.57-33.6-11.35Z"/>
    <path class="choco-cream-1" d="M42.21,57.35v6.54s-18.76,13.58-.51,28.3c0,0-37.47-19.76.51-34.83Z"/>
    <path class="choco-cream-1" d="M127,114.89c-2.46,1.53-7.56,1.35-11.77.15-.02,0-.03,0-.04-.02-8.11-2.31-13.79-6.27-18.68-6.56-11.22-.67-26.6-.11-35.26-8.3.42.25,6.08,3.31,23.01-.47,17.64-3.94,35.73-.45,42.03,13.37.31.69.55,1.29.71,1.83Z"/>
    <path class="choco-cream-4" d="M78.59,123.71c-2.33-1.11-4.4-2.52-6.01-4.2l6.01,4.2Z"/>
    <path class="choco-cream-1" d="M78.59,123.71c-2.33-1.11-4.4-2.52-6.01-4.2-.58-.59-1.09-1.21-1.55-1.87,0,0-.32.06-.92.15-2.77-2.64-8.93-6.9-21.53-9.63-19.33-4.2-23.22-14.53-23.22-14.53,0,0,12.28,12.28,25.17,12.58,12.89.3,22.62,7.35,24.87,10.19,1.53,1.95,2.64,5.35,3.2,7.31Z"/>
    <path class="choco-cream-1" d="M137.19,92.05s-38.05-26.97-77.45-15.73c0,0,2.4,5.84,18.13,7.94s45.99.15,59.33,7.79Z"/>
  </g>
  <polygon class="choco-cream-3" points="41.95 60.71 48 67.16 56.84 66.77 50.39 72.82 50.78 81.65 44.73 75.2 35.89 75.6 42.35 69.55 41.95 60.71"/>
  <polygon class="choco-cream-1" points="56.99 50.63 56.19 55.32 59.23 58.98 54.54 58.18 50.88 61.22 51.68 56.53 48.64 52.87 53.33 53.67 56.99 50.63"/>
  <polygon class="choco-cream-5" points="62.95 91.68 58.63 89.69 54.3 91.68 56.29 87.36 54.3 83.03 58.63 85.02 62.95 83.03 60.96 87.36 62.95 91.68"/>
  <polygon class="choco-cream-5" points="47.56 40.63 49.21 42.89 52 43.11 49.74 44.77 49.52 47.56 47.87 45.3 45.08 45.08 47.34 43.43 47.56 40.63"/>
  <polygon class="choco-cream-7" points="97.01 89 96.79 91.8 98.76 93.78 95.97 93.56 93.98 95.54 94.21 92.74 92.23 90.76 95.02 90.98 97.01 89"/>
  <rect class="choco-cream-5" x="54.73" y="31.43" width="2.61" height="6.94" rx="1.3" ry="1.3" transform="translate(58.25 -31.08) rotate(60)"/>
  <rect class="choco-cream-2" x="72.38" y="88.74" width="2.61" height="6.94" rx="1.3" ry="1.3" transform="translate(86.78 -25.1) rotate(45)"/>
  <rect class="choco-cream-2" x="111.18" y="92.7" width="2.61" height="6.94" rx="1.3" ry="1.3" transform="translate(246.54 33.47) rotate(114.4)"/>
  <rect class="choco-cream-7" x="57.66" y="71.53" width="2.61" height="6.94" rx="1.3" ry="1.3" transform="translate(149.2 44.02) rotate(109.23)"/>
  <rect class="choco-cream-7" x="104.4" y="86.88" width="2.61" height="6.94" rx="1.3" ry="1.3" transform="translate(80.31 227.06) rotate(-120)"/>
  <rect class="choco-cream-7" x="59.83" y="93.53" width="2.61" height="6.94" rx="1.3" ry="1.3" transform="translate(146.93 20.93) rotate(80.66)"/>
  <rect class="choco-cream-5" x="33.1" y="76.68" width="2.61" height="6.47" rx="1.3" ry="1.3" transform="translate(115.25 112.1) rotate(135)"/>
  <rect class="choco-cream-5" x="83.45" y="86.86" width="2.61" height="6.47" rx="1.3" ry="1.3" transform="translate(208.39 93.87) rotate(135)"/>
  <circle class="choco-cream-5" cx="61.73" cy="66.54" r="1.7"/>
  <circle class="choco-cream-5" cx="67.86" cy="87.54" r="1.46"/>
  <circle class="choco-cream-2" cx="62.99" cy="28.41" r="1.46"/>
  <circle class="choco-cream-7" cx="81.23" cy="96.22" r="1.15"/>
  <circle class="choco-cream-5" cx="116.66" cy="91.35" r="1.31"/>
  <circle class="choco-cream-7" cx="41.64" cy="85.19" r="1.04"/>
</svg>