<?xml version="1.0" encoding="UTF-8"?>
<svg id="_레이어_1" data-name="레이어_1" xmlns="http://www.w3.org/2000/svg" viewBox="0 0 148 148">
  <defs>
    <style>
      .cls-1 {
        fill: #ff769d;
      }

      .cls-2 {
        fill: #99544f;
      }

      .cls-3 {
        fill: #7c362a;
      }

      .cls-4 {
        fill: #572212;
      }

      .cls-5 {
        fill: #ff5596;
      }

      .cls-6 {
        fill: #e51062;
      }

      .cls-7 {
        fill: #cc003a;
      }

      .cls-8 {
        fill: #a87569;
      }

      .cls-9 {
        fill: #873e35;
      }

      .cls-10 {
        fill: #d80048;
      }

      .cls-11 {
        fill: #fff;
      }

      .cls-12 {
        stroke: #469937;
        stroke-width: 3.79px;
      }

      .cls-12, .cls-13, .cls-14 {
        fill: none;
        stroke-linecap: round;
        stroke-linejoin: round;
      }

      .cls-15 {
        fill: #49190f;
      }

      .cls-16 {
        fill: #4ec600;
      }

      .cls-17 {
        fill: #702f21;
      }

      .cls-18 {
        fill: #aeea1c;
      }

      .cls-19 {
        fill: #e50037;
      }

      .cls-20 {
        fill: #ef0f4f;
      }

      .cls-13 {
        stroke-width: .76px;
      }

      .cls-13, .cls-14 {
        stroke: #399100;
      }

      .cls-21 {
        fill: #88a8f8;
      }

      .cls-22 {
        fill: #f4256a;
      }

      .cls-23 {
        fill: #945745;
      }

      .cls-24 {
        fill: #ffdc9f;
      }

      .cls-25 {
        fill: #874333;
      }

      .cls-26 {
        fill: #400f0a;
      }

      .cls-27 {
        fill: #ffc0dd;
      }

      .cls-28 {
        fill: #ffaec5;
      }

      .cls-29 {
        fill: #ef2074;
      }
    </style>
  </defs>
  <path class="cls-18" d="M31.62,53.56c7.77,1.7,10.08,6.65,8.94,11.88s-5.31,8.77-13.08,7.07c-6.22-1.36-12.14-9.01-14.25-12.01-.46-.66-.26-1.56.43-1.97,3.17-1.85,11.74-6.33,17.96-4.97Z"/>
  <rect class="cls-6" x="107.01" y="60.6" width="8.09" height="5.67" rx="1.23" ry="1.23" transform="translate(-8.98 19.29) rotate(-9.54)"/>
  <circle class="cls-6" cx="111.04" cy="71.32" r="2.18"/>
  <g>
    <g>
      <path class="cls-12" d="M92.72,57.46s-8.77-40.13,14.49-43.72"/>
      <path class="cls-7" d="M93.44,23.48s-26.23-14.47-36,14.26c-9.77,28.73,15.88,48.43,35.83,44.66,0,0,36.17,5.29,32.51-39.81,0,0-.22-25.19-32.34-19.11Z"/>
      <rect class="cls-6" x="105.64" y="51.74" width="9.68" height="6.79" rx="1.23" ry="1.23" transform="translate(-7.61 19.08) rotate(-9.54)"/>
      <circle class="cls-10" cx="107.15" cy="37.51" r="11.95"/>
      <circle class="cls-6" cx="108.72" cy="36.43" r="8.37"/>
      <circle class="cls-29" cx="109.39" cy="35.95" r="5.77"/>
      <polygon class="cls-27" points="121.57 34.42 116.87 33.1 112.81 35.82 114.12 31.12 111.41 27.07 116.11 28.38 120.16 25.66 118.85 30.36 121.57 34.42"/>
      <circle class="cls-27" cx="112.29" cy="38.15" r="1.13"/>
      <circle class="cls-27" cx="108.9" cy="39.17" r=".97"/>
      <path class="cls-12" d="M60.76,57.36s-23.63-33.6-3.58-45.92"/>
      <path class="cls-19" d="M49,29.01s-29.95-.37-25,29.57c4.95,29.94,36.87,35.19,52.67,22.44,0,0,34.38-12.42,9.86-50.44,0,0-12.09-22.1-37.53-1.57Z"/>
      <rect class="cls-20" x="74.13" y="45.47" width="9.68" height="6.79" rx="1.23" ry="1.23" transform="translate(-13.39 58.53) rotate(-37.72)"/>
      <rect class="cls-20" x="79.35" y="53.07" width="8.09" height="5.67" rx="1.23" ry="1.23" transform="translate(-16.78 62.72) rotate(-37.72)"/>
      <g>
        <circle class="cls-20" cx="67.71" cy="34.89" r="11.95"/>
        <circle class="cls-22" cx="68.58" cy="33.2" r="8.37"/>
        <circle class="cls-5" cx="68.95" cy="32.47" r="5.77"/>
        <polygon class="cls-11" points="78.96 25.36 74.2 26.42 71.9 30.73 70.84 25.97 66.53 23.68 71.29 22.61 73.59 18.31 74.65 23.07 78.96 25.36"/>
        <circle class="cls-11" cx="72.54" cy="33.03" r="1.13"/>
        <circle class="cls-11" cx="70.04" cy="35.54" r=".97"/>
      </g>
    </g>
    <path class="cls-7" d="M93.06,66.15c-4.99,10.75-16.38,14.87-16.38,14.87-15.81,12.75-47.72,7.5-52.67-22.44-2.02-12.18,1.74-19.35,6.91-23.56-1.52,3.94-2.07,8.99-1.01,15.44,4.95,29.94,36.87,35.2,52.67,22.44,0,0,5.46-1.97,10.48-6.75Z"/>
  </g>
  <circle class="cls-20" cx="87.11" cy="62.86" r="2.18"/>
  <ellipse class="cls-24" cx="73.96" cy="89.88" rx="1.83" ry=".87" transform="translate(-41.89 78.62) rotate(-45)"/>
  <ellipse class="cls-24" cx="65.35" cy="76.58" rx="1.83" ry=".87" transform="translate(-35.01 68.64) rotate(-45)"/>
  <ellipse class="cls-24" cx="84.26" cy="76.19" rx="1.83" ry=".87" transform="translate(-29.19 81.9) rotate(-45)"/>
  <ellipse class="cls-24" cx="99.22" cy="74.5" rx="1.83" ry=".87" transform="translate(-23.61 91.98) rotate(-45)"/>
  <ellipse class="cls-24" cx="50.31" cy="76.45" rx="1.83" ry=".87" transform="translate(-39.32 57.97) rotate(-45)"/>
  <path class="cls-23" d="M138,118.67c0,9.88-8.01,17.89-17.89,17.89H27.89c-4.94,0-9.41-2-12.65-5.24-3.24-3.24-5.24-7.71-5.24-12.65,0-9.46,7.35-17.18,16.64-17.82-2.26-2.36-3.89-5.34-4.59-8.65-.26-1.2-.4-2.44-.4-3.72,0-9.88,8.01-17.89,17.89-17.89h68.92c9.88,0,17.89,8.01,17.89,17.89,0,1.28-.14,2.52-.4,3.72-.69,3.31-2.32,6.29-4.59,8.65,4.65.32,8.81,2.41,11.81,5.6,3,3.19,4.83,7.49,4.83,12.22Z"/>
  <path class="cls-25" d="M29.53,101.97s51.22,7.5,86.43,1.17c0,0-51.22,27.06-86.43-1.17Z"/>
  <path class="cls-28" d="M126.35,88.48c0,1.28-.14,2.52-.4,3.72-2.69,2.2-6.12,3.51-9.86,3.51-4.06,0-7.74-1.56-10.52-4.09-2.78,2.53-6.47,4.09-10.53,4.09s-7.74-1.56-10.52-4.09c-2.78,2.53-6.46,4.09-10.52,4.09s-7.74-1.56-10.52-4.09c-2.78,2.53-6.47,4.09-10.52,4.09s-7.74-1.56-10.52-4.09c-2.78,2.53-6.47,4.09-10.53,4.09-3.74,0-7.17-1.31-9.86-3.51-.26-1.2-.4-2.44-.4-3.72,0-9.88,8.01-17.89,17.89-17.89h68.92c9.88,0,17.89,8.01,17.89,17.89Z"/>
  <g>
    <circle class="cls-1" cx="51.29" cy="74.46" r="1.39"/>
    <circle class="cls-26" cx="84.9" cy="86.05" r="1.01"/>
    <circle class="cls-21" cx="65.81" cy="84.73" r="1.39"/>
    <circle class="cls-1" cx="119.29" cy="88.81" r="1.39"/>
    <circle class="cls-11" cx="49.03" cy="86.77" r="2.02"/>
    <circle class="cls-26" cx="104.08" cy="84.33" r="2.02"/>
    <circle class="cls-11" cx="75.38" cy="77.29" r="2.02"/>
    <circle class="cls-1" cx="32.6" cy="91.46" r="1.39"/>
    <polygon class="cls-26" points="56.53 78.23 58.03 79.26 59.78 78.79 58.76 80.29 59.23 82.04 57.73 81.02 55.97 81.49 57 79.99 56.53 78.23"/>
    <polygon class="cls-21" points="115.49 81.46 115.02 83.21 116.04 84.71 114.29 84.23 112.79 85.26 113.26 83.5 112.24 82 113.99 82.48 115.49 81.46"/>
    <polygon class="cls-1" points="76.55 85.83 76.67 88.2 78.56 89.66 76.18 89.78 74.73 91.66 74.61 89.29 72.72 87.84 75.1 87.71 76.55 85.83"/>
    <polygon class="cls-11" points="94.98 87.92 96.19 88.92 97.73 88.65 96.73 89.86 96.99 91.4 95.79 90.4 94.24 90.67 95.25 89.46 94.98 87.92"/>
  </g>
  <g>
    <path class="cls-16" d="M28.54,65.36c8.87-3.93,14.71-.73,17.35,5.24s1.1,12.45-7.76,16.38c-7.1,3.15-18.43-.11-22.67-1.54-.93-.31-1.39-1.34-.99-2.24,1.79-4.1,6.98-14.69,14.08-17.84Z"/>
    <path class="cls-14" d="M18.83,82.24s9.22-9.87,23.48-10.61"/>
  </g>
  <g>
    <path class="cls-16" d="M118.56,61.58c-6.62-3.16-11.11-.87-13.24,3.59-2.13,4.46-1.1,9.39,5.52,12.56,5.3,2.53,13.94.31,17.18-.68.71-.22,1.08-.99.8-1.67-1.27-3.14-4.97-11.26-10.27-13.79Z"/>
    <path class="cls-13" d="M125.55,74.55s-6.77-7.66-17.53-8.52"/>
  </g>
  <path class="cls-4" d="M103.69,55.49c-7.14-4.67-10.58,4.79-10.6,4.86-.07-.03-9.31-3.99-10.8,4.41-1.49,8.43,9.7,13.39,18.59,13.58l-.26-.61.26.61c5.94-6.6,9.98-18.16,2.82-22.84Z"/>
  <path class="cls-15" d="M90.5,70.2c-1.38-3.55-1.17-7.33.28-10.55-2.85-.62-7.55-.69-8.57,5.09-1.38,7.85,8.2,12.68,16.7,13.47-3.72-1.24-6.88-4.07-8.4-8.01Z"/>
  <g>
    <circle class="cls-23" cx="101.35" cy="59.7" r="3.95"/>
    <circle class="cls-8" cx="101.83" cy="58.73" r="2.86"/>
    <polygon class="cls-11" points="103.03 53.83 103.82 55.78 105.82 56.44 103.87 57.24 103.21 59.24 102.41 57.29 100.41 56.62 102.36 55.83 103.03 53.83"/>
    <circle class="cls-8" cx="101.9" cy="65.98" r="1.24"/>
    <circle class="cls-11" cx="100.59" cy="59.91" r=".5"/>
    <circle class="cls-11" cx="101.88" cy="60.53" r=".38"/>
  </g>
  <g>
    <path class="cls-17" d="M84.46,68.8l5.37,3.95,6.5-1.51c.52-.12.9.47.59.89l-3.95,5.37,1.51,6.5c.12.52-.47.9-.89.59l-5.37-3.95-6.5,1.51c-.52.12-.9-.47-.59-.89l3.95-5.37-1.51-6.5c-.12-.52.47-.9.89-.59Z"/>
    <g>
      <circle class="cls-3" cx="89.94" cy="75.52" r="2.77"/>
      <circle class="cls-9" cx="90.1" cy="74.77" r="2.01"/>
      <polygon class="cls-11" points="90.34 72.47 90.79 73.09 91.54 73.15 90.92 73.6 90.86 74.35 90.42 73.74 89.66 73.67 90.28 73.23 90.34 72.47"/>
      <polygon class="cls-11" points="91.42 74.34 91.43 74.8 91.78 75.09 91.33 75.1 91.04 75.45 91.03 75 90.67 74.71 91.13 74.7 91.42 74.34"/>
      <circle class="cls-2" cx="89.45" cy="75.78" r=".35"/>
      <circle class="cls-2" cx="90.43" cy="76" r=".26"/>
    </g>
  </g>
</svg>