<?xml version="1.0" encoding="UTF-8"?>
<svg id="_레이어_1" data-name="레이어_1" xmlns="http://www.w3.org/2000/svg" xmlns:xlink="http://www.w3.org/1999/xlink" viewBox="0 0 148 148">
  <defs>
    <style>
      .choco-bear-chip-1 {
        fill: #ff9cad;
      }

      .choco-bear-chip-2 {
        fill: #fff;
      }

      .choco-bear-chip-3 {
        fill: #fcacbc;
      }

      .choco-bear-chip-4 {
        fill: none;
      }

      .choco-bear-chip-5 {
        clip-path: url(#choco-bear-chip-clippath-1);
      }

      .choco-bear-chip-6 {
        fill: #f9cdd8;
      }

      .choco-bear-chip-7 {
        fill: #ffc7d0;
      }

      .choco-bear-chip-8 {
        fill: #945745;
      }

      .choco-bear-chip-9 {
        fill: #400f0a;
      }

      .choco-bear-chip-10 {
        fill: #2d0a09;
      }

      .choco-bear-chip-11 {
        clip-path: url(#choco-bear-chip-clippath-2);
      }

      .choco-bear-chip-12 {
        fill: #ff7d8d;
      }

      .choco-bear-chip-13 {
        fill: #82504d;
      }

      .choco-bear-chip-14 {
        clip-path: url(#choco-bear-chip-clippath);
      }
    </style>
    <clipPath id="choco-bear-chip-clippath">
      <rect class="choco-bear-chip-4" x="10" y="10" width="128" height="128" rx="13.03" ry="13.03"/>
    </clipPath>
    <clipPath id="choco-bear-chip-clippath-1">
      <rect class="choco-bear-chip-3" x="26.41" y="26.41" width="95.18" height="95.18" rx="6.04" ry="6.04" transform="translate(-17.97 24.06) rotate(-16.49)"/>
    </clipPath>
    <clipPath id="choco-bear-chip-clippath-2">
      <path class="choco-bear-chip-9" d="M104.43,71.89c.26-.95.39-1.92.39-2.9,0-10.07-13.8-18.23-30.83-18.23s-30.83,8.16-30.83,18.23c0,.99.14,1.96.39,2.9-2.82,2.87-4.44,6.18-4.44,9.71,0,10.98,15.61,19.89,34.87,19.89s34.87-8.9,34.87-19.89c0-3.53-1.62-6.83-4.44-9.71Z"/>
    </clipPath>
  </defs>
  <g>
    <rect class="choco-bear-chip-13" x="10" y="10" width="128" height="128" rx="13.03" ry="13.03"/>
    <g class="choco-bear-chip-14">
      <path class="choco-bear-chip-9" d="M-10.16,98.64c12.67,19.84,28.1,37.7,45.95,53.06,1.3,1.12,3.88,1.3,4.71-.61,3.16-7.21-3.35-12.9-7.66-18.01-6.32-7.49-12.71-14.92-19.01-22.43-12.82-15.26-25.23-30.87-35.95-47.69l-5.18,3.03c24.81,37.25,59.43,67.36,99.88,86.55,2.54,1.21,5.8-1.36,4.1-4.1-6.55-10.56-15.58-18.96-24.73-27.22-9.96-8.98-20.01-17.86-29.9-26.93C2.33,76.19-16.78,57.25-32.67,35.63l-4.71,3.64C3.21,88.14,54.66,127.57,112.42,154.06c2.37,1.09,6.13-1.44,4.1-4.1-8.74-11.51-19.42-21.04-30.37-30.39-11.78-10.05-23.27-20.38-34.27-31.28C29.89,66.5,9.58,43.12-10.3,19.41c-2.16-2.58-6.79.92-4.71,3.64C3.73,47.52,28.54,66.05,53.24,84.09c27.71,20.24,55.99,39.71,84.08,59.41,2.55,1.79,5.51-1.65,4.1-4.1-7.55-13.2-21.18-21.08-32.83-30.22-13.28-10.42-25.89-21.69-37.74-33.7-11.57-11.72-22.31-24.17-32.43-37.16C28.88,26.09,19.34,13.89,6.51,4.9c-2.4-1.68-5.85,1.7-4.1,4.1,37.71,51.94,90.36,89.56,142.18,126.21,2.48,1.75,5.66-1.66,4.1-4.1-7.94-12.46-20.39-20.38-31.33-29.91-11.54-10.05-21.86-21.43-31.48-33.32C66.66,44.13,50.08,18.37,30.53-5.13c-2.5-3.01-6.56,1.26-4.24,4.24,34.77,44.85,78.76,81.07,122.43,116.85,2.97,2.43,6.8-1.29,4.24-4.24-18.16-20.96-36.38-41.97-52.12-64.86-14.57-21.19-26.81-43.95-43.49-63.64-2.27-2.68-6.27.74-4.71,3.64,4.76,8.83,11.32,16.36,18.11,23.67,7.5,8.08,15.22,15.94,23.15,23.59,15.65,15.08,32.14,29.27,49.33,42.57,2.44,1.88,6.81-.53,4.71-3.64-19.51-28.85-40.24-57.57-52.98-90.22l-5.01,2.92c17.49,21.31,35.97,41.77,55.38,61.34,1.61,1.63,4.38.83,5.01-1.32,3.81-12.98-5.9-27.34-11.71-38.34-7.24-13.7-15.24-26.97-23.24-40.23l-4.71,3.64c10.01,11.63,18.37,24.47,25.06,38.28l4.71-3.64c-8.96-10.39-18.93-20.08-30.69-27.28-11.49-7.04-25.85-12.74-39.46-9.42-13.02,3.17-24.22,13.69-33.42,22.9C26.19,2.39,16.54,14.28,7.26,26.25c-10.81,13.95-20.79,28.51-29.25,44.02l5.48,2.31C1.37,26.16,39.35-8.13,75.53-40.53c2.88-2.58-1.37-6.8-4.24-4.24C29.8-7.83-2.2,38.35-27.7,87.44c-1.81,3.48,2.95,6.13,5.18,3.03C14.56,38.96,52.7-13.71,105.22-50.68l-3.64-4.71C56.66-3,10.83,51.03-12.6,116.98c-1.16,3.25,3.8,5.2,5.48,2.31C25.81,62.7,63.95,7.08,117.82-31.58l-3.64-4.71C71.5,13.36,29.31,64.95,4.83,126.39c-1.26,3.16,3.94,5.31,5.48,2.31C40.26,70.62,80.73,17,134.56-20.89l-3.64-4.71C83.44,20.88,43.96,75.23,14.47,134.78c-1.7,3.43,3.36,6.46,5.18,3.03C48.19,83.95,85.47,34.79,131.83-4.98l-4.24-4.24C85.09,35.25,52.88,88.91,33.57,147.32c-1.06,3.22,3.9,5.32,5.48,2.31,27.54-52.17,62.91-101.44,111.17-136.32l-3.64-4.71c-16.97,19.91-32.57,40.97-46.55,63.08-7,11.07-13.59,22.4-19.77,33.95s-13.29,22.9-15.56,35.38c-.57,3.11,3.88,5.58,5.48,2.31,20.96-42.65,51.95-79.93,90.24-108.12l-3.64-4.71c-14.28,17.67-27.95,35.88-39.98,55.17-6.01,9.64-11.61,19.54-16.65,29.73s-9.88,19.77-9.92,30.84c0,2.82,4.28,4.3,5.59,1.51,13.53-28.8,33.93-53.94,59.52-72.88l-4.1-4.1c-10.41,21.86-20.82,43.71-31.22,65.57-1.65,3.47,3.04,6.29,5.18,3.03,11.7-17.77,23.4-35.54,35.1-53.32,2.13-3.23-3.06-6.24-5.18-3.03-11.7,17.77-23.4,35.54-35.1,53.32l5.18,3.03c10.41-21.86,20.82-43.71,31.22-65.57,1.14-2.4-1.45-6.07-4.1-4.1-26.42,19.56-47.68,45.26-61.67,75.03l5.59,1.51c.04-11.07,5.8-21.39,10.71-31.02s10.26-18.93,15.99-28.04c11.52-18.3,24.5-35.63,38.08-52.44,1.94-2.4-.65-6.91-3.64-4.71-39.12,28.8-70.96,66.66-92.39,110.27l5.48,2.31c2.23-12.24,9.55-23.88,15.38-34.73,6.05-11.28,12.51-22.34,19.35-33.16,13.71-21.69,28.97-42.35,45.61-61.87,2.05-2.4-.68-6.85-3.64-4.71C98.07,43.64,61.92,93.46,33.87,146.6l5.48,2.31C58.34,91.5,90.06,38.74,131.83-4.98c2.7-2.83-1.34-6.73-4.24-4.24C80.88,30.84,43.23,80.52,14.47,134.78l5.18,3.03C48.93,78.69,88.02,24.8,135.17-21.35c2.37-2.32-.79-6.72-3.64-4.71C76.85,12.42,35.57,66.64,5.14,125.67l5.48,2.31C34.68,67.58,76.47,16.76,118.42-32.04c2.06-2.4-.68-6.83-3.64-4.71C60.04,2.53,21.18,58.72-12.3,116.26l5.48,2.31C16.25,53.66,61.62.41,105.82-51.15c2.06-2.41-.66-6.8-3.64-4.71C48.78-18.26,10.02,35.04-27.7,87.44l5.18,3.03C2.77,41.79,34.39-3.89,75.53-40.53l-4.24-4.24C34.22-11.57-3.99,23.47-22.29,70.99c-1.23,3.19,3.88,5.26,5.48,2.31C-7.87,56.91,2.75,41.52,14.32,26.89,24.91,13.49,35.89,0,48.77-11.28c6.47-5.67,13.89-11.72,22.36-13.99s18.07.03,26.2,3.64c15.46,6.87,27.96,18.67,38.89,31.33,2.35,2.72,6.11-.74,4.71-3.64-6.92-14.28-15.65-27.47-26-39.49-2.24-2.6-6.45.75-4.71,3.64,7.04,11.67,14.09,23.35,20.61,35.32,3.26,5.98,6.38,12.04,9.3,18.19,3.02,6.37,6.54,13.26,4.44,20.44l5.01-1.32c-19.42-19.57-37.89-40.03-55.38-61.34-1.86-2.27-6.09.17-5.01,2.92,12.96,33.19,33.76,62.33,53.59,91.66l4.71-3.64c-16.71-12.92-32.75-26.68-48.01-41.29-7.52-7.2-14.84-14.59-21.97-22.17s-14.57-15.67-19.68-25.14l-4.71,3.64c17.15,20.24,29.51,43.88,44.7,65.52,15.53,22.11,33.23,42.57,50.9,62.97l4.24-4.24C109.29,75.94,65.3,39.72,30.53-5.13L26.29-.89c19.19,23.07,35.53,48.32,54.3,71.72,9.22,11.49,19.06,22.53,30.02,32.4,11.12,10.02,24.72,18.06,32.9,30.91l4.1-4.1C96.7,94.02,44.65,57.02,7.59,5.98l-4.1,4.1c12.58,8.82,21.85,21.17,31.2,33.15,9.96,12.76,20.55,24.98,31.92,36.5,11.23,11.38,23.14,22.09,35.65,32.04,11.73,9.34,26.35,17.31,33.99,30.66l4.1-4.1c-27.04-18.96-54.24-37.72-80.96-57.14C34.54,63.13,9.01,44.62-9.83,20.02l-4.71,3.64C4.94,46.89,24.85,69.82,46.34,91.23c10.56,10.53,21.54,20.6,32.88,30.28s23.01,19.46,32.12,31.47l4.1-4.1C58.09,122.58,7.17,83.56-33.14,35.02c-2.15-2.59-6.74.88-4.71,3.64C-22.35,59.74-4,78.38,15.18,96.11c9.63,8.9,19.45,17.6,29.21,26.36,9.86,8.86,20.07,17.62,27.12,28.99l4.1-4.1C36.09,128.6,2.14,99.39-22.12,62.96c-2.12-3.19-7.27-.25-5.18,3.03,9.18,14.4,19.58,27.96,30.43,41.14,5.45,6.62,11,13.16,16.56,19.69,2.78,3.27,5.56,6.53,8.32,9.81,1.89,2.24,8.74,8.19,7.32,11.44l4.71-.61c-17.47-15.03-32.6-32.42-45.01-51.85-2.07-3.24-7.27-.24-5.18,3.03h0Z"/>
    </g>
  </g>
  <g>
    <rect class="choco-bear-chip-3" x="26.41" y="26.41" width="95.18" height="95.18" rx="6.04" ry="6.04" transform="translate(-17.97 24.06) rotate(-16.49)"/>
    <g class="choco-bear-chip-5">
      <path class="choco-bear-chip-12" d="M14.04,72.03c4.12,10.45,8.32,21.09,15.31,30.01,7.13,9.1,16.93,15.13,27.38,19.74,10.92,4.82,22.36,8.7,34.33,9.63,13.7,1.07,27.34-2.06,40.53-5.39,3.74-.94,2.16-6.73-1.6-5.79-11.8,2.98-23.81,5.76-36.07,5.33-11.86-.42-23.39-4.21-34.17-8.96-9.46-4.17-18.56-9.44-25.17-17.55s-10.85-18.68-14.76-28.61c-1.4-3.55-7.2-2-5.79,1.6h0Z"/>
      <path class="choco-bear-chip-12" d="M33.07,111.93c.83,4.77,1.86,9.5,3.18,14.16.82,2.9,1.44,7.53,4.5,9.04s7.52-.74,10.56-1.65c4.11-1.24,8.2-2.36,11.79-4.8,1.91-1.29,2.04-5.03-.72-5.48-8.07-1.34-15.75-6.61-22.47-11.04-2.44-1.61-5.84,1.65-4.1,4.1,3.85,5.46,7.39,11.57,12.07,16.37,2.25,2.31,5.48-.14,5.01-2.92-.72-4.24-5.43-12.57-10.95-10.51-6.1,2.28-1.82,10.03.94,13.02,1.58,1.71,4.39.76,5.01-1.32.32-1.07.41-1.69.37-2.8-.13-3.85-6.13-3.87-6,0l-.15,1.21,5.01-1.32c-.49-.7-1.11-1.24-1.88-1.61-1.26-.89-1.27-.78-.01.33.66,1.62,1.55,2.75,1.87,4.6l5.01-2.92c-4.31-4.42-7.58-10.12-11.13-15.15l-4.1,4.1c7.16,4.72,15.29,10.21,23.91,11.64l-.72-5.48c-2.68,1.82-5.59,2.76-8.67,3.69-1.39.42-6.62,2.86-7.75,2.51-.95-.29-2.27-7.62-2.54-8.71-.89-3.52-1.62-7.08-2.24-10.65-.66-3.8-6.44-2.19-5.79,1.6h0Z"/>
      <path class="choco-bear-chip-1" d="M14.7,65.91c2.89,2.63,3.99,8.22,5.9,11.64,2.14,3.83,4.74,7.4,7.56,10.77,5.7,6.81,12.5,12.72,19.67,17.94,15.01,10.92,32.81,17.91,51.53,17.61,3.86-.06,3.87-6.06,0-6-18.32.29-35.39-6.9-49.86-17.79-7.09-5.34-13.86-11.53-19.21-18.64-2.31-3.07-4.37-6.37-6.04-9.83-1.66-3.45-2.41-7.28-5.32-9.94s-7.1,1.64-4.24,4.24h0Z"/>
      <path class="choco-bear-chip-1" d="M20.51,63.93c-1.37-1.9-2.36-3.88-2.98-6.14-1.02-3.72-6.81-2.14-5.79,1.6.75,2.71,1.94,5.29,3.59,7.58.95,1.31,2.61,1.95,4.1,1.08,1.29-.76,2.03-2.78,1.08-4.1h0Z"/>
      <path class="choco-bear-chip-1" d="M12.13,59.47c.11,2.02.81,3.77,1.91,5.45.94,1.42,2.07,2.71,2.4,4.42.74,3.79,6.52,2.18,5.79-1.6-.33-1.71-1.19-3.21-2.17-4.63-.73-1.07-1.86-2.3-1.94-3.65-.21-3.84-6.21-3.86-6,0h0Z"/>
      <path class="choco-bear-chip-1" d="M13.03,62.81c.4.56.76,1.14,1.08,1.74.15.28.29.57.42.86-.25-.58.15.45.19.56.51,1.48,2.08,2.62,3.69,2.1,1.47-.47,2.64-2.1,2.1-3.69s-1.3-3.19-2.29-4.6c-.9-1.28-2.66-2.01-4.1-1.08-1.27.82-2.05,2.73-1.08,4.1h0Z"/>
      <path class="choco-bear-chip-1" d="M13.62,62.94c1.5,2.54,2.78,5.17,3.8,7.94.56,1.52,2.04,2.55,3.69,2.1,1.47-.4,2.66-2.16,2.1-3.69-1.19-3.25-2.64-6.39-4.4-9.37-1.96-3.32-7.15-.31-5.18,3.03h0Z"/>
      <path class="choco-bear-chip-6" d="M77.72,20.87c11.61.19,22.27,5.31,30.46,13.42,7.66,7.59,15.78,19.34,16.15,30.44.13,3.85,6.13,3.87,6,0-.42-12.82-9-25.89-17.9-34.68-9.33-9.22-21.51-14.97-34.7-15.18-3.86-.06-3.86,5.94,0,6h0Z"/>
      <path class="choco-bear-chip-6" d="M97.1,19.35c5.06,1.1,9.86,6.32,13.35,9.97,3.81,3.99,7.57,8.53,6.82,14.38-.5,3.82,5.51,3.78,6,0,.88-6.81-3.03-12.52-7.4-17.36s-10.63-11.36-17.17-12.78c-3.76-.82-5.37,4.97-1.6,5.79h0Z"/>
      <path class="choco-bear-chip-2" d="M94.75,27.84c8.64,1.98,13.4,8.49,12.79,17.56-.44,6.47,5.83,12,12,12,6.86,0,11.56-5.51,12-12,1.29-19.05-11.85-36.45-30.41-40.7-6.31-1.44-12.99,1.94-14.76,8.38-1.66,6.05,2.04,13.31,8.38,14.76h0Z"/>
    </g>
  </g>
  <g>
    <g>
      <circle class="choco-bear-chip-9" cx="55.53" cy="55.34" r="12.41"/>
      <circle class="choco-bear-chip-7" cx="55.53" cy="55.34" r="7.11"/>
    </g>
    <g>
      <circle class="choco-bear-chip-9" cx="94.47" cy="55.34" r="12.41"/>
      <circle class="choco-bear-chip-7" cx="94.47" cy="55.34" r="7.11"/>
    </g>
    <g>
      <path class="choco-bear-chip-9" d="M104.43,71.89c.26-.95.39-1.92.39-2.9,0-10.07-13.8-18.23-30.83-18.23s-30.83,8.16-30.83,18.23c0,.99.14,1.96.39,2.9-2.82,2.87-4.44,6.18-4.44,9.71,0,10.98,15.61,19.89,34.87,19.89s34.87-8.9,34.87-19.89c0-3.53-1.62-6.83-4.44-9.71Z"/>
      <g class="choco-bear-chip-11">
        <path class="choco-bear-chip-10" d="M38.02,73.12c-1.84,12.94,6.84,23.05,18.26,27.89,13.63,5.78,29.28,5.52,43.81,6.37,3.86.23,3.84-5.77,0-6-11.76-.69-23.92-.69-35.36-3.8-10.37-2.81-22.71-10.35-20.93-22.87.54-3.78-5.24-5.41-5.79-1.6h0Z"/>
      </g>
    </g>
    <g>
      <g>
        <circle class="choco-bear-chip-2" cx="65.24" cy="71.04" r="2.78"/>
        <circle class="choco-bear-chip-2" cx="82.03" cy="71.04" r="2.78"/>
      </g>
      <g>
        <rect class="choco-bear-chip-7" x="73.27" y="74.32" width=".73" height="8.54" rx=".37" ry=".37" transform="translate(-26.95 117.08) rotate(-67.81)"/>
        <rect class="choco-bear-chip-7" x="73.27" y="74.32" width=".73" height="8.54" rx=".37" ry=".37" transform="translate(117.54 -19.75) rotate(67.19)"/>
      </g>
    </g>
  </g>
  <circle class="choco-bear-chip-8" cx="28.71" cy="37.92" r="4.52"/>
  <circle class="choco-bear-chip-12" cx="39.92" cy="34.79" r="2.87"/>
  <circle class="choco-bear-chip-2" cx="49.31" cy="31.79" r="1.89"/>
  <g>
    <circle class="choco-bear-chip-8" cx="117.86" cy="110.35" r="4.52"/>
    <circle class="choco-bear-chip-8" cx="106.6" cy="113.89" r="2.87"/>
    <circle class="choco-bear-chip-8" cx="97.71" cy="116.68" r="1.89"/>
  </g>
  <path class="choco-bear-chip-2" d="M90.38,57.52c7.5,1.5,13.19,7.24,11.88,15.27-.09.95-.94,1.65-1.89,1.56-1.02-.09-1.75-1.09-1.53-2.09,2.06-6.6-2.68-11.76-8.69-13.76-.61-.16-.4-1.1.23-.97h0Z"/>
  <circle class="choco-bear-chip-2" cx="99.18" cy="77.57" r="1.96"/>
</svg>