<?xml version="1.0" encoding="UTF-8"?>
<svg id="_레이어_1" data-name="레이어_1" xmlns="http://www.w3.org/2000/svg" viewBox="0 0 148 148">
  <defs>
    <style>
      .choco-cookie-1 {
        fill: #572212;
      }

      .choco-cookie-2 {
        fill: #fff;
      }

      .choco-cookie-3 {
        fill: #f9bbc8;
      }

      .choco-cookie-4 {
        fill: #88a8f8;
      }

      .choco-cookie-5 {
        fill: #eef2fb;
      }

      .choco-cookie-6 {
        fill: #b6ccfe;
      }

      .choco-cookie-7 {
        fill: #d7e3fd;
      }

      .choco-cookie-8 {
        fill: #ff8da8;
      }

      .choco-cookie-9 {
        fill: #74342a;
      }
    </style>
  </defs>
  <g>
    <circle class="choco-cookie-1" cx="76.48" cy="74.52" r="64"/>
    <path class="choco-cookie-3" d="M76.39,9.65c-34.38,0-62.42,27.11-63.93,61.12.83,1.05,1.89,1.85,3.21,2.2,3.78,1,7.47-2.3,8.91-5.93,1.44-3.63,1.46-7.68,2.65-11.4,1.39-4.3,4.4-8.06,8.29-10.36,2.66-1.57,6.03-2.45,8.84-1.16,1.54.7,2.75,1.98,3.66,3.41,2.56,4.04,2.79,9.1,2.76,13.89-.03,4.79-.21,9.76,1.71,14.15,1.93,4.39,6.71,7.95,11.34,6.74,2.04-.53,3.78-1.91,5.12-3.53,2.35-2.82,3.66-6.48,3.64-10.15-.04-7.09-4.81-14.06-2.81-20.86,1-3.39,3.73-6.22,7.08-7.34.97-.32,2.01-.51,3.01-.32,3.64.69,4.62,5.56,3.79,9.18-.83,3.61-2.63,7.32-1.49,10.85.91,2.78,3.75,4.81,6.68,4.75s5.69-2.2,6.49-5.02c.67-2.38.02-4.91-.16-7.37-.57-7.61,4.13-15.64,11.45-17.82,7.31-2.18,16.26,2.83,17.25,10.4.38,2.9-.31,5.83-.33,8.76-.05,7.31,4.48,14.46,11.11,17.53,1.68.78,3.53,1.32,5.37,1.12.11-.01.21-.04.32-.05-.65-34.78-29.03-62.79-63.97-62.79Z"/>
    <g>
      <g>
        <g>
          <path class="choco-cookie-6" d="M76.65,60.23s0,0,0,0c-.16-.17-19.4-20.64-32.59-.77-13.24,19.94,9.89,45.16,32.43,55.57v-1.86s.15-52.93.15-52.93Z"/>
          <path class="choco-cookie-6" d="M76.51,113.16v1.86c22.6-10.28,45.88-35.36,32.75-55.38-13.08-19.95-32.46.44-32.6.58,0,0,0,0,0,0l-.16,52.93Z"/>
          <polygon class="choco-cookie-6" points="76.51 113.16 76.67 60.23 76.66 60.22 76.65 60.23 76.51 113.16"/>
        </g>
        <path class="choco-cookie-4" d="M58.79,82.67c.44-10.64,5.2-20.08,12.51-26.71-6.62-4.77-18.57-10.22-27.65,3.46-12.32,18.55,6.84,41.66,27.72,53.17-8.13-7.34-13.06-18.12-12.58-29.92Z"/>
        <circle class="choco-cookie-7" cx="98.56" cy="67.82" r="11.04"/>
        <circle class="choco-cookie-5" cx="100.86" cy="65.85" r="8"/>
        <polygon class="choco-cookie-2" points="109.41 54.64 109.27 60.52 113.65 64.46 107.76 64.32 103.83 68.7 103.96 62.81 99.59 58.88 105.47 59.02 109.41 54.64"/>
      </g>
      <circle class="choco-cookie-7" cx="92.94" cy="84.52" r="3.46"/>
    </g>
    <rect class="choco-cookie-8" x="52.1" y="31.65" width="11.83" height="4.52" rx="2.26" ry="2.26" transform="translate(99.2 87.01) rotate(-158.1)"/>
    <rect class="choco-cookie-8" x="22.37" y="45.21" width="11.83" height="4.52" rx="2.26" ry="2.26" transform="translate(67.75 86.15) rotate(165.19)"/>
    <rect class="choco-cookie-8" x="126.67" y="53.26" width="6.69" height="4.52" rx="2.26" ry="2.26" transform="translate(256.28 -8.06) rotate(130.14)"/>
    <rect class="choco-cookie-8" x="100.28" y="30.78" width="11.83" height="4.52" rx="2.26" ry="2.26" transform="translate(193.78 101.58) rotate(-159.24)"/>
    <rect class="choco-cookie-4" x="34.66" y="111.32" width="11.83" height="4.52" rx="2.26" ry="2.26" transform="translate(-63.81 53.16) rotate(-40.28)"/>
    <rect class="choco-cookie-9" x="71.36" y="40.11" width="7.91" height="4.52" rx="2.26" ry="2.26" transform="translate(74.35 -44.04) rotate(60)"/>
    <rect class="choco-cookie-9" x="51.93" y="122.3" width="7.91" height="4.52" rx="2.26" ry="2.26" transform="translate(43.5 -11.4) rotate(18.96)"/>
    <rect class="choco-cookie-8" x="106.97" y="110.75" width="11.83" height="4.52" rx="2.26" ry="2.26" transform="translate(215.72 235.23) rotate(-175.11)"/>
    <rect class="choco-cookie-8" x="24.1" y="99.23" width="11.83" height="4.52" rx="2.26" ry="2.26" transform="translate(-2.55 202.19) rotate(-145.61)"/>
    <rect class="choco-cookie-7" x="64.52" y="22.02" width="7.99" height="4.52" rx="2.26" ry="2.26" transform="translate(32.18 87.23) rotate(-79.52)"/>
    <rect class="choco-cookie-7" x="117" y="39.66" width="12.7" height="4.52" rx="2.26" ry="2.26" transform="translate(133.11 171.84) rotate(-113.07)"/>
    <rect class="choco-cookie-9" x="124.53" y="85.88" width="11.83" height="4.52" rx="2.26" ry="2.26" transform="translate(-22.25 126.47) rotate(-48.14)"/>
    <rect class="choco-cookie-4" x="36.19" y="30.28" width="7.91" height="4.52" rx="2.26" ry="2.26" transform="translate(-8.11 51.03) rotate(-60)"/>
    <rect class="choco-cookie-4" x="128.37" y="69.42" width="11.06" height="4.52" rx="2.26" ry="2.26" transform="translate(228.58 190.43) rotate(-156.73)"/>
    <rect class="choco-cookie-4" x="79.07" y="27.21" width="14.3" height="4.52" rx="2.26" ry="2.26" transform="translate(-1.08 55.57) rotate(-35.52)"/>
    <rect class="choco-cookie-4" x="91.94" y="123.55" width="14.3" height="4.52" rx="2.26" ry="2.26" transform="translate(-54.48 171.26) rotate(-68.26)"/>
    <rect class="choco-cookie-8" x="69.31" y="130.39" width="11.65" height="4.52" rx="2.26" ry="2.26" transform="translate(192.82 229.57) rotate(159)"/>
    <rect class="choco-cookie-7" x="119.23" y="97.72" width="9.08" height="4.52" rx="2.26" ry="2.26" transform="translate(209.61 233.94) rotate(-161.59)"/>
    <circle class="choco-cookie-2" cx="31.76" cy="91" r="1.48"/>
    <circle class="choco-cookie-2" cx="28.93" cy="112.43" r="1.48"/>
    <circle class="choco-cookie-2" cx="50.5" cy="114.17" r="1.48"/>
    <circle class="choco-cookie-2" cx="47.97" cy="128.15" r="1.48"/>
    <circle class="choco-cookie-2" cx="67.63" cy="126.93" r="1.48"/>
    <circle class="choco-cookie-2" cx="87.71" cy="131.37" r="1.48"/>
    <circle class="choco-cookie-2" cx="110.54" cy="121.58" r="1.48"/>
    <circle class="choco-cookie-2" cx="119.02" cy="106.32" r="1.48"/>
    <circle class="choco-cookie-2" cx="131.75" cy="96.56" r="1.48"/>
    <circle class="choco-cookie-2" cx="129.37" cy="79.28" r="1.48"/>
    <circle class="choco-cookie-2" cx="136.93" cy="63.8" r="1.48"/>
    <circle class="choco-cookie-2" cx="88.67" cy="37.02" r="1.48"/>
    <circle class="choco-cookie-2" cx="70.15" cy="31.8" r="1.48"/>
    <circle class="choco-cookie-2" cx="46.28" cy="38.19" r="1.48"/>
    <circle class="choco-cookie-2" cx="103.41" cy="24.5" r="1.48"/>
    <circle class="choco-cookie-2" cx="56.76" cy="22.16" r="1.48"/>
  </g>
  <rect class="choco-cookie-9" x="16.17" y="63.23" width="7.99" height="4.52" rx="2.26" ry="2.26" transform="translate(-46.64 50.21) rotate(-60)"/>
  <rect class="choco-cookie-7" x="18.62" y="80.71" width="7.91" height="4.52" rx="2.26" ry="2.26" transform="translate(-11.84 161.78) rotate(-141.19)"/>
  <circle class="choco-cookie-2" cx="23.06" cy="55.93" r="1.48"/>
</svg>