<?xml version="1.0" encoding="UTF-8"?>
<svg width="96" height="96" id="_레이어_1" data-name="레이어_1" xmlns="http://www.w3.org/2000/svg" xmlns:xlink="http://www.w3.org/1999/xlink" viewBox="0 0 148 148">
  <defs>
    <style>
      .choco-creamdonut-1 {
        fill: #ff769d;
      }

      .choco-creamdonut-2 {
        stroke: #469937;
        stroke-width: 1.68px;
      }

      .choco-creamdonut-2, .choco-creamdonut-3 {
        fill: none;
        stroke-linecap: round;
        stroke-linejoin: round;
      }

      .choco-creamdonut-4 {
        fill: url(#choco-creamdonut-gradient_55);
      }

      .choco-creamdonut-5 {
        fill: #572212;
      }

      .choco-creamdonut-3 {
        stroke: #399100;
        stroke-width: .51px;
      }

      .choco-creamdonut-6 {
        fill: #ff5596;
      }

      .choco-creamdonut-7 {
        fill: #cc003a;
      }

      .choco-creamdonut-8 {
        fill: #fff;
      }

      .choco-creamdonut-9 {
        fill: #6b2f22;
      }

      .choco-creamdonut-10 {
        fill: #4ec600;
      }

      .choco-creamdonut-11 {
        fill: #e50037;
      }

      .choco-creamdonut-12 {
        fill: #ef0f4f;
      }

      .choco-creamdonut-13 {
        fill: #935045;
      }

      .choco-creamdonut-14 {
        fill: #f4256a;
      }

      .choco-creamdonut-15 {
        fill: #945745;
      }

      .choco-creamdonut-16 {
        fill: #ffa6bf;
      }

      .choco-creamdonut-17 {
        fill: #b28783;
      }
    </style>
    <linearGradient id="choco-creamdonut-gradient_55" data-name="무제 그라디언트 55" x1="10" y1="75.32" x2="138" y2="75.32" gradientUnits="userSpaceOnUse">
      <stop offset="0" stop-color="#945745"/>
      <stop offset="1" stop-color="#712d06"/>
    </linearGradient>
  </defs>
  <circle class="choco-creamdonut-5" cx="21.23" cy="59.71" r="1.3"/>
  <path class="choco-creamdonut-4" d="M137.21,70.57l-1.91-5.54v-5.86c0-1.14-.13-2.25-.4-3.35-.47-2.04-1.38-3.96-2.68-5.63l-3.6-4.62-1.9-5.54c-1.06-3.07-3.12-5.71-5.84-7.5l-4.9-3.2-3.59-4.62c-2-2.57-4.8-4.4-7.96-5.2l-5.67-1.44-4.9-3.21c-2.73-1.78-5.97-2.6-9.21-2.32l-5.84.48-5.67-1.43c-3.16-.8-6.48-.53-9.47.78l-5.36,2.35-5.84.48c-3.24.27-6.3,1.61-8.7,3.82l-4.3,3.97-5.37,2.35c-2.97,1.31-5.44,3.57-6.98,6.43l-2.79,5.15-4.3,3.97c-2.39,2.2-3.99,5.15-4.53,8.35l-.96,5.77-2.78,5.15c-1.55,2.87-2.1,6.16-1.57,9.38l.59,3.51.38,2.26-.96,5.77c-.53,3.21.02,6.5,1.57,9.37l2.78,5.15.96,5.77c.54,3.22,2.13,6.16,4.53,8.36l4.3,3.96,2.79,5.16c1.54,2.86,4.01,5.12,6.98,6.43l5.37,2.35,4.3,3.96c2.39,2.2,5.46,3.55,8.7,3.82l5.84.49,5.36,2.35c2.98,1.3,6.31,1.58,9.47.78l5.67-1.44,5.84.49c3.25.26,6.48-.55,9.21-2.33l4.9-3.2,5.67-1.44c3.16-.8,5.96-2.63,7.96-5.2l3.59-4.62,4.9-3.21c2.72-1.78,4.78-4.41,5.84-7.49l1.9-5.54,3.6-4.62c2-2.57,3.08-5.73,3.08-8.99v-5.86l1.91-5.53c1.06-3.07,1.06-6.42,0-9.5ZM74,107.5c-12.41,0-23.18-7.02-28.54-17.31-2.33-4.44-3.64-9.5-3.64-14.87,0-17.78,14.41-32.18,32.18-32.18,8.69,0,16.56,3.44,22.35,9.02,6.07,5.86,9.83,14.07,9.83,23.16,0,17.77-14.4,32.18-32.18,32.18Z"/>
  <path class="choco-creamdonut-8" d="M134.9,55.82c-.33-1.15-.81-2.26-1.8-2.88-1.5-.94-3.6-.26-4.75,1.09-1.16,1.35-1.56,3.17-1.83,4.92-1.91,12.84,2.04,26.81-3.77,38.41-1.16,2.29-3.1,4.65-5.66,4.6-2.5-.05-4.39-2.46-4.87-4.9-.49-2.45.07-4.96.36-7.44.84-7.37-.71-14.79-2.39-22.01-1.01-4.32-2.17-8.82-5.18-12.09-2.17-2.36-5.61-3.78-8.67-3.36-5.78-5.58-13.66-9.02-22.35-9.02-17.77,0-32.18,14.4-32.18,32.18,0,5.37,1.31,10.42,3.64,14.87-3.6-2.63-5.04-7.86-5.45-12.52-.31-3.53-.33-7.09-.02-10.63.35-4.19,1.13-8.44.2-12.53-.93-4.1-4.18-8.06-8.37-8.15-3.8-.07-7,3.02-8.61,6.46-1.59,3.44-2.05,7.3-3.17,10.92-1.12,3.63-3.19,7.31-6.7,8.75-.83.33-1.69.53-2.57.57l-.59-3.51c-.53-3.22.02-6.5,1.57-9.38l2.78-5.15.96-5.77c.54-3.21,2.13-6.15,4.53-8.35l4.3-3.97,2.79-5.15c1.54-2.86,4.01-5.12,6.98-6.43l5.37-2.35,4.3-3.97c2.39-2.2,5.46-3.54,8.7-3.82l5.84-.48,5.36-2.35c2.98-1.31,6.31-1.58,9.47-.78l5.67,1.43,5.84-.48c3.25-.27,6.48.55,9.21,2.32l4.9,3.21,5.67,1.44c3.16.79,5.96,2.63,7.96,5.2l3.59,4.62,4.9,3.2c2.72,1.79,4.78,4.42,5.84,7.5l1.9,5.54,3.6,4.62c1.3,1.67,2.21,3.59,2.68,5.63Z"/>
  <rect class="choco-creamdonut-5" x="25.45" y="49.74" width="14.96" height="4.5" rx="2.22" ry="2.22" transform="translate(-8.05 6.08) rotate(-9.41)"/>
  <rect class="choco-creamdonut-16" x="112.81" y="48.68" width="14.96" height="4.5" rx="2.22" ry="2.22" transform="translate(-6.71 20.34) rotate(-9.41)"/>
  <rect class="choco-creamdonut-1" x="40.18" y="26.74" width="10.59" height="3.99" rx="1.96" ry="1.96" transform="translate(51.83 -24.68) rotate(64.5)"/>
  <rect class="choco-creamdonut-5" x="100.54" y="26.6" width="10.59" height="3.99" rx="1.96" ry="1.96" transform="translate(21.97 -42.02) rotate(24.98)"/>
  <rect class="choco-creamdonut-15" x="97.56" y="46.33" width="6.99" height="2.6" rx="1.28" ry="1.28" transform="translate(116.23 -63.05) rotate(72.57)"/>
  <rect class="choco-creamdonut-1" x="118" y="37.28" width="4.94" height="2.6" rx="1.28" ry="1.28" transform="translate(225.69 -31.64) rotate(128.52)"/>
  <rect class="choco-creamdonut-1" x="46.02" y="46.2" width="4.94" height="2.6" rx="1.28" ry="1.28" transform="translate(100.74 4.17) rotate(95.92)"/>
  <rect class="choco-creamdonut-16" x="26.15" y="35.21" width="6.99" height="2.6" rx="1.28" ry="1.28" transform="translate(73.57 53.32) rotate(150)"/>
  <circle class="choco-creamdonut-15" cx="41.17" cy="39.77" r="1.76"/>
  <circle class="choco-creamdonut-5" cx="105.24" cy="37.92" r="1.76"/>
  <circle class="choco-creamdonut-15" cx="114.77" cy="61.61" r="1.26"/>
  <g>
    <g>
      <path class="choco-creamdonut-2" d="M73.95,28.84s-10.46-14.87-1.58-20.33"/>
      <path class="choco-creamdonut-11" d="M68.75,16.29s-13.26-.16-11.07,13.09,16.32,15.58,23.32,9.93c0,0,15.22-5.5,4.36-22.33,0,0-5.35-9.78-16.61-.7Z"/>
      <g>
        <rect class="choco-creamdonut-12" x="79.87" y="23.58" width="4.29" height="3" rx="1.23" ry="1.23" transform="translate(1.8 55.42) rotate(-37.72)"/>
        <rect class="choco-creamdonut-12" x="82.18" y="26.95" width="3.58" height="2.51" rx="1.23" ry="1.23" transform="translate(.3 57.28) rotate(-37.72)"/>
        <g>
          <circle class="choco-creamdonut-12" cx="77.03" cy="18.9" r="5.29"/>
          <circle class="choco-creamdonut-14" cx="77.42" cy="18.15" r="3.71"/>
          <circle class="choco-creamdonut-6" cx="77.58" cy="17.83" r="2.55"/>
          <polygon class="choco-creamdonut-8" points="82.01 14.68 79.9 15.15 78.88 17.06 78.41 14.95 76.51 13.93 78.62 13.46 79.63 11.56 80.1 13.66 82.01 14.68"/>
          <circle class="choco-creamdonut-8" cx="79.17" cy="18.07" r=".5"/>
          <circle class="choco-creamdonut-8" cx="78.06" cy="19.18" r=".43"/>
        </g>
      </g>
      <path class="choco-creamdonut-7" d="M88.25,32.74c-2.21,4.76-7.25,6.58-7.25,6.58-7,5.64-21.12,3.32-23.32-9.93-.89-5.39.77-8.57,3.06-10.43-.67,1.75-.92,3.98-.45,6.83,2.19,13.25,16.32,15.58,23.32,9.93,0,0,2.42-.87,4.64-2.99Z"/>
    </g>
    <g>
      <path class="choco-creamdonut-10" d="M59.41,15.15c3.72-3.3,7.07-2.65,9.29-.14,2.22,2.5,2.48,5.91-1.24,9.21-2.98,2.64-9.02,2.81-11.32,2.78-.5,0-.89-.44-.83-.94.24-2.28,1.12-8.26,4.1-10.91Z"/>
      <path class="choco-creamdonut-3" d="M57.29,24.9s2.97-6.26,9.82-8.84"/>
    </g>
  </g>
  <g>
    <rect class="choco-creamdonut-5" x="51.19" y="30.91" width="13.79" height="13.79" rx="3.95" ry="3.95" transform="translate(-11.22 37.39) rotate(-32.71)"/>
    <rect class="choco-creamdonut-9" x="54.77" y="31.5" width="7.8" height="7.8" rx="2.84" ry="2.84" transform="translate(-9.82 37.32) rotate(-32.71)"/>
    <rect class="choco-creamdonut-13" x="55.92" y="32.43" width="5.51" height="5.51" rx="1.75" ry="1.75" transform="translate(-9.71 37.29) rotate(-32.71)"/>
    <circle class="choco-creamdonut-17" cx="60.25" cy="36.2" r=".51"/>
    <circle class="choco-creamdonut-17" cx="59.09" cy="36.99" r=".43"/>
    <polygon class="choco-creamdonut-8" points="58.53 30.25 59.67 31.58 61.43 31.58 60.1 32.73 60.1 34.49 58.95 33.15 57.19 33.16 58.53 32.01 58.53 30.25"/>
    <polygon class="choco-creamdonut-8" points="58.62 34.08 58.79 34.99 59.59 35.45 58.68 35.62 58.22 36.42 58.05 35.52 57.25 35.05 58.16 34.88 58.62 34.08"/>
  </g>
  <g>
    <rect class="choco-creamdonut-5" x="84.21" y="31.71" width="12.03" height="12.03" rx="3.95" ry="3.95" transform="translate(12.68 97.31) rotate(-60.24)"/>
    <rect class="choco-creamdonut-9" x="88.91" y="33.81" width="6.8" height="6.8" rx="2.84" ry="2.84" transform="translate(14.19 98.87) rotate(-60.24)"/>
    <rect class="choco-creamdonut-13" x="90.08" y="34.72" width="4.8" height="4.8" rx="1.75" ry="1.75" transform="translate(14.34 98.97) rotate(-60.24)"/>
    <circle class="choco-creamdonut-17" cx="92.33" cy="38.75" r=".45"/>
    <circle class="choco-creamdonut-17" cx="91.25" cy="38.17" r=".38"/>
    <polygon class="choco-creamdonut-8" points="96.24 35.02 95.67 36.44 96.38 37.8 94.95 37.23 93.59 37.94 94.16 36.52 93.45 35.16 94.88 35.73 96.24 35.02"/>
    <polygon class="choco-creamdonut-8" points="93.31 36.63 92.68 37.13 92.64 37.94 92.14 37.31 91.34 37.27 91.97 36.77 92.01 35.97 92.5 36.6 93.31 36.63"/>
  </g>
</svg>