<?xml version="1.0" encoding="UTF-8"?>
<svg id="_레이어_1" data-name="레이어_1" xmlns="http://www.w3.org/2000/svg" viewBox="0 0 148 148">
  <defs>
    <style>
      .cls-1 {
        fill: #572212;
      }

      .cls-2 {
        fill: #ffffe3;
      }

      .cls-3 {
        fill: #a87569;
      }

      .cls-4 {
        fill: #fff;
      }

      .cls-5 {
        fill: #399100;
      }

      .cls-6 {
        fill: #ffed45;
      }

      .cls-7 {
        fill: #49190f;
      }

      .cls-8 {
        fill: #4ec600;
      }

      .cls-9 {
        fill: #e5e5e5;
      }

      .cls-10 {
        fill: #fee58b;
      }

      .cls-11 {
        fill: #aeea1c;
      }

      .cls-12 {
        fill: #c9a69f;
      }

      .cls-13 {
        fill: #ffd44d;
      }

      .cls-14 {
        fill: #945745;
      }

      .cls-15 {
        fill: #f4f4f4;
      }

      .cls-16 {
        fill: #fff7a8;
      }

      .cls-17 {
        fill: #fdf378;
      }

      .cls-18 {
        fill: #3f1c00;
      }
    </style>
  </defs>
  <path class="cls-10" d="M78.59,123.71c-2.33-1.11-4.4-2.52-6.01-4.2l6.01,4.2Z"/>
  <g>
    <path class="cls-11" d="M31.41,53.43c7.77,1.7,10.08,6.65,8.94,11.88-1.14,5.23-5.31,8.77-13.08,7.07-6.22-1.36-12.14-9.01-14.25-12.01-.46-.66-.26-1.56.43-1.97,3.17-1.85,11.74-6.33,17.96-4.97Z"/>
    <g>
      <g>
        <circle class="cls-2" cx="64.37" cy="48.55" r="39.58"/>
        <circle class="cls-16" cx="64.37" cy="48.55" r="31.45"/>
        <polygon class="cls-17" points="90.52 33.12 75.66 45.84 94.42 51.37 74.93 52.93 86.85 68.43 70.16 58.24 70.7 77.79 63.19 59.73 52.13 75.86 56.67 56.84 38.25 63.39 53.1 50.67 34.34 45.14 53.84 43.58 41.91 28.07 58.6 38.27 58.06 18.72 65.57 36.78 76.63 20.65 72.09 39.67 90.52 33.12"/>
        <polygon class="cls-6" points="77.1 40.89 69.87 47.08 79 49.77 69.51 50.53 75.31 58.07 67.19 53.11 67.46 62.62 63.8 53.84 58.42 61.69 60.63 52.43 51.67 55.62 58.89 49.43 49.77 46.74 59.25 45.98 53.45 38.44 61.57 43.4 61.31 33.89 64.96 42.67 70.34 34.82 68.13 44.08 77.1 40.89"/>
        <polygon class="cls-2" points="29.33 37.54 33.2 28.82 64.63 47.72 64.2 48.69 29.33 37.54"/>
        <polygon class="cls-2" points="74.27 82.55 64.85 84.06 63.58 47.4 64.63 47.23 74.27 82.55"/>
        <polygon class="cls-2" points="93.97 27.13 87.56 20.06 63.66 47.88 64.37 48.67 93.97 27.13"/>
        <path class="cls-18" d="M64.23,43.6c.11.69-.5,1.37-.5,1.37,0,0-.79-.45-.9-1.14s.11-1.31.5-1.37.79.45.9,1.14Z"/>
        <path class="cls-18" d="M67.85,50.17c-.62-.34-.77-1.23-.77-1.23,0,0,.84-.34,1.46,0s.96.89.77,1.23-.84.34-1.46,0Z"/>
        <path class="cls-18" d="M61.68,51.17c.48-.52.35-1.41.35-1.41,0,0-.91-.06-1.38.45s-.63,1.15-.35,1.41.91.06,1.38-.45Z"/>
      </g>
      <g>
        <circle class="cls-2" cx="93.94" cy="59.73" r="25.66"/>
        <circle class="cls-16" cx="93.94" cy="59.73" r="20.39"/>
        <polygon class="cls-17" points="113.61 59.03 101.21 61.68 110.19 70.64 98.6 65.49 100.6 78.02 94.24 67.04 88.5 78.35 89.81 65.74 78.52 71.51 86.99 62.07 74.46 60.1 86.86 57.45 77.88 48.49 89.48 53.64 87.48 41.11 93.83 52.09 99.57 40.78 98.27 53.4 109.56 47.62 101.09 57.06 113.61 59.03"/>
        <polygon class="cls-6" points="103.56 59.3 97.53 60.59 101.9 64.95 96.26 62.45 97.23 68.54 94.14 63.2 91.34 68.7 91.98 62.57 86.49 65.37 90.61 60.78 84.51 59.83 90.55 58.54 86.18 54.18 91.82 56.68 90.85 50.59 93.94 55.93 96.73 50.43 96.09 56.56 101.59 53.76 97.47 58.35 103.56 59.3"/>
        <polygon class="cls-2" points="77.38 42.62 82.28 38.84 94.34 59.34 93.8 59.76 77.38 42.62"/>
        <polygon class="cls-2" points="89.06 82.17 83.23 80.11 93.84 58.83 94.49 59.06 89.06 82.17"/>
        <polygon class="cls-2" points="117.44 56.68 115.97 50.67 93.74 59.13 93.9 59.8 117.44 56.68"/>
        <path class="cls-18" d="M95.39,56.86c-.15.43-.71.63-.71.63,0,0-.31-.5-.16-.93s.47-.71.71-.63.31.5.16.93Z"/>
        <path class="cls-18" d="M95.42,61.73c-.25-.38-.06-.94-.06-.94,0,0,.59.06.83.45s.27.81.06.94-.59-.06-.83-.45Z"/>
        <path class="cls-18" d="M91.6,60.39c.43-.15.63-.7.63-.7,0,0-.5-.32-.93-.17s-.72.46-.63.7.5.32.93.17Z"/>
      </g>
      <g>
        <path class="cls-4" d="M138,121.14c0,9.88-8.01,17.89-17.89,17.89H27.89c-4.94,0-9.41-2-12.65-5.24-3.24-3.24-5.24-7.71-5.24-12.65,0-9.46,7.35-17.18,16.64-17.82-2.26-2.36-3.89-5.34-4.59-8.65-.26-1.2-.4-2.44-.4-3.72,0-9.88,8.01-17.89,17.89-17.89h68.92c9.88,0,17.89,8.01,17.89,17.89,0,1.28-.14,2.52-.4,3.72-.69,3.31-2.32,6.29-4.59,8.65,4.65.32,8.81,2.41,11.81,5.6,3,3.19,4.83,7.49,4.83,12.22Z"/>
        <path class="cls-15" d="M126.35,90.95c0,1.28-.14,2.52-.4,3.72-2.69,2.2-6.12,3.51-9.86,3.51-4.06,0-7.74-1.56-10.52-4.09-2.78,2.53-6.47,4.09-10.53,4.09s-7.74-1.56-10.52-4.09c-2.78,2.53-6.46,4.09-10.52,4.09s-7.74-1.56-10.52-4.09c-2.78,2.53-6.47,4.09-10.52,4.09s-7.74-1.56-10.52-4.09c-2.78,2.53-6.47,4.09-10.53,4.09-3.74,0-7.17-1.31-9.86-3.51-.26-1.2-.4-2.44-.4-3.72,0-9.88,8.01-17.89,17.89-17.89h68.92c9.88,0,17.89,8.01,17.89,17.89Z"/>
        <path class="cls-9" d="M125.49,85.46c-2.62,1.98-5.87,3.15-9.4,3.15-4.06,0-7.74-1.56-10.52-4.09-2.78,2.53-6.47,4.09-10.53,4.09s-7.74-1.56-10.52-4.09c-2.78,2.53-6.46,4.09-10.52,4.09s-7.74-1.56-10.52-4.09c-2.78,2.53-6.47,4.09-10.52,4.09s-7.74-1.56-10.52-4.09c-2.78,2.53-6.47,4.09-10.53,4.09-3.53,0-6.78-1.17-9.4-3.15,2.32-7.2,9.07-12.4,17.03-12.4h68.92c7.96,0,14.71,5.2,17.03,12.4Z"/>
        <path class="cls-15" d="M29.31,104.44s51.22,7.5,86.43,1.17c0,0-51.22,27.06-86.43-1.17Z"/>
      </g>
      <g>
        <path class="cls-8" d="M28.33,67.82c8.87-3.93,14.71-.73,17.35,5.24s1.1,12.45-7.76,16.38c-7.1,3.15-18.43-.11-22.67-1.54-.93-.31-1.39-1.34-.99-2.24,1.79-4.1,6.98-14.69,14.08-17.84Z"/>
        <path class="cls-5" d="M18.62,85.2c-.12,0-.25-.04-.34-.13-.2-.19-.21-.5-.02-.71.09-.1,9.53-10.03,23.82-10.77.29-.03.51.2.52.47s-.2.51-.47.52c-13.88.72-23.05,10.35-23.14,10.45-.1.1-.23.16-.37.16Z"/>
      </g>
      <g>
        <path class="cls-8" d="M118.35,64.04c-6.62-3.16-11.11-.87-13.24,3.59-2.13,4.46-1.1,9.39,5.52,12.56,5.3,2.53,13.94.31,17.18-.68.71-.22,1.08-.99.8-1.67-1.27-3.14-4.97-11.26-10.27-13.79Z"/>
        <path class="cls-5" d="M125.33,77.4c-.1,0-.21-.04-.28-.13-.07-.08-6.8-7.56-17.28-8.4-.21-.02-.36-.2-.35-.41.02-.21.17-.37.41-.35,10.79.86,17.72,8.57,17.79,8.65.14.16.12.4-.03.53-.07.06-.16.09-.25.09Z"/>
      </g>
    </g>
    <g>
      <g>
        <path class="cls-1" d="M107.25,69.65c.34,2.95-1.01,5.69-3.29,7.27-.96.67-2.09,1.12-3.33,1.3l-.18.02c-4.25.5-8.1-2.54-8.6-6.8-.24-2.09.37-4.09,1.56-5.63,1.13-1.46,2.76-2.51,4.68-2.88.18-.04.37-.07.56-.09,4.25-.49,8.1,2.55,8.59,6.81Z"/>
        <path class="cls-7" d="M103.96,76.92c-.96.67-2.09,1.12-3.33,1.3l-.18.02c-4.25.5-8.1-2.54-8.6-6.8-.24-2.09.37-4.09,1.56-5.63.26,3.13,1.82,9.94,10.55,11.11Z"/>
      </g>
      <g>
        <circle class="cls-14" cx="101.19" cy="67.78" r="3.38"/>
        <circle class="cls-3" cx="101.54" cy="67.16" r="2.23"/>
        <polygon class="cls-4" points="101.46 64.42 102.23 64.97 103.16 64.75 102.6 65.52 102.83 66.44 102.06 65.89 101.13 66.11 101.69 65.34 101.46 64.42"/>
        <polygon class="cls-4" points="102.2 66.84 102.54 67.33 103.13 67.38 102.65 67.73 102.6 68.32 102.25 67.84 101.66 67.78 102.14 67.44 102.2 66.84"/>
        <circle class="cls-12" cx="100.18" cy="67.65" r=".42"/>
        <circle class="cls-12" cx="100.82" cy="68.41" r=".25"/>
      </g>
    </g>
    <g>
      <g>
        <path class="cls-1" d="M94.79,71.86c.25,2.12-.73,4.09-2.37,5.23-.69.48-1.51.81-2.39.94l-.13.02c-3.06.36-5.83-1.83-6.19-4.89-.18-1.5.27-2.94,1.12-4.05.81-1.05,1.99-1.81,3.37-2.07.13-.03.27-.05.4-.07,3.05-.36,5.83,1.84,6.18,4.9Z"/>
        <path class="cls-7" d="M92.42,77.09c-.69.48-1.51.81-2.39.94l-.13.02c-3.06.36-5.83-1.83-6.19-4.89-.18-1.5.27-2.94,1.12-4.05.18,2.25,1.31,7.15,7.59,7.99Z"/>
      </g>
      <g>
        <circle class="cls-14" cx="90.43" cy="70.51" r="2.43"/>
        <circle class="cls-3" cx="90.67" cy="70.07" r="1.61"/>
        <polygon class="cls-4" points="90.62 68.09 91.18 68.49 91.84 68.33 91.44 68.88 91.61 69.55 91.05 69.15 90.38 69.31 90.78 68.76 90.62 68.09"/>
        <polygon class="cls-4" points="91.15 69.84 91.4 70.19 91.83 70.23 91.48 70.48 91.44 70.9 91.19 70.55 90.76 70.51 91.11 70.27 91.15 69.84"/>
        <circle class="cls-12" cx="89.7" cy="70.42" r=".3"/>
        <circle class="cls-12" cx="90.16" cy="70.96" r=".18"/>
      </g>
    </g>
    <g>
      <g>
        <path class="cls-1" d="M101.7,77.6c.25,2.12-.73,4.09-2.37,5.23-.69.48-1.51.81-2.39.94l-.13.02c-3.06.36-5.83-1.83-6.19-4.89-.18-1.5.27-2.94,1.12-4.05.81-1.05,1.99-1.81,3.37-2.07.13-.03.27-.05.4-.07,3.05-.36,5.83,1.84,6.18,4.9Z"/>
        <path class="cls-7" d="M99.33,82.83c-.69.48-1.51.81-2.39.94l-.13.02c-3.06.36-5.83-1.83-6.19-4.89-.18-1.5.27-2.94,1.12-4.05.18,2.25,1.31,7.15,7.59,7.99Z"/>
      </g>
      <g>
        <circle class="cls-14" cx="97.34" cy="76.25" r="2.43"/>
        <circle class="cls-3" cx="97.59" cy="75.8" r="1.61"/>
        <polygon class="cls-4" points="97.53 73.83 98.09 74.23 98.75 74.07 98.36 74.62 98.52 75.29 97.96 74.89 97.3 75.05 97.7 74.5 97.53 73.83"/>
        <polygon class="cls-4" points="98.06 75.58 98.31 75.93 98.74 75.97 98.39 76.21 98.35 76.64 98.1 76.29 97.67 76.25 98.02 76.01 98.06 75.58"/>
        <circle class="cls-12" cx="96.62" cy="76.16" r=".3"/>
        <circle class="cls-12" cx="97.07" cy="76.7" r=".18"/>
      </g>
    </g>
    <circle class="cls-1" cx="48.27" cy="75.18" r=".83"/>
    <circle class="cls-1" cx="65.17" cy="75.18" r=".83"/>
    <circle class="cls-13" cx="50.52" cy="77.33" r=".83"/>
    <circle class="cls-13" cx="62.95" cy="77.33" r=".83"/>
    <circle class="cls-1" cx="53.39" cy="78.86" r=".83"/>
    <circle class="cls-1" cx="60.17" cy="78.86" r=".83"/>
    <circle class="cls-13" cx="56.75" cy="79.64" r=".83"/>
    <circle class="cls-1" cx="65.55" cy="79.03" r=".83"/>
    <circle class="cls-1" cx="82.45" cy="79.03" r=".83"/>
    <circle class="cls-13" cx="67.8" cy="81.18" r=".83"/>
    <circle class="cls-13" cx="80.24" cy="81.18" r=".83"/>
    <circle class="cls-1" cx="70.67" cy="82.71" r=".83"/>
    <circle class="cls-1" cx="77.45" cy="82.71" r=".83"/>
    <circle class="cls-13" cx="74.03" cy="83.49" r=".83"/>
  </g>
</svg>