<?xml version="1.0" encoding="UTF-8"?>
<svg id="_레이어_1" data-name="레이어_1" xmlns="http://www.w3.org/2000/svg" viewBox="0 0 148 148">
  <defs>
    <style>
      .white-creamdonut-1 {
        fill: #ff769d;
      }

      .white-creamdonut-2 {
        fill: #572212;
      }

      .white-creamdonut-3 {
        fill: #fcfcfc;
      }

      .white-creamdonut-4 {
        fill: #fff;
      }

      .white-creamdonut-5 {
        fill: #6b2f22;
      }

      .white-creamdonut-6 {
        fill: #e5e5e5;
      }

      .white-creamdonut-7 {
        fill: #f9f7f8;
      }

      .white-creamdonut-8 {
        fill: #f2f2f2;
      }

      .white-creamdonut-9 {
        fill: #935045;
      }

      .white-creamdonut-10 {
        fill: #9e9e9e;
      }

      .white-creamdonut-11 {
        fill: #945745;
      }

      .white-creamdonut-12 {
        fill: #f4f4f4;
      }

      .white-creamdonut-13 {
        fill: #ffa6bf;
      }

      .white-creamdonut-14 {
        fill: #b28783;
      }

      .white-creamdonut-15 {
        fill: #b5b5b5;
      }

      .white-creamdonut-16 {
        fill: #e8e8e8;
      }
    </style>
  </defs>
  <circle class="white-creamdonut-2" cx="21.74" cy="59.71" r="1.3"/>
  <path class="white-creamdonut-12" d="M137.72,70.57l-1.91-5.54v-5.86c0-1.14-.13-2.25-.4-3.35-.47-2.04-1.38-3.96-2.68-5.63l-3.6-4.62-1.9-5.54c-1.06-3.07-3.12-5.71-5.84-7.5l-4.9-3.2-3.59-4.62c-2-2.57-4.8-4.4-7.96-5.2l-5.67-1.44-4.9-3.21c-2.73-1.78-5.97-2.6-9.21-2.32l-5.84.48-5.67-1.43c-3.16-.8-6.48-.53-9.47.78l-5.36,2.35-5.84.48c-3.24.27-6.3,1.61-8.7,3.82l-4.3,3.97-5.37,2.35c-2.97,1.31-5.44,3.57-6.98,6.43l-2.79,5.15-4.3,3.97c-2.39,2.2-3.99,5.15-4.53,8.35l-.96,5.77-2.78,5.15c-1.55,2.87-2.1,6.16-1.57,9.38l.59,3.51.38,2.26-.96,5.77c-.53,3.21.02,6.5,1.57,9.37l2.78,5.15.96,5.77c.54,3.22,2.13,6.16,4.53,8.36l4.3,3.96,2.79,5.16c1.54,2.86,4.01,5.12,6.98,6.43l5.37,2.35,4.3,3.96c2.39,2.2,5.46,3.55,8.7,3.82l5.84.49,5.36,2.35c2.98,1.3,6.31,1.58,9.47.78l5.67-1.44,5.84.49c3.25.26,6.48-.55,9.21-2.33l4.9-3.2,5.67-1.44c3.16-.8,5.96-2.63,7.96-5.2l3.59-4.62,4.9-3.21c2.72-1.78,4.78-4.41,5.84-7.49l1.9-5.54,3.6-4.62c2-2.57,3.08-5.73,3.08-8.99v-5.86l1.91-5.53c1.06-3.07,1.06-6.42,0-9.5ZM74.51,107.5c-12.41,0-23.18-7.02-28.54-17.31-2.33-4.44-3.64-9.5-3.64-14.87,0-17.78,14.41-32.18,32.18-32.18,8.69,0,16.56,3.44,22.35,9.02,6.07,5.86,9.83,14.07,9.83,23.16,0,17.77-14.4,32.18-32.18,32.18Z"/>
  <path class="white-creamdonut-4" d="M135.42,55.82c-.33-1.15-.81-2.26-1.8-2.88-1.5-.94-3.6-.26-4.75,1.09-1.16,1.35-1.56,3.17-1.83,4.92-1.91,12.84,2.04,26.81-3.77,38.41-1.16,2.29-3.1,4.65-5.66,4.6-2.5-.05-4.39-2.46-4.87-4.9-.49-2.45.07-4.96.36-7.44.84-7.37-.71-14.79-2.39-22.01-1.01-4.32-2.17-8.82-5.18-12.09-2.17-2.36-5.61-3.78-8.67-3.36-5.78-5.58-13.66-9.02-22.35-9.02-17.77,0-32.18,14.4-32.18,32.18,0,5.37,1.31,10.42,3.64,14.87-3.6-2.63-5.04-7.86-5.45-12.52-.31-3.53-.33-7.09-.02-10.63.35-4.19,1.13-8.44.2-12.53-.93-4.1-4.18-8.06-8.37-8.15-3.8-.07-7,3.02-8.61,6.46-1.59,3.44-2.05,7.3-3.17,10.92-1.12,3.63-3.19,7.31-6.7,8.75-.83.33-1.69.53-2.57.57l-.59-3.51c-.53-3.22.02-6.5,1.57-9.38l2.78-5.15.96-5.77c.54-3.21,2.13-6.15,4.53-8.35l4.3-3.97,2.79-5.15c1.54-2.86,4.01-5.12,6.98-6.43l5.37-2.35,4.3-3.97c2.39-2.2,5.46-3.54,8.7-3.82l5.84-.48,5.36-2.35c2.98-1.31,6.31-1.58,9.47-.78l5.67,1.43,5.84-.48c3.25-.27,6.48.55,9.21,2.32l4.9,3.21,5.67,1.44c3.16.79,5.96,2.63,7.96,5.2l3.59,4.62,4.9,3.2c2.72,1.79,4.78,4.42,5.84,7.5l1.9,5.54,3.6,4.62c1.3,1.67,2.21,3.59,2.68,5.63Z"/>
  <rect class="white-creamdonut-2" x="25.96" y="49.74" width="14.96" height="4.5" rx="2.22" ry="2.22" transform="translate(-8.05 6.16) rotate(-9.41)"/>
  <rect class="white-creamdonut-13" x="113.32" y="48.68" width="14.96" height="4.5" rx="2.22" ry="2.22" transform="translate(-6.7 20.43) rotate(-9.41)"/>
  <rect class="white-creamdonut-1" x="40.69" y="26.74" width="10.59" height="3.99" rx="1.96" ry="1.96" transform="translate(52.12 -25.15) rotate(64.5)"/>
  <rect class="white-creamdonut-2" x="101.05" y="26.6" width="10.59" height="3.99" rx="1.96" ry="1.96" transform="translate(22.02 -42.23) rotate(24.98)"/>
  <rect class="white-creamdonut-11" x="98.07" y="46.33" width="6.99" height="2.6" rx="1.28" ry="1.28" transform="translate(116.59 -63.54) rotate(72.57)"/>
  <rect class="white-creamdonut-1" x="118.51" y="37.28" width="4.94" height="2.6" rx="1.28" ry="1.28" transform="translate(226.52 -32.04) rotate(128.52)"/>
  <rect class="white-creamdonut-1" x="46.53" y="46.2" width="4.94" height="2.6" rx="1.28" ry="1.28" transform="translate(101.31 3.66) rotate(95.92)"/>
  <rect class="white-creamdonut-13" x="26.66" y="35.21" width="6.99" height="2.6" rx="1.28" ry="1.28" transform="translate(74.53 53.06) rotate(150)"/>
  <circle class="white-creamdonut-11" cx="41.68" cy="39.77" r="1.76"/>
  <circle class="white-creamdonut-2" cx="105.75" cy="37.92" r="1.76"/>
  <circle class="white-creamdonut-11" cx="115.28" cy="61.61" r="1.26"/>
  <g>
    <rect class="white-creamdonut-2" x="51.7" y="30.91" width="13.79" height="13.79" rx="3.95" ry="3.95" transform="translate(-11.14 37.66) rotate(-32.71)"/>
    <rect class="white-creamdonut-5" x="55.28" y="31.5" width="7.8" height="7.8" rx="2.84" ry="2.84" transform="translate(-9.74 37.6) rotate(-32.71)"/>
    <rect class="white-creamdonut-9" x="56.43" y="32.43" width="5.51" height="5.51" rx="1.75" ry="1.75" transform="translate(-9.63 37.57) rotate(-32.71)"/>
    <circle class="white-creamdonut-14" cx="60.76" cy="36.2" r=".51"/>
    <circle class="white-creamdonut-14" cx="59.6" cy="36.99" r=".43"/>
    <polygon class="white-creamdonut-4" points="59.04 30.25 60.18 31.58 61.94 31.58 60.61 32.73 60.61 34.49 59.46 33.15 57.7 33.16 59.04 32.01 59.04 30.25"/>
    <polygon class="white-creamdonut-4" points="59.13 34.08 59.3 34.99 60.1 35.45 59.19 35.62 58.73 36.42 58.56 35.52 57.76 35.05 58.67 34.88 59.13 34.08"/>
  </g>
  <g>
    <rect class="white-creamdonut-2" x="84.72" y="31.71" width="12.03" height="12.03" rx="3.95" ry="3.95" transform="translate(12.94 97.76) rotate(-60.24)"/>
    <rect class="white-creamdonut-5" x="89.42" y="33.81" width="6.8" height="6.8" rx="2.84" ry="2.84" transform="translate(14.45 99.31) rotate(-60.24)"/>
    <rect class="white-creamdonut-9" x="90.59" y="34.72" width="4.8" height="4.8" rx="1.75" ry="1.75" transform="translate(14.6 99.42) rotate(-60.24)"/>
    <circle class="white-creamdonut-14" cx="92.84" cy="38.75" r=".45"/>
    <circle class="white-creamdonut-14" cx="91.76" cy="38.17" r=".38"/>
    <polygon class="white-creamdonut-4" points="96.75 35.02 96.18 36.44 96.89 37.8 95.46 37.23 94.1 37.94 94.67 36.52 93.96 35.16 95.39 35.73 96.75 35.02"/>
    <polygon class="white-creamdonut-4" points="93.82 36.63 93.19 37.13 93.15 37.94 92.65 37.31 91.85 37.27 92.48 36.77 92.52 35.97 93.01 36.6 93.82 36.63"/>
  </g>
  <g>
    <circle class="white-creamdonut-10" cx="68.64" cy="37.48" r="5.99"/>
    <circle class="white-creamdonut-15" cx="69.34" cy="36.5" r="4.17"/>
    <circle class="white-creamdonut-6" cx="69.57" cy="36.11" r="3.04"/>
    <circle class="white-creamdonut-4" cx="70.13" cy="35.5" r="1.77"/>
    <circle class="white-creamdonut-4" cx="71.09" cy="37.92" r=".35"/>
    <circle class="white-creamdonut-4" cx="70.23" cy="38.26" r=".23"/>
    <polygon class="white-creamdonut-4" points="72.67 36.51 72.61 37.09 73.02 37.52 72.43 37.46 72 37.86 72.06 37.28 71.66 36.85 72.25 36.91 72.67 36.51"/>
  </g>
  <g>
    <circle class="white-creamdonut-10" cx="83.21" cy="37.48" r="5.99"/>
    <circle class="white-creamdonut-15" cx="83.91" cy="36.5" r="4.17"/>
    <circle class="white-creamdonut-6" cx="84.14" cy="36.11" r="3.04"/>
    <circle class="white-creamdonut-4" cx="84.7" cy="35.5" r="1.77"/>
    <circle class="white-creamdonut-4" cx="85.66" cy="37.92" r=".35"/>
    <circle class="white-creamdonut-4" cx="84.8" cy="38.26" r=".23"/>
    <polygon class="white-creamdonut-4" points="87.24 36.51 87.18 37.09 87.59 37.52 87 37.46 86.57 37.86 86.64 37.28 86.23 36.85 86.82 36.91 87.24 36.51"/>
  </g>
  <g>
    <circle class="white-creamdonut-12" cx="76.11" cy="26.53" r="10.23"/>
    <path class="white-creamdonut-16" d="M83.89,33.15c-1.87,2.21-4.67,3.61-7.8,3.61-5.65,0-10.23-4.58-10.23-10.23,0-4.14,2.46-7.7,5.99-9.31-1.52,1.79-2.43,4.1-2.43,6.62,0,5.65,4.58,10.23,10.23,10.23,1.51,0,2.95-.33,4.24-.92Z"/>
    <circle class="white-creamdonut-7" cx="78.87" cy="24.07" r="5.62"/>
    <circle class="white-creamdonut-3" cx="79.23" cy="23.89" r="4.52"/>
    <circle class="white-creamdonut-8" cx="79.23" cy="23.89" r="3.27"/>
    <circle class="white-creamdonut-7" cx="78.15" cy="25.69" r=".63"/>
    <circle class="white-creamdonut-7" cx="79.72" cy="25.88" r=".43"/>
    <polygon class="white-creamdonut-4" points="83.02 23.28 81.22 23.1 79.92 24.36 80.09 22.56 78.84 21.26 80.64 21.43 81.94 20.18 81.77 21.97 83.02 23.28"/>
    <polygon class="white-creamdonut-4" points="82.51 25.86 81.79 25.46 81.01 25.74 81.42 25.02 81.13 24.25 81.85 24.65 82.63 24.37 82.22 25.09 82.51 25.86"/>
  </g>
</svg>