<svg width="148" height="148" viewBox="0 0 148 148" fill="none" xmlns="http://www.w3.org/2000/svg">
<path d="M128.94 10H19.06C14.0563 10 10 14.0563 10 19.06V128.94C10 133.944 14.0563 138 19.06 138H128.94C133.944 138 138 133.944 138 128.94V19.06C138 14.0563 133.944 10 128.94 10Z" fill="#FFB000"/>
<path d="M130.13 38.22C131.91 35.52 131.58 32.05 129.55 29.73C130.5 26.8 129.43 23.48 126.73 21.7C125.75 21.05 124.66 20.69 123.57 20.58C123.04 19.62 122.27 18.77 121.29 18.12C118.59 16.34 115.12 16.67 112.8 18.7C109.87 17.75 106.55 18.82 104.77 21.52C103.26 23.81 103.27 26.65 104.54 28.87C102.31 32.35 103.28 36.98 106.74 39.26C107.98 40.08 109.38 40.48 110.76 40.5C111.33 41.76 112.24 42.89 113.48 43.71C116.96 46.01 121.65 45.04 123.95 41.56C123.99 41.5 124.02 41.44 124.05 41.39C126.4 41.46 128.73 40.35 130.12 38.24L130.13 38.22Z" fill="#FFF3D9"/>
<path d="M117.09 45.1601C115.77 45.0701 114.5 44.6401 113.36 43.8901C112.17 43.1101 111.22 42.0101 110.61 40.7201C109.18 40.6601 107.8 40.2301 106.61 39.4501C103.11 37.1401 102.08 32.4201 104.27 28.8601C102.98 26.4901 103.09 23.6401 104.58 21.3901C106.34 18.7101 109.69 17.5101 112.75 18.4401C115.2 16.3801 118.74 16.1601 121.42 17.9301C122.37 18.5601 123.14 19.3801 123.71 20.3701C124.84 20.5001 125.9 20.8901 126.85 21.5201C129.53 23.2801 130.73 26.6301 129.8 29.6901C131.86 32.1401 132.08 35.6801 130.31 38.3601C128.95 40.4301 126.66 41.6401 124.17 41.6201C124.16 41.6401 124.14 41.6701 124.13 41.6901C122.99 43.4301 121.23 44.6101 119.2 45.0301C118.49 45.1801 117.78 45.2201 117.07 45.1701L117.09 45.1601ZM110.92 40.2601L110.98 40.3901C111.55 41.6601 112.46 42.7401 113.62 43.5001C115.25 44.5801 117.21 44.9501 119.12 44.5601C121.04 44.1701 122.68 43.0501 123.76 41.4201C123.78 41.3901 123.79 41.3701 123.81 41.3401L123.93 41.1401H124.06C126.44 41.2101 128.63 40.0701 129.94 38.0901C131.61 35.5501 131.38 32.1701 129.38 29.8801L129.29 29.7801L129.33 29.6601C130.27 26.7601 129.15 23.5701 126.61 21.8901C125.69 21.2801 124.66 20.9201 123.55 20.8101H123.43L123.37 20.6901C122.83 19.7201 122.09 18.9201 121.17 18.3101C118.63 16.6401 115.25 16.8701 112.96 18.8701L112.86 18.9601L112.74 18.9201C109.84 17.9801 106.65 19.1001 104.97 21.6401C103.56 23.7901 103.47 26.5101 104.75 28.7501L104.82 28.8701L104.74 28.9901C102.58 32.3501 103.54 36.8701 106.87 39.0601C108.03 39.8201 109.36 40.2401 110.77 40.2601H110.92Z" fill="#FFE4CC"/>
<path d="M120.55 35.9299C121.8 33.6199 121.13 30.6999 118.89 29.2199C116.68 27.7599 113.76 28.2599 112.12 30.2699C110.63 29.8599 108.98 30.4099 108.08 31.7799C106.96 33.4799 107.43 35.7599 109.13 36.8799C109.64 37.2199 110.2 37.3899 110.77 37.4499C111.15 38.1099 111.67 38.6899 112.35 39.1399C112.98 39.5599 113.68 39.7999 114.38 39.9099C114.65 40.3599 115.02 40.7599 115.48 41.0599C117.18 42.1799 119.46 41.7099 120.58 40.0099C121.43 38.7299 121.36 37.1099 120.55 35.9199V35.9299Z" fill="#FFD37B"/>
<path d="M120.135 23.8976C120.519 22.2176 119.672 20.5919 118.246 20.2664C116.819 19.9409 115.351 21.0389 114.968 22.7189C114.585 24.3989 115.431 26.0246 116.858 26.3501C118.285 26.6756 119.752 25.5776 120.135 23.8976Z" fill="#FFD37B"/>
<path d="M110.834 28.3753C112.214 27.8856 112.864 26.1722 112.288 24.5484C111.711 22.9246 110.125 22.0053 108.746 22.4951C107.367 22.9848 106.716 24.6982 107.293 26.322C107.87 27.9458 109.455 28.8651 110.834 28.3753Z" fill="#FFD37B"/>
<path d="M126.014 30.0027C127.407 28.9881 127.838 27.2067 126.976 26.0237C126.114 24.8407 124.287 24.7042 122.894 25.7187C121.501 26.7332 121.071 28.5147 121.932 29.6977C122.794 30.8806 124.622 31.0172 126.014 30.0027Z" fill="#FFD37B"/>
<path d="M125.822 38.6799C127.542 38.5699 128.86 37.2967 128.767 35.8361C128.673 34.3755 127.204 33.2807 125.484 33.3907C123.764 33.5007 122.446 34.7739 122.54 36.2344C122.633 37.695 124.103 38.7899 125.822 38.6799Z" fill="#FFD37B"/>
<path d="M29.7699 117.14C28.3899 116.03 26.4799 116.04 25.1099 117.02C23.5599 116.35 21.6899 116.77 20.5899 118.15C20.1899 118.65 19.9299 119.23 19.8199 119.82C19.2699 120.06 18.7699 120.43 18.3599 120.94C17.2499 122.32 17.2599 124.23 18.2399 125.6C17.5699 127.15 17.9899 129.02 19.3699 130.12C20.5399 131.06 22.0899 131.2 23.3699 130.62C25.1499 132.01 27.7299 131.72 29.1499 129.95C29.6599 129.31 29.9499 128.57 30.0299 127.82C30.7499 127.57 31.4099 127.13 31.9199 126.5C33.3499 124.72 33.0599 122.11 31.2799 120.68C31.2499 120.66 31.2199 120.64 31.1899 120.61C31.3399 119.33 30.8599 118 29.7799 117.14H29.7699Z" fill="#FFF3D9"/>
<path d="M32.89 124.61C32.77 125.32 32.47 126 32.01 126.58C31.52 127.19 30.88 127.65 30.14 127.92C30.04 128.7 29.73 129.43 29.24 130.04C27.8 131.83 25.18 132.16 23.35 130.78C21.99 131.36 20.44 131.16 19.29 130.23C17.92 129.13 17.43 127.25 18.1 125.62C17.1 124.18 17.16 122.24 18.26 120.86C18.65 120.37 19.14 119.99 19.71 119.73C19.84 119.12 20.1 118.56 20.49 118.07C21.59 116.7 23.47 116.21 25.1 116.88C26.54 115.88 28.48 115.94 29.86 117.04C30.92 117.89 31.46 119.2 31.33 120.55C31.34 120.55 31.35 120.57 31.36 120.58C32.25 121.29 32.81 122.31 32.93 123.44C32.97 123.83 32.96 124.23 32.9 124.61H32.89ZM29.91 127.72L29.99 127.69C30.71 127.44 31.34 127 31.82 126.41C32.49 125.57 32.79 124.53 32.68 123.46C32.56 122.39 32.04 121.44 31.2 120.77C31.19 120.76 31.17 120.75 31.16 120.74L31.06 120.66V120.59C31.23 119.3 30.71 118.04 29.7 117.23C28.4 116.19 26.55 116.14 25.19 117.12L25.13 117.16L25.06 117.13C23.53 116.47 21.73 116.92 20.69 118.22C20.31 118.69 20.06 119.23 19.94 119.83V119.89L19.87 119.92C19.31 120.16 18.84 120.53 18.46 121C17.42 122.3 17.37 124.15 18.35 125.51L18.39 125.57L18.36 125.64C17.7 127.17 18.15 128.97 19.45 130.01C20.55 130.89 22.03 131.07 23.32 130.49L23.39 130.46L23.45 130.51C25.17 131.86 27.68 131.56 29.05 129.86C29.52 129.27 29.82 128.56 29.9 127.8V127.72H29.91Z" fill="#FFE4CC"/>
<path d="M28.03 122.25C26.83 121.45 25.21 121.67 24.29 122.82C23.38 123.95 23.51 125.57 24.52 126.56C24.22 127.35 24.44 128.28 25.14 128.84C26.01 129.54 27.28 129.4 27.97 128.53C28.18 128.27 28.3 127.97 28.36 127.66C28.74 127.48 29.08 127.23 29.36 126.88C29.62 126.56 29.79 126.19 29.88 125.81C30.14 125.68 30.37 125.51 30.57 125.27C31.27 124.4 31.13 123.13 30.26 122.44C29.6 121.91 28.72 121.87 28.03 122.25Z" fill="#FFD37B"/>
<path d="M22.6212 123.77C22.8708 123.009 22.3457 122.153 21.4483 121.859C20.551 121.565 19.6212 121.943 19.3716 122.704C19.122 123.465 19.6471 124.32 20.5445 124.615C21.4419 124.909 22.3717 124.531 22.6212 123.77Z" fill="#FFD37B"/>
<path d="M22.1132 128.992C23.0286 128.76 23.611 127.942 23.414 127.166C23.217 126.39 22.3153 125.949 21.3999 126.181C20.4845 126.414 19.9021 127.231 20.0991 128.007C20.2961 128.784 21.1979 129.225 22.1132 128.992Z" fill="#FFD37B"/>
<path d="M24.7071 121.181C25.3952 120.771 25.5615 119.781 25.0785 118.97C24.5955 118.158 23.6461 117.832 22.9579 118.242C22.2698 118.651 22.1035 119.641 22.5865 120.453C23.0695 121.264 24.0189 121.59 24.7071 121.181Z" fill="#FFD37B"/>
<path d="M29.7959 119.524C29.8231 118.58 29.1963 117.796 28.3958 117.773C27.5953 117.75 26.9243 118.496 26.8971 119.44C26.8699 120.384 27.4968 121.168 28.2973 121.191C29.0978 121.214 29.7687 120.468 29.7959 119.524Z" fill="#FFD37B"/>
<path d="M127.87 50.3099C126.67 48.9599 124.75 48.6299 123.2 49.3899C121.75 48.4499 119.81 48.5399 118.45 49.7399C117.96 50.1799 117.6 50.7099 117.38 51.2799C116.78 51.4299 116.21 51.7199 115.72 52.1499C114.37 53.3499 114.04 55.2699 114.8 56.8199C113.86 58.2699 113.95 60.2099 115.15 61.5699C116.17 62.7199 117.7 63.1299 119.09 62.7699C120.64 64.4799 123.29 64.6299 125.02 63.0999C125.64 62.5499 126.06 61.8499 126.27 61.1099C127.04 60.9899 127.78 60.6599 128.4 60.0999C130.15 58.5499 130.31 55.8799 128.76 54.1299C128.73 54.0999 128.71 54.0799 128.68 54.0499C129.06 52.7899 128.8 51.3699 127.86 50.3099H127.87Z" fill="#FFF3D9"/>
<path d="M129.72 58.37C129.48 59.07 129.06 59.7 128.49 60.2C127.89 60.73 127.16 61.08 126.38 61.22C126.14 61.98 125.71 62.67 125.11 63.19C123.35 64.75 120.65 64.62 119.05 62.91C117.58 63.26 116.06 62.79 115.06 61.66C113.87 60.32 113.71 58.34 114.66 56.82C113.9 55.2 114.3 53.25 115.65 52.06C116.13 51.64 116.68 51.34 117.3 51.18C117.54 50.59 117.9 50.07 118.38 49.65C119.72 48.46 121.7 48.3 123.22 49.25C124.84 48.49 126.79 48.89 127.98 50.24C128.9 51.28 129.22 52.69 128.85 54.03C128.86 54.04 128.87 54.05 128.88 54.06C129.65 54.93 130.04 56.05 129.97 57.21C129.95 57.61 129.87 58.01 129.74 58.38L129.72 58.37ZM126.18 60.99H126.26C127.03 60.85 127.74 60.52 128.32 60C129.14 59.27 129.63 58.27 129.69 57.18C129.76 56.09 129.39 55.03 128.67 54.21C128.66 54.2 128.65 54.18 128.63 54.17L128.54 54.08L128.56 54.01C128.94 52.74 128.65 51.38 127.77 50.39C126.64 49.12 124.78 48.75 123.25 49.5L123.18 49.53L123.12 49.49C121.69 48.56 119.8 48.7 118.53 49.83C118.07 50.24 117.72 50.74 117.5 51.32L117.48 51.38L117.41 51.4C116.81 51.55 116.27 51.83 115.8 52.24C114.53 53.37 114.16 55.23 114.91 56.76L114.94 56.83L114.9 56.89C113.97 58.32 114.11 60.21 115.24 61.48C116.19 62.56 117.65 63 119.05 62.64L119.13 62.62L119.18 62.68C120.68 64.33 123.26 64.48 124.93 62.99C125.51 62.48 125.93 61.81 126.15 61.06L126.17 60.98L126.18 60.99Z" fill="#FFE4CC"/>
<path d="M125.24 55.1601C124.17 54.1501 122.5 54.0901 121.38 55.0801C120.26 56.0701 120.12 57.7101 120.96 58.8901C120.52 59.6401 120.58 60.6101 121.19 61.2901C121.94 62.1401 123.24 62.2201 124.1 61.4701C124.36 61.2401 124.53 60.9601 124.65 60.6701C125.06 60.5601 125.45 60.3601 125.79 60.0601C126.11 59.7801 126.34 59.4401 126.5 59.0801C126.78 59.0001 127.05 58.8601 127.28 58.6501C128.13 57.9001 128.21 56.6001 127.46 55.7401C126.89 55.1001 126.01 54.9001 125.24 55.1601Z" fill="#FFD37B"/>
<path d="M119.539 55.7481C119.922 55.0259 119.539 54.0735 118.685 53.6209C117.831 53.1684 116.829 53.387 116.446 54.1093C116.063 54.8315 116.445 55.7839 117.299 56.2364C118.153 56.689 119.156 56.4703 119.539 55.7481Z" fill="#FFD37B"/>
<path d="M118.118 60.9168C119.081 60.8413 119.811 60.1195 119.747 59.3046C119.683 58.4897 118.85 57.8904 117.887 57.9658C116.923 58.0413 116.194 58.7631 116.258 59.578C116.322 60.3929 117.154 60.9923 118.118 60.9168Z" fill="#FFD37B"/>
<path d="M122.079 53.495C122.842 53.202 123.18 52.2331 122.833 51.3308C122.487 50.4285 121.588 49.9345 120.825 50.2274C120.061 50.5204 119.724 51.4893 120.07 52.3916C120.416 53.2939 121.316 53.7879 122.079 53.495Z" fill="#FFD37B"/>
<path d="M127.487 52.712C127.678 51.7646 127.184 50.8655 126.383 50.7038C125.581 50.5421 124.777 51.179 124.586 52.1264C124.395 53.0738 124.889 53.9729 125.69 54.1346C126.491 54.2963 127.296 53.6594 127.487 52.712Z" fill="#FFD37B"/>
<path d="M110.38 51.78C111.28 51.78 112.01 51.0502 112.01 50.15C112.01 49.2498 111.28 48.52 110.38 48.52C109.48 48.52 108.75 49.2498 108.75 50.15C108.75 51.0502 109.48 51.78 110.38 51.78Z" fill="white"/>
<path d="M131.25 65.3901C132.089 65.3901 132.77 64.7096 132.77 63.8701C132.77 63.0306 132.089 62.3501 131.25 62.3501C130.411 62.3501 129.73 63.0306 129.73 63.8701C129.73 64.7096 130.411 65.3901 131.25 65.3901Z" fill="#FFD37B"/>
<path d="M119.6 69.91C120.202 69.91 120.69 69.422 120.69 68.82C120.69 68.218 120.202 67.73 119.6 67.73C118.998 67.73 118.51 68.218 118.51 68.82C118.51 69.422 118.998 69.91 119.6 69.91Z" fill="#FFE4B3"/>
<path d="M23.6399 23.9801C24.5788 23.9801 25.3399 23.219 25.3399 22.2801C25.3399 21.3412 24.5788 20.5801 23.6399 20.5801C22.7011 20.5801 21.9399 21.3412 21.9399 22.2801C21.9399 23.219 22.7011 23.9801 23.6399 23.9801Z" fill="#FFF3D9"/>
<path d="M29.25 23.9801C30.1889 23.9801 30.9501 23.219 30.9501 22.2801C30.9501 21.3412 30.1889 20.5801 29.25 20.5801C28.3112 20.5801 27.55 21.3412 27.55 22.2801C27.55 23.219 28.3112 23.9801 29.25 23.9801Z" fill="#FFF3D9"/>
<path d="M34.8599 23.9801C35.7988 23.9801 36.5599 23.219 36.5599 22.2801C36.5599 21.3412 35.7988 20.5801 34.8599 20.5801C33.921 20.5801 33.1599 21.3412 33.1599 22.2801C33.1599 23.219 33.921 23.9801 34.8599 23.9801Z" fill="#FFF3D9"/>
<path d="M40.47 23.9801C41.4089 23.9801 42.17 23.219 42.17 22.2801C42.17 21.3412 41.4089 20.5801 40.47 20.5801C39.5311 20.5801 38.77 21.3412 38.77 22.2801C38.77 23.219 39.5311 23.9801 40.47 23.9801Z" fill="#FFF3D9"/>
<path d="M46.0799 23.9801C47.0188 23.9801 47.7799 23.219 47.7799 22.2801C47.7799 21.3412 47.0188 20.5801 46.0799 20.5801C45.141 20.5801 44.3799 21.3412 44.3799 22.2801C44.3799 23.219 45.141 23.9801 46.0799 23.9801Z" fill="#FFF3D9"/>
<path d="M51.68 23.9801C52.6189 23.9801 53.38 23.219 53.38 22.2801C53.38 21.3412 52.6189 20.5801 51.68 20.5801C50.7411 20.5801 49.98 21.3412 49.98 22.2801C49.98 23.219 50.7411 23.9801 51.68 23.9801Z" fill="#FFF3D9"/>
<path d="M57.2898 23.9801C58.2287 23.9801 58.9898 23.219 58.9898 22.2801C58.9898 21.3412 58.2287 20.5801 57.2898 20.5801C56.351 20.5801 55.5898 21.3412 55.5898 22.2801C55.5898 23.219 56.351 23.9801 57.2898 23.9801Z" fill="#FFF3D9"/>
<path d="M62.9 23.9801C63.8388 23.9801 64.5999 23.219 64.5999 22.2801C64.5999 21.3412 63.8388 20.5801 62.9 20.5801C61.9611 20.5801 61.2 21.3412 61.2 22.2801C61.2 23.219 61.9611 23.9801 62.9 23.9801Z" fill="#FFF3D9"/>
<path d="M68.5101 23.9801C69.4489 23.9801 70.2101 23.219 70.2101 22.2801C70.2101 21.3412 69.4489 20.5801 68.5101 20.5801C67.5712 20.5801 66.8101 21.3412 66.8101 22.2801C66.8101 23.219 67.5712 23.9801 68.5101 23.9801Z" fill="#FFF3D9"/>
<path d="M74.1199 23.9801C75.0588 23.9801 75.8199 23.219 75.8199 22.2801C75.8199 21.3412 75.0588 20.5801 74.1199 20.5801C73.181 20.5801 72.4199 21.3412 72.4199 22.2801C72.4199 23.219 73.181 23.9801 74.1199 23.9801Z" fill="#FFF3D9"/>
<path d="M79.73 23.9801C80.6689 23.9801 81.43 23.219 81.43 22.2801C81.43 21.3412 80.6689 20.5801 79.73 20.5801C78.7911 20.5801 78.03 21.3412 78.03 22.2801C78.03 23.219 78.7911 23.9801 79.73 23.9801Z" fill="#FFF3D9"/>
<path d="M85.3399 23.9801C86.2788 23.9801 87.0399 23.219 87.0399 22.2801C87.0399 21.3412 86.2788 20.5801 85.3399 20.5801C84.401 20.5801 83.6399 21.3412 83.6399 22.2801C83.6399 23.219 84.401 23.9801 85.3399 23.9801Z" fill="#FFF3D9"/>
<path d="M90.95 23.9801C91.8889 23.9801 92.65 23.219 92.65 22.2801C92.65 21.3412 91.8889 20.5801 90.95 20.5801C90.0111 20.5801 89.25 21.3412 89.25 22.2801C89.25 23.219 90.0111 23.9801 90.95 23.9801Z" fill="#FFF3D9"/>
<path d="M56.3799 129.94C57.3188 129.94 58.0799 129.179 58.0799 128.24C58.0799 127.301 57.3188 126.54 56.3799 126.54C55.441 126.54 54.6799 127.301 54.6799 128.24C54.6799 129.179 55.441 129.94 56.3799 129.94Z" fill="#FFF3D9"/>
<path d="M61.99 129.94C62.9289 129.94 63.69 129.179 63.69 128.24C63.69 127.301 62.9289 126.54 61.99 126.54C61.0512 126.54 60.29 127.301 60.29 128.24C60.29 129.179 61.0512 129.94 61.99 129.94Z" fill="#FFF3D9"/>
<path d="M67.5999 129.94C68.5388 129.94 69.2999 129.179 69.2999 128.24C69.2999 127.301 68.5388 126.54 67.5999 126.54C66.661 126.54 65.8999 127.301 65.8999 128.24C65.8999 129.179 66.661 129.94 67.5999 129.94Z" fill="#FFF3D9"/>
<path d="M73.21 129.94C74.1489 129.94 74.91 129.179 74.91 128.24C74.91 127.301 74.1489 126.54 73.21 126.54C72.2711 126.54 71.51 127.301 71.51 128.24C71.51 129.179 72.2711 129.94 73.21 129.94Z" fill="#FFF3D9"/>
<path d="M78.8099 129.94C79.7487 129.94 80.5099 129.179 80.5099 128.24C80.5099 127.301 79.7487 126.54 78.8099 126.54C77.871 126.54 77.1099 127.301 77.1099 128.24C77.1099 129.179 77.871 129.94 78.8099 129.94Z" fill="#FFF3D9"/>
<path d="M84.42 129.94C85.3589 129.94 86.12 129.179 86.12 128.24C86.12 127.301 85.3589 126.54 84.42 126.54C83.4811 126.54 82.72 127.301 82.72 128.24C82.72 129.179 83.4811 129.94 84.42 129.94Z" fill="#FFF3D9"/>
<path d="M90.0298 129.94C90.9687 129.94 91.7298 129.179 91.7298 128.24C91.7298 127.301 90.9687 126.54 90.0298 126.54C89.0909 126.54 88.3298 127.301 88.3298 128.24C88.3298 129.179 89.0909 129.94 90.0298 129.94Z" fill="#FFF3D9"/>
<path d="M95.6399 129.94C96.5788 129.94 97.3399 129.179 97.3399 128.24C97.3399 127.301 96.5788 126.54 95.6399 126.54C94.7011 126.54 93.9399 127.301 93.9399 128.24C93.9399 129.179 94.7011 129.94 95.6399 129.94Z" fill="#FFF3D9"/>
<path d="M101.25 129.94C102.189 129.94 102.95 129.179 102.95 128.24C102.95 127.301 102.189 126.54 101.25 126.54C100.311 126.54 99.55 127.301 99.55 128.24C99.55 129.179 100.311 129.94 101.25 129.94Z" fill="#FFF3D9"/>
<path d="M106.86 129.94C107.799 129.94 108.56 129.179 108.56 128.24C108.56 127.301 107.799 126.54 106.86 126.54C105.921 126.54 105.16 127.301 105.16 128.24C105.16 129.179 105.921 129.94 106.86 129.94Z" fill="#FFF3D9"/>
<path d="M112.47 129.94C113.409 129.94 114.17 129.179 114.17 128.24C114.17 127.301 113.409 126.54 112.47 126.54C111.531 126.54 110.77 127.301 110.77 128.24C110.77 129.179 111.531 129.94 112.47 129.94Z" fill="#FFF3D9"/>
<path d="M118.08 129.94C119.019 129.94 119.78 129.179 119.78 128.24C119.78 127.301 119.019 126.54 118.08 126.54C117.141 126.54 116.38 127.301 116.38 128.24C116.38 129.179 117.141 129.94 118.08 129.94Z" fill="#FFF3D9"/>
<path d="M123.68 129.94C124.619 129.94 125.38 129.179 125.38 128.24C125.38 127.301 124.619 126.54 123.68 126.54C122.741 126.54 121.98 127.301 121.98 128.24C121.98 129.179 122.741 129.94 123.68 129.94Z" fill="#FFF3D9"/>
</svg>
