<svg width="148" height="148" viewBox="0 0 148 148" fill="none" xmlns="http://www.w3.org/2000/svg">
<g clip-path="url(#clip0_1466_3591)">
<path d="M138 51.57C138 28.61 119.39 10 96.43 10C88.16 10 80.47 12.42 74 16.58C67.53 12.42 59.83 10 51.57 10C28.61 10 10 28.61 10 51.57C10 59.84 12.42 67.53 16.58 74C12.42 80.47 10 88.17 10 96.43C10 119.39 28.61 138 51.57 138C59.84 138 67.53 135.58 74 131.42C80.47 135.58 88.17 138 96.43 138C119.39 138 138 119.39 138 96.43C138 88.16 135.58 80.47 131.42 74C135.58 67.53 138 59.83 138 51.57Z" fill="white" stroke="#FFBB24" stroke-width="0.5" stroke-miterlimit="10"/>
<mask id="mask0_1466_3591" style="mask-type:luminance" maskUnits="userSpaceOnUse" x="10" y="10" width="128" height="128">
<path d="M138 51.57C138 28.61 119.39 10 96.43 10C88.16 10 80.47 12.42 74 16.58C67.53 12.42 59.83 10 51.57 10C28.61 10 10 28.61 10 51.57C10 59.84 12.42 67.53 16.58 74C12.42 80.47 10 88.17 10 96.43C10 119.39 28.61 138 51.57 138C59.84 138 67.53 135.58 74 131.42C80.47 135.58 88.17 138 96.43 138C119.39 138 138 119.39 138 96.43C138 88.16 135.58 80.47 131.42 74C135.58 67.53 138 59.83 138 51.57Z" fill="white"/>
</mask>
<g mask="url(#mask0_1466_3591)">
<path d="M109.12 70.8201C127.947 70.8201 143.21 55.5575 143.21 36.7301C143.21 17.9028 127.947 2.64014 109.12 2.64014C90.2924 2.64014 75.0298 17.9028 75.0298 36.7301C75.0298 55.5575 90.2924 70.8201 109.12 70.8201Z" fill="#FFD37B"/>
<path d="M139.03 81.2604C157.09 81.2604 171.73 66.6201 171.73 48.5604C171.73 30.5006 157.09 15.8604 139.03 15.8604C120.97 15.8604 106.33 30.5006 106.33 48.5604C106.33 66.6201 120.97 81.2604 139.03 81.2604Z" fill="#FFCB39"/>
<path d="M72.25 36.0401C84.9305 36.0401 95.21 25.7606 95.21 13.0801C95.21 0.399658 84.9305 -9.87988 72.25 -9.87988C59.5696 -9.87988 49.29 0.399658 49.29 13.0801C49.29 25.7606 59.5696 36.0401 72.25 36.0401Z" fill="#FFF7E0"/>
<path d="M43.7301 147.31C62.5575 147.31 77.8201 132.047 77.8201 113.22C77.8201 94.3925 62.5575 79.1299 43.7301 79.1299C24.9028 79.1299 9.64014 94.3925 9.64014 113.22C9.64014 132.047 24.9028 147.31 43.7301 147.31Z" fill="#FFD37B"/>
<path d="M13.93 133.04C31.9897 133.04 46.63 118.4 46.63 100.34C46.63 82.2804 31.9897 67.6401 13.93 67.6401C-4.12973 67.6401 -18.77 82.2804 -18.77 100.34C-18.77 118.4 -4.12973 133.04 13.93 133.04Z" fill="#FFCB39"/>
<path d="M74.6802 161.03C87.3607 161.03 97.6402 150.751 97.6402 138.07C97.6402 125.39 87.3607 115.11 74.6802 115.11C61.9998 115.11 51.7202 125.39 51.7202 138.07C51.7202 150.751 61.9998 161.03 74.6802 161.03Z" fill="#FFF7E0"/>
</g>
<mask id="mask1_1466_3591" style="mask-type:luminance" maskUnits="userSpaceOnUse" x="10" y="10" width="128" height="128">
<path d="M138 51.57C138 28.61 119.39 10 96.43 10C88.16 10 80.47 12.42 74 16.58C67.53 12.42 59.83 10 51.57 10C28.61 10 10 28.61 10 51.57C10 59.84 12.42 67.53 16.58 74C12.42 80.47 10 88.17 10 96.43C10 119.39 28.61 138 51.57 138C59.84 138 67.53 135.58 74 131.42C80.47 135.58 88.17 138 96.43 138C119.39 138 138 119.39 138 96.43C138 88.16 135.58 80.47 131.42 74C135.58 67.53 138 59.83 138 51.57Z" fill="white"/>
</mask>
<g mask="url(#mask1_1466_3591)">
<path d="M113.93 127C112.64 126.5 111.21 126.95 110.42 128C109.1 127.87 107.81 128.61 107.3 129.9C107.12 130.37 107.06 130.86 107.11 131.33C106.75 131.64 106.47 132.04 106.28 132.51C105.78 133.8 106.23 135.23 107.28 136.02C107.15 137.34 107.89 138.63 109.18 139.14C110.27 139.57 111.46 139.31 112.28 138.58C113.94 139.2 115.79 138.38 116.44 136.73C116.67 136.14 116.71 135.52 116.6 134.93C117.08 134.58 117.47 134.09 117.7 133.5C118.35 131.83 117.53 129.95 115.86 129.3C115.83 129.29 115.8 129.28 115.78 129.27C115.6 128.28 114.92 127.4 113.91 127.01L113.93 127Z" fill="#FFF3D9"/>
<path d="M118.01 131.85C118.09 132.41 118.02 132.98 117.81 133.53C117.59 134.1 117.21 134.59 116.73 134.97C116.83 135.57 116.78 136.19 116.55 136.76C115.9 138.44 114.01 139.29 112.32 138.69C111.44 139.44 110.24 139.65 109.16 139.23C107.88 138.73 107.08 137.44 107.19 136.07C106.11 135.23 105.7 133.76 106.2 132.48C106.38 132.02 106.65 131.63 107.02 131.3C106.97 130.81 107.04 130.33 107.22 129.88C107.72 128.6 109.01 127.8 110.38 127.91C111.22 126.83 112.69 126.42 113.97 126.92C114.96 127.31 115.67 128.16 115.89 129.2C115.9 129.2 115.91 129.2 115.92 129.21C116.75 129.53 117.41 130.16 117.76 130.98C117.88 131.26 117.97 131.56 118.01 131.86V131.85ZM116.51 134.88L116.56 134.84C117.04 134.49 117.41 134.01 117.63 133.45C117.93 132.67 117.92 131.81 117.58 131.05C117.24 130.28 116.63 129.69 115.85 129.39C115.84 129.39 115.82 129.39 115.81 129.38L115.72 129.35V129.29C115.52 128.29 114.85 127.47 113.9 127.1C112.68 126.63 111.29 127.02 110.51 128.07L110.48 128.12H110.42C109.12 127.98 107.88 128.74 107.41 129.95C107.24 130.39 107.18 130.86 107.23 131.33V131.38L107.2 131.41C106.84 131.72 106.57 132.1 106.4 132.55C105.93 133.77 106.33 135.16 107.37 135.94L107.42 135.97V136.03C107.28 137.33 108.04 138.57 109.25 139.04C110.28 139.44 111.43 139.23 112.25 138.5L112.29 138.46L112.35 138.48C113.95 139.08 115.76 138.28 116.38 136.68C116.6 136.13 116.65 135.53 116.53 134.94V134.88H116.51Z" fill="#FFE4CC"/>
<path d="M113.83 131.23C112.75 130.91 111.58 131.46 111.17 132.53C110.76 133.59 111.23 134.77 112.22 135.27C112.18 135.93 112.56 136.57 113.21 136.83C114.02 137.15 114.94 136.75 115.25 135.93C115.35 135.69 115.37 135.43 115.34 135.19C115.58 134.97 115.78 134.7 115.91 134.38C116.03 134.08 116.07 133.76 116.05 133.46C116.21 133.31 116.35 133.12 116.44 132.89C116.76 132.08 116.36 131.16 115.54 130.85C114.93 130.61 114.26 130.78 113.83 131.23Z" fill="#FFD37B"/>
<path d="M110.149 133.628C110.157 132.998 109.564 132.479 108.824 132.469C108.084 132.459 107.477 132.962 107.469 133.591C107.46 134.221 108.053 134.739 108.793 134.749C109.533 134.759 110.14 134.257 110.149 133.628Z" fill="#FFD37B"/>
<path d="M110.989 137.636C111.619 137.247 111.862 136.498 111.532 135.962C111.202 135.426 110.423 135.306 109.793 135.694C109.163 136.082 108.92 136.832 109.25 137.368C109.58 137.904 110.359 138.024 110.989 137.636Z" fill="#FFD37B"/>
<path d="M111.084 131.209C111.505 130.74 111.398 129.96 110.847 129.466C110.296 128.972 109.509 128.952 109.088 129.421C108.668 129.89 108.774 130.67 109.326 131.164C109.877 131.658 110.664 131.678 111.084 131.209Z" fill="#FFD37B"/>
<path d="M113.777 130.365C114.383 130.194 114.711 129.478 114.51 128.766C114.31 128.054 113.656 127.615 113.05 127.785C112.444 127.956 112.115 128.672 112.316 129.384C112.517 130.097 113.171 130.536 113.777 130.365Z" fill="#FFD37B"/>
<path d="M101.68 130.77C100.7 129.79 99.2202 129.62 98.0702 130.27C96.9202 129.61 95.4402 129.77 94.4502 130.75C94.0902 131.11 93.8402 131.53 93.7002 131.98C93.2502 132.12 92.8202 132.36 92.4702 132.72C91.4902 133.7 91.3202 135.18 91.9702 136.33C91.3102 137.48 91.4702 138.96 92.4502 139.95C93.2802 140.78 94.4702 141.03 95.5202 140.69C96.7802 141.93 98.8102 141.93 100.07 140.69C100.52 140.24 100.81 139.69 100.94 139.11C101.52 138.98 102.07 138.7 102.53 138.25C103.8 136.99 103.81 134.94 102.55 133.67C102.53 133.65 102.51 133.63 102.49 133.61C102.72 132.63 102.46 131.55 101.7 130.78L101.68 130.77Z" fill="#FFF3D9"/>
<path d="M103.45 136.85C103.3 137.39 103 137.89 102.59 138.3C102.16 138.73 101.61 139.03 101.02 139.17C100.87 139.76 100.57 140.31 100.13 140.74C98.85 142.01 96.78 142.02 95.48 140.79C94.37 141.12 93.19 140.83 92.37 140C91.4 139.02 91.19 137.52 91.85 136.31C91.2 135.1 91.42 133.59 92.4 132.63C92.75 132.29 93.16 132.03 93.62 131.88C93.78 131.42 94.03 131.01 94.38 130.66C95.36 129.69 96.87 129.48 98.07 130.14C99.28 129.49 100.79 129.71 101.75 130.69C102.5 131.44 102.81 132.51 102.58 133.55L102.6 133.57C103.23 134.2 103.57 135.04 103.57 135.93C103.57 136.24 103.53 136.54 103.44 136.84L103.45 136.85ZM100.85 139.01H100.91C101.49 138.87 102.02 138.58 102.45 138.16C103.05 137.57 103.38 136.78 103.38 135.94C103.38 135.1 103.06 134.31 102.47 133.72C102.47 133.72 102.45 133.7 102.44 133.69L102.37 133.62V133.56C102.62 132.57 102.33 131.55 101.62 130.83C100.7 129.9 99.26 129.7 98.12 130.34L98.07 130.37L98.02 130.34C96.89 129.69 95.45 129.88 94.52 130.8C94.18 131.13 93.94 131.53 93.8 131.99L93.78 132.04L93.73 132.06C93.28 132.2 92.87 132.44 92.54 132.77C91.61 133.69 91.41 135.13 92.05 136.27L92.08 136.32L92.05 136.37C91.4 137.5 91.59 138.94 92.51 139.87C93.29 140.65 94.42 140.93 95.48 140.59L95.54 140.57L95.58 140.61C96.8 141.81 98.78 141.81 99.99 140.61C100.41 140.19 100.7 139.67 100.84 139.08V139.02L100.85 139.01Z" fill="#FFE4CC"/>
<path d="M99.8799 134.59C99.0199 133.86 97.7299 133.89 96.9199 134.7C96.1099 135.51 96.0699 136.77 96.7699 137.63C96.4699 138.22 96.5499 138.96 97.0499 139.46C97.6599 140.08 98.6599 140.08 99.2799 139.46C99.4699 139.28 99.5899 139.05 99.6599 138.82C99.9699 138.72 100.26 138.55 100.51 138.31C100.74 138.08 100.91 137.81 101.01 137.53C101.22 137.45 101.42 137.34 101.59 137.17C102.21 136.56 102.21 135.56 101.59 134.94C101.13 134.47 100.44 134.36 99.8699 134.59H99.8799Z" fill="#FFD37B"/>
<path d="M95.5338 135.282C95.7967 134.71 95.4646 133.996 94.7922 133.687C94.1197 133.378 93.3615 133.591 93.0986 134.163C92.8357 134.735 93.1677 135.449 93.8402 135.758C94.5126 136.067 95.2709 135.854 95.5338 135.282Z" fill="#FFD37B"/>
<path d="M94.6786 139.309C95.4119 139.209 95.9379 138.623 95.8533 137.999C95.7687 137.375 95.1056 136.95 94.3723 137.049C93.6389 137.149 93.113 137.735 93.1976 138.359C93.2821 138.983 93.9452 139.408 94.6786 139.309Z" fill="#FFD37B"/>
<path d="M97.3947 133.454C97.9688 133.196 98.1879 132.439 97.884 131.764C97.5802 131.089 96.8685 130.752 96.2944 131.01C95.7203 131.269 95.5012 132.026 95.805 132.7C96.1089 133.375 96.8206 133.713 97.3947 133.454Z" fill="#FFD37B"/>
<path d="M101.498 132.613C101.603 131.881 101.183 131.214 100.56 131.125C99.9366 131.035 99.3461 131.557 99.241 132.289C99.1358 133.022 99.5558 133.688 100.179 133.778C100.802 133.867 101.393 133.346 101.498 132.613Z" fill="#FFD37B"/>
<path d="M89.8298 116.77C88.5398 116.27 87.1098 116.72 86.3198 117.77C84.9998 117.64 83.7098 118.38 83.1998 119.67C83.0198 120.14 82.9598 120.63 83.0098 121.1C82.6498 121.41 82.3698 121.81 82.1798 122.28C81.6798 123.57 82.1298 125 83.1798 125.79C83.0498 127.11 83.7898 128.4 85.0798 128.91C86.1698 129.34 87.3598 129.08 88.1798 128.35C89.8398 128.97 91.6898 128.15 92.3398 126.5C92.5698 125.91 92.6098 125.29 92.4998 124.7C92.9798 124.35 93.3698 123.86 93.5998 123.27C94.2498 121.6 93.4298 119.72 91.7598 119.07C91.7298 119.06 91.6998 119.05 91.6798 119.04C91.4998 118.05 90.8198 117.17 89.8098 116.78L89.8298 116.77Z" fill="#FFF3D9"/>
<path d="M93.91 121.62C93.99 122.18 93.92 122.75 93.71 123.3C93.49 123.87 93.11 124.36 92.63 124.74C92.73 125.34 92.68 125.96 92.45 126.53C91.8 128.21 89.91 129.06 88.22 128.46C87.34 129.21 86.14 129.42 85.06 129C83.78 128.5 82.98 127.21 83.09 125.84C82.01 125 81.6 123.53 82.1 122.25C82.28 121.79 82.55 121.4 82.92 121.07C82.87 120.58 82.94 120.1 83.12 119.65C83.62 118.37 84.91 117.57 86.28 117.68C87.12 116.6 88.59 116.19 89.87 116.69C90.86 117.08 91.57 117.93 91.79 118.97C91.8 118.97 91.81 118.97 91.82 118.98C92.65 119.3 93.31 119.93 93.66 120.75C93.78 121.03 93.87 121.33 93.91 121.63V121.62ZM92.41 124.65L92.46 124.61C92.94 124.26 93.31 123.78 93.53 123.22C93.83 122.44 93.82 121.58 93.48 120.82C93.14 120.05 92.53 119.46 91.75 119.16C91.74 119.16 91.72 119.16 91.71 119.15L91.62 119.12V119.06C91.42 118.06 90.75 117.24 89.8 116.87C88.58 116.4 87.19 116.79 86.41 117.84L86.38 117.89H86.32C85.02 117.75 83.78 118.51 83.31 119.72C83.14 120.16 83.08 120.63 83.13 121.1V121.15L83.1 121.18C82.74 121.49 82.47 121.87 82.3 122.32C81.83 123.54 82.23 124.93 83.27 125.71L83.32 125.74V125.8C83.18 127.1 83.94 128.34 85.15 128.81C86.18 129.21 87.33 129 88.15 128.27L88.19 128.23L88.25 128.25C89.85 128.85 91.66 128.05 92.28 126.45C92.5 125.9 92.55 125.3 92.43 124.71V124.65H92.41Z" fill="#FFE4CC"/>
<path d="M89.7301 120.99C88.6501 120.67 87.4801 121.22 87.0701 122.29C86.6601 123.36 87.1301 124.53 88.1201 125.03C88.0801 125.69 88.4601 126.33 89.1101 126.59C89.9201 126.91 90.8401 126.51 91.1501 125.69C91.2501 125.45 91.2701 125.19 91.2401 124.95C91.4801 124.73 91.6801 124.46 91.8101 124.14C91.9301 123.84 91.9701 123.52 91.9501 123.22C92.1101 123.07 92.25 122.88 92.34 122.65C92.66 121.84 92.2601 120.92 91.4401 120.61C90.8301 120.37 90.1601 120.54 89.7301 120.99Z" fill="#FFD37B"/>
<path d="M86.0415 123.406C86.05 122.776 85.4571 122.258 84.7171 122.248C83.9771 122.238 83.3703 122.74 83.3617 123.369C83.3531 123.999 83.9461 124.517 84.6861 124.528C85.4261 124.538 86.0329 124.035 86.0415 123.406Z" fill="#FFD37B"/>
<path d="M86.8943 127.404C87.5244 127.016 87.7675 126.267 87.4374 125.731C87.1072 125.195 86.3287 125.075 85.6986 125.463C85.0684 125.851 84.8253 126.6 85.1555 127.136C85.4857 127.672 86.2641 127.792 86.8943 127.404Z" fill="#FFD37B"/>
<path d="M86.9931 120.972C87.4132 120.503 87.307 119.723 86.7558 119.229C86.2046 118.735 85.4172 118.715 84.9971 119.184C84.5769 119.653 84.6832 120.433 85.2343 120.927C85.7855 121.421 86.5729 121.441 86.9931 120.972Z" fill="#FFD37B"/>
<path d="M89.6827 120.116C90.2887 119.946 90.6172 119.23 90.4164 118.517C90.2156 117.805 89.5616 117.366 88.9557 117.537C88.3497 117.708 88.0211 118.424 88.2219 119.136C88.4227 119.848 89.0767 120.287 89.6827 120.116Z" fill="#FFD37B"/>
<path d="M77.5801 120.53C76.6001 119.55 75.1201 119.38 73.9701 120.03C72.8201 119.37 71.3401 119.53 70.3501 120.51C69.9901 120.87 69.7401 121.29 69.6001 121.74C69.1501 121.88 68.7201 122.12 68.3701 122.48C67.3901 123.46 67.2201 124.94 67.8701 126.09C67.2101 127.24 67.3701 128.72 68.3501 129.71C69.1801 130.54 70.3701 130.79 71.4201 130.45C72.6801 131.69 74.7101 131.69 75.9701 130.45C76.4201 130 76.7101 129.45 76.8401 128.87C77.4201 128.74 77.9701 128.46 78.4301 128.01C79.7001 126.75 79.7101 124.7 78.4501 123.43C78.4301 123.41 78.4101 123.39 78.3901 123.37C78.6201 122.39 78.3601 121.31 77.6001 120.54L77.5801 120.53Z" fill="#FFF3D9"/>
<path d="M79.3499 126.62C79.1999 127.16 78.8999 127.66 78.4899 128.07C78.0599 128.5 77.5099 128.8 76.9199 128.94C76.7699 129.53 76.4699 130.08 76.0299 130.51C74.7499 131.78 72.6799 131.79 71.3799 130.56C70.2699 130.89 69.0899 130.6 68.2699 129.77C67.2999 128.79 67.0899 127.29 67.7499 126.08C67.0999 124.87 67.3199 123.36 68.2999 122.4C68.6499 122.06 69.0599 121.8 69.5199 121.65C69.6799 121.19 69.9299 120.78 70.2799 120.43C71.2599 119.46 72.7699 119.25 73.9699 119.91C75.1799 119.26 76.6899 119.48 77.6499 120.46C78.3999 121.21 78.7099 122.28 78.4799 123.32L78.4999 123.34C79.1299 123.97 79.4699 124.81 79.4699 125.7C79.4699 126.01 79.4299 126.31 79.3399 126.61L79.3499 126.62ZM76.7499 128.78H76.8099C77.3899 128.64 77.9199 128.35 78.3499 127.93C78.9499 127.34 79.2799 126.55 79.2799 125.71C79.2799 124.87 78.9599 124.08 78.3699 123.49C78.3699 123.49 78.3499 123.47 78.3399 123.46L78.2699 123.39V123.33C78.5199 122.34 78.2299 121.32 77.5199 120.6C76.5999 119.67 75.1599 119.47 74.0199 120.11L73.9699 120.14L73.9199 120.11C72.7899 119.46 71.3499 119.65 70.4199 120.57C70.0799 120.9 69.8399 121.3 69.6999 121.76L69.6799 121.81L69.6299 121.83C69.1799 121.97 68.7699 122.21 68.4399 122.54C67.5099 123.46 67.3099 124.9 67.9499 126.04L67.9799 126.09L67.9499 126.14C67.2999 127.27 67.4899 128.71 68.4099 129.64C69.1899 130.42 70.3199 130.7 71.3799 130.36L71.4399 130.34L71.4799 130.38C72.6999 131.58 74.6799 131.58 75.8899 130.38C76.3099 129.96 76.5999 129.44 76.7399 128.85V128.79L76.7499 128.78Z" fill="#FFE4CC"/>
<path d="M75.7798 124.36C74.9198 123.63 73.6298 123.66 72.8198 124.47C72.0098 125.28 71.9698 126.54 72.6698 127.4C72.3698 127.99 72.4498 128.73 72.9498 129.23C73.5598 129.85 74.5598 129.85 75.1798 129.23C75.3698 129.05 75.4898 128.82 75.5598 128.59C75.8698 128.49 76.1598 128.32 76.4098 128.08C76.6398 127.85 76.8098 127.58 76.9098 127.3C77.1198 127.22 77.3198 127.11 77.4898 126.94C78.1098 126.33 78.1098 125.33 77.4898 124.71C77.0298 124.24 76.3398 124.13 75.7698 124.36H75.7798Z" fill="#FFD37B"/>
<path d="M71.4351 125.049C71.698 124.477 71.366 123.763 70.6935 123.454C70.0211 123.145 69.2628 123.358 68.9999 123.93C68.737 124.502 69.0691 125.216 69.7415 125.525C70.414 125.834 71.1722 125.621 71.4351 125.049Z" fill="#FFD37B"/>
<path d="M70.5726 129.08C71.306 128.981 71.8319 128.395 71.7473 127.771C71.6627 127.147 70.9997 126.722 70.2663 126.821C69.533 126.92 69.007 127.507 69.0916 128.131C69.1762 128.755 69.8393 129.18 70.5726 129.08Z" fill="#FFD37B"/>
<path d="M73.2995 123.221C73.8736 122.962 74.0926 122.206 73.7888 121.531C73.485 120.856 72.7733 120.519 72.1992 120.777C71.6251 121.036 71.406 121.792 71.7098 122.467C72.0137 123.142 72.7254 123.479 73.2995 123.221Z" fill="#FFD37B"/>
<path d="M77.3965 122.385C77.5017 121.652 77.0817 120.986 76.4585 120.896C75.8353 120.807 75.2448 121.328 75.1396 122.061C75.0345 122.793 75.4544 123.46 76.0776 123.549C76.7009 123.639 77.2913 123.117 77.3965 122.385Z" fill="#FFD37B"/>
<path d="M65.7195 106.54C64.4295 106.04 62.9995 106.49 62.2095 107.54C60.8895 107.41 59.5995 108.15 59.0895 109.44C58.9095 109.91 58.8495 110.4 58.8995 110.87C58.5395 111.18 58.2595 111.58 58.0695 112.05C57.5695 113.34 58.0195 114.77 59.0695 115.56C58.9395 116.88 59.6795 118.17 60.9695 118.68C62.0595 119.11 63.2495 118.85 64.0695 118.12C65.7295 118.74 67.5795 117.92 68.2295 116.27C68.4595 115.68 68.4995 115.06 68.3895 114.47C68.8695 114.12 69.2595 113.63 69.4895 113.04C70.1395 111.37 69.3195 109.49 67.6495 108.84C67.6195 108.83 67.5895 108.82 67.5695 108.81C67.3895 107.82 66.7095 106.94 65.6995 106.55L65.7195 106.54Z" fill="#FFF3D9"/>
<path d="M69.7996 111.39C69.8796 111.95 69.8096 112.52 69.5996 113.07C69.3796 113.64 68.9996 114.13 68.5196 114.51C68.6196 115.11 68.5696 115.73 68.3396 116.3C67.6896 117.98 65.7996 118.83 64.1096 118.23C63.2296 118.98 62.0296 119.19 60.9496 118.77C59.6696 118.27 58.8696 116.98 58.9796 115.61C57.8996 114.77 57.4896 113.3 57.9896 112.02C58.1696 111.56 58.4396 111.17 58.8096 110.84C58.7596 110.35 58.8296 109.87 59.0096 109.42C59.5096 108.14 60.7996 107.34 62.1696 107.45C63.0096 106.37 64.4796 105.96 65.7596 106.46C66.7496 106.85 67.4596 107.7 67.6796 108.74C67.6896 108.74 67.6996 108.74 67.7096 108.75C68.5396 109.07 69.1996 109.7 69.5496 110.52C69.6696 110.8 69.7596 111.1 69.7996 111.4V111.39ZM68.2996 114.41L68.3496 114.37C68.8296 114.02 69.1996 113.54 69.4196 112.98C69.7196 112.2 69.7096 111.34 69.3696 110.58C69.0296 109.81 68.4196 109.22 67.6396 108.92C67.6296 108.92 67.6096 108.92 67.5996 108.91L67.5096 108.88V108.82C67.3096 107.82 66.6396 107 65.6896 106.63C64.4696 106.16 63.0796 106.55 62.2996 107.6L62.2696 107.65H62.2096C60.9096 107.51 59.6696 108.27 59.1996 109.48C59.0296 109.92 58.9696 110.39 59.0196 110.86V110.91L58.9896 110.94C58.6296 111.25 58.3596 111.63 58.1896 112.08C57.7196 113.3 58.1196 114.69 59.1596 115.47L59.2096 115.5V115.56C59.0696 116.86 59.8296 118.1 61.0396 118.57C62.0696 118.97 63.2196 118.76 64.0396 118.03L64.0796 117.99L64.1396 118.01C65.7396 118.61 67.5496 117.81 68.1696 116.21C68.3896 115.66 68.4396 115.06 68.3196 114.47V114.41H68.2996Z" fill="#FFE4CC"/>
<path d="M65.6197 110.76C64.5397 110.44 63.3697 110.99 62.9597 112.06C62.5497 113.13 63.0197 114.3 64.0097 114.8C63.9697 115.46 64.3497 116.1 64.9997 116.36C65.8097 116.68 66.7297 116.28 67.0397 115.46C67.1397 115.22 67.1597 114.96 67.1297 114.72C67.3697 114.5 67.5697 114.23 67.6997 113.91C67.8197 113.61 67.8597 113.29 67.8397 112.99C67.9997 112.84 68.1397 112.65 68.2297 112.42C68.5497 111.61 68.1497 110.69 67.3297 110.38C66.7197 110.14 66.0497 110.31 65.6197 110.76Z" fill="#FFD37B"/>
<path d="M61.9438 113.174C61.9524 112.545 61.3594 112.026 60.6195 112.016C59.8795 112.006 59.2726 112.508 59.2641 113.138C59.2555 113.767 59.8484 114.286 60.5884 114.296C61.3284 114.306 61.9352 113.804 61.9438 113.174Z" fill="#FFD37B"/>
<path d="M62.7805 117.188C63.4106 116.8 63.6538 116.05 63.3236 115.514C62.9934 114.978 62.2149 114.858 61.5848 115.246C60.9547 115.635 60.7115 116.384 61.0417 116.92C61.3719 117.456 62.1504 117.576 62.7805 117.188Z" fill="#FFD37B"/>
<path d="M62.8915 110.745C63.3116 110.276 63.2054 109.495 62.6542 109.001C62.1031 108.507 61.3156 108.487 60.8955 108.956C60.4754 109.425 60.5816 110.206 61.1328 110.699C61.6839 111.193 62.4714 111.213 62.8915 110.745Z" fill="#FFD37B"/>
<path d="M65.5713 109.89C66.1773 109.72 66.5058 109.004 66.3051 108.291C66.1043 107.579 65.4503 107.14 64.8443 107.311C64.2383 107.482 63.9098 108.198 64.1106 108.91C64.3113 109.622 64.9653 110.061 65.5713 109.89Z" fill="#FFD37B"/>
<path d="M53.48 110.3C52.5 109.32 51.02 109.15 49.87 109.8C48.72 109.14 47.24 109.3 46.25 110.28C45.89 110.64 45.64 111.06 45.5 111.51C45.05 111.65 44.62 111.89 44.27 112.25C43.29 113.23 43.12 114.71 43.77 115.86C43.11 117.01 43.27 118.49 44.25 119.48C45.08 120.31 46.27 120.56 47.32 120.22C48.58 121.46 50.61 121.46 51.87 120.22C52.32 119.77 52.61 119.22 52.74 118.64C53.32 118.51 53.87 118.23 54.33 117.78C55.6 116.52 55.61 114.47 54.35 113.2C54.33 113.18 54.31 113.16 54.29 113.14C54.52 112.16 54.26 111.08 53.5 110.31L53.48 110.3Z" fill="#FFF3D9"/>
<path d="M55.2401 116.39C55.0901 116.93 54.79 117.43 54.38 117.84C53.95 118.27 53.4001 118.57 52.8101 118.71C52.6601 119.3 52.36 119.85 51.92 120.28C50.64 121.55 48.57 121.56 47.27 120.33C46.16 120.66 44.98 120.37 44.16 119.54C43.19 118.56 42.98 117.06 43.64 115.85C42.99 114.64 43.21 113.13 44.19 112.17C44.54 111.83 44.95 111.57 45.41 111.42C45.57 110.96 45.82 110.55 46.17 110.2C47.15 109.23 48.66 109.02 49.86 109.68C51.07 109.03 52.58 109.25 53.54 110.23C54.29 110.98 54.6 112.05 54.37 113.09L54.39 113.11C55.02 113.74 55.36 114.58 55.36 115.47C55.36 115.78 55.32 116.08 55.23 116.38L55.2401 116.39ZM52.6501 118.55H52.71C53.29 118.41 53.82 118.12 54.25 117.7C54.85 117.11 55.18 116.32 55.18 115.48C55.18 114.64 54.86 113.85 54.27 113.26C54.27 113.26 54.2501 113.24 54.2401 113.23L54.17 113.16V113.1C54.42 112.11 54.13 111.09 53.42 110.37C52.5 109.44 51.06 109.24 49.92 109.88L49.87 109.91L49.82 109.88C48.69 109.23 47.25 109.42 46.32 110.34C45.98 110.67 45.74 111.07 45.6 111.53L45.5801 111.58L45.53 111.6C45.08 111.74 44.67 111.98 44.34 112.31C43.41 113.23 43.21 114.67 43.85 115.81L43.88 115.86L43.85 115.91C43.2 117.04 43.39 118.48 44.31 119.41C45.09 120.19 46.22 120.47 47.28 120.13L47.34 120.11L47.38 120.15C48.6 121.35 50.58 121.35 51.79 120.15C52.21 119.73 52.5 119.21 52.64 118.62V118.56L52.6501 118.55Z" fill="#FFE4CC"/>
<path d="M51.6802 114.12C50.8202 113.39 49.5302 113.42 48.7202 114.23C47.9102 115.03 47.8702 116.3 48.5702 117.16C48.2702 117.75 48.3502 118.49 48.8502 118.99C49.4602 119.61 50.4602 119.61 51.0802 118.99C51.2702 118.81 51.3902 118.58 51.4602 118.35C51.7702 118.25 52.0602 118.08 52.3102 117.84C52.5402 117.61 52.7102 117.34 52.8102 117.06C53.0202 116.98 53.2202 116.87 53.3902 116.7C54.0102 116.09 54.0102 115.09 53.3902 114.47C52.9302 114 52.2402 113.89 51.6702 114.12H51.6802Z" fill="#FFD37B"/>
<path d="M47.337 114.816C47.5999 114.244 47.2678 113.53 46.5954 113.221C45.9229 112.912 45.1647 113.125 44.9018 113.697C44.6389 114.269 44.9709 114.983 45.6434 115.292C46.3158 115.601 47.0741 115.388 47.337 114.816Z" fill="#FFD37B"/>
<path d="M46.4769 118.85C47.2103 118.751 47.7362 118.165 47.6516 117.541C47.567 116.917 46.904 116.492 46.1706 116.591C45.4373 116.69 44.9113 117.277 44.9959 117.901C45.0805 118.525 45.7436 118.95 46.4769 118.85Z" fill="#FFD37B"/>
<path d="M49.1808 112.982C49.7549 112.724 49.974 111.967 49.6701 111.292C49.3663 110.617 48.6546 110.28 48.0805 110.538C47.5064 110.797 47.2873 111.553 47.5912 112.228C47.895 112.903 48.6067 113.241 49.1808 112.982Z" fill="#FFD37B"/>
<path d="M53.2945 112.156C53.3996 111.424 52.9797 110.757 52.3565 110.668C51.7332 110.578 51.1428 111.1 51.0376 111.832C50.9324 112.565 51.3524 113.231 51.9756 113.321C52.5988 113.41 53.1893 112.889 53.2945 112.156Z" fill="#FFD37B"/>
<path d="M41.6199 96.3102C40.3299 95.8102 38.8999 96.2602 38.1099 97.3102C36.7899 97.1802 35.4999 97.9202 34.9899 99.2102C34.8099 99.6802 34.7499 100.17 34.7999 100.64C34.4399 100.95 34.1599 101.35 33.9699 101.82C33.4699 103.11 33.9199 104.54 34.9699 105.33C34.8399 106.65 35.5799 107.94 36.8699 108.45C37.9599 108.88 39.1499 108.62 39.9699 107.89C41.6299 108.51 43.4799 107.69 44.1299 106.04C44.3599 105.45 44.3999 104.83 44.2899 104.24C44.7699 103.89 45.1599 103.4 45.3899 102.81C46.0399 101.14 45.2199 99.2602 43.5499 98.6102C43.5199 98.6002 43.4899 98.5902 43.4699 98.5802C43.2899 97.5902 42.6099 96.7102 41.5999 96.3202L41.6199 96.3102Z" fill="#FFF3D9"/>
<path d="M45.7 101.15C45.78 101.71 45.71 102.28 45.5 102.83C45.28 103.4 44.9 103.89 44.42 104.27C44.52 104.87 44.47 105.49 44.24 106.06C43.59 107.74 41.7 108.59 40.01 107.99C39.13 108.74 37.93 108.95 36.85 108.53C35.57 108.03 34.77 106.74 34.88 105.37C33.8 104.53 33.39 103.06 33.89 101.78C34.07 101.32 34.34 100.93 34.71 100.6C34.66 100.11 34.73 99.6301 34.91 99.1801C35.41 97.9001 36.7 97.1001 38.07 97.2101C38.91 96.1301 40.38 95.7201 41.66 96.2201C42.65 96.6101 43.36 97.4601 43.58 98.5001C43.59 98.5001 43.6 98.5001 43.61 98.5101C44.44 98.8301 45.1 99.4601 45.45 100.28C45.57 100.56 45.66 100.86 45.7 101.16V101.15ZM44.2 104.18L44.25 104.14C44.73 103.79 45.1 103.31 45.32 102.75C45.62 101.97 45.61 101.11 45.27 100.35C44.93 99.5801 44.32 98.9901 43.54 98.6901C43.53 98.6901 43.51 98.6901 43.5 98.6801L43.41 98.6501V98.5901C43.21 97.5901 42.54 96.7701 41.59 96.4001C40.37 95.9301 38.98 96.3201 38.2 97.3701L38.17 97.4201H38.11C36.81 97.2801 35.57 98.0401 35.1 99.2501C34.93 99.6901 34.87 100.16 34.92 100.63V100.68L34.89 100.71C34.53 101.02 34.26 101.4 34.09 101.85C33.62 103.07 34.02 104.46 35.06 105.24L35.11 105.27V105.33C34.97 106.63 35.73 107.87 36.94 108.34C37.97 108.74 39.12 108.53 39.94 107.8L39.98 107.76L40.04 107.78C41.64 108.38 43.45 107.58 44.07 105.98C44.29 105.43 44.34 104.83 44.22 104.24V104.18H44.2Z" fill="#FFE4CC"/>
<path d="M41.5201 100.53C40.4401 100.21 39.2701 100.76 38.8601 101.83C38.4501 102.9 38.9201 104.07 39.9101 104.57C39.8701 105.23 40.2501 105.87 40.9001 106.13C41.7101 106.45 42.6301 106.05 42.9401 105.23C43.0401 104.99 43.0601 104.73 43.0301 104.49C43.2701 104.27 43.4701 104 43.6001 103.68C43.7201 103.38 43.7601 103.06 43.7401 102.76C43.9001 102.61 44.0401 102.42 44.1301 102.19C44.4501 101.38 44.0501 100.46 43.2301 100.15C42.6201 99.9099 41.9501 100.08 41.5201 100.53Z" fill="#FFD37B"/>
<path d="M37.8471 102.933C37.8557 102.303 37.2628 101.785 36.5228 101.775C35.7828 101.765 35.1759 102.267 35.1674 102.896C35.1588 103.526 35.7517 104.044 36.4917 104.054C37.2317 104.064 37.8386 103.562 37.8471 102.933Z" fill="#FFD37B"/>
<path d="M38.6858 106.956C39.3159 106.568 39.559 105.819 39.2289 105.282C38.8987 104.746 38.1202 104.626 37.4901 105.015C36.8599 105.403 36.6168 106.152 36.947 106.688C37.2772 107.224 38.0556 107.344 38.6858 106.956Z" fill="#FFD37B"/>
<path d="M38.7831 100.5C39.2033 100.031 39.097 99.251 38.5458 98.7571C37.9947 98.2633 37.2072 98.2431 36.7871 98.712C36.367 99.1809 36.4732 99.9614 37.0244 100.455C37.5756 100.949 38.363 100.969 38.7831 100.5Z" fill="#FFD37B"/>
<path d="M41.4703 99.6614C42.0763 99.4906 42.4048 98.7747 42.204 98.0624C42.0033 97.3501 41.3492 96.9111 40.7432 97.0819C40.1373 97.2527 39.8087 97.9686 40.0095 98.6809C40.2103 99.3932 40.8643 99.8322 41.4703 99.6614Z" fill="#FFD37B"/>
<path d="M29.3799 100.07C28.3999 99.0903 26.9199 98.9203 25.7699 99.5703C24.6199 98.9103 23.1399 99.0703 22.1499 100.05C21.7899 100.41 21.5399 100.83 21.3999 101.28C20.9499 101.42 20.5199 101.66 20.1699 102.02C19.1899 103 19.0199 104.48 19.6699 105.63C19.0099 106.78 19.1699 108.26 20.1499 109.25C20.9799 110.08 22.1699 110.33 23.2199 109.99C24.4799 111.23 26.5099 111.23 27.7699 109.99C28.2199 109.54 28.5099 108.99 28.6399 108.41C29.2199 108.28 29.7699 108 30.2299 107.55C31.4999 106.29 31.5099 104.24 30.2499 102.97C30.2299 102.95 30.2099 102.93 30.1899 102.91C30.4199 101.93 30.1599 100.85 29.3999 100.08L29.3799 100.07Z" fill="#FFF3D9"/>
<path d="M31.1399 106.16C30.99 106.7 30.69 107.2 30.28 107.61C29.85 108.04 29.2999 108.34 28.7099 108.48C28.5599 109.07 28.2599 109.62 27.82 110.05C26.54 111.32 24.4699 111.33 23.17 110.1C22.0599 110.43 20.8799 110.14 20.0599 109.31C19.0899 108.33 18.88 106.83 19.54 105.62C18.89 104.41 19.11 102.9 20.09 101.94C20.44 101.6 20.8499 101.34 21.3099 101.19C21.4699 100.73 21.7199 100.32 22.0699 99.9701C23.0499 99.0001 24.5599 98.7901 25.76 99.4501C26.97 98.8001 28.48 99.0201 29.44 100C30.19 100.75 30.5 101.82 30.27 102.86L30.29 102.88C30.92 103.51 31.26 104.35 31.26 105.24C31.26 105.55 31.2199 105.85 31.1299 106.15L31.1399 106.16ZM28.54 108.32H28.6C29.18 108.18 29.7099 107.89 30.1399 107.47C30.74 106.88 31.07 106.09 31.07 105.25C31.07 104.41 30.75 103.62 30.16 103.03C30.16 103.03 30.1399 103.01 30.1299 103L30.0599 102.93V102.87C30.3099 101.88 30.0199 100.86 29.3099 100.14C28.3899 99.2101 26.9499 99.0101 25.8099 99.6501L25.76 99.6801L25.7099 99.6501C24.5799 99.0001 23.1399 99.1901 22.2099 100.11C21.8699 100.44 21.6299 100.84 21.4899 101.3L21.4699 101.35L21.42 101.37C20.9699 101.51 20.5599 101.75 20.2299 102.08C19.2999 103 19.0999 104.44 19.7399 105.58L19.77 105.63L19.7399 105.68C19.0899 106.81 19.28 108.25 20.2 109.18C20.98 109.96 22.11 110.24 23.17 109.9L23.2299 109.88L23.27 109.92C24.49 111.12 26.47 111.12 27.68 109.92C28.1 109.5 28.39 108.98 28.53 108.39V108.33L28.54 108.32Z" fill="#FFE4CC"/>
<path d="M27.5698 103.89C26.7098 103.16 25.4198 103.19 24.6098 104C23.7998 104.81 23.7598 106.07 24.4598 106.93C24.1598 107.52 24.2398 108.26 24.7398 108.76C25.3498 109.38 26.3498 109.38 26.9698 108.76C27.1598 108.58 27.2798 108.35 27.3498 108.12C27.6598 108.02 27.9498 107.85 28.1998 107.61C28.4298 107.38 28.5998 107.11 28.6998 106.83C28.9098 106.75 29.1098 106.64 29.2798 106.47C29.8998 105.86 29.8998 104.86 29.2798 104.24C28.8198 103.77 28.1298 103.66 27.5598 103.89H27.5698Z" fill="#FFD37B"/>
<path d="M23.2383 104.583C23.5012 104.011 23.1692 103.297 22.4968 102.988C21.8243 102.679 21.066 102.892 20.8032 103.464C20.5403 104.036 20.8723 104.751 21.5447 105.06C22.2172 105.369 22.9755 105.155 23.2383 104.583Z" fill="#FFD37B"/>
<path d="M22.3709 108.621C23.1043 108.521 23.6302 107.935 23.5457 107.311C23.4611 106.687 22.798 106.262 22.0647 106.361C21.3313 106.461 20.8054 107.047 20.89 107.671C20.9745 108.295 21.6376 108.72 22.3709 108.621Z" fill="#FFD37B"/>
<path d="M25.0856 102.758C25.6597 102.5 25.8788 101.743 25.5749 101.068C25.2711 100.394 24.5594 100.056 23.9853 100.315C23.4112 100.573 23.1921 101.33 23.496 102.005C23.7998 102.679 24.5115 103.017 25.0856 102.758Z" fill="#FFD37B"/>
<path d="M29.1934 101.918C29.2986 101.185 28.8786 100.519 28.2554 100.43C27.6322 100.34 27.0417 100.861 26.9365 101.594C26.8314 102.327 27.2513 102.993 27.8745 103.082C28.4977 103.172 29.0882 102.651 29.1934 101.918Z" fill="#FFD37B"/>
<path d="M17.5198 86.07C16.2298 85.57 14.7998 86.02 14.0098 87.07C12.6898 86.94 11.3998 87.68 10.8898 88.97C10.7098 89.44 10.6498 89.93 10.6998 90.4C10.3398 90.71 10.0598 91.11 9.86979 91.58C9.36979 92.87 9.81979 94.3 10.8698 95.09C10.7398 96.41 11.4798 97.7 12.7698 98.21C13.8598 98.64 15.0498 98.38 15.8698 97.65C17.5298 98.27 19.3798 97.45 20.0298 95.8C20.2598 95.21 20.2998 94.59 20.1898 94C20.6698 93.65 21.0598 93.16 21.2898 92.57C21.9398 90.9 21.1198 89.02 19.4498 88.37C19.4198 88.36 19.3898 88.35 19.3698 88.34C19.1898 87.35 18.5098 86.47 17.4998 86.08L17.5198 86.07Z" fill="#FFF3D9"/>
<path d="M21.5999 90.9201C21.6799 91.4801 21.6099 92.0501 21.3999 92.6001C21.1799 93.1701 20.7999 93.6601 20.3199 94.0401C20.4199 94.6401 20.3699 95.2601 20.1399 95.8301C19.4899 97.5101 17.5999 98.3601 15.9099 97.7601C15.0299 98.5101 13.8299 98.7201 12.7499 98.3001C11.4699 97.8001 10.6699 96.5101 10.7799 95.1401C9.69993 94.3001 9.28993 92.8301 9.78993 91.5501C9.96993 91.0901 10.2399 90.7001 10.6099 90.3701C10.5599 89.8801 10.6299 89.4001 10.8099 88.9501C11.3099 87.6701 12.5999 86.8701 13.9699 86.9801C14.8099 85.9001 16.2799 85.4901 17.5599 85.9901C18.5499 86.3801 19.2599 87.2301 19.4799 88.2701C19.4899 88.2701 19.4999 88.2701 19.5099 88.2801C20.3399 88.6001 20.9999 89.2301 21.3499 90.0501C21.4699 90.3301 21.5599 90.6301 21.5999 90.9301V90.9201ZM20.0999 93.9501L20.1499 93.9101C20.6299 93.5601 20.9999 93.0801 21.2199 92.5201C21.5199 91.7401 21.5099 90.8801 21.1699 90.1201C20.8299 89.3501 20.2199 88.7601 19.4399 88.4601C19.4299 88.4601 19.4099 88.4601 19.3999 88.4501L19.3099 88.4201V88.3601C19.1099 87.3601 18.4399 86.5401 17.4899 86.1701C16.2699 85.7001 14.8799 86.0901 14.0999 87.1401L14.0699 87.1901H14.0099C12.7099 87.0501 11.4699 87.8101 10.9999 89.0201C10.8299 89.4601 10.7699 89.9301 10.8199 90.4001V90.4501L10.7899 90.4801C10.4299 90.7901 10.1599 91.1701 9.98993 91.6201C9.51993 92.8401 9.91993 94.2301 10.9599 95.0101L11.0099 95.0401V95.1001C10.8699 96.4001 11.6299 97.6401 12.8399 98.1101C13.8699 98.5101 15.0199 98.3001 15.8399 97.5701L15.8799 97.5301L15.9399 97.5501C17.5399 98.1501 19.3499 97.3501 19.9699 95.7501C20.1899 95.2001 20.2399 94.6001 20.1199 94.0101V93.9501H20.0999Z" fill="#FFE4CC"/>
<path d="M17.42 90.2999C16.34 89.9799 15.17 90.5299 14.76 91.5999C14.35 92.6699 14.82 93.8399 15.81 94.3399C15.77 94.9999 16.15 95.6399 16.8 95.8999C17.61 96.2199 18.53 95.8199 18.84 94.9999C18.94 94.7599 18.96 94.4999 18.93 94.2599C19.17 94.0399 19.37 93.7699 19.5 93.4499C19.62 93.1499 19.66 92.8299 19.64 92.5299C19.8 92.3799 19.94 92.1899 20.03 91.9599C20.35 91.1499 19.95 90.2299 19.13 89.9199C18.52 89.6799 17.85 89.8499 17.42 90.2999Z" fill="#FFD37B"/>
<path d="M13.7299 92.7013C13.7385 92.0717 13.1456 91.5532 12.4056 91.5431C11.6656 91.5331 11.0588 92.0352 11.0502 92.6648C11.0416 93.2943 11.6346 93.8129 12.3745 93.8229C13.1145 93.833 13.7214 93.3308 13.7299 92.7013Z" fill="#FFD37B"/>
<path d="M14.5852 96.7156C15.2153 96.3275 15.4585 95.5783 15.1283 95.0422C14.7981 94.5062 14.0196 94.3862 13.3895 94.7743C12.7594 95.1624 12.5162 95.9116 12.8464 96.4477C13.1766 96.9838 13.9551 97.1037 14.5852 96.7156Z" fill="#FFD37B"/>
<path d="M14.6752 90.2802C15.0953 89.8113 14.9891 89.0308 14.4379 88.5369C13.8867 88.0431 13.0993 88.0229 12.6792 88.4918C12.2591 88.9607 12.3653 89.7412 12.9165 90.235C13.4676 90.7289 14.2551 90.7491 14.6752 90.2802Z" fill="#FFD37B"/>
<path d="M17.3687 89.4329C17.9747 89.2621 18.3032 88.5462 18.1024 87.8339C17.9017 87.1215 17.2477 86.6826 16.6417 86.8533C16.0357 87.0241 15.7072 87.74 15.9079 88.4524C16.1087 89.1647 16.7627 89.6036 17.3687 89.4329Z" fill="#FFD37B"/>
<path d="M51.1601 6.99026C52.5501 7.01026 53.7001 7.96026 54.0301 9.24026C55.3001 9.61026 56.2201 10.7903 56.2001 12.1803C56.2001 12.6803 56.0601 13.1603 55.8401 13.5703C56.0501 13.9903 56.1701 14.4703 56.1601 14.9703C56.1401 16.3603 55.1901 17.5103 53.9101 17.8403C53.5401 19.1103 52.3601 20.0303 50.9701 20.0103C49.8001 19.9903 48.7901 19.3003 48.3101 18.3203C46.5401 18.2703 45.1301 16.8103 45.1601 15.0303C45.1601 14.3903 45.3701 13.8003 45.6901 13.3103C45.3801 12.8003 45.2001 12.2103 45.2101 11.5703C45.2401 9.78026 46.7101 8.35027 48.5001 8.38027C48.5301 8.38027 48.5601 8.38027 48.5901 8.38027C49.1301 7.53027 50.0901 6.97026 51.1701 6.99026H51.1601Z" fill="#FFF3D9"/>
<path d="M46.12 9.22028C46.76 8.60028 47.6 8.26028 48.5 8.28028C48.51 8.28028 48.52 8.28028 48.53 8.28028C49.12 7.39028 50.1 6.88028 51.17 6.89028C52.55 6.91028 53.75 7.84028 54.12 9.16028C55.43 9.57028 56.33 10.8003 56.3 12.1803C56.3 12.6703 56.17 13.1403 55.95 13.5703C56.16 14.0103 56.27 14.4803 56.26 14.9703C56.24 16.3503 55.31 17.5503 53.99 17.9203C53.58 19.2303 52.35 20.1303 50.97 20.1103C49.81 20.0903 48.77 19.4503 48.25 18.4203C46.46 18.3403 45.03 16.8303 45.06 15.0403C45.06 14.4303 45.25 13.8403 45.57 13.3203C45.26 12.7903 45.1 12.1903 45.11 11.5803C45.11 11.0003 45.27 10.4403 45.56 9.95028C45.71 9.69028 45.9 9.45028 46.12 9.23028V9.22028ZM45.77 13.3603C45.44 13.8603 45.26 14.4403 45.26 15.0303C45.23 16.7403 46.61 18.1703 48.32 18.2203H48.38L48.41 18.2803C48.9 19.2703 49.88 19.9003 50.98 19.9203C52.28 19.9403 53.45 19.0803 53.82 17.8203L53.84 17.7703H53.89C55.15 17.4303 56.05 16.2903 56.07 14.9803C56.07 14.5103 55.97 14.0503 55.76 13.6303L55.74 13.5803L55.76 13.5303C55.99 13.1103 56.11 12.6603 56.11 12.1903C56.13 10.8803 55.27 9.72028 54.01 9.35028L53.96 9.33028V9.28028C53.62 8.02028 52.47 7.12028 51.17 7.10028C50.16 7.08028 49.22 7.59028 48.67 8.45028L48.64 8.50028H48.54C48.54 8.50028 48.51 8.50028 48.5 8.50028C47.66 8.49028 46.87 8.80028 46.27 9.39028C45.67 9.97028 45.33 10.7603 45.32 11.6003C45.32 12.1903 45.47 12.7803 45.78 13.2903L45.81 13.3403L45.78 13.3903L45.77 13.3603Z" fill="#FFE4CC"/>
<path d="M49.66 10.9404C50.78 11.0504 51.65 12.0004 51.64 13.1504C51.62 14.2904 50.74 15.2004 49.63 15.2904C49.41 15.9204 48.82 16.3704 48.12 16.3604C47.25 16.3504 46.55 15.6304 46.57 14.7604C46.57 14.5004 46.65 14.2604 46.76 14.0404C46.62 13.7504 46.54 13.4204 46.54 13.0704C46.54 12.7404 46.62 12.4404 46.76 12.1604C46.67 11.9604 46.61 11.7304 46.62 11.4904C46.63 10.6204 47.35 9.92036 48.22 9.94036C48.88 9.94036 49.44 10.3604 49.66 10.9404Z" fill="#FFD37B"/>
<path d="M54.668 15.5429C54.8978 14.9567 54.5254 14.2626 53.8364 13.9926C53.1473 13.7226 52.4025 13.9789 52.1728 14.5651C51.9431 15.1513 52.3154 15.8454 53.0045 16.1154C53.6935 16.3854 54.4383 16.1291 54.668 15.5429Z" fill="#FFD37B"/>
<path d="M51.5706 18.3732C52.0787 18.0013 52.1362 17.2157 51.6992 16.6185C51.2621 16.0213 50.4959 15.8387 49.9878 16.2105C49.4797 16.5823 49.4222 17.3679 49.8593 17.9651C50.2964 18.5623 51.0626 18.745 51.5706 18.3732Z" fill="#FFD37B"/>
<path d="M53.8428 12.5687C54.5396 12.3194 54.9325 11.6367 54.7204 11.0439C54.5083 10.4511 53.7714 10.1727 53.0746 10.422C52.3778 10.6714 51.985 11.3541 52.1971 11.9469C52.4092 12.5397 53.1461 12.8181 53.8428 12.5687Z" fill="#FFD37B"/>
<path d="M51.7565 9.81094C52.2112 9.22705 52.1771 8.44011 51.6804 8.05327C51.1836 7.66643 50.4123 7.82616 49.9576 8.41006C49.5029 8.99395 49.537 9.78088 50.0337 10.1677C50.5305 10.5546 51.3018 10.3948 51.7565 9.81094Z" fill="#FFD37B"/>
<path d="M69.4698 5.81994C70.7298 6.39994 71.3898 7.73994 71.1798 9.03994C72.1898 9.88994 72.5498 11.3399 71.9698 12.5999C71.7598 13.0599 71.4498 13.4399 71.0698 13.7199C71.0898 14.1899 71.0098 14.6699 70.7998 15.1299C70.2198 16.3899 68.8798 17.0499 67.5798 16.8399C66.7298 17.8499 65.2798 18.2099 64.0198 17.6299C62.9498 17.1399 62.3098 16.0999 62.2698 14.9999C60.6698 14.2399 59.9798 12.3299 60.7198 10.7199C60.9898 10.1399 61.4098 9.67994 61.8998 9.35994C61.8198 8.76994 61.8998 8.14994 62.1698 7.57994C62.9198 5.95994 64.8398 5.24994 66.4698 5.98994C66.4998 5.99994 66.5198 6.01994 66.5498 6.02994C67.3898 5.46994 68.4898 5.34994 69.4798 5.79994L69.4698 5.81994Z" fill="#FFF3D9"/>
<path d="M63.9499 5.81989C64.7899 5.50989 65.6899 5.54989 66.4999 5.91989C66.5099 5.91989 66.5199 5.91989 66.5299 5.93989C67.4299 5.36989 68.5399 5.28989 69.4999 5.73989C70.7499 6.31989 71.4699 7.65989 71.2799 9.00989C72.3099 9.91989 72.6299 11.3999 72.0599 12.6499C71.8599 13.0899 71.5599 13.4699 71.1699 13.7799C71.1899 14.2699 71.0899 14.7399 70.8899 15.1899C70.3099 16.4399 68.9699 17.1599 67.6199 16.9699C66.7099 17.9999 65.2299 18.3199 63.9799 17.7499C62.9299 17.2699 62.2399 16.2499 62.1799 15.0999C60.5799 14.2999 59.8799 12.3499 60.6399 10.7099C60.8999 10.1599 61.2999 9.67989 61.8099 9.33989C61.7399 8.72989 61.8399 8.11989 62.0899 7.55989C62.3299 7.02989 62.6999 6.58989 63.1599 6.24989C63.3999 6.06989 63.6799 5.92989 63.9699 5.81989H63.9499ZM61.9499 9.45989C61.4399 9.78989 61.0499 10.2399 60.7999 10.7799C60.0799 12.3299 60.7599 14.1999 62.2999 14.9299L62.3499 14.9599V15.0199C62.3899 16.1299 63.0399 17.0999 64.0399 17.5599C65.2299 18.1099 66.6399 17.7899 67.4899 16.7899L67.5299 16.7499H67.5899C68.8799 16.9699 70.1599 16.2899 70.7099 15.0999C70.9099 14.6699 70.9999 14.2099 70.9699 13.7299V13.6799L71.0099 13.6499C71.3899 13.3599 71.6799 12.9899 71.8799 12.5599C72.4299 11.3699 72.1099 9.95989 71.1099 9.10989L71.0699 9.06989V9.00989C71.2899 7.71989 70.6099 6.43989 69.4199 5.88989C68.4999 5.46989 67.4399 5.54989 66.5899 6.10989L66.5399 6.13989L66.4499 6.08989C66.4499 6.08989 66.4299 6.07989 66.4099 6.06989C65.6499 5.71989 64.7899 5.67989 64.0099 5.97989C63.2199 6.26989 62.5999 6.84989 62.2399 7.60989C61.9899 8.14989 61.8999 8.74989 61.9799 9.33989V9.39989L61.9399 9.42989L61.9499 9.45989Z" fill="#FFE4CC"/>
<path d="M66.4899 8.81988C67.4699 9.37988 67.8799 10.5999 67.3999 11.6399C66.9199 12.6799 65.7499 13.1499 64.6999 12.7899C64.2499 13.2799 63.5199 13.4499 62.8899 13.1499C62.0999 12.7899 61.7499 11.8499 62.1199 11.0599C62.2299 10.8199 62.3899 10.6299 62.5899 10.4799C62.5899 10.1499 62.6399 9.81988 62.7799 9.50988C62.9199 9.20988 63.1099 8.96988 63.3399 8.76988C63.3399 8.54988 63.3799 8.31988 63.4799 8.09988C63.8399 7.30988 64.7799 6.95988 65.5699 7.32988C66.1699 7.60988 66.5099 8.20988 66.4799 8.82988L66.4899 8.81988Z" fill="#FFD37B"/>
<path d="M69.1993 15.0508C69.6468 14.608 69.5876 13.8225 69.0671 13.2965C68.5465 12.7705 67.7617 12.703 67.3142 13.1459C66.8667 13.5887 66.9259 14.3742 67.4465 14.9002C67.967 15.4263 68.7518 15.4937 69.1993 15.0508Z" fill="#FFD37B"/>
<path d="M65.2389 16.3966C65.8541 16.2625 66.225 15.5676 66.0673 14.8445C65.9097 14.1215 65.2832 13.644 64.668 13.7781C64.0529 13.9123 63.682 14.6072 63.8397 15.3302C63.9973 16.0533 64.6238 16.5307 65.2389 16.3966Z" fill="#FFD37B"/>
<path d="M71.0789 10.9783C71.1252 10.3504 70.5645 9.79722 69.8264 9.74276C69.0884 9.6883 68.4525 10.1532 68.4062 10.7811C68.3598 11.409 68.9206 11.9621 69.6586 12.0166C70.3967 12.071 71.0326 11.6062 71.0789 10.9783Z" fill="#FFD37B"/>
<path d="M75.25 17.2603C76.64 17.2803 77.79 18.2303 78.12 19.5103C79.39 19.8803 80.31 21.0603 80.29 22.4503C80.29 22.9503 80.15 23.4303 79.93 23.8403C80.14 24.2603 80.26 24.7403 80.25 25.2403C80.23 26.6303 79.28 27.7803 78 28.1103C77.63 29.3803 76.45 30.3003 75.06 30.2803C73.89 30.2603 72.88 29.5703 72.4 28.5903C70.63 28.5403 69.22 27.0803 69.25 25.3003C69.25 24.6603 69.46 24.0703 69.78 23.5803C69.47 23.0703 69.29 22.4803 69.3 21.8403C69.33 20.0503 70.8 18.6203 72.59 18.6503C72.62 18.6503 72.65 18.6503 72.68 18.6503C73.22 17.8003 74.18 17.2403 75.26 17.2603H75.25Z" fill="#FFF3D9"/>
<path d="M70.2099 19.4903C70.8499 18.8703 71.6899 18.5303 72.5899 18.5503C72.5999 18.5503 72.6099 18.5503 72.6199 18.5503C73.2099 17.6603 74.1899 17.1503 75.2599 17.1603C76.6399 17.1803 77.8399 18.1103 78.2099 19.4303C79.5199 19.8403 80.4199 21.0703 80.3899 22.4503C80.3899 22.9403 80.2599 23.4103 80.0399 23.8403C80.2499 24.2803 80.3599 24.7503 80.3499 25.2403C80.3299 26.6203 79.3999 27.8203 78.0799 28.1903C77.6699 29.5003 76.4399 30.4003 75.0599 30.3803C73.8999 30.3603 72.8599 29.7203 72.3399 28.6903C70.5499 28.6103 69.1199 27.1003 69.1499 25.3103C69.1499 24.7003 69.3399 24.1103 69.6599 23.5903C69.3499 23.0603 69.1899 22.4603 69.1999 21.8503C69.1999 21.2703 69.3599 20.7103 69.6499 20.2203C69.7999 19.9603 69.9899 19.7203 70.2099 19.5003V19.4903ZM69.8499 23.6303C69.5199 24.1303 69.3399 24.7103 69.3399 25.3003C69.3099 27.0103 70.6899 28.4403 72.3999 28.4903H72.4599L72.4899 28.5503C72.9799 29.5403 73.9599 30.1703 75.0599 30.1903C76.3599 30.2103 77.5299 29.3503 77.8999 28.0903L77.9199 28.0403H77.9699C79.2299 27.7003 80.1299 26.5603 80.1499 25.2503C80.1499 24.7803 80.0499 24.3203 79.8399 23.9003L79.8199 23.8503L79.8399 23.8003C80.0699 23.3803 80.1899 22.9303 80.1899 22.4603C80.2099 21.1503 79.3499 19.9903 78.0899 19.6203L78.0399 19.6003V19.5503C77.6999 18.2903 76.5499 17.3903 75.2499 17.3703C74.2399 17.3503 73.2999 17.8603 72.7499 18.7203L72.7199 18.7703H72.6199C72.6199 18.7703 72.5899 18.7703 72.5799 18.7703C71.7399 18.7603 70.9499 19.0703 70.3499 19.6603C69.7499 20.2403 69.4099 21.0303 69.3999 21.8703C69.3999 22.4603 69.5499 23.0503 69.8599 23.5603L69.8899 23.6103L69.8599 23.6603L69.8499 23.6303Z" fill="#FFE4CC"/>
<path d="M73.7499 21.2001C74.8699 21.3101 75.7399 22.2601 75.7299 23.4101C75.7199 24.5601 74.8299 25.4601 73.7199 25.5501C73.4999 26.1801 72.9099 26.6301 72.2099 26.6201C71.3399 26.6101 70.6399 25.8901 70.6599 25.0201C70.6599 24.7601 70.7399 24.5201 70.8499 24.3001C70.7099 24.0101 70.6299 23.6801 70.6299 23.3301C70.6299 23.0001 70.7099 22.7001 70.8499 22.4201C70.7599 22.2201 70.6999 21.9901 70.7099 21.7501C70.7199 20.8801 71.4399 20.1801 72.3099 20.2001C72.9699 20.2001 73.5299 20.6201 73.7499 21.2001Z" fill="#FFD37B"/>
<path d="M78.7505 25.7973C78.9803 25.2111 78.6079 24.517 77.9189 24.247C77.2299 23.977 76.485 24.2333 76.2553 24.8195C76.0256 25.4057 76.3979 26.0998 77.087 26.3698C77.776 26.6398 78.5208 26.3835 78.7505 25.7973Z" fill="#FFD37B"/>
<path d="M75.6595 28.6349C76.1676 28.263 76.2251 27.4775 75.788 26.8803C75.3509 26.2831 74.5847 26.1004 74.0767 26.4722C73.5686 26.8441 73.5111 27.6296 73.9481 28.2268C74.3852 28.824 75.1514 29.0067 75.6595 28.6349Z" fill="#FFD37B"/>
<path d="M77.9346 22.8417C78.6314 22.5923 79.0243 21.9096 78.8122 21.3169C78.6001 20.7241 77.8632 20.4456 77.1664 20.695C76.4696 20.9443 76.0768 21.627 76.2889 22.2198C76.501 22.8126 77.2379 23.091 77.9346 22.8417Z" fill="#FFD37B"/>
<path d="M75.8527 20.0683C76.3074 19.4844 76.2733 18.6974 75.7766 18.3106C75.2798 17.9238 74.5085 18.0835 74.0538 18.6674C73.5991 19.2513 73.6332 20.0382 74.1299 20.4251C74.6266 20.8119 75.398 20.6522 75.8527 20.0683Z" fill="#FFD37B"/>
<path d="M93.5601 16.09C94.8201 16.67 95.4801 18.01 95.2701 19.31C96.2801 20.16 96.6401 21.61 96.0601 22.87C95.8501 23.33 95.5401 23.71 95.1601 23.99C95.1801 24.46 95.1001 24.94 94.8901 25.4C94.3101 26.66 92.9701 27.32 91.6701 27.11C90.8201 28.12 89.3701 28.48 88.1101 27.9C87.0401 27.41 86.4001 26.37 86.3601 25.27C84.7601 24.51 84.0701 22.6 84.8101 20.99C85.0801 20.41 85.5001 19.95 85.9901 19.63C85.9101 19.04 85.9901 18.42 86.2601 17.85C87.0101 16.23 88.9301 15.52 90.5601 16.26C90.5901 16.27 90.6101 16.29 90.6401 16.3C91.4801 15.74 92.5801 15.62 93.5701 16.07L93.5601 16.09Z" fill="#FFF3D9"/>
<path d="M88.0403 16.0801C88.8803 15.7701 89.7803 15.8101 90.5903 16.1801C90.6003 16.1801 90.6103 16.1801 90.6203 16.2001C91.5203 15.6301 92.6303 15.5501 93.5903 16.0001C94.8403 16.5801 95.5603 17.9201 95.3703 19.2701C96.4003 20.1801 96.7203 21.6601 96.1503 22.9101C95.9503 23.3501 95.6503 23.7301 95.2603 24.0401C95.2803 24.5301 95.1803 25.0001 94.9803 25.4501C94.4003 26.7001 93.0603 27.4201 91.7103 27.2301C90.8003 28.2601 89.3203 28.5801 88.0703 28.0101C87.0203 27.5301 86.3303 26.5101 86.2703 25.3601C84.6703 24.5601 83.9703 22.6101 84.7303 20.9701C84.9903 20.4201 85.3903 19.9401 85.9003 19.6001C85.8303 18.9901 85.9303 18.3801 86.1803 17.8201C86.4203 17.2901 86.7903 16.8501 87.2503 16.5101C87.4903 16.3301 87.7703 16.1901 88.0603 16.0801H88.0403ZM86.0403 19.7301C85.5303 20.0601 85.1403 20.5101 84.8903 21.0501C84.1703 22.6001 84.8503 24.4701 86.3903 25.2001L86.4403 25.2301V25.2901C86.4803 26.4001 87.1303 27.3701 88.1303 27.8301C89.3203 28.3801 90.7303 28.0601 91.5803 27.0601L91.6203 27.0201H91.6803C92.9703 27.2401 94.2503 26.5601 94.8003 25.3701C95.0003 24.9401 95.0903 24.4801 95.0603 24.0001V23.9501L95.1003 23.9201C95.4803 23.6301 95.7703 23.2601 95.9703 22.8301C96.5203 21.6401 96.2003 20.2301 95.2003 19.3801L95.1603 19.3401V19.2801C95.3803 17.9901 94.7003 16.7101 93.5103 16.1601C92.5903 15.7401 91.5303 15.8201 90.6803 16.3801L90.6303 16.4101L90.5403 16.3601C90.5403 16.3601 90.5203 16.3501 90.5003 16.3401C89.7403 15.9901 88.8803 15.9501 88.1003 16.2501C87.3103 16.5401 86.6903 17.1201 86.3303 17.8801C86.0803 18.4201 85.9903 19.0201 86.0703 19.6101V19.6701L86.0303 19.7001L86.0403 19.7301Z" fill="#FFE4CC"/>
<path d="M90.5803 19.0899C91.5603 19.6499 91.9702 20.8699 91.4902 21.9099C91.0102 22.9499 89.8403 23.4199 88.7903 23.0599C88.3403 23.5499 87.6103 23.7199 86.9803 23.4199C86.1903 23.0599 85.8402 22.1199 86.2102 21.3299C86.3202 21.0899 86.4803 20.8999 86.6803 20.7499C86.6803 20.4199 86.7303 20.0899 86.8703 19.7799C87.0103 19.4799 87.2003 19.2399 87.4303 19.0399C87.4303 18.8199 87.4703 18.5899 87.5703 18.3699C87.9303 17.5799 88.8703 17.2299 89.6603 17.5999C90.2603 17.8799 90.6003 18.4799 90.5703 19.0999L90.5803 19.0899Z" fill="#FFD37B"/>
<path d="M93.2896 25.3091C93.7372 24.8663 93.678 24.0808 93.1574 23.5548C92.6369 23.0288 91.8521 22.9613 91.4045 23.4042C90.957 23.847 91.0162 24.6325 91.5368 25.1585C92.0573 25.6846 92.8421 25.752 93.2896 25.3091Z" fill="#FFD37B"/>
<path d="M89.322 26.6491C89.9371 26.5149 90.308 25.82 90.1503 25.097C89.9927 24.3739 89.3662 23.8965 88.751 24.0306C88.1359 24.1647 87.765 24.8596 87.9227 25.5827C88.0803 26.3058 88.7068 26.7832 89.322 26.6491Z" fill="#FFD37B"/>
<path d="M95.1638 21.2488C95.2102 20.6209 94.6494 20.0677 93.9114 20.0133C93.1733 19.9588 92.5374 20.4237 92.4911 21.0516C92.4448 21.6795 93.0055 22.2326 93.7436 22.2871C94.4816 22.3415 95.1175 21.8767 95.1638 21.2488Z" fill="#FFD37B"/>
<path d="M92.9622 18.9029C93.6145 18.5533 93.9022 17.82 93.6047 17.2651C93.3073 16.7102 92.5374 16.5438 91.8852 16.8934C91.2329 17.243 90.9452 17.9762 91.2426 18.5311C91.5401 19.0861 92.3099 19.2525 92.9622 18.9029Z" fill="#FFD37B"/>
<path d="M99.3403 27.52C100.73 27.54 101.88 28.4901 102.21 29.7701C103.48 30.14 104.4 31.32 104.38 32.71C104.38 33.21 104.24 33.69 104.02 34.1C104.23 34.52 104.35 35 104.34 35.5C104.32 36.89 103.37 38.04 102.09 38.37C101.72 39.64 100.54 40.5601 99.1503 40.5401C97.9803 40.5201 96.9703 39.83 96.4903 38.85C94.7203 38.8 93.3103 37.3401 93.3403 35.5601C93.3403 34.9201 93.5503 34.33 93.8703 33.84C93.5603 33.33 93.3803 32.74 93.3903 32.1C93.4203 30.31 94.8903 28.88 96.6803 28.91C96.7103 28.91 96.7403 28.91 96.7703 28.91C97.3103 28.06 98.2703 27.5 99.3503 27.52H99.3403Z" fill="#FFF3D9"/>
<path d="M94.3002 29.7501C94.9402 29.1301 95.7802 28.7901 96.6802 28.8101C96.6902 28.8101 96.7002 28.8101 96.7102 28.8101C97.3002 27.9201 98.2802 27.4101 99.3502 27.4201C100.73 27.4401 101.93 28.3701 102.3 29.6901C103.61 30.1001 104.51 31.3301 104.48 32.7101C104.48 33.2001 104.35 33.6701 104.13 34.1001C104.34 34.5401 104.45 35.0101 104.44 35.5001C104.42 36.8801 103.49 38.0801 102.17 38.4501C101.76 39.7601 100.53 40.6601 99.1502 40.6401C97.9902 40.6201 96.9502 39.9801 96.4302 38.9501C94.6402 38.8701 93.2102 37.3601 93.2402 35.5701C93.2402 34.9601 93.4302 34.3701 93.7502 33.8501C93.4402 33.3201 93.2802 32.7201 93.2902 32.1101C93.2902 31.5301 93.4502 30.9701 93.7402 30.4801C93.8902 30.2201 94.0802 29.9801 94.3002 29.7601V29.7501ZM93.9402 33.8901C93.6102 34.3901 93.4302 34.9701 93.4302 35.5601C93.4002 37.2701 94.7802 38.7001 96.4902 38.7501H96.5502L96.5802 38.8101C97.0702 39.8001 98.0502 40.4301 99.1502 40.4501C100.45 40.4701 101.62 39.6101 101.99 38.3501L102.01 38.3001H102.06C103.32 37.9601 104.22 36.8201 104.24 35.5101C104.24 35.0401 104.14 34.5801 103.93 34.1601L103.91 34.1101L103.93 34.0601C104.16 33.6401 104.28 33.1901 104.28 32.7201C104.3 31.4101 103.44 30.2501 102.18 29.8801L102.13 29.8601V29.8101C101.79 28.5501 100.64 27.6501 99.3402 27.6301C98.3302 27.6101 97.3902 28.1201 96.8402 28.9801L96.8102 29.0301H96.7102C96.7102 29.0301 96.6802 29.0301 96.6702 29.0301C95.8302 29.0201 95.0402 29.3301 94.4402 29.9201C93.8402 30.5001 93.5002 31.2901 93.4902 32.1301C93.4902 32.7201 93.6402 33.3101 93.9502 33.8201L93.9802 33.8701L93.9502 33.9201L93.9402 33.8901Z" fill="#FFE4CC"/>
<path d="M97.8402 31.4701C98.9602 31.5801 99.8302 32.5301 99.8202 33.6801C99.8002 34.8201 98.9202 35.7301 97.8102 35.8201C97.5902 36.4501 97.0002 36.9001 96.3002 36.8901C95.4302 36.8801 94.7302 36.1601 94.7502 35.2901C94.7502 35.0301 94.8302 34.7901 94.9402 34.5701C94.8002 34.2801 94.7202 33.9501 94.7202 33.6001C94.7202 33.2701 94.8002 32.9701 94.9402 32.6901C94.8502 32.4901 94.7902 32.2601 94.8002 32.0201C94.8102 31.1501 95.5302 30.4501 96.4002 30.4701C97.0602 30.4701 97.6202 30.8901 97.8402 31.4701Z" fill="#FFD37B"/>
<path d="M102.843 36.0615C103.073 35.4753 102.701 34.7812 102.012 34.5111C101.323 34.2411 100.578 34.4974 100.348 35.0836C100.118 35.6698 100.491 36.3639 101.18 36.634C101.869 36.904 102.614 36.6477 102.843 36.0615Z" fill="#FFD37B"/>
<path d="M99.7552 38.9044C100.263 38.5326 100.321 37.747 99.8837 37.1498C99.4466 36.5526 98.6804 36.3699 98.1724 36.7417C97.6643 37.1136 97.6068 37.8992 98.0439 38.4964C98.4809 39.0936 99.2471 39.2763 99.7552 38.9044Z" fill="#FFD37B"/>
<path d="M102.023 33.0951C102.72 32.8458 103.113 32.1631 102.901 31.5703C102.689 30.9775 101.952 30.6991 101.255 30.9484C100.558 31.1978 100.165 31.8805 100.378 32.4732C100.59 33.066 101.326 33.3445 102.023 33.0951Z" fill="#FFD37B"/>
<path d="M99.9396 30.3256C100.394 29.7417 100.36 28.9548 99.8635 28.5679C99.3667 28.1811 98.5954 28.3408 98.1407 28.9247C97.686 29.5086 97.7201 30.2955 98.2168 30.6824C98.7136 31.0692 99.4849 30.9095 99.9396 30.3256Z" fill="#FFD37B"/>
<path d="M117.65 26.3497C118.91 26.9297 119.57 28.2697 119.36 29.5697C120.37 30.4197 120.73 31.8697 120.15 33.1297C119.94 33.5897 119.63 33.9697 119.25 34.2497C119.27 34.7197 119.19 35.1997 118.98 35.6597C118.4 36.9197 117.06 37.5797 115.76 37.3697C114.91 38.3797 113.46 38.7397 112.2 38.1597C111.13 37.6697 110.49 36.6297 110.45 35.5297C108.85 34.7697 108.16 32.8597 108.9 31.2497C109.17 30.6697 109.59 30.2097 110.08 29.8897C110 29.2997 110.08 28.6797 110.35 28.1097C111.1 26.4897 113.02 25.7797 114.65 26.5197C114.68 26.5297 114.7 26.5497 114.73 26.5597C115.57 25.9997 116.67 25.8797 117.66 26.3297L117.65 26.3497Z" fill="#FFF3D9"/>
<path d="M112.13 26.3399C112.97 26.0299 113.87 26.0699 114.68 26.4399C114.69 26.4399 114.7 26.4399 114.71 26.4599C115.61 25.8899 116.72 25.8099 117.68 26.2599C118.93 26.8399 119.65 28.1799 119.46 29.5299C120.49 30.4399 120.81 31.9199 120.24 33.1699C120.04 33.6099 119.74 33.9899 119.35 34.2999C119.37 34.7899 119.27 35.2599 119.07 35.7099C118.49 36.9599 117.15 37.6799 115.8 37.4899C114.89 38.5199 113.41 38.8399 112.16 38.2699C111.11 37.7899 110.42 36.7699 110.36 35.6199C108.76 34.8199 108.06 32.8699 108.82 31.2299C109.08 30.6799 109.48 30.1999 109.99 29.8599C109.92 29.2499 110.02 28.6399 110.27 28.0799C110.51 27.5499 110.88 27.1099 111.34 26.7699C111.58 26.5899 111.86 26.4499 112.15 26.3399H112.13ZM110.13 29.9899C109.62 30.3199 109.23 30.7699 108.98 31.3099C108.26 32.8599 108.94 34.7299 110.48 35.4599L110.53 35.4899V35.5499C110.57 36.6599 111.22 37.6299 112.22 38.0899C113.41 38.6399 114.82 38.3199 115.67 37.3199L115.71 37.2799H115.77C117.06 37.4999 118.34 36.8199 118.89 35.6299C119.09 35.1999 119.18 34.7399 119.15 34.2599V34.2099L119.19 34.1799C119.57 33.8899 119.86 33.5199 120.06 33.0899C120.61 31.8999 120.29 30.4899 119.29 29.6399L119.25 29.5999V29.5399C119.47 28.2499 118.79 26.9699 117.6 26.4199C116.68 25.9999 115.62 26.0799 114.77 26.6399L114.72 26.6699L114.63 26.6199C114.63 26.6199 114.61 26.6099 114.59 26.5999C113.83 26.2499 112.97 26.2099 112.19 26.5099C111.4 26.7999 110.78 27.3799 110.42 28.1399C110.17 28.6799 110.08 29.2799 110.16 29.8699V29.9299L110.12 29.9599L110.13 29.9899Z" fill="#FFE4CC"/>
<path d="M114.67 29.3497C115.65 29.9097 116.06 31.1297 115.58 32.1697C115.1 33.1997 113.93 33.6797 112.88 33.3197C112.43 33.8097 111.7 33.9797 111.07 33.6797C110.28 33.3197 109.93 32.3797 110.3 31.5897C110.41 31.3497 110.57 31.1597 110.77 31.0097C110.77 30.6797 110.82 30.3497 110.96 30.0397C111.1 29.7397 111.29 29.4997 111.52 29.2997C111.52 29.0797 111.56 28.8497 111.66 28.6297C112.02 27.8397 112.96 27.4897 113.75 27.8597C114.35 28.1397 114.69 28.7397 114.66 29.3597L114.67 29.3497Z" fill="#FFD37B"/>
<path d="M117.38 35.5772C117.827 35.1343 117.768 34.3489 117.247 33.8229C116.727 33.2968 115.942 33.2294 115.495 33.6723C115.047 34.1151 115.106 34.9006 115.627 35.4266C116.147 35.9526 116.932 36.0201 117.38 35.5772Z" fill="#FFD37B"/>
<path d="M113.415 36.9118C114.03 36.7776 114.401 36.0827 114.243 35.3597C114.085 34.6366 113.459 34.1592 112.844 34.2933C112.229 34.4274 111.858 35.1223 112.015 35.8454C112.173 36.5684 112.8 37.0459 113.415 36.9118Z" fill="#FFD37B"/>
<path d="M119.269 31.5095C119.315 30.8816 118.754 30.3285 118.016 30.274C117.278 30.2195 116.642 30.6844 116.596 31.3123C116.55 31.9402 117.11 32.4934 117.848 32.5478C118.586 32.6023 119.222 32.1374 119.269 31.5095Z" fill="#FFD37B"/>
<path d="M117.042 29.1554C117.694 28.8058 117.982 28.0725 117.684 27.5176C117.387 26.9626 116.617 26.7962 115.965 27.1458C115.312 27.4954 115.025 28.2287 115.322 28.7836C115.619 29.3385 116.389 29.505 117.042 29.1554Z" fill="#FFD37B"/>
<path d="M123.43 37.7803C124.82 37.8003 125.97 38.7503 126.3 40.0303C127.57 40.4003 128.49 41.5803 128.47 42.9703C128.47 43.4703 128.33 43.9503 128.11 44.3603C128.32 44.7803 128.44 45.2603 128.43 45.7603C128.41 47.1503 127.46 48.3003 126.18 48.6303C125.81 49.9003 124.63 50.8203 123.24 50.8003C122.07 50.7803 121.06 50.0903 120.58 49.1103C118.81 49.0603 117.4 47.6003 117.43 45.8203C117.43 45.1803 117.64 44.5903 117.96 44.1003C117.65 43.5903 117.47 43.0003 117.48 42.3603C117.51 40.5703 118.98 39.1403 120.77 39.1703C120.8 39.1703 120.83 39.1703 120.86 39.1703C121.4 38.3203 122.36 37.7603 123.44 37.7803H123.43Z" fill="#FFF3D9"/>
<path d="M118.39 40.0103C119.03 39.3903 119.87 39.0503 120.77 39.0703C120.78 39.0703 120.79 39.0703 120.8 39.0703C121.39 38.1803 122.37 37.6703 123.44 37.6803C124.82 37.7003 126.02 38.6303 126.39 39.9503C127.7 40.3603 128.6 41.5903 128.57 42.9703C128.57 43.4603 128.44 43.9303 128.22 44.3603C128.43 44.8003 128.54 45.2703 128.53 45.7603C128.51 47.1403 127.58 48.3403 126.26 48.7103C125.85 50.0203 124.62 50.9203 123.24 50.9003C122.08 50.8803 121.04 50.2403 120.52 49.2103C118.73 49.1303 117.3 47.6203 117.33 45.8303C117.33 45.2203 117.52 44.6303 117.84 44.1103C117.53 43.5803 117.37 42.9803 117.38 42.3703C117.38 41.7903 117.54 41.2303 117.83 40.7403C117.98 40.4803 118.17 40.2403 118.39 40.0203V40.0103ZM118.03 44.1503C117.7 44.6503 117.52 45.2303 117.52 45.8203C117.49 47.5303 118.87 48.9603 120.58 49.0103H120.64L120.67 49.0703C121.16 50.0603 122.14 50.6903 123.24 50.7103C124.54 50.7303 125.71 49.8703 126.08 48.6103L126.1 48.5603H126.15C127.41 48.2203 128.31 47.0803 128.33 45.7703C128.33 45.3003 128.23 44.8403 128.02 44.4203L128 44.3703L128.02 44.3203C128.25 43.9003 128.37 43.4503 128.37 42.9803C128.39 41.6703 127.53 40.5103 126.27 40.1403L126.22 40.1203V40.0703C125.88 38.8103 124.73 37.9103 123.43 37.8903C122.42 37.8703 121.48 38.3803 120.93 39.2403L120.9 39.2903H120.8C120.8 39.2903 120.77 39.2903 120.76 39.2903C119.92 39.2803 119.13 39.5903 118.53 40.1803C117.93 40.7603 117.59 41.5503 117.58 42.3903C117.58 42.9803 117.73 43.5703 118.04 44.0803L118.07 44.1303L118.04 44.1803L118.03 44.1503Z" fill="#FFE4CC"/>
<path d="M121.93 41.7304C123.05 41.8404 123.92 42.7904 123.91 43.9404C123.89 45.0804 123.01 45.9904 121.9 46.0804C121.68 46.7104 121.09 47.1604 120.39 47.1504C119.52 47.1404 118.82 46.4204 118.84 45.5504C118.84 45.2904 118.92 45.0504 119.03 44.8304C118.89 44.5404 118.81 44.2104 118.81 43.8604C118.81 43.5304 118.89 43.2304 119.03 42.9504C118.94 42.7504 118.88 42.5204 118.89 42.2804C118.9 41.4104 119.62 40.7104 120.49 40.7304C121.15 40.7304 121.71 41.1504 121.93 41.7304Z" fill="#FFD37B"/>
<path d="M126.926 46.3266C127.155 45.7404 126.783 45.0463 126.094 44.7763C125.405 44.5063 124.66 44.7626 124.43 45.3488C124.201 45.935 124.573 46.6291 125.262 46.8991C125.951 47.1691 126.696 46.9128 126.926 46.3266Z" fill="#FFD37B"/>
<path d="M123.844 49.1661C124.352 48.7943 124.41 48.0087 123.973 47.4115C123.536 46.8143 122.77 46.6316 122.261 47.0035C121.753 47.3753 121.696 48.1609 122.133 48.7581C122.57 49.3553 123.336 49.538 123.844 49.1661Z" fill="#FFD37B"/>
<path d="M126.111 43.3588C126.808 43.1094 127.201 42.4267 126.989 41.8339C126.777 41.2412 126.04 40.9627 125.343 41.2121C124.646 41.4614 124.254 42.1441 124.466 42.7369C124.678 43.3297 125.415 43.6081 126.111 43.3588Z" fill="#FFD37B"/>
<path d="M124.034 40.5995C124.488 40.0156 124.454 39.2287 123.957 38.8418C123.461 38.455 122.689 38.6147 122.235 39.1986C121.78 39.7825 121.814 40.5695 122.311 40.9563C122.808 41.3431 123.579 41.1834 124.034 40.5995Z" fill="#FFD37B"/>
<path d="M141.74 36.61C143 37.19 143.66 38.53 143.45 39.83C144.46 40.68 144.82 42.13 144.24 43.39C144.03 43.85 143.72 44.23 143.34 44.51C143.36 44.98 143.28 45.46 143.07 45.92C142.49 47.18 141.15 47.84 139.85 47.63C139 48.64 137.55 49 136.29 48.42C135.22 47.93 134.58 46.89 134.54 45.79C132.94 45.03 132.25 43.12 132.99 41.51C133.26 40.93 133.68 40.47 134.17 40.15C134.09 39.56 134.17 38.94 134.44 38.37C135.19 36.75 137.11 36.04 138.74 36.78C138.77 36.79 138.79 36.81 138.82 36.82C139.66 36.26 140.76 36.14 141.75 36.59L141.74 36.61Z" fill="#FFF3D9"/>
<path d="M136.22 36.6099C137.06 36.2999 137.96 36.3399 138.77 36.7099C138.78 36.7099 138.79 36.7099 138.8 36.7299C139.7 36.1599 140.81 36.0799 141.77 36.5299C143.02 37.1099 143.74 38.4499 143.55 39.7999C144.58 40.7099 144.9 42.1899 144.33 43.4399C144.13 43.8799 143.83 44.2599 143.44 44.5699C143.46 45.0599 143.36 45.5299 143.16 45.9799C142.58 47.2299 141.24 47.9499 139.89 47.7599C138.98 48.7899 137.5 49.1099 136.25 48.5399C135.2 48.0599 134.51 47.0399 134.45 45.8899C132.85 45.0899 132.15 43.1399 132.91 41.4999C133.17 40.9499 133.57 40.4699 134.08 40.1299C134.01 39.5199 134.11 38.9099 134.36 38.3499C134.6 37.8199 134.97 37.3799 135.43 37.0399C135.67 36.8599 135.95 36.7199 136.24 36.6099H136.22ZM134.22 40.2499C133.71 40.5799 133.32 41.0299 133.07 41.5699C132.35 43.1199 133.03 44.9899 134.57 45.7199L134.62 45.7499V45.8099C134.66 46.9199 135.31 47.8899 136.31 48.3499C137.5 48.8999 138.91 48.5799 139.76 47.5799L139.8 47.5399H139.86C141.15 47.7599 142.43 47.0799 142.98 45.8899C143.18 45.4599 143.27 44.9999 143.24 44.5199V44.4699L143.28 44.4399C143.66 44.1499 143.95 43.7799 144.15 43.3499C144.7 42.1599 144.38 40.7499 143.38 39.8999L143.34 39.8599V39.7999C143.56 38.5099 142.88 37.2299 141.69 36.6799C140.77 36.2599 139.71 36.3399 138.86 36.8999L138.81 36.9299L138.72 36.8799C138.72 36.8799 138.7 36.8699 138.68 36.8599C137.92 36.5099 137.06 36.4699 136.28 36.7699C135.49 37.0599 134.87 37.6399 134.51 38.3999C134.26 38.9399 134.17 39.5399 134.25 40.1299V40.1899L134.21 40.2199L134.22 40.2499Z" fill="#FFE4CC"/>
<path d="M138.76 39.6099C139.74 40.1699 140.15 41.3899 139.67 42.4299C139.19 43.4699 138.02 43.9399 136.97 43.5799C136.52 44.0699 135.79 44.2399 135.16 43.9399C134.37 43.5799 134.02 42.6399 134.39 41.8499C134.5 41.6099 134.66 41.4199 134.86 41.2699C134.86 40.9399 134.91 40.6099 135.05 40.2999C135.19 39.9999 135.38 39.7599 135.61 39.5599C135.61 39.3399 135.65 39.1099 135.75 38.8899C136.11 38.0999 137.05 37.7499 137.84 38.1199C138.44 38.3999 138.78 38.9999 138.75 39.6199L138.76 39.6099Z" fill="#FFD37B"/>
<path d="M137.51 47.174C138.125 47.0398 138.496 46.3449 138.338 45.6219C138.18 44.8988 137.554 44.4214 136.939 44.5555C136.324 44.6896 135.953 45.3845 136.11 46.1076C136.268 46.8307 136.895 47.3081 137.51 47.174Z" fill="#FFD37B"/>
</g>
<path d="M48.7499 105.92C49.2414 105.92 49.6399 105.522 49.6399 105.03C49.6399 104.539 49.2414 104.14 48.7499 104.14C48.2583 104.14 47.8599 104.539 47.8599 105.03C47.8599 105.522 48.2583 105.92 48.7499 105.92Z" fill="#FFD37B"/>
<path d="M66.7699 21.4602C67.2614 21.4602 67.6599 21.0617 67.6599 20.5702C67.6599 20.0786 67.2614 19.6802 66.7699 19.6802C66.2783 19.6802 65.8799 20.0786 65.8799 20.5702C65.8799 21.0617 66.2783 21.4602 66.7699 21.4602Z" fill="#FFD37B"/>
<path d="M98.9901 25.03C99.4816 25.03 99.8801 24.6315 99.8801 24.14C99.8801 23.6485 99.4816 23.25 98.9901 23.25C98.4986 23.25 98.1001 23.6485 98.1001 24.14C98.1001 24.6315 98.4986 25.03 98.9901 25.03Z" fill="#FFD37B"/>
<path d="M80.6799 30.7901C81.0886 30.7901 81.4199 30.4587 81.4199 30.0501C81.4199 29.6414 81.0886 29.3101 80.6799 29.3101C80.2712 29.3101 79.9399 29.6414 79.9399 30.0501C79.9399 30.4587 80.2712 30.7901 80.6799 30.7901Z" fill="#FFF3D9"/>
<path d="M74.12 118.25C74.6115 118.25 75.01 117.852 75.01 117.36C75.01 116.869 74.6115 116.47 74.12 116.47C73.6284 116.47 73.23 116.869 73.23 117.36C73.23 117.852 73.6284 118.25 74.12 118.25Z" fill="#FFD37B"/>
<path d="M56.8998 120.98C57.2091 120.98 57.4598 120.729 57.4598 120.42C57.4598 120.111 57.2091 119.86 56.8998 119.86C56.5906 119.86 56.3398 120.111 56.3398 120.42C56.3398 120.729 56.5906 120.98 56.8998 120.98Z" fill="#FFF3D9"/>
</g>
<defs>
<clipPath id="clip0_1466_3591">
<rect width="148" height="148" fill="white"/>
</clipPath>
</defs>
</svg>
