<svg width="432" height="432" viewBox="0 0 432 432" fill="none" xmlns="http://www.w3.org/2000/svg">
<path d="M216 402.811C319.173 402.811 402.811 319.173 402.811 216C402.811 112.827 319.173 29.189 216 29.189C112.827 29.189 29.189 112.827 29.189 216C29.189 319.173 112.827 402.811 216 402.811Z" fill="#FFBB24" stroke="#FFBB24" stroke-miterlimit="10"/>
<mask id="mask0_1466_41125" style="mask-type:luminance" maskUnits="userSpaceOnUse" x="29" y="29" width="374" height="374">
<path d="M216 402.811C319.173 402.811 402.811 319.173 402.811 216C402.811 112.827 319.173 29.189 216 29.189C112.827 29.189 29.189 112.827 29.189 216C29.189 319.173 112.827 402.811 216 402.811Z" fill="white"/>
</mask>
<g mask="url(#mask0_1466_41125)">
<path d="M373.651 403.599C445.984 403.599 504.622 344.96 504.622 272.627C504.622 200.293 445.984 141.655 373.651 141.655C301.317 141.655 242.679 200.293 242.679 272.627C242.679 344.96 301.317 403.599 373.651 403.599Z" fill="white"/>
</g>
<mask id="mask1_1466_41125" style="mask-type:luminance" maskUnits="userSpaceOnUse" x="29" y="29" width="374" height="374">
<path d="M216 402.811C319.173 402.811 402.811 319.173 402.811 216C402.811 112.827 319.173 29.189 216 29.189C112.827 29.189 29.189 112.827 29.189 216C29.189 319.173 112.827 402.811 216 402.811Z" fill="white"/>
</mask>
<g mask="url(#mask1_1466_41125)">
<path d="M277.472 283.602L291.425 292.825C296.679 296.299 303.684 292.767 304.064 286.491L305.056 269.824C305.436 263.549 298.868 259.229 293.264 262.031L278.319 269.503C272.685 272.305 272.218 280.157 277.472 283.631V283.602Z" fill="#FFF3E1" stroke="#FFE8BB" stroke-width="0.42" stroke-miterlimit="10"/>
<path d="M285.149 279.72L293.585 285.295C295.599 286.609 298.284 285.295 298.43 282.872L299.043 272.773C299.189 270.379 296.679 268.716 294.519 269.796L285.47 274.32C283.31 275.4 283.135 278.406 285.149 279.72Z" fill="#FFD37B"/>
<path d="M311.711 209.899L311.886 223.822C311.974 230.711 319.505 234.943 325.43 231.412L337.427 224.289C343.352 220.758 343.265 212.147 337.223 208.761L325.051 201.931C319.038 198.545 311.624 202.952 311.711 209.841V209.899Z" fill="#FFF3E1" stroke="#FFE8BB" stroke-width="0.42" stroke-miterlimit="10"/>
<path d="M318.95 215.124L319.709 221.575C320.089 224.756 323.766 226.362 326.335 224.435L331.56 220.553C334.129 218.626 333.662 214.657 330.713 213.372L324.759 210.804C321.811 209.519 318.6 211.913 318.979 215.095L318.95 215.124Z" fill="#FFD37B"/>
<path d="M312.529 315.039C310.894 314.805 309.289 314.368 307.771 313.696C291.979 306.778 289.06 278.64 301.232 250.852C313.404 223.064 336.084 206.134 351.876 213.081C353.393 213.752 354.824 214.628 356.108 215.679C365.186 210.746 374.264 209.462 381.999 212.848C401.322 221.312 404.912 255.756 389.997 289.79C375.081 323.796 347.322 344.52 327.999 336.026C320.264 332.64 315.068 325.08 312.558 315.068L312.529 315.039Z" fill="#FFF3D9"/>
<mask id="mask2_1466_41125" style="mask-type:luminance" maskUnits="userSpaceOnUse" x="293" y="210" width="107" height="128">
<path d="M312.529 315.039C310.894 314.805 309.289 314.368 307.771 313.696C291.979 306.778 289.06 278.64 301.232 250.852C313.404 223.064 336.084 206.134 351.876 213.081C353.393 213.752 354.824 214.628 356.108 215.679C365.186 210.746 374.264 209.462 381.999 212.848C401.322 221.312 404.912 255.756 389.997 289.79C375.081 323.796 347.322 344.52 327.999 336.026C320.264 332.64 315.068 325.08 312.558 315.068L312.529 315.039Z" fill="white"/>
</mask>
<g mask="url(#mask2_1466_41125)">
<path opacity="0.8" d="M307.42 317.608C326.781 317.608 342.477 301.912 342.477 282.551C342.477 263.19 326.781 247.495 307.42 247.495C288.059 247.495 272.364 263.19 272.364 282.551C272.364 301.912 288.059 317.608 307.42 317.608Z" fill="#FFE7B3"/>
</g>
<path d="M341.42 267.537C342.068 266.06 342.102 264.648 341.497 264.383C340.891 264.117 339.876 265.099 339.228 266.575C338.581 268.052 338.547 269.464 339.152 269.729C339.757 269.995 340.773 269.013 341.42 267.537Z" fill="#060606"/>
<path d="M343.615 271.751C344.17 270.496 344.228 269.387 343.761 268.482C342.944 266.847 340.813 266.614 340.725 266.585C340.317 266.526 339.937 266.818 339.879 267.256C339.821 267.665 340.142 268.044 340.55 268.102C340.93 268.161 342.039 268.423 342.418 269.182C342.798 269.941 342.331 271.051 341.893 271.839C341.689 272.189 341.805 272.685 342.185 272.889C342.564 273.094 343.031 272.977 343.236 272.598C343.411 272.306 343.557 272.014 343.674 271.751H343.615Z" fill="#060606"/>
<path d="M346.184 266.351C346.3 266.088 346.417 265.796 346.505 265.475C346.621 265.067 346.417 264.629 346.008 264.512C345.6 264.395 345.162 264.6 345.045 265.008C344.782 265.884 344.286 266.964 343.469 267.197C342.681 267.431 341.718 266.818 341.426 266.555C341.105 266.293 340.608 266.322 340.346 266.643C340.054 266.964 340.112 267.431 340.404 267.723C340.462 267.781 342.097 269.182 343.848 268.686C344.812 268.394 345.6 267.635 346.154 266.38L346.184 266.351Z" fill="#060606"/>
<path d="M354.824 264.892C361.836 264.892 367.521 259.207 367.521 252.194C367.521 245.182 361.836 239.497 354.824 239.497C347.811 239.497 342.126 245.182 342.126 252.194C342.126 259.207 347.811 264.892 354.824 264.892Z" fill="#FFD37B"/>
<path d="M339.382 300.094C346.395 300.094 352.08 294.409 352.08 287.397C352.08 280.384 346.395 274.699 339.382 274.699C332.37 274.699 326.685 280.384 326.685 287.397C326.685 294.409 332.37 300.094 339.382 300.094Z" fill="#FFD37B"/>
<path d="M340.871 257.799C342.709 257.799 344.199 256.309 344.199 254.471C344.199 252.633 342.709 251.144 340.871 251.144C339.033 251.144 337.543 252.633 337.543 254.471C337.543 256.309 339.033 257.799 340.871 257.799Z" fill="#060606"/>
<path d="M331.297 279.632C333.135 279.632 334.625 278.142 334.625 276.305C334.625 274.467 333.135 272.977 331.297 272.977C329.46 272.977 327.97 274.467 327.97 276.305C327.97 278.142 329.46 279.632 331.297 279.632Z" fill="#060606"/>
<path d="M417.776 261.032C423.434 246.454 419.382 231.284 408.727 227.149C398.071 223.014 384.847 231.48 379.19 246.058C373.532 260.635 377.584 275.805 388.24 279.94C398.895 284.075 412.119 275.61 417.776 261.032Z" fill="#FFF3E1" stroke="#FFE8BB" stroke-width="0.42" stroke-miterlimit="10"/>
<path d="M382.673 328.147C388.331 313.569 384.279 298.4 373.623 294.264C362.968 290.129 349.744 298.595 344.087 313.173C338.429 327.751 342.481 342.921 353.137 347.056C363.792 351.191 377.016 342.725 382.673 328.147Z" fill="#FFF3E1" stroke="#FFE8BB" stroke-width="0.42" stroke-miterlimit="10"/>
<mask id="mask3_1466_41125" style="mask-type:luminance" maskUnits="userSpaceOnUse" x="377" y="226" width="44" height="56">
<path d="M418.351 261.243C424.008 246.666 419.957 231.496 409.301 227.361C398.646 223.226 385.422 231.691 379.764 246.269C374.107 260.847 378.159 276.017 388.814 280.152C399.47 284.287 412.694 275.821 418.351 261.243Z" fill="white"/>
</mask>
<g mask="url(#mask3_1466_41125)">
<path opacity="0.8" d="M411.626 274.524C425.973 274.524 437.604 262.893 437.604 248.546C437.604 234.198 425.973 222.567 411.626 222.567C397.278 222.567 385.647 234.198 385.647 248.546C385.647 262.893 397.278 274.524 411.626 274.524Z" fill="#FFDC8D"/>
</g>
</g>
<path d="M351.7 184.038C349.891 183.279 347.38 184.943 345.425 187.949C343.498 184.972 341.017 183.337 339.207 184.067C336.872 185.03 336.551 189.613 338.478 194.341C340.404 199.07 343.615 201.843 345.95 201.201C348.139 200.88 350.766 198.165 352.372 194.312C354.327 189.613 354.036 185.03 351.7 184.038Z" fill="#FFBB24"/>
<path d="M319.505 169.618C318.075 170.406 317.841 172.887 318.746 175.719C315.827 175.427 313.463 176.157 312.996 177.733C312.412 179.747 315.214 182.345 319.272 183.571C323.329 184.797 326.832 184.154 327.62 182.315C328.554 180.739 328.174 177.616 326.51 174.551C324.496 170.844 321.344 168.626 319.505 169.647V169.618Z" fill="#FFD37B"/>
<path d="M331.706 152.718C330.947 151.93 329.283 152.193 327.619 153.302C327.298 151.346 326.393 149.945 325.313 149.916C323.912 149.887 322.686 152.163 322.628 154.995C322.57 157.826 323.562 159.986 324.905 160.19C326.101 160.511 328.057 159.723 329.75 158.118C331.823 156.162 332.698 153.74 331.735 152.718H331.706Z" fill="#FFF3D9"/>
<path d="M390.259 201.552C391.077 201.289 392.098 202.135 392.799 203.507C393.762 202.311 394.9 201.698 395.659 202.106C396.623 202.632 396.564 204.616 395.542 206.572C394.521 208.528 393.003 209.608 392.011 209.228C391.077 208.995 390.055 207.71 389.53 205.959C388.887 203.828 389.208 201.873 390.259 201.552Z" fill="#FFBB24"/>
<path d="M380.481 160.745C381.152 160.219 382.407 160.628 383.575 161.65C384.042 160.19 384.888 159.198 385.735 159.314C386.815 159.431 387.486 161.329 387.224 163.518C386.961 165.707 385.939 167.254 384.888 167.254C383.925 167.371 382.524 166.553 381.386 165.123C380.014 163.372 379.605 161.416 380.481 160.745Z" fill="#FFD37B"/>
<path d="M386.319 190.751C386.581 189.934 387.866 189.584 389.384 189.817C388.975 188.329 389.121 187.044 389.909 186.665C390.901 186.169 392.478 187.395 393.47 189.38C394.433 191.277 394.463 193.203 393.558 193.787C392.828 194.4 391.193 194.488 389.471 193.904C387.37 193.203 385.969 191.773 386.319 190.751Z" fill="#FFD37B"/>
<path d="M386.436 173.121C387.282 173.121 388.041 174.172 388.362 175.69C389.617 174.785 390.873 174.522 391.485 175.106C392.274 175.865 391.69 177.791 390.172 179.368C388.654 180.944 386.903 181.586 386.056 180.973C385.21 180.506 384.597 178.988 384.538 177.178C384.48 174.96 385.327 173.15 386.436 173.121Z" fill="#FFBB24"/>
<path d="M329.196 347.03C329.634 347.76 330.918 347.848 332.406 347.351C332.29 348.898 332.698 350.124 333.516 350.329C334.566 350.621 335.909 349.103 336.493 346.972C337.077 344.841 336.697 343.031 335.734 342.623C334.888 342.156 333.282 342.389 331.706 343.294C329.779 344.403 328.67 346.067 329.225 347.03H329.196Z" fill="#FFBB24"/>
<path d="M294.169 370.119C294.285 370.965 295.482 371.52 297.029 371.578C296.358 372.95 296.299 374.264 297 374.76C297.876 375.402 299.656 374.497 300.97 372.717C302.283 370.936 302.604 369.097 301.816 368.397C301.203 367.667 299.598 367.287 297.817 367.579C295.628 367.9 293.993 369.068 294.169 370.148V370.119Z" fill="#FFD37B"/>
<path d="M318.95 352.197C318.6 352.985 319.271 354.094 320.556 354.97C319.242 355.758 318.483 356.809 318.775 357.626C319.155 358.648 321.139 358.852 323.212 358.093C325.284 357.334 326.539 355.962 326.306 354.941C326.189 353.978 325.051 352.81 323.416 352.051C321.402 351.117 319.388 351.205 318.95 352.197Z" fill="#FFD37B"/>
<path d="M306.982 365.157C307.595 365.769 308.88 365.478 310.164 364.602C310.456 366.12 311.186 367.171 312.061 367.171C313.171 367.171 314.046 365.361 314.017 363.142C313.988 360.924 313.141 359.289 312.091 359.173C311.157 358.939 309.668 359.611 308.384 360.924C306.837 362.5 306.224 364.398 307.012 365.186L306.982 365.157Z" fill="#FFBB24"/>
</svg>
