<svg width="148" height="148" viewBox="0 0 148 148" fill="none" xmlns="http://www.w3.org/2000/svg">
<g clip-path="url(#clip0_1466_3841)">
<path d="M128.94 10H19.06C14.0563 10 10 14.0563 10 19.06V128.94C10 133.944 14.0563 138 19.06 138H128.94C133.944 138 138 133.944 138 128.94V19.06C138 14.0563 133.944 10 128.94 10Z" fill="white" stroke="#FFBB24" stroke-width="0.5" stroke-miterlimit="10"/>
<path d="M114.82 17.58L113.68 19.55C112.97 20.77 113.86 22.3 115.27 22.3H117.54C118.95 22.3 119.83 20.77 119.13 19.55L117.99 17.58C117.28 16.36 115.52 16.36 114.81 17.58H114.82Z" fill="#FFF3E1" stroke="#FFE8BB" stroke-width="0.24" stroke-miterlimit="10"/>
<path d="M115.81 18.7303L115 20.1403C114.74 20.6003 115.07 21.1703 115.6 21.1703H117.23C117.76 21.1703 118.09 20.6003 117.83 20.1403L117.02 18.7303C116.76 18.2703 116.09 18.2703 115.83 18.7303H115.81Z" fill="#FFD37B"/>
<path d="M128.89 22.3603L126.65 22.8703C125.28 23.1803 124.76 24.8603 125.72 25.8903L127.28 27.5703C128.24 28.6003 129.95 28.2103 130.36 26.8603L131.03 24.6703C131.44 23.3303 130.25 22.0403 128.88 22.3503L128.89 22.3603Z" fill="#FFF3E1" stroke="#FFE8BB" stroke-width="0.24" stroke-miterlimit="10"/>
<path d="M128.45 23.8703L127.15 24.3103C126.59 24.5003 126.45 25.2203 126.89 25.6103L127.92 26.5103C128.36 26.9003 129.06 26.6603 129.17 26.0803L129.44 24.7403C129.55 24.1603 129 23.6803 128.45 23.8703Z" fill="#FFD37B"/>
<path d="M109.42 23.8598C109.45 23.5398 109.51 23.2298 109.62 22.9298C110.76 19.8298 116.11 18.9498 121.57 20.9598C127.03 22.9698 130.52 27.1098 129.38 30.2098C129.27 30.5098 129.12 30.7898 128.93 31.0498C129.98 32.7298 130.33 34.4499 129.77 35.9699C128.37 39.7598 121.82 40.8498 115.15 38.3898C108.47 35.9298 104.19 30.8598 105.59 27.0598C106.15 25.5398 107.53 24.4598 109.42 23.8598Z" fill="#FFF3D9"/>
<mask id="mask0_1466_3841" style="mask-type:luminance" maskUnits="userSpaceOnUse" x="105" y="19" width="26" height="21">
<path d="M109.42 23.8598C109.45 23.5398 109.51 23.2298 109.62 22.9298C110.76 19.8298 116.11 18.9498 121.57 20.9598C127.03 22.9698 130.52 27.1098 129.38 30.2098C129.27 30.5098 129.12 30.7898 128.93 31.0498C129.98 32.7298 130.33 34.4499 129.77 35.9699C128.37 39.7598 121.82 40.8498 115.15 38.3898C108.47 35.9298 104.19 30.8598 105.59 27.0598C106.15 25.5398 107.53 24.4598 109.42 23.8598Z" fill="white"/>
</mask>
<g mask="url(#mask0_1466_3841)">
<path opacity="0.8" d="M115.57 29.2198C119.281 29.2198 122.29 26.2111 122.29 22.4998C122.29 18.7884 119.281 15.7798 115.57 15.7798C111.859 15.7798 108.85 18.7884 108.85 22.4998C108.85 26.2111 111.859 29.2198 115.57 29.2198Z" fill="#FFE7B3"/>
</g>
<path d="M119.451 28.816C119.495 28.6968 119.296 28.5135 119.005 28.4066C118.715 28.2996 118.444 28.3095 118.4 28.4287C118.356 28.5479 118.556 28.7312 118.846 28.8382C119.136 28.9451 119.407 28.9352 119.451 28.816Z" fill="#060606"/>
<path d="M118.06 29.3098C118.31 29.3998 118.52 29.3998 118.69 29.2998C118.99 29.1198 119.02 28.7098 119.02 28.6998C119.02 28.6198 118.96 28.5498 118.88 28.5498C118.8 28.5498 118.73 28.6098 118.73 28.6898C118.73 28.7698 118.68 28.9798 118.55 29.0598C118.41 29.1398 118.19 29.0598 118.04 28.9898C117.97 28.9498 117.88 28.9898 117.84 29.0598C117.8 29.1298 117.84 29.2198 117.91 29.2598C117.97 29.2898 118.02 29.3098 118.08 29.3298L118.06 29.3098Z" fill="#060606"/>
<path d="M119.12 29.7296C119.17 29.7496 119.23 29.7696 119.29 29.7796C119.37 29.7996 119.45 29.7496 119.47 29.6696C119.49 29.5896 119.44 29.5096 119.36 29.4896C119.19 29.4496 118.98 29.3696 118.92 29.2096C118.87 29.0596 118.97 28.8696 119.02 28.8096C119.07 28.7496 119.06 28.6496 118.99 28.5996C118.93 28.5496 118.83 28.5596 118.78 28.6296C118.77 28.6396 118.52 28.9696 118.64 29.2996C118.7 29.4796 118.86 29.6196 119.11 29.7096L119.12 29.7296Z" fill="#060606"/>
<path d="M121.93 33.65C123.272 33.65 124.36 32.5621 124.36 31.22C124.36 29.878 123.272 28.79 121.93 28.79C120.588 28.79 119.5 29.878 119.5 31.22C119.5 32.5621 120.588 33.65 121.93 33.65Z" fill="#FFD37B"/>
<path d="M115.02 31.1002C116.362 31.1002 117.45 30.0123 117.45 28.6702C117.45 27.3282 116.362 26.2402 115.02 26.2402C113.678 26.2402 112.59 27.3282 112.59 28.6702C112.59 30.0123 113.678 31.1002 115.02 31.1002Z" fill="#FFD37B"/>
<path d="M121.33 29.2199C121.683 29.2199 121.97 28.9334 121.97 28.5799C121.97 28.2265 121.683 27.9399 121.33 27.9399C120.976 27.9399 120.69 28.2265 120.69 28.5799C120.69 28.9334 120.976 29.2199 121.33 29.2199Z" fill="#060606"/>
<path d="M117.04 27.6399C117.393 27.6399 117.68 27.3533 117.68 26.9999C117.68 26.6464 117.393 26.3599 117.04 26.3599C116.686 26.3599 116.4 26.6464 116.4 26.9999C116.4 27.3533 116.686 27.6399 117.04 27.6399Z" fill="#060606"/>
<path d="M127.35 41.255C128.019 39.1669 126.246 36.7326 123.39 35.8179C120.534 34.9031 117.676 35.8543 117.008 37.9423C116.339 40.0304 118.112 42.4647 120.968 43.3795C123.824 44.2942 126.681 43.3431 127.35 41.255Z" fill="#FFF3E1" stroke="#FFE8BB" stroke-width="0.24" stroke-miterlimit="10"/>
<path d="M114.104 35.3121C114.773 33.224 113 30.7897 110.144 29.875C107.288 28.9602 104.431 29.9114 103.762 31.9995C103.093 34.0876 104.866 36.5218 107.722 37.4366C110.578 38.3513 113.436 37.4002 114.104 35.3121Z" fill="#FFF3E1" stroke="#FFE8BB" stroke-width="0.24" stroke-miterlimit="10"/>
<mask id="mask1_1466_3841" style="mask-type:luminance" maskUnits="userSpaceOnUse" x="116" y="35" width="12" height="9">
<path d="M127.306 41.357C127.974 39.2689 126.201 36.8347 123.345 35.9199C120.489 35.0052 117.632 35.9563 116.963 38.0444C116.294 40.1325 118.067 42.5668 120.923 43.4815C123.779 44.3963 126.637 43.4451 127.306 41.357Z" fill="white"/>
</mask>
<g mask="url(#mask1_1466_3841)">
<path opacity="0.8" d="M123.28 47.0201C126.03 47.0201 128.26 44.7904 128.26 42.0401C128.26 39.2897 126.03 37.0601 123.28 37.0601C120.53 37.0601 118.3 39.2897 118.3 42.0401C118.3 44.7904 120.53 47.0201 123.28 47.0201Z" fill="#FFDC8D"/>
</g>
<path d="M104.431 30.8803L126.83 40.3517C127.466 40.6204 127.764 41.3543 127.495 41.9898L124.656 48.7042C123.904 50.4819 121.86 51.3112 120.082 50.5595L101.799 42.829C100.022 42.0774 99.1925 40.033 99.9442 38.2554L102.783 31.541C103.052 30.9054 103.786 30.6077 104.421 30.8765L104.431 30.8803Z" fill="#FFBB24"/>
<path d="M116.839 37.5301L114.02 36.3384C113.802 36.2459 113.55 36.3462 113.459 36.5623C113.367 36.7785 113.471 37.0288 113.689 37.1213L116.508 38.313C116.726 38.4054 116.978 38.3052 117.069 38.089C117.161 37.8728 117.057 37.6225 116.839 37.5301Z" fill="white"/>
<path d="M95.4233 20.916L95.943 20.7693L98.7831 30.8259C98.8238 30.9703 98.741 31.1184 98.5966 31.1591C98.4523 31.1999 98.3042 31.117 98.2634 30.9727L95.4233 20.916Z" fill="#FFD37B"/>
<path d="M97.3799 23.5301C97.4399 23.4601 97.4899 23.3801 97.5199 23.2901C97.6999 22.8601 97.5799 22.3801 97.2499 22.0901C97.2999 22.0201 97.3499 21.9401 97.3899 21.8601C97.6099 21.3501 97.3899 20.7701 96.9099 20.5101C96.9699 20.4401 97.0199 20.3601 97.0599 20.2701C97.2699 19.7601 97.0599 19.1901 96.5899 18.9301C96.6099 18.9001 96.6299 18.8601 96.6499 18.8301C96.8799 18.2901 96.6299 17.6601 96.0799 17.4301C95.9999 17.3901 95.9099 17.3701 95.8299 17.3601C95.7899 16.9901 95.5599 16.6401 95.1899 16.4901C94.6499 16.2601 94.0199 16.5101 93.7899 17.0601C93.6499 17.3801 93.6899 17.7401 93.8599 18.0201C93.7899 18.1001 93.7299 18.1901 93.6899 18.2901C93.4899 18.7501 93.6499 19.2701 94.0399 19.5601C94.0199 19.5901 93.9999 19.6301 93.9799 19.6601C93.8099 20.0601 93.9099 20.5201 94.1899 20.8101C94.1599 20.8601 94.1199 20.9201 94.0999 20.9801C93.8999 21.4601 94.0799 22.0101 94.4999 22.2801C94.4199 22.7601 94.6699 23.2501 95.1299 23.4501C94.8999 23.9901 95.1499 24.6201 95.6999 24.8501C95.7399 24.8701 95.7899 24.8801 95.8299 24.8901C95.9399 25.1201 96.1199 25.3101 96.3699 25.4101C96.9099 25.6401 97.5399 25.3901 97.7699 24.8401C97.9699 24.3601 97.7899 23.8101 97.3699 23.5401L97.3799 23.5301Z" fill="#FFBB24"/>
<path d="M107.2 19.0698L106.33 20.9398L107.2 22.8198L105.32 21.9498L103.45 22.8198L104.31 20.9398L103.45 19.0698L105.32 19.9298L107.2 19.0698Z" fill="#FFD37B"/>
<path d="M131.87 41.2802L131.15 42.3602L131.5 43.6202L130.42 42.9002L129.16 43.2502L129.89 42.1602L129.53 40.9102L130.62 41.6302L131.87 41.2802Z" fill="#FFBB24"/>
<path d="M23.1999 112.07L23.0099 114.33C22.8899 115.74 24.3499 116.74 25.6199 116.14L27.6699 115.17C28.9499 114.57 29.0899 112.81 27.9299 112.01L26.0599 110.72C24.8999 109.92 23.3099 110.67 23.1899 112.08L23.1999 112.07Z" fill="#FFF3E1" stroke="#FFE8BB" stroke-width="0.24" stroke-miterlimit="10"/>
<path d="M24.5901 112.69L24.4601 114.31C24.4201 114.84 24.9601 115.22 25.4401 114.99L26.9101 114.29C27.3901 114.06 27.4401 113.4 27.0101 113.1L25.6701 112.17C25.2301 111.87 24.6401 112.15 24.5901 112.68V112.69Z" fill="#FFD37B"/>
<path d="M39.4401 110.69L37.4701 111.86C36.2601 112.58 36.2801 114.33 37.5001 115.02L39.5001 116.15C40.7301 116.84 42.2401 115.94 42.2201 114.54L42.1901 112.25C42.1701 110.84 40.6401 109.98 39.4301 110.7L39.4401 110.69Z" fill="#FFF3E1" stroke="#FFE8BB" stroke-width="0.24" stroke-miterlimit="10"/>
<path d="M39.4702 112.25L38.3702 113.06C37.9002 113.41 37.9802 114.14 38.5202 114.37L39.7802 114.91C40.3202 115.14 40.9102 114.71 40.8402 114.12L40.6802 112.76C40.6102 112.18 39.9402 111.88 39.4702 112.23V112.25Z" fill="#FFD37B"/>
<path d="M22.2 120C22.1 119.7 22.04 119.39 22.03 119.07C21.88 115.77 26.47 112.88 32.27 112.61C38.07 112.34 42.91 114.8 43.06 118.11C43.07 118.43 43.04 118.75 42.97 119.06C44.59 120.2 45.58 121.65 45.65 123.27C45.83 127.31 40.22 130.85 33.11 131.17C26 131.5 20.09 128.48 19.9 124.44C19.83 122.82 20.68 121.29 22.19 120.01L22.2 120Z" fill="#FFF3E1" stroke="#FFE8BB" stroke-width="0.24" stroke-miterlimit="10"/>
<mask id="mask2_1466_3841" style="mask-type:luminance" maskUnits="userSpaceOnUse" x="19" y="112" width="27" height="20">
<path d="M22.2 120C22.1 119.7 22.04 119.39 22.03 119.07C21.88 115.77 26.47 112.88 32.27 112.61C38.07 112.34 42.91 114.8 43.06 118.11C43.07 118.43 43.04 118.75 42.97 119.06C44.59 120.2 45.58 121.65 45.65 123.27C45.83 127.31 40.22 130.85 33.11 131.17C26 131.5 20.09 128.48 19.9 124.44C19.83 122.82 20.68 121.29 22.19 120.01L22.2 120Z" fill="white"/>
</mask>
<g mask="url(#mask2_1466_3841)">
<path opacity="0.8" d="M27.3401 123.08C31.0515 123.08 34.0601 120.071 34.0601 116.36C34.0601 112.649 31.0515 109.64 27.3401 109.64C23.6288 109.64 20.6201 112.649 20.6201 116.36C20.6201 120.071 23.6288 123.08 27.3401 123.08Z" fill="#FFE7B3"/>
</g>
<path d="M32.8133 120.914C33.1223 120.9 33.3681 120.786 33.3623 120.659C33.3564 120.532 33.1013 120.441 32.7923 120.455C32.4834 120.469 32.2376 120.583 32.2434 120.71C32.2492 120.837 32.5044 120.929 32.8133 120.914Z" fill="#060606"/>
<path d="M32.2699 121.66C32.5299 121.65 32.7299 121.56 32.8399 121.41C33.0499 121.13 32.9099 120.74 32.9099 120.73C32.8799 120.65 32.7999 120.61 32.7199 120.64C32.6399 120.67 32.5999 120.75 32.6299 120.83C32.6599 120.9 32.6999 121.11 32.5999 121.24C32.4999 121.37 32.2699 121.38 32.0999 121.37C32.0199 121.37 31.9499 121.43 31.9399 121.51C31.9399 121.59 31.9999 121.66 32.0799 121.67C32.1399 121.67 32.1999 121.67 32.2599 121.67L32.2699 121.66Z" fill="#060606"/>
<path d="M33.4197 121.64C33.4797 121.64 33.5397 121.64 33.5997 121.62C33.6797 121.61 33.7297 121.53 33.7197 121.45C33.7097 121.37 33.6297 121.31 33.5497 121.33C33.3797 121.36 33.1497 121.36 33.0397 121.24C32.9297 121.12 32.9597 120.91 32.9797 120.84C32.9997 120.76 32.9497 120.68 32.8697 120.66C32.7897 120.64 32.7097 120.69 32.6897 120.76C32.6897 120.78 32.5797 121.18 32.8197 121.44C32.9497 121.58 33.1497 121.65 33.4097 121.64H33.4197Z" fill="#060606"/>
<path d="M36.5799 124.35C37.922 124.35 39.0099 123.262 39.0099 121.92C39.0099 120.578 37.922 119.49 36.5799 119.49C35.2379 119.49 34.1499 120.578 34.1499 121.92C34.1499 123.262 35.2379 124.35 36.5799 124.35Z" fill="#FFD37B"/>
<path d="M29.22 124.69C30.5621 124.69 31.65 123.602 31.65 122.26C31.65 120.918 30.5621 119.83 29.22 119.83C27.878 119.83 26.79 120.918 26.79 122.26C26.79 123.602 27.878 124.69 29.22 124.69Z" fill="#FFD37B"/>
<path d="M35.0101 120.36C35.3636 120.36 35.6501 120.074 35.6501 119.72C35.6501 119.367 35.3636 119.08 35.0101 119.08C34.6567 119.08 34.3701 119.367 34.3701 119.72C34.3701 120.074 34.6567 120.36 35.0101 120.36Z" fill="#060606"/>
<path d="M30.4398 120.57C30.7933 120.57 31.0798 120.284 31.0798 119.93C31.0798 119.577 30.7933 119.29 30.4398 119.29C30.0863 119.29 29.7998 119.577 29.7998 119.93C29.7998 120.284 30.0863 120.57 30.4398 120.57Z" fill="#060606"/>
<path d="M26.8171 134.015C29.8042 133.749 32.068 131.763 31.8735 129.579C31.679 127.395 29.0998 125.84 26.1127 126.106C23.1256 126.372 20.8618 128.358 21.0563 130.542C21.2508 132.726 23.83 134.281 26.8171 134.015Z" fill="#FFF3E1" stroke="#FFE8BB" stroke-width="0.24" stroke-miterlimit="10"/>
<path d="M48.7255 125.464C51.4348 124.179 52.8689 121.53 51.9288 119.55C50.9887 117.569 48.0303 117.006 45.321 118.291C42.6118 119.577 41.1776 122.225 42.1178 124.206C43.0579 126.187 46.0163 126.75 48.7255 125.464Z" fill="#FFF3E1" stroke="#FFE8BB" stroke-width="0.24" stroke-miterlimit="10"/>
<mask id="mask3_1466_3841" style="mask-type:luminance" maskUnits="userSpaceOnUse" x="41" y="117" width="12" height="10">
<path d="M48.7636 125.564C51.4729 124.278 52.907 121.63 51.9669 119.649C51.0268 117.668 48.0684 117.105 45.3591 118.39C42.6499 119.676 41.2157 122.324 42.1559 124.305C43.096 126.286 46.0544 126.849 48.7636 125.564Z" fill="white"/>
</mask>
<g mask="url(#mask3_1466_3841)">
<path opacity="0.8" d="M49.5098 127.88C52.2602 127.88 54.4898 125.651 54.4898 122.9C54.4898 120.15 52.2602 117.92 49.5098 117.92C46.7594 117.92 44.5298 120.15 44.5298 122.9C44.5298 125.651 46.7594 127.88 49.5098 127.88Z" fill="#FFDC8D"/>
</g>
<path d="M30.6399 119.49L30.7099 119.68L30.8999 119.75L30.7099 119.82L30.6399 120.01L30.5699 119.82L30.3799 119.75L30.5699 119.68L30.6399 119.49Z" fill="white"/>
<path d="M35.2698 119.36L35.3298 119.54L35.5198 119.61L35.3298 119.68L35.2698 119.87L35.1998 119.68L35.0098 119.61L35.1998 119.54L35.2698 119.36Z" fill="white"/>
<path d="M68.1275 112.571L64.1396 109.811L55.6311 122.103L59.6189 124.863L68.1275 112.571Z" fill="#FFBB24"/>
<mask id="mask4_1466_3841" style="mask-type:luminance" maskUnits="userSpaceOnUse" x="64" y="108" width="5" height="5">
<path d="M68.8116 111.587L64.8237 108.827L64.0668 109.92L68.0547 112.681L68.8116 111.587Z" fill="white"/>
</mask>
<g mask="url(#mask4_1466_3841)">
<path d="M65.0999 109.28L63.9399 109.83L64.9999 110.56L65.0999 109.28Z" fill="#FFF3E1" stroke="#FFE8BB" stroke-width="0.19" stroke-miterlimit="10"/>
<path d="M65.7298 109.71L64.5698 110.26L65.6298 111L65.7298 109.71Z" fill="#FFF3E1" stroke="#FFE8BB" stroke-width="0.19" stroke-miterlimit="10"/>
<path d="M66.3599 110.15L65.1899 110.7L66.2499 111.43L66.3599 110.15Z" fill="#FFF3E1" stroke="#FFE8BB" stroke-width="0.19" stroke-miterlimit="10"/>
<path d="M66.9798 110.58L65.8198 111.13L66.8798 111.86L66.9798 110.58Z" fill="#FFF3E1" stroke="#FFE8BB" stroke-width="0.19" stroke-miterlimit="10"/>
<path d="M67.6099 111.01L66.4399 111.56L67.4999 112.3L67.6099 111.01Z" fill="#FFF3E1" stroke="#FFE8BB" stroke-width="0.19" stroke-miterlimit="10"/>
<path d="M68.2298 111.45L67.0698 112L68.1298 112.73L68.2298 111.45Z" fill="#FFF3E1" stroke="#FFE8BB" stroke-width="0.19" stroke-miterlimit="10"/>
</g>
<mask id="mask5_1466_3841" style="mask-type:luminance" maskUnits="userSpaceOnUse" x="54" y="122" width="6" height="4">
<path d="M59.6173 124.866L55.6294 122.105L54.8724 123.199L58.8603 125.959L59.6173 124.866Z" fill="white"/>
</mask>
<g mask="url(#mask5_1466_3841)">
<path d="M55.4004 123.3L55.5104 122.01L56.5704 122.74L55.4004 123.3Z" fill="#FFF3E1" stroke="#FFE8BB" stroke-width="0.19" stroke-miterlimit="10"/>
<path d="M56.0303 123.73L56.1403 122.45L57.1903 123.18L56.0303 123.73Z" fill="#FFF3E1" stroke="#FFE8BB" stroke-width="0.19" stroke-miterlimit="10"/>
<path d="M56.6602 124.16L56.7602 122.88L57.8202 123.61L56.6602 124.16Z" fill="#FFF3E1" stroke="#FFE8BB" stroke-width="0.19" stroke-miterlimit="10"/>
<path d="M57.2803 124.59L57.3903 123.31L58.4503 124.04L57.2803 124.59Z" fill="#FFF3E1" stroke="#FFE8BB" stroke-width="0.19" stroke-miterlimit="10"/>
<path d="M57.9102 125.03L58.0102 123.75L59.0702 124.48L57.9102 125.03Z" fill="#FFF3E1" stroke="#FFE8BB" stroke-width="0.19" stroke-miterlimit="10"/>
<path d="M58.5303 125.46L58.6403 124.18L59.7003 124.91L58.5303 125.46Z" fill="#FFF3E1" stroke="#FFE8BB" stroke-width="0.19" stroke-miterlimit="10"/>
</g>
<path d="M63.6201 117.33H63.6301L63.9801 116.82C64.0401 116.74 63.9801 116.62 63.8801 116.62L63.2601 116.57C63.2601 116.57 63.2401 116.58 63.2301 116.58C63.1001 116.41 62.9301 116.26 62.7401 116.12C62.5801 116.01 62.4101 115.93 62.2401 115.86L62.0501 115.28C62.0201 115.18 61.9001 115.16 61.8301 115.23L61.4101 115.69C61.4101 115.69 61.4101 115.71 61.4101 115.73C61.0501 115.76 60.7301 115.9 60.5401 116.18C60.1301 116.77 60.4601 117.7 61.2701 118.26C62.0801 118.82 63.0601 118.8 63.4701 118.21C63.6401 117.96 63.6801 117.66 63.6101 117.35L63.6201 117.33Z" fill="#FFDC8D"/>
<path d="M19.1302 115.92L18.6802 117.93L19.9002 119.59L17.8902 119.13L16.2402 120.36L16.6902 118.35L15.4702 116.69L17.4802 117.15L19.1302 115.92Z" fill="#FFD37B"/>
<path d="M45.6299 128.78L47.2899 129.23L48.7099 128.27L48.2499 129.93L49.2099 131.35L47.5599 130.89L46.1399 131.85L46.5899 130.2L45.6299 128.78Z" fill="#FFBB24"/>
<path d="M44.29 113.24L45.39 113.13L46.01 112.22L46.12 113.32L47.03 113.94L45.94 114.06L45.31 114.96L45.2 113.87L44.29 113.24Z" fill="#FFF3E1"/>
<path d="M18.74 17.0798L18.97 17.6998L19.59 17.9298C19.77 17.9998 19.77 18.2598 19.59 18.3298L18.97 18.5598L18.74 19.1798C18.67 19.3598 18.41 19.3598 18.34 19.1798L18.11 18.5598L17.49 18.3298C17.31 18.2598 17.31 17.9998 17.49 17.9298L18.11 17.6998L18.34 17.0798C18.41 16.8998 18.67 16.8998 18.74 17.0798Z" fill="#FFBB24"/>
<path d="M21.8899 17.0798L22.1199 17.6998L22.7399 17.9298C22.9199 17.9998 22.9199 18.2598 22.7399 18.3298L22.1199 18.5598L21.8899 19.1798C21.8199 19.3598 21.5599 19.3598 21.4899 19.1798L21.2599 18.5598L20.6399 18.3298C20.4599 18.2598 20.4599 17.9998 20.6399 17.9298L21.2599 17.6998L21.4899 17.0798C21.5599 16.8998 21.8199 16.8998 21.8899 17.0798Z" fill="#FFBB24"/>
<path d="M25.05 17.0798L25.28 17.6998L25.9 17.9298C26.08 17.9998 26.08 18.2598 25.9 18.3298L25.28 18.5598L25.05 19.1798C24.98 19.3598 24.72 19.3598 24.65 19.1798L24.42 18.5598L23.8 18.3298C23.62 18.2598 23.62 17.9998 23.8 17.9298L24.42 17.6998L24.65 17.0798C24.72 16.8998 24.98 16.8998 25.05 17.0798Z" fill="#FFBB24"/>
<path d="M28.1999 17.0798L28.4299 17.6998L29.0499 17.9298C29.2299 17.9998 29.2299 18.2598 29.0499 18.3298L28.4299 18.5598L28.1999 19.1798C28.1299 19.3598 27.8699 19.3598 27.7999 19.1798L27.5699 18.5598L26.9499 18.3298C26.7699 18.2598 26.7699 17.9998 26.9499 17.9298L27.5699 17.6998L27.7999 17.0798C27.8699 16.8998 28.1299 16.8998 28.1999 17.0798Z" fill="#FFBB24"/>
<path d="M31.3601 17.0798L31.5901 17.6998L32.2101 17.9298C32.3901 17.9998 32.3901 18.2598 32.2101 18.3298L31.5901 18.5598L31.3601 19.1798C31.2901 19.3598 31.0301 19.3598 30.9601 19.1798L30.7301 18.5598L30.1101 18.3298C29.9301 18.2598 29.9301 17.9998 30.1101 17.9298L30.7301 17.6998L30.9601 17.0798C31.0301 16.8998 31.2901 16.8998 31.3601 17.0798Z" fill="#FFBB24"/>
<path d="M34.5198 17.0798L34.7498 17.6998L35.3698 17.9298C35.5498 17.9998 35.5498 18.2598 35.3698 18.3298L34.7498 18.5598L34.5198 19.1798C34.4498 19.3598 34.1898 19.3598 34.1198 19.1798L33.8898 18.5598L33.2698 18.3298C33.0898 18.2598 33.0898 17.9998 33.2698 17.9298L33.8898 17.6998L34.1198 17.0798C34.1898 16.8998 34.4498 16.8998 34.5198 17.0798Z" fill="#FFBB24"/>
<path d="M37.6702 17.0798L37.9002 17.6998L38.5202 17.9298C38.7002 17.9998 38.7002 18.2598 38.5202 18.3298L37.9002 18.5598L37.6702 19.1798C37.6002 19.3598 37.3402 19.3598 37.2702 19.1798L37.0402 18.5598L36.4202 18.3298C36.2402 18.2598 36.2402 17.9998 36.4202 17.9298L37.0402 17.6998L37.2702 17.0798C37.3402 16.8998 37.6002 16.8998 37.6702 17.0798Z" fill="#FFBB24"/>
<path d="M40.8298 17.0798L41.0598 17.6998L41.6798 17.9298C41.8598 17.9998 41.8598 18.2598 41.6798 18.3298L41.0598 18.5598L40.8298 19.1798C40.7598 19.3598 40.4998 19.3598 40.4298 19.1798L40.1998 18.5598L39.5798 18.3298C39.3998 18.2598 39.3998 17.9998 39.5798 17.9298L40.1998 17.6998L40.4298 17.0798C40.4998 16.8998 40.7598 16.8998 40.8298 17.0798Z" fill="#FFBB24"/>
<path d="M43.9802 17.0798L44.2102 17.6998L44.8302 17.9298C45.0102 17.9998 45.0102 18.2598 44.8302 18.3298L44.2102 18.5598L43.9802 19.1798C43.9102 19.3598 43.6502 19.3598 43.5802 19.1798L43.3502 18.5598L42.7302 18.3298C42.5502 18.2598 42.5502 17.9998 42.7302 17.9298L43.3502 17.6998L43.5802 17.0798C43.6502 16.8998 43.9102 16.8998 43.9802 17.0798Z" fill="#FFBB24"/>
<path d="M47.1399 17.0798L47.3699 17.6998L47.9899 17.9298C48.1699 17.9998 48.1699 18.2598 47.9899 18.3298L47.3699 18.5598L47.1399 19.1798C47.0699 19.3598 46.8099 19.3598 46.7399 19.1798L46.5099 18.5598L45.8899 18.3298C45.7099 18.2598 45.7099 17.9998 45.8899 17.9298L46.5099 17.6998L46.7399 17.0798C46.8099 16.8998 47.0699 16.8998 47.1399 17.0798Z" fill="#FFBB24"/>
<path d="M50.3 17.0798L50.53 17.6998L51.15 17.9298C51.33 17.9998 51.33 18.2598 51.15 18.3298L50.53 18.5598L50.3 19.1798C50.23 19.3598 49.97 19.3598 49.9 19.1798L49.67 18.5598L49.05 18.3298C48.87 18.2598 48.87 17.9998 49.05 17.9298L49.67 17.6998L49.9 17.0798C49.97 16.8998 50.23 16.8998 50.3 17.0798Z" fill="#FFBB24"/>
<path d="M53.4499 17.0798L53.6799 17.6998L54.2999 17.9298C54.4799 17.9998 54.4799 18.2598 54.2999 18.3298L53.6799 18.5598L53.4499 19.1798C53.3799 19.3598 53.1199 19.3598 53.0499 19.1798L52.8199 18.5598L52.1999 18.3298C52.0199 18.2598 52.0199 17.9998 52.1999 17.9298L52.8199 17.6998L53.0499 17.0798C53.1199 16.8998 53.3799 16.8998 53.4499 17.0798Z" fill="#FFBB24"/>
<path d="M56.6101 17.0798L56.8401 17.6998L57.4601 17.9298C57.6401 17.9998 57.6401 18.2598 57.4601 18.3298L56.8401 18.5598L56.6101 19.1798C56.5401 19.3598 56.2801 19.3598 56.2101 19.1798L55.9801 18.5598L55.3601 18.3298C55.1801 18.2598 55.1801 17.9998 55.3601 17.9298L55.9801 17.6998L56.2101 17.0798C56.2801 16.8998 56.5401 16.8998 56.6101 17.0798Z" fill="#FFBB24"/>
<path d="M59.76 17.0798L59.99 17.6998L60.61 17.9298C60.79 17.9998 60.79 18.2598 60.61 18.3298L59.99 18.5598L59.76 19.1798C59.69 19.3598 59.43 19.3598 59.36 19.1798L59.13 18.5598L58.51 18.3298C58.33 18.2598 58.33 17.9998 58.51 17.9298L59.13 17.6998L59.36 17.0798C59.43 16.8998 59.69 16.8998 59.76 17.0798Z" fill="#FFBB24"/>
<path d="M62.9202 17.0798L63.1502 17.6998L63.7702 17.9298C63.9502 17.9998 63.9502 18.2598 63.7702 18.3298L63.1502 18.5598L62.9202 19.1798C62.8502 19.3598 62.5902 19.3598 62.5202 19.1798L62.2902 18.5598L61.6702 18.3298C61.4902 18.2598 61.4902 17.9998 61.6702 17.9298L62.2902 17.6998L62.5202 17.0798C62.5902 16.8998 62.8502 16.8998 62.9202 17.0798Z" fill="#FFBB24"/>
<path d="M66.0798 17.0798L66.3098 17.6998L66.9298 17.9298C67.1098 17.9998 67.1098 18.2598 66.9298 18.3298L66.3098 18.5598L66.0798 19.1798C66.0098 19.3598 65.7498 19.3598 65.6798 19.1798L65.4498 18.5598L64.8298 18.3298C64.6498 18.2598 64.6498 17.9998 64.8298 17.9298L65.4498 17.6998L65.6798 17.0798C65.7498 16.8998 66.0098 16.8998 66.0798 17.0798Z" fill="#FFBB24"/>
<path d="M69.2302 17.0798L69.4602 17.6998L70.0802 17.9298C70.2602 17.9998 70.2602 18.2598 70.0802 18.3298L69.4602 18.5598L69.2302 19.1798C69.1602 19.3598 68.9002 19.3598 68.8302 19.1798L68.6002 18.5598L67.9802 18.3298C67.8002 18.2598 67.8002 17.9998 67.9802 17.9298L68.6002 17.6998L68.8302 17.0798C68.9002 16.8998 69.1602 16.8998 69.2302 17.0798Z" fill="#FFBB24"/>
<path d="M72.3899 17.0798L72.6199 17.6998L73.2399 17.9298C73.4199 17.9998 73.4199 18.2598 73.2399 18.3298L72.6199 18.5598L72.3899 19.1798C72.3199 19.3598 72.0599 19.3598 71.9899 19.1798L71.7599 18.5598L71.1399 18.3298C70.9599 18.2598 70.9599 17.9998 71.1399 17.9298L71.7599 17.6998L71.9899 17.0798C72.0599 16.8998 72.3199 16.8998 72.3899 17.0798Z" fill="#FFBB24"/>
<path d="M75.5398 17.0798L75.7698 17.6998L76.3898 17.9298C76.5698 17.9998 76.5698 18.2598 76.3898 18.3298L75.7698 18.5598L75.5398 19.1798C75.4698 19.3598 75.2098 19.3598 75.1398 19.1798L74.9098 18.5598L74.2898 18.3298C74.1098 18.2598 74.1098 17.9998 74.2898 17.9298L74.9098 17.6998L75.1398 17.0798C75.2098 16.8998 75.4698 16.8998 75.5398 17.0798Z" fill="#FFBB24"/>
<path d="M78.6999 17.0798L78.9299 17.6998L79.5499 17.9298C79.7299 17.9998 79.7299 18.2598 79.5499 18.3298L78.9299 18.5598L78.6999 19.1798C78.6299 19.3598 78.3699 19.3598 78.2999 19.1798L78.0699 18.5598L77.4499 18.3298C77.2699 18.2598 77.2699 17.9998 77.4499 17.9298L78.0699 17.6998L78.2999 17.0798C78.3699 16.8998 78.6299 16.8998 78.6999 17.0798Z" fill="#FFBB24"/>
<path d="M81.8601 17.0798L82.0901 17.6998L82.7101 17.9298C82.8901 17.9998 82.8901 18.2598 82.7101 18.3298L82.0901 18.5598L81.8601 19.1798C81.7901 19.3598 81.5301 19.3598 81.4601 19.1798L81.2301 18.5598L80.6101 18.3298C80.4301 18.2598 80.4301 17.9998 80.6101 17.9298L81.2301 17.6998L81.4601 17.0798C81.5301 16.8998 81.7901 16.8998 81.8601 17.0798Z" fill="#FFBB24"/>
<path d="M85.01 17.0798L85.24 17.6998L85.86 17.9298C86.04 17.9998 86.04 18.2598 85.86 18.3298L85.24 18.5598L85.01 19.1798C84.94 19.3598 84.68 19.3598 84.61 19.1798L84.38 18.5598L83.76 18.3298C83.58 18.2598 83.58 17.9998 83.76 17.9298L84.38 17.6998L84.61 17.0798C84.68 16.8998 84.94 16.8998 85.01 17.0798Z" fill="#FFBB24"/>
<path d="M60.9202 128.44L61.1502 129.06L61.7702 129.29C61.9502 129.36 61.9502 129.62 61.7702 129.69L61.1502 129.92L60.9202 130.54C60.8502 130.72 60.5902 130.72 60.5202 130.54L60.2902 129.92L59.6702 129.69C59.4902 129.62 59.4902 129.36 59.6702 129.29L60.2902 129.06L60.5202 128.44C60.5902 128.26 60.8502 128.26 60.9202 128.44Z" fill="#FFBB24"/>
<path d="M64.0798 128.44L64.3098 129.06L64.9298 129.29C65.1098 129.36 65.1098 129.62 64.9298 129.69L64.3098 129.92L64.0798 130.54C64.0098 130.72 63.7498 130.72 63.6798 130.54L63.4498 129.92L62.8298 129.69C62.6498 129.62 62.6498 129.36 62.8298 129.29L63.4498 129.06L63.6798 128.44C63.7498 128.26 64.0098 128.26 64.0798 128.44Z" fill="#FFBB24"/>
<path d="M67.2302 128.44L67.4602 129.06L68.0802 129.29C68.2602 129.36 68.2602 129.62 68.0802 129.69L67.4602 129.92L67.2302 130.54C67.1602 130.72 66.9002 130.72 66.8302 130.54L66.6002 129.92L65.9802 129.69C65.8002 129.62 65.8002 129.36 65.9802 129.29L66.6002 129.06L66.8302 128.44C66.9002 128.26 67.1602 128.26 67.2302 128.44Z" fill="#FFBB24"/>
<path d="M70.3899 128.44L70.6199 129.06L71.2399 129.29C71.4199 129.36 71.4199 129.62 71.2399 129.69L70.6199 129.92L70.3899 130.54C70.3199 130.72 70.0599 130.72 69.9899 130.54L69.7599 129.92L69.1399 129.69C68.9599 129.62 68.9599 129.36 69.1399 129.29L69.7599 129.06L69.9899 128.44C70.0599 128.26 70.3199 128.26 70.3899 128.44Z" fill="#FFBB24"/>
<path d="M73.55 128.44L73.78 129.06L74.4 129.29C74.58 129.36 74.58 129.62 74.4 129.69L73.78 129.92L73.55 130.54C73.48 130.72 73.22 130.72 73.15 130.54L72.92 129.92L72.3 129.69C72.12 129.62 72.12 129.36 72.3 129.29L72.92 129.06L73.15 128.44C73.22 128.26 73.48 128.26 73.55 128.44Z" fill="#FFBB24"/>
<path d="M76.6999 128.44L76.9299 129.06L77.5499 129.29C77.7299 129.36 77.7299 129.62 77.5499 129.69L76.9299 129.92L76.6999 130.54C76.6299 130.72 76.3699 130.72 76.2999 130.54L76.0699 129.92L75.4499 129.69C75.2699 129.62 75.2699 129.36 75.4499 129.29L76.0699 129.06L76.2999 128.44C76.3699 128.26 76.6299 128.26 76.6999 128.44Z" fill="#FFBB24"/>
<path d="M79.8601 128.44L80.0901 129.06L80.7101 129.29C80.8901 129.36 80.8901 129.62 80.7101 129.69L80.0901 129.92L79.8601 130.54C79.7901 130.72 79.5301 130.72 79.4601 130.54L79.2301 129.92L78.6101 129.69C78.4301 129.62 78.4301 129.36 78.6101 129.29L79.2301 129.06L79.4601 128.44C79.5301 128.26 79.7901 128.26 79.8601 128.44Z" fill="#FFBB24"/>
<path d="M83.01 128.44L83.24 129.06L83.86 129.29C84.04 129.36 84.04 129.62 83.86 129.69L83.24 129.92L83.01 130.54C82.94 130.72 82.68 130.72 82.61 130.54L82.38 129.92L81.76 129.69C81.58 129.62 81.58 129.36 81.76 129.29L82.38 129.06L82.61 128.44C82.68 128.26 82.94 128.26 83.01 128.44Z" fill="#FFBB24"/>
<path d="M86.1702 128.44L86.4002 129.06L87.0202 129.29C87.2002 129.36 87.2002 129.62 87.0202 129.69L86.4002 129.92L86.1702 130.54C86.1002 130.72 85.8402 130.72 85.7702 130.54L85.5402 129.92L84.9202 129.69C84.7402 129.62 84.7402 129.36 84.9202 129.29L85.5402 129.06L85.7702 128.44C85.8402 128.26 86.1002 128.26 86.1702 128.44Z" fill="#FFBB24"/>
<path d="M89.3298 128.44L89.5598 129.06L90.1798 129.29C90.3598 129.36 90.3598 129.62 90.1798 129.69L89.5598 129.92L89.3298 130.54C89.2598 130.72 88.9998 130.72 88.9298 130.54L88.6998 129.92L88.0798 129.69C87.8998 129.62 87.8998 129.36 88.0798 129.29L88.6998 129.06L88.9298 128.44C88.9998 128.26 89.2598 128.26 89.3298 128.44Z" fill="#FFBB24"/>
<path d="M92.4802 128.44L92.7102 129.06L93.3302 129.29C93.5102 129.36 93.5102 129.62 93.3302 129.69L92.7102 129.92L92.4802 130.54C92.4102 130.72 92.1502 130.72 92.0802 130.54L91.8502 129.92L91.2302 129.69C91.0502 129.62 91.0502 129.36 91.2302 129.29L91.8502 129.06L92.0802 128.44C92.1502 128.26 92.4102 128.26 92.4802 128.44Z" fill="#FFBB24"/>
<path d="M95.6399 128.44L95.8699 129.06L96.4899 129.29C96.6699 129.36 96.6699 129.62 96.4899 129.69L95.8699 129.92L95.6399 130.54C95.5699 130.72 95.3099 130.72 95.2399 130.54L95.0099 129.92L94.3899 129.69C94.2099 129.62 94.2099 129.36 94.3899 129.29L95.0099 129.06L95.2399 128.44C95.3099 128.26 95.5699 128.26 95.6399 128.44Z" fill="#FFBB24"/>
<path d="M98.7898 128.44L99.0198 129.06L99.6398 129.29C99.8198 129.36 99.8198 129.62 99.6398 129.69L99.0198 129.92L98.7898 130.54C98.7198 130.72 98.4598 130.72 98.3898 130.54L98.1598 129.92L97.5398 129.69C97.3598 129.62 97.3598 129.36 97.5398 129.29L98.1598 129.06L98.3898 128.44C98.4598 128.26 98.7198 128.26 98.7898 128.44Z" fill="#FFBB24"/>
<path d="M101.95 128.44L102.18 129.06L102.8 129.29C102.98 129.36 102.98 129.62 102.8 129.69L102.18 129.92L101.95 130.54C101.88 130.72 101.62 130.72 101.55 130.54L101.32 129.92L100.7 129.69C100.52 129.62 100.52 129.36 100.7 129.29L101.32 129.06L101.55 128.44C101.62 128.26 101.88 128.26 101.95 128.44Z" fill="#FFBB24"/>
<path d="M105.1 128.44L105.33 129.06L105.95 129.29C106.13 129.36 106.13 129.62 105.95 129.69L105.33 129.92L105.1 130.54C105.03 130.72 104.77 130.72 104.7 130.54L104.47 129.92L103.85 129.69C103.67 129.62 103.67 129.36 103.85 129.29L104.47 129.06L104.7 128.44C104.77 128.26 105.03 128.26 105.1 128.44Z" fill="#FFBB24"/>
<path d="M108.26 128.44L108.49 129.06L109.11 129.29C109.29 129.36 109.29 129.62 109.11 129.69L108.49 129.92L108.26 130.54C108.19 130.72 107.93 130.72 107.86 130.54L107.63 129.92L107.01 129.69C106.83 129.62 106.83 129.36 107.01 129.29L107.63 129.06L107.86 128.44C107.93 128.26 108.19 128.26 108.26 128.44Z" fill="#FFBB24"/>
<path d="M111.42 128.44L111.65 129.06L112.27 129.29C112.45 129.36 112.45 129.62 112.27 129.69L111.65 129.92L111.42 130.54C111.35 130.72 111.09 130.72 111.02 130.54L110.79 129.92L110.17 129.69C109.99 129.62 109.99 129.36 110.17 129.29L110.79 129.06L111.02 128.44C111.09 128.26 111.35 128.26 111.42 128.44Z" fill="#FFBB24"/>
<path d="M114.57 128.44L114.8 129.06L115.42 129.29C115.6 129.36 115.6 129.62 115.42 129.69L114.8 129.92L114.57 130.54C114.5 130.72 114.24 130.72 114.17 130.54L113.94 129.92L113.32 129.69C113.14 129.62 113.14 129.36 113.32 129.29L113.94 129.06L114.17 128.44C114.24 128.26 114.5 128.26 114.57 128.44Z" fill="#FFBB24"/>
<path d="M117.73 128.44L117.96 129.06L118.58 129.29C118.76 129.36 118.76 129.62 118.58 129.69L117.96 129.92L117.73 130.54C117.66 130.72 117.4 130.72 117.33 130.54L117.1 129.92L116.48 129.69C116.3 129.62 116.3 129.36 116.48 129.29L117.1 129.06L117.33 128.44C117.4 128.26 117.66 128.26 117.73 128.44Z" fill="#FFBB24"/>
<path d="M120.88 128.44L121.11 129.06L121.73 129.29C121.91 129.36 121.91 129.62 121.73 129.69L121.11 129.92L120.88 130.54C120.81 130.72 120.55 130.72 120.48 130.54L120.25 129.92L119.63 129.69C119.45 129.62 119.45 129.36 119.63 129.29L120.25 129.06L120.48 128.44C120.55 128.26 120.81 128.26 120.88 128.44Z" fill="#FFBB24"/>
<path d="M124.04 128.44L124.27 129.06L124.89 129.29C125.07 129.36 125.07 129.62 124.89 129.69L124.27 129.92L124.04 130.54C123.97 130.72 123.71 130.72 123.64 130.54L123.41 129.92L122.79 129.69C122.61 129.62 122.61 129.36 122.79 129.29L123.41 129.06L123.64 128.44C123.71 128.26 123.97 128.26 124.04 128.44Z" fill="#FFBB24"/>
<path d="M127.2 128.44L127.43 129.06L128.05 129.29C128.23 129.36 128.23 129.62 128.05 129.69L127.43 129.92L127.2 130.54C127.13 130.72 126.87 130.72 126.8 130.54L126.57 129.92L125.95 129.69C125.77 129.62 125.77 129.36 125.95 129.29L126.57 129.06L126.8 128.44C126.87 128.26 127.13 128.26 127.2 128.44Z" fill="#FFBB24"/>
</g>
<defs>
<clipPath id="clip0_1466_3841">
<rect width="148" height="148" fill="white"/>
</clipPath>
</defs>
</svg>
