<svg width="148" height="148" viewBox="0 0 148 148" fill="none" xmlns="http://www.w3.org/2000/svg">
<path d="M74 138C109.346 138 138 109.346 138 74C138 38.6538 109.346 10 74 10C38.6538 10 10 38.6538 10 74C10 109.346 38.6538 138 74 138Z" fill="white" stroke="#FFBB24" stroke-width="0.5" stroke-miterlimit="10"/>
<mask id="mask0_1466_4671" style="mask-type:luminance" maskUnits="userSpaceOnUse" x="10" y="10" width="128" height="128">
<path d="M74 138C109.346 138 138 109.346 138 74C138 38.6538 109.346 10 74 10C38.6538 10 10 38.6538 10 74C10 109.346 38.6538 138 74 138Z" fill="white"/>
</mask>
<g mask="url(#mask0_1466_4671)">
<path d="M53.4801 107.27C60.2601 108.67 63.6701 106.07 64.4701 102.16C65.2801 98.2498 63.1801 94.5098 56.4001 93.1198C51.3101 92.0698 44.5601 94.8398 41.5201 96.2898C40.6801 96.6898 40.4601 97.7798 41.0701 98.4798C43.2901 101.01 48.3801 106.23 53.4801 107.28V107.27Z" fill="#060606"/>
<path d="M17.8799 80.9799C11.5299 78.2199 10.2399 74.1399 11.8299 70.4799C13.4199 66.8199 17.2899 64.9699 23.6399 67.7299C28.4099 69.7999 32.3299 75.9499 33.9899 78.8799C34.4499 79.6899 33.9999 80.7099 33.0999 80.9299C29.8299 81.7199 22.6599 83.0599 17.8899 80.9899L17.8799 80.9799Z" fill="#060606"/>
<path d="M39.08 107.2C39.56 107.1 40.02 106.93 40.46 106.7C44.96 104.33 45.23 95.98 41.05 88.05C36.87 80.12 29.84 75.62 25.33 77.99C24.89 78.22 24.5 78.51 24.14 78.84C21.36 77.58 18.66 77.39 16.46 78.55C10.95 81.45 10.62 91.67 15.73 101.38C20.84 111.08 29.46 116.59 34.97 113.69C37.18 112.53 38.55 110.19 39.08 107.19V107.2Z" fill="white"/>
<path d="M12.5499 93.4099C12.0799 91.3399 11.8699 89.3199 11.9299 87.4299C12.0699 83.0499 13.6499 79.8499 16.3699 78.4099C18.5299 77.2699 21.1999 77.3499 24.0999 78.6399C24.4499 78.3199 24.8299 78.0599 25.2399 77.8399C29.8199 75.4199 36.9899 79.9699 41.1999 87.9699C45.4199 95.9699 45.1199 104.45 40.5299 106.86C40.1299 107.07 39.6899 107.24 39.2299 107.35C38.6599 110.47 37.2099 112.72 35.0499 113.86C29.4599 116.81 20.7199 111.25 15.5699 101.48C14.1699 98.8199 13.1499 96.0699 12.5499 93.4099ZM43.3299 94.6599C42.8499 92.5499 42.0399 90.3299 40.8899 88.1399C36.7699 80.3099 29.8199 75.8399 25.4199 78.1599C25.0099 78.3799 24.6199 78.6499 24.2699 78.9799L24.1799 79.0599L24.0699 79.0099C21.2299 77.7199 18.6299 77.6199 16.5499 78.7199C13.9399 80.0899 12.4299 83.1899 12.2999 87.4299C12.1599 91.7099 13.4399 96.6399 15.8999 101.3C20.9599 110.9 29.4799 116.39 34.8899 113.53C36.9699 112.43 38.3599 110.23 38.8999 107.16L38.9199 107.04L39.0399 107.01C39.5099 106.91 39.9599 106.75 40.3699 106.53C43.5499 104.86 44.5599 100.1 43.3299 94.6399V94.6599Z" fill="#FDE094"/>
<path d="M30.5166 94.5893C30.6926 94.4967 30.6557 94.0809 30.4343 93.6607C30.213 93.2404 29.8909 92.9749 29.715 93.0676C29.5391 93.1602 29.5759 93.576 29.7973 93.9962C30.0187 94.4165 30.3407 94.682 30.5166 94.5893Z" fill="#060606"/>
<path d="M28.0292 117.644C31.0795 116.201 31.9515 111.648 29.9769 107.474C28.0023 103.301 23.9288 101.087 20.8785 102.53C17.8282 103.974 16.9562 108.527 18.9308 112.7C20.9054 116.874 24.9789 119.087 28.0292 117.644Z" fill="white"/>
<path d="M17.9402 110.41C17.6402 109.1 17.6102 107.78 17.8402 106.56C18.2202 104.58 19.2702 103.09 20.8002 102.37C23.9402 100.89 28.1302 103.14 30.1402 107.4C32.1502 111.65 31.2402 116.33 28.1102 117.81C24.9702 119.29 20.7802 117.04 18.7702 112.78C18.4002 112 18.1302 111.2 17.9502 110.4L17.9402 110.41ZM30.6102 109.85C30.4402 109.09 30.1702 108.32 29.8202 107.56C27.8902 103.48 23.9202 101.3 20.9602 102.7C19.5402 103.37 18.5602 104.77 18.2002 106.63C17.8402 108.51 18.1602 110.64 19.1002 112.63C21.0302 116.71 25.0002 118.89 27.9602 117.49C30.3602 116.35 31.3702 113.19 30.6102 109.85Z" fill="#FDE094"/>
<path d="M16.2836 98.6262C19.3339 97.183 20.2059 92.6298 18.2313 88.4562C16.2567 84.2827 12.1832 82.0692 9.1329 83.5124C6.08261 84.9556 5.2106 89.5088 7.18521 93.6824C9.15982 97.8559 13.2333 100.069 16.2836 98.6262Z" fill="white"/>
<path d="M6.19022 91.3794C5.89022 90.0694 5.86022 88.7494 6.09022 87.5394C6.47022 85.5594 7.52022 84.0694 9.05022 83.3494C12.1902 81.8694 16.3802 84.1194 18.3902 88.3794C19.3602 90.4294 19.6902 92.6394 19.3102 94.5994C18.9302 96.5794 17.8802 98.0694 16.3502 98.7894C13.2102 100.269 9.02022 98.0194 7.01022 93.7594C6.64022 92.9794 6.37022 92.1794 6.19022 91.3794ZM18.8602 90.8394C18.6902 90.0694 18.4202 89.2894 18.0602 88.5394C16.1302 84.4594 12.1602 82.2794 9.20022 83.6794C7.78022 84.3494 6.80022 85.7494 6.44022 87.6094C6.08022 89.4894 6.40022 91.6194 7.34022 93.6094C9.27022 97.6894 13.2402 99.8694 16.2002 98.4694C17.6202 97.7994 18.6002 96.3994 18.9602 94.5394C19.1802 93.3694 19.1502 92.1094 18.8602 90.8394Z" fill="#FDE094"/>
<path d="M29.2826 95.2526L29.9683 95.6838C30.1629 95.8063 30.2226 96.0683 30.1002 96.263L29.7647 96.7963C29.5677 97.1095 29.154 97.2037 28.8409 97.0067C28.5277 96.8097 28.4334 96.396 28.6304 96.0828L29.1309 95.2871C29.1629 95.2363 29.2371 95.2122 29.2964 95.2494L29.2826 95.2526Z" fill="#FFB8B8"/>
<path d="M29.0298 96.6303C29.0298 96.6303 29.0298 96.6003 29.0298 96.5803L29.4898 95.8503C29.4898 95.8503 29.5398 95.8103 29.5698 95.8303C29.5998 95.8403 29.6098 95.8803 29.5898 95.9103L29.1298 96.6403C29.1298 96.6403 29.0798 96.6803 29.0498 96.6603C29.0398 96.6603 29.0298 96.6403 29.0298 96.6303Z" fill="#FFE2E1"/>
<path d="M28.1599 93.8898C28.1399 93.8098 28.1799 93.7298 28.2599 93.6898C28.3499 93.6498 28.4499 93.6898 28.4999 93.7798C28.7399 94.2998 29.5599 95.6798 30.3599 95.7698C30.4599 95.7798 30.5299 95.8698 30.5199 95.9698C30.5099 96.0698 30.4199 96.1398 30.3199 96.1298C29.1499 95.9998 28.2099 94.0198 28.1799 93.9398C28.1799 93.9298 28.1699 93.9198 28.1699 93.8998L28.1599 93.8898Z" fill="#060606"/>
<path d="M25.5201 93.5699C27.7071 93.5699 29.4801 91.7969 29.4801 89.6099C29.4801 87.4229 27.7071 85.6499 25.5201 85.6499C23.333 85.6499 21.5601 87.4229 21.5601 89.6099C21.5601 91.7969 23.333 93.5699 25.5201 93.5699Z" fill="#FDE094"/>
<path d="M32.4102 104.74C34.5972 104.74 36.3702 102.967 36.3702 100.78C36.3702 98.5928 34.5972 96.8198 32.4102 96.8198C30.2231 96.8198 28.4502 98.5928 28.4502 100.78C28.4502 102.967 30.2231 104.74 32.4102 104.74Z" fill="#FDE094"/>
<path d="M29.69 91.0996C30.2312 91.0996 30.67 90.6609 30.67 90.1197C30.67 89.5784 30.2312 89.1396 29.69 89.1396C29.1487 89.1396 28.71 89.5784 28.71 90.1197C28.71 90.6609 29.1487 91.0996 29.69 91.0996Z" fill="#060606"/>
<path d="M32.9702 97.3399C33.5115 97.3399 33.9502 96.9011 33.9502 96.3599C33.9502 95.8186 33.5115 95.3799 32.9702 95.3799C32.429 95.3799 31.9902 95.8186 31.9902 96.3599C31.9902 96.9011 32.429 97.3399 32.9702 97.3399Z" fill="#060606"/>
</g>
<path d="M41.6001 70.69C41.0201 70.11 39.7901 70.36 38.5701 71.2C38.3001 69.76 37.6101 68.73 36.7901 68.73C35.7401 68.73 34.8901 70.44 34.8901 72.56C34.8901 74.68 35.6801 76.26 36.6801 76.38C37.5701 76.61 39.0101 75.98 40.2401 74.75C41.7401 73.25 42.3401 71.44 41.6001 70.7V70.69Z" fill="#FDE094"/>
<path d="M18.9101 59.4102C18.5601 59.2102 18.0101 59.4802 17.5401 60.0302C17.2301 59.3802 16.7801 58.9802 16.3901 59.0802C15.8901 59.2102 15.7001 60.1302 15.9701 61.1202C16.2401 62.1102 16.8001 62.7702 17.2901 62.7002C17.7401 62.7002 18.3401 62.2202 18.7701 61.4902C19.2901 60.6002 19.3501 59.6702 18.9101 59.4102Z" fill="#FFBB24"/>
<path d="M27.7299 41.92C27.4799 41.61 26.8699 41.66 26.2299 42C26.1799 41.28 25.8999 40.75 25.4999 40.7C24.9899 40.64 24.4799 41.43 24.3699 42.45C24.2599 43.47 24.5499 44.29 25.0299 44.4C25.4499 44.56 26.1799 44.33 26.8499 43.8C27.6599 43.16 28.0499 42.31 27.7299 41.91V41.92Z" fill="#FFD37B"/>
<path d="M21.86 54.9399C21.82 54.5399 21.28 54.2499 20.56 54.1899C20.91 53.5599 20.97 52.9599 20.66 52.7099C20.27 52.3799 19.41 52.7599 18.75 53.5499C18.09 54.3399 17.89 55.1899 18.23 55.5399C18.49 55.8999 19.23 56.1199 20.08 56.0399C21.11 55.9399 21.9 55.4499 21.86 54.9399Z" fill="#FFD37B"/>
<path d="M23.7 46.91C23.31 46.81 22.86 47.22 22.55 47.87C22.08 47.33 21.53 47.07 21.19 47.27C20.75 47.53 20.81 48.46 21.34 49.35C21.87 50.24 22.59 50.71 23.04 50.52C23.47 50.4 23.92 49.77 24.14 48.95C24.4 47.95 24.21 47.04 23.71 46.91H23.7Z" fill="#FFBB24"/>
<path d="M39.8802 118.73C39.6902 119.08 39.0802 119.13 38.3902 118.9C38.4602 119.61 38.2702 120.19 37.8902 120.3C37.4002 120.44 36.7702 119.75 36.4802 118.76C36.2102 117.8 36.3602 116.92 36.8102 116.73C37.2002 116.5 37.9602 116.61 38.7002 117.02C39.6002 117.52 40.1302 118.29 39.8802 118.74V118.73Z" fill="#FFBB24"/>
<path d="M56.3801 129.28C56.3301 129.68 55.7701 129.94 55.0501 129.98C55.3701 130.62 55.4001 131.23 55.0901 131.47C54.6801 131.78 53.8401 131.36 53.2201 130.54C52.6001 129.72 52.4401 128.87 52.7901 128.53C53.0701 128.18 53.8201 128 54.6601 128.12C55.6801 128.26 56.4601 128.79 56.3901 129.3L56.3801 129.28Z" fill="#FFD37B"/>
<path d="M44.7003 121.07C44.8703 121.43 44.5603 121.96 43.9703 122.38C44.5903 122.74 44.9503 123.23 44.8203 123.6C44.6503 124.08 43.7203 124.19 42.7503 123.85C41.7803 123.51 41.1803 122.88 41.2903 122.4C41.3303 121.95 41.8603 121.39 42.6203 121.03C43.5503 120.59 44.4903 120.6 44.7103 121.07H44.7003Z" fill="#FFD37B"/>
<path d="M50.3803 127.04C50.1003 127.32 49.5003 127.21 48.9003 126.8C48.7703 127.51 48.4303 128.01 48.0403 128.01C47.5303 128.01 47.1103 127.18 47.1003 126.14C47.0903 125.1 47.4803 124.33 47.9703 124.27C48.4003 124.16 49.1103 124.46 49.7103 125.06C50.4403 125.79 50.7503 126.67 50.3803 127.04Z" fill="#FFBB24"/>
<path d="M47.6599 114.67C48.1899 114.25 48.0899 113.22 47.5099 112.14C48.7199 112.04 49.6199 111.57 49.6899 110.9C49.7799 110.04 48.4499 109.19 46.7199 109C44.9899 108.81 43.6199 109.32 43.4299 110.13C43.1699 110.84 43.5499 112.08 44.4499 113.19C45.5399 114.55 46.9799 115.21 47.6499 114.66L47.6599 114.67Z" fill="#FFBB24"/>
</svg>
