<svg width="148" height="148" viewBox="0 0 148 148" fill="none" xmlns="http://www.w3.org/2000/svg">
<g clip-path="url(#clip0_1466_4920)">
<path d="M128.94 10H19.06C14.0563 10 10 14.0563 10 19.06V128.94C10 133.944 14.0563 138 19.06 138H128.94C133.944 138 138 133.944 138 128.94V19.06C138 14.0563 133.944 10 128.94 10Z" fill="#FDD865"/>
<path d="M46.8801 22.5501C44.3001 18.7401 40.2301 16.9901 37.7901 18.6401C37.5701 18.7901 37.3801 18.9601 37.2101 19.1501C34.4101 16.1601 30.32 15.2401 27.47 17.1701C26.24 18.0101 25.4201 19.2501 25.0201 20.7001C23.5301 20.5301 22.0701 20.8301 20.8301 21.6701C17.9801 23.6001 17.3201 27.7401 19.0601 31.4501C18.8201 31.5401 18.5901 31.6501 18.3701 31.8001C15.9301 33.4501 16.0501 37.8801 18.6401 41.6901C20.6901 44.7201 23.6901 46.4401 26.05 46.1901C26.26 46.6901 26.5301 47.1801 26.8401 47.6401C29.3401 51.3301 34.1601 52.4201 37.6101 50.0801C38.6001 49.4101 39.3701 48.5201 39.9001 47.5101C39.9101 47.5001 39.9201 47.4901 39.9301 47.4701C40.3701 46.7801 41.2901 45.6001 42.5701 45.1901C43.7301 44.8101 44.92 44.4901 45.6 44.1101C46.41 43.9101 47.2001 43.5801 47.92 43.0901C51.37 40.7501 52.14 35.8701 49.64 32.1801C49.2901 31.6601 48.8901 31.2001 48.4501 30.7901C49.3601 28.6701 48.8201 25.4401 46.8601 22.5501H46.8801Z" fill="white"/>
<path d="M23.2101 32.4001C23.2101 32.4001 20.1501 29.7401 19.6401 33.4201C19.4101 35.0901 19.7701 36.8201 20.6801 38.2401C21.6401 39.7501 23.3301 41.2001 26.0001 39.9101C30.7501 37.6201 23.2101 32.4001 23.2101 32.4001Z" fill="#FFBB24"/>
<path d="M26.07 24.1001C26.07 24.1001 23.71 20.8001 22.36 24.2601C21.74 25.8301 21.7 27.5901 22.26 29.1901C22.85 30.8801 24.15 32.6801 27.05 32.0401C32.2 30.9101 26.08 24.0901 26.08 24.0901L26.07 24.1001Z" fill="#FFBB24"/>
<path d="M37.2501 23.2999C37.2501 23.2999 36.0201 19.7699 39.3501 20.5899C40.8601 20.9599 42.2101 21.8699 43.1201 23.1299C44.0901 24.4699 44.7501 26.4099 42.7301 28.2599C39.1401 31.5499 37.2501 23.2999 37.2501 23.2999Z" fill="#FFBB24"/>
<path d="M28.3101 22.7702C28.3101 22.7702 26.2901 19.6202 29.7201 19.6402C31.2801 19.6402 32.8001 20.2202 33.9801 21.2402C35.2301 22.3202 36.3201 24.0502 34.7901 26.3202C32.0601 30.3502 28.3101 22.7702 28.3101 22.7702Z" fill="#FFBB24"/>
<path d="M39.6801 30.6101C37.6101 29.4001 34.9401 29.4001 32.8201 30.8401C30.7001 32.2801 29.7201 34.7401 30.0701 37.1001C27.6101 38.8201 26.9701 42.2001 28.6701 44.7001C30.3701 47.2001 33.8001 47.8701 36.3201 46.1701C37.0101 45.7001 37.5501 45.1001 37.9501 44.4301C39.1101 44.3801 40.2701 44.0301 41.3001 43.3301C42.2701 42.6701 43.0001 41.8001 43.4701 40.8101C44.1501 40.6701 44.8201 40.3901 45.4301 39.9801C47.9501 38.2701 48.6001 34.8501 46.9001 32.3301C45.2901 29.9501 42.1501 29.2401 39.6801 30.6001V30.6101Z" fill="#FFBB24"/>
<path d="M68.4001 32.2498C70.4401 30.8598 71.3801 28.6798 70.5001 27.3798C70.4201 27.2598 70.3301 27.1598 70.2301 27.0698C71.8401 25.5698 72.3301 23.3698 71.2901 21.8398C70.8401 21.1798 70.1701 20.7398 69.4001 20.5298C69.4901 19.7298 69.3301 18.9498 68.8801 18.2798C67.8401 16.7498 65.6201 16.3998 63.6301 17.3298C63.5801 17.1998 63.5201 17.0798 63.4401 16.9598C62.5501 15.6498 60.1801 15.7198 58.1401 17.0998C56.5101 18.1998 55.5901 19.8098 55.7301 21.0798C55.4601 21.1898 55.2001 21.3398 54.9501 21.5098C52.9701 22.8498 52.3801 25.4398 53.6401 27.2898C54.0001 27.8198 54.4801 28.2298 55.0201 28.5198C55.0201 28.5198 55.0301 28.5298 55.0401 28.5398C55.4101 28.7798 56.0401 29.2698 56.2601 29.9598C56.4601 30.5798 56.6301 31.2198 56.8401 31.5798C56.9501 32.0198 57.1201 32.4398 57.3901 32.8298C58.6401 34.6798 61.2601 35.0898 63.2401 33.7498C63.5201 33.5598 63.7701 33.3498 63.9901 33.1098C65.1301 33.5998 66.8601 33.3098 68.4101 32.2598L68.4001 32.2498Z" fill="white"/>
<path d="M63.11 19.55C63.11 19.55 64.54 17.91 62.56 17.63C61.66 17.5 60.74 17.7 59.97 18.19C59.16 18.71 58.38 19.61 59.08 21.05C60.31 23.6 63.11 19.55 63.11 19.55Z" fill="#FFBB24"/>
<path d="M67.57 21.0796C67.57 21.0796 69.3401 19.8096 67.4801 19.0896C66.6401 18.7596 65.6901 18.7396 64.8301 19.0396C63.9201 19.3596 62.96 20.0596 63.3 21.6096C63.91 24.3696 67.57 21.0896 67.57 21.0896V21.0796Z" fill="#FFBB24"/>
<path d="M68.0001 27.0899C68.0001 27.0899 69.8901 26.4299 69.4601 28.2099C69.2601 29.0199 68.7801 29.7499 68.1001 30.2299C67.3801 30.7499 66.3401 31.0999 65.3501 30.0199C63.5901 28.0899 68.0101 27.0799 68.0101 27.0799L68.0001 27.0899Z" fill="#FFBB24"/>
<path d="M68.28 22.29C68.28 22.29 69.97 21.21 69.96 23.05C69.96 23.89 69.65 24.7 69.1 25.34C68.52 26.01 67.59 26.6 66.37 25.77C64.21 24.31 68.28 22.29 68.28 22.29Z" fill="#FFBB24"/>
<path d="M64.0701 28.39C64.7201 27.28 64.7201 25.85 63.9501 24.71C63.1801 23.58 61.8601 23.05 60.5901 23.23C59.6701 21.91 57.8501 21.57 56.5101 22.48C55.1701 23.39 54.8101 25.23 55.7201 26.58C55.9701 26.95 56.2901 27.24 56.6501 27.46C56.6701 28.08 56.8601 28.7 57.2401 29.26C57.5901 29.78 58.0601 30.17 58.5901 30.43C58.6701 30.8 58.8101 31.15 59.0401 31.48C59.9601 32.83 61.7901 33.18 63.1401 32.27C64.4101 31.41 64.8001 29.72 64.0701 28.4V28.39Z" fill="#FFBB24"/>
<path d="M26.45 63.66C27.23 62.54 26.96 60.98 25.83 60.19C25.77 60.15 25.7 60.12 25.64 60.08C26.2 58.99 25.9 57.62 24.87 56.9C23.84 56.18 22.45 56.35 21.63 57.26C21.56 57.19 21.49 57.12 21.41 57.07C20.29 56.28 18.74 56.55 17.96 57.67C17.4 58.48 17.39 59.5 17.84 60.31C17.63 60.47 17.43 60.65 17.27 60.88C16.49 62 16.76 63.55 17.89 64.35C18.34 64.67 18.85 64.81 19.36 64.8C19.52 65.28 19.83 65.72 20.28 66.04C21.4 66.83 22.95 66.56 23.73 65.44C23.89 65.2 24 64.95 24.07 64.68C24.97 64.81 25.9 64.46 26.45 63.66Z" fill="#FFF6E1"/>
<path opacity="0.8" d="M22.6237 62.4583C23.3997 62.0969 23.7321 61.1668 23.3661 60.3807C23 59.5947 22.0742 59.2504 21.2982 59.6118C20.5222 59.9732 20.1898 60.9033 20.5558 61.6894C20.9219 62.4754 21.8477 62.8197 22.6237 62.4583Z" fill="#FFBB24"/>
<path d="M81.7999 22.0998C82.2699 21.4198 82.1099 20.4798 81.4299 19.9998C81.3899 19.9698 81.3499 19.9598 81.3199 19.9398C81.6599 19.2798 81.4799 18.4498 80.8499 18.0098C80.2199 17.5698 79.3799 17.6798 78.8799 18.2298C78.8399 18.1898 78.7899 18.1498 78.7399 18.1098C78.0599 17.6298 77.1199 17.7898 76.6499 18.4698C76.3099 18.9598 76.2999 19.5798 76.5799 20.0698C76.4499 20.1598 76.3299 20.2798 76.2299 20.4198C75.7599 21.0998 75.9199 22.0398 76.5999 22.5198C76.8699 22.7098 77.1799 22.7998 77.4899 22.7898C77.5899 23.0798 77.7799 23.3498 78.0499 23.5398C78.7299 24.0198 79.6699 23.8598 80.1399 23.1798C80.2399 23.0398 80.2999 22.8798 80.3499 22.7198C80.8899 22.7998 81.4599 22.5898 81.7999 22.0998Z" fill="#FFEFCF"/>
<path opacity="0.8" d="M79.4743 21.3661C79.9449 21.147 80.1469 20.5837 79.9254 20.1081C79.7039 19.6325 79.1428 19.4246 78.6722 19.6437C78.2016 19.8629 77.9996 20.4261 78.2211 20.9017C78.4426 21.3774 79.0037 21.5853 79.4743 21.3661Z" fill="#FFBB24"/>
<path d="M19.5701 71.7202V73.2202" stroke="white" stroke-miterlimit="10" stroke-linecap="round"/>
<path d="M19.5701 76.3804V125.5" stroke="white" stroke-miterlimit="10" stroke-linecap="round"/>
<path d="M19.5701 127.08V128.58" stroke="white" stroke-miterlimit="10" stroke-linecap="round"/>
<path d="M129.05 18.6899V20.1899" stroke="white" stroke-miterlimit="10" stroke-linecap="round"/>
<path d="M129.05 23.3501V72.4701" stroke="white" stroke-miterlimit="10" stroke-linecap="round"/>
<path d="M129.05 74.0601V75.5601" stroke="white" stroke-miterlimit="10" stroke-linecap="round"/>
<path d="M57.0601 44.7798C58.0321 44.7798 58.82 43.9918 58.82 43.0198C58.82 42.0477 58.0321 41.2598 57.0601 41.2598C56.088 41.2598 55.3 42.0477 55.3 43.0198C55.3 43.9918 56.088 44.7798 57.0601 44.7798Z" fill="white"/>
<path d="M18.6099 50.4601C19.1236 50.4601 19.5399 50.0437 19.5399 49.5301C19.5399 49.0165 19.1236 48.6001 18.6099 48.6001C18.0963 48.6001 17.6799 49.0165 17.6799 49.5301C17.6799 50.0437 18.0963 50.4601 18.6099 50.4601Z" fill="#FFF9EE"/>
<path d="M55.22 15.6001C55.6342 15.6001 55.97 15.2643 55.97 14.8501C55.97 14.4359 55.6342 14.1001 55.22 14.1001C54.8058 14.1001 54.47 14.4359 54.47 14.8501C54.47 15.2643 54.8058 15.6001 55.22 15.6001Z" fill="#FFBB24"/>
</g>
<defs>
<clipPath id="clip0_1466_4920">
<rect width="148" height="148" fill="white"/>
</clipPath>
</defs>
</svg>
