<svg width="148" height="148" viewBox="0 0 148 148" fill="none" xmlns="http://www.w3.org/2000/svg">
<g clip-path="url(#clip0_1466_4963)">
<path d="M128.94 10H19.06C14.0563 10 10 14.0563 10 19.06V128.94C10 133.944 14.0563 138 19.06 138H128.94C133.944 138 138 133.944 138 128.94V19.06C138 14.0563 133.944 10 128.94 10Z" fill="#FFBB24"/>
<path d="M126.97 106.43C129.68 103.07 129.21 100.44 127.27 98.8797C125.33 97.3197 122.66 97.4197 119.95 100.78C117.91 103.31 117.53 107.84 117.46 109.93C117.44 110.51 117.98 110.95 118.55 110.81C120.59 110.3 124.93 108.96 126.97 106.44V106.43Z" fill="#060606"/>
<path d="M98.8901 109.54C97.2101 105.56 98.3901 103.16 100.69 102.2C102.99 101.24 105.52 102.07 107.2 106.04C108.46 109.03 107.58 113.49 107.06 115.52C106.92 116.08 106.28 116.35 105.77 116.06C103.95 115.01 100.15 112.52 98.8901 109.53V109.54Z" fill="#060606"/>
<path d="M124.41 112.51C124.4 112.2 124.35 111.9 124.25 111.61C123.28 108.59 118.19 107.51 112.87 109.21C107.55 110.91 104.01 114.74 104.98 117.76C105.07 118.05 105.21 118.33 105.37 118.58C104.29 120.15 103.88 121.78 104.35 123.27C105.53 126.97 111.77 128.29 118.29 126.21C124.81 124.13 129.13 119.44 127.95 115.74C127.48 114.26 126.19 113.16 124.41 112.51Z" fill="white"/>
<path d="M113.04 127.29C111.72 127.35 110.46 127.26 109.3 127.02C106.63 126.46 104.83 125.14 104.25 123.31C103.79 121.86 104.13 120.23 105.24 118.59C105.08 118.34 104.96 118.08 104.87 117.8C103.89 114.72 107.46 110.82 112.83 109.11C118.2 107.39 123.37 108.5 124.36 111.58C124.45 111.85 124.5 112.14 124.52 112.43C126.37 113.12 127.6 114.25 128.06 115.71C129.26 119.47 124.89 124.22 118.33 126.32C116.54 126.89 114.75 127.22 113.04 127.3V127.29ZM117.17 108.53C115.82 108.59 114.37 108.85 112.9 109.32C107.65 111 104.14 114.77 105.08 117.73C105.17 118.01 105.3 118.27 105.46 118.52L105.5 118.58L105.46 118.64C104.36 120.24 104.01 121.83 104.46 123.23C105.02 124.98 106.75 126.24 109.34 126.79C111.95 127.34 115.12 127.09 118.25 126.1C124.69 124.04 128.99 119.41 127.83 115.77C127.38 114.37 126.18 113.28 124.36 112.61L124.29 112.58V112.5C124.28 112.2 124.23 111.91 124.14 111.63C123.46 109.5 120.65 108.36 117.16 108.52L117.17 108.53Z" fill="#FDE094"/>
<path d="M115.278 116.754C115.562 116.664 115.763 116.496 115.726 116.381C115.689 116.265 115.428 116.245 115.144 116.335C114.86 116.426 114.66 116.593 114.697 116.709C114.734 116.825 114.994 116.845 115.278 116.754Z" fill="#060606"/>
<path d="M125.594 125.489C128.37 124.733 130.173 122.474 129.62 120.444C129.067 118.413 126.369 117.38 123.592 118.136C120.816 118.892 119.013 121.151 119.566 123.181C120.119 125.211 122.818 126.245 125.594 125.489Z" fill="white"/>
<path d="M124.07 125.84C123.23 125.88 122.42 125.76 121.7 125.48C120.53 125.03 119.73 124.22 119.45 123.2C118.88 121.11 120.73 118.79 123.56 118.01C126.39 117.24 129.16 118.31 129.73 120.4C130.3 122.49 128.45 124.81 125.62 125.59C125.1 125.73 124.58 125.81 124.07 125.84ZM125.11 118C124.62 118.02 124.12 118.1 123.62 118.24C120.91 118.98 119.13 121.18 119.67 123.15C119.93 124.1 120.68 124.85 121.78 125.27C122.9 125.7 124.24 125.73 125.56 125.38C128.27 124.64 130.05 122.44 129.51 120.47C129.07 118.87 127.24 117.91 125.11 118.01V118Z" fill="#FDE094"/>
<path d="M112.617 130.616C115.393 129.86 117.196 127.601 116.643 125.571C116.091 123.54 113.392 122.507 110.615 123.263C107.839 124.019 106.036 126.278 106.589 128.308C107.142 130.338 109.841 131.371 112.617 130.616Z" fill="white"/>
<path d="M111.11 130.98C110.27 131.02 109.46 130.9 108.74 130.62C107.57 130.17 106.77 129.36 106.49 128.35C105.92 126.26 107.77 123.94 110.6 123.16C111.97 122.79 113.36 122.83 114.52 123.27C115.69 123.72 116.49 124.53 116.77 125.54C117.34 127.63 115.49 129.95 112.66 130.73C112.14 130.87 111.62 130.95 111.11 130.98ZM112.15 123.14C111.66 123.16 111.15 123.24 110.65 123.38C107.94 124.12 106.16 126.32 106.7 128.29C106.96 129.24 107.71 129.99 108.81 130.41C109.93 130.84 111.27 130.87 112.59 130.51C115.3 129.77 117.08 127.57 116.54 125.6C116.28 124.65 115.53 123.9 114.43 123.48C113.74 123.22 112.96 123.1 112.15 123.14Z" fill="#FDE094"/>
<path d="M116.038 117.194L116.239 116.972C116.394 116.802 116.663 116.789 116.833 116.944L117.01 117.105C117.181 117.26 117.193 117.528 117.039 117.699C116.884 117.869 116.616 117.882 116.445 117.727L116.046 117.364C116.001 117.324 115.991 117.246 116.038 117.194Z" fill="#FFB8B8"/>
<path d="M116.82 117.529C116.82 117.529 116.8 117.529 116.79 117.529L116.39 117.169C116.39 117.169 116.37 117.129 116.39 117.119C116.4 117.109 116.43 117.099 116.44 117.119L116.84 117.479C116.84 117.479 116.86 117.519 116.84 117.529C116.84 117.529 116.83 117.539 116.82 117.539V117.529Z" fill="#FFE2E1"/>
<path d="M115.04 117.76C114.99 117.76 114.94 117.73 114.93 117.68C114.91 117.62 114.95 117.56 115.01 117.54C115.36 117.45 116.29 117.1 116.43 116.61C116.45 116.55 116.51 116.52 116.57 116.54C116.63 116.56 116.66 116.62 116.64 116.68C116.43 117.38 115.12 117.74 115.06 117.76H115.04Z" fill="#060606"/>
<path d="M112.12 121.39C113.484 121.39 114.59 120.284 114.59 118.92C114.59 117.556 113.484 116.45 112.12 116.45C110.756 116.45 109.65 117.556 109.65 118.92C109.65 120.284 110.756 121.39 112.12 121.39Z" fill="#FDE094"/>
<path d="M119.74 118.38C121.104 118.38 122.21 117.274 122.21 115.91C122.21 114.546 121.104 113.44 119.74 113.44C118.376 113.44 117.27 114.546 117.27 115.91C117.27 117.274 118.376 118.38 119.74 118.38Z" fill="#FDE094"/>
<path d="M112.9 117.02C113.237 117.02 113.51 116.747 113.51 116.41C113.51 116.073 113.237 115.8 112.9 115.8C112.563 115.8 112.29 116.073 112.29 116.41C112.29 116.747 112.563 117.02 112.9 117.02Z" fill="#060606"/>
<path d="M117.08 115.69C117.417 115.69 117.69 115.417 117.69 115.08C117.69 114.743 117.417 114.47 117.08 114.47C116.743 114.47 116.47 114.743 116.47 115.08C116.47 115.417 116.743 115.69 117.08 115.69Z" fill="#060606"/>
<path d="M40.3877 48.4099C48.9405 46.0814 54.7272 39.9818 53.3127 34.7861C51.8981 29.5905 43.818 27.2662 35.2651 29.5948C26.7123 31.9234 20.9255 38.0229 22.3401 43.2186C23.7546 48.4143 31.8348 50.7385 40.3877 48.4099Z" fill="#FDE094"/>
<path d="M38.2746 40.6446C41.7277 39.7045 44.0636 37.2403 43.492 35.1408C42.9204 33.0412 39.6577 32.1013 36.2046 33.0414C32.7515 33.9815 30.4155 36.4457 30.9872 38.5453C31.5588 40.6449 34.8215 41.5848 38.2746 40.6446Z" fill="#FFBB24"/>
<path d="M47.5476 23.467L30.3271 21.918L30.0028 25.5234L47.2233 27.0724L47.5476 23.467Z" fill="white"/>
<path d="M47.3201 27.1898L29.8701 25.6198L30.2201 21.7798L47.6701 23.3498L47.3201 27.1898ZM30.1301 25.4098L47.1101 26.9398L47.4101 23.5698L30.4301 22.0398L30.1301 25.4098Z" fill="#FFE2E1"/>
<path d="M30.7901 20.1298C30.7901 20.1298 27.7001 15.6498 31.3701 13.6098C35.0401 11.5598 30.7901 20.1298 30.7901 20.1298Z" fill="#060606"/>
<path d="M31.1499 19.4996C31.1499 19.4996 35.3799 19.5196 35.0799 16.2596C34.7799 12.9996 31.1499 19.4996 31.1499 19.4996Z" fill="#060606"/>
<path d="M25.5 32.6097C23.06 36.3897 20.3 36.7797 18.12 35.3797C15.94 33.9797 15.17 31.2997 17.61 27.5197C19.45 24.6797 23.8 22.8197 25.86 22.0697C26.43 21.8597 27.04 22.2597 27.08 22.8597C27.24 25.0397 27.34 29.7797 25.5 32.6197V32.6097Z" fill="#060606"/>
<path d="M44.9101 27.3795C48.9201 29.4195 51.5001 28.3695 52.6801 26.0595C53.8601 23.7495 53.1801 21.0395 49.1701 18.9995C46.1601 17.4695 41.4501 18.0495 39.3001 18.4395C38.7101 18.5495 38.3801 19.1895 38.6401 19.7395C39.6001 21.7095 41.9001 25.8495 44.9101 27.3795Z" fill="#060606"/>
<path d="M43.58 22.5295C43.58 22.2095 43.54 21.8995 43.46 21.5895C42.6 18.3895 37.34 17.0295 31.72 18.5495C26.1 20.0695 22.24 23.8895 23.1 27.0795C23.18 27.3895 23.31 27.6795 23.47 27.9595C22.27 29.5395 21.77 31.2295 22.19 32.7895C23.24 36.6995 29.68 38.3695 36.56 36.5095C43.44 34.6495 48.17 29.9795 47.11 26.0695C46.69 24.5095 45.4 23.2995 43.58 22.5395V22.5295Z" fill="white"/>
<path d="M31.0401 37.3798C29.6601 37.3798 28.3501 37.2298 27.1601 36.9198C24.4001 36.2098 22.6001 34.7498 22.0701 32.8098C21.6601 31.2798 22.0901 29.5898 23.3201 27.9398C23.1701 27.6698 23.0501 27.3898 22.9801 27.0998C22.1001 23.8498 26.0101 19.9498 31.6901 18.4198C37.3701 16.8898 42.7001 18.2898 43.5801 21.5398C43.6601 21.8298 43.7001 22.1298 43.7001 22.4398C45.6001 23.2498 46.8201 24.4898 47.2301 26.0198C48.3001 29.9898 43.5301 34.7398 36.5901 36.6098C34.7001 37.1198 32.8101 37.3798 31.0401 37.3798ZM36.2301 18.0398C34.8201 18.0398 33.3001 18.2398 31.7501 18.6598C26.2001 20.1598 22.3701 23.9198 23.2101 27.0498C23.2901 27.3398 23.4101 27.6198 23.5701 27.8998L23.6101 27.9698L23.5601 28.0298C22.3401 29.6398 21.9001 31.2798 22.3001 32.7598C22.8001 34.6098 24.5401 36.0098 27.2201 36.6998C29.9201 37.3998 33.2201 37.2898 36.5301 36.3998C43.3401 34.5598 48.0401 29.9398 47.0001 26.0998C46.6001 24.6198 45.4001 23.4298 43.5301 22.6398L43.4601 22.6098V22.5298C43.4601 22.2198 43.4201 21.9098 43.3501 21.6198C42.7401 19.3698 39.8701 18.0498 36.2301 18.0498V18.0398Z" fill="#FDE094"/>
<path d="M33.8709 26.523C34.1695 26.4424 34.3848 26.2777 34.3517 26.1551C34.3186 26.0325 34.0498 25.9983 33.7511 26.0788C33.4525 26.1593 33.2373 26.324 33.2703 26.4467C33.3034 26.5693 33.5723 26.6035 33.8709 26.523Z" fill="#060606"/>
<path d="M34.61 27.0597C34.35 27.1297 34.15 27.1097 33.99 26.9897C33.7 26.7897 33.72 26.3697 33.72 26.3597C33.72 26.2797 33.79 26.2197 33.87 26.2197C33.95 26.2197 34.01 26.2897 34.01 26.3697C34.01 26.4497 34.03 26.6597 34.16 26.7497C34.29 26.8397 34.52 26.7897 34.68 26.7197C34.75 26.6897 34.84 26.7197 34.87 26.7997C34.9 26.8797 34.87 26.9597 34.79 26.9897C34.73 27.0097 34.67 27.0297 34.62 27.0497L34.61 27.0597Z" fill="#060606"/>
<path d="M33.51 27.3996C33.45 27.4096 33.4 27.4296 33.33 27.4396C33.25 27.4496 33.17 27.3996 33.16 27.3196C33.15 27.2396 33.2 27.1596 33.28 27.1496C33.45 27.1196 33.67 27.0596 33.74 26.9096C33.81 26.7696 33.72 26.5696 33.68 26.4996C33.64 26.4296 33.66 26.3396 33.73 26.2996C33.8 26.2596 33.89 26.2796 33.93 26.3396C33.93 26.3496 34.16 26.6996 34.01 27.0196C33.93 27.1996 33.76 27.3196 33.5 27.3896L33.51 27.3996Z" fill="#060606"/>
<path d="M30.5701 31.0699C31.9177 31.0699 33.0101 29.9775 33.0101 28.6299C33.0101 27.2824 31.9177 26.1899 30.5701 26.1899C29.2226 26.1899 28.1301 27.2824 28.1301 28.6299C28.1301 29.9775 29.2226 31.0699 30.5701 31.0699Z" fill="#FDE094"/>
<path d="M37.7 29.1398C39.0476 29.1398 40.14 28.0473 40.14 26.6998C40.14 25.3522 39.0476 24.2598 37.7 24.2598C36.3524 24.2598 35.26 25.3522 35.26 26.6998C35.26 28.0473 36.3524 29.1398 37.7 29.1398Z" fill="#FDE094"/>
<path d="M31.41 26.6799C31.7635 26.6799 32.05 26.3934 32.05 26.0399C32.05 25.6864 31.7635 25.3999 31.41 25.3999C31.0566 25.3999 30.77 25.6864 30.77 26.0399C30.77 26.3934 31.0566 26.6799 31.41 26.6799Z" fill="#060606"/>
<path d="M35.8299 25.49C36.1834 25.49 36.4699 25.2034 36.4699 24.85C36.4699 24.4965 36.1834 24.21 35.8299 24.21C35.4765 24.21 35.1899 24.4965 35.1899 24.85C35.1899 25.2034 35.4765 25.49 35.8299 25.49Z" fill="#060606"/>
<path d="M44.1903 36.1006C47.1221 35.4442 49.1105 33.1776 48.6315 31.038C48.1525 28.8984 45.3874 27.696 42.4555 28.3525C39.5237 29.0089 37.5353 31.2755 38.0144 33.4151C38.4934 35.5547 41.2585 36.7571 44.1903 36.1006Z" fill="white"/>
<path d="M42.5899 36.39C41.7099 36.39 40.8799 36.23 40.1399 35.91C38.9399 35.39 38.1399 34.51 37.8999 33.43C37.4099 31.23 39.4399 28.89 42.4299 28.22C43.8699 27.9 45.3199 28 46.5099 28.52C47.7099 29.04 48.5099 29.92 48.7499 31C48.9899 32.07 48.6499 33.21 47.7799 34.19C46.9299 35.17 45.6599 35.88 44.2199 36.2C43.6699 36.32 43.1299 36.38 42.5899 36.38V36.39ZM44.0499 28.28C43.5299 28.28 42.9999 28.34 42.4799 28.46C39.6199 29.1 37.6699 31.31 38.1299 33.38C38.3499 34.38 39.0999 35.2 40.2299 35.69C41.3699 36.19 42.7699 36.29 44.1599 35.98C45.5499 35.67 46.7699 34.98 47.5899 34.04C48.3999 33.11 48.7299 32.05 48.4999 31.05C48.2799 30.05 47.5299 29.23 46.3999 28.74C45.6899 28.43 44.8799 28.27 44.0399 28.27L44.0499 28.28Z" fill="#FDE094"/>
<path d="M30.4479 40.8379C33.3797 40.1815 35.3681 37.9149 34.8891 35.7753C34.41 33.6357 31.645 32.4333 28.7131 33.0898C25.7813 33.7462 23.7929 36.0128 24.2719 38.1524C24.751 40.292 27.516 41.4944 30.4479 40.8379Z" fill="white"/>
<path d="M28.8499 41.1299C27.9699 41.1299 27.1399 40.9699 26.3999 40.6399C25.1999 40.1199 24.3999 39.2399 24.1599 38.1599C23.6699 35.9599 25.6999 33.6199 28.6899 32.9499C31.6699 32.2799 34.5099 33.5299 34.9999 35.7299C35.4899 37.9299 33.4599 40.2699 30.4699 40.9399C29.9199 41.0599 29.3799 41.1199 28.8399 41.1199L28.8499 41.1299ZM30.2999 33.0199C29.7899 33.0199 29.2699 33.0799 28.7299 33.1999C25.8699 33.8399 23.9199 36.0499 24.3799 38.1199C24.5999 39.1199 25.3499 39.9399 26.4799 40.4299C27.6199 40.9299 29.0199 41.0299 30.4099 40.7199C33.2699 40.0799 35.2199 37.8699 34.7599 35.7999C34.3799 34.1099 32.5199 33.0199 30.2899 33.0199H30.2999Z" fill="#FDE094"/>
<path d="M58.3799 18.8696C58.3799 18.8696 58.2899 18.8696 58.2499 18.8696C56.9399 18.8696 55.8799 19.9196 55.8699 21.2296C55.8699 22.5396 56.9199 23.5996 58.2299 23.6096C58.9299 23.6096 59.5599 23.3096 59.9999 22.8296L65.5999 28.4796C65.1099 28.9096 64.7999 29.5396 64.7999 30.2396C64.7999 31.5496 65.8499 32.6096 67.1599 32.6196C68.4699 32.6296 69.5299 31.5696 69.5399 30.2596C69.5399 30.2196 69.5399 30.1696 69.5399 30.1296C69.5799 30.1296 69.6299 30.1296 69.6699 30.1296C70.9799 30.1296 72.0399 29.0796 72.0499 27.7696C72.0499 26.4597 70.9999 25.3996 69.6899 25.3896C68.9699 25.3896 68.3199 25.7096 67.8899 26.2096L62.2899 20.5596C62.7999 20.1296 63.1199 19.4896 63.1299 18.7696C63.1299 17.4596 62.0799 16.3996 60.7699 16.3896C59.4599 16.3896 58.3999 17.4396 58.3899 18.7496C58.3899 18.7896 58.3899 18.8396 58.3899 18.8796L58.3799 18.8696Z" fill="#FEFEFE"/>
<path d="M89.0399 130.42C89.0399 130.42 89.0199 130.49 89.0099 130.53C88.7599 131.59 89.4199 132.65 90.4799 132.9C91.5399 133.15 92.5999 132.49 92.8499 131.43C92.9799 130.86 92.8499 130.3 92.5399 129.85L98.1599 126.35C98.4199 126.82 98.8699 127.19 99.4399 127.32C100.5 127.57 101.56 126.91 101.81 125.85C102.06 124.79 101.4 123.73 100.34 123.48C100.3 123.48 100.27 123.47 100.23 123.46C100.24 123.42 100.25 123.39 100.26 123.35C100.51 122.29 99.8499 121.23 98.7899 120.98C97.7299 120.73 96.6699 121.39 96.4199 122.45C96.2799 123.03 96.4199 123.62 96.7499 124.06L91.1299 127.56C90.8699 127.07 90.4099 126.68 89.8299 126.55C88.7699 126.3 87.7099 126.96 87.4599 128.02C87.2099 129.08 87.8699 130.14 88.9299 130.39C88.9699 130.39 88.9999 130.4 89.0399 130.41V130.42Z" fill="#FEFEFE"/>
<path d="M74.6199 21.9898C75.2827 21.9898 75.8199 21.4526 75.8199 20.7898C75.8199 20.1271 75.2827 19.5898 74.6199 19.5898C73.9572 19.5898 73.4199 20.1271 73.4199 20.7898C73.4199 21.4526 73.9572 21.9898 74.6199 21.9898Z" fill="#FDE094"/>
<path d="M78.7901 21.9898C79.4528 21.9898 79.9901 21.4526 79.9901 20.7898C79.9901 20.1271 79.4528 19.5898 78.7901 19.5898C78.1274 19.5898 77.5901 20.1271 77.5901 20.7898C77.5901 21.4526 78.1274 21.9898 78.7901 21.9898Z" fill="#FDE094"/>
<path d="M82.96 21.9898C83.6227 21.9898 84.16 21.4526 84.16 20.7898C84.16 20.1271 83.6227 19.5898 82.96 19.5898C82.2973 19.5898 81.76 20.1271 81.76 20.7898C81.76 21.4526 82.2973 21.9898 82.96 21.9898Z" fill="#FDE094"/>
<path d="M87.1399 21.9898C87.8027 21.9898 88.3399 21.4526 88.3399 20.7898C88.3399 20.1271 87.8027 19.5898 87.1399 19.5898C86.4772 19.5898 85.9399 20.1271 85.9399 20.7898C85.9399 21.4526 86.4772 21.9898 87.1399 21.9898Z" fill="#FDE094"/>
<path d="M91.3099 21.9898C91.9726 21.9898 92.5099 21.4526 92.5099 20.7898C92.5099 20.1271 91.9726 19.5898 91.3099 19.5898C90.6471 19.5898 90.1099 20.1271 90.1099 20.7898C90.1099 21.4526 90.6471 21.9898 91.3099 21.9898Z" fill="#FDE094"/>
<path d="M95.48 21.9898C96.1428 21.9898 96.68 21.4526 96.68 20.7898C96.68 20.1271 96.1428 19.5898 95.48 19.5898C94.8173 19.5898 94.28 20.1271 94.28 20.7898C94.28 21.4526 94.8173 21.9898 95.48 21.9898Z" fill="#FDE094"/>
<path d="M99.66 21.9898C100.323 21.9898 100.86 21.4526 100.86 20.7898C100.86 20.1271 100.323 19.5898 99.66 19.5898C98.9972 19.5898 98.46 20.1271 98.46 20.7898C98.46 21.4526 98.9972 21.9898 99.66 21.9898Z" fill="#FDE094"/>
<path d="M103.83 21.9898C104.493 21.9898 105.03 21.4526 105.03 20.7898C105.03 20.1271 104.493 19.5898 103.83 19.5898C103.167 19.5898 102.63 20.1271 102.63 20.7898C102.63 21.4526 103.167 21.9898 103.83 21.9898Z" fill="#FDE094"/>
<path d="M108.01 21.9898C108.673 21.9898 109.21 21.4526 109.21 20.7898C109.21 20.1271 108.673 19.5898 108.01 19.5898C107.347 19.5898 106.81 20.1271 106.81 20.7898C106.81 21.4526 107.347 21.9898 108.01 21.9898Z" fill="#FDE094"/>
<path d="M112.18 21.9898C112.843 21.9898 113.38 21.4526 113.38 20.7898C113.38 20.1271 112.843 19.5898 112.18 19.5898C111.517 19.5898 110.98 20.1271 110.98 20.7898C110.98 21.4526 111.517 21.9898 112.18 21.9898Z" fill="#FDE094"/>
<path d="M116.35 21.9898C117.013 21.9898 117.55 21.4526 117.55 20.7898C117.55 20.1271 117.013 19.5898 116.35 19.5898C115.687 19.5898 115.15 20.1271 115.15 20.7898C115.15 21.4526 115.687 21.9898 116.35 21.9898Z" fill="#FDE094"/>
<path d="M120.53 21.9898C121.193 21.9898 121.73 21.4526 121.73 20.7898C121.73 20.1271 121.193 19.5898 120.53 19.5898C119.867 19.5898 119.33 20.1271 119.33 20.7898C119.33 21.4526 119.867 21.9898 120.53 21.9898Z" fill="#FDE094"/>
<path d="M124.7 21.9898C125.363 21.9898 125.9 21.4526 125.9 20.7898C125.9 20.1271 125.363 19.5898 124.7 19.5898C124.037 19.5898 123.5 20.1271 123.5 20.7898C123.5 21.4526 124.037 21.9898 124.7 21.9898Z" fill="#FDE094"/>
<path d="M128.88 21.9898C129.543 21.9898 130.08 21.4526 130.08 20.7898C130.08 20.1271 129.543 19.5898 128.88 19.5898C128.217 19.5898 127.68 20.1271 127.68 20.7898C127.68 21.4526 128.217 21.9898 128.88 21.9898Z" fill="#FDE094"/>
<path d="M21.69 129.71C22.3527 129.71 22.89 129.172 22.89 128.51C22.89 127.847 22.3527 127.31 21.69 127.31C21.0272 127.31 20.49 127.847 20.49 128.51C20.49 129.172 21.0272 129.71 21.69 129.71Z" fill="#FDE094"/>
<path d="M25.8599 129.71C26.5227 129.71 27.0599 129.172 27.0599 128.51C27.0599 127.847 26.5227 127.31 25.8599 127.31C25.1972 127.31 24.6599 127.847 24.6599 128.51C24.6599 129.172 25.1972 129.71 25.8599 129.71Z" fill="#FDE094"/>
<path d="M30.0301 129.71C30.6928 129.71 31.2301 129.172 31.2301 128.51C31.2301 127.847 30.6928 127.31 30.0301 127.31C29.3673 127.31 28.8301 127.847 28.8301 128.51C28.8301 129.172 29.3673 129.71 30.0301 129.71Z" fill="#FDE094"/>
<path d="M34.21 129.71C34.8728 129.71 35.41 129.172 35.41 128.51C35.41 127.847 34.8728 127.31 34.21 127.31C33.5473 127.31 33.01 127.847 33.01 128.51C33.01 129.172 33.5473 129.71 34.21 129.71Z" fill="#FDE094"/>
<path d="M38.3799 129.71C39.0427 129.71 39.5799 129.172 39.5799 128.51C39.5799 127.847 39.0427 127.31 38.3799 127.31C37.7172 127.31 37.1799 127.847 37.1799 128.51C37.1799 129.172 37.7172 129.71 38.3799 129.71Z" fill="#FDE094"/>
<path d="M42.5601 129.71C43.2228 129.71 43.7601 129.172 43.7601 128.51C43.7601 127.847 43.2228 127.31 42.5601 127.31C41.8974 127.31 41.3601 127.847 41.3601 128.51C41.3601 129.172 41.8974 129.71 42.5601 129.71Z" fill="#FDE094"/>
<path d="M46.73 129.71C47.3928 129.71 47.93 129.172 47.93 128.51C47.93 127.847 47.3928 127.31 46.73 127.31C46.0673 127.31 45.53 127.847 45.53 128.51C45.53 129.172 46.0673 129.71 46.73 129.71Z" fill="#FDE094"/>
<path d="M50.9 129.71C51.5627 129.71 52.0999 129.172 52.0999 128.51C52.0999 127.847 51.5627 127.31 50.9 127.31C50.2372 127.31 49.7 127.847 49.7 128.51C49.7 129.172 50.2372 129.71 50.9 129.71Z" fill="#FDE094"/>
<path d="M55.0799 129.71C55.7426 129.71 56.2799 129.172 56.2799 128.51C56.2799 127.847 55.7426 127.31 55.0799 127.31C54.4171 127.31 53.8799 127.847 53.8799 128.51C53.8799 129.172 54.4171 129.71 55.0799 129.71Z" fill="#FDE094"/>
<path d="M59.25 129.71C59.9128 129.71 60.4501 129.172 60.4501 128.51C60.4501 127.847 59.9128 127.31 59.25 127.31C58.5873 127.31 58.05 127.847 58.05 128.51C58.05 129.172 58.5873 129.71 59.25 129.71Z" fill="#FDE094"/>
<path d="M63.43 129.71C64.0927 129.71 64.63 129.172 64.63 128.51C64.63 127.847 64.0927 127.31 63.43 127.31C62.7672 127.31 62.23 127.847 62.23 128.51C62.23 129.172 62.7672 129.71 63.43 129.71Z" fill="#FDE094"/>
<path d="M67.5999 129.71C68.2626 129.71 68.7999 129.172 68.7999 128.51C68.7999 127.847 68.2626 127.31 67.5999 127.31C66.9372 127.31 66.3999 127.847 66.3999 128.51C66.3999 129.172 66.9372 129.71 67.5999 129.71Z" fill="#FDE094"/>
<path d="M71.7701 129.71C72.4328 129.71 72.9701 129.172 72.9701 128.51C72.9701 127.847 72.4328 127.31 71.7701 127.31C71.1073 127.31 70.5701 127.847 70.5701 128.51C70.5701 129.172 71.1073 129.71 71.7701 129.71Z" fill="#FDE094"/>
<path d="M75.95 129.71C76.6127 129.71 77.15 129.172 77.15 128.51C77.15 127.847 76.6127 127.31 75.95 127.31C75.2873 127.31 74.75 127.847 74.75 128.51C74.75 129.172 75.2873 129.71 75.95 129.71Z" fill="#FDE094"/>
<path d="M18.58 22.6599L18.62 21.4799L17.99 20.4799L19.17 20.5199L20.17 19.8999L20.12 21.0699L20.75 22.0699L19.57 22.0299L18.58 22.6599Z" fill="#FFF8E9"/>
<path d="M53.04 30.6796V29.7896L52.54 29.0495H53.43L54.17 28.5396V29.4396L54.68 30.1796H53.78L53.04 30.6796Z" fill="#FFE394"/>
<path d="M19.11 45.2399L17.28 44.8399L15.54 45.5499L15.94 43.7199L15.23 41.9799L17.06 42.3799L18.79 41.6699L18.4 43.4999L19.11 45.2399Z" fill="#FFEBC0"/>
<path d="M127.86 109.24L129.27 108.79L130.18 107.62L130.63 109.03L131.8 109.94L130.39 110.39L129.48 111.56L129.03 110.15L127.86 109.24Z" fill="#FFE394"/>
<path d="M105.62 133L104.66 132.57L103.62 132.76L104.05 131.79L103.86 130.76L104.82 131.18L105.86 130.99L105.43 131.96L105.62 133Z" fill="#FFF9EB"/>
</g>
<defs>
<clipPath id="clip0_1466_4963">
<rect width="148" height="148" fill="white"/>
</clipPath>
</defs>
</svg>
