<svg width="148" height="148" viewBox="0 0 148 148" fill="none" xmlns="http://www.w3.org/2000/svg">
<g clip-path="url(#clip0_1466_4881)">
<path d="M138 51.57C138 28.61 119.39 10 96.43 10C88.16 10 80.47 12.42 74 16.58C67.53 12.42 59.83 10 51.57 10C28.61 10 10 28.61 10 51.57C10 59.84 12.42 67.53 16.58 74C12.42 80.47 10 88.17 10 96.43C10 119.39 28.61 138 51.57 138C59.84 138 67.53 135.58 74 131.42C80.47 135.58 88.17 138 96.43 138C119.39 138 138 119.39 138 96.43C138 88.16 135.58 80.47 131.42 74C135.58 67.53 138 59.83 138 51.57Z" fill="#FFCB39"/>
<path d="M78.4901 26.9001C77.2601 25.0801 75.3201 24.2501 74.1601 25.0401C74.0601 25.1101 73.9701 25.1901 73.8801 25.2801C72.5501 23.8501 70.6001 23.4201 69.2401 24.3401C68.6501 24.7401 68.2601 25.3301 68.0701 26.0201C67.3601 25.9401 66.6601 26.0801 66.0801 26.4801C64.7201 27.4001 64.4101 29.3701 65.2401 31.1401C65.1301 31.1801 65.0101 31.2401 64.9101 31.3101C63.7501 32.1001 63.8101 34.2101 65.0401 36.0201C66.0201 37.4601 67.4401 38.2801 68.5701 38.1601C68.6701 38.4001 68.8001 38.6301 68.9501 38.8501C70.1401 40.6101 72.4401 41.1301 74.0801 40.0101C74.5501 39.6901 74.9201 39.2601 75.1701 38.7801C75.1701 38.7801 75.1801 38.7701 75.1901 38.7601C75.4001 38.4301 75.8401 37.8701 76.4501 37.6701C77.0001 37.4901 77.5701 37.3401 77.8901 37.1501C78.2801 37.0601 78.6501 36.9001 79.0001 36.6601C80.6401 35.5501 81.0101 33.2201 79.8201 31.4601C79.6501 31.2101 79.4601 30.9901 79.2501 30.8001C79.6801 29.7901 79.4301 28.2501 78.4901 26.8701V26.9001Z" fill="white"/>
<path d="M67.21 31.5901C67.21 31.5901 65.75 30.3201 65.51 32.0801C65.4 32.8801 65.57 33.7001 66.01 34.3801C66.47 35.1001 67.27 35.7901 68.55 35.1701C70.81 34.0801 67.22 31.5901 67.22 31.5901H67.21Z" fill="#FFBB24"/>
<path d="M68.57 27.64C68.57 27.64 67.45 26.07 66.8 27.72C66.51 28.47 66.49 29.31 66.75 30.07C67.03 30.88 67.65 31.73 69.03 31.43C71.49 30.89 68.57 27.64 68.57 27.64Z" fill="#FFBB24"/>
<path d="M73.9 27.2599C73.9 27.2599 73.31 25.5799 74.9 25.9699C75.62 26.1499 76.26 26.5799 76.7 27.1799C77.16 27.8199 77.48 28.7399 76.51 29.6199C74.8 31.1899 73.9 27.2599 73.9 27.2599Z" fill="#FFBB24"/>
<path d="M69.6399 26.9998C69.6399 26.9998 68.6799 25.4998 70.3099 25.5098C71.0499 25.5098 71.7799 25.7798 72.3399 26.2698C72.9399 26.7898 73.4599 27.6098 72.7299 28.6898C71.4299 30.6098 69.6399 26.9998 69.6399 26.9998Z" fill="#FFBB24"/>
<path d="M75.0602 30.74C74.0702 30.16 72.8002 30.16 71.7902 30.85C70.7802 31.54 70.3102 32.71 70.4802 33.83C69.3102 34.65 69.0002 36.26 69.8102 37.45C70.6202 38.64 72.2502 38.96 73.4502 38.15C73.7802 37.93 74.0402 37.64 74.2302 37.32C74.7802 37.3 75.3402 37.13 75.8302 36.8C76.2902 36.49 76.6402 36.07 76.8702 35.6C77.1902 35.53 77.5102 35.4 77.8002 35.2C79.0002 34.39 79.3102 32.76 78.5002 31.56C77.7302 30.43 76.2402 30.09 75.0602 30.74Z" fill="#FFBB24"/>
<path d="M85.58 27.8298C86.29 27.4298 86.66 26.7498 86.4 26.2898C86.38 26.2498 86.35 26.2098 86.32 26.1798C86.89 25.7298 87.11 25.0298 86.81 24.4998C86.68 24.2698 86.48 24.1098 86.23 24.0198C86.28 23.7598 86.25 23.4998 86.12 23.2698C85.82 22.7398 85.11 22.5598 84.43 22.8098C84.42 22.7698 84.4 22.7198 84.38 22.6798C84.13 22.2298 83.35 22.1798 82.64 22.5798C82.08 22.8898 81.73 23.3898 81.74 23.8098C81.65 23.8398 81.56 23.8798 81.47 23.9298C80.78 24.3098 80.52 25.1398 80.88 25.7798C80.98 25.9598 81.13 26.1098 81.3 26.2198C81.41 26.3098 81.61 26.4898 81.66 26.7198C81.71 26.9298 81.75 27.1398 81.8 27.2698C81.82 27.4198 81.87 27.5598 81.94 27.6898C82.3 28.3298 83.14 28.5398 83.83 28.1598C83.93 28.1098 84.01 28.0398 84.09 27.9698C84.45 28.1598 85.02 28.1198 85.56 27.8198L85.58 27.8298Z" fill="white"/>
<path d="M84.2101 23.5297C84.2101 23.5297 84.7201 23.0297 84.0901 22.8897C83.8001 22.8197 83.4901 22.8597 83.2301 22.9997C82.9501 23.1497 82.6701 23.4197 82.8601 23.9097C83.1901 24.7797 84.2201 23.5297 84.2201 23.5297H84.2101Z" fill="#FFBB24"/>
<path d="M85.6199 24.1596C85.6199 24.1596 86.2299 23.7996 85.6499 23.5096C85.3799 23.3796 85.0699 23.3396 84.7899 23.4196C84.4799 23.4996 84.1499 23.6996 84.2199 24.2196C84.3399 25.1396 85.6299 24.1696 85.6299 24.1696L85.6199 24.1596Z" fill="#FFBB24"/>
<path d="M85.5899 26.1301C85.5899 26.1301 86.2299 25.9701 86.0299 26.5401C85.9399 26.8001 85.7599 27.0201 85.5299 27.1601C85.2799 27.3101 84.9299 27.4001 84.6399 27.0101C84.1199 26.3301 85.5899 26.1201 85.5899 26.1201V26.1301Z" fill="#FFBB24"/>
<path d="M85.82 24.5698C85.82 24.5698 86.4 24.2598 86.35 24.8598C86.32 25.1298 86.2 25.3898 86.01 25.5798C85.8 25.7798 85.48 25.9498 85.11 25.6498C84.44 25.1098 85.83 24.5698 85.83 24.5698H85.82Z" fill="#FFBB24"/>
<path d="M84.2699 26.4498C84.5099 26.0998 84.5499 25.6398 84.3299 25.2398C84.1099 24.8398 83.6899 24.6398 83.2699 24.6598C83.0099 24.1998 82.4199 24.0398 81.9599 24.2998C81.4999 24.5598 81.3199 25.1498 81.5899 25.6198C81.6599 25.7498 81.7599 25.8498 81.8699 25.9298C81.8699 26.1298 81.8999 26.3398 82.0099 26.5298C82.1099 26.7098 82.2499 26.8498 82.4199 26.9498C82.4299 27.0698 82.4699 27.1898 82.5399 27.3098C82.7999 27.7798 83.3899 27.9498 83.8599 27.6798C84.2999 27.4298 84.4699 26.8898 84.2699 26.4398V26.4498Z" fill="#FFBB24"/>
<path d="M91.65 19.09C91.99 18.61 91.87 17.94 91.39 17.6C91.36 17.58 91.34 17.57 91.31 17.55C91.55 17.08 91.42 16.49 90.98 16.18C90.54 15.87 89.94 15.94 89.59 16.34C89.56 16.31 89.53 16.28 89.49 16.26C89.01 15.92 88.35 16.04 88.01 16.52C87.77 16.87 87.77 17.31 87.96 17.65C87.87 17.72 87.78 17.8 87.71 17.9C87.37 18.38 87.49 19.05 87.97 19.39C88.16 19.53 88.38 19.59 88.6 19.58C88.67 19.79 88.8 19.98 88.99 20.11C89.47 20.45 90.13 20.33 90.47 19.85C90.54 19.75 90.59 19.64 90.62 19.53C91.01 19.59 91.41 19.43 91.64 19.09H91.65Z" fill="#FFF6E1"/>
<path opacity="0.8" d="M89.9892 18.5779C90.3247 18.4217 90.4699 18.0231 90.3137 17.6877C90.1575 17.3523 89.759 17.207 89.4235 17.3632C89.0881 17.5194 88.9428 17.9179 89.099 18.2534C89.2552 18.5888 89.6538 18.7341 89.9892 18.5779Z" fill="#FFBB24"/>
<path d="M50.14 18.09C50.48 17.61 50.36 16.94 49.88 16.6C49.85 16.58 49.83 16.57 49.8 16.55C50.04 16.08 49.91 15.49 49.47 15.18C49.03 14.87 48.43 14.94 48.08 15.34C48.05 15.31 48.02 15.28 47.98 15.26C47.5 14.92 46.84 15.04 46.5 15.52C46.26 15.87 46.26 16.31 46.45 16.65C46.36 16.72 46.27 16.8 46.2 16.9C45.86 17.38 45.98 18.05 46.46 18.39C46.65 18.53 46.87 18.59 47.09 18.58C47.16 18.79 47.29 18.98 47.48 19.11C47.96 19.45 48.62 19.33 48.96 18.85C49.03 18.75 49.08 18.64 49.11 18.53C49.5 18.59 49.9 18.43 50.13 18.09H50.14Z" fill="#FFF6E1"/>
<path opacity="0.8" d="M48.496 17.5706C48.8315 17.4144 48.9768 17.0158 48.8206 16.6804C48.6644 16.3449 48.2658 16.1996 47.9304 16.3558C47.5949 16.512 47.4496 16.9106 47.6058 17.246C47.762 17.5815 48.1606 17.7268 48.496 17.5706Z" fill="#FFBB24"/>
<path d="M54.12 18.8202C54.5784 18.8202 54.95 18.4486 54.95 17.9902C54.95 17.5318 54.5784 17.1602 54.12 17.1602C53.6616 17.1602 53.29 17.5318 53.29 17.9902C53.29 18.4486 53.6616 18.8202 54.12 18.8202Z" fill="#FFF6E1"/>
<path d="M57.73 20.9102C57.73 20.9102 57.7 20.9202 57.68 20.9302C57.18 21.1202 56.93 21.6702 57.12 22.1702C57.31 22.6702 57.86 22.9202 58.36 22.7302C58.63 22.6302 58.82 22.4202 58.92 22.1802L61.87 23.5102C61.75 23.7402 61.72 24.0302 61.82 24.2902C62.01 24.7902 62.56 25.0402 63.06 24.8502C63.56 24.6602 63.81 24.1102 63.62 23.6102C63.62 23.5902 63.61 23.5802 63.6 23.5602C63.62 23.5602 63.63 23.5502 63.65 23.5402C64.15 23.3502 64.4 22.8002 64.21 22.3002C64.02 21.8002 63.47 21.5502 62.97 21.7402C62.7 21.8402 62.5 22.0602 62.41 22.3102L59.46 20.9802C59.59 20.7402 59.62 20.4502 59.52 20.1802C59.33 19.6802 58.78 19.4302 58.28 19.6202C57.78 19.8102 57.53 20.3602 57.72 20.8602C57.72 20.8802 57.73 20.8902 57.74 20.9102H57.73Z" fill="#FEFEFE"/>
<path d="M98.7401 18.2801L97.9801 18.3301L97.2901 18.6701C96.9701 18.8301 96.6001 18.6101 96.5701 18.2601L96.5201 17.5001L96.1801 16.8101C96.0201 16.4901 96.2401 16.1201 96.5901 16.0901L97.3501 16.0401L98.0401 15.7001C98.3601 15.5401 98.7301 15.7601 98.7601 16.1101L98.8101 16.8701L99.1501 17.5601C99.3101 17.8801 99.0901 18.2501 98.7401 18.2801Z" fill="white"/>
<path d="M41.63 16.32C41.38 16.42 41.3 16.83 41.4 17.3C40.93 17.2 40.53 17.28 40.42 17.52C40.29 17.84 40.7 18.32 41.34 18.59C41.98 18.86 42.56 18.82 42.72 18.54C42.9 18.3 42.9 17.78 42.68 17.25C42.42 16.61 41.95 16.19 41.63 16.32Z" fill="white"/>
<path d="M103.73 18.6801C104.161 18.6801 104.51 18.3309 104.51 17.9001C104.51 17.4693 104.161 17.1201 103.73 17.1201C103.299 17.1201 102.95 17.4693 102.95 17.9001C102.95 18.3309 103.299 18.6801 103.73 18.6801Z" fill="#FFF6E1"/>
<path d="M58.8201 26.5299C59.2067 26.5299 59.5201 26.2165 59.5201 25.8299C59.5201 25.4433 59.2067 25.1299 58.8201 25.1299C58.4335 25.1299 58.1201 25.4433 58.1201 25.8299C58.1201 26.2165 58.4335 26.5299 58.8201 26.5299Z" fill="#FFE4CC"/>
<path d="M67.3 22.5698C67.5872 22.5698 67.82 22.337 67.82 22.0498C67.82 21.7626 67.5872 21.5298 67.3 21.5298C67.0128 21.5298 66.78 21.7626 66.78 22.0498C66.78 22.337 67.0128 22.5698 67.3 22.5698Z" fill="white"/>
<path d="M93.9001 22.5703C94.3309 22.5703 94.6801 22.221 94.6801 21.7903C94.6801 21.3595 94.3309 21.0103 93.9001 21.0103C93.4693 21.0103 93.1201 21.3595 93.1201 21.7903C93.1201 22.221 93.4693 22.5703 93.9001 22.5703Z" fill="#FFE4CC"/>
<path d="M83.6701 20.4202C84.2831 20.4202 84.7801 19.9232 84.7801 19.3102C84.7801 18.6972 84.2831 18.2002 83.6701 18.2002C83.057 18.2002 82.5601 18.6972 82.5601 19.3102C82.5601 19.9232 83.057 20.4202 83.6701 20.4202Z" fill="#FFBB24"/>
</g>
<defs>
<clipPath id="clip0_1466_4881">
<rect width="148" height="148" fill="white"/>
</clipPath>
</defs>
</svg>
