<svg width="148" height="148" viewBox="0 0 148 148" fill="none" xmlns="http://www.w3.org/2000/svg">
<path d="M74 138C109.346 138 138 109.346 138 74C138 38.6538 109.346 10 74 10C38.6538 10 10 38.6538 10 74C10 109.346 38.6538 138 74 138Z" fill="#FFBB24"/>
<path d="M132.29 73.6899C132.29 73.9899 132.29 74.2999 132.29 74.5999" stroke="white" stroke-width="0.45" stroke-miterlimit="10" stroke-linecap="round"/>
<path d="M132.23 76.43C130.8 107.24 105.37 131.79 74.2101 131.79C43.0501 131.79 17.1101 106.76 16.1501 75.52" stroke="white" stroke-width="0.45" stroke-miterlimit="10" stroke-linecap="round"/>
<path d="M16.1201 74.5999C16.1201 74.2999 16.1201 73.9999 16.1201 73.6899" stroke="white" stroke-width="0.45" stroke-miterlimit="10" stroke-linecap="round"/>
<path d="M91.72 31.9902C93.07 29.9502 92.82 27.3202 91.28 25.5602C92 23.3402 91.19 20.8302 89.15 19.4802C88.41 18.9902 87.59 18.7102 86.76 18.6302C86.36 17.9002 85.78 17.2602 85.04 16.7702C83 15.4202 80.37 15.6702 78.61 17.2102C76.39 16.4902 73.88 17.3002 72.53 19.3402C71.39 21.0702 71.39 23.2202 72.35 24.9102C70.66 27.5402 71.39 31.0502 74.01 32.7802C74.95 33.4002 76.01 33.7002 77.05 33.7202C77.48 34.6802 78.17 35.5302 79.11 36.1502C81.75 37.8902 85.3 37.1602 87.04 34.5202C87.07 34.4802 87.09 34.4302 87.12 34.3902C88.9 34.4402 90.67 33.6002 91.72 32.0002V31.9902Z" fill="#FFF3D9"/>
<path d="M81.8399 37.2502C80.8399 37.1802 79.8799 36.8502 79.0199 36.2902C78.1199 35.7002 77.3999 34.8702 76.9399 33.8902C75.8599 33.8502 74.8099 33.5202 73.9099 32.9202C71.2599 31.1702 70.4799 27.6002 72.1399 24.9002C71.1599 23.1102 71.2499 20.9502 72.3699 19.2402C73.7099 17.2102 76.2399 16.3002 78.5599 17.0102C80.4099 15.4502 83.0999 15.2902 85.1299 16.6202C85.8499 17.1002 86.4299 17.7202 86.8699 18.4702C87.7299 18.5702 88.5299 18.8602 89.2499 19.3402C91.2799 20.6802 92.1899 23.2102 91.4799 25.5302C93.0399 27.3802 93.1999 30.0702 91.8699 32.1002C90.8399 33.6702 89.1099 34.5902 87.2199 34.5702C87.2099 34.5902 87.1999 34.6002 87.1899 34.6202C86.3199 35.9302 84.9999 36.8302 83.4499 37.1502C82.9099 37.2602 82.3699 37.3002 81.8399 37.2602V37.2502ZM77.1699 33.5402L77.2199 33.6402C77.6499 34.6002 78.3399 35.4202 79.2199 35.9902C80.4599 36.8102 81.9399 37.0902 83.3899 36.7902C84.8399 36.4902 86.0899 35.6502 86.8999 34.4102C86.9099 34.3902 86.9299 34.3702 86.9399 34.3502L87.0299 34.2002H87.1299C88.9299 34.2502 90.5899 33.3902 91.5799 31.8902C92.8499 29.9702 92.6699 27.4102 91.1599 25.6702L91.0899 25.6002L91.1199 25.5102C91.8299 23.3202 90.9799 20.9002 89.0599 19.6302C88.3599 19.1702 87.5799 18.8902 86.7499 18.8102H86.6599L86.6199 18.7202C86.2099 17.9802 85.6499 17.3802 84.9499 16.9202C83.0299 15.6502 80.4699 15.8302 78.7299 17.3402L78.6599 17.4102L78.5699 17.3802C76.3799 16.6702 73.9599 17.5202 72.6899 19.4402C71.6199 21.0602 71.5499 23.1302 72.5199 24.8302L72.5699 24.9202L72.5099 25.0102C70.8799 27.5502 71.5999 30.9702 74.1199 32.6402C74.9899 33.2202 76.0099 33.5302 77.0699 33.5502H77.1799L77.1699 33.5402Z" fill="#FFE4CC"/>
<path d="M84.4599 30.2601C85.4099 28.5101 84.8999 26.3001 83.1999 25.1801C81.4999 24.0601 79.3199 24.4601 78.0799 25.9801C76.9499 25.6701 75.6999 26.0901 75.0199 27.1201C74.1699 28.4001 74.5299 30.1301 75.8099 30.9801C76.1999 31.2301 76.6199 31.3701 77.0499 31.4101C77.3399 31.9101 77.7299 32.3501 78.2499 32.6901C78.7299 33.0101 79.2499 33.1901 79.7899 33.2801C79.9999 33.6201 80.2699 33.9201 80.6299 34.1501C81.9099 35.0001 83.6399 34.6401 84.4899 33.3601C85.1299 32.3901 85.0799 31.1701 84.4699 30.2601H84.4599Z" fill="#FFD37B"/>
<path d="M84.1622 21.1518C84.4533 19.8756 83.8119 18.641 82.7297 18.3941C81.6474 18.1472 80.534 18.9816 80.2429 20.2577C79.9518 21.5339 80.5932 22.7685 81.6755 23.0154C82.7578 23.2623 83.8711 22.4279 84.1622 21.1518Z" fill="#FFD37B"/>
<path d="M77.0994 24.5519C78.1455 24.1805 78.6385 22.8794 78.2005 21.646C77.7625 20.4125 76.5594 19.7137 75.5133 20.0852C74.4672 20.4567 73.9742 21.7577 74.4122 22.9912C74.8502 24.2246 76.0533 24.9234 77.0994 24.5519Z" fill="#FFD37B"/>
<path d="M88.6036 25.7749C89.6616 25.0042 89.9894 23.6521 89.3358 22.7548C88.6822 21.8575 87.2947 21.7549 86.2367 22.5255C85.1787 23.2962 84.8509 24.6483 85.5045 25.5456C86.1581 26.4429 87.5456 26.5455 88.6036 25.7749Z" fill="#FFD37B"/>
<path d="M88.4543 32.3459C89.7606 32.2623 90.762 31.2965 90.6912 30.1887C90.6203 29.0808 89.5039 28.2505 88.1977 28.3341C86.8914 28.4176 85.89 29.3834 85.9608 30.4913C86.0317 31.5991 87.1481 32.4294 88.4543 32.3459Z" fill="#FFD37B"/>
<path d="M56.6 33.1599C54.82 31.0699 54.46 28.4599 55.8 27.3299C55.92 27.2299 56.05 27.1499 56.19 27.0799C54.92 24.9999 55.04 22.5099 56.6 21.1799C57.27 20.6099 58.12 20.3299 59.01 20.3299C59.15 19.4499 59.56 18.6599 60.23 18.0799C61.79 16.7499 64.27 17.0299 66.12 18.6199C66.21 18.4999 66.31 18.3799 66.43 18.2799C67.76 17.1399 70.29 17.9199 72.06 19.9999C73.47 21.6599 73.99 23.6499 73.47 24.9699C73.72 25.1699 73.96 25.3999 74.18 25.6599C75.9 27.6799 75.76 30.6199 73.87 32.2299C73.33 32.6899 72.69 32.9899 72.03 33.1399C72.03 33.1399 72.01 33.1499 72 33.1499C71.53 33.2999 70.71 33.6299 70.27 34.2999C69.87 34.9099 69.5 35.5399 69.17 35.8699C68.93 36.2999 68.61 36.6999 68.22 37.0399C66.33 38.6499 63.41 38.3099 61.69 36.2899C61.45 36.0099 61.25 35.6999 61.08 35.3899C59.72 35.5799 57.95 34.7499 56.6 33.1699V33.1599Z" fill="white"/>
<path d="M66.01 21.1397C66.01 21.1397 64.97 18.9597 67.16 19.2497C68.16 19.3797 69.09 19.8697 69.76 20.6097C70.47 21.3997 71.04 22.5997 69.87 23.9297C67.8 26.2897 66 21.1397 66 21.1397H66.01Z" fill="#FFBB24"/>
<path d="M60.7899 21.4596C60.7899 21.4596 59.2699 19.5796 61.4699 19.3496C62.4699 19.2496 63.4899 19.4996 64.3199 20.0696C65.1999 20.6796 66.0199 21.7096 65.1999 23.2696C63.7299 26.0496 60.7899 21.4496 60.7899 21.4496V21.4596Z" fill="#FFBB24"/>
<path d="M58.56 27.75C58.56 27.75 56.73 26.48 56.67 28.52C56.64 29.45 56.95 30.37 57.53 31.09C58.15 31.86 59.15 32.54 60.54 31.68C63 30.14 58.56 27.75 58.56 27.75Z" fill="#FFBB24"/>
<path d="M59.6799 22.5298C59.6799 22.5298 58.1899 20.8698 57.6599 22.8398C57.4199 23.7398 57.4999 24.6998 57.8999 25.5398C58.3199 26.4298 59.1399 27.3298 60.6899 26.8098C63.4399 25.8798 59.6799 22.5298 59.6799 22.5298Z" fill="#FFBB24"/>
<path d="M62.3699 30.3098C62.0099 28.9298 62.4299 27.3998 63.5899 26.4098C64.7499 25.4198 66.3199 25.2498 67.6199 25.8198C68.9999 24.6798 71.0399 24.8498 72.1999 26.2198C73.3599 27.5898 73.2099 29.6698 71.8299 30.8398C71.4499 31.1598 71.0199 31.3798 70.5699 31.4998C70.3599 32.1598 69.9699 32.7698 69.4099 33.2498C68.8799 33.6998 68.2599 33.9798 67.6199 34.0998C67.4299 34.4698 67.1699 34.8098 66.8299 35.0898C65.4499 36.2598 63.3799 36.0998 62.2099 34.7198C61.0999 33.4198 61.1899 31.4998 62.3599 30.2998L62.3699 30.3098Z" fill="#FFBB24"/>
<path d="M16.51 69.6099C17.3274 69.6099 17.99 68.9473 17.99 68.1299C17.99 67.3125 17.3274 66.6499 16.51 66.6499C15.6926 66.6499 15.03 67.3125 15.03 68.1299C15.03 68.9473 15.6926 69.6099 16.51 69.6099Z" fill="white"/>
<path d="M17.2901 63.2803C18.1074 63.2803 18.7701 62.6177 18.7701 61.8003C18.7701 60.9829 18.1074 60.3203 17.2901 60.3203C16.4727 60.3203 15.8101 60.9829 15.8101 61.8003C15.8101 62.6177 16.4727 63.2803 17.2901 63.2803Z" fill="white"/>
<path d="M18.3999 57.3501C19.2173 57.3501 19.8799 56.6875 19.8799 55.8701C19.8799 55.0528 19.2173 54.3901 18.3999 54.3901C17.5825 54.3901 16.9199 55.0528 16.9199 55.8701C16.9199 56.6875 17.5825 57.3501 18.3999 57.3501Z" fill="white"/>
<path d="M20.6101 51.67C21.4275 51.67 22.0901 51.0073 22.0901 50.19C22.0901 49.3726 21.4275 48.71 20.6101 48.71C19.7927 48.71 19.1301 49.3726 19.1301 50.19C19.1301 51.0073 19.7927 51.67 20.6101 51.67Z" fill="white"/>
<path d="M23.5501 46.3301C24.3674 46.3301 25.0301 45.6675 25.0301 44.8501C25.0301 44.0327 24.3674 43.3701 23.5501 43.3701C22.7327 43.3701 22.0701 44.0327 22.0701 44.8501C22.0701 45.6675 22.7327 46.3301 23.5501 46.3301Z" fill="white"/>
<path d="M131.53 69.6099C132.347 69.6099 133.01 68.9473 133.01 68.1299C133.01 67.3125 132.347 66.6499 131.53 66.6499C130.713 66.6499 130.05 67.3125 130.05 68.1299C130.05 68.9473 130.713 69.6099 131.53 69.6099Z" fill="white"/>
<path d="M130.75 63.2803C131.567 63.2803 132.23 62.6177 132.23 61.8003C132.23 60.9829 131.567 60.3203 130.75 60.3203C129.933 60.3203 129.27 60.9829 129.27 61.8003C129.27 62.6177 129.933 63.2803 130.75 63.2803Z" fill="white"/>
<path d="M129.64 57.3501C130.457 57.3501 131.12 56.6875 131.12 55.8701C131.12 55.0528 130.457 54.3901 129.64 54.3901C128.823 54.3901 128.16 55.0528 128.16 55.8701C128.16 56.6875 128.823 57.3501 129.64 57.3501Z" fill="white"/>
<path d="M127.42 51.67C128.237 51.67 128.9 51.0073 128.9 50.19C128.9 49.3726 128.237 48.71 127.42 48.71C126.603 48.71 125.94 49.3726 125.94 50.19C125.94 51.0073 126.603 51.67 127.42 51.67Z" fill="white"/>
<path d="M124.48 46.3301C125.297 46.3301 125.96 45.6675 125.96 44.8501C125.96 44.0327 125.297 43.3701 124.48 43.3701C123.663 43.3701 123 44.0327 123 44.8501C123 45.6675 123.663 46.3301 124.48 46.3301Z" fill="white"/>
</svg>
