<svg width="148" height="148" viewBox="0 0 148 148" fill="none" xmlns="http://www.w3.org/2000/svg">
<path d="M74 138C109.346 138 138 109.346 138 74C138 38.6538 109.346 10 74 10C38.6538 10 10 38.6538 10 74C10 109.346 38.6538 138 74 138Z" fill="#FFCB39"/>
<mask id="mask0_1466_3991" style="mask-type:luminance" maskUnits="userSpaceOnUse" x="10" y="10" width="128" height="128">
<path d="M74 138C109.346 138 138 109.346 138 74C138 38.6538 109.346 10 74 10C38.6538 10 10 38.6538 10 74C10 109.346 38.6538 138 74 138Z" fill="white"/>
</mask>
<g mask="url(#mask0_1466_3991)">
<path d="M71.3105 129.466L55.3728 114.872L52.3135 118.213L68.2512 132.806L71.3105 129.466Z" fill="white"/>
<path d="M68.2499 133.01L52.0999 118.22L55.3599 114.66L71.5099 129.45L68.2499 133.01ZM52.5099 118.2L68.2299 132.59L71.0899 129.47L55.3699 115.08L52.5099 118.2Z" fill="#FFE2E1"/>
<path d="M57.1799 113.46C57.1799 113.46 57.4999 106.67 62.6999 107.42C67.8999 108.17 57.1799 113.46 57.1799 113.46Z" fill="#060606"/>
<path d="M58.01 113.1C58.01 113.1 62.2 116.32 64.37 112.86C66.54 109.4 58.01 113.1 58.01 113.1Z" fill="#060606"/>
<path d="M42.46 121.85C37.17 123.75 34.13 122.05 33.03 119C31.93 115.95 33.19 112.7 38.48 110.8C42.46 109.37 48.2 110.83 50.81 111.64C51.53 111.86 51.84 112.72 51.43 113.35C49.94 115.64 46.44 120.42 42.46 121.85Z" fill="#060606"/>
<path d="M65.71 131.36C68.15 136.43 71.51 137.35 74.43 135.94C77.35 134.53 78.73 131.34 76.29 126.27C74.46 122.46 69.34 119.47 66.91 118.22C66.24 117.87 65.42 118.27 65.27 119.01C64.73 121.69 63.87 127.55 65.71 131.36Z" fill="#060606"/>
<path d="M68.0602 125.54C68.3002 125.23 68.5102 124.88 68.6602 124.51C70.2302 120.68 66.0302 115.34 59.3002 112.58C52.5602 109.82 45.8302 110.69 44.2602 114.52C44.1102 114.89 44.0102 115.28 43.9702 115.67C41.5802 116.33 39.8002 117.63 39.0402 119.5C37.1202 124.19 42.2502 130.72 50.5002 134.1C58.7502 137.48 66.9902 136.41 68.9102 131.73C69.6802 129.86 69.3102 127.68 68.0802 125.54H68.0602Z" fill="white"/>
<path d="M44.3401 130.79C42.9701 129.75 41.7901 128.6 40.8401 127.39C38.6401 124.59 37.9501 121.77 38.9001 119.45C39.6501 117.61 41.3601 116.27 43.8401 115.56C43.8901 115.18 43.9901 114.81 44.1301 114.47C45.7201 110.57 52.5601 109.67 59.3601 112.45C66.1601 115.23 70.4001 120.67 68.8001 124.57C68.6601 124.92 68.4701 125.25 68.2401 125.55C69.5101 127.79 69.7901 129.95 69.0301 131.79C67.0801 136.54 58.7401 137.64 50.4301 134.24C48.1701 133.32 46.1001 132.14 44.3301 130.79H44.3401ZM64.1601 115.51C62.7601 114.44 61.1001 113.48 59.2401 112.72C52.5901 110 45.9301 110.83 44.3901 114.58C44.2501 114.93 44.1501 115.3 44.1101 115.69V115.79L44.0001 115.82C41.5601 116.5 39.8901 117.79 39.1601 119.56C38.2501 121.78 38.9301 124.49 41.0601 127.2C43.2101 129.94 46.5801 132.34 50.5401 133.96C58.7001 137.3 66.8701 136.27 68.7501 131.67C69.4701 129.9 69.1901 127.8 67.9301 125.61L67.8801 125.52L67.9401 125.44C68.1801 125.13 68.3701 124.8 68.5201 124.45C69.6201 121.75 67.7701 118.26 64.1601 115.5V115.51Z" fill="#FDE094"/>
<path d="M56.1394 122.137C56.2001 121.989 55.9592 121.75 55.6014 121.603C55.2436 121.457 54.9044 121.458 54.8437 121.607C54.7831 121.755 55.0239 121.994 55.3817 122.14C55.7395 122.287 56.0787 122.285 56.1394 122.137Z" fill="#060606"/>
<path d="M55.7099 123.24C55.3999 123.11 55.2099 122.93 55.1399 122.7C55.0099 122.28 55.3399 121.88 55.3499 121.87C55.4099 121.79 55.5299 121.78 55.6099 121.85C55.6899 121.91 55.6999 122.03 55.6399 122.11C55.5799 122.18 55.4399 122.41 55.4999 122.6C55.5599 122.8 55.8299 122.91 56.0299 122.97C56.1199 122.99 56.1799 123.1 56.1599 123.2C56.1299 123.3 56.0299 123.35 55.9299 123.33C55.8499 123.31 55.7799 123.28 55.7099 123.26V123.24Z" fill="#060606"/>
<path d="M54.37 122.74C54.3 122.71 54.24 122.68 54.17 122.64C54.08 122.59 54.05 122.48 54.1 122.39C54.15 122.3 54.26 122.27 54.35 122.32C54.54 122.42 54.81 122.53 54.99 122.43C55.16 122.34 55.23 122.07 55.23 121.98C55.23 121.88 55.33 121.8 55.43 121.81C55.53 121.81 55.61 121.91 55.6 122.01C55.6 122.03 55.55 122.54 55.16 122.75C54.95 122.87 54.68 122.86 54.38 122.73L54.37 122.74Z" fill="#060606"/>
<path d="M50.52 124.78C52.2044 124.78 53.57 123.415 53.57 121.73C53.57 120.046 52.2044 118.68 50.52 118.68C48.8355 118.68 47.47 120.046 47.47 121.73C47.47 123.415 48.8355 124.78 50.52 124.78Z" fill="#FDE094"/>
<path d="M59.05 128.28C60.7345 128.28 62.1 126.915 62.1 125.23C62.1 123.546 60.7345 122.18 59.05 122.18C57.3655 122.18 56 123.546 56 125.23C56 126.915 57.3655 128.28 59.05 128.28Z" fill="#FDE094"/>
<path d="M53.3 120.6C53.7418 120.6 54.1 120.242 54.1 119.8C54.1 119.358 53.7418 119 53.3 119C52.8582 119 52.5 119.358 52.5 119.8C52.5 120.242 52.8582 120.6 53.3 120.6Z" fill="#060606"/>
<path d="M58.6 122.77C59.0419 122.77 59.4001 122.412 59.4001 121.97C59.4001 121.528 59.0419 121.17 58.6 121.17C58.1582 121.17 57.8 121.528 57.8 121.97C57.8 122.412 58.1582 122.77 58.6 122.77Z" fill="#060606"/>
<path d="M66.6311 137.823C67.7794 135.33 65.945 132.035 62.5339 130.464C59.1228 128.893 55.4267 129.641 54.2784 132.134C53.1301 134.627 54.9645 137.922 58.3756 139.493C61.7867 141.064 65.4828 140.316 66.6311 137.823Z" fill="white"/>
<path d="M56.57 138.56C55.7 137.9 54.99 137.1 54.5 136.22C53.7 134.79 53.58 133.31 54.16 132.06C55.34 129.5 59.13 128.72 62.6 130.32C64.28 131.09 65.63 132.3 66.42 133.71C67.22 135.14 67.34 136.62 66.76 137.86C66.19 139.11 64.98 139.98 63.38 140.3C61.79 140.62 59.99 140.37 58.32 139.6C57.69 139.31 57.1 138.95 56.57 138.55V138.56ZM64.17 131.61C63.66 131.22 63.09 130.88 62.47 130.59C59.14 129.06 55.53 129.77 54.42 132.19C53.89 133.35 54 134.73 54.75 136.08C55.51 137.44 56.82 138.6 58.44 139.35C60.06 140.1 61.79 140.34 63.32 140.03C64.83 139.73 65.96 138.92 66.49 137.76C67.02 136.6 66.91 135.22 66.16 133.87C65.69 133.03 65.01 132.26 64.17 131.62V131.61Z" fill="#FDE094"/>
<path d="M49.3884 132.113C50.5367 129.62 48.7023 126.325 45.2912 124.754C41.8801 123.183 38.184 123.93 37.0357 126.423C35.8874 128.916 37.7218 132.211 41.1329 133.782C44.544 135.353 48.2401 134.606 49.3884 132.113Z" fill="white"/>
<path d="M39.32 132.85C38.45 132.19 37.74 131.39 37.25 130.51C36.45 129.08 36.33 127.6 36.91 126.35C38.09 123.79 41.88 123.01 45.35 124.61C48.82 126.21 50.7 129.6 49.52 132.16C48.34 134.72 44.55 135.5 41.08 133.9C40.45 133.61 39.86 133.25 39.33 132.85H39.32ZM46.92 125.89C46.42 125.5 45.85 125.16 45.23 124.88C41.9 123.35 38.29 124.06 37.18 126.48C36.65 127.64 36.76 129.02 37.51 130.37C38.27 131.73 39.58 132.89 41.2 133.64C44.53 135.17 48.14 134.46 49.25 132.04C50.15 130.08 49.13 127.58 46.92 125.9V125.89Z" fill="#FDE094"/>
<path d="M77.2698 113.03L78.7298 118.19C79.1098 119.55 80.8198 119.98 81.8098 118.97L85.5498 115.13C86.5298 114.12 86.0498 112.42 84.6798 112.08L79.4798 110.77C78.1098 110.42 76.8798 111.69 77.2698 113.05V113.03Z" fill="#FFF3E1"/>
<path d="M80.5098 119.68C80.3498 119.68 80.1798 119.66 80.0098 119.62C79.3098 119.44 78.7798 118.92 78.5798 118.23L77.1198 113.07C76.9198 112.38 77.1098 111.65 77.6098 111.14C78.1098 110.62 78.8298 110.42 79.5298 110.6L84.7298 111.91C85.4298 112.09 85.9598 112.61 86.1598 113.3C86.3598 113.99 86.1698 114.72 85.6698 115.23L81.9298 119.07C81.5498 119.46 81.0398 119.68 80.5098 119.68ZM79.0298 110.85C78.5898 110.85 78.1598 111.03 77.8398 111.36C77.4198 111.79 77.2698 112.4 77.4298 112.98L78.8898 118.14C79.0598 118.72 79.4998 119.16 80.0898 119.31C80.6698 119.46 81.2798 119.29 81.6998 118.85L85.4398 115.01C85.8598 114.58 86.0098 113.97 85.8498 113.39C85.6798 112.81 85.2398 112.37 84.6498 112.22L79.4498 110.91C79.3098 110.87 79.1698 110.86 79.0298 110.86V110.85Z" fill="#FFE8BB"/>
<path d="M79.5298 113.83L80.3698 116.78C80.5098 117.29 81.1598 117.45 81.5298 117.07L83.6698 114.87C84.0398 114.49 83.8598 113.85 83.3498 113.72L80.3798 112.97C79.8698 112.84 79.3998 113.32 79.5498 113.82L79.5298 113.83Z" fill="#FFD37B"/>
<path d="M95.28 103.63L92.48 108.23C91.75 109.43 92.59 110.97 94 111L99.38 111.12C100.79 111.15 101.7 109.65 101.02 108.42L98.44 103.7C97.76 102.47 96.01 102.43 95.28 103.63Z" fill="#FFF3E1"/>
<path d="M99.4299 111.28H99.3799L93.9999 111.16C93.2799 111.14 92.6499 110.76 92.2999 110.13C91.9599 109.5 91.9699 108.76 92.3499 108.14L95.1399 103.54C95.5099 102.93 96.1599 102.57 96.8799 102.59C97.5999 102.61 98.2299 102.99 98.5799 103.62L101.16 108.34C101.5 108.97 101.49 109.71 101.11 110.33C100.75 110.93 100.11 111.28 99.4199 111.28H99.4299ZM96.8399 102.91C96.2499 102.91 95.7199 103.21 95.4199 103.71L92.6299 108.31C92.3199 108.82 92.2999 109.45 92.5899 109.98C92.8799 110.51 93.4099 110.83 94.0099 110.85L99.3899 110.97C99.3899 110.97 99.4199 110.97 99.4299 110.97C100.02 110.97 100.55 110.67 100.85 110.17C101.16 109.65 101.18 109.03 100.89 108.5L98.3099 103.78C98.0199 103.25 97.4899 102.93 96.8899 102.91C96.8799 102.91 96.8599 102.91 96.8499 102.91H96.8399Z" fill="#FFE8BB"/>
<path d="M96.0999 105.96L94.6999 108.39C94.4099 108.9 94.77 109.53 95.36 109.53H98.1699C98.7599 109.53 99.12 108.89 98.83 108.39L97.43 105.96C97.14 105.45 96.4 105.45 96.11 105.96H96.0999Z" fill="#FFD37B"/>
<path d="M79.5599 124.93C79.2799 124.6 79.0399 124.25 78.8499 123.85C76.9099 119.8 81.1099 113.76 88.2399 110.35C95.3599 106.94 102.71 107.45 104.65 111.5C104.84 111.89 104.97 112.3 105.04 112.73C107.67 113.3 109.68 114.58 110.63 116.57C113 121.52 107.86 128.92 99.1399 133.1C90.4199 137.28 81.4299 136.64 79.0599 131.69C78.1099 129.71 78.3699 127.34 79.5699 124.93H79.5599Z" fill="#FFF3D9"/>
<mask id="mask1_1466_3991" style="mask-type:luminance" maskUnits="userSpaceOnUse" x="78" y="108" width="34" height="28">
<path d="M79.5599 124.93C79.2799 124.6 79.0399 124.25 78.8499 123.85C76.9099 119.8 81.1099 113.76 88.2399 110.35C95.3599 106.94 102.71 107.45 104.65 111.5C104.84 111.89 104.97 112.3 105.04 112.73C107.67 113.3 109.68 114.58 110.63 116.57C113 121.52 107.86 128.92 99.1399 133.1C90.4199 137.28 81.4299 136.64 79.0599 131.69C78.1099 129.71 78.3699 127.34 79.5699 124.93H79.5599Z" fill="white"/>
</mask>
<g mask="url(#mask1_1466_3991)">
<path opacity="0.8" d="M84.07 126.77C89.1068 126.77 93.19 122.687 93.19 117.65C93.19 112.613 89.1068 108.53 84.07 108.53C79.0331 108.53 74.95 112.613 74.95 117.65C74.95 122.687 79.0331 126.77 84.07 126.77Z" fill="#FFE7B3"/>
</g>
<path d="M93.3217 120.459C93.7002 120.278 93.9472 120.006 93.8732 119.852C93.7993 119.697 93.4324 119.719 93.0539 119.9C92.6753 120.082 92.4284 120.354 92.5023 120.508C92.5763 120.663 92.9431 120.641 93.3217 120.459Z" fill="#060606"/>
<path d="M93.0499 121.67C93.3699 121.52 93.5699 121.31 93.6299 121.05C93.7399 120.59 93.3699 120.18 93.3499 120.16C93.2799 120.08 93.1499 120.07 93.0699 120.16C92.9899 120.23 92.9799 120.36 93.0599 120.44C93.1299 120.52 93.2999 120.76 93.2399 120.97C93.1899 121.19 92.9099 121.32 92.6899 121.4C92.5899 121.43 92.5299 121.55 92.5699 121.65C92.6099 121.75 92.7199 121.81 92.8199 121.77C92.8999 121.74 92.9799 121.71 93.0499 121.68V121.67Z" fill="#060606"/>
<path d="M94.4698 121.04C94.5398 121.01 94.6098 120.97 94.6898 120.92C94.7798 120.86 94.8098 120.74 94.7498 120.65C94.6898 120.56 94.5698 120.53 94.4798 120.59C94.2798 120.71 93.9998 120.85 93.7998 120.75C93.6098 120.66 93.5198 120.38 93.5098 120.28C93.4898 120.17 93.3898 120.1 93.2798 120.11C93.1698 120.12 93.0998 120.23 93.1098 120.33C93.1098 120.35 93.1998 120.91 93.6298 121.11C93.8698 121.22 94.1498 121.2 94.4798 121.04H94.4698Z" fill="#060606"/>
<path d="M98.5698 123.01C100.392 123.01 101.87 121.533 101.87 119.71C101.87 117.888 100.392 116.41 98.5698 116.41C96.7472 116.41 95.2698 117.888 95.2698 119.71C95.2698 121.533 96.7472 123.01 98.5698 123.01Z" fill="#FFD37B"/>
<path d="M89.5498 127.33C91.3723 127.33 92.8498 125.853 92.8498 124.03C92.8498 122.207 91.3723 120.73 89.5498 120.73C87.7272 120.73 86.2498 122.207 86.2498 124.03C86.2498 125.853 87.7272 127.33 89.5498 127.33Z" fill="#FFD37B"/>
<path d="M95.4398 118.66C95.9203 118.66 96.3098 118.27 96.3098 117.79C96.3098 117.309 95.9203 116.92 95.4398 116.92C94.9593 116.92 94.5698 117.309 94.5698 117.79C94.5698 118.27 94.9593 118.66 95.4398 118.66Z" fill="#060606"/>
<path d="M89.8397 121.34C90.3202 121.34 90.7097 120.951 90.7097 120.47C90.7097 119.99 90.3202 119.6 89.8397 119.6C89.3592 119.6 88.9697 119.99 88.9697 120.47C88.9697 120.951 89.3592 121.34 89.8397 121.34Z" fill="#060606"/>
<path d="M109.501 132.148C113.093 130.233 114.87 126.551 113.469 123.924C112.069 121.297 108.022 120.72 104.43 122.635C100.838 124.549 99.0617 128.231 100.462 130.858C101.862 133.485 105.909 134.062 109.501 132.148Z" fill="#FFF3E1"/>
<path d="M105.18 133.44C103.04 133.44 101.18 132.57 100.31 130.94C98.8698 128.24 100.68 124.46 104.35 122.5C108.01 120.55 112.17 121.15 113.6 123.85C115.04 126.55 113.23 130.33 109.56 132.29C108.11 133.06 106.58 133.43 105.18 133.43V133.44ZM108.74 121.67C107.39 121.67 105.91 122.03 104.5 122.78C100.99 124.65 99.2398 128.24 100.6 130.78C101.95 133.32 105.91 133.87 109.42 132C112.93 130.13 114.68 126.54 113.32 124C112.51 122.48 110.76 121.67 108.74 121.67Z" fill="#FFE8BB"/>
<path d="M91.1744 139.421C94.7663 137.506 96.543 133.825 95.1427 131.198C93.7424 128.571 89.6954 127.994 86.1036 129.908C82.5117 131.823 80.735 135.505 82.1353 138.131C83.5356 140.758 87.5825 141.336 91.1744 139.421Z" fill="#FFF3E1"/>
<path d="M86.8699 140.72C86.5099 140.72 86.1599 140.7 85.8099 140.65C84.0499 140.4 82.6999 139.54 81.9899 138.22C81.2899 136.9 81.3299 135.3 82.0999 133.7C82.8599 132.12 84.2599 130.73 86.0299 129.78C89.6999 127.83 93.8499 128.43 95.2799 131.13C95.9799 132.45 95.9399 134.05 95.1699 135.65C94.4099 137.23 93.0099 138.62 91.2399 139.57C89.8199 140.32 88.2999 140.72 86.8599 140.72H86.8699ZM90.4199 128.95C89.0699 128.95 87.5899 129.31 86.1799 130.06C84.4699 130.97 83.1299 132.31 82.3899 133.83C81.6599 135.33 81.6199 136.84 82.2699 138.06C82.9199 139.28 84.1899 140.09 85.8499 140.32C87.5199 140.56 89.3899 140.19 91.0899 139.28C92.7999 138.37 94.1399 137.03 94.8799 135.51C95.6099 134 95.6499 132.5 94.9999 131.28C94.1899 129.76 92.4399 128.95 90.4199 128.95Z" fill="#FFE8BB"/>
<mask id="mask2_1466_3991" style="mask-type:luminance" maskUnits="userSpaceOnUse" x="100" y="121" width="15" height="13">
<path d="M109.569 132.288C113.161 130.374 114.937 126.692 113.537 124.065C112.137 121.438 108.09 120.861 104.498 122.775C100.906 124.69 99.1293 128.372 100.53 130.999C101.93 133.626 105.977 134.203 109.569 132.288Z" fill="white"/>
</mask>
<g mask="url(#mask2_1466_3991)">
<path opacity="0.8" d="M110.4 135.4C114.133 135.4 117.16 132.373 117.16 128.64C117.16 124.906 114.133 121.88 110.4 121.88C106.666 121.88 103.64 124.906 103.64 128.64C103.64 132.373 106.666 135.4 110.4 135.4Z" fill="#FFDC8D"/>
</g>
</g>
<path d="M61.1199 23.9002H58.3699V26.2602C58.3699 26.4202 58.3499 26.5502 58.2999 26.6602C58.2499 26.7702 58.1899 26.8602 58.1099 26.9302C58.0299 27.0002 57.9399 27.0602 57.8399 27.0902C57.7399 27.1302 57.6399 27.1402 57.5299 27.1402C57.3099 27.1402 57.1099 27.0702 56.9299 26.9202C56.7499 26.7802 56.6699 26.5502 56.6699 26.2402V20.5802C56.6699 20.2802 56.7599 20.0602 56.9299 19.9102C57.0999 19.7602 57.3099 19.6902 57.5299 19.6902C57.6299 19.6902 57.7399 19.7102 57.8399 19.7402C57.9399 19.7702 58.0299 19.8302 58.1099 19.9002C58.1899 19.9702 58.2499 20.0602 58.2999 20.1702C58.3399 20.2802 58.3699 20.4102 58.3699 20.5602V22.6402H61.1199V20.5602C61.1199 20.2502 61.1999 20.0302 61.3699 19.8902C61.5399 19.7502 61.7399 19.6802 61.9599 19.6802C62.1799 19.6802 62.3699 19.7502 62.5499 19.9002C62.7299 20.0502 62.8099 20.2702 62.8099 20.5702V26.2302C62.8099 26.5402 62.7199 26.7602 62.5499 26.9102C62.3699 27.0502 62.1799 27.1302 61.9599 27.1302C61.7399 27.1302 61.5399 27.0602 61.3699 26.9102C61.1999 26.7702 61.1199 26.5402 61.1199 26.2302V23.8702V23.9002Z" fill="white"/>
<path d="M64.22 27.1099C64.1 27.0699 63.9899 27.0199 63.9199 26.9499C63.8399 26.8799 63.78 26.8099 63.75 26.7199C63.72 26.6299 63.7 26.5499 63.7 26.4699C63.7 26.3899 63.71 26.2999 63.74 26.2199L65.87 20.2099C65.92 20.0799 66.01 19.9499 66.16 19.8299C66.31 19.7099 66.53 19.6499 66.82 19.6499C67.11 19.6499 67.3399 19.7099 67.4899 19.8299C67.6399 19.9499 67.7399 20.0799 67.7799 20.2099L69.91 26.2499C69.99 26.4799 69.99 26.6599 69.91 26.7999C69.83 26.9399 69.68 27.0399 69.47 27.0899C69.22 27.1599 69.0099 27.1599 68.8499 27.0699C68.6799 26.9799 68.57 26.8399 68.5 26.6499L68.05 25.3099H65.6699L65.1999 26.6999C65.1499 26.8599 65.03 26.9799 64.86 27.0599C64.69 27.1399 64.4799 27.1599 64.2399 27.1099H64.22ZM66.8399 21.7699L66.05 24.1099H67.6299L66.8399 21.7699Z" fill="white"/>
<path d="M70.8999 20.23C70.8999 20.06 70.9699 19.93 71.0999 19.84C71.2299 19.75 71.3999 19.71 71.6099 19.71H73.9299C74.3399 19.71 74.7299 19.75 75.0999 19.83C75.4699 19.91 75.7899 20.04 76.0799 20.23C76.3599 20.41 76.5799 20.65 76.7499 20.95C76.9099 21.24 76.9999 21.6 76.9999 22.02V22.08C76.9999 22.5 76.9199 22.86 76.7599 23.15C76.5999 23.44 76.3899 23.68 76.1199 23.87C75.8499 24.05 75.5399 24.19 75.1699 24.27C74.7999 24.35 74.4199 24.4 74.0099 24.4H72.6199V26.4C72.6199 26.53 72.5999 26.64 72.5499 26.74C72.4999 26.84 72.4399 26.91 72.3599 26.98C72.2799 27.04 72.1899 27.09 72.0899 27.12C71.9899 27.15 71.8899 27.16 71.7799 27.16C71.6699 27.16 71.5599 27.15 71.4599 27.12C71.3599 27.09 71.2599 27.04 71.1799 26.98C71.0999 26.92 71.0299 26.84 70.9799 26.74C70.9299 26.64 70.9099 26.53 70.9099 26.4V20.24L70.8999 20.23ZM72.6099 20.92V23.27H73.9999C74.3999 23.27 74.7099 23.18 74.9399 23C75.1699 22.82 75.2799 22.53 75.2799 22.15V22.01C75.2799 21.63 75.1399 21.35 74.8699 21.18C74.5999 21.01 74.2599 20.92 73.8399 20.92H72.5899H72.6099Z" fill="white"/>
<path d="M78.02 20.23C78.02 20.06 78.09 19.93 78.22 19.84C78.35 19.75 78.52 19.71 78.73 19.71H81.05C81.46 19.71 81.85 19.75 82.22 19.83C82.59 19.91 82.91 20.04 83.2 20.23C83.48 20.41 83.7 20.65 83.87 20.95C84.03 21.24 84.12 21.6 84.12 22.02V22.08C84.12 22.5 84.04 22.86 83.88 23.15C83.72 23.44 83.51 23.68 83.24 23.87C82.97 24.05 82.66 24.19 82.29 24.27C81.92 24.35 81.54 24.4 81.13 24.4H79.74V26.4C79.74 26.53 79.72 26.64 79.67 26.74C79.62 26.84 79.56 26.91 79.48 26.98C79.4 27.04 79.31 27.09 79.21 27.12C79.11 27.15 79.01 27.16 78.9 27.16C78.79 27.16 78.68 27.15 78.58 27.12C78.48 27.09 78.38 27.04 78.3 26.98C78.22 26.92 78.15 26.84 78.1 26.74C78.05 26.64 78.03 26.53 78.03 26.4V20.24L78.02 20.23ZM79.73 20.92V23.27H81.12C81.52 23.27 81.83 23.18 82.06 23C82.29 22.82 82.4 22.53 82.4 22.15V22.01C82.4 21.63 82.26 21.35 81.99 21.18C81.72 21.01 81.38 20.92 80.96 20.92H79.71H79.73Z" fill="white"/>
<path d="M88.7899 24.2101V26.3901C88.7899 26.5201 88.7699 26.6301 88.7199 26.7301C88.6699 26.8301 88.6099 26.9001 88.5199 26.9701C88.4299 27.0401 88.3499 27.0801 88.2399 27.1101C88.1399 27.1401 88.0399 27.1501 87.9299 27.1501C87.8199 27.1501 87.7199 27.1401 87.6199 27.1101C87.5199 27.0801 87.4299 27.0301 87.3499 26.9701C87.2699 26.9101 87.2099 26.8301 87.1599 26.7301C87.1099 26.6301 87.0899 26.5201 87.0899 26.3901V24.2101L84.6699 20.7301C84.5699 20.5801 84.5299 20.4101 84.5799 20.2301C84.6199 20.0501 84.7299 19.9001 84.9099 19.7801C84.9899 19.7301 85.0899 19.6901 85.1899 19.6601C85.2899 19.6301 85.3799 19.6201 85.4799 19.6201C85.5699 19.6201 85.6599 19.6501 85.7399 19.6901C85.8199 19.7301 85.8899 19.7901 85.9499 19.8701L87.9399 22.8601L89.8899 19.9201C89.9999 19.7501 90.1499 19.6601 90.3399 19.6501C90.5299 19.6401 90.7199 19.6801 90.9199 19.7801C90.9999 19.8201 91.0799 19.8701 91.1499 19.9501C91.2099 20.0201 91.2599 20.1001 91.2999 20.1801C91.3299 20.2601 91.3499 20.3501 91.3399 20.4401C91.3399 20.5401 91.2999 20.6301 91.2299 20.7201L88.7999 24.2001L88.7899 24.2101Z" fill="white"/>
<path d="M61.8302 30.7301C61.6902 30.7301 61.5702 30.7001 61.4702 30.6301C61.3702 30.5601 61.3202 30.4801 61.3102 30.3801C61.2902 30.2301 61.2102 30.1101 61.0802 30.0201C60.9502 29.9301 60.7602 29.8901 60.5102 29.8901C60.2602 29.8901 60.0502 29.9501 59.9102 30.0601C59.7702 30.1801 59.6902 30.3501 59.6802 30.5801C59.6802 30.8701 59.6702 31.1601 59.6602 31.4601C59.6602 31.7501 59.6602 32.0401 59.6802 32.3301C59.6902 32.5701 59.7702 32.7401 59.9102 32.8501C60.0502 32.9601 60.2502 33.0101 60.5102 33.0101C60.7702 33.0101 60.9502 32.9601 61.0902 32.8501C61.2302 32.7401 61.3002 32.5701 61.3002 32.3301V31.9301H60.7402C60.6602 31.9301 60.5902 31.9201 60.5302 31.9001C60.4702 31.8801 60.4302 31.8501 60.4002 31.8201C60.3702 31.7901 60.3502 31.7501 60.3302 31.7001C60.3202 31.6601 60.3102 31.6101 60.3102 31.5701C60.3102 31.5301 60.3102 31.4901 60.3302 31.4501C60.3402 31.4101 60.3602 31.3701 60.4002 31.3301C60.4402 31.2901 60.4802 31.2601 60.5302 31.2401C60.5902 31.2201 60.6602 31.2001 60.7402 31.2001H61.9202C62.2002 31.2001 62.3302 31.3201 62.3302 31.5601V32.3301C62.3302 32.5901 62.2802 32.8101 62.1902 32.9901C62.1002 33.1701 61.9702 33.3201 61.8002 33.4301C61.6302 33.5401 61.4402 33.6301 61.2202 33.6801C61.0002 33.7301 60.7602 33.7601 60.5102 33.7601C60.2502 33.7601 60.0002 33.7301 59.7802 33.6801C59.5602 33.6301 59.3702 33.5501 59.2002 33.4301C59.0402 33.3201 58.9102 33.1701 58.8202 32.9901C58.7302 32.8101 58.6802 32.5901 58.6802 32.3301C58.6802 32.0401 58.6702 31.7501 58.6702 31.4501C58.6702 31.1501 58.6702 30.8601 58.6802 30.5601C58.6802 30.3101 58.7302 30.0901 58.8302 29.9101C58.9302 29.7301 59.0602 29.5801 59.2202 29.4701C59.3802 29.3601 59.5702 29.2701 59.7902 29.2201C60.0102 29.1701 60.2402 29.1401 60.4802 29.1401C60.7502 29.1401 61.0002 29.1701 61.2302 29.2301C61.4602 29.2901 61.6502 29.3701 61.8202 29.4701C61.9802 29.5701 62.1102 29.6901 62.2002 29.8301C62.2902 29.9701 62.3402 30.1201 62.3402 30.2701C62.3402 30.5801 62.1702 30.7301 61.8202 30.7301H61.8302Z" fill="white"/>
<path d="M60.5201 33.8403C60.4301 33.8403 60.3401 33.8403 60.2501 33.8403C60.2001 33.8403 60.1501 33.7903 60.1601 33.7303C60.1601 33.6803 60.2101 33.6403 60.2601 33.6403C60.3901 33.6403 60.5201 33.6503 60.6501 33.6403C60.7001 33.6403 60.7501 33.6803 60.7501 33.7403C60.7501 33.7903 60.7101 33.8403 60.6501 33.8403C60.6001 33.8403 60.5601 33.8403 60.5101 33.8403H60.5201ZM61.0601 33.8003C61.0601 33.8003 60.9701 33.7703 60.9601 33.7203C60.9601 33.6703 60.9901 33.6103 61.0401 33.6003C61.1001 33.6003 61.1601 33.5803 61.2101 33.5703C61.2801 33.5503 61.3501 33.5303 61.4101 33.5103C61.4601 33.4903 61.5201 33.5103 61.5401 33.5703C61.5601 33.6203 61.5401 33.6803 61.4801 33.7003C61.4101 33.7203 61.3301 33.7503 61.2601 33.7603C61.2001 33.7703 61.1401 33.7903 61.0801 33.8003C61.0801 33.8003 61.0701 33.8003 61.0601 33.8003ZM59.8601 33.7803C59.8601 33.7803 59.8501 33.7803 59.8401 33.7803H59.7701C59.6501 33.7403 59.5401 33.7003 59.4401 33.6603C59.3901 33.6403 59.3601 33.5803 59.3901 33.5303C59.4101 33.4803 59.4701 33.4603 59.5201 33.4803C59.6101 33.5203 59.7101 33.5503 59.8201 33.5703H59.8901C59.9401 33.6003 59.9801 33.6503 59.9701 33.7003C59.9701 33.7503 59.9201 33.7803 59.8701 33.7803H59.8601ZM61.8701 33.5003L61.8001 33.4303L61.7501 33.3403C61.8601 33.2703 61.9401 33.1803 62.0101 33.0903C62.0401 33.0503 62.1101 33.0403 62.1501 33.0703C62.1901 33.1003 62.2001 33.1703 62.1701 33.2103C62.0901 33.3203 61.9901 33.4103 61.8701 33.5003ZM59.1401 33.4603C59.1401 33.4603 59.1001 33.4603 59.0801 33.4403C58.9701 33.3503 58.8701 33.2403 58.8001 33.1103C58.7701 33.0603 58.7901 33.0003 58.8301 32.9703C58.8801 32.9403 58.9401 32.9603 58.9701 33.0003C59.0301 33.1103 59.1101 33.2003 59.2101 33.2803C59.2501 33.3203 59.2601 33.3803 59.2201 33.4203C59.2001 33.4403 59.1701 33.4603 59.1401 33.4603ZM60.5101 33.1003C60.3901 33.1003 60.2901 33.0903 60.1901 33.0703C60.1401 33.0603 60.1001 33.0003 60.1201 32.9503C60.1401 32.9003 60.1901 32.8703 60.2401 32.8803C60.3201 32.9003 60.4101 32.9103 60.5101 32.9103C60.5401 32.9103 60.5701 32.9103 60.6001 32.9103C60.6501 32.9103 60.7001 32.9503 60.7101 33.0003C60.7101 33.0503 60.6701 33.1003 60.6201 33.1103C60.5801 33.1103 60.5501 33.1103 60.5101 33.1103V33.1003ZM61.0001 33.0003C61.0001 33.0003 60.9301 32.9803 60.9101 32.9503C60.8901 32.9003 60.9101 32.8403 60.9501 32.8203C60.9801 32.8003 61.0101 32.7803 61.0401 32.7603C61.1001 32.7203 61.1401 32.6603 61.1701 32.5903C61.1901 32.5403 61.2501 32.5103 61.3001 32.5303C61.3501 32.5503 61.3801 32.6103 61.3601 32.6603C61.3201 32.7603 61.2501 32.8503 61.1701 32.9203C61.1301 32.9503 61.0901 32.9703 61.0501 33.0003C61.0401 33.0003 61.0201 33.0003 61.0101 33.0003H61.0001ZM62.2801 32.9003C62.2801 32.9003 62.2601 32.9003 62.2501 32.9003C62.2001 32.8803 62.1701 32.8303 62.1801 32.7703C62.2201 32.6603 62.2401 32.5403 62.2401 32.4003C62.2401 32.3403 62.2901 32.3003 62.3401 32.3103C62.3901 32.3103 62.4401 32.3603 62.4301 32.4103C62.4301 32.5603 62.4001 32.7003 62.3601 32.8303C62.3501 32.8703 62.3101 32.9003 62.2601 32.9003H62.2801ZM59.8701 32.8803C59.8701 32.8803 59.8201 32.8803 59.8001 32.8503C59.7001 32.7503 59.6401 32.6103 59.6101 32.4403C59.6101 32.3903 59.6401 32.3303 59.6901 32.3303C59.7401 32.3303 59.8001 32.3603 59.8001 32.4103C59.8201 32.5403 59.8601 32.6403 59.9301 32.7103C59.9701 32.7503 59.9701 32.8103 59.9301 32.8503C59.9101 32.8703 59.8901 32.8803 59.8601 32.8803H59.8701ZM58.7301 32.7903C58.7301 32.7903 58.6401 32.7603 58.6301 32.7103C58.6001 32.5903 58.5901 32.4603 58.5901 32.3203C58.5901 32.2703 58.6201 32.2103 58.6801 32.2003C58.7301 32.1803 58.7801 32.2303 58.7901 32.2803C58.7901 32.2903 58.7901 32.3103 58.7901 32.3203C58.7901 32.4403 58.8101 32.5603 58.8301 32.6703C58.8401 32.7203 58.8101 32.7803 58.7501 32.7903H58.7301ZM61.3201 32.3303C61.2601 32.3303 61.2201 32.2903 61.2201 32.2303V32.0303C61.1601 32.0303 61.1201 31.9903 61.1201 31.9303C61.1201 31.8703 61.1601 31.8303 61.2201 31.8303H61.4201V32.2303C61.4201 32.2903 61.3801 32.3303 61.3201 32.3303ZM59.6801 32.1303C59.6301 32.1303 59.5801 32.0903 59.5801 32.0303C59.5801 31.9003 59.5801 31.7603 59.5801 31.6303C59.5801 31.5703 59.6201 31.5303 59.6801 31.5303C59.7401 31.5303 59.7801 31.5703 59.7801 31.6303C59.7801 31.7603 59.7801 31.8903 59.7801 32.0303C59.7801 32.0903 59.7401 32.1303 59.6801 32.1303ZM62.3501 32.1103C62.2901 32.1103 62.2501 32.0703 62.2501 32.0103V31.6103C62.2501 31.5503 62.2901 31.5103 62.3501 31.5103C62.4101 31.5103 62.4501 31.5503 62.4501 31.6103V32.0103C62.4501 32.0703 62.4101 32.1103 62.3501 32.1103ZM60.8201 32.0203H60.7601C60.6601 32.0203 60.5801 32.0103 60.5101 31.9803C60.4601 31.9603 60.4101 31.9303 60.3701 31.9003C60.3301 31.8603 60.3201 31.8003 60.3701 31.7603C60.4101 31.7203 60.4701 31.7103 60.5101 31.7603C60.5301 31.7803 60.5601 31.7903 60.5901 31.8003C60.6401 31.8203 60.6901 31.8303 60.7601 31.8303H60.8201C60.8801 31.8303 60.9201 31.8703 60.9201 31.9303C60.9201 31.9903 60.8801 32.0303 60.8201 32.0303V32.0203ZM58.6801 31.9903C58.6301 31.9903 58.5801 31.9503 58.5801 31.8903C58.5801 31.7603 58.5801 31.6203 58.5801 31.4903C58.5801 31.4303 58.6201 31.3903 58.6801 31.3903C58.7301 31.3903 58.7801 31.4303 58.7801 31.4903C58.7801 31.6203 58.7801 31.7603 58.7801 31.8903C58.7801 31.9503 58.7401 31.9903 58.6801 31.9903ZM60.3401 31.5603H60.3201C60.2701 31.5503 60.2301 31.4903 60.2501 31.4403V31.4203C60.2701 31.3603 60.3001 31.3003 60.3401 31.2603C60.3801 31.2103 60.4401 31.1803 60.5101 31.1403C60.5401 31.1303 60.5701 31.1203 60.6001 31.1103C60.6501 31.1003 60.7101 31.1303 60.7201 31.1903C60.7301 31.2403 60.7001 31.3003 60.6401 31.3103C60.6201 31.3103 60.6001 31.3203 60.5801 31.3303C60.5401 31.3503 60.5101 31.3703 60.4801 31.3903C60.4601 31.4103 60.4401 31.4403 60.4401 31.4703V31.4903C60.4401 31.4903 60.3801 31.5703 60.3401 31.5703V31.5603ZM62.2101 31.3603C62.2101 31.3603 62.1701 31.3603 62.1601 31.3403C62.1101 31.3103 62.0301 31.2903 61.9401 31.2903H61.8301C61.7701 31.2903 61.7301 31.2503 61.7301 31.1903C61.7301 31.1303 61.7701 31.0903 61.8301 31.0903H61.9401C62.0801 31.0903 62.1901 31.1203 62.2701 31.1703C62.3201 31.2003 62.3301 31.2603 62.3001 31.3103C62.2801 31.3403 62.2501 31.3603 62.2201 31.3603H62.2101ZM59.6801 31.3303C59.6201 31.3303 59.5801 31.2803 59.5801 31.2303V30.8303C59.5801 30.7703 59.6501 30.7303 59.6901 30.7303C59.7501 30.7303 59.7901 30.7803 59.7901 30.8303V31.2303C59.7901 31.2803 59.7401 31.3303 59.6801 31.3303ZM61.4201 31.2903H61.0201C60.9601 31.2903 60.9201 31.2503 60.9201 31.1903C60.9201 31.1303 60.9601 31.0903 61.0201 31.0903H61.4201C61.4801 31.0903 61.5201 31.1303 61.5201 31.1903C61.5201 31.2503 61.4801 31.2903 61.4201 31.2903ZM58.6801 31.1903C58.6301 31.1903 58.5801 31.1503 58.5801 31.0903C58.5801 30.9603 58.5801 30.8203 58.5801 30.6903C58.5801 30.6403 58.6201 30.5903 58.6801 30.5903C58.7401 30.5903 58.7801 30.6403 58.7801 30.6903C58.7801 30.8203 58.7801 30.9603 58.7801 31.0903C58.7801 31.1403 58.7401 31.1903 58.6801 31.1903ZM61.8301 30.8203C61.6701 30.8203 61.5301 30.7803 61.4201 30.7003C61.3701 30.6703 61.3501 30.6003 61.3801 30.5503C61.4101 30.5003 61.4601 30.4803 61.5101 30.5203C61.5101 30.5203 61.5301 30.5303 61.5301 30.5403C61.6101 30.5903 61.7101 30.6203 61.8301 30.6203C61.8901 30.6203 61.9301 30.6603 61.9301 30.7203C61.9301 30.7803 61.8901 30.8203 61.8301 30.8203ZM62.1401 30.7603C62.1401 30.7603 62.0701 30.7403 62.0501 30.7103C62.0201 30.6603 62.0501 30.6003 62.0901 30.5703C62.1801 30.5203 62.2301 30.4503 62.2401 30.3203C62.2401 30.2703 62.3001 30.2303 62.3501 30.2303C62.4001 30.2303 62.4401 30.2903 62.4401 30.3403C62.4201 30.5303 62.3301 30.6603 62.1801 30.7403C62.1601 30.7403 62.1501 30.7503 62.1301 30.7503L62.1401 30.7603ZM59.7101 30.5303C59.7101 30.5303 59.7001 30.5303 59.6901 30.5303C59.6401 30.5203 59.6001 30.4703 59.6101 30.4103C59.6401 30.2403 59.7101 30.1103 59.8201 30.0103C59.8601 29.9703 59.9201 29.9703 59.9601 30.0103C60.0001 30.0503 60.0001 30.1103 59.9601 30.1503C59.8801 30.2203 59.8301 30.3203 59.8101 30.4503C59.8101 30.5003 59.7601 30.5303 59.7101 30.5303ZM58.7201 30.3903C58.7201 30.3903 58.7101 30.3903 58.7001 30.3903C58.6501 30.3903 58.6101 30.3303 58.6201 30.2803C58.6401 30.1303 58.6901 29.9903 58.7501 29.8703C58.7801 29.8203 58.8401 29.8003 58.8801 29.8303C58.9201 29.8603 58.9501 29.9203 58.9201 29.9603C58.8701 30.0603 58.8301 30.1803 58.8101 30.3103C58.8101 30.3603 58.7601 30.3903 58.7101 30.3903H58.7201ZM61.2901 30.3603C61.2901 30.3603 61.2101 30.3303 61.2001 30.2903C61.1701 30.2103 61.1201 30.1403 61.0401 30.0803C61.0201 30.0703 61.0101 30.0603 60.9901 30.0503C60.9401 30.0203 60.9201 29.9703 60.9501 29.9203C60.9801 29.8703 61.0401 29.8503 61.0801 29.8803C61.1101 29.8903 61.1301 29.9103 61.1501 29.9203C61.2601 30.0003 61.3401 30.1003 61.3901 30.2203C61.4101 30.2703 61.3901 30.3303 61.3301 30.3503C61.3201 30.3503 61.3101 30.3503 61.3001 30.3503L61.2901 30.3603ZM62.2801 30.0503C62.2801 30.0503 62.2101 30.0303 62.1901 29.9903C62.1701 29.9503 62.1501 29.9103 62.1301 29.8803C62.0901 29.8203 62.0401 29.7603 61.9801 29.7103C61.9401 29.6703 61.9401 29.6103 61.9801 29.5703C62.0201 29.5303 62.0801 29.5303 62.1201 29.5703C62.1901 29.6303 62.2501 29.7003 62.3001 29.7803C62.3301 29.8303 62.3601 29.8703 62.3801 29.9203C62.4001 29.9703 62.3801 30.0303 62.3301 30.0503C62.3201 30.0503 62.3001 30.0503 62.2901 30.0503H62.2801ZM60.2501 30.0003C60.2501 30.0003 60.1601 29.9703 60.1501 29.9203C60.1401 29.8703 60.1701 29.8103 60.2301 29.8003C60.3501 29.7703 60.5101 29.7603 60.6601 29.7703C60.7101 29.7703 60.7601 29.8203 60.7501 29.8803C60.7501 29.9303 60.7001 29.9703 60.6501 29.9703C60.5301 29.9703 60.3901 29.9703 60.2801 29.9903C60.2801 29.9903 60.2701 29.9903 60.2601 29.9903L60.2501 30.0003ZM59.0701 29.6903C59.0701 29.6903 59.0201 29.6903 59.0001 29.6603C58.9601 29.6203 58.9601 29.5603 59.0001 29.5203C59.0501 29.4703 59.1101 29.4203 59.1701 29.3803C59.2301 29.3403 59.2801 29.3003 59.3501 29.2703C59.4001 29.2403 59.4601 29.2703 59.4901 29.3103C59.5201 29.3603 59.4901 29.4203 59.4501 29.4503C59.4001 29.4803 59.3501 29.5103 59.3001 29.5403C59.2501 29.5803 59.2001 29.6203 59.1501 29.6603C59.1301 29.6803 59.1101 29.6903 59.0801 29.6903H59.0701ZM61.7201 29.5003C61.7201 29.5003 61.6901 29.5003 61.6701 29.4903C61.5701 29.4303 61.4501 29.3903 61.3201 29.3503C61.2701 29.3303 61.2401 29.2803 61.2501 29.2303C61.2601 29.1803 61.3201 29.1503 61.3701 29.1603C61.5101 29.2003 61.6401 29.2603 61.7601 29.3203C61.8101 29.3503 61.8301 29.4103 61.8001 29.4603C61.7801 29.4903 61.7501 29.5103 61.7101 29.5103L61.7201 29.5003ZM59.7901 29.3103C59.7901 29.3103 59.7001 29.2803 59.6901 29.2403C59.6701 29.1903 59.6901 29.1303 59.7401 29.1203C59.7501 29.1203 59.7701 29.1203 59.7801 29.1203C59.9001 29.0903 60.0301 29.0703 60.1501 29.0503C60.2001 29.0503 60.2501 29.0903 60.2601 29.1403C60.2601 29.1903 60.2301 29.2403 60.1701 29.2503C60.0501 29.2603 59.9401 29.2803 59.8201 29.3103C59.8101 29.3103 59.8001 29.3103 59.7901 29.3103ZM60.9601 29.2603C60.9601 29.2603 60.9601 29.2603 60.9401 29.2603C60.8201 29.2403 60.6901 29.2303 60.5601 29.2303C60.5001 29.2303 60.4601 29.1803 60.4601 29.1303C60.4601 29.0803 60.5001 29.0303 60.5601 29.0303C60.7001 29.0303 60.8401 29.0403 60.9701 29.0603C61.0201 29.0603 61.0601 29.1203 61.0501 29.1703C61.0501 29.2203 61.0001 29.2503 60.9501 29.2503L60.9601 29.2603Z" fill="#FFBB24"/>
<path d="M64.6602 30.6802C64.8702 30.6802 65.0702 30.7102 65.2702 30.7702C65.4602 30.8302 65.6402 30.9102 65.7902 31.0202C65.9402 31.1302 66.0702 31.2602 66.1702 31.4102C66.2702 31.5602 66.3202 31.7302 66.3402 31.9202C66.3402 32.0202 66.3502 32.1202 66.3502 32.2102C66.3502 32.3002 66.3502 32.4002 66.3402 32.5002C66.3302 32.6902 66.2802 32.8602 66.1802 33.0102C66.0802 33.1602 65.9702 33.2902 65.8202 33.4002C65.6702 33.5102 65.5002 33.5902 65.3002 33.6502C65.1002 33.7102 64.8902 33.7402 64.6702 33.7402C64.4502 33.7402 64.2402 33.7102 64.0402 33.6502C63.8502 33.5902 63.6702 33.5002 63.5202 33.3902C63.3702 33.2802 63.2502 33.1502 63.1602 33.0002C63.0702 32.8502 63.0102 32.6802 63.0002 32.5002C62.9902 32.3002 62.9902 32.1102 63.0002 31.9202C63.0202 31.7302 63.0702 31.5602 63.1602 31.4102C63.2502 31.2602 63.3702 31.1202 63.5202 31.0202C63.6702 30.9102 63.8402 30.8302 64.0402 30.7702C64.2402 30.7102 64.4502 30.6802 64.6802 30.6802H64.6602ZM65.3302 31.9102C65.3202 31.7402 65.2502 31.6202 65.1302 31.5302C65.0102 31.4402 64.8502 31.4002 64.6602 31.4002C64.4802 31.4002 64.3302 31.4402 64.2102 31.5302C64.0902 31.6202 64.0202 31.7402 64.0002 31.9002C63.9802 32.1102 63.9802 32.3102 64.0002 32.5002C64.0002 32.6702 64.0602 32.8002 64.1902 32.8902C64.3202 32.9802 64.4702 33.0302 64.6602 33.0302C64.8502 33.0302 65.0002 32.9802 65.1202 32.8902C65.2402 32.8002 65.3102 32.6702 65.3302 32.5002C65.3402 32.4002 65.3502 32.2902 65.3502 32.1902C65.3502 32.0902 65.3502 31.9902 65.3302 31.9002V31.9102Z" fill="white"/>
<path d="M64.6601 33.8501H64.6301C64.5701 33.8501 64.5301 33.8101 64.5301 33.7501C64.5301 33.6901 64.5701 33.6501 64.6301 33.6501H64.6601C64.7801 33.6501 64.8901 33.6501 65.0101 33.6201C65.0701 33.6001 65.1201 33.6501 65.1201 33.7001C65.1201 33.7501 65.0901 33.8101 65.0401 33.8101C64.9201 33.8301 64.7901 33.8401 64.6601 33.8401V33.8501ZM64.2301 33.8101C64.2301 33.8101 64.2201 33.8101 64.2101 33.8101C64.1401 33.8001 64.0701 33.7801 64.0001 33.7601C63.9301 33.7401 63.8701 33.7101 63.8001 33.6901C63.7501 33.6701 63.7301 33.6101 63.7501 33.5601C63.7701 33.5101 63.8301 33.4801 63.8801 33.5101C63.9401 33.5301 64.0001 33.5501 64.0601 33.5701C64.1201 33.5901 64.1801 33.6001 64.2501 33.6201C64.3001 33.6301 64.3401 33.6801 64.3301 33.7401C64.3301 33.7901 64.2801 33.8201 64.2301 33.8201V33.8101ZM65.4101 33.7201C65.4101 33.7201 65.3301 33.7001 65.3201 33.6601C65.3001 33.6101 65.3201 33.5501 65.3801 33.5301C65.5001 33.4801 65.6201 33.4301 65.7201 33.3601C65.7701 33.3301 65.8301 33.3401 65.8601 33.3901C65.8901 33.4401 65.8801 33.5001 65.8301 33.5301C65.7201 33.6001 65.5901 33.6701 65.4501 33.7201C65.4401 33.7201 65.4301 33.7201 65.4101 33.7201ZM63.5001 33.4901C63.5001 33.4901 63.4601 33.4901 63.4401 33.4701C63.3201 33.3801 63.2201 33.2801 63.1401 33.1701C63.1101 33.1301 63.1201 33.0601 63.1601 33.0301C63.2001 33.0001 63.2701 33.0101 63.3001 33.0501C63.3701 33.1501 63.4601 33.2301 63.5601 33.3101C63.6001 33.3401 63.6101 33.4101 63.5801 33.4501C63.5601 33.4801 63.5301 33.4901 63.5001 33.4901ZM66.0701 33.2701C66.0701 33.2701 66.0201 33.2701 66.0101 33.2501C65.9701 33.2101 65.9601 33.1501 66.0001 33.1101C66.0401 33.0601 66.0701 33.0201 66.1001 32.9701C66.1301 32.9201 66.1601 32.8601 66.1801 32.8001C66.2001 32.7501 66.2601 32.7201 66.3101 32.7401C66.3601 32.7601 66.3901 32.8201 66.3701 32.8701C66.3401 32.9401 66.3101 33.0101 66.2701 33.0701C66.2301 33.1301 66.1901 33.1901 66.1501 33.2401C66.1301 33.2601 66.1001 33.2801 66.0701 33.2801V33.2701ZM64.6601 33.1401C64.5801 33.1401 64.5101 33.1401 64.4401 33.1201C64.3901 33.1101 64.3501 33.0601 64.3601 33.0001C64.3701 32.9501 64.4301 32.9101 64.4801 32.9201C64.5801 32.9401 64.7301 32.9401 64.8301 32.9201C64.8801 32.9001 64.9401 32.9401 64.9501 32.9901C64.9601 33.0401 64.9301 33.1001 64.8801 33.1101C64.8101 33.1301 64.7401 33.1301 64.6601 33.1301V33.1401ZM64.1201 32.9401C64.1201 32.9401 64.0701 32.9301 64.0501 32.9101C63.9601 32.8101 63.9101 32.6801 63.9101 32.5201V32.4801C63.9001 32.4301 63.9401 32.3801 63.9901 32.3701C64.0401 32.3701 64.0901 32.4001 64.1001 32.4601V32.5101C64.1001 32.6301 64.1401 32.7101 64.1901 32.7801C64.2301 32.8201 64.2201 32.8801 64.1901 32.9201C64.1701 32.9401 64.1501 32.9501 64.1201 32.9501V32.9401ZM65.2101 32.9201C65.2101 32.9201 65.1701 32.9201 65.1501 32.9001C65.1101 32.8601 65.1001 32.8001 65.1401 32.7601C65.2001 32.6901 65.2301 32.6101 65.2401 32.5101C65.2401 32.4901 65.2401 32.4701 65.2401 32.4501C65.2401 32.4001 65.2901 32.3601 65.3501 32.3601C65.4001 32.3601 65.4501 32.4101 65.4401 32.4701C65.4401 32.4901 65.4401 32.5201 65.4401 32.5401C65.4201 32.6801 65.3701 32.8001 65.3001 32.8901C65.2801 32.9101 65.2501 32.9301 65.2201 32.9301L65.2101 32.9201ZM63.0401 32.8601C63.0401 32.8601 62.9601 32.8301 62.9401 32.7901C62.9101 32.7101 62.9001 32.6201 62.8901 32.5201C62.8901 32.4701 62.8901 32.4201 62.8901 32.3701C62.8901 32.3201 62.9301 32.2701 62.9901 32.2701C63.0401 32.2701 63.0901 32.3101 63.0901 32.3701C63.0901 32.4201 63.0901 32.4701 63.0901 32.5101C63.0901 32.5901 63.1101 32.6701 63.1301 32.7401C63.1501 32.7901 63.1201 32.8501 63.0601 32.8601C63.0601 32.8601 63.0401 32.8601 63.0301 32.8601H63.0401ZM66.3401 32.5401C66.2901 32.5401 66.2401 32.4901 66.2501 32.4301C66.2501 32.3601 66.2501 32.2901 66.2501 32.2201C66.2501 32.1601 66.2501 32.1001 66.2501 32.0501C66.2501 31.9901 66.2901 31.9501 66.3401 31.9501C66.3901 31.9501 66.4401 31.9901 66.4401 32.0401C66.4401 32.1001 66.4401 32.1601 66.4401 32.2201C66.4401 32.3001 66.4401 32.3701 66.4401 32.4501C66.4401 32.5001 66.3901 32.5401 66.3401 32.5401ZM63.9901 32.1601C63.9401 32.1601 63.8901 32.1101 63.9001 32.0501C63.9001 32.0001 63.9001 31.9501 63.9101 31.8901C63.9201 31.7901 63.9601 31.6901 64.0101 31.6101C64.0401 31.5601 64.1001 31.5501 64.1501 31.5801C64.2001 31.6101 64.2101 31.6701 64.1801 31.7201C64.1401 31.7701 64.1201 31.8401 64.1101 31.9101C64.1101 31.9601 64.1101 32.0101 64.1001 32.0601C64.1001 32.1101 64.0501 32.1501 64.0001 32.1501L63.9901 32.1601ZM65.3401 32.1501C65.2901 32.1501 65.2401 32.1101 65.2401 32.0601C65.2401 32.0201 65.2401 31.9701 65.2301 31.9301C65.2301 31.8001 65.1801 31.7101 65.1001 31.6401C65.0601 31.6001 65.0501 31.5401 65.0901 31.5001C65.1301 31.4601 65.1901 31.4501 65.2301 31.4901C65.3501 31.5901 65.4201 31.7301 65.4301 31.9101C65.4301 31.9501 65.4301 32.0001 65.4401 32.0401C65.4401 32.1001 65.4001 32.1401 65.3501 32.1501H65.3401ZM62.9901 32.0601C62.9401 32.0601 62.8901 32.0101 62.9001 31.9501V31.9201C62.9101 31.7801 62.9401 31.6501 62.9901 31.5301C63.0101 31.4801 63.0701 31.4501 63.1201 31.4701C63.1701 31.4901 63.2001 31.5501 63.1801 31.6001C63.1401 31.7001 63.1201 31.8101 63.1101 31.9301C63.1101 31.9301 63.1101 31.9501 63.1101 31.9701C63.1101 32.0201 63.0601 32.0601 63.0101 32.0601H62.9901ZM66.2801 31.7501C66.2801 31.7501 66.2001 31.7201 66.1901 31.6801C66.1601 31.6101 66.1301 31.5301 66.0901 31.4701C66.0701 31.4301 66.0401 31.4001 66.0101 31.3601C65.9801 31.3201 65.9801 31.2501 66.0301 31.2201C66.0701 31.1901 66.1401 31.1901 66.1701 31.2401C66.2001 31.2801 66.2301 31.3201 66.2601 31.3601C66.3101 31.4401 66.3501 31.5201 66.3801 31.6101C66.4001 31.6601 66.3801 31.7201 66.3201 31.7401C66.3101 31.7401 66.3001 31.7401 66.2901 31.7401L66.2801 31.7501ZM64.4001 31.5501C64.4001 31.5501 64.3201 31.5201 64.3101 31.4801C64.2901 31.4301 64.3201 31.3701 64.3701 31.3501C64.5001 31.3101 64.6601 31.3001 64.8101 31.3101C64.8601 31.3101 64.9001 31.3701 64.9001 31.4201C64.9001 31.4701 64.8501 31.5201 64.7901 31.5101C64.6701 31.5001 64.5401 31.5101 64.4401 31.5401C64.4401 31.5401 64.4201 31.5401 64.4101 31.5401L64.4001 31.5501ZM63.2801 31.3301C63.2801 31.3301 63.2301 31.3301 63.2201 31.3101C63.1801 31.2701 63.1701 31.2101 63.2101 31.1701C63.2801 31.0901 63.3601 31.0101 63.4601 30.9401C63.4901 30.9201 63.5101 30.9001 63.5401 30.8901C63.5901 30.8601 63.6501 30.8701 63.6801 30.9201C63.7101 30.9701 63.7001 31.0301 63.6501 31.0601C63.6301 31.0701 63.6001 31.0901 63.5801 31.1101C63.5001 31.1701 63.4301 31.2301 63.3701 31.3001C63.3501 31.3201 63.3201 31.3401 63.2901 31.3401L63.2801 31.3301ZM65.7801 31.1201C65.7801 31.1201 65.7401 31.1201 65.7201 31.0901C65.6301 31.0301 65.5201 30.9701 65.4001 30.9201C65.3501 30.9001 65.3201 30.8401 65.3501 30.7901C65.3701 30.7401 65.4301 30.7101 65.4801 30.7401C65.6101 30.7901 65.7401 30.8601 65.8501 30.9401C65.8901 30.9801 65.9001 31.0501 65.8501 31.0901C65.8301 31.1101 65.8001 31.1201 65.7801 31.1201ZM63.9401 30.9001C63.9401 30.9001 63.8601 30.8701 63.8501 30.8301C63.8301 30.7801 63.8501 30.7201 63.9101 30.7001C63.9401 30.6901 63.9701 30.6801 64.0001 30.6701C64.1001 30.6401 64.2101 30.6201 64.3201 30.6001C64.3701 30.6001 64.4201 30.6301 64.4301 30.6801C64.4301 30.7301 64.4001 30.7901 64.3501 30.7901C64.2501 30.8001 64.1501 30.8301 64.0601 30.8501C64.0301 30.8501 64.0101 30.8701 63.9801 30.8801C63.9701 30.8801 63.9601 30.8801 63.9501 30.8801L63.9401 30.9001ZM65.0601 30.8201C65.0601 30.8201 65.0501 30.8201 65.0401 30.8201C64.9201 30.8001 64.7901 30.7801 64.6601 30.7801C64.6001 30.7801 64.5601 30.7401 64.5601 30.6801C64.5601 30.6201 64.6001 30.5801 64.6601 30.5801C64.8001 30.5801 64.9401 30.5901 65.0801 30.6201C65.1301 30.6201 65.1701 30.6801 65.1601 30.7401C65.1601 30.7901 65.1101 30.8201 65.0601 30.8201Z" fill="#FFBB24"/>
<path d="M68.5501 30.6802C68.7601 30.6802 68.9601 30.7102 69.1601 30.7702C69.3501 30.8302 69.5301 30.9102 69.6801 31.0202C69.8301 31.1302 69.9601 31.2602 70.0601 31.4102C70.1601 31.5602 70.2101 31.7302 70.2301 31.9202C70.2301 32.0202 70.2401 32.1202 70.2401 32.2102C70.2401 32.3002 70.2401 32.4002 70.2301 32.5002C70.2201 32.6902 70.1701 32.8602 70.0701 33.0102C69.9701 33.1602 69.8601 33.2902 69.7101 33.4002C69.5601 33.5102 69.3901 33.5902 69.1901 33.6502C68.9901 33.7102 68.7801 33.7402 68.5601 33.7402C68.3401 33.7402 68.1301 33.7102 67.9301 33.6502C67.7401 33.5902 67.5601 33.5002 67.4101 33.3902C67.2601 33.2802 67.1401 33.1502 67.0501 33.0002C66.9601 32.8502 66.9001 32.6802 66.8901 32.5002C66.8801 32.3002 66.8801 32.1102 66.8901 31.9202C66.9101 31.7302 66.9601 31.5602 67.0501 31.4102C67.1401 31.2602 67.2601 31.1202 67.4101 31.0202C67.5601 30.9102 67.7301 30.8302 67.9301 30.7702C68.1301 30.7102 68.3401 30.6802 68.5701 30.6802H68.5501ZM69.2101 31.9102C69.2001 31.7402 69.1301 31.6202 69.0101 31.5302C68.8901 31.4402 68.7301 31.4002 68.5401 31.4002C68.3601 31.4002 68.2101 31.4402 68.0901 31.5302C67.9701 31.6202 67.9001 31.7402 67.8801 31.9002C67.8601 32.1102 67.8601 32.3102 67.8801 32.5002C67.8801 32.6702 67.9401 32.8002 68.0701 32.8902C68.2001 32.9802 68.3501 33.0302 68.5401 33.0302C68.7301 33.0302 68.8801 32.9802 69.0001 32.8902C69.1201 32.8002 69.1901 32.6702 69.2101 32.5002C69.2201 32.4002 69.2301 32.2902 69.2301 32.1902C69.2301 32.0902 69.2301 31.9902 69.2101 31.9002V31.9102Z" fill="white"/>
<path d="M68.55 33.8501H68.52C68.46 33.8501 68.42 33.8101 68.42 33.7501C68.42 33.6901 68.46 33.6501 68.52 33.6501H68.55C68.67 33.6501 68.78 33.6501 68.9 33.6201C68.95 33.6001 69.01 33.6501 69.01 33.7001C69.01 33.7501 68.98 33.8101 68.93 33.8101C68.81 33.8301 68.68 33.8401 68.55 33.8401V33.8501ZM68.12 33.8101C68.12 33.8101 68.11 33.8101 68.1 33.8101C68.03 33.8001 67.96 33.7801 67.89 33.7601C67.82 33.7401 67.76 33.7101 67.69 33.6901C67.64 33.6701 67.62 33.6101 67.64 33.5601C67.66 33.5101 67.72 33.4801 67.77 33.5101C67.83 33.5301 67.89 33.5501 67.95 33.5701C68.01 33.5901 68.07 33.6001 68.14 33.6201C68.19 33.6301 68.23 33.6801 68.22 33.7401C68.22 33.7901 68.17 33.8201 68.12 33.8201V33.8101ZM69.3 33.7201C69.3 33.7201 69.22 33.7001 69.21 33.6601C69.19 33.6101 69.21 33.5501 69.27 33.5301C69.39 33.4801 69.51 33.4301 69.61 33.3601C69.66 33.3301 69.72 33.3401 69.75 33.3901C69.78 33.4401 69.77 33.5001 69.72 33.5301C69.61 33.6001 69.48 33.6701 69.34 33.7201C69.33 33.7201 69.32 33.7201 69.3 33.7201ZM67.39 33.4901C67.39 33.4901 67.35 33.4901 67.33 33.4701C67.21 33.3801 67.11 33.2801 67.03 33.1701C67 33.1301 67.01 33.0601 67.05 33.0301C67.09 33.0001 67.16 33.0101 67.19 33.0501C67.26 33.1501 67.35 33.2301 67.45 33.3101C67.49 33.3401 67.5 33.4101 67.47 33.4501C67.45 33.4801 67.42 33.4901 67.39 33.4901ZM69.95 33.2701C69.95 33.2701 69.9 33.2701 69.89 33.2501C69.85 33.2101 69.84 33.1501 69.88 33.1101C69.92 33.0601 69.95 33.0201 69.98 32.9701C70.01 32.9201 70.04 32.8601 70.06 32.8001C70.08 32.7501 70.14 32.7201 70.19 32.7401C70.24 32.7601 70.27 32.8201 70.25 32.8701C70.22 32.9401 70.19 33.0101 70.15 33.0701C70.11 33.1301 70.07 33.1901 70.03 33.2401C70.01 33.2601 69.98 33.2801 69.95 33.2801V33.2701ZM68.55 33.1401C68.47 33.1401 68.4 33.1401 68.33 33.1201C68.28 33.1101 68.24 33.0601 68.25 33.0001C68.26 32.9501 68.32 32.9101 68.37 32.9201C68.47 32.9401 68.62 32.9401 68.72 32.9201C68.77 32.9001 68.83 32.9401 68.84 32.9901C68.85 33.0401 68.82 33.1001 68.77 33.1101C68.7 33.1301 68.63 33.1301 68.55 33.1301V33.1401ZM68 32.9401C68 32.9401 67.95 32.9301 67.93 32.9101C67.84 32.8101 67.79 32.6801 67.79 32.5201V32.4801C67.78 32.4301 67.82 32.3801 67.87 32.3701C67.92 32.3701 67.97 32.4001 67.98 32.4601V32.5101C67.98 32.6301 68.02 32.7101 68.07 32.7801C68.11 32.8201 68.1 32.8801 68.07 32.9201C68.05 32.9401 68.03 32.9501 68 32.9501V32.9401ZM69.09 32.9201C69.09 32.9201 69.05 32.9201 69.03 32.9001C68.99 32.8601 68.98 32.8001 69.02 32.7601C69.08 32.6901 69.11 32.6101 69.12 32.5101C69.12 32.4901 69.12 32.4701 69.12 32.4501C69.12 32.4001 69.17 32.3601 69.23 32.3601C69.28 32.3601 69.33 32.4101 69.32 32.4701C69.32 32.4901 69.32 32.5201 69.32 32.5401C69.3 32.6801 69.25 32.8001 69.18 32.8901C69.16 32.9101 69.13 32.9301 69.1 32.9301L69.09 32.9201ZM66.93 32.8601C66.93 32.8601 66.85 32.8301 66.83 32.7901C66.8 32.7101 66.79 32.6201 66.78 32.5201C66.78 32.4701 66.78 32.4201 66.78 32.3701C66.78 32.3201 66.82 32.2701 66.88 32.2701C66.93 32.2701 66.98 32.3101 66.98 32.3701C66.98 32.4201 66.98 32.4701 66.98 32.5101C66.98 32.5901 67 32.6701 67.02 32.7401C67.04 32.7901 67.01 32.8501 66.95 32.8601C66.95 32.8601 66.93 32.8601 66.92 32.8601H66.93ZM70.22 32.5401C70.17 32.5401 70.12 32.4901 70.13 32.4301C70.13 32.3601 70.13 32.2901 70.13 32.2201C70.13 32.1601 70.13 32.1001 70.13 32.0501C70.13 31.9901 70.17 31.9501 70.22 31.9501C70.27 31.9501 70.32 31.9901 70.32 32.0401C70.32 32.1001 70.32 32.1601 70.32 32.2201C70.32 32.3001 70.32 32.3701 70.32 32.4501C70.32 32.5001 70.27 32.5401 70.22 32.5401ZM67.87 32.1601C67.82 32.1601 67.77 32.1101 67.78 32.0501C67.78 32.0001 67.78 31.9501 67.79 31.8901C67.8 31.7901 67.84 31.6901 67.89 31.6101C67.92 31.5601 67.98 31.5501 68.03 31.5801C68.08 31.6101 68.09 31.6701 68.06 31.7201C68.02 31.7701 68 31.8401 67.99 31.9101C67.99 31.9601 67.99 32.0101 67.98 32.0601C67.98 32.1101 67.93 32.1501 67.88 32.1501L67.87 32.1601ZM69.22 32.1501C69.17 32.1501 69.12 32.1101 69.12 32.0601C69.12 32.0201 69.12 31.9701 69.11 31.9301C69.11 31.8001 69.06 31.7101 68.98 31.6401C68.94 31.6001 68.93 31.5401 68.97 31.5001C69.01 31.4601 69.07 31.4501 69.11 31.4901C69.23 31.5901 69.3 31.7301 69.31 31.9101C69.31 31.9501 69.31 32.0001 69.32 32.0401C69.32 32.1001 69.28 32.1401 69.23 32.1501H69.22ZM66.88 32.0601C66.83 32.0601 66.78 32.0101 66.79 31.9501V31.9201C66.8 31.7801 66.83 31.6501 66.88 31.5301C66.9 31.4801 66.96 31.4501 67.01 31.4701C67.06 31.4901 67.09 31.5501 67.07 31.6001C67.03 31.7001 67.01 31.8101 67 31.9301C67 31.9301 67 31.9501 67 31.9701C67 32.0201 66.95 32.0601 66.9 32.0601H66.88ZM70.16 31.7501C70.16 31.7501 70.08 31.7201 70.07 31.6801C70.04 31.6101 70.01 31.5301 69.97 31.4701C69.95 31.4301 69.92 31.4001 69.89 31.3601C69.86 31.3201 69.86 31.2501 69.91 31.2201C69.95 31.1901 70.02 31.1901 70.05 31.2401C70.08 31.2801 70.11 31.3201 70.14 31.3601C70.19 31.4401 70.23 31.5201 70.26 31.6101C70.28 31.6601 70.26 31.7201 70.2 31.7401C70.19 31.7401 70.18 31.7401 70.17 31.7401L70.16 31.7501ZM68.28 31.5501C68.28 31.5501 68.2 31.5201 68.19 31.4801C68.17 31.4301 68.2 31.3701 68.25 31.3501C68.38 31.3101 68.54 31.3001 68.69 31.3101C68.74 31.3101 68.78 31.3701 68.78 31.4201C68.78 31.4701 68.73 31.5201 68.67 31.5101C68.55 31.5001 68.42 31.5101 68.32 31.5401C68.32 31.5401 68.3 31.5401 68.29 31.5401L68.28 31.5501ZM67.17 31.3301C67.17 31.3301 67.12 31.3301 67.11 31.3101C67.07 31.2701 67.06 31.2101 67.1 31.1701C67.17 31.0901 67.25 31.0101 67.35 30.9401C67.38 30.9201 67.4 30.9001 67.43 30.8901C67.48 30.8601 67.54 30.8701 67.57 30.9201C67.6 30.9701 67.59 31.0301 67.54 31.0601C67.52 31.0701 67.49 31.0901 67.47 31.1101C67.39 31.1701 67.32 31.2301 67.26 31.3001C67.24 31.3201 67.21 31.3401 67.18 31.3401L67.17 31.3301ZM69.67 31.1201C69.67 31.1201 69.63 31.1201 69.61 31.0901C69.52 31.0301 69.41 30.9701 69.29 30.9201C69.24 30.9001 69.21 30.8401 69.24 30.7901C69.26 30.7401 69.32 30.7101 69.37 30.7401C69.5 30.7901 69.63 30.8601 69.74 30.9401C69.78 30.9801 69.79 31.0501 69.74 31.0901C69.72 31.1101 69.69 31.1201 69.67 31.1201ZM67.83 30.9001C67.83 30.9001 67.75 30.8701 67.74 30.8301C67.72 30.7801 67.74 30.7201 67.8 30.7001C67.83 30.6901 67.86 30.6801 67.89 30.6701C67.99 30.6401 68.1 30.6201 68.21 30.6001C68.26 30.6001 68.31 30.6301 68.32 30.6801C68.32 30.7301 68.29 30.7901 68.24 30.7901C68.14 30.8001 68.04 30.8301 67.95 30.8501C67.92 30.8501 67.9 30.8701 67.87 30.8801C67.86 30.8801 67.85 30.8801 67.84 30.8801L67.83 30.9001ZM68.94 30.8201C68.94 30.8201 68.93 30.8201 68.92 30.8201C68.8 30.8001 68.67 30.7801 68.54 30.7801C68.48 30.7801 68.44 30.7401 68.44 30.6801C68.44 30.6201 68.48 30.5801 68.54 30.5801C68.68 30.5801 68.82 30.5901 68.96 30.6201C69.01 30.6201 69.05 30.6801 69.04 30.7401C69.04 30.7901 68.99 30.8201 68.94 30.8201Z" fill="#FFBB24"/>
<path d="M72.4202 30.6801C72.5502 30.6801 72.6702 30.6901 72.7802 30.7201C72.8902 30.7401 73.0002 30.7701 73.0902 30.8101V29.5301C73.0902 29.3801 73.1402 29.2701 73.2402 29.2001C73.3402 29.1301 73.4602 29.1001 73.5802 29.1001C73.6402 29.1001 73.7102 29.1001 73.7702 29.1201C73.8302 29.1401 73.8902 29.1601 73.9402 29.2001C73.9902 29.2401 74.0302 29.2801 74.0602 29.3401C74.0902 29.4001 74.1002 29.4601 74.1002 29.5401V33.3301C74.1002 33.4601 74.0502 33.5601 73.9602 33.6301C73.8702 33.7001 73.7502 33.7401 73.6002 33.7401C73.4802 33.7401 73.3902 33.7201 73.3102 33.6901C73.2302 33.6601 73.1702 33.6001 73.1202 33.5201C73.0202 33.6001 72.9202 33.6601 72.8002 33.7101C72.6802 33.7601 72.5502 33.7801 72.4002 33.7801C72.1602 33.7801 71.9302 33.7501 71.7302 33.6901C71.5302 33.6301 71.3502 33.5501 71.2102 33.4401C71.0702 33.3301 70.9502 33.2001 70.8702 33.0501C70.7902 32.9001 70.7502 32.7301 70.7402 32.5401C70.7402 32.4301 70.7402 32.3301 70.7402 32.2401C70.7402 32.1501 70.7402 32.0501 70.7402 31.9601C70.7602 31.7601 70.8102 31.5801 70.9002 31.4201C70.9902 31.2601 71.1102 31.1401 71.2502 31.0301C71.4002 30.9201 71.5702 30.8401 71.7602 30.7901C71.9502 30.7401 72.1702 30.7101 72.3902 30.7101L72.4202 30.6801ZM71.7802 31.8601C71.7602 32.1101 71.7602 32.3301 71.7802 32.5101C71.8002 32.6801 71.8702 32.8101 71.9802 32.9001C72.0902 32.9901 72.2402 33.0401 72.4202 33.0401C72.6102 33.0401 72.7602 32.9901 72.8802 32.9001C73.0002 32.8101 73.0602 32.6801 73.0802 32.5101C73.1002 32.3001 73.1002 32.1001 73.0802 31.9101C73.0602 31.7501 72.9902 31.6201 72.8802 31.5301C72.7702 31.4401 72.6102 31.4001 72.4202 31.4001C72.2302 31.4001 72.0902 31.4301 71.9902 31.5001C71.8802 31.5701 71.8102 31.6901 71.7902 31.8401L71.7802 31.8601Z" fill="white"/>
<path d="M72.5402 33.8402C72.4902 33.8402 72.4502 33.8002 72.4402 33.7502C72.4402 33.7002 72.4802 33.6502 72.5302 33.6402C72.6202 33.6402 72.7002 33.6102 72.7802 33.5802C72.8102 33.5702 72.8401 33.5502 72.8801 33.5402C72.9301 33.5102 72.9902 33.5402 73.0102 33.5802C73.0302 33.6202 73.0102 33.6902 72.9702 33.7102C72.9302 33.7302 72.8902 33.7502 72.8602 33.7602C72.7702 33.8002 72.6702 33.8202 72.5602 33.8302L72.5402 33.8402ZM72.1301 33.8302H72.1202C71.9802 33.8202 71.8502 33.7902 71.7302 33.7502H71.7001L71.6702 33.7202C71.6702 33.7202 71.6302 33.6202 71.6702 33.5802C71.6902 33.5602 71.7302 33.5502 71.7502 33.5502C71.7502 33.5502 71.7502 33.5502 71.7602 33.5502C71.8802 33.5802 72.0001 33.6102 72.1301 33.6202C72.1801 33.6202 72.2202 33.6802 72.2202 33.7302C72.2202 33.7802 72.1702 33.8202 72.1202 33.8202L72.1301 33.8302ZM73.5901 33.8102C73.4701 33.8102 73.3601 33.7902 73.2701 33.7502C73.2201 33.7302 73.1802 33.7002 73.1502 33.6702C73.1102 33.6302 73.1102 33.5702 73.1502 33.5302C73.1902 33.4902 73.2502 33.4802 73.2902 33.5302C73.3102 33.5502 73.3302 33.5602 73.3602 33.5702C73.4202 33.6002 73.5002 33.6102 73.6002 33.6102C73.6502 33.6102 73.7001 33.6502 73.7001 33.7102C73.7001 33.7602 73.6602 33.8102 73.6002 33.8102H73.5901ZM73.9702 33.7002C73.9702 33.7002 73.9102 33.6902 73.8902 33.6602C73.8602 33.6202 73.8602 33.5502 73.9102 33.5202C73.9702 33.4702 74.0002 33.4002 74.0002 33.3102V33.2402C74.0002 33.1802 74.0402 33.1402 74.1002 33.1402C74.1602 33.1402 74.2001 33.1802 74.2001 33.2402V33.3102C74.2001 33.4702 74.1402 33.5902 74.0302 33.6802C74.0102 33.6902 73.9902 33.7002 73.9702 33.7002ZM71.3702 33.6002C71.3702 33.6002 71.3402 33.6002 71.3202 33.5902C71.2702 33.5602 71.2102 33.5202 71.1602 33.4902C71.0902 33.4402 71.0302 33.3902 70.9802 33.3302C70.9402 33.2902 70.9402 33.2302 70.9802 33.1902C71.0202 33.1502 71.0802 33.1602 71.1202 33.1902C71.1602 33.2402 71.2201 33.2802 71.2701 33.3302C71.3101 33.3602 71.3602 33.3902 71.4102 33.4202C71.4602 33.4502 71.4701 33.5102 71.4501 33.5602C71.4301 33.5902 71.4002 33.6102 71.3602 33.6102L71.3702 33.6002ZM72.4501 33.1402C72.4001 33.1402 72.3502 33.1002 72.3502 33.0402C72.3502 32.9802 72.3901 32.9402 72.4501 32.9402C72.5801 32.9402 72.6902 32.9102 72.7802 32.8502C72.8302 32.8202 72.8902 32.8302 72.9202 32.8802C72.9502 32.9302 72.9402 32.9902 72.8902 33.0202C72.7702 33.1002 72.6302 33.1402 72.4602 33.1402H72.4501ZM72.0602 33.0502C72.0602 33.0502 72.0302 33.0502 72.0102 33.0402C71.9702 33.0202 71.9402 33.0002 71.9102 32.9802C71.8202 32.9102 71.7502 32.8102 71.7102 32.6902C71.6902 32.6402 71.7201 32.5802 71.7701 32.5602C71.8201 32.5402 71.8802 32.5702 71.9002 32.6202C71.9302 32.7002 71.9702 32.7702 72.0302 32.8202C72.0502 32.8402 72.0702 32.8502 72.1002 32.8602C72.1502 32.8902 72.1702 32.9502 72.1402 32.9902C72.1202 33.0202 72.0902 33.0402 72.0502 33.0402L72.0602 33.0502ZM70.8502 33.0202C70.8502 33.0202 70.7702 33.0002 70.7602 32.9602C70.7102 32.8302 70.6802 32.6902 70.6702 32.5402C70.6702 32.4802 70.7101 32.4402 70.7701 32.4402C70.8201 32.4402 70.8702 32.4802 70.8702 32.5402C70.8702 32.6702 70.9002 32.7902 70.9402 32.9002C70.9602 32.9502 70.9402 33.0102 70.8902 33.0302C70.8802 33.0302 70.8602 33.0302 70.8502 33.0302V33.0202ZM74.1002 32.9402C74.0402 32.9402 74.0002 32.9002 74.0002 32.8402V32.4402C74.0002 32.3802 74.0402 32.3402 74.1002 32.3402C74.1602 32.3402 74.2001 32.3802 74.2001 32.4402V32.8402C74.2001 32.9002 74.1602 32.9402 74.1002 32.9402ZM73.0602 32.7202C73.0602 32.7202 73.0402 32.7202 73.0302 32.7202C72.9802 32.7102 72.9502 32.6502 72.9602 32.6002C72.9602 32.5702 72.9702 32.5502 72.9802 32.5202C72.9902 32.4302 73.0002 32.3402 73.0002 32.2302C73.0002 32.1802 73.0402 32.1302 73.1002 32.1302C73.1602 32.1302 73.2001 32.1702 73.2001 32.2302C73.2001 32.3402 73.2002 32.4402 73.1802 32.5402C73.1802 32.5802 73.1702 32.6202 73.1602 32.6602C73.1502 32.7002 73.1102 32.7302 73.0602 32.7302V32.7202ZM71.7602 32.3602C71.7002 32.3602 71.6602 32.3202 71.6602 32.2602V32.2102C71.6602 32.1002 71.6602 31.9902 71.6802 31.8502C71.6802 31.8102 71.6901 31.7702 71.7001 31.7402C71.7101 31.6902 71.7702 31.6602 71.8202 31.6702C71.8702 31.6802 71.9002 31.7402 71.8902 31.7902C71.8902 31.8202 71.8802 31.8402 71.8702 31.8702C71.8602 31.9902 71.8502 32.1002 71.8502 32.2002V32.2502C71.8502 32.3102 71.8102 32.3502 71.7502 32.3502L71.7602 32.3602ZM70.7602 32.2302C70.7002 32.2302 70.6602 32.1902 70.6602 32.1302C70.6602 32.0602 70.6602 31.9802 70.6602 31.9102C70.6602 31.8402 70.6702 31.7702 70.6902 31.7102C70.7002 31.6602 70.7502 31.6202 70.8102 31.6302C70.8602 31.6402 70.9002 31.7002 70.8902 31.7502C70.8802 31.8102 70.8702 31.8602 70.8602 31.9302C70.8602 32.0002 70.8602 32.0602 70.8602 32.1302C70.8602 32.1902 70.8202 32.2302 70.7602 32.2302ZM74.1002 32.1402C74.0402 32.1402 74.0002 32.1002 74.0002 32.0402V31.6402C74.0002 31.5802 74.0402 31.5402 74.1002 31.5402C74.1602 31.5402 74.2001 31.5802 74.2001 31.6402V32.0402C74.2001 32.1002 74.1602 32.1402 74.1002 32.1402ZM73.0602 31.9202C73.0602 31.9202 72.9802 31.8902 72.9602 31.8502C72.9302 31.7502 72.8902 31.6802 72.8102 31.6202C72.8002 31.6202 72.7801 31.6002 72.7701 31.5902C72.7201 31.5602 72.7102 31.5002 72.7402 31.4502C72.7702 31.4002 72.8301 31.3902 72.8801 31.4202C72.9001 31.4302 72.9202 31.4402 72.9302 31.4502C73.0402 31.5302 73.1202 31.6502 73.1502 31.7902C73.1602 31.8402 73.1302 31.9002 73.0802 31.9102C73.0802 31.9102 73.0602 31.9102 73.0502 31.9102L73.0602 31.9202ZM72.0502 31.5802C72.0502 31.5802 71.9802 31.5602 71.9602 31.5202C71.9402 31.4702 71.9602 31.4102 72.0102 31.3902C72.1202 31.3402 72.2602 31.3102 72.4202 31.3102H72.4501C72.5101 31.3102 72.5502 31.3502 72.5502 31.4102C72.5502 31.4702 72.5101 31.5102 72.4501 31.5102H72.4202C72.2902 31.5102 72.1802 31.5302 72.1002 31.5702C72.0902 31.5702 72.0702 31.5702 72.0602 31.5702L72.0502 31.5802ZM70.9302 31.4602C70.9302 31.4602 70.8901 31.4602 70.8801 31.4502C70.8301 31.4202 70.8202 31.3602 70.8502 31.3102C70.9302 31.1902 71.0201 31.0702 71.1301 30.9802C71.1701 30.9502 71.2401 30.9502 71.2701 30.9902C71.3101 31.0302 71.3002 31.1002 71.2602 31.1302C71.1702 31.2102 71.0901 31.3002 71.0201 31.4102C71.0001 31.4402 70.9702 31.4602 70.9302 31.4602ZM74.1002 31.3402C74.0402 31.3402 74.0002 31.3002 74.0002 31.2402V30.8402C74.0002 30.7802 74.0402 30.7402 74.1002 30.7402C74.1602 30.7402 74.2001 30.7802 74.2001 30.8402V31.2402C74.2001 31.3002 74.1602 31.3402 74.1002 31.3402ZM71.5302 30.9502C71.5302 30.9502 71.4602 30.9302 71.4402 30.8902C71.4202 30.8402 71.4402 30.7802 71.4902 30.7602C71.5702 30.7202 71.6602 30.6902 71.7602 30.6702C71.8002 30.6602 71.8502 30.6502 71.9002 30.6402C71.9502 30.6302 72.0101 30.6602 72.0201 30.7202C72.0301 30.7702 72.0002 30.8302 71.9402 30.8402C71.9002 30.8402 71.8602 30.8602 71.8202 30.8702C71.7402 30.8902 71.6602 30.9202 71.5802 30.9502C71.5702 30.9502 71.5502 30.9502 71.5402 30.9502H71.5302ZM72.8102 30.8302C72.8102 30.8302 72.8102 30.8302 72.7902 30.8302C72.7702 30.8302 72.7602 30.8302 72.7502 30.8302C72.6202 30.8002 72.4602 30.7902 72.3102 30.8002C72.2602 30.8002 72.2102 30.7602 72.2102 30.7002C72.2102 30.6402 72.2502 30.6002 72.3102 30.6002C72.4802 30.6002 72.6502 30.6002 72.8002 30.6402C72.8102 30.6402 72.8202 30.6402 72.8302 30.6402C72.8802 30.6402 72.9202 30.7002 72.9102 30.7502C72.9102 30.8002 72.8602 30.8302 72.8102 30.8302ZM73.0901 30.8002C73.0301 30.8002 72.9902 30.7602 72.9902 30.7002V30.3002C72.9902 30.2402 73.0301 30.2002 73.0901 30.2002C73.1501 30.2002 73.1902 30.2402 73.1902 30.3002V30.7002C73.1902 30.7602 73.1501 30.8002 73.0901 30.8002ZM74.1002 30.5402C74.0402 30.5402 74.0002 30.5002 74.0002 30.4402V30.0402C74.0002 29.9802 74.0402 29.9402 74.1002 29.9402C74.1602 29.9402 74.2001 29.9802 74.2001 30.0402V30.4402C74.2001 30.5002 74.1602 30.5402 74.1002 30.5402ZM73.0901 30.0002C73.0301 30.0002 72.9902 29.9602 72.9902 29.9002V29.5302C72.9902 29.5302 72.9902 29.5002 72.9902 29.4902C72.9902 29.4402 73.0401 29.4002 73.0901 29.4002C73.1401 29.4002 73.1902 29.4502 73.1802 29.5102V29.9002C73.1802 29.9602 73.1402 30.0002 73.0802 30.0002H73.0901ZM74.1002 29.7402C74.0402 29.7402 74.0002 29.7002 74.0002 29.6402V29.5202C74.0002 29.4602 73.9902 29.4102 73.9702 29.3702C73.9702 29.3502 73.9502 29.3402 73.9402 29.3202C73.9102 29.2802 73.9102 29.2102 73.9602 29.1802C74.0002 29.1502 74.0702 29.1502 74.1002 29.2002C74.1202 29.2302 74.1402 29.2602 74.1502 29.2802C74.1902 29.3502 74.2001 29.4302 74.2001 29.5202V29.6402C74.2001 29.7002 74.1602 29.7402 74.1002 29.7402ZM73.2802 29.2702C73.2802 29.2702 73.2102 29.2502 73.1902 29.2202C73.1602 29.1702 73.1802 29.1102 73.2302 29.0802C73.3602 29.0002 73.5302 28.9802 73.6802 28.9902C73.7402 28.9902 73.7701 29.0502 73.7701 29.1002C73.7701 29.1602 73.7102 29.1902 73.6602 29.1902C73.5402 29.1702 73.4302 29.1902 73.3302 29.2502C73.3102 29.2502 73.3002 29.2602 73.2802 29.2602V29.2702Z" fill="#FFBB24"/>
<path d="M78.2103 30.6801C78.3403 30.6801 78.4603 30.6901 78.5703 30.7201C78.6803 30.7401 78.7903 30.7701 78.8803 30.8101V29.5301C78.8803 29.3801 78.9303 29.2701 79.0303 29.2001C79.1303 29.1301 79.2503 29.1001 79.3703 29.1001C79.4303 29.1001 79.5003 29.1001 79.5603 29.1201C79.6203 29.1401 79.6803 29.1601 79.7303 29.2001C79.7803 29.2401 79.8203 29.2801 79.8503 29.3401C79.8803 29.4001 79.8903 29.4601 79.8903 29.5401V33.3301C79.8903 33.4601 79.8403 33.5601 79.7503 33.6301C79.6603 33.7001 79.5403 33.7401 79.3903 33.7401C79.2703 33.7401 79.1803 33.7201 79.1003 33.6901C79.0203 33.6601 78.9603 33.6001 78.9103 33.5201C78.8103 33.6001 78.7103 33.6601 78.5903 33.7101C78.4703 33.7601 78.3403 33.7801 78.1903 33.7801C77.9503 33.7801 77.7203 33.7501 77.5203 33.6901C77.3203 33.6301 77.1403 33.5501 77.0003 33.4401C76.8603 33.3301 76.7403 33.2001 76.6603 33.0501C76.5803 32.9001 76.5403 32.7301 76.5303 32.5401C76.5303 32.4301 76.5303 32.3301 76.5303 32.2401C76.5303 32.1501 76.5303 32.0501 76.5303 31.9601C76.5503 31.7601 76.6003 31.5801 76.6903 31.4201C76.7803 31.2601 76.9003 31.1401 77.0403 31.0301C77.1903 30.9201 77.3603 30.8401 77.5503 30.7901C77.7403 30.7401 77.9603 30.7101 78.1803 30.7101L78.2103 30.6801ZM77.5703 31.8601C77.5503 32.1101 77.5503 32.3301 77.5703 32.5101C77.5903 32.6801 77.6603 32.8101 77.7703 32.9001C77.8803 32.9901 78.0303 33.0401 78.2103 33.0401C78.4003 33.0401 78.5503 32.9901 78.6703 32.9001C78.7903 32.8101 78.8503 32.6801 78.8703 32.5101C78.8903 32.3001 78.8903 32.1001 78.8703 31.9101C78.8503 31.7501 78.7803 31.6201 78.6703 31.5301C78.5603 31.4401 78.4003 31.4001 78.2103 31.4001C78.0203 31.4001 77.8803 31.4301 77.7803 31.5001C77.6703 31.5701 77.6003 31.6901 77.5803 31.8401L77.5703 31.8601Z" fill="white"/>
<path d="M78.3302 33.8402C78.2802 33.8402 78.2402 33.8002 78.2302 33.7502C78.2302 33.7002 78.2702 33.6502 78.3202 33.6402C78.4102 33.6402 78.4902 33.6102 78.5702 33.5802C78.6002 33.5702 78.6302 33.5502 78.6702 33.5402C78.7202 33.5102 78.7802 33.5402 78.8002 33.5802C78.8202 33.6202 78.8002 33.6902 78.7602 33.7102C78.7202 33.7302 78.6802 33.7502 78.6502 33.7602C78.5602 33.8002 78.4602 33.8202 78.3502 33.8302L78.3302 33.8402ZM77.9202 33.8302H77.9102C77.7702 33.8202 77.6402 33.7902 77.5202 33.7502H77.4902L77.4602 33.7202C77.4602 33.7202 77.4202 33.6202 77.4602 33.5802C77.4802 33.5602 77.5202 33.5502 77.5402 33.5502C77.5402 33.5502 77.5402 33.5502 77.5502 33.5502C77.6702 33.5802 77.7902 33.6102 77.9202 33.6202C77.9702 33.6202 78.0102 33.6802 78.0102 33.7302C78.0102 33.7802 77.9602 33.8202 77.9102 33.8202L77.9202 33.8302ZM79.3802 33.8102C79.2602 33.8102 79.1502 33.7902 79.0602 33.7502C79.0102 33.7302 78.9702 33.7002 78.9402 33.6702C78.9002 33.6302 78.9002 33.5702 78.9402 33.5302C78.9802 33.4902 79.0402 33.4802 79.0802 33.5302C79.1002 33.5502 79.1202 33.5602 79.1502 33.5702C79.2102 33.6002 79.2902 33.6102 79.3902 33.6102C79.4402 33.6102 79.4902 33.6502 79.4902 33.7102C79.4902 33.7602 79.4502 33.8102 79.3902 33.8102H79.3802ZM79.7602 33.7002C79.7602 33.7002 79.7002 33.6902 79.6802 33.6602C79.6502 33.6202 79.6502 33.5502 79.7002 33.5202C79.7602 33.4702 79.7902 33.4002 79.7902 33.3102V33.2402C79.7902 33.1802 79.8302 33.1402 79.8902 33.1402C79.9502 33.1402 79.9902 33.1802 79.9902 33.2402V33.3102C79.9902 33.4702 79.9302 33.5902 79.8202 33.6802C79.8002 33.6902 79.7802 33.7002 79.7602 33.7002ZM77.1602 33.6002C77.1602 33.6002 77.1302 33.6002 77.1102 33.5902C77.0602 33.5602 77.0002 33.5202 76.9502 33.4902C76.8802 33.4402 76.8202 33.3902 76.7702 33.3302C76.7302 33.2902 76.7302 33.2302 76.7702 33.1902C76.8102 33.1502 76.8702 33.1602 76.9102 33.1902C76.9502 33.2402 77.0102 33.2802 77.0602 33.3302C77.1002 33.3602 77.1502 33.3902 77.2002 33.4202C77.2502 33.4502 77.2602 33.5102 77.2402 33.5602C77.2202 33.5902 77.1902 33.6102 77.1502 33.6102L77.1602 33.6002ZM78.2402 33.1402C78.1902 33.1402 78.1402 33.1002 78.1402 33.0402C78.1402 32.9802 78.1802 32.9402 78.2402 32.9402C78.3702 32.9402 78.4802 32.9102 78.5702 32.8502C78.6202 32.8202 78.6802 32.8302 78.7102 32.8802C78.7402 32.9302 78.7302 32.9902 78.6802 33.0202C78.5602 33.1002 78.4202 33.1402 78.2502 33.1402H78.2402ZM77.8502 33.0502C77.8502 33.0502 77.8202 33.0502 77.8002 33.0402C77.7602 33.0202 77.7302 33.0002 77.7002 32.9802C77.6102 32.9002 77.5402 32.8102 77.5002 32.6902C77.4802 32.6402 77.5102 32.5802 77.5602 32.5602C77.6102 32.5402 77.6702 32.5702 77.6902 32.6202C77.7202 32.7002 77.7602 32.7702 77.8302 32.8202C77.8502 32.8402 77.8702 32.8502 77.9002 32.8602C77.9502 32.8902 77.9702 32.9502 77.9402 32.9902C77.9202 33.0202 77.8902 33.0402 77.8502 33.0402V33.0502ZM76.6402 33.0202C76.6402 33.0202 76.5602 33.0002 76.5502 32.9602C76.5002 32.8302 76.4702 32.6902 76.4602 32.5402C76.4602 32.4802 76.5002 32.4402 76.5602 32.4402C76.6102 32.4402 76.6602 32.4802 76.6602 32.5402C76.6602 32.6702 76.6902 32.7902 76.7302 32.9002C76.7502 32.9502 76.7302 33.0102 76.6802 33.0302C76.6702 33.0302 76.6502 33.0302 76.6402 33.0302V33.0202ZM79.8902 32.9402C79.8302 32.9402 79.7902 32.9002 79.7902 32.8402V32.4402C79.7902 32.3802 79.8302 32.3402 79.8902 32.3402C79.9502 32.3402 79.9902 32.3802 79.9902 32.4402V32.8402C79.9902 32.9002 79.9502 32.9402 79.8902 32.9402ZM78.8502 32.7202C78.8502 32.7202 78.8302 32.7202 78.8202 32.7202C78.7702 32.7102 78.7402 32.6502 78.7502 32.6002C78.7502 32.5702 78.7602 32.5502 78.7702 32.5202C78.7802 32.4102 78.7902 32.3202 78.7902 32.2302C78.7902 32.1702 78.8302 32.1302 78.8902 32.1302C78.9502 32.1302 78.9902 32.1702 78.9902 32.2302C78.9902 32.3302 78.9902 32.4302 78.9702 32.5402C78.9702 32.5802 78.9602 32.6202 78.9502 32.6602C78.9402 32.7002 78.9002 32.7302 78.8502 32.7302V32.7202ZM77.5502 32.3602C77.4902 32.3602 77.4502 32.3202 77.4502 32.2602V32.2102C77.4502 32.0902 77.4502 31.9702 77.4702 31.8502C77.4702 31.8102 77.4802 31.7702 77.4902 31.7402C77.5002 31.6902 77.5602 31.6602 77.6102 31.6702C77.6602 31.6802 77.6902 31.7402 77.6802 31.7902C77.6802 31.8202 77.6702 31.8402 77.6602 31.8702C77.6502 31.9802 77.6402 32.0902 77.6402 32.2002V32.2502C77.6402 32.3102 77.6002 32.3502 77.5402 32.3502L77.5502 32.3602ZM76.5502 32.2302C76.4902 32.2302 76.4502 32.1902 76.4502 32.1302C76.4502 32.0602 76.4502 31.9802 76.4502 31.9102C76.4502 31.8402 76.4602 31.7702 76.4802 31.7102C76.4902 31.6602 76.5402 31.6202 76.6002 31.6302C76.6502 31.6402 76.6902 31.7002 76.6802 31.7502C76.6702 31.8102 76.6602 31.8602 76.6502 31.9302C76.6502 32.0002 76.6502 32.0602 76.6502 32.1302C76.6502 32.1902 76.6102 32.2302 76.5502 32.2302ZM79.8902 32.1402C79.8302 32.1402 79.7902 32.1002 79.7902 32.0402V31.6402C79.7902 31.5802 79.8302 31.5402 79.8902 31.5402C79.9502 31.5402 79.9902 31.5802 79.9902 31.6402V32.0402C79.9902 32.1002 79.9502 32.1402 79.8902 32.1402ZM78.8502 31.9202C78.8502 31.9202 78.7702 31.8902 78.7502 31.8502C78.7202 31.7502 78.6802 31.6802 78.6002 31.6202C78.5902 31.6202 78.5702 31.6002 78.5602 31.5902C78.5102 31.5602 78.5002 31.5002 78.5302 31.4502C78.5602 31.4002 78.6202 31.3902 78.6702 31.4202C78.6902 31.4302 78.7102 31.4402 78.7202 31.4502C78.8302 31.5302 78.9102 31.6502 78.9402 31.7902C78.9502 31.8402 78.9202 31.9002 78.8702 31.9102C78.8702 31.9102 78.8502 31.9102 78.8402 31.9102L78.8502 31.9202ZM77.8402 31.5802C77.8402 31.5802 77.7702 31.5602 77.7502 31.5202C77.7302 31.4702 77.7502 31.4102 77.8002 31.3902C77.9102 31.3402 78.0502 31.3102 78.2102 31.3102H78.2402C78.3002 31.3102 78.3402 31.3502 78.3402 31.4102C78.3402 31.4702 78.3002 31.5102 78.2402 31.5102H78.2102C78.0802 31.5102 77.9702 31.5302 77.8902 31.5702C77.8802 31.5702 77.8602 31.5702 77.8502 31.5702L77.8402 31.5802ZM76.7202 31.4602C76.7202 31.4602 76.6802 31.4602 76.6702 31.4502C76.6202 31.4202 76.6102 31.3602 76.6402 31.3102C76.7202 31.1902 76.8102 31.0702 76.9202 30.9802C76.9602 30.9502 77.0302 30.9502 77.0602 30.9902C77.1002 31.0302 77.0902 31.1002 77.0502 31.1302C76.9602 31.2102 76.8802 31.3002 76.8102 31.4102C76.7902 31.4402 76.7602 31.4602 76.7202 31.4602ZM79.8902 31.3402C79.8302 31.3402 79.7902 31.3002 79.7902 31.2402V30.8402C79.7902 30.7802 79.8302 30.7402 79.8902 30.7402C79.9502 30.7402 79.9902 30.7802 79.9902 30.8402V31.2402C79.9902 31.3002 79.9502 31.3402 79.8902 31.3402ZM77.3202 30.9502C77.3202 30.9502 77.2502 30.9302 77.2302 30.8902C77.2102 30.8402 77.2302 30.7802 77.2802 30.7602C77.3602 30.7202 77.4502 30.6902 77.5502 30.6702C77.5902 30.6602 77.6402 30.6502 77.6902 30.6402C77.7402 30.6302 77.8002 30.6602 77.8102 30.7202C77.8202 30.7702 77.7902 30.8302 77.7302 30.8402C77.6902 30.8402 77.6502 30.8602 77.6102 30.8702C77.5302 30.8902 77.4502 30.9202 77.3702 30.9502C77.3602 30.9502 77.3402 30.9502 77.3302 30.9502H77.3202ZM78.6002 30.8302C78.6002 30.8302 78.6002 30.8302 78.5802 30.8302C78.5602 30.8302 78.5502 30.8302 78.5402 30.8302C78.4102 30.8002 78.2502 30.7902 78.1002 30.8002C78.0502 30.8002 78.0002 30.7602 78.0002 30.7002C78.0002 30.6402 78.0402 30.6002 78.1002 30.6002C78.2702 30.6002 78.4402 30.6002 78.5902 30.6402C78.6002 30.6402 78.6102 30.6402 78.6202 30.6402C78.6702 30.6402 78.7102 30.7002 78.7002 30.7502C78.7002 30.8002 78.6502 30.8302 78.6002 30.8302ZM78.8802 30.8002C78.8202 30.8002 78.7802 30.7602 78.7802 30.7002V30.3002C78.7802 30.2402 78.8202 30.2002 78.8802 30.2002C78.9402 30.2002 78.9802 30.2402 78.9802 30.3002V30.7002C78.9802 30.7602 78.9402 30.8002 78.8802 30.8002ZM79.8902 30.5402C79.8302 30.5402 79.7902 30.5002 79.7902 30.4402V30.0402C79.7902 29.9802 79.8302 29.9402 79.8902 29.9402C79.9502 29.9402 79.9902 29.9802 79.9902 30.0402V30.4402C79.9902 30.5002 79.9502 30.5402 79.8902 30.5402ZM78.8802 30.0002C78.8202 30.0002 78.7802 29.9602 78.7802 29.9002V29.5302C78.7802 29.5302 78.7802 29.5002 78.7802 29.4902C78.7802 29.4402 78.8302 29.4002 78.8802 29.4002C78.9302 29.4002 78.9802 29.4502 78.9702 29.5102V29.9002C78.9702 29.9602 78.9302 30.0002 78.8702 30.0002H78.8802ZM79.8902 29.7402C79.8302 29.7402 79.7902 29.7002 79.7902 29.6402V29.5202C79.7902 29.4602 79.7802 29.4102 79.7602 29.3702C79.7602 29.3502 79.7402 29.3402 79.7302 29.3202C79.7002 29.2802 79.7002 29.2102 79.7502 29.1802C79.7902 29.1502 79.8602 29.1502 79.8902 29.2002C79.9102 29.2302 79.9302 29.2602 79.9402 29.2802C79.9802 29.3502 79.9902 29.4302 79.9902 29.5202V29.6402C79.9902 29.7002 79.9502 29.7402 79.8902 29.7402ZM79.0702 29.2702C79.0702 29.2702 79.0002 29.2502 78.9802 29.2202C78.9502 29.1702 78.9702 29.1102 79.0202 29.0802C79.1502 29.0002 79.3202 28.9802 79.4702 28.9902C79.5302 28.9902 79.5602 29.0502 79.5602 29.1002C79.5602 29.1602 79.5102 29.1902 79.4502 29.1902C79.3302 29.1702 79.2202 29.1902 79.1202 29.2502C79.1002 29.2502 79.0902 29.2602 79.0702 29.2602V29.2702Z" fill="#FFBB24"/>
<path d="M83.5699 33.3104C83.5699 33.4404 83.53 33.5404 83.44 33.6104C83.35 33.6804 83.2299 33.7204 83.0799 33.7204C82.8699 33.7204 82.7299 33.6704 82.6499 33.5604C82.5799 33.6004 82.4999 33.6404 82.4199 33.6604C82.3399 33.6904 82.2499 33.7104 82.1699 33.7204C82.0899 33.7304 81.9999 33.7404 81.9299 33.7504C81.8499 33.7504 81.7799 33.7504 81.7199 33.7504C81.4799 33.7504 81.2799 33.7204 81.1099 33.6704C80.9399 33.6204 80.8099 33.5504 80.7099 33.4704C80.6099 33.3904 80.53 33.3004 80.48 33.1904C80.43 33.0904 80.4099 32.9804 80.3999 32.8804C80.3799 32.5304 80.5099 32.2704 80.7899 32.0904C81.0699 31.9204 81.49 31.8304 82.05 31.8304H82.55C82.55 31.7104 82.4799 31.6004 82.3599 31.5004C82.2399 31.4004 82.0699 31.3504 81.8399 31.3504C81.6799 31.3504 81.5499 31.3604 81.4499 31.3904C81.3499 31.4104 81.2799 31.4404 81.2199 31.4604C81.1099 31.5004 81.0099 31.5204 80.8999 31.5204C80.7999 31.5204 80.7199 31.4604 80.6699 31.3404C80.6299 31.2404 80.6199 31.1404 80.6499 31.0604C80.6799 30.9804 80.7499 30.9104 80.8399 30.8604C80.9599 30.8004 81.12 30.7404 81.3 30.7104C81.49 30.6704 81.6699 30.6504 81.8499 30.6504C82.1499 30.6504 82.41 30.6804 82.62 30.7504C82.83 30.8204 83.0099 30.9104 83.1499 31.0204C83.2899 31.1304 83.3899 31.2704 83.4599 31.4204C83.5299 31.5704 83.5599 31.7304 83.5599 31.8804V33.2804L83.5699 33.3104ZM82.5699 32.4904H82.0399C81.7899 32.4904 81.6199 32.5204 81.5399 32.5704C81.4599 32.6204 81.41 32.6904 81.41 32.8004C81.41 32.8804 81.4499 32.9504 81.5199 33.0104C81.5899 33.0604 81.6899 33.0904 81.8199 33.0904C81.9199 33.0904 82.0099 33.0804 82.0999 33.0504C82.1899 33.0304 82.2699 32.9904 82.3399 32.9504C82.4099 32.9104 82.4699 32.8604 82.5099 32.8004C82.5499 32.7404 82.5699 32.6804 82.5699 32.6104V32.4904Z" fill="white"/>
<path d="M81.88 33.8503C81.83 33.8503 81.78 33.8103 81.78 33.7603C81.78 33.7103 81.82 33.6603 81.87 33.6503H81.92C81.99 33.6503 82.07 33.6303 82.15 33.6203C82.18 33.6203 82.21 33.6103 82.25 33.6003C82.31 33.5903 82.36 33.6203 82.37 33.6803C82.38 33.7303 82.35 33.7903 82.29 33.8003C82.25 33.8003 82.22 33.8203 82.18 33.8203C82.09 33.8303 82.01 33.8403 81.93 33.8503H81.88ZM81.48 33.8403C81.33 33.8303 81.2 33.8003 81.09 33.7703C81.04 33.7503 81 33.7003 81.01 33.6403C81.02 33.5903 81.06 33.5503 81.12 33.5703C81.12 33.5703 81.14 33.5703 81.15 33.5703C81.25 33.6003 81.36 33.6203 81.49 33.6303C81.54 33.6303 81.59 33.6803 81.58 33.7403C81.58 33.7903 81.53 33.8303 81.48 33.8303V33.8403ZM83 33.8003C82.82 33.7903 82.69 33.7303 82.6 33.6303C82.59 33.6303 82.57 33.6103 82.56 33.5903C82.54 33.5503 82.56 33.5003 82.59 33.4703L82.66 33.4003L82.73 33.4903C82.78 33.5603 82.88 33.5903 83.01 33.6103C83.06 33.6103 83.11 33.6603 83.1 33.7203C83.1 33.7703 83.05 33.8103 83 33.8103V33.8003ZM83.39 33.7403C83.39 33.7403 83.32 33.7203 83.31 33.6903C83.28 33.6403 83.3 33.5803 83.34 33.5503C83.35 33.5503 83.37 33.5303 83.38 33.5203C83.44 33.4703 83.47 33.4003 83.47 33.3003C83.47 33.2403 83.51 33.2003 83.57 33.2003C83.63 33.2003 83.67 33.2403 83.67 33.3003C83.67 33.4603 83.61 33.5903 83.5 33.6803C83.48 33.7003 83.46 33.7103 83.44 33.7203C83.42 33.7303 83.41 33.7303 83.39 33.7303V33.7403ZM80.72 33.5903C80.72 33.5903 80.69 33.5903 80.67 33.5703C80.67 33.5703 80.66 33.5603 80.65 33.5603C80.52 33.4603 80.44 33.3503 80.39 33.2403C80.37 33.1903 80.39 33.1303 80.43 33.1003C80.47 33.0703 80.53 33.1003 80.56 33.1403C80.61 33.2403 80.67 33.3203 80.76 33.3903C80.8 33.4203 80.82 33.4903 80.79 33.5403C80.77 33.5703 80.74 33.5903 80.71 33.5903H80.72ZM81.82 33.1803C81.69 33.1803 81.59 33.1603 81.51 33.1103C81.46 33.0803 81.44 33.0203 81.47 32.9703C81.5 32.9203 81.56 32.9003 81.61 32.9303C81.68 32.9703 81.81 32.9803 81.94 32.9703C82 32.9703 82.04 33.0003 82.05 33.0603C82.05 33.1103 82.02 33.1603 81.96 33.1703C81.91 33.1703 81.87 33.1703 81.82 33.1703V33.1803ZM83.57 33.1803C83.51 33.1803 83.47 33.1403 83.47 33.0803V32.6803C83.47 32.6203 83.51 32.5803 83.57 32.5803C83.63 32.5803 83.67 32.6203 83.67 32.6803V33.0803C83.67 33.1403 83.63 33.1803 83.57 33.1803ZM82.39 33.0303L82.32 32.9503L82.27 32.8603H82.28C82.34 32.8203 82.39 32.7803 82.42 32.7303C82.44 32.7003 82.46 32.6703 82.46 32.6303C82.46 32.6103 82.46 32.6003 82.48 32.5803H82.16C82.1 32.5803 82.06 32.5403 82.06 32.4803C82.06 32.4203 82.1 32.3803 82.16 32.3803H82.56C82.62 32.3803 82.66 32.4203 82.66 32.4803C82.66 32.5103 82.64 32.5403 82.62 32.5603C82.65 32.5803 82.66 32.6203 82.66 32.6503C82.66 32.7203 82.62 32.7803 82.58 32.8403C82.53 32.9103 82.46 32.9603 82.38 33.0103L82.39 33.0303ZM80.4 32.9003C80.35 32.9003 80.3 32.8603 80.3 32.8003C80.3 32.6403 80.33 32.4903 80.4 32.3703C80.43 32.3203 80.48 32.3003 80.54 32.3303C80.59 32.3603 80.61 32.4203 80.58 32.4703C80.53 32.5703 80.5 32.6803 80.5 32.8103C80.5 32.8603 80.46 32.9103 80.4 32.9103V32.9003ZM81.43 32.7803C81.43 32.7803 81.4 32.7803 81.39 32.7803C81.34 32.7603 81.32 32.7003 81.34 32.6503C81.37 32.5803 81.42 32.5303 81.49 32.4903C81.55 32.4503 81.64 32.4303 81.76 32.4203C81.82 32.4203 81.86 32.4503 81.87 32.5103C81.87 32.5603 81.84 32.6103 81.78 32.6203C81.67 32.6303 81.61 32.6503 81.59 32.6703C81.56 32.6903 81.54 32.7103 81.52 32.7403C81.5 32.7803 81.47 32.8003 81.43 32.8003V32.7803ZM83.57 32.3803C83.51 32.3803 83.47 32.3403 83.47 32.2803V31.8803C83.47 31.8203 83.51 31.7803 83.57 31.7803C83.63 31.7803 83.67 31.8203 83.67 31.8803V32.2803C83.67 32.3403 83.63 32.3803 83.57 32.3803ZM80.76 32.2203C80.76 32.2203 80.69 32.2003 80.68 32.1703C80.65 32.1203 80.66 32.0603 80.71 32.0303L80.74 32.0103C80.84 31.9503 80.96 31.8903 81.1 31.8503C81.15 31.8303 81.21 31.8603 81.22 31.9203C81.24 31.9703 81.21 32.0303 81.15 32.0403C81.03 32.0803 80.93 32.1203 80.84 32.1703L80.81 32.1903C80.81 32.1903 80.77 32.2103 80.76 32.2103V32.2203ZM81.51 31.9703C81.51 31.9703 81.42 31.9303 81.41 31.8803C81.41 31.8303 81.44 31.7703 81.49 31.7703C81.61 31.7503 81.75 31.7403 81.9 31.7403C81.95 31.7403 82 31.7803 82 31.8403C82 31.9003 81.96 31.9403 81.9 31.9403C81.76 31.9403 81.63 31.9503 81.51 31.9703C81.51 31.9703 81.51 31.9703 81.5 31.9703H81.51ZM82.67 31.9403H82.32C82.26 31.9403 82.22 31.9003 82.22 31.8403C82.22 31.7803 82.26 31.7403 82.32 31.7403H82.44C82.44 31.7403 82.44 31.6303 82.48 31.6103C82.53 31.5803 82.59 31.6103 82.61 31.6503C82.64 31.7103 82.66 31.7703 82.66 31.8403V31.9503L82.67 31.9403ZM81.06 31.6203C81.06 31.6203 80.97 31.5903 80.96 31.5403C80.96 31.4903 80.99 31.4303 81.04 31.4203C81.09 31.4203 81.14 31.4003 81.19 31.3803C81.24 31.3603 81.32 31.3303 81.41 31.3103C81.46 31.3003 81.52 31.3303 81.53 31.3803C81.54 31.4303 81.51 31.4903 81.46 31.5003C81.38 31.5203 81.31 31.5403 81.26 31.5603C81.19 31.5903 81.13 31.6003 81.07 31.6103C81.07 31.6103 81.06 31.6103 81.05 31.6103L81.06 31.6203ZM83.49 31.5903C83.49 31.5903 83.41 31.5703 83.4 31.5303C83.4 31.5203 83.4 31.5003 83.38 31.4903C83.34 31.3903 83.28 31.3103 83.2 31.2303C83.16 31.1903 83.16 31.1303 83.2 31.0903C83.24 31.0503 83.3 31.0503 83.34 31.0903C83.43 31.1803 83.5 31.2903 83.55 31.4103C83.55 31.4303 83.56 31.4403 83.57 31.4603C83.59 31.5103 83.57 31.5703 83.51 31.5903C83.5 31.5903 83.49 31.5903 83.47 31.5903H83.49ZM82.23 31.5303C82.23 31.5303 82.2 31.5303 82.19 31.5303C82.1 31.4903 81.98 31.4703 81.84 31.4703C81.79 31.4703 81.74 31.4303 81.74 31.3703C81.74 31.3103 81.78 31.2703 81.84 31.2703C82.02 31.2703 82.16 31.2903 82.27 31.3403C82.32 31.3603 82.35 31.4203 82.32 31.4703C82.3 31.5103 82.27 31.5303 82.23 31.5303ZM80.71 31.5103C80.71 31.5103 80.64 31.4903 80.63 31.4603C80.62 31.4403 80.61 31.4203 80.6 31.4003C80.57 31.3303 80.55 31.2603 80.55 31.1903C80.55 31.1403 80.55 31.0903 80.58 31.0403C80.58 31.0103 80.6 30.9903 80.61 30.9703C80.64 30.9203 80.7 30.9103 80.75 30.9403C80.8 30.9703 80.81 31.0303 80.78 31.0803C80.78 31.0803 80.77 31.1003 80.76 31.1103C80.76 31.1303 80.75 31.1603 80.75 31.1803C80.75 31.2203 80.75 31.2603 80.78 31.3103C80.78 31.3203 80.79 31.3403 80.8 31.3503C80.83 31.4003 80.81 31.4603 80.77 31.4903C80.75 31.4903 80.74 31.5003 80.72 31.5003L80.71 31.5103ZM82.97 31.0103C82.97 31.0103 82.94 31.0103 82.92 31.0003C82.83 30.9503 82.73 30.9103 82.62 30.8703H82.57C82.52 30.8403 82.49 30.7803 82.5 30.7303C82.52 30.6803 82.57 30.6503 82.63 30.6603H82.67C82.8 30.7203 82.92 30.7603 83.02 30.8203C83.07 30.8503 83.09 30.9103 83.06 30.9603C83.04 30.9903 83.01 31.0103 82.97 31.0103ZM81.02 30.9103C81.02 30.9103 80.94 30.8803 80.93 30.8403C80.91 30.7903 80.93 30.7303 80.99 30.7103C81.08 30.6803 81.18 30.6503 81.31 30.6203L81.39 30.6003C81.44 30.5803 81.5 30.6203 81.51 30.6803C81.52 30.7303 81.49 30.7903 81.43 30.8003L81.35 30.8203C81.24 30.8503 81.14 30.8703 81.06 30.9003C81.05 30.9003 81.04 30.9003 81.03 30.9003L81.02 30.9103ZM82.2 30.7903C82.1 30.7803 82 30.7703 81.88 30.7703C81.86 30.7803 81.84 30.7703 81.82 30.7703C81.77 30.7703 81.72 30.7303 81.72 30.6703C81.72 30.6203 81.76 30.5703 81.82 30.5703C81.97 30.5703 82.11 30.5703 82.23 30.5803C82.29 30.5803 82.33 30.6303 82.32 30.6903C82.32 30.7403 82.27 30.7803 82.22 30.7803L82.2 30.7903Z" fill="#FFBB24"/>
<path d="M85.7899 34.8101C85.7499 34.8801 85.7099 34.9301 85.6699 34.9701C85.6299 35.0101 85.5799 35.0301 85.5299 35.0501C85.4799 35.0701 85.4299 35.0701 85.3699 35.0601C85.3099 35.0601 85.2599 35.0401 85.2099 35.0201C85.0799 34.9601 84.9899 34.8901 84.9499 34.7901C84.9099 34.6901 84.9199 34.5801 84.9699 34.4601L85.3699 33.6201L84.1599 31.2601C84.0999 31.1601 84.0999 31.0501 84.1399 30.9401C84.1799 30.8301 84.2699 30.7501 84.4199 30.7001C84.5699 30.6401 84.6999 30.6401 84.8199 30.6901C84.9399 30.7401 85.0199 30.8301 85.0799 30.9501C85.1599 31.1101 85.2299 31.2501 85.2999 31.3901C85.3699 31.5301 85.4399 31.6601 85.4999 31.7901C85.5699 31.9201 85.6299 32.0501 85.6999 32.1901C85.7699 32.3301 85.8399 32.4701 85.9199 32.6301L86.7499 30.9101C86.7499 30.9101 86.7799 30.8501 86.8099 30.8201C86.8399 30.7901 86.8799 30.7601 86.9299 30.7401C86.9799 30.7201 87.0399 30.7001 87.1099 30.7001C87.1799 30.7001 87.2599 30.7001 87.3499 30.7401C87.4699 30.7801 87.5599 30.8501 87.6199 30.9501C87.6799 31.0501 87.6899 31.1601 87.6199 31.2701L85.7999 34.8301L85.7899 34.8101Z" fill="white"/>
<path d="M85.49 35.15C85.49 35.15 85.4 35.12 85.39 35.07C85.38 35.02 85.41 34.96 85.47 34.95C85.53 34.93 85.56 34.91 85.6 34.88C85.64 34.85 85.67 34.81 85.7 34.75L85.88 34.39C85.91 34.34 85.97 34.32 86.01 34.35C86.05 34.38 86.08 34.43 86.05 34.48L85.87 34.84C85.83 34.92 85.78 34.98 85.72 35.03C85.67 35.07 85.61 35.11 85.54 35.13C85.52 35.13 85.51 35.13 85.5 35.14C85.5 35.14 85.49 35.14 85.48 35.14L85.49 35.15ZM85.11 35.07C85.11 35.07 85.07 35.07 85.06 35.06C84.96 35 84.89 34.92 84.85 34.83C84.83 34.78 84.82 34.72 84.82 34.66C84.82 34.6 84.86 34.55 84.92 34.55C84.98 34.55 85.02 34.59 85.02 34.64C85.02 34.69 85.02 34.72 85.04 34.75C85.06 34.8 85.1 34.85 85.17 34.89C85.22 34.92 85.23 34.98 85.2 35.03C85.18 35.06 85.15 35.08 85.11 35.08V35.07ZM85.06 34.37C85.06 34.37 85.03 34.37 85.02 34.37C84.97 34.35 84.95 34.29 84.97 34.24L85.14 33.88C85.14 33.88 85.23 33.81 85.27 33.83C85.32 33.85 85.34 33.91 85.32 33.96L85.15 34.32C85.15 34.32 85.1 34.38 85.06 34.38V34.37ZM86.16 34.18C86.16 34.18 86.13 34.18 86.11 34.17C86.06 34.14 86.04 34.09 86.07 34.04L86.25 33.68C86.25 33.68 86.34 33.61 86.38 33.64C86.42 33.67 86.45 33.72 86.42 33.77L86.24 34.13C86.24 34.13 86.19 34.18 86.15 34.18H86.16ZM85.33 33.64C85.33 33.64 85.26 33.62 85.24 33.59L85.06 33.23C85.06 33.23 85.06 33.12 85.1 33.1C85.15 33.07 85.21 33.1 85.23 33.14L85.41 33.5C85.41 33.5 85.41 33.61 85.37 33.63C85.36 33.63 85.34 33.64 85.32 33.64H85.33ZM86.53 33.47C86.53 33.47 86.5 33.47 86.48 33.46C86.43 33.43 86.41 33.38 86.44 33.33L86.62 32.97C86.62 32.97 86.71 32.9 86.75 32.93C86.79 32.96 86.82 33.01 86.79 33.06L86.61 33.42C86.61 33.42 86.56 33.47 86.52 33.47H86.53ZM84.96 32.93C84.96 32.93 84.89 32.91 84.87 32.88L84.69 32.52C84.69 32.52 84.69 32.41 84.73 32.39C84.78 32.36 84.84 32.39 84.86 32.43L85.04 32.79C85.04 32.79 85.04 32.9 85 32.92C84.99 32.92 84.97 32.93 84.95 32.93H84.96ZM85.9 32.85L85.81 32.66C85.76 32.55 85.71 32.46 85.67 32.37C85.65 32.32 85.67 32.26 85.71 32.24C85.76 32.22 85.82 32.24 85.84 32.28C85.87 32.34 85.9 32.4 85.93 32.46C85.93 32.46 85.96 32.46 85.97 32.46C86.02 32.48 86.04 32.54 86.02 32.59L85.9 32.84V32.85ZM86.89 32.75C86.89 32.75 86.86 32.75 86.84 32.74C86.79 32.71 86.77 32.66 86.8 32.61L86.98 32.25C86.98 32.25 87.07 32.18 87.11 32.21C87.16 32.24 87.18 32.29 87.15 32.34L86.97 32.7C86.97 32.7 86.92 32.75 86.88 32.75H86.89ZM86.1 32.3C86.1 32.3 86.07 32.3 86.06 32.3C86.01 32.28 85.99 32.22 86.01 32.17L86.18 31.81C86.2 31.76 86.26 31.74 86.31 31.76C86.36 31.78 86.38 31.84 86.36 31.89L86.19 32.25C86.19 32.25 86.14 32.31 86.1 32.31V32.3ZM84.59 32.22C84.59 32.22 84.52 32.2 84.5 32.17L84.32 31.81C84.32 31.81 84.32 31.7 84.36 31.68C84.41 31.65 84.47 31.68 84.49 31.72L84.67 32.08C84.67 32.08 84.67 32.19 84.63 32.21C84.62 32.21 84.6 32.22 84.58 32.22H84.59ZM85.57 32.07C85.57 32.07 85.5 32.05 85.48 32.02L85.3 31.66C85.3 31.66 85.3 31.55 85.34 31.53C85.39 31.5 85.45 31.53 85.47 31.57L85.65 31.93C85.65 31.93 85.65 32.04 85.61 32.06C85.6 32.06 85.58 32.06 85.57 32.06V32.07ZM87.26 32.04C87.26 32.04 87.23 32.04 87.21 32.03C87.16 32 87.14 31.95 87.17 31.9L87.35 31.54C87.35 31.54 87.44 31.47 87.48 31.5C87.53 31.53 87.55 31.58 87.52 31.63L87.34 31.99C87.34 31.99 87.29 32.04 87.25 32.04H87.26ZM86.45 31.57C86.45 31.57 86.42 31.57 86.41 31.57C86.36 31.55 86.34 31.49 86.36 31.44L86.53 31.08C86.55 31.03 86.61 31.01 86.66 31.03C86.71 31.05 86.73 31.11 86.71 31.16L86.54 31.52C86.54 31.52 86.49 31.58 86.45 31.58V31.57ZM84.23 31.51C84.23 31.51 84.16 31.49 84.14 31.46L84.06 31.31C84.02 31.24 84 31.16 84 31.09C84 31.07 84 31.05 84 31.03C84 30.97 84.06 30.94 84.11 30.95C84.16 30.95 84.2 31.01 84.19 31.06C84.19 31.06 84.19 31.08 84.19 31.09C84.19 31.13 84.2 31.18 84.23 31.22L84.31 31.37C84.31 31.37 84.31 31.48 84.27 31.5C84.26 31.5 84.24 31.51 84.22 31.51H84.23ZM85.21 31.35C85.21 31.35 85.14 31.33 85.12 31.29L84.97 30.99C84.97 30.99 84.95 30.95 84.94 30.94C84.91 30.89 84.94 30.83 84.98 30.8C85.03 30.78 85.09 30.8 85.12 30.84C85.13 30.86 85.14 30.88 85.15 30.91L85.3 31.2C85.3 31.2 85.3 31.31 85.25 31.33C85.24 31.33 85.22 31.33 85.21 31.33V31.35ZM87.62 31.33C87.62 31.33 87.59 31.33 87.58 31.33C87.53 31.31 87.51 31.25 87.53 31.2C87.55 31.17 87.55 31.14 87.55 31.1C87.55 31.06 87.54 31.03 87.51 30.99C87.5 30.97 87.49 30.95 87.47 30.94C87.43 30.9 87.44 30.84 87.47 30.8C87.51 30.76 87.57 30.77 87.61 30.8C87.63 30.83 87.65 30.85 87.67 30.88C87.71 30.95 87.73 31.02 87.73 31.1C87.73 31.16 87.72 31.22 87.69 31.28C87.67 31.32 87.64 31.34 87.6 31.34L87.62 31.33ZM86.82 30.87C86.82 30.87 86.76 30.86 86.74 30.83C86.71 30.79 86.71 30.72 86.76 30.69C86.79 30.67 86.82 30.65 86.86 30.63C86.93 30.6 87 30.59 87.08 30.58C87.08 30.58 87.17 30.58 87.21 30.58C87.26 30.58 87.3 30.64 87.29 30.69C87.29 30.74 87.24 30.79 87.18 30.77C87.15 30.77 87.12 30.77 87.08 30.77C87.03 30.77 86.98 30.78 86.94 30.8C86.92 30.81 86.9 30.82 86.88 30.84C86.86 30.85 86.84 30.86 86.82 30.86V30.87ZM84.34 30.83C84.34 30.83 84.27 30.81 84.25 30.78C84.22 30.73 84.25 30.67 84.29 30.64C84.32 30.63 84.34 30.61 84.37 30.6C84.5 30.55 84.63 30.53 84.74 30.56C84.79 30.57 84.83 30.62 84.82 30.68C84.82 30.73 84.76 30.78 84.7 30.76C84.62 30.75 84.54 30.76 84.44 30.79C84.42 30.79 84.4 30.81 84.38 30.82C84.36 30.82 84.35 30.83 84.33 30.83H84.34Z" fill="#FFBB24"/>
</svg>
