<svg width="148" height="148" viewBox="0 0 148 148" fill="none" xmlns="http://www.w3.org/2000/svg">
<g clip-path="url(#clip0_1466_4744)">
<path d="M138 51.57C138 28.61 119.39 10 96.43 10C88.16 10 80.47 12.42 74 16.58C67.53 12.42 59.83 10 51.57 10C28.61 10 10 28.61 10 51.57C10 59.84 12.42 67.53 16.58 74C12.42 80.47 10 88.17 10 96.43C10 119.39 28.61 138 51.57 138C59.84 138 67.53 135.58 74 131.42C80.47 135.58 88.17 138 96.43 138C119.39 138 138 119.39 138 96.43C138 88.16 135.58 80.47 131.42 74C135.58 67.53 138 59.83 138 51.57Z" fill="#FFCB39"/>
<mask id="mask0_1466_4744" style="mask-type:luminance" maskUnits="userSpaceOnUse" x="10" y="10" width="128" height="128">
<path d="M138 51.57C138 28.61 119.39 10 96.43 10C88.16 10 80.47 12.42 74 16.58C67.53 12.42 59.83 10 51.57 10C28.61 10 10 28.61 10 51.57C10 59.84 12.42 67.53 16.58 74C12.42 80.47 10 88.17 10 96.43C10 119.39 28.61 138 51.57 138C59.84 138 67.53 135.58 74 131.42C80.47 135.58 88.17 138 96.43 138C119.39 138 138 119.39 138 96.43C138 88.16 135.58 80.47 131.42 74C135.58 67.53 138 59.83 138 51.57Z" fill="white"/>
</mask>
<g mask="url(#mask0_1466_4744)">
<path d="M16.5002 45.2197C16.3902 48.7797 18.0102 50.2797 20.0602 50.3397C22.1102 50.3997 23.8202 49.0097 23.9302 45.4497C24.0102 42.7697 22.0102 39.5997 21.0102 38.1897C20.7302 37.7997 20.1602 37.7797 19.8602 38.1497C18.7702 39.4997 16.5802 42.5397 16.5002 45.2197Z" fill="#060606"/>
<path d="M25.6502 26.1299C26.8302 22.7699 28.8802 21.9599 30.8202 22.6399C32.7602 23.3199 33.8502 25.2399 32.6702 28.5999C31.7802 31.1299 28.7702 33.3599 27.3302 34.3199C26.9302 34.5799 26.3902 34.3899 26.2402 33.9399C25.7102 32.2899 24.7602 28.6599 25.6502 26.1299Z" fill="#060606"/>
<path d="M17.71 42.0698C17.87 42.2698 18.05 42.4398 18.26 42.5798C20.4 44.0898 24.29 42.2598 26.95 38.4898C29.61 34.7198 30.03 30.4398 27.88 28.9298C27.67 28.7798 27.45 28.6698 27.21 28.5798C27.14 27.0098 26.59 25.7298 25.54 24.9898C22.92 23.1398 18.16 25.3798 14.9 29.9998C11.65 34.6098 11.14 39.8498 13.76 41.6998C14.81 42.4398 16.2 42.5198 17.7 42.0598L17.71 42.0698Z" fill="white"/>
<path d="M17.83 26.6798C18.67 25.9798 19.54 25.4098 20.43 24.9998C22.47 24.0398 24.31 24.0098 25.6 24.9298C26.63 25.6498 27.22 26.8998 27.3 28.5298C27.53 28.6198 27.74 28.7298 27.93 28.8698C30.11 30.4098 29.7 34.7498 27.02 38.5598C24.34 42.3698 20.38 44.2098 18.2 42.6698C18.01 42.5298 17.83 42.3698 17.67 42.1898C16.1 42.6598 14.74 42.5198 13.71 41.7998C11.05 39.9298 11.55 34.6198 14.83 29.9698C15.72 28.7098 16.74 27.5898 17.82 26.6898L17.83 26.6798ZM24.45 41.0798C25.31 40.3698 26.13 39.4798 26.87 38.4398C29.49 34.7198 29.92 30.4898 27.83 29.0098C27.63 28.8698 27.42 28.7598 27.18 28.6798L27.12 28.6598V28.5998C27.04 26.9998 26.48 25.7798 25.49 25.0798C24.25 24.2098 22.48 24.2398 20.5 25.1698C18.51 26.1098 16.55 27.8498 14.98 30.0698C11.76 34.6298 11.24 39.8198 13.81 41.6398C14.8 42.3398 16.14 42.4598 17.67 41.9898L17.73 41.9698L17.77 42.0198C17.93 42.2098 18.11 42.3798 18.3 42.5198C19.81 43.5898 22.23 42.9298 24.44 41.0898L24.45 41.0798Z" fill="#FDE094"/>
<path d="M21.8966 34.9332C22.0366 34.7346 22.0843 34.5272 22.003 34.4699C21.9218 34.4126 21.7424 34.5272 21.6024 34.7258C21.4624 34.9244 21.4147 35.1319 21.496 35.1892C21.5773 35.2464 21.7566 35.1318 21.8966 34.9332Z" fill="#060606"/>
<path d="M15.4555 37.9672C16.9061 36.0869 16.9655 33.7011 15.588 32.6385C14.2106 31.5758 11.918 32.2386 10.4674 34.1189C9.01679 35.9992 8.95744 38.3849 10.3349 39.4476C11.7123 40.5102 14.0049 39.8474 15.4555 37.9672Z" fill="white"/>
<path d="M11.3001 33.1299C11.8301 32.6899 12.4301 32.3599 13.0401 32.1799C14.0401 31.8899 14.9701 32.0199 15.6501 32.5599C17.0601 33.6499 17.0101 36.0999 15.5301 38.0199C14.0501 39.9399 11.6901 40.6099 10.2801 39.5199C8.87006 38.4299 8.92006 35.9799 10.4001 34.0599C10.6701 33.7099 10.9701 33.3999 11.3001 33.1299ZM14.5201 38.7999C14.8301 38.5399 15.1201 38.2399 15.3801 37.8999C16.8001 36.0599 16.8701 33.7299 15.5401 32.6999C14.9001 32.2099 14.0301 32.0799 13.0901 32.3599C12.1401 32.6299 11.2401 33.2799 10.5501 34.1699C9.13006 36.0099 9.06006 38.3399 10.3901 39.3699C11.4701 40.2099 13.1601 39.9199 14.5101 38.7999H14.5201Z" fill="#FDE094"/>
<path d="M21.4274 28.1219C22.878 26.2417 22.9374 23.8559 21.56 22.7932C20.1826 21.7306 17.89 22.3934 16.4393 24.2737C14.9887 26.154 14.9294 28.5397 16.3068 29.6024C17.6842 30.665 19.9768 30.0022 21.4274 28.1219Z" fill="white"/>
<path d="M17.27 23.2896C17.8 22.8496 18.4 22.5196 19.01 22.3396C20.01 22.0496 20.94 22.1796 21.62 22.7196C23.03 23.8096 22.98 26.2596 21.5 28.1796C20.79 29.1096 19.85 29.7696 18.86 30.0596C17.86 30.3496 16.93 30.2196 16.25 29.6796C14.84 28.5896 14.89 26.1396 16.37 24.2196C16.64 23.8696 16.94 23.5596 17.27 23.2896ZM20.48 28.9696C20.79 28.7096 21.09 28.4096 21.35 28.0696C22.77 26.2296 22.84 23.8996 21.51 22.8696C20.87 22.3796 20 22.2496 19.06 22.5296C18.11 22.8096 17.21 23.4496 16.52 24.3396C15.1 26.1796 15.03 28.5096 16.36 29.5396C17 30.0296 17.87 30.1596 18.81 29.8796C19.4 29.7096 19.97 29.3996 20.48 28.9696Z" fill="#FDE094"/>
<path d="M22.6001 33.7699C23.7267 33.7699 24.6401 32.8566 24.6401 31.7299C24.6401 30.6033 23.7267 29.6899 22.6001 29.6899C21.4734 29.6899 20.5601 30.6033 20.5601 31.7299C20.5601 32.8566 21.4734 33.7699 22.6001 33.7699Z" fill="#FDE094"/>
<path d="M19.09 39.5497C20.2167 39.5497 21.13 38.6364 21.13 37.5097C21.13 36.3831 20.2167 35.4697 19.09 35.4697C17.9634 35.4697 17.05 36.3831 17.05 37.5097C17.05 38.6364 17.9634 39.5497 19.09 39.5497Z" fill="#FDE094"/>
<path d="M23.3401 34.2798C23.6217 34.2798 23.8501 34.0514 23.8501 33.7698C23.8501 33.4881 23.6217 33.2598 23.3401 33.2598C23.0584 33.2598 22.8301 33.4881 22.8301 33.7698C22.8301 34.0514 23.0584 34.2798 23.3401 34.2798Z" fill="#060606"/>
<path d="M21.25 37.2397C21.5317 37.2397 21.76 37.0114 21.76 36.7297C21.76 36.4481 21.5317 36.2197 21.25 36.2197C20.9683 36.2197 20.74 36.4481 20.74 36.7297C20.74 37.0114 20.9683 37.2397 21.25 37.2397Z" fill="#060606"/>
<path d="M107.79 117.28L109.17 119.09C110.03 120.21 111.78 119.99 112.32 118.69L113.2 116.59C113.74 115.29 112.67 113.89 111.27 114.07L109.02 114.36C107.62 114.54 106.94 116.17 107.8 117.29L107.79 117.28Z" fill="#FFF3E1"/>
<path d="M110.62 119.93C110.01 119.93 109.45 119.65 109.08 119.16L107.7 117.35C107.27 116.79 107.18 116.07 107.45 115.41C107.72 114.76 108.3 114.32 109 114.23L111.25 113.94C111.95 113.85 112.62 114.13 113.05 114.69C113.48 115.25 113.57 115.97 113.3 116.62L112.42 118.72C112.15 119.37 111.57 119.81 110.87 119.9C110.78 119.91 110.7 119.92 110.61 119.92L110.62 119.93ZM107.89 117.21L109.27 119.02C109.65 119.51 110.23 119.76 110.85 119.68C111.47 119.6 111.97 119.21 112.21 118.64L113.09 116.54C113.33 115.97 113.25 115.33 112.87 114.84C112.49 114.35 111.91 114.1 111.29 114.18L109.04 114.47C108.42 114.55 107.92 114.94 107.68 115.51C107.44 116.08 107.52 116.72 107.9 117.21H107.89Z" fill="#FFE8BB"/>
<path d="M109.24 116.81L110.23 118.1C110.55 118.52 111.21 118.44 111.41 117.95L112.04 116.45C112.24 115.96 111.84 115.43 111.32 115.5L109.71 115.71C109.18 115.78 108.93 116.39 109.25 116.81H109.24Z" fill="#FFD37B"/>
<path d="M117.63 106.14L117.24 108.4C117 109.79 118.35 110.91 119.67 110.42L121.82 109.63C123.14 109.14 123.44 107.41 122.36 106.51L120.6 105.04C119.52 104.14 117.87 104.75 117.63 106.13V106.14Z" fill="#FFF3E1"/>
<path d="M119.03 110.66C118.59 110.66 118.15 110.51 117.79 110.21C117.25 109.76 117 109.08 117.12 108.38L117.51 106.12C117.63 105.43 118.09 104.87 118.75 104.63C119.41 104.39 120.13 104.51 120.67 104.96L122.43 106.43C122.97 106.88 123.22 107.56 123.1 108.26C122.98 108.95 122.52 109.51 121.86 109.75L119.71 110.54C119.49 110.62 119.26 110.66 119.03 110.66ZM119.44 104.74C119.24 104.74 119.04 104.78 118.84 104.85C118.26 105.06 117.85 105.55 117.75 106.16L117.36 108.42C117.25 109.03 117.48 109.63 117.95 110.02C118.42 110.42 119.05 110.52 119.63 110.31L121.78 109.52C122.36 109.31 122.77 108.81 122.87 108.21C122.97 107.61 122.75 107 122.28 106.61L120.52 105.14C120.21 104.88 119.82 104.74 119.43 104.74H119.44Z" fill="#FFE8BB"/>
<path d="M118.85 107.13L118.76 108.5C118.72 109.09 119.33 109.49 119.86 109.24L121.09 108.64C121.62 108.38 121.67 107.65 121.18 107.32L120.04 106.56C119.55 106.23 118.89 106.56 118.85 107.14V107.13Z" fill="#FFD37B"/>
<path d="M111.5 124.68C111.22 124.53 110.96 124.35 110.72 124.14C108.3 121.89 109.55 116.61 113.51 112.35C117.47 108.09 122.64 106.46 125.06 108.71C125.29 108.93 125.49 109.17 125.66 109.45C127.61 109.13 129.34 109.47 130.52 110.57C133.48 113.32 131.96 119.78 127.11 125C122.26 130.21 115.94 132.21 112.97 129.46C111.78 128.36 111.32 126.66 111.5 124.69V124.68Z" fill="#FFF3D9"/>
<mask id="mask1_1466_4744" style="mask-type:luminance" maskUnits="userSpaceOnUse" x="109" y="107" width="24" height="24">
<path d="M111.5 124.68C111.22 124.53 110.96 124.35 110.72 124.14C108.3 121.89 109.55 116.61 113.51 112.35C117.47 108.09 122.64 106.46 125.06 108.71C125.29 108.93 125.49 109.17 125.66 109.45C127.61 109.13 129.34 109.47 130.52 110.57C133.48 113.32 131.96 119.78 127.11 125C122.26 130.21 115.94 132.21 112.97 129.46C111.78 128.36 111.32 126.66 111.5 124.69V124.68Z" fill="white"/>
</mask>
<g mask="url(#mask1_1466_4744)">
<path opacity="0.8" d="M112.63 125.2C116.341 125.2 119.35 122.192 119.35 118.48C119.35 114.769 116.341 111.76 112.63 111.76C108.919 111.76 105.91 114.769 105.91 118.48C105.91 122.192 108.919 125.2 112.63 125.2Z" fill="#FFE7B3"/>
</g>
<path d="M119.733 117.899C119.943 117.672 120.038 117.418 119.945 117.332C119.852 117.245 119.606 117.359 119.396 117.585C119.185 117.812 119.09 118.066 119.183 118.152C119.276 118.239 119.522 118.125 119.733 117.899Z" fill="#060606"/>
<path d="M119.86 118.81C120.04 118.62 120.12 118.42 120.09 118.23C120.04 117.88 119.67 117.7 119.66 117.7C119.59 117.67 119.5 117.7 119.47 117.77C119.43 117.84 119.47 117.93 119.54 117.97C119.61 118 119.79 118.12 119.81 118.28C119.83 118.44 119.68 118.61 119.55 118.72C119.49 118.77 119.48 118.87 119.53 118.93C119.58 118.99 119.68 119 119.74 118.95C119.79 118.91 119.83 118.87 119.87 118.82L119.86 118.81Z" fill="#060606"/>
<path d="M120.66 118C120.66 118 120.74 117.91 120.78 117.86C120.83 117.8 120.81 117.7 120.75 117.65C120.68 117.6 120.59 117.61 120.54 117.68C120.44 117.82 120.28 117.98 120.12 117.98C119.96 117.98 119.83 117.8 119.79 117.74C119.75 117.67 119.66 117.65 119.59 117.69C119.52 117.73 119.5 117.82 119.54 117.89C119.54 117.91 119.76 118.26 120.1 118.28C120.29 118.29 120.48 118.2 120.66 118.01V118Z" fill="#060606"/>
<path d="M123.12 118.41C124.462 118.41 125.55 117.322 125.55 115.98C125.55 114.638 124.462 113.55 123.12 113.55C121.778 113.55 120.69 114.638 120.69 115.98C120.69 117.322 121.778 118.41 123.12 118.41Z" fill="#FFD37B"/>
<path d="M118.1 123.8C119.442 123.8 120.53 122.712 120.53 121.37C120.53 120.028 119.442 118.94 118.1 118.94C116.758 118.94 115.67 120.028 115.67 121.37C115.67 122.712 116.758 123.8 118.1 123.8Z" fill="#FFD37B"/>
<path d="M120.45 116.15C120.804 116.15 121.09 115.864 121.09 115.51C121.09 115.157 120.804 114.87 120.45 114.87C120.097 114.87 119.81 115.157 119.81 115.51C119.81 115.864 120.097 116.15 120.45 116.15Z" fill="#060606"/>
<path d="M117.34 119.5C117.693 119.5 117.98 119.213 117.98 118.86C117.98 118.506 117.693 118.22 117.34 118.22C116.986 118.22 116.7 118.506 116.7 118.86C116.7 119.213 116.986 119.5 117.34 119.5Z" fill="#060606"/>
<path d="M133.956 121.544C135.901 119.261 136.125 116.258 134.456 114.836C132.787 113.414 129.857 114.112 127.913 116.395C125.968 118.677 125.744 121.681 127.413 123.102C129.082 124.524 132.012 123.827 133.956 121.544Z" fill="#FFF3E1"/>
<path d="M129.53 123.96C128.69 123.96 127.93 123.7 127.34 123.19C125.63 121.73 125.84 118.65 127.83 116.32C129.81 113.99 132.82 113.29 134.54 114.75C136.25 116.21 136.04 119.29 134.05 121.62C133.09 122.74 131.87 123.53 130.61 123.83C130.24 123.92 129.88 123.96 129.53 123.96ZM132.33 114.23C130.89 114.23 129.24 115.03 128 116.48C126.1 118.71 125.87 121.64 127.49 123.02C128.27 123.68 129.36 123.89 130.55 123.6C131.76 123.31 132.94 122.56 133.86 121.47C135.76 119.24 135.99 116.31 134.38 114.93C133.82 114.45 133.1 114.22 132.33 114.22V114.23Z" fill="#FFE8BB"/>
<path d="M123.377 131.475C125.322 129.192 125.546 126.189 123.877 124.767C122.208 123.345 119.278 124.043 117.333 126.326C115.389 128.608 115.165 131.612 116.834 133.034C118.503 134.456 121.433 133.758 123.377 131.475Z" fill="#FFF3E1"/>
<path d="M118.95 133.89C118.12 133.89 117.36 133.64 116.75 133.13C115.04 131.67 115.25 128.59 117.24 126.26C118.2 125.14 119.42 124.35 120.68 124.05C121.95 123.75 123.11 123.97 123.95 124.68C125.66 126.14 125.45 129.22 123.46 131.55C122.18 133.06 120.46 133.88 118.95 133.88V133.89ZM116.91 132.95C118.53 134.33 121.39 133.63 123.28 131.4C125.18 129.17 125.41 126.24 123.79 124.86C123.01 124.2 121.93 123.99 120.73 124.28C119.52 124.57 118.34 125.32 117.42 126.41C115.52 128.64 115.29 131.57 116.91 132.95Z" fill="#FFE8BB"/>
<mask id="mask2_1466_4744" style="mask-type:luminance" maskUnits="userSpaceOnUse" x="126" y="114" width="10" height="10">
<path d="M134.048 121.611C135.993 119.328 136.217 116.325 134.548 114.903C132.879 113.481 129.949 114.179 128.004 116.461C126.059 118.744 125.836 121.747 127.505 123.169C129.174 124.591 132.103 123.893 134.048 121.611Z" fill="white"/>
</mask>
<g mask="url(#mask2_1466_4744)">
<path opacity="0.8" d="M133.63 123.88C136.38 123.88 138.61 121.65 138.61 118.9C138.61 116.15 136.38 113.92 133.63 113.92C130.88 113.92 128.65 116.15 128.65 118.9C128.65 121.65 130.88 123.88 133.63 123.88Z" fill="#FFDC8D"/>
</g>
</g>
<path d="M104.66 127.16L106.01 127.17L107.14 126.41L107.13 127.76L107.89 128.89L106.53 128.88L105.41 129.64L105.42 128.28L104.66 127.16Z" fill="white"/>
<path d="M76.0801 124.44L77.4001 124.33L78.5601 123.69L78.6701 125.01L79.3101 126.17L77.9901 126.28L76.8301 126.92L76.7201 125.6L76.0801 124.44Z" fill="white"/>
<path d="M12.48 47.1602L13.84 47.1702L14.96 46.4102V47.7602L15.72 48.8902L14.36 48.8802L13.24 49.6402V48.2802L12.48 47.1602Z" fill="white"/>
<path d="M31.96 32.0298L33.32 32.0398L34.44 31.2798L34.43 32.6298L35.19 33.7598L33.84 33.7498L32.71 34.5098L32.72 33.1498L31.96 32.0298Z" fill="white"/>
<path d="M132.37 105.24L133.11 106.38L134.36 106.9L133.22 107.64L132.7 108.89L131.96 107.75L130.71 107.23L131.85 106.49L132.37 105.24Z" fill="white"/>
<path d="M33.4301 19.62C33.4301 19.62 33.4101 19.65 33.4001 19.67C33.1701 20.19 33.4001 20.8 33.9201 21.03C34.4401 21.26 35.0501 21.03 35.2801 20.51C35.4001 20.23 35.3901 19.93 35.2801 19.67L38.5201 18.42C38.6101 18.69 38.8001 18.92 39.0801 19.05C39.6001 19.28 40.2101 19.05 40.4401 18.53C40.6701 18.01 40.4401 17.4 39.9201 17.17C39.9001 17.17 39.8801 17.16 39.8701 17.15C39.8701 17.13 39.8901 17.12 39.9001 17.1C40.1301 16.58 39.9001 15.97 39.3801 15.74C38.8601 15.51 38.2501 15.74 38.0201 16.26C37.8901 16.55 37.9101 16.86 38.0301 17.12L34.7901 18.37C34.7101 18.09 34.5101 17.85 34.2201 17.72C33.7001 17.49 33.0901 17.72 32.8601 18.24C32.6301 18.76 32.8601 19.37 33.3801 19.6C33.4001 19.6 33.4201 19.61 33.4301 19.62Z" fill="#FEFEFE"/>
<path d="M44.88 17.6702C45.4931 17.6702 45.99 17.1732 45.99 16.5602C45.99 15.9472 45.4931 15.4502 44.88 15.4502C44.267 15.4502 43.77 15.9472 43.77 16.5602C43.77 17.1732 44.267 17.6702 44.88 17.6702Z" fill="#FDE094"/>
<path d="M52.03 14.73L51.26 15.13L51.01 15.96C50.95 16.17 50.69 16.23 50.54 16.08L49.93 15.47L49.07 15.49C48.86 15.49 48.71 15.27 48.81 15.08L49.2 14.31L48.91 13.5C48.84 13.3 49.01 13.09 49.22 13.12L50.07 13.25L50.76 12.73C50.93 12.6 51.18 12.7 51.21 12.91L51.35 13.76L52.06 14.25C52.24 14.37 52.22 14.64 52.03 14.74V14.73Z" fill="#FF8827"/>
<path d="M58.8701 19.7302C58.7401 19.7302 58.6201 19.6802 58.5201 19.5902C57.5201 18.6102 57.0601 17.5902 56.9301 16.6602C55.9601 16.5902 55.0801 16.4002 54.7801 16.3302C54.5101 16.2702 54.3401 16.0002 54.4101 15.7302C54.4701 15.4602 54.7401 15.2902 55.0101 15.3602C55.5601 15.4902 56.2601 15.6002 56.9201 15.6502C56.9601 15.3002 57.0601 14.9802 57.1801 14.6902C57.5501 13.8402 58.2601 13.3102 58.8901 13.3602C59.1601 13.3702 59.8201 13.5202 60.1301 14.5202C60.3701 15.2802 60.1301 15.7602 59.8801 16.0302C59.4701 16.4702 58.7401 16.6402 57.9501 16.6802C58.0801 17.3702 58.4601 18.1302 59.2201 18.8702C59.4201 19.0602 59.4201 19.3802 59.2201 19.5802C59.1201 19.6802 58.9901 19.7302 58.8601 19.7302H58.8701ZM58.8201 14.3502C58.6501 14.3502 58.3201 14.5702 58.0901 15.0902C58.0101 15.2602 57.9601 15.4602 57.9201 15.6702C58.4901 15.6502 58.9401 15.5502 59.1401 15.3402C59.1801 15.3002 59.2901 15.1802 59.1701 14.8102C59.0801 14.5302 58.9501 14.3602 58.8301 14.3502H58.8201Z" fill="#FFF5E1"/>
<path d="M129.23 85.4598H129.21C128.93 85.4498 128.72 85.2098 128.74 84.9398C128.77 84.3698 128.75 83.6698 128.68 82.9998C128.33 83.0198 127.99 82.9898 127.69 82.9198C126.79 82.7098 126.16 82.1398 126.07 81.4798C126.04 81.2098 126.06 80.5398 126.98 80.0498C127.69 79.6698 128.2 79.8298 128.51 80.0198C129.02 80.3398 129.32 81.0298 129.5 81.7998C130.15 81.5498 130.83 81.0298 131.43 80.1498C131.59 79.9198 131.9 79.8598 132.12 80.0098C132.35 80.1698 132.41 80.4798 132.26 80.6998C131.48 81.8598 130.56 82.4998 129.67 82.7998C129.78 83.7598 129.75 84.6598 129.73 84.9798C129.72 85.2498 129.5 85.4598 129.23 85.4598ZM127.8 80.8198C127.72 80.8198 127.6 80.8498 127.44 80.9298C127.18 81.0698 127.04 81.2198 127.05 81.3498C127.07 81.5198 127.35 81.8098 127.91 81.9398C128.09 81.9798 128.3 81.9998 128.51 81.9998C128.39 81.4498 128.21 81.0198 127.97 80.8598C127.94 80.8398 127.89 80.8098 127.8 80.8098V80.8198Z" fill="#FFF5E1"/>
<path d="M64.33 16.9698L63.92 17.2198L63.67 16.8098C63.55 16.5998 63.28 16.5398 63.07 16.6598C62.86 16.7798 62.8 17.0498 62.92 17.2598L63.17 17.6698L62.76 17.9198C62.55 18.0398 62.49 18.3098 62.61 18.5198C62.73 18.7298 63 18.7898 63.21 18.6698L63.62 18.4198L63.87 18.8298C63.99 19.0398 64.26 19.0998 64.47 18.9798C64.68 18.8598 64.74 18.5898 64.62 18.3798L64.37 17.9698L64.78 17.7198C64.99 17.5998 65.05 17.3298 64.93 17.1198C64.81 16.9098 64.54 16.8498 64.33 16.9698Z" fill="#FEFEFE"/>
<path d="M16.62 58.4801C17.34 58.4301 17.88 57.8001 17.83 57.0801C17.83 57.0401 17.82 57.0101 17.81 56.9701C18.44 56.8401 18.9 56.2601 18.85 55.6001C18.8 54.9401 18.27 54.4301 17.62 54.4001C17.62 54.3501 17.62 54.3001 17.62 54.2401C17.57 53.5201 16.95 52.9801 16.23 53.0301C15.71 53.0701 15.29 53.4101 15.11 53.8601C14.97 53.8201 14.83 53.8101 14.69 53.8201C13.97 53.8701 13.43 54.5001 13.48 55.2201C13.5 55.5101 13.61 55.7601 13.79 55.9701C13.65 56.2001 13.57 56.4701 13.59 56.7601C13.64 57.4801 14.26 58.0201 14.98 57.9701C15.13 57.9601 15.27 57.9201 15.4 57.8601C15.64 58.2701 16.1 58.5301 16.61 58.4901L16.62 58.4801Z" fill="#FFAA00"/>
<path d="M16.9328 56.1252C17.1302 55.7176 16.9598 55.2272 16.5522 55.0298C16.1446 54.8324 15.6542 55.0028 15.4568 55.4104C15.2594 55.818 15.4298 56.3085 15.8374 56.5058C16.245 56.7032 16.7354 56.5328 16.9328 56.1252Z" fill="#FFF3D7"/>
<path d="M132.9 92.34C133.49 92.19 133.85 91.59 133.7 91C133.7 90.97 133.68 90.94 133.67 90.91C134.17 90.71 134.47 90.17 134.34 89.62C134.21 89.07 133.69 88.73 133.15 88.8C133.15 88.76 133.15 88.71 133.13 88.67C132.99 88.08 132.39 87.72 131.81 87.87C131.39 87.98 131.09 88.32 131 88.72C130.88 88.71 130.76 88.72 130.64 88.74C130.05 88.89 129.69 89.49 129.84 90.08C129.9 90.32 130.03 90.51 130.2 90.66C130.11 90.87 130.09 91.1 130.15 91.34C130.29 91.93 130.89 92.29 131.47 92.14C131.59 92.11 131.7 92.05 131.8 91.99C132.06 92.29 132.48 92.45 132.89 92.34H132.9Z" fill="white"/>
<path d="M132.828 90.3595C132.933 89.9933 132.722 89.611 132.355 89.5057C131.989 89.4003 131.607 89.6118 131.502 89.978C131.396 90.3442 131.608 90.7265 131.974 90.8319C132.34 90.9372 132.722 90.7258 132.828 90.3595Z" fill="#FFCB39"/>
<path d="M18 67.2101C17.53 67.2101 17.2 67.0101 17.01 66.8401C16.24 66.1501 16.19 64.6601 16.89 63.3601C16.92 63.3001 16.97 63.2201 17.02 63.1401C16.37 62.9901 15.7 62.8701 15.12 62.8001C14.9 62.7701 14.74 62.5701 14.77 62.3501C14.8 62.1301 15 61.9701 15.22 62.0001C15.58 62.0401 16.54 62.1701 17.58 62.4401C18.4 61.5901 19.96 60.6701 22.61 61.3901C22.82 61.4501 22.95 61.6701 22.89 61.8801C22.83 62.0901 22.62 62.2201 22.4 62.1601C20.45 61.6401 19.22 62.0901 18.47 62.6901C19.64 63.0801 20.71 63.6501 20.92 64.4701C21.09 65.1601 20.67 65.8701 19.66 66.5701C18.98 67.0401 18.44 67.2001 18.01 67.2001L18 67.2101ZM17.83 63.3601C17.73 63.5001 17.65 63.6301 17.59 63.7501C17.01 64.8101 17.12 65.8801 17.54 66.2501C17.99 66.6501 18.77 66.2201 19.19 65.9301C19.59 65.6501 20.24 65.1201 20.13 64.6801C20 64.1601 19.02 63.7001 17.84 63.3601H17.83Z" fill="#FFF3D7"/>
<path d="M19.4999 70.7899C19.7899 70.2399 20.3099 69.9499 20.6599 70.1399C20.6899 70.1599 20.7199 70.1799 20.7499 70.1999C21.0799 69.7599 21.6199 69.58 22.0299 69.8C22.2099 69.89 22.3299 70.0499 22.4099 70.2399C22.6099 70.1999 22.8099 70.2199 22.9799 70.3099C23.3899 70.5299 23.5399 71.0799 23.3499 71.5999C23.3799 71.5999 23.4199 71.6199 23.4499 71.6399C23.7999 71.8299 23.8399 72.4199 23.5499 72.9699C23.3199 73.3999 22.9399 73.6799 22.6199 73.6799C22.5999 73.7499 22.5699 73.8199 22.5299 73.8899C22.2499 74.4199 21.6099 74.63 21.1199 74.37C20.9799 74.29 20.8599 74.1799 20.7799 74.0599C20.7099 73.9699 20.5699 73.8299 20.3899 73.7899C20.2299 73.7599 20.0699 73.7299 19.9699 73.6899C19.8599 73.6799 19.7499 73.6399 19.6399 73.5899C19.1499 73.3199 18.9699 72.6799 19.2599 72.1499C19.2999 72.0799 19.3499 72.0099 19.3999 71.9499C19.2499 71.6799 19.2799 71.2399 19.4999 70.8199V70.7899Z" fill="white"/>
<path d="M22.81 71.7798C22.81 71.7798 23.18 71.3798 23.3 71.8698C23.35 72.0898 23.33 72.3298 23.23 72.5298C23.12 72.7498 22.92 72.9598 22.54 72.8298C21.87 72.5898 22.81 71.7798 22.81 71.7798Z" fill="#FFBB24"/>
<path d="M22.3099 70.7C22.3099 70.7 22.5799 70.23 22.8099 70.67C22.9099 70.87 22.9399 71.11 22.8899 71.33C22.8299 71.57 22.6799 71.82 22.2899 71.78C21.5799 71.7 22.3099 70.7 22.3099 70.7Z" fill="#FFBB24"/>
<path d="M20.7998 70.7498C20.7998 70.7498 20.9198 70.2598 20.4798 70.4198C20.2798 70.4898 20.1098 70.6298 20.0098 70.8098C19.8998 70.9998 19.8398 71.2698 20.1298 71.4898C20.6598 71.8798 20.7998 70.7498 20.7998 70.7498Z" fill="#FFBB24"/>
<path d="M21.9899 70.5601C21.9899 70.5601 22.2199 70.1101 21.7599 70.1601C21.5499 70.1801 21.3499 70.2801 21.2099 70.4301C21.0599 70.5901 20.9299 70.8401 21.1699 71.1201C21.5899 71.6201 21.9899 70.5501 21.9899 70.5501V70.5601Z" fill="#FFBB24"/>
<path d="M20.5699 71.7701C20.8299 71.5801 21.1899 71.5401 21.4899 71.7001C21.7899 71.8601 21.9599 72.1801 21.9499 72.5001C22.2999 72.7001 22.4399 73.1401 22.2399 73.5001C22.0399 73.8601 21.5999 74.0001 21.2299 73.8001C21.1299 73.7501 21.0499 73.6701 20.9899 73.5901C20.8299 73.5901 20.6699 73.5701 20.5299 73.4901C20.3899 73.4201 20.2799 73.3101 20.1999 73.1801C20.1099 73.1801 20.0099 73.1401 19.9299 73.1001C19.5699 72.9101 19.4299 72.4601 19.6299 72.0901C19.8099 71.7501 20.2199 71.6101 20.5699 71.7601V71.7701Z" fill="#FFBB24"/>
<path d="M133.93 101.56C134.51 101.12 134.7 100.36 134.44 99.7099C134.86 99.1599 134.88 98.3699 134.44 97.7899C134.28 97.5799 134.08 97.4199 133.85 97.3199C133.81 97.0799 133.71 96.8399 133.55 96.6299C133.11 96.0499 132.35 95.8599 131.7 96.1199C131.15 95.6999 130.36 95.6799 129.78 96.1199C129.29 96.4899 129.08 97.0999 129.18 97.6699C128.45 98.2399 128.31 99.2999 128.87 100.04C129.07 100.31 129.34 100.49 129.63 100.6C129.66 100.91 129.77 101.22 129.97 101.48C130.54 102.23 131.61 102.37 132.35 101.8C132.36 101.8 132.37 101.78 132.38 101.77C132.88 101.96 133.45 101.9 133.91 101.55L133.93 101.56Z" fill="#FFF3D9"/>
<path d="M130.64 102.06C130.37 101.94 130.13 101.76 129.94 101.51C129.75 101.25 129.63 100.95 129.59 100.63C129.29 100.51 129.03 100.32 128.84 100.06C128.27 99.3098 128.4 98.2298 129.13 97.6398C129.03 97.0398 129.27 96.4398 129.75 96.0698C130.32 95.6298 131.12 95.6298 131.71 96.0498C132.38 95.7898 133.15 96.0098 133.59 96.5898C133.75 96.7898 133.85 97.0298 133.9 97.2798C134.13 97.3898 134.33 97.5498 134.48 97.7598C134.92 98.3298 134.92 99.1298 134.5 99.7198C134.76 100.39 134.54 101.16 133.96 101.6C133.52 101.94 132.94 102.03 132.41 101.84C132.41 101.84 132.41 101.84 132.4 101.85C132.03 102.13 131.57 102.26 131.1 102.19C130.94 102.17 130.78 102.12 130.64 102.06ZM129.69 100.56V100.59C129.72 100.9 129.83 101.2 130.02 101.45C130.29 101.8 130.67 102.03 131.11 102.09C131.55 102.15 131.98 102.03 132.33 101.77C132.33 101.77 132.34 101.77 132.35 101.76L132.39 101.73H132.42C132.92 101.93 133.47 101.85 133.9 101.53C134.45 101.11 134.65 100.38 134.39 99.7398V99.7098V99.6898C134.81 99.1398 134.81 98.3798 134.39 97.8398C134.24 97.6398 134.05 97.4898 133.82 97.3798H133.8V97.3398C133.76 97.0898 133.66 96.8698 133.51 96.6698C133.09 96.1198 132.36 95.9198 131.72 96.1798H131.69H131.67C131.12 95.7698 130.36 95.7598 129.82 96.1798C129.36 96.5298 129.14 97.0998 129.24 97.6698V97.6998L129.22 97.7198C128.51 98.2698 128.38 99.2998 128.92 100.02C129.11 100.27 129.36 100.46 129.66 100.57H129.69V100.56Z" fill="#FFE4CC"/>
<path d="M132.06 100.36C132.5 99.9597 132.57 99.2897 132.21 98.8097C131.85 98.3297 131.19 98.2197 130.69 98.5297C130.4 98.3297 130.01 98.3297 129.72 98.5497C129.36 98.8297 129.29 99.3497 129.56 99.7097C129.64 99.8197 129.75 99.8997 129.87 99.9497C129.9 100.12 129.97 100.28 130.08 100.43C130.18 100.57 130.31 100.67 130.45 100.75C130.47 100.87 130.52 100.98 130.6 101.08C130.88 101.44 131.4 101.51 131.76 101.24C132.04 101.03 132.14 100.68 132.06 100.37V100.36Z" fill="#FFD37B"/>
<path d="M132.884 97.7795C133.089 97.4523 133.029 97.044 132.749 96.8675C132.468 96.691 132.074 96.8132 131.868 97.1404C131.662 97.4677 131.722 97.876 132.003 98.0525C132.283 98.2289 132.678 98.1068 132.884 97.7795Z" fill="#FFD37B"/>
<path d="M130.572 98.0148C130.904 98.0134 131.171 97.699 131.17 97.3124C131.168 96.9258 130.898 96.6134 130.567 96.6148C130.235 96.6161 129.968 96.9306 129.97 97.3172C129.971 97.7038 130.241 98.0161 130.572 98.0148Z" fill="#FFD37B"/>
<path d="M133.673 99.5095C134.043 99.3982 134.266 99.0507 134.17 98.7334C134.075 98.416 133.698 98.249 133.327 98.3604C132.957 98.4717 132.734 98.8193 132.83 99.1366C132.925 99.4539 133.303 99.6209 133.673 99.5095Z" fill="#FFD37B"/>
<path d="M133.812 100.939C133.902 100.62 133.672 100.277 133.3 100.172C132.928 100.068 132.554 100.242 132.464 100.561C132.375 100.88 132.604 101.223 132.976 101.328C133.349 101.432 133.723 101.258 133.812 100.939Z" fill="#FFD37B"/>
<path d="M126 76.9301C126.718 76.9301 127.3 76.348 127.3 75.6301C127.3 74.9121 126.718 74.3301 126 74.3301C125.282 74.3301 124.7 74.9121 124.7 75.6301C124.7 76.348 125.282 76.9301 126 76.9301Z" fill="#FFF3D9"/>
<path d="M97.87 129.31C97.48 129.62 97.56 130.38 97.99 131.18C97.1 131.26 96.43 131.61 96.38 132.1C96.31 132.74 97.3 133.36 98.58 133.49C99.86 133.62 100.87 133.24 101 132.64C101.19 132.12 100.9 131.2 100.23 130.38C99.42 129.38 98.36 128.9 97.86 129.3L97.87 129.31Z" fill="#FF8827"/>
<path d="M84.4433 124.522L92.6038 127.972C93.2393 128.241 93.537 128.975 93.2683 129.611L92.357 131.766C92.0338 132.53 91.1557 132.886 90.3913 132.563L82.6913 129.307C81.9268 128.984 81.5706 128.106 81.8939 127.342L82.8052 125.186C83.0739 124.551 83.8078 124.253 84.4433 124.522Z" fill="#FFF3D9"/>
<path d="M88.8505 127.202L87.6531 126.696C87.5615 126.657 87.4559 126.7 87.4172 126.792C87.3785 126.883 87.4213 126.989 87.5129 127.028L88.7103 127.534C88.8018 127.573 88.9074 127.53 88.9461 127.438C88.9849 127.347 88.942 127.241 88.8505 127.202Z" fill="#FFCB39"/>
</g>
<defs>
<clipPath id="clip0_1466_4744">
<rect width="148" height="148" fill="white"/>
</clipPath>
</defs>
</svg>
