<svg xmlns="http://www.w3.org/2000/svg" width="28" height="28" viewBox="0 0 28 28" fill="none">
  <path d="M14.0002 25.6668C20.4435 25.6668 25.6668 20.4435 25.6668 14.0002C25.6668 7.55684 20.4435 2.3335 14.0002 2.3335C7.55684 2.3335 2.3335 7.55684 2.3335 14.0002C2.3335 20.4435 7.55684 25.6668 14.0002 25.6668Z" fill="#CCDAFD"/>
  <path d="M14.7063 13.4696L14.1759 13.9999L14.7063 14.5303L17.3896 17.2136C17.4098 17.2338 17.4237 17.2639 17.4237 17.3016C17.4237 17.3393 17.4098 17.3694 17.3896 17.3896C17.3738 17.4054 17.3598 17.4134 17.348 17.4182C17.3356 17.4232 17.3202 17.4266 17.3016 17.4266C17.283 17.4266 17.2676 17.4232 17.2551 17.4182C17.2433 17.4134 17.2294 17.4054 17.2136 17.3896L14.5303 14.7063L13.9999 14.1759L13.4696 14.7063L10.7863 17.3896C10.7705 17.4054 10.7565 17.4134 10.7447 17.4182C10.7322 17.4232 10.7169 17.4266 10.6983 17.4266C10.6796 17.4266 10.6643 17.4232 10.6518 17.4182C10.64 17.4134 10.626 17.4054 10.6103 17.3896C10.59 17.3694 10.5762 17.3393 10.5762 17.3016C10.5762 17.2639 10.59 17.2338 10.6103 17.2136L13.2936 14.5303L13.8239 13.9999L13.2936 13.4696L10.6103 10.7863C10.59 10.7661 10.5762 10.736 10.5762 10.6983C10.5762 10.6605 10.59 10.6305 10.6103 10.6103C10.6305 10.59 10.6605 10.5762 10.6983 10.5762C10.736 10.5762 10.7661 10.59 10.7863 10.6103L13.4696 13.2936L13.9999 13.8239L14.5303 13.2936L17.2136 10.6103C17.2338 10.59 17.2639 10.5762 17.3016 10.5762C17.3393 10.5762 17.3694 10.59 17.3896 10.6103C17.4098 10.6305 17.4237 10.6605 17.4237 10.6983C17.4237 10.736 17.4098 10.7661 17.3896 10.7863L14.7063 13.4696Z" stroke="#5383FB" stroke-width="1.5"/>
</svg>