<svg xmlns="http://www.w3.org/2000/svg" width="19" height="18" viewBox="0 0 19 18" fill="none">
  <path d="M2.43848 7.5C2.43848 4.67157 2.43848 3.25736 3.31716 2.37868C4.19584 1.5 5.61005 1.5 8.43848 1.5H9.93848C12.7669 1.5 14.1811 1.5 15.0598 2.37868C15.9385 3.25736 15.9385 4.67157 15.9385 7.5V10.5C15.9385 13.3284 15.9385 14.7426 15.0598 15.6213C14.1811 16.5 12.7669 16.5 9.93848 16.5H8.43848C5.61005 16.5 4.19584 16.5 3.31716 15.6213C2.43848 14.7426 2.43848 13.3284 2.43848 10.5V7.5Z" stroke="#9E9E9E"/>
  <path d="M6.18848 9H12.1885" stroke="#9E9E9E" stroke-linecap="round"/>
  <path d="M6.18848 6H12.1885" stroke="#9E9E9E" stroke-linecap="round"/>
  <path d="M6.18848 12H9.93848" stroke="#9E9E9E" stroke-linecap="round"/>
</svg>