<svg xmlns="http://www.w3.org/2000/svg" width="24" height="25" viewBox="0 0 24 25" fill="none">
  <path fill-rule="evenodd" clip-rule="evenodd" d="M16.2912 3.53857C15.7327 3.53857 15.2713 3.77225 14.8347 4.1054C14.421 4.42104 13.9617 4.8804 13.4108 5.43128L8.6585 10.1835C8.29357 10.5479 8.00502 10.8359 7.82805 11.2041C7.65109 11.5723 7.60639 11.9776 7.54987 12.4902L7.53453 12.6287C7.4288 13.58 7.34165 14.3642 7.36159 14.9818C7.38245 15.6278 7.52206 16.2196 7.98455 16.6821C8.44703 17.1445 9.03876 17.2841 9.68476 17.305C10.3024 17.325 11.0866 17.2378 12.0379 17.1321L12.1765 17.1167C12.689 17.0602 13.0943 17.0155 13.4625 16.8385C13.8307 16.6616 14.1187 16.373 14.4831 16.0081L19.2353 11.2558C19.7862 10.705 20.2456 10.2456 20.5612 9.83192C20.8944 9.39527 21.128 8.93392 21.128 8.37542C21.128 7.81692 20.8944 7.35558 20.5612 6.91892C20.2456 6.50523 19.7862 6.04589 19.2353 5.49505L19.1716 5.43131C18.6207 4.88042 18.1614 4.42104 17.7477 4.1054C17.311 3.77225 16.8497 3.53857 16.2912 3.53857ZM18.7425 9.90707L14.7595 5.92411C15.1112 5.57758 15.3833 5.32275 15.6236 5.1394C15.9446 4.89452 16.1314 4.83917 16.2912 4.83917C16.451 4.83917 16.6378 4.89452 16.9588 5.1394C17.2947 5.39574 17.6927 5.79179 18.2838 6.38283C18.8748 6.97387 19.2709 7.37187 19.5272 7.70784C19.7721 8.0288 19.8274 8.21563 19.8274 8.37542C19.8274 8.53522 19.7721 8.72204 19.5272 9.04301C19.3438 9.28331 19.089 9.55536 18.7425 9.90707ZM13.8388 6.84266L17.8239 10.8278L13.6261 15.0257C13.1688 15.483 13.0424 15.5974 12.8991 15.6663C12.7558 15.7352 12.5875 15.7624 11.9447 15.8338C10.9302 15.9465 10.2398 16.0217 9.72674 16.0051C9.23115 15.9891 9.03107 15.8893 8.90421 15.7624C8.77735 15.6355 8.67752 15.4355 8.66151 14.9399C8.64494 14.4268 8.72005 13.7364 8.83277 12.7219C8.90419 12.0791 8.93141 11.9108 9.00028 11.7675C9.06916 11.6242 9.18357 11.4978 9.64089 11.0405L13.8388 6.84266Z" fill="current"/>
  <path d="M9.59863 5.86097C9.95775 5.85667 10.2454 5.56205 10.2411 5.20293C10.2368 4.8438 9.94216 4.55616 9.58304 4.56047C7.47909 4.58569 6.03495 4.70081 4.92624 5.50634C4.50298 5.81385 4.13077 6.18607 3.82326 6.60932C3.31531 7.30845 3.08786 8.12729 2.97837 9.13788C2.87108 10.1282 2.87109 11.3764 2.87109 12.9688V13.0473C2.87109 14.6397 2.87108 15.8879 2.97837 16.8782C3.08786 17.8888 3.31531 18.7076 3.82326 19.4068C4.13077 19.83 4.50298 20.2022 4.92624 20.5097C5.62537 21.0177 6.44421 21.2451 7.4548 21.3546C8.44509 21.4619 9.69329 21.4619 11.2856 21.4619H11.3642C12.9566 21.4619 14.2048 21.4619 15.1951 21.3546C16.2057 21.2451 17.0245 21.0177 17.7237 20.5097C18.1469 20.2022 18.5191 19.83 18.8267 19.4068C19.6322 18.298 19.7473 16.8539 19.7725 14.75C19.7768 14.3908 19.4892 14.0962 19.1301 14.0919C18.7709 14.0876 18.4763 14.3752 18.472 14.7344C18.446 16.9027 18.3001 17.9189 17.7745 18.6423C17.5472 18.9551 17.272 19.2302 16.9592 19.4575C16.5187 19.7776 15.955 19.9641 15.055 20.0616C14.1429 20.1604 12.9651 20.1613 11.325 20.1613C9.68485 20.1613 8.507 20.1604 7.59489 20.0616C6.69496 19.9641 6.13118 19.7776 5.69071 19.4575C5.37787 19.2302 5.10276 18.9551 4.87546 18.6423C4.55544 18.2018 4.3689 17.638 4.2714 16.7381C4.17258 15.826 4.17169 14.6482 4.17169 13.008C4.17169 11.3679 4.17258 10.1901 4.2714 9.27797C4.3689 8.37804 4.55544 7.81426 4.87546 7.37379C5.10275 7.06095 5.37787 6.78584 5.69071 6.55854C6.41414 6.03294 7.43027 5.88696 9.59863 5.86097Z" fill="current"/>
</svg>