<svg width="55" height="54" viewBox="0 0 55 54" fill="none" xmlns="http://www.w3.org/2000/svg">
<g id="&#236;&#185;&#180;&#236;&#185;&#180;&#236;&#152;&#164;&#237;&#134;&#161;">
<path id="Vector" d="M54.4775 49.7812C54.4775 52.1113 52.5888 54 50.2588 54H4.69629C2.36627 54 0.477539 52.1113 0.477539 49.7812V4.21875C0.477539 1.88873 2.36627 0 4.69629 0H50.2588C52.5888 0 54.4775 1.88873 54.4775 4.21875V49.7812Z" fill="#FFE812"/>
<path id="Vector_2" d="M27.4775 7.59375C15.3617 7.59375 5.54004 15.3379 5.54004 24.8906C5.54004 31.0667 9.64615 36.4859 15.8228 39.5459C15.4868 40.7048 13.6635 47.0013 13.5909 47.496C13.5909 47.496 13.5472 47.8676 13.7879 48.0094C14.0286 48.1511 14.3117 48.041 14.3117 48.041C15.0019 47.9446 22.3153 42.8074 23.5811 41.9154C24.8457 42.0945 26.1478 42.1875 27.4775 42.1875C39.5934 42.1875 49.415 34.4436 49.415 24.8906C49.415 15.3379 39.5934 7.59375 27.4775 7.59375Z" fill="black"/>
<path id="Vector_3" d="M15.3486 30.9287C14.6506 30.9287 14.083 30.3866 14.083 29.72V22.2012H12.1082C11.4233 22.2012 10.8662 21.6451 10.8662 20.9619C10.8662 20.2787 11.4235 19.7227 12.1082 19.7227H18.5891C19.274 19.7227 19.8311 20.2787 19.8311 20.9619C19.8311 21.6451 19.2738 22.2012 18.5891 22.2012H16.6143V29.72C16.6143 30.3866 16.0466 30.9287 15.3486 30.9287ZM26.4465 30.9123C25.9187 30.9123 25.515 30.6979 25.3933 30.3533L24.7666 28.7126L20.9073 28.7124L20.2801 30.3541C20.1589 30.6982 19.7553 30.9123 19.2276 30.9123C18.95 30.9125 18.6755 30.853 18.423 30.7376C18.0742 30.5767 17.7388 30.1341 18.1231 28.9404L21.1505 20.972C21.3637 20.366 22.0115 19.7416 22.8359 19.7229C23.6625 19.7414 24.3103 20.366 24.524 20.9733L27.5501 28.9381C27.9353 30.1345 27.5999 30.5773 27.251 30.7378C26.9984 30.853 26.7241 30.9125 26.4465 30.9123C26.4465 30.9123 26.4463 30.9123 26.4465 30.9123ZM24.1011 26.4708L22.8369 22.8795L21.5728 26.4708H24.1011ZM29.5869 30.7441C28.918 30.7441 28.374 30.2235 28.374 29.584V20.9883C28.374 20.2903 28.9537 19.7227 29.666 19.7227C30.3784 19.7227 30.958 20.2903 30.958 20.9883V28.4238H33.6475C34.3163 28.4238 34.8604 28.9444 34.8604 29.584C34.8604 30.2235 34.3163 30.7441 33.6475 30.7441H29.5869ZM36.6183 30.9123C35.9203 30.9123 35.3527 30.3446 35.3527 29.6466V20.9883C35.3527 20.2903 35.9203 19.7227 36.6183 19.7227C37.3163 19.7227 37.8839 20.2903 37.8839 20.9883V23.7085L41.415 20.1774C41.5966 19.9958 41.8462 19.8958 42.117 19.8958C42.433 19.8958 42.7503 20.0321 42.988 20.2696C43.2097 20.4911 43.3419 20.7761 43.3601 21.072C43.3784 21.3705 43.2791 21.6441 43.0808 21.8426L40.1966 24.7263L43.312 28.8535C43.4126 28.9859 43.4858 29.137 43.5276 29.2979C43.5693 29.4589 43.5786 29.6265 43.555 29.7911C43.5324 29.9558 43.4774 30.1144 43.3931 30.2577C43.3088 30.401 43.1969 30.5261 43.0639 30.6258C42.8451 30.7922 42.5776 30.8819 42.3026 30.8812C42.1065 30.8822 41.913 30.8371 41.7374 30.7498C41.5618 30.6624 41.4092 30.5351 41.2916 30.3782L38.3235 26.4454L37.8844 26.8846V29.646C37.884 29.9817 37.7505 30.3035 37.5131 30.5409C37.2758 30.7783 36.954 30.9118 36.6183 30.9123Z" fill="#FFE812"/>
</g>
</svg>
