<svg xmlns="http://www.w3.org/2000/svg" width="120" height="120" viewBox="0 0 120 120" fill="none">
  <path d="M74.64 74.5901H66.41V108.11H74.64V74.5901Z" fill="white" stroke="#202223" stroke-linecap="round" stroke-linejoin="round"/>
  <path d="M78.62 105.34H76.63V102.73C76.63 102.24 76.23 101.83 75.73 101.83H66.52C66.03 101.83 65.62 102.23 65.62 102.73V111.43C65.62 113.69 67.45 115.52 69.71 115.52H73.11H76.62H87.4C88.17 115.52 88.79 114.84 88.68 114.08C87.98 109.14 83.74 105.35 78.61 105.35L78.62 105.34Z" fill="#202223"/>
  <path d="M54.71 74.5901H46.48V108.11H54.71V74.5901Z" fill="white" stroke="#202223" stroke-linecap="round" stroke-linejoin="round"/>
  <path d="M58.6899 105.34H56.6999V102.73C56.6999 102.24 56.2999 101.83 55.7999 101.83H46.5899C46.0999 101.83 45.6899 102.23 45.6899 102.73V111.43C45.6899 113.69 47.5199 115.52 49.7799 115.52H53.1799H56.6899H67.4699C68.2399 115.52 68.8599 114.84 68.7499 114.08C68.0499 109.14 63.8099 105.35 58.6799 105.35L58.6899 105.34Z" fill="#202223"/>
  <path d="M106.38 34.5099C106.38 19.5499 93.87 7.42993 78.45 7.42993C71.38 7.42993 64.93 9.97993 60 14.1799C55.08 9.97993 48.63 7.42993 41.55 7.42993C26.12 7.42993 13.62 19.5599 13.62 34.5099C13.62 41.4599 16.33 47.7999 20.77 52.5999C16.33 57.3999 13.62 63.7399 13.62 70.6899C13.62 85.6499 26.13 97.7699 41.55 97.7699C48.62 97.7699 55.07 95.2199 60 91.0199C64.92 95.2199 71.37 97.7699 78.45 97.7699C93.88 97.7699 106.38 85.6399 106.38 70.6899C106.38 63.7399 103.67 57.3999 99.23 52.5999C103.67 47.7999 106.38 41.4599 106.38 34.5099Z" fill="white" stroke="#202223" stroke-linecap="round" stroke-linejoin="round"/>
  <path d="M52.2 57.84C56.5078 57.84 60 54.3478 60 50.04C60 45.7322 56.5078 42.24 52.2 42.24C47.8922 42.24 44.4 45.7322 44.4 50.04C44.4 54.3478 47.8922 57.84 52.2 57.84Z" fill="#F5D2D0"/>
  <path d="M83.39 58.0099C87.6978 58.0099 91.19 54.5177 91.19 50.2099C91.19 45.9021 87.6978 42.4099 83.39 42.4099C79.0821 42.4099 75.59 45.9021 75.59 50.2099C75.59 54.5177 79.0821 58.0099 83.39 58.0099Z" fill="#F5D2D0"/>
  <path d="M69.77 114.53C69.77 114.53 69.96 110.68 66.33 108.59" stroke="white" stroke-miterlimit="10" stroke-linecap="round"/>
  <path d="M76.93 47.45C82.2982 47.45 86.65 43.0982 86.65 37.73C86.65 32.3618 82.2982 28.01 76.93 28.01C71.5618 28.01 67.21 32.3618 67.21 37.73C67.21 43.0982 71.5618 47.45 76.93 47.45Z" fill="white" stroke="black" stroke-miterlimit="10"/>
  <path d="M76.93 43.45C80.089 43.45 82.65 40.8891 82.65 37.73C82.65 34.5709 80.089 32.01 76.93 32.01C73.7709 32.01 71.21 34.5709 71.21 37.73C71.21 40.8891 73.7709 43.45 76.93 43.45Z" fill="#202223"/>
  <path d="M74.5499 28.05L73.0699 23.27" stroke="black" stroke-linecap="round" stroke-linejoin="round"/>
  <path d="M78.85 27.9101L80.13 23.0701" stroke="black" stroke-linecap="round" stroke-linejoin="round"/>
  <path d="M64.77 48.1301C64.77 48.1301 67.44 46.3301 70.9 48.1301" stroke="black" stroke-miterlimit="10" stroke-linecap="round"/>
  <path d="M60.58 53.7401C60.58 55.9901 59.68 56.4901 58.58 56.4901C57.48 56.4901 56.58 55.9901 56.58 53.7401C56.58 51.4901 58.58 48.3501 58.58 48.3501C58.58 48.3501 60.58 51.5001 60.58 53.7401Z" fill="#6C94F9"/>
  <path d="M58.62 47.45C63.9882 47.45 68.34 43.0982 68.34 37.73C68.34 32.3618 63.9882 28.01 58.62 28.01C53.2518 28.01 48.9 32.3618 48.9 37.73C48.9 43.0982 53.2518 47.45 58.62 47.45Z" fill="white" stroke="black" stroke-miterlimit="10"/>
  <path d="M58.62 43.45C61.7791 43.45 64.34 40.8891 64.34 37.73C64.34 34.5709 61.7791 32.01 58.62 32.01C55.461 32.01 52.9 34.5709 52.9 37.73C52.9 40.8891 55.461 43.45 58.62 43.45Z" fill="#202223"/>
  <path d="M56.24 28.05L54.76 23.27" stroke="black" stroke-linecap="round" stroke-linejoin="round"/>
  <path d="M60.54 27.9101L61.82 23.0701" stroke="black" stroke-linecap="round" stroke-linejoin="round"/>
</svg>