<svg xmlns="http://www.w3.org/2000/svg" width="24" height="25" viewBox="0 0 24 25" fill="none">
  <path d="M9 12.5398C9 13.092 8.55228 13.5398 8 13.5398C7.44772 13.5398 7 13.092 7 12.5398C7 11.9875 7.44772 11.5398 8 11.5398C8.55228 11.5398 9 11.9875 9 12.5398Z" fill="#9E9E9E"/>
  <path d="M13 12.5398C13 13.092 12.5523 13.5398 12 13.5398C11.4477 13.5398 11 13.092 11 12.5398C11 11.9875 11.4477 11.5398 12 11.5398C12.5523 11.5398 13 11.9875 13 12.5398Z" fill="#9E9E9E"/>
  <path d="M17 12.5398C17 13.092 16.5523 13.5398 16 13.5398C15.4477 13.5398 15 13.092 15 12.5398C15 11.9875 15.4477 11.5398 16 11.5398C16.5523 11.5398 17 11.9875 17 12.5398Z" fill="#9E9E9E"/>
  <path d="M2 12.5398C2 7.82572 2 5.4687 3.46447 4.00423C4.92893 2.53976 7.28595 2.53976 12 2.53976C16.714 2.53976 19.0711 2.53976 20.5355 4.00423C22 5.4687 22 7.82572 22 12.5398C22 17.2538 22 19.6108 20.5355 21.0753C19.0711 22.5398 16.714 22.5398 12 22.5398C7.28595 22.5398 4.92893 22.5398 3.46447 21.0753C2 19.6108 2 17.2538 2 12.5398Z" stroke="#9E9E9E" stroke-width="1.5"/>
</svg>