<svg width="19" height="18" viewBox="0 0 19 18" fill="none" xmlns="http://www.w3.org/2000/svg">
<path d="M9.18848 9C11.2595 9 12.9385 7.32107 12.9385 5.25C12.9385 3.17893 11.2595 1.5 9.18848 1.5C7.11741 1.5 5.43848 3.17893 5.43848 5.25C5.43848 7.32107 7.11741 9 9.18848 9Z" stroke="#9E9E9E" stroke-linecap="round" stroke-linejoin="round"/>
<path d="M14.5958 11.805L11.9407 14.46C11.8357 14.565 11.7383 14.76 11.7158 14.9025L11.5733 15.915C11.5208 16.2825 11.7758 16.5375 12.1433 16.485L13.1557 16.3425C13.2982 16.32 13.5008 16.2225 13.5983 16.1175L16.2532 13.4625C16.7107 13.005 16.9282 12.4725 16.2532 11.7975C15.5857 11.13 15.0533 11.3475 14.5958 11.805Z" stroke="#9E9E9E" stroke-miterlimit="10" stroke-linecap="round" stroke-linejoin="round"/>
<path d="M14.2134 12.1875C14.4384 12.9975 15.0684 13.6275 15.8784 13.8525" stroke="#9E9E9E" stroke-miterlimit="10" stroke-linecap="round" stroke-linejoin="round"/>
<path d="M2.74609 16.5C2.74609 13.5975 5.63361 11.25 9.18861 11.25C9.96861 11.25 10.7186 11.3625 11.4161 11.5725" stroke="#9E9E9E" stroke-linecap="round" stroke-linejoin="round"/>
</svg>
