<svg xmlns="http://www.w3.org/2000/svg" width="32" height="32" viewBox="0 0 32 32" fill="none">
<path d="M16.0003 27.3327H9.33366C5.33366 27.3327 2.66699 25.3327 2.66699 20.666V11.3327C2.66699 6.66602 5.33366 4.66602 9.33366 4.66602H22.667C26.667 4.66602 29.3337 6.66602 29.3337 11.3327V15.3327" stroke="#171717" stroke-width="1.5" stroke-miterlimit="10" stroke-linecap="round" stroke-linejoin="round"/>
<path d="M22.6663 12L18.493 15.3333C17.1197 16.4267 14.8663 16.4267 13.493 15.3333L9.33301 12" stroke="#171717" stroke-width="1.5" stroke-miterlimit="10" stroke-linecap="round" stroke-linejoin="round"/>
<path d="M25.613 19.6937L20.8931 24.4137C20.7064 24.6004 20.5331 24.947 20.4931 25.2004L20.2397 27.0004C20.1464 27.6537 20.5997 28.1071 21.2531 28.0137L23.0531 27.7604C23.3064 27.7204 23.6664 27.547 23.8397 27.3604L28.5597 22.6404C29.3731 21.8271 29.7597 20.8804 28.5597 19.6804C27.3731 18.4937 26.4264 18.8804 25.613 19.6937Z" stroke="#171717" stroke-width="1.5" stroke-miterlimit="10" stroke-linecap="round" stroke-linejoin="round"/>
<path d="M24.9326 20.373C25.3326 21.813 26.4526 22.933 27.8926 23.333" stroke="#171717" stroke-width="1.5" stroke-miterlimit="10" stroke-linecap="round" stroke-linejoin="round"/>
</svg>