<svg xmlns="http://www.w3.org/2000/svg" width="24" height="25" viewBox="0 0 24 25" fill="none">
  <path d="M11.9998 5.55622C11.2189 5.55622 10.5529 6.05506 10.3061 6.75334C10.1959 7.06504 9.85392 7.22841 9.54223 7.11824C9.23053 7.00807 9.06716 6.66608 9.17733 6.35439C9.58791 5.19274 10.6957 4.35904 11.9998 4.35904C13.3039 4.35904 14.4117 5.19274 14.8223 6.35439C14.9325 6.66608 14.7691 7.00807 14.4574 7.11824C14.1457 7.22841 13.8037 7.06504 13.6936 6.75334C13.4468 6.05506 12.7808 5.55622 11.9998 5.55622Z" fill="#9E9E9E"/>
  <path d="M4.61719 8.15011C4.61719 7.81951 4.88519 7.55152 5.21578 7.55152H18.7839C19.1145 7.55152 19.3825 7.81951 19.3825 8.15011C19.3825 8.4807 19.1145 8.7487 18.7839 8.7487H5.21578C4.88519 8.7487 4.61719 8.4807 4.61719 8.15011Z" fill="#9E9E9E"/>
  <path d="M7.1433 10.1056C7.12131 9.77573 6.83608 9.52615 6.50622 9.54814C6.17636 9.57013 5.92679 9.85536 5.94878 10.1852L6.31866 15.7335C6.3869 16.7573 6.44202 17.5843 6.57129 18.2332C6.70569 18.9079 6.93429 19.4714 7.40646 19.9131C7.87862 20.3549 8.4561 20.5455 9.13821 20.6347C9.7943 20.7205 10.6231 20.7205 11.6492 20.7205H12.3506C13.3766 20.7205 14.2054 20.7205 14.8615 20.6347C15.5436 20.5455 16.1211 20.3549 16.5933 19.9131C17.0654 19.4714 17.294 18.9079 17.4284 18.2332C17.5577 17.5843 17.6128 16.7573 17.6811 15.7336L18.0509 10.1852C18.0729 9.85536 17.8234 9.57013 17.4935 9.54814C17.1636 9.52615 16.8784 9.77573 16.8564 10.1056L16.4893 15.6119C16.4176 16.6877 16.3665 17.4361 16.2543 17.9993C16.1455 18.5456 15.9936 18.8347 15.7754 19.0389C15.5572 19.2431 15.2585 19.3754 14.7062 19.4476C14.1368 19.5221 13.3866 19.5233 12.3085 19.5233H11.6912C10.6131 19.5233 9.86287 19.5221 9.29349 19.4476C8.74119 19.3754 8.44257 19.2431 8.22435 19.0389C8.00613 18.8347 7.85422 18.5456 7.7454 17.9993C7.63321 17.4361 7.58211 16.6877 7.51039 15.6119L7.1433 10.1056Z" fill="#9E9E9E"/>
  <path d="M9.945 11.5451C10.274 11.5122 10.5673 11.7522 10.6002 12.0811L10.9992 16.0717C11.0321 16.4007 10.7921 16.694 10.4632 16.7269C10.1342 16.7598 9.8409 16.5198 9.80801 16.1909L9.40895 12.2003C9.37605 11.8713 9.61605 11.578 9.945 11.5451Z" fill="#9E9E9E"/>
  <path d="M14.5908 12.2003C14.6237 11.8713 14.3837 11.578 14.0547 11.5451C13.7258 11.5122 13.4324 11.7522 13.3995 12.0811L13.0005 16.0717C12.9676 16.4007 13.2076 16.694 13.5365 16.7269C13.8655 16.7598 14.1588 16.5198 14.1917 16.1909L14.5908 12.2003Z" fill="#9E9E9E"/>
</svg>