<svg xmlns="http://www.w3.org/2000/svg" width="24" height="24" viewBox="0 0 24 24" fill="none">
  <path d="M12 22C17.5228 22 22 17.5228 22 12C22 6.47715 17.5228 2 12 2C6.47715 2 2 6.47715 2 12C2 17.5228 6.47715 22 12 22Z" fill="#EEEEEE"/>
  <mask id="path-2-inside-1_329_320" fill="white">
    <path d="M13.0599 12L15.3599 9.69998C15.6499 9.40998 15.6499 8.92999 15.3599 8.63999C15.0699 8.34999 14.5899 8.34999 14.2999 8.63999L11.9999 10.94L9.69986 8.63999C9.40986 8.34999 8.92986 8.34999 8.63986 8.63999C8.34986 8.92999 8.34986 9.40998 8.63986 9.69998L10.9399 12L8.63986 14.3C8.34986 14.59 8.34986 15.07 8.63986 15.36C8.78986 15.51 8.97986 15.58 9.16986 15.58C9.35986 15.58 9.54986 15.51 9.69986 15.36L11.9999 13.06L14.2999 15.36C14.4499 15.51 14.6399 15.58 14.8299 15.58C15.0199 15.58 15.2099 15.51 15.3599 15.36C15.6499 15.07 15.6499 14.59 15.3599 14.3L13.0599 12Z"/>
  </mask>
  <path d="M13.0599 12L15.3599 9.69998C15.6499 9.40998 15.6499 8.92999 15.3599 8.63999C15.0699 8.34999 14.5899 8.34999 14.2999 8.63999L11.9999 10.94L9.69986 8.63999C9.40986 8.34999 8.92986 8.34999 8.63986 8.63999C8.34986 8.92999 8.34986 9.40998 8.63986 9.69998L10.9399 12L8.63986 14.3C8.34986 14.59 8.34986 15.07 8.63986 15.36C8.78986 15.51 8.97986 15.58 9.16986 15.58C9.35986 15.58 9.54986 15.51 9.69986 15.36L11.9999 13.06L14.2999 15.36C14.4499 15.51 14.6399 15.58 14.8299 15.58C15.0199 15.58 15.2099 15.51 15.3599 15.36C15.6499 15.07 15.6499 14.59 15.3599 14.3L13.0599 12Z" fill="#EEEEEE"/>
  <path d="M13.0599 12L11.9992 10.9393L10.9385 12L11.9992 13.0606L13.0599 12ZM15.3599 9.69998L14.2992 8.63932V8.63932L15.3599 9.69998ZM14.2999 8.63999L15.3605 9.70065L15.3605 9.70065L14.2999 8.63999ZM11.9999 10.94L10.9392 12.0006L11.9999 13.0613L13.0605 12.0006L11.9999 10.94ZM9.69986 8.63999L8.6392 9.70065L8.6392 9.70065L9.69986 8.63999ZM8.63986 9.69998L9.70052 8.63932L9.70052 8.63932L8.63986 9.69998ZM10.9399 12L12.0005 13.0606L13.0612 12L12.0005 10.9393L10.9399 12ZM8.63986 14.3L9.70052 15.3606L9.70052 15.3606L8.63986 14.3ZM9.69986 15.36L8.6392 14.2993H8.6392L9.69986 15.36ZM11.9999 13.06L13.0605 11.9993L11.9999 10.9387L10.9392 11.9993L11.9999 13.06ZM14.2999 15.36L15.3605 14.2993H15.3605L14.2999 15.36ZM15.3599 14.3L14.2992 15.3606V15.3606L15.3599 14.3ZM14.1205 13.0606L16.4205 10.7606L14.2992 8.63932L11.9992 10.9393L14.1205 13.0606ZM16.4205 10.7606C17.2963 9.88486 17.2963 8.45511 16.4205 7.57933L14.2992 9.70065C14.0034 9.40486 14.0034 8.93511 14.2992 8.63932L16.4205 10.7606ZM16.4205 7.57933C15.5447 6.70354 14.115 6.70354 13.2392 7.57933L15.3605 9.70065C15.0647 9.99643 14.595 9.99643 14.2992 9.70065L16.4205 7.57933ZM13.2392 7.57932L10.9392 9.87932L13.0605 12.0006L15.3605 9.70065L13.2392 7.57932ZM13.0605 9.87932L10.7605 7.57932L8.6392 9.70065L10.9392 12.0006L13.0605 9.87932ZM10.7605 7.57933C9.88474 6.70354 8.45499 6.70354 7.5792 7.57933L9.70052 9.70065C9.40474 9.99643 8.93499 9.99643 8.6392 9.70065L10.7605 7.57933ZM7.5792 7.57933C6.70342 8.45511 6.70342 9.88486 7.5792 10.7606L9.70052 8.63932C9.99631 8.93511 9.99631 9.40486 9.70052 9.70065L7.5792 7.57933ZM7.5792 10.7606L9.8792 13.0606L12.0005 10.9393L9.70052 8.63932L7.5792 10.7606ZM9.8792 10.9393L7.5792 13.2393L9.70052 15.3606L12.0005 13.0606L9.8792 10.9393ZM7.5792 13.2393C6.70342 14.1151 6.70342 15.5449 7.5792 16.4206L9.70052 14.2993C9.99631 14.5951 9.99631 15.0649 9.70052 15.3606L7.5792 13.2393ZM7.5792 16.4206C8.02533 16.8668 8.6035 17.08 9.16986 17.08V14.08C9.35622 14.08 9.5544 14.1532 9.70052 14.2993L7.5792 16.4206ZM9.16986 17.08C9.73622 17.08 10.3144 16.8668 10.7605 16.4206L8.6392 14.2993C8.78533 14.1532 8.9835 14.08 9.16986 14.08V17.08ZM10.7605 16.4206L13.0605 14.1206L10.9392 11.9993L8.6392 14.2993L10.7605 16.4206ZM10.9392 14.1206L13.2392 16.4206L15.3605 14.2993L13.0605 11.9993L10.9392 14.1206ZM13.2392 16.4206C13.6853 16.8668 14.2635 17.08 14.8299 17.08V14.08C15.0162 14.08 15.2144 14.1532 15.3605 14.2993L13.2392 16.4206ZM14.8299 17.08C15.3962 17.08 15.9744 16.8668 16.4205 16.4206L14.2992 14.2993C14.4453 14.1532 14.6435 14.08 14.8299 14.08V17.08ZM16.4205 16.4206C17.2963 15.5449 17.2963 14.1151 16.4205 13.2393L14.2992 15.3606C14.0034 15.0649 14.0034 14.5951 14.2992 14.2993L16.4205 16.4206ZM16.4205 13.2393L14.1205 10.9393L11.9992 13.0606L14.2992 15.3606L16.4205 13.2393Z" fill="#9E9E9E" mask="url(#path-2-inside-1_329_320)"/>
</svg>