<svg xmlns="http://www.w3.org/2000/svg" width="19" height="18" viewBox="0 0 19 18" fill="none">
  <path d="M9.18848 13.5L9.18848 11.25" stroke="#9E9E9E" stroke-linecap="round"/>
  <path d="M1.95202 9.91009C1.68725 8.18718 1.55487 7.32573 1.8806 6.56203C2.20633 5.79834 2.929 5.27582 4.37433 4.2308L5.45422 3.45C7.25219 2.15 8.15118 1.5 9.18848 1.5C10.2258 1.5 11.1248 2.15 12.9227 3.45L14.0026 4.2308C15.448 5.27582 16.1706 5.79834 16.4964 6.56203C16.8221 7.32573 16.6897 8.18718 16.4249 9.91009L16.1992 11.3793C15.8238 13.8217 15.6362 15.0429 14.7602 15.7714C13.8843 16.5 12.6037 16.5 10.0426 16.5H8.33437C5.77323 16.5 4.49266 16.5 3.61673 15.7714C2.74079 15.0429 2.55313 13.8217 2.1778 11.3793L1.95202 9.91009Z" stroke="#9E9E9E" stroke-linejoin="round"/>
</svg>