<svg xmlns="http://www.w3.org/2000/svg" width="21" height="20" viewBox="0 0 21 20" fill="none">
  <path d="M10.1883 1.66675C8.00498 1.66675 6.22998 3.44175 6.22998 5.62508C6.22998 7.76675 7.90498 9.50008 10.0883 9.57508C10.155 9.56675 10.2216 9.56675 10.2716 9.57508C10.2883 9.57508 10.2966 9.57508 10.3133 9.57508C10.3216 9.57508 10.3216 9.57508 10.33 9.57508C12.4633 9.50008 14.1383 7.76675 14.1466 5.62508C14.1466 3.44175 12.3716 1.66675 10.1883 1.66675Z" fill="#BDBDBD"/>
  <path d="M14.4218 11.7917C12.0968 10.2417 8.30511 10.2417 5.96344 11.7917C4.90511 12.5 4.32178 13.4583 4.32178 14.4833C4.32178 15.5083 4.90511 16.4583 5.95511 17.1583C7.12178 17.9417 8.65511 18.3333 10.1884 18.3333C11.7218 18.3333 13.2551 17.9417 14.4218 17.1583C15.4718 16.45 16.0551 15.5 16.0551 14.4667C16.0468 13.4417 15.4718 12.4917 14.4218 11.7917Z" fill="#BDBDBD"/>
</svg>