<?xml version="1.0" encoding="UTF-8"?>
<svg id="_레이어_1" data-name="레이어_1" xmlns="http://www.w3.org/2000/svg" viewBox="0 0 148 148">
  <defs>
    <style>
      .cls-1, .cls-2 {
        fill: #ff769d;
      }

      .cls-3 {
        fill: #ffb6d0;
      }

      .cls-4 {
        fill: #fff;
      }

      .cls-5 {
        fill: #ff8ab1;
      }

      .cls-2 {
        stroke: #ff578f;
      }

      .cls-2, .cls-6 {
        stroke-miterlimit: 10;
      }

      .cls-7 {
        fill: #4ec600;
      }

      .cls-8 {
        fill: #aeea1c;
      }

      .cls-6 {
        stroke: #ff8ab7;
      }

      .cls-6, .cls-9 {
        fill: #ffaec5;
      }

      .cls-10 {
        stroke-width: .76px;
      }

      .cls-10, .cls-11 {
        fill: none;
        stroke: #399100;
        stroke-linecap: round;
        stroke-linejoin: round;
      }

      .cls-12 {
        fill: #ffc5d8;
      }

      .cls-13 {
        fill: #88a8f8;
      }

      .cls-14 {
        fill: #ff3d33;
      }

      .cls-15 {
        fill: #945745;
      }

      .cls-16 {
        fill: #ffdc9f;
      }

      .cls-17 {
        fill: #ff94b8;
      }

      .cls-18 {
        fill: #ffb3d0;
      }
    </style>
  </defs>
  <path class="cls-8" d="M30.95,57.81c7.77,1.7,10.08,6.65,8.94,11.88-1.14,5.23-5.31,8.77-13.08,7.07-6.22-1.36-12.14-9.01-14.25-12.01-.46-.66-.26-1.56.43-1.97,3.17-1.85,11.74-6.33,17.96-4.97Z"/>
  <g>
    <path class="cls-14" d="M110.24,82.58c-6.71,12.86-20.68,26.91-48.87,18.69-12.45-3.63-23.04-12.59-27.1-24.9-4.63-14.05-2.15-34.46,30.04-57.15,47.63-33.59,52.26,15.12,52.13,36.73-.05,9.23-1.92,18.44-6.2,26.62Z"/>
    <ellipse class="cls-16" cx="71.35" cy="22.43" rx="1.83" ry=".87" transform="translate(5.04 57.02) rotate(-45)"/>
    <ellipse class="cls-16" cx="93" cy="29.22" rx="1.83" ry=".87" transform="translate(6.58 74.32) rotate(-45)"/>
    <ellipse class="cls-16" cx="105.41" cy="45.69" rx="1.83" ry=".87" transform="translate(-1.43 87.92) rotate(-45)"/>
    <ellipse class="cls-16" cx="60.93" cy="42.95" rx="1.83" ry=".87" transform="translate(-12.52 55.66) rotate(-45)"/>
    <ellipse class="cls-16" cx="41.11" cy="56.9" rx="1.83" ry=".87" transform="translate(-28.2 45.73) rotate(-45)"/>
    <ellipse class="cls-16" cx="67.45" cy="56.38" rx="1.83" ry=".87" transform="translate(-20.11 64.21) rotate(-45)"/>
    <ellipse class="cls-16" cx="58.32" cy="69.56" rx="1.83" ry=".87" transform="translate(-32.1 61.61) rotate(-45)"/>
    <ellipse class="cls-16" cx="90.54" cy="67.47" rx="1.83" ry=".87" transform="translate(-21.19 83.78) rotate(-45)"/>
    <ellipse class="cls-16" cx="94.45" cy="15.69" rx="1.83" ry=".87" transform="translate(16.57 71.38) rotate(-45)"/>
    <ellipse class="cls-16" cx="82.76" cy="22.69" rx="1.83" ry=".87" transform="translate(8.2 65.16) rotate(-45)"/>
    <ellipse class="cls-16" cx="92.89" cy="49.73" rx="1.83" ry=".87" transform="translate(-7.96 80.25) rotate(-45)"/>
    <ellipse class="cls-16" cx="60.67" cy="30.69" rx="1.83" ry=".87" transform="translate(-3.93 51.89) rotate(-45)"/>
    <ellipse class="cls-16" cx="72.46" cy="33.82" rx="1.83" ry=".87" transform="translate(-2.69 61.14) rotate(-45)"/>
    <ellipse class="cls-16" cx="47.94" cy="43.26" rx="1.83" ry=".87" transform="translate(-16.55 46.57) rotate(-45)"/>
    <ellipse class="cls-16" cx="54.8" cy="57.82" rx="1.83" ry=".87" transform="translate(-24.83 55.68) rotate(-45)"/>
    <ellipse class="cls-16" cx="77.67" cy="45.73" rx="1.83" ry=".87" transform="translate(-9.59 68.32) rotate(-45)"/>
    <ellipse class="cls-16" cx="94.37" cy="39.38" rx="1.83" ry=".87" transform="translate(-.21 78.26) rotate(-45)"/>
    <ellipse class="cls-16" cx="99.11" cy="56.95" rx="1.83" ry=".87" transform="translate(-11.24 86.76) rotate(-45)"/>
    <ellipse class="cls-16" cx="81.41" cy="56.25" rx="1.83" ry=".87" transform="translate(-15.93 74.04) rotate(-45)"/>
    <ellipse class="cls-16" cx="102.02" cy="66.69" rx="1.83" ry=".87" transform="translate(-17.27 91.67) rotate(-45)"/>
    <ellipse class="cls-16" cx="81.92" cy="34.95" rx="1.83" ry=".87" transform="translate(-.72 68.16) rotate(-45)"/>
    <ellipse class="cls-16" cx="72.13" cy="69.91" rx="1.83" ry=".87" transform="translate(-28.31 71.48) rotate(-45)"/>
    <ellipse class="cls-16" cx="102.13" cy="29.22" rx="1.83" ry=".87" transform="translate(9.26 80.78) rotate(-45)"/>
    <ellipse class="cls-16" cx="45" cy="67.04" rx="1.83" ry=".87" transform="translate(-34.22 51.46) rotate(-45)"/>
  </g>
  <ellipse class="cls-16" cx="73.28" cy="94.12" rx="1.83" ry=".87" transform="translate(-45.09 79.38) rotate(-45)"/>
  <ellipse class="cls-16" cx="64.67" cy="80.82" rx="1.83" ry=".87" transform="translate(-38.21 69.4) rotate(-45)"/>
  <ellipse class="cls-16" cx="83.58" cy="80.43" rx="1.83" ry=".87" transform="translate(-32.39 82.66) rotate(-45)"/>
  <ellipse class="cls-16" cx="98.55" cy="78.74" rx="1.83" ry=".87" transform="translate(-26.81 92.74) rotate(-45)"/>
  <ellipse class="cls-16" cx="49.63" cy="80.69" rx="1.83" ry=".87" transform="translate(-42.52 58.73) rotate(-45)"/>
  <path class="cls-12" d="M137.32,122.92c0,9.88-8.01,17.89-17.89,17.89H27.21c-4.94,0-9.41-2-12.65-5.24-3.24-3.24-5.24-7.71-5.24-12.65,0-9.46,7.35-17.18,16.64-17.82-2.26-2.36-3.89-5.34-4.59-8.65-.26-1.2-.4-2.44-.4-3.72,0-9.88,8.01-17.89,17.89-17.89h68.92c9.88,0,17.89,8.01,17.89,17.89,0,1.28-.14,2.52-.4,3.72-.69,3.31-2.32,6.29-4.59,8.65,4.65.32,8.81,2.41,11.81,5.6,3,3.19,4.83,7.49,4.83,12.22Z"/>
  <path class="cls-3" d="M28.85,106.22s51.22,7.5,86.43,1.17c0,0-51.22,27.06-86.43-1.17Z"/>
  <g>
    <path class="cls-15" d="M125.67,92.73c0,1.28-.14,2.52-.4,3.72-2.69,2.2-6.12,3.51-9.86,3.51-4.06,0-7.74-1.56-10.52-4.09-2.78,2.53-6.47,4.09-10.53,4.09s-7.74-1.56-10.52-4.09c-2.78,2.53-6.46,4.09-10.52,4.09s-7.74-1.56-10.52-4.09c-2.78,2.53-6.47,4.09-10.52,4.09s-7.74-1.56-10.52-4.09c-2.78,2.53-6.47,4.09-10.53,4.09-3.74,0-7.17-1.31-9.86-3.51-.26-1.2-.4-2.44-.4-3.72,0-9.88,8.01-17.89,17.89-17.89h68.92c9.88,0,17.89,8.01,17.89,17.89Z"/>
    <rect class="cls-13" x="51.29" y="76.19" width="2.83" height="7.09" rx="1.41" ry="1.41" transform="translate(-42.31 69.32) rotate(-50.28)"/>
    <rect class="cls-13" x="75.81" y="90.41" width="2.83" height="7.09" rx="1.41" ry="1.41" transform="translate(24.22 203.41) rotate(-114.75)"/>
    <rect class="cls-13" x="99.48" y="88.39" width="2.83" height="7.09" rx="1.41" ry="1.41" transform="translate(-21.57 152.21) rotate(-68.55)"/>
    <rect class="cls-1" x="85.78" y="85.52" width="2.83" height="9.33" rx="1.41" ry="1.41" transform="translate(-37.45 75.99) rotate(-39.47)"/>
    <rect class="cls-1" x="111.43" y="82.79" width="2.83" height="9.33" rx="1.41" ry="1.41" transform="translate(53.27 217.19) rotate(-103.11)"/>
    <rect class="cls-4" x="46.11" y="86.15" width="2.83" height="4.87" rx="1.41" ry="1.41" transform="translate(76.56 -7.66) rotate(45)"/>
    <rect class="cls-4" x="92.41" y="82.5" width="2.83" height="4.87" rx="1.41" ry="1.41" transform="translate(87.54 -41.47) rotate(45)"/>
    <rect class="cls-4" x="117.5" y="91.33" width="2.83" height="4.87" rx="1.41" ry="1.41" transform="translate(-29.51 123.81) rotate(-49.7)"/>
    <rect class="cls-13" x="32.15" y="92.81" width="2.83" height="4.87" rx="1.41" ry="1.41" transform="translate(134.42 90.22) rotate(106.56)"/>
  </g>
  <g>
    <path class="cls-7" d="M27.86,69.6c8.87-3.93,14.71-.73,17.35,5.24,2.65,5.97,1.1,12.45-7.76,16.38-7.1,3.15-18.43-.11-22.67-1.54-.93-.31-1.39-1.34-.99-2.24,1.79-4.1,6.98-14.69,14.08-17.84Z"/>
    <path class="cls-11" d="M18.15,86.48s9.22-9.87,23.48-10.61"/>
  </g>
  <g>
    <path class="cls-7" d="M117.88,65.82c-6.62-3.16-11.11-.87-13.24,3.59-2.13,4.46-1.1,9.39,5.52,12.56,5.3,2.53,13.94.31,17.18-.68.71-.22,1.08-.99.8-1.67-1.27-3.14-4.97-11.26-10.27-13.79Z"/>
    <path class="cls-10" d="M124.87,78.79s-6.77-7.66-17.53-8.52"/>
  </g>
  <g>
    <path class="cls-6" d="M69.09,77.01s-3.98,7.74-8.94,8.14c-4.96.4-12.22,8.09-12.01,11.26l5.02.54,3.17,5.13s6.73-9.21,11.68-9.78c4.95-.57,7.11-9.92,7.11-9.92l-6.02-5.38Z"/>
    <path class="cls-6" d="M100.12,70.43s7.75,3.97,12.01,1.4c4.27-2.57,14.64-.55,16.33,2.15l-3.77,3.37.42,6.02s-10.83-3.56-15.19-1.14-11.56-3.91-11.56-3.91l1.76-7.88Z"/>
    <path class="cls-2" d="M87.43,70.1s7.13-10.49,14.31-9.4c7.18,1.09,3.43,7.87,4.17,9.66s2.57,11.54-3.19,11.96-16.35-5.49-16.35-5.49l1.06-6.72Z"/>
    <path class="cls-2" d="M81.27,71.12s-10.96-6.39-16.97-2.31c-6.01,4.08.3,8.58.4,10.51s2.66,11.52,8.04,9.41c5.39-2.1,12.38-12.01,12.38-12.01l-3.86-5.61Z"/>
    <g>
      <path class="cls-17" d="M100.93,67.69c.14.35-3.23.87-6.66,2.22-3.43,1.35-5.63,3.02-5.77,2.67s1.84-2.59,5.27-3.94c3.43-1.35,7.02-1.3,7.16-.95Z"/>
      <path class="cls-17" d="M100.43,77.52c.09-.37-2.93-.36-6.08-1.17-3.15-.8-5.24-2.11-5.33-1.75s1.84,2.27,4.99,3.07c3.15.8,6.33.21,6.42-.16Z"/>
    </g>
    <g>
      <path class="cls-17" d="M68.24,74c.01.38,3.3-.5,6.99-.65s6.37.5,6.35.12-2.72-1.63-6.41-1.49c-3.68.14-6.95,1.64-6.93,2.01Z"/>
      <path class="cls-17" d="M72.66,82.79c-.23-.3,2.54-1.51,5.1-3.52,2.56-2.01,3.95-4.04,4.18-3.75s-.77,2.82-3.34,4.82-5.71,2.74-5.94,2.44Z"/>
    </g>
    <path class="cls-9" d="M83.4,69.68s-3.63.15-2.79,3.31c.83,3.16,1.65,6.09,2.23,6.22s6.43.05,6.82-1.93c.39-1.98-.44-9.55-3.51-9.18-3.07.37-2.75,1.57-2.75,1.57Z"/>
    <g>
      <circle class="cls-5" cx="101.72" cy="64.08" r="2.44"/>
      <circle class="cls-18" cx="102.21" cy="63.53" r="1.65"/>
      <polygon class="cls-4" points="102.85 60.79 103.86 61.88 105.34 61.83 104.25 62.84 104.3 64.32 103.3 63.23 101.82 63.28 102.91 62.27 102.85 60.79"/>
      <polygon class="cls-4" points="102.33 64.65 102.46 65.39 103.1 65.77 102.37 65.9 101.98 66.54 101.86 65.8 101.21 65.42 101.95 65.29 102.33 64.65"/>
    </g>
  </g>
</svg>