<?xml version="1.0" encoding="UTF-8"?>
<svg width="96" height="96" id="_레이어_1" data-name="레이어_1" xmlns="http://www.w3.org/2000/svg" xmlns:xlink="http://www.w3.org/1999/xlink" viewBox="0 0 148 148">
  <defs>
    <style>
      .strawverry-cat-chip-1 {
        stroke: #ffcad7;
        stroke-miterlimit: 10;
        stroke-width: 3px;
      }

      .strawverry-cat-chip-1, .strawverry-cat-chip-2 {
        fill: none;
      }

      .strawverry-cat-chip-3 {
        fill: #fff;
      }

      .strawverry-cat-chip-4 {
        fill: #ffbbc6;
      }

      .strawverry-cat-chip-5 {
        fill: #400f0a;
      }

      .strawverry-cat-chip-6 {
        fill: #ff8da8;
      }

      .strawverry-cat-chip-7 {
        clip-path: url(#strawverry-cat-chip-clippath);
      }

      .strawverry-cat-chip-8 {
        fill: #ffcad7;
      }
    </style>
    <clipPath id="strawverry-cat-chip-clippath">
      <rect class="strawverry-cat-chip-2" x="10" y="10" width="128" height="128" rx="13.03" ry="13.03"/>
    </clipPath>
  </defs>
  <g>
    <rect class="strawverry-cat-chip-6" x="10" y="10" width="128" height="128" rx="13.03" ry="13.03"/>
    <g class="strawverry-cat-chip-7">
      <polyline class="strawverry-cat-chip-1" points="-2.8 48.36 58.25 -6.43 -5.93 91.66 120.33 -8.51 2.42 125.57 146.94 4.01 30.6 159.49 168.33 41.05 81.2 158.44 157.38 100.53"/>
    </g>
  </g>
  <circle class="strawverry-cat-chip-5" cx="72.68" cy="75.84" r="51.3"/>
  <g>
    <path class="strawverry-cat-chip-8" d="M67.82,55.28l-19.35,8.33c-1.54.66-3.22-.59-3.03-2.26l2.46-20.92c.2-1.67,2.12-2.5,3.47-1.49l16.88,12.59c1.34,1,1.1,3.09-.44,3.75Z"/>
    <path class="strawverry-cat-chip-6" d="M63.26,57.29l-10,4.3c-1.54.66-3.22-.59-3.03-2.26l1.27-10.81c.2-1.67,2.12-2.5,3.47-1.49l8.73,6.51c1.34,1,1.1,3.09-.44,3.75Z"/>
    <path class="strawverry-cat-chip-8" d="M77.79,55.28l19.35,8.33c1.54.66,3.22-.59,3.03-2.26l-2.46-20.92c-.2-1.67-2.12-2.5-3.47-1.49l-16.88,12.59c-1.34,1-1.1,3.09.44,3.75Z"/>
    <path class="strawverry-cat-chip-6" d="M82.34,57.29l10,4.3c1.54.66,3.22-.59,3.03-2.26l-1.27-10.81c-.2-1.67-2.12-2.5-3.47-1.49l-8.73,6.51c-1.34,1-1.1,3.09.44,3.75Z"/>
    <path class="strawverry-cat-chip-8" d="M103.43,72.41c.55-1.27.84-2.59.84-3.94,0-9.46-14.01-17.13-31.28-17.13s-31.28,7.67-31.28,17.13c0,1.29.27,2.55.77,3.76-2.89,2.87-4.55,6.18-4.55,9.71,0,10.88,15.64,19.7,34.93,19.7s34.93-8.82,34.93-19.7c0-3.46-1.59-6.71-4.36-9.53Z"/>
    <path class="strawverry-cat-chip-4" d="M76.08,95.93c-17.38-2.82-31.24-11.29-35.89-20.86-1.41,2.14-2.2,4.44-2.2,6.85,0,10.88,15.64,19.7,34.93,19.7,9.35,0,17.84-2.08,24.11-5.45-6.34.97-13.5.96-20.95-.24Z"/>
    <g>
      <circle class="strawverry-cat-chip-5" cx="64.01" cy="72.47" r="2.78"/>
      <circle class="strawverry-cat-chip-5" cx="80.79" cy="72.47" r="2.78"/>
    </g>
    <g>
      <rect class="strawverry-cat-chip-6" x="72.03" y="75.75" width=".73" height="8.54" rx=".37" ry=".37" transform="translate(-29.04 116.82) rotate(-67.81)"/>
      <rect class="strawverry-cat-chip-6" x="68.13" y="79.65" width="8.54" height=".73" rx=".37" ry=".37" transform="translate(-25.35 34.32) rotate(-22.81)"/>
    </g>
  </g>
  <g>
    <circle class="strawverry-cat-chip-6" cx="37.79" cy="101.87" r="3.13"/>
    <circle class="strawverry-cat-chip-8" cx="44.31" cy="109.17" r="2.57"/>
    <circle class="strawverry-cat-chip-3" cx="51.18" cy="114.04" r="1.96"/>
  </g>
  <g>
    <circle class="strawverry-cat-chip-6" cx="106.01" cy="46.01" r="3.13"/>
    <circle class="strawverry-cat-chip-8" cx="111.84" cy="53.88" r="2.57"/>
    <circle class="strawverry-cat-chip-3" cx="115.23" cy="61.59" r="1.96"/>
  </g>
  <path class="strawverry-cat-chip-3" d="M89.08,57.52c7.5,1.5,13.19,7.24,11.88,15.27-.09.95-.94,1.65-1.89,1.56-1.02-.09-1.75-1.09-1.53-2.09,2.06-6.6-2.68-11.76-8.69-13.76-.61-.16-.4-1.1.23-.97h0Z"/>
  <circle class="strawverry-cat-chip-3" cx="97.88" cy="77.57" r="1.96"/>
</svg>