<?xml version="1.0" encoding="UTF-8"?>
<svg id="_레이어_1" data-name="레이어_1" xmlns="http://www.w3.org/2000/svg" xmlns:xlink="http://www.w3.org/1999/xlink" viewBox="0 0 148 148">
  <defs>
    <style>
      .cls-1 {
        fill: #ff769d;
      }

      .cls-2 {
        fill: #572212;
      }

      .cls-3 {
        fill: url(#_무제_그라디언트_15);
      }

      .cls-4 {
        fill: #ffa6ca;
      }

      .cls-5 {
        fill: #a87569;
      }

      .cls-6 {
        fill: #ffd7e6;
      }

      .cls-7 {
        fill: #fff;
      }

      .cls-8 {
        fill: #ffb8d8;
      }

      .cls-9 {
        fill: #ff8ab1;
      }

      .cls-10 {
        fill: #49190f;
      }

      .cls-11 {
        fill: #ffbdd1;
      }

      .cls-12 {
        fill: #c9a69f;
      }

      .cls-13 {
        fill: #ffc5d8;
      }

      .cls-14 {
        fill: #945745;
      }

      .cls-15 {
        fill: #ffb3ce;
      }

      .cls-16 {
        fill: #ff6196;
      }

      .cls-17 {
        fill: #ffd7eb;
      }

      .cls-18 {
        fill: #fff3f7;
        stroke: #ffe6f0;
        stroke-miterlimit: 10;
        stroke-width: .84px;
      }

      .cls-19 {
        fill: #ffe6f0;
      }

      .cls-20 {
        fill: #ffa6bf;
      }

      .cls-21 {
        fill: #ff8da8;
      }
    </style>
    <linearGradient id="_무제_그라디언트_15" data-name="무제 그라디언트 15" x1="10.93" y1="75.27" x2="137.07" y2="75.27" gradientUnits="userSpaceOnUse">
      <stop offset="0" stop-color="#ffcad7"/>
      <stop offset="1" stop-color="#ff80aa"/>
    </linearGradient>
  </defs>
  <path class="cls-3" d="M136.29,70.59l-1.88-5.46v-5.77c0-1.12-.13-2.22-.39-3.3-.46-2.01-1.36-3.9-2.64-5.55l-3.55-4.55-1.87-5.46c-1.04-3.03-3.07-5.63-5.75-7.39l-4.83-3.15-3.54-4.55c-1.97-2.53-4.73-4.34-7.84-5.12l-5.59-1.42-4.83-3.16c-2.69-1.75-5.88-2.56-9.08-2.29l-5.75.47-5.59-1.41c-3.11-.79-6.39-.52-9.33.77l-5.28,2.32-5.75.47c-3.19.27-6.21,1.59-8.57,3.76l-4.24,3.91-5.29,2.32c-2.93,1.29-5.36,3.52-6.88,6.34l-2.75,5.07-4.24,3.91c-2.36,2.17-3.93,5.07-4.46,8.23l-.95,5.69-2.74,5.07c-1.53,2.83-2.07,6.07-1.55,9.24l.58,3.46.37,2.23-.95,5.69c-.52,3.16.02,6.41,1.55,9.23l2.74,5.07.95,5.69c.53,3.17,2.1,6.07,4.46,8.24l4.24,3.9,2.75,5.08c1.52,2.82,3.95,5.05,6.88,6.34l5.29,2.32,4.24,3.9c2.36,2.17,5.38,3.5,8.57,3.76l5.75.48,5.28,2.32c2.94,1.28,6.22,1.56,9.33.77l5.59-1.42,5.75.48c3.2.26,6.39-.54,9.08-2.3l4.83-3.15,5.59-1.42c3.11-.79,5.87-2.59,7.84-5.12l3.54-4.55,4.83-3.16c2.68-1.75,4.71-4.35,5.75-7.38l1.87-5.46,3.55-4.55c1.97-2.53,3.03-5.65,3.03-8.86v-5.77l1.88-5.45c1.04-3.03,1.04-6.33,0-9.36ZM74,106.98c-12.23,0-22.84-6.92-28.12-17.06-2.3-4.38-3.59-9.36-3.59-14.65,0-17.52,14.2-31.71,31.71-31.71,8.56,0,16.32,3.39,22.02,8.89,5.98,5.77,9.69,13.86,9.69,22.82,0,17.51-14.19,31.71-31.71,31.71Z"/>
  <path class="cls-7" d="M134.02,56.06c-.33-1.13-.8-2.23-1.77-2.84-1.48-.93-3.55-.26-4.68,1.07-1.14,1.33-1.54,3.12-1.8,4.85-1.88,12.65,2.01,26.42-3.72,37.85-1.14,2.26-3.05,4.58-5.58,4.53-2.46-.05-4.33-2.42-4.8-4.83-.48-2.41.07-4.89.35-7.33.83-7.26-.7-14.57-2.36-21.69-1-4.26-2.14-8.69-5.1-11.91-2.14-2.33-5.53-3.72-8.54-3.31-5.7-5.5-13.46-8.89-22.02-8.89-17.51,0-31.71,14.19-31.71,31.71,0,5.29,1.29,10.27,3.59,14.65-3.55-2.59-4.97-7.75-5.37-12.34-.31-3.48-.32-6.99-.02-10.47.35-4.13,1.11-8.32.2-12.35-.92-4.04-4.12-7.94-8.25-8.03-3.74-.07-6.9,2.98-8.48,6.37-1.57,3.39-2.02,7.19-3.12,10.76-1.1,3.58-3.14,7.2-6.6,8.62-.82.33-1.67.52-2.53.56l-.58-3.46c-.52-3.17.02-6.41,1.55-9.24l2.74-5.07.95-5.69c.53-3.16,2.1-6.06,4.46-8.23l4.24-3.91,2.75-5.07c1.52-2.82,3.95-5.05,6.88-6.34l5.29-2.32,4.24-3.91c2.36-2.17,5.38-3.49,8.57-3.76l5.75-.47,5.28-2.32c2.94-1.29,6.22-1.56,9.33-.77l5.59,1.41,5.75-.47c3.2-.27,6.39.54,9.08,2.29l4.83,3.16,5.59,1.42c3.11.78,5.87,2.59,7.84,5.12l3.54,4.55,4.83,3.15c2.68,1.76,4.71,4.36,5.75,7.39l1.87,5.46,3.55,4.55c1.28,1.65,2.18,3.54,2.64,5.55Z"/>
  <g>
    <g>
      <path class="cls-2" d="M47.33,41.04c-.05,2.31-1.4,4.28-3.32,5.25-.81.41-1.74.64-2.71.64h-.14c-3.33-.08-5.98-2.84-5.9-6.17.04-1.64.73-3.11,1.81-4.17,1.03-1,2.4-1.64,3.92-1.72.14,0,.3-.01.44,0,3.33.08,5.97,2.84,5.89,6.17Z"/>
      <path class="cls-10" d="M44.01,46.29c-.81.41-1.74.64-2.71.64h-.14c-3.33-.08-5.98-2.84-5.9-6.17.04-1.64.73-3.11,1.81-4.17-.14,2.44.33,7.86,6.94,9.7Z"/>
    </g>
    <g>
      <circle class="cls-14" cx="42.86" cy="38.94" r="2.63"/>
      <circle class="cls-5" cx="43.19" cy="38.5" r="1.74"/>
      <polygon class="cls-7" points="43.43 36.38 43.97 36.89 44.7 36.81 44.19 37.35 44.27 38.09 43.73 37.57 42.99 37.65 43.51 37.11 43.43 36.38"/>
      <polygon class="cls-7" points="43.74 38.33 43.95 38.74 44.4 38.85 43.99 39.06 43.88 39.51 43.67 39.1 43.22 38.99 43.63 38.78 43.74 38.33"/>
      <circle class="cls-12" cx="42.1" cy="38.73" r=".32"/>
      <circle class="cls-12" cx="42.51" cy="39.38" r=".2"/>
    </g>
  </g>
  <g>
    <g>
      <path class="cls-2" d="M114.72,41.04c-.05,2.31-1.4,4.28-3.32,5.25-.81.41-1.74.64-2.71.64h-.14c-3.33-.08-5.98-2.84-5.9-6.17.04-1.64.73-3.11,1.81-4.17,1.03-1,2.4-1.64,3.92-1.72.14,0,.3-.01.44,0,3.33.08,5.97,2.84,5.89,6.17Z"/>
      <path class="cls-10" d="M111.4,46.29c-.81.41-1.74.64-2.71.64h-.14c-3.33-.08-5.98-2.84-5.9-6.17.04-1.64.73-3.11,1.81-4.17-.14,2.44.33,7.86,6.94,9.7Z"/>
    </g>
    <g>
      <circle class="cls-14" cx="110.25" cy="38.94" r="2.63"/>
      <circle class="cls-5" cx="110.58" cy="38.5" r="1.74"/>
      <polygon class="cls-7" points="110.82 36.38 111.36 36.89 112.1 36.81 111.58 37.35 111.66 38.09 111.12 37.57 110.39 37.65 110.9 37.11 110.82 36.38"/>
      <polygon class="cls-7" points="111.13 38.33 111.34 38.74 111.79 38.85 111.38 39.06 111.28 39.51 111.06 39.1 110.61 38.99 111.02 38.78 111.13 38.33"/>
      <circle class="cls-12" cx="109.49" cy="38.73" r=".32"/>
      <circle class="cls-12" cx="109.9" cy="39.38" r=".2"/>
    </g>
  </g>
  <g>
    <g>
      <path class="cls-2" d="M47.33,111.21c-.05-2.31-1.4-4.28-3.32-5.25-.81-.41-1.74-.64-2.71-.64h-.14c-3.33.08-5.98,2.84-5.9,6.17.04,1.64.73,3.11,1.81,4.17,1.03,1,2.4,1.64,3.92,1.72.14,0,.3.01.44,0,3.33-.08,5.97-2.84,5.89-6.17Z"/>
      <path class="cls-10" d="M44.01,105.96c-.81-.41-1.74-.64-2.71-.64h-.14c-3.33.08-5.98,2.84-5.9,6.17.04,1.64.73,3.11,1.81,4.17-.14-2.44.33-7.86,6.94-9.7Z"/>
    </g>
    <g>
      <circle class="cls-14" cx="42.86" cy="113.31" r="2.63"/>
      <circle class="cls-5" cx="43.19" cy="113.75" r="1.74"/>
      <polygon class="cls-7" points="43.43 115.87 43.97 115.36 44.7 115.44 44.19 114.9 44.27 114.16 43.73 114.67 42.99 114.6 43.51 115.13 43.43 115.87"/>
      <polygon class="cls-7" points="43.74 113.92 43.95 113.51 44.4 113.4 43.99 113.19 43.88 112.74 43.67 113.15 43.22 113.25 43.63 113.47 43.74 113.92"/>
      <circle class="cls-12" cx="42.1" cy="113.51" r=".32"/>
      <circle class="cls-12" cx="42.51" cy="112.87" r=".2"/>
    </g>
  </g>
  <g>
    <g>
      <path class="cls-2" d="M114.72,111.21c-.05-2.31-1.4-4.28-3.32-5.25-.81-.41-1.74-.64-2.71-.64h-.14c-3.33.08-5.98,2.84-5.9,6.17.04,1.64.73,3.11,1.81,4.17,1.03,1,2.4,1.64,3.92,1.72.14,0,.3.01.44,0,3.33-.08,5.97-2.84,5.89-6.17Z"/>
      <path class="cls-10" d="M111.4,105.96c-.81-.41-1.74-.64-2.71-.64h-.14c-3.33.08-5.98,2.84-5.9,6.17.04,1.64.73,3.11,1.81,4.17-.14-2.44.33-7.86,6.94-9.7Z"/>
    </g>
    <g>
      <circle class="cls-14" cx="110.25" cy="113.31" r="2.63"/>
      <circle class="cls-5" cx="110.58" cy="113.75" r="1.74"/>
      <polygon class="cls-7" points="110.82 115.87 111.36 115.36 112.1 115.44 111.58 114.9 111.66 114.16 111.12 114.67 110.39 114.6 110.9 115.13 110.82 115.87"/>
      <polygon class="cls-7" points="111.13 113.92 111.34 113.51 111.79 113.4 111.38 113.19 111.28 112.74 111.06 113.15 110.61 113.25 111.02 113.47 111.13 113.92"/>
      <circle class="cls-12" cx="109.49" cy="113.51" r=".32"/>
      <circle class="cls-12" cx="109.9" cy="112.87" r=".2"/>
    </g>
  </g>
  <g>
    <circle class="cls-21" cx="75.81" cy="123.02" r="6.69"/>
    <circle class="cls-20" cx="76.71" cy="124.36" r="4.16"/>
    <circle class="cls-11" cx="76.94" cy="124.76" r="2.92"/>
    <circle class="cls-6" cx="77.5" cy="125.21" r="1.76"/>
    <polygon class="cls-7" points="76.49 128.29 77.51 127.87 78.49 128.37 78.07 127.35 78.58 126.37 77.55 126.79 76.57 126.28 76.99 127.31 76.49 128.29"/>
    <polygon class="cls-7" points="77.97 126.11 78.43 125.73 79.02 125.84 78.64 125.38 78.74 124.79 78.28 125.17 77.7 125.06 78.07 125.52 77.97 126.11"/>
    <circle class="cls-7" cx="77.17" cy="124.05" r=".21"/>
    <circle class="cls-7" cx="77.79" cy="123.99" r=".14"/>
  </g>
  <g>
    <path class="cls-18" d="M64.75,37.22l-11.18,11.18c-.28.28-.24.73.08.96l8.31,5.97c.33.23.78.11.95-.25l7.34-16.27c.17-.37-.05-.8-.46-.88l-4.47-.88c-.21-.04-.42.02-.57.17Z"/>
    <path class="cls-18" d="M84.18,37.52l10.83,11.52c.27.28.22.74-.11.96l-8.49,5.71c-.33.22-.79.09-.94-.28l-6.84-16.49c-.16-.38.08-.8.48-.87l4.5-.74c.21-.03.42.04.56.19Z"/>
    <path class="cls-13" d="M78.35,30.63c2.08-1.36,9.37-5.51,18.36-3.48.38.09.67.39.75.78.47,2.27,1.57,10.18-4.32,15.52-.26.24-.64.31-.97.2-2.39-.78-11.92-4.3-14.24-11.91-.13-.42.05-.86.41-1.1Z"/>
    <path class="cls-13" d="M70.88,29.59c-2.26-1.54-9.18-5.55-17.87-3.94-.5.09-.89.49-1,.99-.56,2.47-1.67,9.98,3.77,15.33.33.32.81.43,1.25.3,2.62-.78,11.7-3.97,14.33-11.15.21-.56.02-1.19-.48-1.52Z"/>
    <path class="cls-15" d="M67.85,29.95s-11.91-2.57-12.79-1.3c-.88,1.27-.94,9.42,1.93,9.89s10.85-8.6,10.85-8.6Z"/>
    <path class="cls-15" d="M82.07,30.17s11.98-2.21,12.82-.91.65,9.45-2.23,9.83c-2.89.38-10.59-8.92-10.59-8.92Z"/>
    <path class="cls-13" d="M71.6,26.89c.01-2.73-.52-10.72-6.71-17.02-.36-.36-.9-.47-1.38-.28-2.36.92-9.21,4.19-10.61,11.69-.08.45.1.91.45,1.2,2.12,1.74,9.83,7.49,17.25,5.66.58-.14.99-.65,1-1.25Z"/>
    <path class="cls-15" d="M70.05,27.75s-7.01-14.26-10.6-11.93,10.6,11.93,10.6,11.93Z"/>
    <path class="cls-13" d="M77.91,28.03c.03-2.49.66-10.86,7.37-17.17.28-.27.7-.34,1.06-.19,2.14.88,9.33,4.38,10.46,12.25.05.35-.1.7-.38.92-1.98,1.55-10.23,7.48-17.83,5.15-.42-.13-.69-.52-.68-.96Z"/>
    <path class="cls-15" d="M80.17,28.09s7.44-14.04,10.96-11.6-10.96,11.6-10.96,11.6Z"/>
    <path class="cls-15" d="M68.93,32.05l-11.69,21.13c-.15.27-.09.61.15.81l5.68,4.71c.34.28.85.15,1.01-.25l10.82-26.61c.19-.47-.2-.96-.7-.88l-4.82.77c-.2.03-.37.15-.46.33Z"/>
    <path class="cls-15" d="M80.37,32.23l11.03,21.47c.14.28.07.62-.18.81l-5.82,4.54c-.35.27-.85.12-1-.29l-10-26.93c-.18-.47.23-.96.73-.86l4.79.92c.2.04.36.16.45.34Z"/>
    <path class="cls-18" d="M71.83,27.1c-1.25-1.37-5.89-6.11-11.26-7.36-.55-.13-1.12.14-1.35.66-.67,1.49-1.86,4.84-1.39,9.15.4,3.64.86,5.47,1.09,6.44.14.58.68.97,1.28.9,2.03-.24,6.08-.84,7.62-1.9,1.5-1.03,2.92-2.08,3.61-2.6.27-.21.44-.52.47-.86l.23-3.56c.02-.32-.09-.63-.3-.86Z"/>
    <path class="cls-18" d="M77.78,27.69c1.29-1.33,6.08-5.92,11.48-7.01.56-.11,1.11.18,1.33.7.62,1.51,1.71,4.89,1.1,9.19-.51,3.62-1.03,5.44-1.28,6.4-.16.58-.71.95-1.3.86-2.02-.3-6.05-1.02-7.55-2.13s-2.86-2.17-3.53-2.71c-.27-.21-.43-.53-.44-.88l-.12-3.57c-.01-.32.1-.62.33-.85Z"/>
    <path class="cls-15" d="M77.04,26.35c-.43,0-.83.15-1.13.42-.3-.27-.69-.45-1.12-.45s-.83.15-1.13.42c-.3-.27-.69-.45-1.12-.45-.94-.01-1.71.73-1.73,1.67l-.05,3.12c-.01.94.73,1.71,1.67,1.73.43,0,.83-.15,1.13-.42.3.27.69.45,1.12.45s.83-.15,1.13-.42c.3.27.69.45,1.12.45.94.01,1.71-.73,1.73-1.67l.05-3.12c.01-.94-.74-1.71-1.67-1.73Z"/>
    <path class="cls-19" d="M79.46,29.73c-.14-.03-.16-.22-.02-.26,2.23-.71,11.05-3.36,11.29-.61.25,2.75-8.94,1.29-11.27.87Z"/>
    <path class="cls-19" d="M70.18,29.35c.14-.02.17-.22.03-.26-2.21-.78-10.94-3.7-11.27-.96-.33,2.75,8.9,1.56,11.24,1.22Z"/>
    <path class="cls-19" d="M69.88,30.64c.07-.03.05-.14-.03-.14-1.27-.05-6.27-.15-6,1.32s4.87-.63,6.03-1.18Z"/>
    <g>
      <circle class="cls-1" cx="74.77" cy="29.81" r="4.56"/>
      <path class="cls-16" d="M78.7,32.1c-.65,1.12-1.77,1.95-3.14,2.19-2.48.44-4.84-1.21-5.29-3.69-.32-1.81.47-3.57,1.9-4.55-.53.9-.75,1.99-.55,3.09.44,2.48,2.81,4.13,5.29,3.69.66-.12,1.27-.37,1.79-.73Z"/>
      <g>
        <circle class="cls-9" cx="75.78" cy="28.51" r="2.5"/>
        <circle class="cls-4" cx="75.93" cy="28.4" r="2.01"/>
        <circle class="cls-8" cx="75.93" cy="28.4" r="1.46"/>
        <circle class="cls-17" cx="75.59" cy="29.28" r=".28"/>
        <circle class="cls-17" cx="76.3" cy="29.24" r=".19"/>
        <polygon class="cls-7" points="77.54 27.84 76.74 27.91 76.27 28.56 76.2 27.76 75.55 27.28 76.35 27.22 76.83 26.57 76.89 27.37 77.54 27.84"/>
        <polygon class="cls-7" points="77.52 29.01 77.17 28.89 76.86 29.08 76.98 28.73 76.79 28.41 77.14 28.53 77.46 28.35 77.34 28.7 77.52 29.01"/>
      </g>
    </g>
  </g>
  <rect class="cls-9" x="26.16" y="50.06" width="14.74" height="4.43" rx="2.22" ry="2.22" transform="translate(-8.09 6.18) rotate(-9.41)"/>
  <rect class="cls-9" x="112.25" y="49.02" width="14.74" height="4.43" rx="2.22" ry="2.22" transform="translate(-6.77 20.24) rotate(-9.41)"/>
  <rect class="cls-15" x="40.67" y="27.39" width="10.44" height="3.93" rx="1.96" ry="1.96" transform="translate(52.63 -24.7) rotate(64.5)"/>
  <rect class="cls-9" x="100.15" y="27.26" width="10.44" height="3.93" rx="1.96" ry="1.96" transform="translate(22.2 -41.76) rotate(24.98)"/>
  <rect class="cls-14" x="97.22" y="46.7" width="6.89" height="2.57" rx="1.28" ry="1.28" transform="translate(116.29 -62.43) rotate(72.57)"/>
  <rect class="cls-15" x="117.36" y="37.78" width="4.87" height="2.57" rx="1.28" ry="1.28" transform="translate(224.97 -30.32) rotate(128.52)"/>
  <rect class="cls-15" x="46.43" y="46.57" width="4.87" height="2.57" rx="1.28" ry="1.28" transform="translate(101.51 4.19) rotate(95.92)"/>
  <rect class="cls-14" x="26.85" y="35.75" width="6.89" height="2.57" rx="1.28" ry="1.28" transform="translate(75.04 53.95) rotate(150)"/>
</svg>