<?xml version="1.0" encoding="UTF-8"?>
<svg id="_레이어_1" data-name="레이어_1" xmlns="http://www.w3.org/2000/svg" viewBox="0 0 148 148">
  <defs>
    <style>
      .cls-1 {
        fill: #ff769d;
      }

      .cls-2 {
        fill: #572212;
      }

      .cls-3 {
        fill: #ffa6ca;
      }

      .cls-4 {
        fill: #a87569;
      }

      .cls-5 {
        fill: #ffd7e6;
      }

      .cls-6 {
        fill: #fff;
      }

      .cls-7 {
        fill: #ffb8d8;
      }

      .cls-8 {
        fill: #ff8ab1;
      }

      .cls-9 {
        fill: #49190f;
      }

      .cls-10 {
        fill: #ffbdd1;
      }

      .cls-11 {
        fill: #c9a69f;
      }

      .cls-12 {
        fill: #945745;
      }

      .cls-13 {
        fill: #ff6196;
      }

      .cls-14 {
        fill: #ffd7eb;
      }

      .cls-15 {
        fill: #f4f4f4;
      }

      .cls-16 {
        fill: #ffa6bf;
      }

      .cls-17 {
        fill: #ff8da8;
      }

      .cls-18 {
        fill: #ffcad7;
      }
    </style>
  </defs>
  <path class="cls-6" d="M125.81,95.99c2.33-6.12,3.61-12.75,3.61-19.69,0-30.61-24.81-55.42-55.42-55.42s-55.42,24.81-55.42,55.42c0,6.94,1.29,13.57,3.61,19.69-7.2,3.36-12.19,10.64-12.19,19.1,0,11.65,9.44,21.09,21.09,21.09,5.53,0,10.54-2.14,14.3-5.62,3.76,3.48,8.78,5.62,14.3,5.62,4.91,0,9.41-1.69,13-4.5.44.01.87.03,1.3.03s.87-.02,1.3-.03c3.58,2.81,8.09,4.5,13,4.5,5.53,0,10.54-2.14,14.3-5.62,3.76,3.48,8.77,5.62,14.3,5.62,11.65,0,21.1-9.44,21.1-21.09,0-8.47-5-15.75-12.19-19.1Z"/>
  <path class="cls-15" d="M71.98,123.95c-14.78,9.22-27.13-2.78-27.13-2.78,0,0-9.04,6.78-16.87-3.65-7.83-10.43,4.52-21.39,4.52-21.39-11.1-10.17-7.59-34.82-2.85-53.06-6.95,9.26-11.07,20.77-11.07,33.24,0,6.94,1.29,13.57,3.61,19.69-7.2,3.36-12.19,10.64-12.19,19.1,0,11.65,9.44,21.09,21.09,21.09,5.53,0,10.54-2.14,14.3-5.62,3.76,3.48,8.78,5.62,14.3,5.62,4.91,0,9.41-1.69,13-4.5.44.01.87.03,1.3.03s.87-.02,1.3-.03c3.58,2.81,8.09,4.5,13,4.5,5.53,0,10.54-2.14,14.3-5.62-14.77,6.62-30.62-6.62-30.62-6.62Z"/>
  <path class="cls-18" d="M30.35,68.87c2.59-1.07,4.11-3.77,4.94-6.45.82-2.67,1.16-5.51,2.34-8.05,1.18-2.54,3.54-4.82,6.34-4.76,3.09.06,5.49,2.98,6.17,6,.68,3.02.11,6.15-.15,9.24-.22,2.6-.22,5.23.01,7.83.36,4.04,1.76,8.65,5.56,10.07,3.52,1.31,7.62-1.03,9.29-4.39,1.67-3.36,1.37-7.38.39-11.01-1-3.68-2.67-7.29-2.5-11.1.17-3.81,3.14-7.9,6.92-7.47,3.58.41,5.58,4.47,5.79,8.06s-.69,7.26.09,10.77c.78,3.52,4.33,6.89,7.69,5.59,3.17-1.22,3.75-5.42,3.58-8.81-.18-3.39-.36-7.4,2.31-9.5,2.57-2.02,6.58-.94,8.79,1.47,2.21,2.41,3.07,5.73,3.81,8.91,1.24,5.32,2.39,10.79,1.76,16.22-.21,1.83-.62,3.68-.26,5.48s1.75,3.58,3.59,3.61c1.89.04,3.32-1.7,4.17-3.39,4.29-8.55,1.38-18.85,2.78-28.31.19-1.29.49-2.63,1.34-3.63.85-.99,2.4-1.5,3.5-.8.88.56,1.22,1.66,1.48,2.67.51,1.98,1.41,4.39,3.44,4.59,1.46.14,2.54-.95,3.22-2.33-7.15-22.34-28.07-38.51-52.78-38.51S26.4,38.6,20.28,62.55c.3,1.23.8,2.41,1.54,3.45,1.89,2.63,5.53,4.1,8.53,2.87Z"/>
  <g>
    <circle class="cls-1" cx="68.67" cy="21.84" r="10.03"/>
    <path class="cls-13" d="M76.29,28.33c-1.84,2.17-4.58,3.54-7.64,3.54-5.54,0-10.03-4.49-10.03-10.03,0-4.06,2.41-7.55,5.87-9.13-1.49,1.75-2.39,4.02-2.39,6.49,0,5.54,4.49,10.03,10.03,10.03,1.48,0,2.89-.32,4.16-.9Z"/>
    <g>
      <circle class="cls-8" cx="71.37" cy="19.42" r="5.51"/>
      <circle class="cls-3" cx="71.72" cy="19.24" r="4.43"/>
      <circle class="cls-7" cx="71.72" cy="19.24" r="3.2"/>
      <circle class="cls-14" cx="70.66" cy="21.01" r=".62"/>
      <circle class="cls-14" cx="72.2" cy="21.2" r=".42"/>
      <polygon class="cls-6" points="75.44 18.65 73.67 18.48 72.4 19.71 72.57 17.94 71.34 16.67 73.1 16.84 74.38 15.61 74.21 17.37 75.44 18.65"/>
      <polygon class="cls-6" points="74.93 21.18 74.23 20.78 73.47 21.06 73.86 20.36 73.58 19.6 74.29 19.99 75.05 19.71 74.65 20.42 74.93 21.18"/>
    </g>
  </g>
  <g>
    <circle class="cls-1" cx="84.32" cy="31.49" r="10.03"/>
    <path class="cls-13" d="M91.94,37.98c-1.84,2.17-4.58,3.54-7.64,3.54-5.54,0-10.03-4.49-10.03-10.03,0-4.06,2.41-7.55,5.87-9.13-1.49,1.75-2.39,4.02-2.39,6.49,0,5.54,4.49,10.03,10.03,10.03,1.48,0,2.89-.32,4.16-.9Z"/>
    <g>
      <circle class="cls-8" cx="87.02" cy="29.07" r="5.51"/>
      <circle class="cls-3" cx="87.37" cy="28.9" r="4.43"/>
      <circle class="cls-7" cx="87.37" cy="28.9" r="3.2"/>
      <circle class="cls-14" cx="86.31" cy="30.66" r=".62"/>
      <circle class="cls-14" cx="87.86" cy="30.85" r=".42"/>
      <polygon class="cls-6" points="91.09 28.3 89.33 28.13 88.05 29.36 88.22 27.6 86.99 26.32 88.75 26.49 90.03 25.26 89.86 27.02 91.09 28.3"/>
      <polygon class="cls-6" points="90.58 30.83 89.88 30.44 89.12 30.71 89.51 30.01 89.24 29.25 89.94 29.65 90.7 29.37 90.31 30.07 90.58 30.83"/>
    </g>
  </g>
  <g>
    <g>
      <path class="cls-2" d="M47.57,39.92c-.03.48-.33.87-.73,1.05-.17.08-.36.12-.56.11h-.03c-.69-.05-1.21-.64-1.16-1.33.02-.34.18-.64.41-.85.22-.2.51-.32.82-.32.03,0,.06,0,.09,0,.69.05,1.21.64,1.16,1.33Z"/>
      <path class="cls-9" d="M46.84,40.98c-.17.08-.36.12-.56.11h-.03c-.69-.05-1.21-.64-1.16-1.33.02-.34.18-.64.41-.85-.05.5,0,1.63,1.35,2.07Z"/>
    </g>
    <g>
      <circle class="cls-12" cx="46.67" cy="39.45" r=".54"/>
      <circle class="cls-4" cx="46.74" cy="39.36" r=".36"/>
      <polygon class="cls-6" points="46.81 38.92 46.92 39.03 47.07 39.03 46.96 39.13 46.97 39.28 46.86 39.17 46.71 39.18 46.82 39.08 46.81 38.92"/>
      <polygon class="cls-6" points="46.86 39.33 46.9 39.42 46.99 39.44 46.9 39.48 46.88 39.58 46.84 39.49 46.74 39.46 46.83 39.42 46.86 39.33"/>
      <circle class="cls-11" cx="46.51" cy="39.4" r=".07"/>
      <circle class="cls-11" cx="46.59" cy="39.54" r=".04"/>
    </g>
  </g>
  <g>
    <g>
      <path class="cls-2" d="M91.4,49.14c-.03.48-.33.87-.73,1.05-.17.08-.36.12-.56.11h-.03c-.69-.05-1.21-.64-1.16-1.33.02-.34.18-.64.41-.85.22-.2.51-.32.82-.32.03,0,.06,0,.09,0,.69.05,1.21.64,1.16,1.33Z"/>
      <path class="cls-9" d="M90.67,50.19c-.17.08-.36.12-.56.11h-.03c-.69-.05-1.21-.64-1.16-1.33.02-.34.18-.64.41-.85-.05.5,0,1.63,1.35,2.07Z"/>
    </g>
    <g>
      <circle class="cls-12" cx="90.5" cy="48.67" r=".54"/>
      <circle class="cls-4" cx="90.57" cy="48.58" r=".36"/>
      <polygon class="cls-6" points="90.64 48.14 90.74 48.25 90.9 48.24 90.78 48.35 90.79 48.5 90.69 48.39 90.53 48.4 90.64 48.29 90.64 48.14"/>
      <polygon class="cls-6" points="90.68 48.55 90.72 48.63 90.81 48.66 90.73 48.7 90.7 48.79 90.66 48.71 90.57 48.68 90.66 48.64 90.68 48.55"/>
      <circle class="cls-11" cx="90.34" cy="48.62" r=".07"/>
      <circle class="cls-11" cx="90.42" cy="48.75" r=".04"/>
    </g>
  </g>
  <g>
    <circle class="cls-17" cx="53.31" cy="37.23" r="2.03"/>
    <circle class="cls-16" cx="53.58" cy="36.82" r="1.26"/>
    <circle class="cls-10" cx="53.65" cy="36.7" r=".88"/>
    <circle class="cls-5" cx="53.82" cy="36.57" r=".53"/>
    <polygon class="cls-6" points="53.52 35.63 53.83 35.76 54.12 35.61 54 35.92 54.15 36.21 53.84 36.09 53.54 36.24 53.67 35.93 53.52 35.63"/>
    <polygon class="cls-6" points="53.97 36.29 54.11 36.41 54.28 36.37 54.17 36.51 54.2 36.69 54.06 36.58 53.88 36.61 54 36.47 53.97 36.29"/>
    <circle class="cls-6" cx="53.72" cy="36.92" r=".06"/>
    <circle class="cls-6" cx="53.91" cy="36.93" r=".04"/>
  </g>
  <g>
    <circle class="cls-17" cx="97.19" cy="30.81" r="1.34"/>
    <circle class="cls-16" cx="97.37" cy="30.54" r=".83"/>
    <circle class="cls-10" cx="97.41" cy="30.46" r=".59"/>
    <circle class="cls-5" cx="97.53" cy="30.37" r=".35"/>
    <polygon class="cls-6" points="97.32 29.75 97.53 29.84 97.72 29.74 97.64 29.94 97.74 30.14 97.54 30.06 97.34 30.16 97.42 29.95 97.32 29.75"/>
    <polygon class="cls-6" points="97.62 30.19 97.71 30.27 97.83 30.25 97.75 30.34 97.78 30.46 97.68 30.38 97.57 30.4 97.64 30.31 97.62 30.19"/>
    <circle class="cls-6" cx="97.46" cy="30.6" r=".04"/>
    <circle class="cls-6" cx="97.58" cy="30.62" r=".03"/>
  </g>
  <g>
    <circle class="cls-17" cx="76.23" cy="42.79" r="1.43"/>
    <circle class="cls-16" cx="76.42" cy="42.5" r=".89"/>
    <circle class="cls-10" cx="76.47" cy="42.42" r=".62"/>
    <circle class="cls-5" cx="76.59" cy="42.32" r=".38"/>
    <polygon class="cls-6" points="76.38 41.66 76.59 41.75 76.8 41.65 76.71 41.86 76.82 42.07 76.6 41.98 76.39 42.09 76.48 41.87 76.38 41.66"/>
    <polygon class="cls-6" points="76.69 42.13 76.79 42.21 76.92 42.19 76.84 42.29 76.86 42.41 76.76 42.33 76.63 42.35 76.71 42.25 76.69 42.13"/>
    <circle class="cls-6" cx="76.52" cy="42.57" r=".05"/>
    <circle class="cls-6" cx="76.65" cy="42.58" r=".03"/>
  </g>
  <rect class="cls-2" x="57.45" y="29.64" width="2.61" height="6.47" rx="1.3" ry="1.3" transform="translate(119.82 4.53) rotate(125.88)"/>
  <rect class="cls-2" x="68.49" y="33.69" width="2.61" height="6.47" rx="1.3" ry="1.3" transform="translate(78.02 -41.61) rotate(68.1)"/>
  <rect class="cls-12" x="60.46" y="37.5" width="2.61" height="3.54" rx="1.3" ry="1.3" transform="translate(75.16 -32.68) rotate(68.1)"/>
  <rect class="cls-12" x="50.55" y="28.55" width="2.61" height="3.54" rx="1.3" ry="1.3" transform="translate(102.22 63.03) rotate(-177.31)"/>
  <rect class="cls-2" x="99.02" y="40.53" width="2.61" height="3.54" rx="1.3" ry="1.3" transform="translate(195.86 94.52) rotate(-174.19)"/>
  <rect class="cls-12" x="83.89" y="42.81" width="2.61" height="3.54" rx="1.3" ry="1.3" transform="translate(166.4 -6.92) rotate(120)"/>
  <rect class="cls-12" x="98.41" y="32.25" width="2.61" height="6.47" rx="1.3" ry="1.3" transform="translate(119.2 -68.54) rotate(81.02)"/>
  <rect class="cls-2" x="91.84" y="39.34" width="2.61" height="6.47" rx="1.3" ry="1.3" transform="translate(57.38 -53.39) rotate(45)"/>
</svg>