<?xml version="1.0" encoding="UTF-8"?>
<svg width="96" height="96" id="_레이어_1" data-name="레이어_1" xmlns="http://www.w3.org/2000/svg" xmlns:xlink="http://www.w3.org/1999/xlink" viewBox="0 0 148 148">
  <defs>
    <style>
      .strawverry-cookie-1 {
        fill: #ffccdb;
      }

      .strawverry-cookie-2 {
        stroke: #ffcad7;
        stroke-miterlimit: 10;
        stroke-width: 3px;
      }

      .strawverry-cookie-2, .strawverry-cookie-3 {
        fill: none;
      }

      .strawverry-cookie-4 {
        fill: #fff5f7;
      }

      .strawverry-cookie-5 {
        fill: #fff;
      }

      .strawverry-cookie-6 {
        fill: #ffebf1;
      }

      .strawverry-cookie-7 {
        fill: #88a8f8;
      }

      .strawverry-cookie-8 {
        fill: #f7cdd7;
      }

      .strawverry-cookie-9 {
        fill: #400f0a;
      }

      .strawverry-cookie-10 {
        fill: #ff8da8;
      }

      .strawverry-cookie-11 {
        fill: #74342a;
      }

      .strawverry-cookie-12 {
        clip-path: url(#strawverry-cookie-clippath);
      }
    </style>
    <clipPath id="strawverry-cookie-clippath">
      <rect class="strawverry-cookie-3" x="-165.3" y="10" width="128" height="128" rx="13.03" ry="13.03"/>
    </clipPath>
  </defs>
  <g>
    <path class="strawverry-cookie-7" d="M26.3,64.82h0c.62-.8,1.76-.93,2.54-.29l4.24,3.47c.78.64.91,1.81.29,2.61h0c-.62.8-1.76.93-2.54.29l-4.24-3.47c-.78-.64-.91-1.81-.29-2.61Z"/>
    <path class="strawverry-cookie-4" d="M138,69.09c-.05-17.31-13.82-31.39-30.73-31.45-.91,0-1.76.19-2.64.26-2.01-15.38-14.76-27.34-30.31-27.39-15.59-.05-28.28,11.87-30.16,27.29-1.2-.15-2.39-.38-3.63-.39-16.92-.05-30.59,13.94-30.53,31.25.04,12.43,7.19,23.09,17.46,28.2-1.06,3.18-1.75,6.53-1.74,10.08.05,17.31,13.81,31.39,30.73,31.45,6.76.02,12.95-2.27,18-6.05,5.08,3.81,11.28,6.14,18.04,6.17,16.92.05,30.59-13.94,30.53-31.25-.01-3.64-.75-7.08-1.87-10.33,9.99-5.12,16.89-15.6,16.85-27.85Z"/>
    <path class="strawverry-cookie-1" d="M130.12,69.76c-.05-15.18-12.11-27.53-26.94-27.57-.8,0-1.54.17-2.32.23-1.76-13.49-12.94-23.97-26.58-24.01-13.67-.04-24.8,10.41-26.44,23.93-1.05-.13-2.09-.33-3.18-.34-14.83-.05-26.82,12.22-26.77,27.4.03,10.9,6.31,20.25,15.31,24.72-.93,2.79-1.53,5.73-1.52,8.84.05,15.18,12.11,27.53,26.94,27.57,5.93.02,11.35-1.99,15.78-5.3,4.45,3.34,9.89,5.39,15.82,5.41,14.83.05,26.82-12.22,26.77-27.4,0-3.19-.66-6.21-1.64-9.06,8.76-4.49,14.81-13.68,14.78-24.42Z"/>
    <path class="strawverry-cookie-10" d="M78.58,94.42c-10.28,2.66-20.66-3.79-23.19-14.4-2.53-10.61,3.75-21.37,14.02-24.03,10.28-2.66,20.66,3.79,23.19,14.4,2.53,10.61-3.75,21.37-14.02,24.03Z"/>
    <path class="strawverry-cookie-8" d="M80.62,81.27c-5.48,1.42-11.01-2.02-12.36-7.68-1.35-5.66,2-11.39,7.47-12.81,5.48-1.42,11.01,2.02,12.36,7.68,1.35,5.66-2,11.39-7.47,12.81Z"/>
    <path class="strawverry-cookie-6" d="M82.33,75.23c-3.6.93-7.25-1.33-8.14-5.05-.89-3.72,1.31-7.5,4.92-8.43,3.6-.93,7.25,1.33,8.14,5.05.89,3.72-1.31,7.5-4.92,8.43Z"/>
    <path class="strawverry-cookie-9" d="M73.59,38.03h0c-.66-.76-.6-1.94.15-2.62l4.04-3.7c.74-.68,1.89-.61,2.55.15h0c.66.76.6,1.94-.15,2.62l-4.04,3.7c-.74.68-1.89.61-2.55-.15Z"/>
    <path class="strawverry-cookie-10" d="M41.67,62.1h0c-.74-.71-.79-1.87-.1-2.59l3.72-3.94c.68-.73,1.84-.74,2.58-.04h0c.74.71.79,1.87.1,2.59l-3.72,3.94c-.68.73-1.84.74-2.58.04Z"/>
    <path class="strawverry-cookie-9" d="M25.33,68.81h0c.31-.98,1.39-1.51,2.41-1.19l5.54,1.75c1.02.32,1.59,1.37,1.28,2.35h0c-.31.98-1.39,1.51-2.41,1.19l-5.54-1.75c-1.02-.32-1.59-1.37-1.28-2.35Z"/>
    <path class="strawverry-cookie-10" d="M75.07,100.21h0c.28-.99,1.29-1.56,2.25-1.29l5.21,1.47c.96.27,1.51,1.29,1.23,2.27h0c-.28.99-1.29,1.56-2.25,1.29l-5.21-1.47c-.96-.27-1.51-1.29-1.23-2.27Z"/>
    <path class="strawverry-cookie-7" d="M64.6,44.5h0c.91.48,1.27,1.58.81,2.46l-2.51,4.8c-.46.88-1.57,1.21-2.48.74h0c-.91-.48-1.27-1.58-.81-2.46l2.51-4.8c.46-.88,1.57-1.21,2.48-.74Z"/>
    <path class="strawverry-cookie-9" d="M60.88,114.28h0c.57-.84,1.7-1.05,2.51-.46l4.44,3.18c.82.59,1.02,1.74.45,2.58h0c-.57.84-1.7,1.05-2.51.46l-4.44-3.18c-.82-.59-1.02-1.74-.45-2.58Z"/>
    <path class="strawverry-cookie-11" d="M39.46,89.05h0c-.32-1.11.32-2.25,1.43-2.54l6.04-1.57c1.11-.29,2.27.38,2.59,1.49h0c.32,1.11-.32,2.25-1.43,2.54l-6.04,1.57c-1.11.29-2.27-.38-2.59-1.49Z"/>
    <path class="strawverry-cookie-10" d="M42.59,108.03h0c.93-.36,1.98.12,2.33,1.07l1.93,5.2c.35.96-.11,2.03-1.05,2.39h0c-.93.36-1.98-.12-2.33-1.07l-1.93-5.2c-.35-.96.11-2.03,1.05-2.39Z"/>
    <path class="strawverry-cookie-9" d="M102.72,95.31h0c.84.55,1.09,1.7.55,2.56l-2.92,4.69c-.54.86-1.65,1.12-2.49.56h0c-.84-.55-1.09-1.7-.55-2.56l2.92-4.69c.54-.86,1.65-1.12,2.49-.56Z"/>
    <path class="strawverry-cookie-10" d="M107.6,72.73h0c-.86.53-2.01.27-2.56-.58l-2.98-4.6c-.55-.85-.29-1.96.57-2.49h0c.86-.53,2.01-.27,2.56.58l2.98,4.6c.55.85.29,1.96-.57,2.49Z"/>
    <path class="strawverry-cookie-7" d="M54.46,104.97h0c-.92-.38-1.37-1.47-1-2.42l.75-1.92c.37-.95,1.43-1.41,2.35-1.02h0c.92.38,1.37,1.47,1,2.42l-.75,1.92c-.37.95-1.43,1.41-2.35,1.02Z"/>
    <path class="strawverry-cookie-10" d="M62.81,30.28h0c-.05-1,.73-1.87,1.75-1.94l2.05-.14c1.02-.07,1.88.68,1.94,1.68h0c.05,1-.73,1.87-1.75,1.94l-2.05.14c-1.02.07-1.88-.68-1.94-1.68Z"/>
    <path class="strawverry-cookie-10" d="M100.55,115.91h0c-.62-.8-.49-1.97.29-2.61l1.58-1.28c.78-.64,1.92-.5,2.54.3h0c.62.8.49,1.97-.29,2.61l-1.58,1.28c-.78.64-1.92.5-2.54-.3Z"/>
    <path class="strawverry-cookie-7" d="M85.3,123.14h0c-.92-.38-1.37-1.47-1-2.42l.75-1.92c.37-.95,1.43-1.41,2.35-1.02h0c.92.38,1.37,1.47,1,2.42l-.75,1.92c-.37.95-1.43,1.41-2.35,1.02Z"/>
    <path class="strawverry-cookie-10" d="M83.2,47.31h0c.62-.8,1.76-.93,2.54-.29l4.24,3.47c.78.64.91,1.81.29,2.61h0c-.62.8-1.76.93-2.54.29l-4.24-3.47c-.78-.64-.91-1.81-.29-2.61Z"/>
    <path class="strawverry-cookie-11" d="M105.51,83.34h0c.41-.93,1.48-1.35,2.39-.92l4.93,2.3c.91.42,1.31,1.52.9,2.45h0c-.41.93-1.48,1.35-2.39.92l-4.93-2.3c-.91-.42-1.31-1.52-.9-2.45Z"/>
    <path class="strawverry-cookie-9" d="M110.35,53.12h0c.51.88.33,1.93-.4,2.34l-4,2.22c-.74.41-1.75.03-2.26-.85h0c-.51-.88-.33-1.93.4-2.34l4-2.22c.74-.41,1.75-.03,2.26.85Z"/>
    <polygon class="strawverry-cookie-5" points="83.98 59.44 86.46 62.74 90.58 63.01 87.28 65.49 87.01 69.61 84.53 66.31 80.41 66.04 83.72 63.56 83.98 59.44"/>
    <circle class="strawverry-cookie-8" cx="87.11" cy="83.7" r="2.09"/>
    <path class="strawverry-cookie-8" d="M61.29,86.46c6.65,5.08,15.23,6.14,21.57.03,1.48-1.44,3.52.92,1.85,2.16-.85.53-1.9,1.4-2.79,1.81-2.41,1.33-5.23,2.08-7.99,2.02-4.86-.14-9.44-2.42-12.95-5.67-.21-.2.09-.55.32-.34h0Z"/>
  </g>
  <g class="strawverry-cookie-12">
    <polyline class="strawverry-cookie-2" points="-178.1 48.36 -117.06 -6.43 -181.23 91.66 -54.97 -8.51 -172.88 125.57 -28.36 4.01 -144.71 159.49 -6.97 41.05 -94.1 158.44 -17.93 100.53"/>
  </g>
</svg>