<?xml version="1.0" encoding="UTF-8"?>
<svg id="_레이어_1" data-name="레이어_1" xmlns="http://www.w3.org/2000/svg" viewBox="0 0 148 148">
  <defs>
    <style>
      .cls-1 {
        fill: #fff;
      }

      .cls-2 {
        fill: #ff80a4;
      }

      .cls-3 {
        fill: #fee58b;
      }

      .cls-4 {
        fill: #88a8f8;
      }

      .cls-5 {
        fill: #ffb3c9;
      }

      .cls-6 {
        fill: #ffaec5;
      }

      .cls-7 {
        fill: #ff8da8;
      }

      .cls-8 {
        fill: #74342a;
      }

      .cls-9 {
        fill: #ffcad7;
      }
    </style>
  </defs>
  <path class="cls-3" d="M79.63,120.06c-2.33-1.11-4.4-2.52-6.01-4.2l6.01,4.2Z"/>
  <g>
    <path class="cls-9" d="M137.88,95.4c-1.01,5.06-9.43,7.53-9.43,7.53,0,0,2.13,8.87-.9,11.57-.16.15-.34.28-.54.4-2.46,1.53-7.56,1.35-11.77.15-.02,0-.03,0-.04-.02-1.51-.44-2.9-.99-4.01-1.67-.23-.14-.53-.02-.57.24-.41,2.21-2.46,10.34-11.38,12.37-6.78,1.55-14.62.63-20.64-2.25-2.33-1.11-4.4-2.52-6.01-4.2-.58-.59-1.09-1.21-1.55-1.87,0,0-.32.06-.92.15-6.01.9-39.88,5-55.16-13.58-5.19-6.31-6.61-15.09-2.76-22.3,1.14-2.14,2.73-4.07,4.94-5.25,0,0,.54-13.75,25.17-19.51,0,0-3.7-34.16,35.52-35.73,0,0,12.02-1.8,16.8,8.93,0,0-16.19,1.69-10,8.76,6.18,7.08,41.68,9.44,43.36,28.76,0,0,1.02,5.96-2.47,11.8,0,0-1.79,2.02,2.93,3.82,4.71,1.8,10.45,6.86,9.43,11.91Z"/>
    <path class="cls-6" d="M87.43,26.08c-8.57.1-18.46,2.37-23.19,10.13-2.84,4.83-3.16,11.04-1.39,16.27,2.62,8.54,9.2,13.78,17.55,17.52,0,0-.1.42-.1.42-9.8-.33-19.49-6.86-21.56-16.81-2.96-14.59,4.47-26.04,19.48-27.83,3.07-.42,6.19-.46,9.21-.12v.43h0Z"/>
  </g>
  <path class="cls-6" d="M74.42,54.02c-.38-.26,6.29,9.66,17.3,12.58,11.01,2.92,30.9,12.36,31.91,14.49,0,0,.9-8.31-15.62-15.73s-14.49,1.57-33.6-11.35Z"/>
  <path class="cls-6" d="M42.21,57.35v6.54s-18.76,13.58-.51,28.3c0,0-37.47-19.76.51-34.83Z"/>
  <path class="cls-6" d="M127,114.89c-2.46,1.53-7.56,1.35-11.77.15-.02,0-.03,0-.04-.02-8.11-2.31-13.79-6.27-18.68-6.56-11.22-.67-26.6-.11-35.26-8.3.42.25,6.08,3.31,23.01-.47,17.64-3.94,35.73-.45,42.03,13.37.31.69.55,1.29.71,1.83Z"/>
  <path class="cls-6" d="M78.59,123.71c-2.33-1.11-4.4-2.52-6.01-4.2-.58-.59-1.09-1.21-1.55-1.87,0,0-.32.06-.92.15-2.77-2.64-8.93-6.9-21.53-9.63-19.33-4.2-23.22-14.53-23.22-14.53,0,0,12.28,12.28,25.17,12.58,12.89.3,22.62,7.35,24.87,10.19,1.53,1.95,2.64,5.35,3.2,7.31Z"/>
  <path class="cls-6" d="M137.16,92.17s-37.97-27.08-77.41-15.96c0,0,2.38,5.85,18.1,7.99,15.72,2.14,45.99.29,59.3,7.96Z"/>
  <rect class="cls-8" x="67.23" y="41.6" width="11.83" height="4.52" rx="2.26" ry="2.26" transform="translate(45 -36.65) rotate(39.78)"/>
  <rect class="cls-7" x="92.96" y="52.03" width="11.83" height="4.52" rx="2.26" ry="2.26" transform="translate(208.98 78.84) rotate(163.8)"/>
  <rect class="cls-7" x="111.49" y="89.86" width="11.83" height="4.52" rx="2.26" ry="2.26" transform="translate(255.84 147.82) rotate(163.8)"/>
  <rect class="cls-4" x="47.57" y="64.38" width="11.83" height="4.52" rx="2.26" ry="2.26" transform="translate(-19.15 21.63) rotate(-19.46)"/>
  <rect class="cls-7" x="46.2" y="50.4" width="9.54" height="4.52" rx="2.26" ry="2.26" transform="translate(-22.16 57.37) rotate(-49.62)"/>
  <rect class="cls-4" x="82.36" y="48.25" width="7.91" height="4.52" rx="2.26" ry="2.26" transform="translate(86.9 -49.49) rotate(60)"/>
  <rect class="cls-4" x="50.62" y="34.42" width="7.91" height="4.52" rx="2.26" ry="2.26" transform="translate(74.34 -26.03) rotate(73.59)"/>
  <rect class="cls-4" x="94.05" y="89.73" width="7.91" height="4.52" rx="2.26" ry="2.26" transform="translate(158.56 -28.02) rotate(73.59)"/>
  <rect class="cls-8" x="43.36" y="78.42" width="7.91" height="4.52" rx="2.26" ry="2.26" transform="translate(58.83 -12.14) rotate(37.46)"/>
  <rect class="cls-8" x="121.05" y="99.16" width="5.91" height="4.52" rx="2.26" ry="2.26" transform="translate(13.88 -14.93) rotate(7.3)"/>
  <circle class="cls-1" cx="74.18" cy="33.77" r="2.09"/>
  <circle class="cls-1" cx="55.79" cy="58.73" r="1.2"/>
  <circle class="cls-1" cx="79.53" cy="52.53" r="1.26"/>
  <circle class="cls-1" cx="49.88" cy="44.03" r="1.54"/>
  <circle class="cls-1" cx="42.75" cy="70.81" r="2.26"/>
  <circle class="cls-1" cx="109.46" cy="56.1" r="1.87"/>
  <circle class="cls-1" cx="106.6" cy="89.12" r="1.87"/>
  <circle class="cls-1" cx="128.17" cy="94.51" r="1.26"/>
  <circle class="cls-1" cx="88.99" cy="95.51" r="1.11"/>
  <g>
    <path class="cls-7" d="M80.43,71.64s0,0,0,0c-.04-.11-4.9-13.37-14.92-6.79-10.06,6.61-4.34,22.84,4.04,32.1l.37-.86,10.51-24.45Z"/>
    <path class="cls-7" d="M69.92,96.09l-.37.86c12.48-.29,28.2-7.3,26.07-19.15-2.11-11.81-15.1-6.2-15.19-6.16,0,0,0,0,0,0l-10.52,24.45Z"/>
    <polygon class="cls-7" points="69.92 96.09 80.43 71.64 80.43 71.64 80.43 71.64 69.92 96.09"/>
  </g>
  <path class="cls-2" d="M66.5,80.74c1.37-6.39,5.3-11.58,10.49-14.72-2.47-2.66-6.28-4.59-11.48-1.17-9.55,6.28-4.87,21.22,2.79,30.64-2.16-4.42-2.91-9.56-1.8-14.75Z"/>
  <circle class="cls-5" cx="87.58" cy="78.82" r="5.22"/>
  <circle class="cls-9" cx="88.69" cy="77.71" r="3.52"/>
  <polygon class="cls-1" points="90.45 71.96 92.45 74.42 95.62 74.51 93.15 76.51 93.06 79.68 91.06 77.21 87.89 77.12 90.36 75.13 90.45 71.96"/>
</svg>