<?xml version="1.0" encoding="UTF-8"?>
<svg id="_레이어_1" data-name="레이어_1" xmlns="http://www.w3.org/2000/svg" viewBox="0 0 148 148">
  <defs>
    <style>
      .vanilla-chocoball-1 {
        fill: #572212;
      }

      .vanilla-chocoball-2 {
        fill: #af7f74;
      }

      .vanilla-chocoball-3 {
        fill: #ffaa39;
      }

      .vanilla-chocoball-4 {
        fill: #a87569;
      }

      .vanilla-chocoball-5 {
        fill: #fff;
      }

      .vanilla-chocoball-6 {
        fill: #e5d2cf;
      }

      .vanilla-chocoball-7 {
        fill: #ffedbb;
      }

      .vanilla-chocoball-8 {
        fill: #49190f;
      }

      .vanilla-chocoball-9 {
        fill: #b78d86;
      }

      .vanilla-chocoball-10 {
        fill: #c9a69f;
      }

      .vanilla-chocoball-11 {
        fill: #ffecc7;
      }

      .vanilla-chocoball-12 {
        fill: #fcd786;
      }

      .vanilla-chocoball-13 {
        fill: #fcbb6d;
      }

      .vanilla-chocoball-14 {
        fill: #945745;
      }

      .vanilla-chocoball-15 {
        fill: #fff3cc;
      }

      .vanilla-chocoball-16 {
        fill: #ffc83e;
      }

      .vanilla-chocoball-17 {
        fill: #ededed;
      }

      .vanilla-chocoball-18 {
        fill: #a36b5d;
      }

      .vanilla-chocoball-19 {
        fill: #fcd3a7;
      }
    </style>
  </defs>
  <path class="vanilla-chocoball-5" d="M10.41,78.53c-.04-.55-.07-1.1-.1-1.65-.04-.95-.06-1.91-.06-2.88,0-.4,0-.8,0-1.2.46-25.19,15.47-46.82,36.98-56.84,8.21-3.83,17.36-5.96,27.01-5.96,35.35,0,64,28.65,64,64,0,.97-.02,1.93-.08,2.88-1.5,34.01-29.55,61.12-63.92,61.12-.2,0-.41,0-.61-.01-1.2,0-2.38-.05-3.56-.13-16.68-1.07-31.63-8.53-42.4-19.97-.17-.16-.32-.33-.46-.5l-16.81-38.86Z"/>
  <path class="vanilla-chocoball-17" d="M73.66,138c-35.12,0-61.81-28.5-63.34-61.12-.04-.95-.06-1.91-.06-2.88,0-25.7,16.06-47.86,39.24-58.04-3.89,14.17-20.16,90.96,24.16,122.04Z"/>
  <g>
    <path class="vanilla-chocoball-15" d="M138.25,74c0,.97-.02,1.93-.07,2.88-1.16.17-2.34.25-3.55.25-8.42,0-15.89-4.07-20.55-10.36-4.65,6.29-12.12,10.36-20.54,10.36-7.93,0-15.02-3.61-19.71-9.28-4.68,5.67-11.77,9.28-19.7,9.28-4,0-7.78-.92-11.15-2.56-3.52-1.71-6.59-4.2-8.98-7.26-4.68,5.98-11.95,9.82-20.12,9.82-1.21,0-2.4-.08-3.56-.25-.05-.95-.07-1.91-.07-2.88,0-35.08,28.22-63.55,63.18-63.99.27,0,.55,0,.82,0,35.35,0,64,28.65,64,64Z"/>
    <path class="vanilla-chocoball-7" d="M42.98,74.57c-3.52-1.71-6.59-4.2-8.98-7.26-4.68,5.98-11.95,9.82-20.12,9.82-1.21,0-2.4-.08-3.56-.25-.05-.95-.07-1.91-.07-2.88,0-35.08,28.22-63.55,63.18-63.99-9.89,8.53-34.96,33.53-30.45,64.56Z"/>
  </g>
  <g>
    <g>
      <path class="vanilla-chocoball-1" d="M93.51,17.13v13.05c0,.82-.66,1.47-1.47,1.47h-37.06c-.81,0-1.47-.65-1.47-1.47v-13.05c0-.82.66-1.48,1.47-1.48h37.06c.81,0,1.47.66,1.47,1.48Z"/>
      <g>
        <path class="vanilla-chocoball-14" d="M93.51,17.13v9.4c-1.29.71-2.78,1.11-4.35,1.11-5.03,0-9.11-4.08-9.11-9.11,0-1.01.16-1.98.47-2.88h11.52c.81,0,1.47.66,1.47,1.48Z"/>
        <circle class="vanilla-chocoball-4" cx="88.5" cy="19.98" r="3.8"/>
        <circle class="vanilla-chocoball-10" cx="90.04" cy="18.73" r="2.75"/>
        <polygon class="vanilla-chocoball-5" points="89.37 15.19 91.33 15.97 93.19 14.98 92.42 16.94 93.4 18.81 91.44 18.03 89.58 19.02 90.35 17.06 89.37 15.19"/>
        <polygon class="vanilla-chocoball-5" points="90.24 19.74 91 19.68 91.46 19.06 91.52 19.83 92.14 20.28 91.37 20.34 90.92 20.96 90.86 20.19 90.24 19.74"/>
        <circle class="vanilla-chocoball-6" cx="88.08" cy="19" r=".39"/>
        <circle class="vanilla-chocoball-6" cx="88.5" cy="19.84" r=".26"/>
      </g>
    </g>
    <path class="vanilla-chocoball-5" d="M56.88,20.52c3.46-.05,6.92-.1,10.38-.15l-.13-.47c-3.66,2.05-7.21,4.29-10.53,6.87-.19.15.02.51.24.42,2.31-.91,4.63-1.82,6.94-2.73l1.71-.67c.23-.09.58-.32.82-.32.49,0,.37.47.19.77-.62,1.06-1.23,2.11-1.85,3.17-.15.25.18.49.39.3,1.74-1.54,3.48-3.08,5.21-4.61.2-.17.52-.65.67-.15.05.16-.04.41-.03.58,0,.3.09.63.32.84.59.52,1.7-.15,2.3-.35.2-.07.54-.25.75-.11.1.07.2.34.28.44.23.3.51.55.83.75.67.43,1.46.63,2.24.73,1.81.24,3.72.02,5.42-.65,1.45-.57,3.37-1.6,3.86-3.21s-.83-2.89-2.27-3.16c-.99-.19-2.01.03-2.96.33-.84.27-1.69.6-2.34,1.21-1.24,1.16-1.15,2.85.13,3.93,1.46,1.22,3.78,1.9,5.59,1.13,1.65-.7,2.67-2.34,3.26-3.97.06-.15-.09-.32-.24-.32-3.25.03-6.47.48-9.6,1.35-.28.08-.21.47.07.49,2.22.18,4.45.2,6.68.06.22-.01.32-.26.18-.43-.59-.66-1.23-1.27-1.91-1.84-.16-.13-.43-.06-.43.18l.06,3.56c0,.32.51.32.5,0l-.06-3.56-.43.18c.68.57,1.32,1.18,1.91,1.84l.18-.43c-2.23.13-4.45.11-6.68-.06l.07.49c3.09-.86,6.26-1.3,9.47-1.33l-.24-.32c-.5,1.38-1.33,2.77-2.66,3.49-1.57.85-3.54.34-4.96-.59-.66-.43-1.3-1.07-1.3-1.91,0-1.02.83-1.77,1.67-2.2,1.51-.76,3.9-1.44,5.29-.13,1.64,1.54-.28,3.29-1.65,4.09s-3.07,1.28-4.72,1.35c-1.39.06-3.13-.04-4.22-1.01-.34-.31-.52-.95-.99-1.06-.36-.08-.79.16-1.12.27-.37.12-.92.44-1.31.43-.89-.02-.05-1.54-.75-1.9-.57-.29-1.31.71-1.64,1-1.59,1.4-3.17,2.81-4.76,4.21l.39.3c.4-.68.79-1.36,1.19-2.05.32-.55.78-1.14.98-1.75.12-.34.04-.72-.31-.88-.44-.21-.97.08-1.37.23-2.96,1.16-5.92,2.33-8.88,3.49l.24.42c3.28-2.55,6.8-4.76,10.43-6.79.22-.12.12-.47-.13-.47-3.46.05-6.92.1-10.38.15-.32,0-.32.5,0,.5h0Z"/>
  </g>
  <path class="vanilla-chocoball-3" d="M136.65,94.68s-.08,0-.12,0l-126.9-9.77c-.83-.06-1.44-.78-1.38-1.61.06-.83.78-1.46,1.61-1.38l126.9,9.77c.83.06,1.44.78,1.38,1.61-.06.79-.72,1.38-1.49,1.38Z"/>
  <path class="vanilla-chocoball-16" d="M20.48,113.41c-.69,0-1.31-.47-1.46-1.17-.18-.81.33-1.61,1.13-1.79l116.87-26.26c.81-.18,1.61.33,1.79,1.13.18.81-.33,1.61-1.13,1.79l-116.87,26.26c-.11.02-.22.04-.33.04Z"/>
  <g>
    <g>
      <path class="vanilla-chocoball-1" d="M96.63,96.37c0,2.6-1.46,4.85-3.6,5.99-.9.48-1.94.77-3.03.8h-.16c-3.75,0-6.8-3.04-6.8-6.79,0-1.84.74-3.52,1.93-4.74,1.13-1.16,2.66-1.91,4.37-2.03.16-.01.33-.02.5-.02,3.75,0,6.79,3.04,6.79,6.8Z"/>
      <path class="vanilla-chocoball-8" d="M93.03,102.36c-.9.48-1.94.77-3.03.8h-.16c-3.75,0-6.8-3.04-6.8-6.79,0-1.84.74-3.52,1.93-4.74-.09,2.75.58,8.83,8.05,10.74Z"/>
    </g>
    <g>
      <circle class="vanilla-chocoball-14" cx="91.54" cy="94.12" r="2.96"/>
      <circle class="vanilla-chocoball-4" cx="91.91" cy="93.62" r="1.96"/>
      <polygon class="vanilla-chocoball-5" points="92.12 91.22 92.74 91.79 93.56 91.68 93 92.3 93.11 93.13 92.49 92.57 91.66 92.67 92.22 92.05 92.12 91.22"/>
      <polygon class="vanilla-chocoball-5" points="92.51 93.41 92.77 93.87 93.28 93.98 92.82 94.23 92.71 94.74 92.46 94.28 91.95 94.17 92.41 93.92 92.51 93.41"/>
      <circle class="vanilla-chocoball-10" cx="90.68" cy="93.91" r=".36"/>
      <circle class="vanilla-chocoball-10" cx="91.16" cy="94.63" r=".22"/>
    </g>
  </g>
  <g>
    <g>
      <path class="vanilla-chocoball-1" d="M76.28,100.92c0,2.02-1.13,3.76-2.79,4.65-.7.38-1.5.59-2.35.62h-.12c-2.91,0-5.27-2.36-5.27-5.27,0-1.43.57-2.73,1.5-3.68.87-.9,2.06-1.48,3.39-1.58.12-.01.26-.02.39-.02,2.91,0,5.27,2.36,5.27,5.27Z"/>
      <path class="vanilla-chocoball-8" d="M73.48,105.57c-.7.38-1.5.59-2.35.62h-.12c-2.91,0-5.27-2.36-5.27-5.27,0-1.43.57-2.73,1.5-3.68-.07,2.13.45,6.86,6.25,8.33Z"/>
    </g>
    <g>
      <circle class="vanilla-chocoball-14" cx="72.33" cy="99.18" r="2.3"/>
      <circle class="vanilla-chocoball-4" cx="72.61" cy="98.79" r="1.52"/>
      <polygon class="vanilla-chocoball-5" points="72.78 96.93 73.26 97.37 73.9 97.29 73.46 97.77 73.54 98.41 73.06 97.97 72.42 98.05 72.86 97.57 72.78 96.93"/>
      <polygon class="vanilla-chocoball-5" points="73.08 98.63 73.28 98.98 73.67 99.07 73.32 99.26 73.24 99.66 73.04 99.3 72.64 99.22 73 99.03 73.08 98.63"/>
      <circle class="vanilla-chocoball-10" cx="71.66" cy="99.02" r=".28"/>
      <circle class="vanilla-chocoball-10" cx="72.03" cy="99.57" r=".17"/>
    </g>
  </g>
  <g>
    <circle class="vanilla-chocoball-3" cx="107.45" cy="53.33" r="3.09"/>
    <circle class="vanilla-chocoball-13" cx="107.78" cy="52.81" r="2.15"/>
    <circle class="vanilla-chocoball-19" cx="107.89" cy="52.6" r="1.57"/>
    <circle class="vanilla-chocoball-5" cx="108.16" cy="52.27" r=".91"/>
    <circle class="vanilla-chocoball-5" cx="108.72" cy="53.49" r=".18"/>
    <circle class="vanilla-chocoball-5" cx="108.29" cy="53.69" r=".12"/>
    <polygon class="vanilla-chocoball-5" points="109.5 52.72 109.48 53.02 109.7 53.23 109.4 53.21 109.19 53.43 109.21 53.13 108.99 52.92 109.29 52.94 109.5 52.72"/>
  </g>
  <g>
    <circle class="vanilla-chocoball-3" cx="51.8" cy="65.33" r="3.09"/>
    <circle class="vanilla-chocoball-13" cx="52.13" cy="64.81" r="2.15"/>
    <circle class="vanilla-chocoball-19" cx="52.24" cy="64.6" r="1.57"/>
    <circle class="vanilla-chocoball-5" cx="52.51" cy="64.27" r=".91"/>
    <circle class="vanilla-chocoball-5" cx="53.07" cy="65.49" r=".18"/>
    <circle class="vanilla-chocoball-5" cx="52.64" cy="65.69" r=".12"/>
    <polygon class="vanilla-chocoball-5" points="53.85 64.72 53.83 65.02 54.05 65.23 53.75 65.21 53.54 65.43 53.56 65.13 53.34 64.92 53.64 64.94 53.85 64.72"/>
  </g>
  <g>
    <circle class="vanilla-chocoball-3" cx="20.28" cy="65.03" r="2.25"/>
    <circle class="vanilla-chocoball-13" cx="20.52" cy="64.65" r="1.57"/>
    <circle class="vanilla-chocoball-19" cx="20.6" cy="64.49" r="1.14"/>
    <circle class="vanilla-chocoball-5" cx="20.79" cy="64.25" r=".67"/>
    <circle class="vanilla-chocoball-5" cx="21.2" cy="65.14" r=".13"/>
    <circle class="vanilla-chocoball-5" cx="20.89" cy="65.29" r=".09"/>
    <polygon class="vanilla-chocoball-5" points="21.77 64.58 21.76 64.8 21.92 64.95 21.7 64.94 21.55 65.1 21.56 64.88 21.4 64.73 21.62 64.74 21.77 64.58"/>
  </g>
  <g>
    <circle class="vanilla-chocoball-1" cx="73.66" cy="56.47" r="3.95"/>
    <circle class="vanilla-chocoball-14" cx="74.09" cy="55.8" r="2.75"/>
    <circle class="vanilla-chocoball-2" cx="74.22" cy="55.54" r="2"/>
    <circle class="vanilla-chocoball-5" cx="74.57" cy="55.12" r="1.17"/>
    <circle class="vanilla-chocoball-5" cx="75.29" cy="56.67" r=".23"/>
    <circle class="vanilla-chocoball-5" cx="74.74" cy="56.93" r=".15"/>
    <polygon class="vanilla-chocoball-5" points="76.28 55.69 76.26 56.07 76.54 56.34 76.15 56.32 75.89 56.6 75.91 56.21 75.62 55.95 76.01 55.97 76.28 55.69"/>
  </g>
  <g>
    <circle class="vanilla-chocoball-14" cx="88.76" cy="43.28" r="3.18"/>
    <circle class="vanilla-chocoball-18" cx="89.1" cy="42.75" r="2.21"/>
    <circle class="vanilla-chocoball-9" cx="89.21" cy="42.53" r="1.61"/>
    <circle class="vanilla-chocoball-5" cx="89.49" cy="42.19" r=".94"/>
    <circle class="vanilla-chocoball-5" cx="90.07" cy="43.45" r=".19"/>
    <circle class="vanilla-chocoball-5" cx="89.62" cy="43.65" r=".12"/>
    <polygon class="vanilla-chocoball-5" points="90.86 42.65 90.85 42.96 91.07 43.18 90.76 43.16 90.55 43.39 90.56 43.08 90.34 42.86 90.65 42.88 90.86 42.65"/>
  </g>
  <g>
    <circle class="vanilla-chocoball-14" cx="123.86" cy="45.56" r="2.54"/>
    <circle class="vanilla-chocoball-18" cx="124.13" cy="45.13" r="1.77"/>
    <circle class="vanilla-chocoball-9" cx="124.22" cy="44.96" r="1.29"/>
    <circle class="vanilla-chocoball-5" cx="124.44" cy="44.69" r=".75"/>
    <circle class="vanilla-chocoball-5" cx="124.9" cy="45.69" r=".15"/>
    <circle class="vanilla-chocoball-5" cx="124.55" cy="45.85" r=".1"/>
    <polygon class="vanilla-chocoball-5" points="125.54 45.05 125.53 45.3 125.71 45.47 125.46 45.46 125.29 45.64 125.3 45.39 125.12 45.22 125.37 45.23 125.54 45.05"/>
  </g>
  <g>
    <circle class="vanilla-chocoball-14" cx="44.87" cy="51.51" r="2.54"/>
    <circle class="vanilla-chocoball-18" cx="45.15" cy="51.08" r="1.77"/>
    <circle class="vanilla-chocoball-9" cx="45.23" cy="50.91" r="1.29"/>
    <circle class="vanilla-chocoball-5" cx="45.46" cy="50.64" r=".75"/>
    <circle class="vanilla-chocoball-5" cx="45.92" cy="51.64" r=".15"/>
    <circle class="vanilla-chocoball-5" cx="45.57" cy="51.81" r=".1"/>
    <polygon class="vanilla-chocoball-5" points="46.56 51.01 46.55 51.26 46.73 51.43 46.48 51.41 46.31 51.6 46.32 51.35 46.14 51.18 46.39 51.19 46.56 51.01"/>
  </g>
  <g>
    <circle class="vanilla-chocoball-1" cx="39.26" cy="33.93" r="2.94"/>
    <circle class="vanilla-chocoball-14" cx="39.58" cy="33.44" r="2.04"/>
    <circle class="vanilla-chocoball-2" cx="39.68" cy="33.24" r="1.49"/>
    <circle class="vanilla-chocoball-5" cx="39.94" cy="32.93" r=".87"/>
    <circle class="vanilla-chocoball-5" cx="40.47" cy="34.08" r=".17"/>
    <circle class="vanilla-chocoball-5" cx="40.06" cy="34.27" r=".11"/>
    <polygon class="vanilla-chocoball-5" points="41.21 33.35 41.2 33.64 41.41 33.84 41.12 33.82 40.92 34.03 40.93 33.74 40.72 33.54 41.01 33.56 41.21 33.35"/>
  </g>
  <g>
    <circle class="vanilla-chocoball-16" cx="65.98" cy="44.43" r="2.23"/>
    <circle class="vanilla-chocoball-12" cx="66.22" cy="44.05" r="1.55"/>
    <circle class="vanilla-chocoball-11" cx="66.3" cy="43.9" r="1.13"/>
    <circle class="vanilla-chocoball-5" cx="66.49" cy="43.66" r=".66"/>
    <circle class="vanilla-chocoball-5" cx="66.9" cy="44.54" r=".13"/>
    <circle class="vanilla-chocoball-5" cx="66.59" cy="44.68" r=".09"/>
    <polygon class="vanilla-chocoball-5" points="67.46 43.98 67.45 44.2 67.6 44.35 67.39 44.34 67.24 44.5 67.25 44.28 67.09 44.13 67.31 44.14 67.46 43.98"/>
  </g>
  <g>
    <circle class="vanilla-chocoball-16" cx="27.36" cy="48.03" r="3.22"/>
    <circle class="vanilla-chocoball-12" cx="27.7" cy="47.49" r="2.24"/>
    <circle class="vanilla-chocoball-11" cx="27.81" cy="47.27" r="1.63"/>
    <circle class="vanilla-chocoball-5" cx="28.09" cy="46.93" r=".95"/>
    <circle class="vanilla-chocoball-5" cx="28.68" cy="48.2" r=".19"/>
    <circle class="vanilla-chocoball-5" cx="28.23" cy="48.41" r=".12"/>
    <polygon class="vanilla-chocoball-5" points="29.49 47.39 29.47 47.71 29.7 47.93 29.39 47.91 29.17 48.14 29.19 47.83 28.96 47.61 29.27 47.62 29.49 47.39"/>
  </g>
  <g>
    <circle class="vanilla-chocoball-16" cx="93.69" cy="64.99" r="2.23"/>
    <circle class="vanilla-chocoball-12" cx="93.93" cy="64.61" r="1.55"/>
    <circle class="vanilla-chocoball-11" cx="94" cy="64.46" r="1.13"/>
    <circle class="vanilla-chocoball-5" cx="94.2" cy="64.22" r=".66"/>
    <circle class="vanilla-chocoball-5" cx="94.61" cy="65.1" r=".13"/>
    <circle class="vanilla-chocoball-5" cx="94.3" cy="65.24" r=".09"/>
    <polygon class="vanilla-chocoball-5" points="95.16 64.54 95.15 64.76 95.31 64.91 95.09 64.9 94.94 65.06 94.95 64.84 94.8 64.69 95.01 64.7 95.16 64.54"/>
  </g>
  <g>
    <circle class="vanilla-chocoball-16" cx="109.22" cy="36.29" r="3.56"/>
    <circle class="vanilla-chocoball-12" cx="109.6" cy="35.69" r="2.48"/>
    <circle class="vanilla-chocoball-11" cx="109.73" cy="35.45" r="1.81"/>
    <circle class="vanilla-chocoball-5" cx="110.04" cy="35.07" r="1.05"/>
    <circle class="vanilla-chocoball-5" cx="110.69" cy="36.48" r=".21"/>
    <circle class="vanilla-chocoball-5" cx="110.19" cy="36.7" r=".14"/>
    <polygon class="vanilla-chocoball-5" points="111.58 35.58 111.56 35.93 111.82 36.17 111.47 36.16 111.23 36.41 111.25 36.06 110.99 35.82 111.34 35.84 111.58 35.58"/>
  </g>
  <g>
    <circle class="vanilla-chocoball-1" cx="124.33" cy="62.48" r="2.36"/>
    <circle class="vanilla-chocoball-14" cx="124.58" cy="62.08" r="1.64"/>
    <circle class="vanilla-chocoball-2" cx="124.66" cy="61.93" r="1.2"/>
    <circle class="vanilla-chocoball-5" cx="124.87" cy="61.67" r=".7"/>
    <circle class="vanilla-chocoball-5" cx="125.3" cy="62.61" r=".14"/>
    <circle class="vanilla-chocoball-5" cx="124.97" cy="62.76" r=".09"/>
    <polygon class="vanilla-chocoball-5" points="125.89 62.01 125.88 62.25 126.05 62.41 125.82 62.39 125.66 62.56 125.67 62.33 125.5 62.17 125.73 62.18 125.89 62.01"/>
  </g>
</svg>