<?xml version="1.0" encoding="UTF-8"?>
<svg id="_레이어_1" data-name="레이어_1" xmlns="http://www.w3.org/2000/svg" xmlns:xlink="http://www.w3.org/1999/xlink" viewBox="0 0 148 148">
  <defs>
    <style>
      .cls-1 {
        fill: #ffb680;
      }

      .cls-2 {
        fill: #ffaa39;
      }

      .cls-3 {
        fill: #fff;
      }

      .cls-4 {
        fill: none;
      }

      .cls-5 {
        fill: #ffe1cc;
      }

      .cls-6 {
        fill: #fee58b;
      }

      .cls-7 {
        fill: #ffe292;
      }

      .cls-8 {
        fill: #ff7d12;
      }

      .cls-9 {
        fill: #945745;
      }

      .cls-10 {
        fill: #fff3cc;
      }

      .cls-11 {
        fill: #ffc83e;
      }

      .cls-12 {
        fill: #ff8da8;
      }

      .cls-13 {
        clip-path: url(#clippath);
      }
    </style>
    <clipPath id="clippath">
      <path class="cls-4" d="M130.12,69.24c-.05-15.18-12.11-27.53-26.94-27.57-.8,0-1.54.17-2.32.23-1.76-13.49-12.94-23.97-26.58-24.01-13.67-.04-24.8,10.41-26.44,23.93-1.05-.13-2.09-.33-3.18-.34-14.83-.05-26.82,12.22-26.77,27.4.03,10.9,6.31,20.25,15.31,24.72-.93,2.79-1.53,5.73-1.52,8.84.05,15.18,12.11,27.53,26.94,27.57,5.93.02,11.35-1.99,15.78-5.3,4.45,3.34,9.89,5.39,15.82,5.41,14.83.05,26.82-12.22,26.77-27.4,0-3.19-.66-6.21-1.64-9.06,8.76-4.49,14.81-13.68,14.78-24.42Z"/>
    </clipPath>
  </defs>
  <g>
    <g>
      <path class="cls-3" d="M138,68.57c-.05-17.31-13.82-31.39-30.73-31.45-.91,0-1.76.19-2.64.26-2.01-15.38-14.76-27.34-30.31-27.39-15.59-.05-28.28,11.87-30.16,27.29-1.2-.15-2.39-.38-3.63-.39-16.92-.05-30.59,13.94-30.53,31.25.04,12.43,7.19,23.09,17.46,28.2-1.06,3.18-1.75,6.53-1.74,10.08.05,17.31,13.81,31.39,30.73,31.45,6.76.02,12.95-2.27,18-6.05,5.08,3.81,11.28,6.14,18.04,6.17,16.92.05,30.59-13.94,30.53-31.25-.01-3.64-.75-7.08-1.87-10.33,9.99-5.12,16.89-15.6,16.85-27.85Z"/>
      <g>
        <path class="cls-10" d="M130.12,69.24c-.05-15.18-12.11-27.53-26.94-27.57-.8,0-1.54.17-2.32.23-1.76-13.49-12.94-23.97-26.58-24.01-13.67-.04-24.8,10.41-26.44,23.93-1.05-.13-2.09-.33-3.18-.34-14.83-.05-26.82,12.22-26.77,27.4.03,10.9,6.31,20.25,15.31,24.72-.93,2.79-1.53,5.73-1.52,8.84.05,15.18,12.11,27.53,26.94,27.57,5.93.02,11.35-1.99,15.78-5.3,4.45,3.34,9.89,5.39,15.82,5.41,14.83.05,26.82-12.22,26.77-27.4,0-3.19-.66-6.21-1.64-9.06,8.76-4.49,14.81-13.68,14.78-24.42Z"/>
        <g class="cls-13">
          <g>
            <g>
              <rect class="cls-7" x="10.89" y="8.34" width="1" height="131.33"/>
              <rect class="cls-7" x="14.02" y="8.34" width="1" height="131.33"/>
              <rect class="cls-7" x="17.15" y="8.34" width="1" height="131.33"/>
              <rect class="cls-7" x="20.28" y="8.34" width="1" height="131.33"/>
              <rect class="cls-7" x="23.41" y="8.34" width="1" height="131.33"/>
              <rect class="cls-7" x="26.54" y="8.34" width="1" height="131.33"/>
              <rect class="cls-7" x="29.67" y="8.34" width="1" height="131.33"/>
              <rect class="cls-7" x="32.8" y="8.34" width="1" height="131.33"/>
              <rect class="cls-7" x="35.93" y="8.34" width="1" height="131.33"/>
              <rect class="cls-7" x="39.07" y="8.34" width="1" height="131.33"/>
              <rect class="cls-7" x="42.2" y="8.34" width="1" height="131.33"/>
              <rect class="cls-7" x="45.33" y="8.34" width="1" height="131.33"/>
              <rect class="cls-7" x="48.46" y="8.34" width="1" height="131.33"/>
              <rect class="cls-7" x="51.59" y="8.34" width="1" height="131.33"/>
              <rect class="cls-7" x="54.72" y="8.34" width="1" height="131.33"/>
              <rect class="cls-7" x="57.85" y="8.34" width="1" height="131.33"/>
              <rect class="cls-7" x="60.98" y="8.34" width="1" height="131.33"/>
              <rect class="cls-7" x="64.11" y="8.34" width="1" height="131.33"/>
              <rect class="cls-7" x="67.24" y="8.34" width="1" height="131.33"/>
              <rect class="cls-7" x="70.37" y="8.34" width="1" height="131.33"/>
              <rect class="cls-7" x="73.5" y="8.34" width="1" height="131.33"/>
              <rect class="cls-7" x="76.63" y="8.34" width="1" height="131.33"/>
              <rect class="cls-7" x="79.76" y="8.34" width="1" height="131.33"/>
              <rect class="cls-7" x="82.89" y="8.34" width="1" height="131.33"/>
              <rect class="cls-7" x="86.02" y="8.34" width="1" height="131.33"/>
              <rect class="cls-7" x="89.15" y="8.34" width="1" height="131.33"/>
              <rect class="cls-7" x="92.28" y="8.34" width="1" height="131.33"/>
              <rect class="cls-7" x="95.41" y="8.34" width="1" height="131.33"/>
              <rect class="cls-7" x="98.54" y="8.34" width="1" height="131.33"/>
              <rect class="cls-7" x="101.67" y="8.34" width="1" height="131.33"/>
              <rect class="cls-7" x="104.8" y="8.34" width="1" height="131.33"/>
              <rect class="cls-7" x="107.93" y="8.34" width="1" height="131.33"/>
              <rect class="cls-7" x="111.07" y="8.34" width="1" height="131.33"/>
              <rect class="cls-7" x="114.2" y="8.34" width="1" height="131.33"/>
              <rect class="cls-7" x="117.33" y="8.34" width="1" height="131.33"/>
              <rect class="cls-7" x="120.46" y="8.34" width="1" height="131.33"/>
              <rect class="cls-7" x="123.59" y="8.34" width="1" height="131.33"/>
              <rect class="cls-7" x="126.72" y="8.34" width="1" height="131.33"/>
              <rect class="cls-7" x="129.85" y="8.34" width="1" height="131.33"/>
              <rect class="cls-7" x="132.98" y="8.34" width="1" height="131.33"/>
              <rect class="cls-7" x="136.11" y="8.34" width="1" height="131.33"/>
            </g>
            <g>
              <rect class="cls-11" x="73.5" y="-54.27" width="1" height="131.33" transform="translate(85.39 -62.61) rotate(90)"/>
              <rect class="cls-11" x="73.5" y="-51.14" width="1" height="131.33" transform="translate(88.52 -59.48) rotate(90)"/>
              <rect class="cls-11" x="73.5" y="-48.01" width="1" height="131.33" transform="translate(91.65 -56.35) rotate(90)"/>
              <rect class="cls-11" x="73.5" y="-44.88" width="1" height="131.33" transform="translate(94.78 -53.22) rotate(90)"/>
              <rect class="cls-11" x="73.5" y="-41.75" width="1" height="131.33" transform="translate(97.91 -50.09) rotate(90)"/>
              <rect class="cls-11" x="73.5" y="-38.62" width="1" height="131.33" transform="translate(101.04 -46.96) rotate(90)"/>
              <rect class="cls-11" x="73.5" y="-35.49" width="1" height="131.33" transform="translate(104.17 -43.83) rotate(90)"/>
              <rect class="cls-11" x="73.5" y="-32.36" width="1" height="131.33" transform="translate(107.3 -40.7) rotate(90)"/>
              <rect class="cls-11" x="73.5" y="-29.23" width="1" height="131.33" transform="translate(110.43 -37.57) rotate(90)"/>
              <rect class="cls-11" x="73.5" y="-26.1" width="1" height="131.33" transform="translate(113.57 -34.43) rotate(90)"/>
              <rect class="cls-11" x="73.5" y="-22.97" width="1" height="131.33" transform="translate(116.7 -31.3) rotate(90)"/>
              <rect class="cls-11" x="73.5" y="-19.84" width="1" height="131.33" transform="translate(119.83 -28.17) rotate(90)"/>
              <rect class="cls-11" x="73.5" y="-16.71" width="1" height="131.33" transform="translate(122.96 -25.04) rotate(90)"/>
              <rect class="cls-11" x="73.5" y="-13.58" width="1" height="131.33" transform="translate(126.09 -21.91) rotate(90)"/>
              <rect class="cls-11" x="73.5" y="-10.45" width="1" height="131.33" transform="translate(129.22 -18.78) rotate(90)"/>
              <rect class="cls-11" x="73.5" y="-7.32" width="1" height="131.33" transform="translate(132.35 -15.65) rotate(90)"/>
              <rect class="cls-11" x="73.5" y="-4.18" width="1" height="131.33" transform="translate(135.48 -12.52) rotate(90)"/>
              <rect class="cls-11" x="73.5" y="-1.05" width="1" height="131.33" transform="translate(138.61 -9.39) rotate(90)"/>
              <rect class="cls-11" x="73.5" y="2.08" width="1" height="131.33" transform="translate(141.74 -6.26) rotate(90)"/>
              <rect class="cls-11" x="73.5" y="5.21" width="1" height="131.33" transform="translate(144.87 -3.13) rotate(90)"/>
              <rect class="cls-11" x="73.5" y="8.34" width="1" height="131.33" transform="translate(148 0) rotate(90)"/>
              <rect class="cls-11" x="73.5" y="11.47" width="1" height="131.33" transform="translate(151.13 3.13) rotate(90)"/>
              <rect class="cls-11" x="73.5" y="14.6" width="1" height="131.33" transform="translate(154.26 6.26) rotate(90)"/>
              <rect class="cls-11" x="73.5" y="17.73" width="1" height="131.33" transform="translate(157.39 9.39) rotate(90)"/>
              <rect class="cls-11" x="73.5" y="20.86" width="1" height="131.33" transform="translate(160.52 12.52) rotate(90)"/>
              <rect class="cls-11" x="73.5" y="23.99" width="1" height="131.33" transform="translate(163.65 15.65) rotate(90)"/>
              <rect class="cls-11" x="73.5" y="27.12" width="1" height="131.33" transform="translate(166.78 18.78) rotate(90)"/>
              <rect class="cls-11" x="73.5" y="30.25" width="1" height="131.33" transform="translate(169.91 21.91) rotate(90)"/>
              <rect class="cls-11" x="73.5" y="33.38" width="1" height="131.33" transform="translate(173.04 25.04) rotate(90)"/>
              <rect class="cls-11" x="73.5" y="36.51" width="1" height="131.33" transform="translate(176.17 28.17) rotate(90)"/>
              <rect class="cls-11" x="73.5" y="39.64" width="1" height="131.33" transform="translate(179.3 31.3) rotate(90)"/>
              <rect class="cls-11" x="73.5" y="42.77" width="1" height="131.33" transform="translate(182.43 34.43) rotate(90)"/>
              <rect class="cls-11" x="73.5" y="45.9" width="1" height="131.33" transform="translate(185.57 37.57) rotate(90)"/>
              <rect class="cls-11" x="73.5" y="49.03" width="1" height="131.33" transform="translate(188.7 40.7) rotate(90)"/>
              <rect class="cls-11" x="73.5" y="52.16" width="1" height="131.33" transform="translate(191.83 43.83) rotate(90)"/>
              <rect class="cls-11" x="73.5" y="55.29" width="1" height="131.33" transform="translate(194.96 46.96) rotate(90)"/>
              <rect class="cls-11" x="73.5" y="58.42" width="1" height="131.33" transform="translate(198.09 50.09) rotate(90)"/>
              <rect class="cls-11" x="73.5" y="61.55" width="1" height="131.33" transform="translate(201.22 53.22) rotate(90)"/>
              <rect class="cls-11" x="73.5" y="64.68" width="1" height="131.33" transform="translate(204.35 56.35) rotate(90)"/>
              <rect class="cls-11" x="73.5" y="67.82" width="1" height="131.33" transform="translate(207.48 59.48) rotate(90)"/>
              <rect class="cls-11" x="73.5" y="70.95" width="1" height="131.33" transform="translate(210.61 62.61) rotate(90)"/>
            </g>
          </g>
        </g>
      </g>
      <g>
        <rect class="cls-8" x="73.64" y="13.36" width="1.74" height="11.3" rx=".87" ry=".87" transform="translate(25.01 77.86) rotate(-64.24)"/>
        <rect class="cls-8" x="73.64" y="13.36" width="1.74" height="11.3" rx=".87" ry=".87" transform="translate(87.28 94.84) rotate(-113.87)"/>
      </g>
      <g>
        <rect class="cls-8" x="102.75" y="120.01" width="1.74" height="11.3" rx=".87" ry=".87" transform="translate(-22.29 228.98) rotate(-89.86)"/>
        <rect class="cls-8" x="102.75" y="120.01" width="1.74" height="11.3" rx=".87" ry=".87" transform="translate(100.78 288.51) rotate(-139.49)"/>
      </g>
      <g>
        <rect class="cls-8" x="44.82" y="120.92" width="1.74" height="11.3" rx=".87" ry=".87" transform="translate(-80.77 172.57) rotate(-90.14)"/>
        <rect class="cls-8" x="44.82" y="120.92" width="1.74" height="11.3" rx=".87" ry=".87" transform="translate(-71.26 60.01) rotate(-40.51)"/>
      </g>
      <g>
        <rect class="cls-8" x="17.38" y="58.09" width="1.74" height="11.3" rx=".87" ry=".87" transform="translate(-8.19 124.54) rotate(-140.53)"/>
        <rect class="cls-8" x="17.38" y="58.09" width="1.74" height="11.3" rx=".87" ry=".87" transform="translate(47.45 123.26) rotate(169.84)"/>
      </g>
      <g>
        <rect class="cls-8" x="128.68" y="58.09" width="1.74" height="11.3" rx=".87" ry=".87" transform="translate(-10.97 96.89) rotate(-39.47)"/>
        <rect class="cls-8" x="128.68" y="58.09" width="1.74" height="11.3" rx=".87" ry=".87" transform="translate(13.27 -21.85) rotate(10.16)"/>
      </g>
    </g>
    <path class="cls-6" d="M75.61,125.36c-2.33-1.11-4.4-2.52-6.01-4.2l6.01,4.2Z"/>
    <g>
      <path class="cls-8" d="M78.58,93.21c-10.28,2.66-20.66-3.79-23.19-14.4-2.53-10.61,3.75-21.37,14.02-24.03,10.28-2.66,20.66,3.79,23.19,14.4,2.53,10.61-3.75,21.37-14.02,24.03Z"/>
      <path class="cls-1" d="M80.62,80.07c-5.48,1.42-11.01-2.02-12.36-7.68-1.35-5.66,2-11.39,7.47-12.81,5.48-1.42,11.01,2.02,12.36,7.68,1.35,5.66-2,11.39-7.47,12.81Z"/>
      <path class="cls-5" d="M82.33,74.02c-3.6.93-7.25-1.33-8.14-5.05-.89-3.72,1.31-7.5,4.92-8.43,3.6-.93,7.25,1.33,8.14,5.05.89,3.72-1.31,7.5-4.92,8.43Z"/>
      <polygon class="cls-3" points="83.98 58.24 86.46 61.54 90.58 61.81 87.28 64.29 87.01 68.41 84.53 65.1 80.41 64.84 83.72 62.36 83.98 58.24"/>
      <circle class="cls-5" cx="87.11" cy="82.5" r="2.09"/>
      <path class="cls-5" d="M61.29,85.26c6.65,5.08,15.23,6.14,21.57.03,1.48-1.44,3.52.92,1.84,2.16-.85.53-1.9,1.4-2.79,1.81-2.41,1.33-5.23,2.08-7.99,2.02-4.86-.14-9.44-2.42-12.95-5.67-.21-.2.09-.55.32-.34h0Z"/>
    </g>
  </g>
  <circle class="cls-3" cx="85.5" cy="31.63" r="4.17"/>
  <circle class="cls-2" cx="61.13" cy="37.02" r="2.94"/>
  <circle class="cls-2" cx="114.8" cy="67.05" r="2.94"/>
  <circle class="cls-8" cx="33.46" cy="78.84" r="3.48"/>
  <circle class="cls-8" cx="95.33" cy="93.81" r="3.48"/>
  <circle class="cls-8" cx="67.03" cy="120.42" r="2.56"/>
  <circle class="cls-2" cx="73.99" cy="102.4" r="2.46"/>
  <circle class="cls-12" cx="34.61" cy="54.19" r="2.94"/>
  <circle class="cls-9" cx="39.49" cy="107.8" r="2.94"/>
  <circle class="cls-9" cx="86.55" cy="109.05" r="2.19"/>
  <circle class="cls-3" cx="47.31" cy="66.26" r="2.15"/>
  <circle class="cls-3" cx="108.84" cy="99.94" r="2.15"/>
  <circle class="cls-3" cx="55.42" cy="108.59" r="2.15"/>
  <circle class="cls-3" cx="44.36" cy="88.66" r="2.53"/>
  <circle class="cls-3" cx="98.8" cy="58.58" r="2.15"/>
  <circle class="cls-8" cx="80.72" cy="47.96" r="2.23"/>
  <circle class="cls-9" cx="56.18" cy="51.96" r="1.89"/>
  <circle class="cls-12" cx="58.19" cy="94.14" r="1.89"/>
  <circle class="cls-12" cx="109.11" cy="49.36" r="1.89"/>
  <circle class="cls-12" cx="101.53" cy="114.65" r="2.3"/>
  <circle class="cls-9" cx="102.41" cy="77.25" r="1.89"/>
</svg>