<svg width="148" height="148" viewBox="0 0 148 148" fill="none" xmlns="http://www.w3.org/2000/svg">
<path d="M138 51.57C138 28.61 119.39 10 96.43 10C88.16 10 80.47 12.42 74 16.58C67.53 12.42 59.83 10 51.57 10C28.61 10 10 28.61 10 51.57C10 59.84 12.42 67.53 16.58 74C12.42 80.47 10 88.17 10 96.43C10 119.39 28.61 138 51.57 138C59.84 138 67.53 135.58 74 131.42C80.47 135.58 88.17 138 96.43 138C119.39 138 138 119.39 138 96.43C138 88.16 135.58 80.47 131.42 74C135.58 67.53 138 59.83 138 51.57Z" fill="#D9EDA4"/>
<path d="M34.24 21.4799C33.79 20.9899 33.03 20.9499 32.56 21.3999C32.53 21.4199 32.52 21.4499 32.49 21.4799C32.03 21.0999 31.36 21.0899 30.92 21.4999C30.48 21.9099 30.43 22.5799 30.78 23.0599C30.74 23.0899 30.7 23.1099 30.67 23.1399C30.19 23.5799 30.17 24.3399 30.63 24.8299C30.96 25.1799 31.43 25.2899 31.86 25.1699C31.91 25.2899 31.98 25.3999 32.07 25.4999C32.52 25.9899 33.28 26.0299 33.75 25.5799C33.94 25.3999 34.06 25.1799 34.1 24.9399C34.34 24.9099 34.58 24.8199 34.77 24.6399C35.25 24.1999 35.27 23.4399 34.81 22.9499C34.71 22.8499 34.6 22.7699 34.49 22.7099C34.64 22.2999 34.56 21.8199 34.24 21.4799Z" fill="#F7FEEE"/>
<path d="M33.0959 23.8665C33.3956 23.5886 33.4072 23.1138 33.1218 22.8061C32.8364 22.4983 32.3621 22.4741 32.0624 22.752C31.7627 23.0299 31.7511 23.5046 32.0365 23.8124C32.3219 24.1202 32.7962 24.1444 33.0959 23.8665Z" fill="#FFC931"/>
<path d="M28.7701 30.7798C28.5301 30.6998 28.2701 30.8198 28.1901 31.0598C28.1901 31.0698 28.1901 31.0898 28.1901 31.0998C27.9701 31.0498 27.7401 31.1698 27.6701 31.3898C27.6001 31.6098 27.7001 31.8398 27.9101 31.9398C27.9101 31.9598 27.8901 31.9698 27.8901 31.9898C27.8101 32.2298 27.9401 32.4798 28.1801 32.5698C28.3501 32.6298 28.5301 32.5798 28.6501 32.4598C28.6901 32.4898 28.7301 32.5198 28.7801 32.5298C29.0201 32.6098 29.2801 32.4898 29.3601 32.2498C29.3901 32.1598 29.3901 32.0598 29.3601 31.9698C29.4401 31.9198 29.5001 31.8398 29.5301 31.7498C29.6101 31.5098 29.4801 31.2598 29.2401 31.1698C29.1901 31.1498 29.1401 31.1498 29.0901 31.1498C29.0701 30.9898 28.9501 30.8398 28.7801 30.7798H28.7701Z" fill="#F7FEEE"/>
<path d="M28.8181 31.7839C28.8684 31.6377 28.7866 31.4769 28.6351 31.4247C28.4837 31.3725 28.3201 31.4487 28.2697 31.5949C28.2193 31.7411 28.3012 31.9019 28.4526 31.9541C28.6041 32.0063 28.7677 31.9301 28.8181 31.7839Z" fill="#FFC931"/>
<path d="M48.1199 18.75C48.2499 18.03 47.7699 17.34 47.0599 17.21C46.7999 17.16 46.5499 17.19 46.3199 17.29C46.1399 17.12 45.9099 17 45.6599 16.96C44.9399 16.83 44.2499 17.31 44.1199 18.02C44.0699 18.28 44.0999 18.53 44.1999 18.76C44.0299 18.94 43.9099 19.17 43.8699 19.42C43.7399 20.14 44.2199 20.83 44.9299 20.96C45.1899 21.01 45.4399 20.98 45.6699 20.88C45.8499 21.05 46.0799 21.17 46.3299 21.21C47.0499 21.34 47.7399 20.86 47.8699 20.15C47.9199 19.89 47.8899 19.64 47.7899 19.41C47.9599 19.23 48.0799 19 48.1199 18.75Z" fill="#ACDE47"/>
<path d="M46.4061 18.7867L46.3588 18.7222C46.3261 18.6777 46.2635 18.6681 46.219 18.7008L45.6306 19.133C45.5861 19.1657 45.5766 19.2283 45.6092 19.2728L45.6566 19.3372C45.6893 19.3818 45.7519 19.3913 45.7964 19.3586L46.3847 18.9265C46.4292 18.8938 46.4388 18.8312 46.4061 18.7867Z" fill="#59AF38"/>
<path d="M45.7666 18.6339L45.7022 18.6813C45.6577 18.714 45.6481 18.7766 45.6808 18.8211L46.113 19.4094C46.1456 19.4539 46.2082 19.4635 46.2527 19.4308L46.3172 19.3834C46.3617 19.3507 46.3713 19.2881 46.3386 19.2436L45.9064 18.6553C45.8737 18.6108 45.8112 18.6012 45.7666 18.6339Z" fill="#59AF38"/>
<path d="M19.89 58.0698C20.2 57.6798 20.13 57.1098 19.74 56.7998C19.6 56.6898 19.44 56.6298 19.27 56.6098C19.22 56.4498 19.12 56.3098 18.98 56.1998C18.59 55.8898 18.02 55.9598 17.71 56.3498C17.6 56.4898 17.54 56.6498 17.52 56.8198C17.36 56.8698 17.22 56.9698 17.11 57.1098C16.8 57.4998 16.87 58.0698 17.26 58.3798C17.4 58.4898 17.56 58.5498 17.73 58.5698C17.78 58.7298 17.88 58.8698 18.02 58.9798C18.41 59.2898 18.98 59.2198 19.29 58.8298C19.4 58.6898 19.46 58.5298 19.48 58.3598C19.64 58.3098 19.78 58.2098 19.89 58.0698Z" fill="#78C13B"/>
<path d="M18.7283 57.4279L18.303 57.4914C18.2484 57.4995 18.2104 57.5482 18.2181 57.6001C18.2258 57.652 18.2764 57.6874 18.331 57.6793L18.7563 57.6159C18.811 57.6077 18.849 57.5591 18.8412 57.5072C18.8335 57.4553 18.7829 57.4198 18.7283 57.4279Z" fill="#FFFDFD"/>
<path d="M18.5933 57.337C18.5852 57.2824 18.5365 57.2444 18.4846 57.2521C18.4327 57.2598 18.3972 57.3104 18.4054 57.365L18.4688 57.7903C18.4769 57.8449 18.5256 57.883 18.5775 57.8752C18.6294 57.8675 18.6648 57.8169 18.6567 57.7623L18.5933 57.337Z" fill="#FFFDFD"/>
<path d="M21.11 59.4597C21.33 59.1797 21.28 58.7797 21 58.5597C20.9 58.4797 20.78 58.4397 20.67 58.4297C20.63 58.3197 20.56 58.2197 20.46 58.1397C20.18 57.9197 19.78 57.9697 19.56 58.2497C19.48 58.3497 19.44 58.4697 19.43 58.5797C19.32 58.6197 19.22 58.6897 19.14 58.7897C18.92 59.0697 18.97 59.4697 19.25 59.6897C19.35 59.7697 19.47 59.8097 19.58 59.8197C19.62 59.9297 19.69 60.0297 19.79 60.1097C20.07 60.3297 20.47 60.2797 20.69 59.9997C20.77 59.8997 20.81 59.7797 20.82 59.6697C20.93 59.6297 21.03 59.5597 21.11 59.4597Z" fill="#ACDE47"/>
<path d="M20.3047 59.152C20.3429 59.1463 20.3693 59.1106 20.3636 59.0724C20.3579 59.0342 20.3223 59.0078 20.284 59.0135L19.9774 59.0592C19.9392 59.0649 19.9128 59.1005 19.9185 59.1388C19.9242 59.177 19.9598 59.2034 19.9981 59.1977L20.3047 59.152Z" fill="#59AF38"/>
<path d="M20.192 58.9351C20.1863 58.8968 20.1507 58.8705 20.1124 58.8762C20.0742 58.8819 20.0478 58.9175 20.0535 58.9557L20.0992 59.2623C20.1049 59.3006 20.1406 59.3269 20.1788 59.3212C20.217 59.3155 20.2434 59.2799 20.2377 59.2417L20.192 58.9351Z" fill="#59AF38"/>
<path d="M23.51 45.8499L23.46 45.8999C23.39 45.9799 23.35 46.0699 23.33 46.1799V46.2499C23.31 46.3499 23.18 46.3999 23.11 46.3299L23.06 46.2799C22.98 46.2099 22.89 46.1699 22.78 46.1499H22.71C22.61 46.1299 22.56 45.9999 22.63 45.9299L22.68 45.8799C22.75 45.7999 22.79 45.7099 22.81 45.5999V45.5299C22.83 45.4299 22.96 45.3799 23.03 45.4499L23.08 45.4999C23.16 45.5699 23.25 45.6099 23.36 45.6299H23.43C23.53 45.6499 23.58 45.7799 23.51 45.8499Z" fill="#78C13B"/>
<path d="M17.6301 53.5699L17.3901 53.5999C17.2901 53.6099 17.1901 53.6499 17.1101 53.7199L16.9301 53.8799H16.9201L16.8901 53.6399C16.8801 53.5399 16.8401 53.4399 16.7701 53.3599L16.6101 53.1799V53.1699L16.8501 53.1399C16.9501 53.1299 17.0501 53.0899 17.1301 53.0199L17.3101 52.8599H17.3201L17.3501 53.0999C17.3601 53.1999 17.4001 53.2999 17.4701 53.3799L17.6301 53.5599V53.5699Z" fill="#ACDE47"/>
<path d="M41.5838 17.3008L41.2863 18.8118C41.2809 18.8389 41.2986 18.8652 41.3257 18.8705L41.4238 18.8898C41.4509 18.8952 41.4772 18.8775 41.4825 18.8504L41.78 17.3394C41.7854 17.3123 41.7677 17.2861 41.7406 17.2807L41.6425 17.2614C41.6154 17.2561 41.5891 17.2737 41.5838 17.3008Z" fill="#78C13B"/>
<path d="M42.272 17.7521L40.7711 18.0972C40.7442 18.1034 40.7274 18.1302 40.7336 18.1571L40.756 18.2546C40.7622 18.2815 40.789 18.2983 40.816 18.2921L42.3168 17.947C42.3437 17.9408 42.3605 17.914 42.3543 17.8871L42.3319 17.7896C42.3257 17.7627 42.2989 17.7459 42.272 17.7521Z" fill="#78C13B"/>
<path d="M20.6477 54.2431L19.3623 54.352C19.3348 54.3543 19.3144 54.3785 19.3167 54.406L19.3226 54.4758C19.325 54.5033 19.3492 54.5237 19.3767 54.5214L20.6621 54.4125C20.6896 54.4102 20.71 54.386 20.7077 54.3585L20.7018 54.2887C20.6994 54.2612 20.6752 54.2408 20.6477 54.2431Z" fill="#FFC931"/>
<path d="M19.75 53.743L19.6888 53.7768C19.6646 53.7902 19.6558 53.8206 19.6692 53.8448L20.2932 54.9738C20.3066 54.998 20.337 55.0067 20.3612 54.9934L20.4224 54.9595C20.4466 54.9462 20.4554 54.9157 20.442 54.8916L19.818 53.7625C19.8046 53.7384 19.7742 53.7296 19.75 53.743Z" fill="#FFC931"/>
<path d="M21.4782 42.1567L21.3187 43.5879C21.3126 43.6428 21.3521 43.6922 21.407 43.6983C21.4619 43.7045 21.5113 43.6649 21.5175 43.61L21.677 42.1789C21.6831 42.124 21.6436 42.0745 21.5887 42.0684C21.5338 42.0623 21.4843 42.1018 21.4782 42.1567Z" fill="#78C13B"/>
<path d="M22.1634 42.5327L20.7918 42.9713C20.7392 42.9881 20.7102 43.0444 20.727 43.097C20.7438 43.1496 20.8001 43.1786 20.8527 43.1618L22.2243 42.7232C22.2769 42.7064 22.3059 42.6501 22.2891 42.5975C22.2723 42.5449 22.216 42.5159 22.1634 42.5327Z" fill="#78C13B"/>
<path d="M26.6141 30.3415C26.638 30.3112 26.6328 30.2671 26.6024 30.2432C26.572 30.2193 26.528 30.2246 26.5041 30.255L25.8919 31.033C25.8679 31.0633 25.8732 31.1073 25.9036 31.1313C25.934 31.1552 25.978 31.1499 26.0019 31.1195L26.6141 30.3415Z" fill="#FFE94A"/>
<path d="M26.7356 30.8465C26.7731 30.8559 26.8111 30.8332 26.8206 30.7957C26.83 30.7582 26.8073 30.7201 26.7698 30.7107L25.8097 30.4692C25.7722 30.4598 25.7341 30.4825 25.7247 30.52C25.7153 30.5575 25.738 30.5955 25.7755 30.605L26.7356 30.8465Z" fill="#FFE94A"/>
<path d="M50.1218 17.597L50.2502 17.5768C50.2993 17.569 50.3328 17.5229 50.3251 17.4738L49.9478 15.0834C49.94 15.0343 49.8939 15.0008 49.8448 15.0086L49.7164 15.0288C49.6673 15.0366 49.6338 15.0827 49.6416 15.1318L50.0189 17.5222C50.0266 17.5713 50.0727 17.6048 50.1218 17.597Z" fill="#FFFDFD"/>
<path d="M51.2146 16.6406L51.2485 16.5151C51.2615 16.4671 51.2331 16.4177 51.1851 16.4047L48.8489 15.7735C48.8009 15.7605 48.7515 15.7889 48.7385 15.8369L48.7046 15.9624C48.6916 16.0104 48.72 16.0598 48.768 16.0728L51.1042 16.704C51.1522 16.717 51.2016 16.6886 51.2146 16.6406Z" fill="#FFFDFD"/>
<path d="M22.5901 50.28C22.3501 49.71 21.4201 49.51 21.0701 50.07C21.6301 49.97 22.0301 50.11 22.5901 50.28Z" fill="#6FB64E"/>
<path d="M18.3401 50.4998C18.1201 50.5698 17.9601 50.7298 18.0201 50.9198C18.0601 50.9998 18.1601 51.0798 18.1801 51.1498C18.2001 51.2198 18.1701 51.2898 18.1101 51.3698C18.0001 51.5198 17.9701 51.7098 18.0301 51.8798C18.1101 52.0898 18.5301 52.2898 18.6201 52.0698C18.6201 51.8198 18.7101 51.7598 18.6901 51.6598C18.6501 51.5398 18.5801 51.4498 18.4601 51.3498C18.4001 51.2898 18.3601 51.2198 18.3801 51.1498C18.4001 51.0798 18.5101 51.0198 18.5601 50.9598C18.6101 50.8998 18.5901 50.8298 18.5601 50.7698C18.4901 50.6298 18.4501 50.6298 18.3401 50.4998Z" fill="#7EC600"/>
<path d="M18.9001 50.2598C18.9001 50.2598 19.7601 49.8598 19.9101 50.2998C20.0601 50.7398 18.8401 50.5198 18.8401 50.5198L18.9001 50.2598Z" fill="#FFFDFD"/>
<path d="M18.95 50.4897C18.95 50.4897 19.8 50.6597 19.67 51.0697C19.54 51.4797 18.76 50.6497 18.76 50.6497L18.94 50.4897H18.95Z" fill="#FFFDFD"/>
<path d="M18.8401 50.5898C18.8401 50.5898 19.3801 51.2698 19.0201 51.4998C18.6601 51.7298 18.6001 50.5998 18.6001 50.5998H18.8501L18.8401 50.5898Z" fill="#FFFDFD"/>
<path d="M18.6402 50.7198C18.6402 50.7198 18.7002 51.5898 18.2702 51.5698C17.8402 51.5498 18.4302 50.5898 18.4302 50.5898L18.6402 50.7198Z" fill="#FFFDFD"/>
<path d="M18.1602 50.6199C18.1602 50.6199 17.4202 51.0099 17.6602 51.3499C17.9002 51.6899 18.3802 50.7199 18.3802 50.7199L18.1702 50.6199H18.1602Z" fill="#FFFDFD"/>
<path d="M19.8002 50.31C19.6202 50.21 19.3702 50.22 19.2102 50.37C19.4102 50.35 19.6002 50.35 19.8002 50.31Z" fill="#EDEDED"/>
<path d="M17.75 51.2798C17.89 51.1398 18 50.9798 18.12 50.8298C17.91 50.8698 17.77 51.0798 17.75 51.2798Z" fill="#EDEDED"/>
<path d="M17.3501 50.9698C17.5301 50.8898 17.6901 50.7798 17.8601 50.6798C17.6501 50.6498 17.4401 50.7798 17.3501 50.9698Z" fill="#EDEDED"/>
<path d="M19.5801 51.0398C19.5001 50.8498 19.3001 50.6998 19.0901 50.7198C19.2601 50.8298 19.4101 50.9498 19.5801 51.0398Z" fill="#EDEDED"/>
<path d="M18.9401 51.3899C19.0101 51.2099 18.9701 50.9799 18.8101 50.8699C18.8601 51.0599 18.8801 51.2199 18.9401 51.3899Z" fill="#EDEDED"/>
<path d="M18.26 51.4199C18.42 51.3199 18.53 51.0999 18.46 50.9199C18.39 51.0999 18.32 51.2399 18.26 51.4199Z" fill="#EDEDED"/>
<path d="M22.4001 49.6799C22.2301 49.1199 22.0801 48.7299 22.1801 48.1599C21.6201 48.5199 21.8301 49.4399 22.4001 49.6799Z" fill="#6FB64E"/>
<path d="M19.7801 48.1998C19.9601 48.4498 20.2201 48.6598 20.5201 48.7398C20.6701 48.7698 20.8601 48.7398 21.0001 48.8098C21.2901 48.9198 21.4201 49.2798 21.6201 49.4898C21.9001 49.8798 22.1801 50.0198 22.5301 50.4098H22.6001C22.7701 50.0698 22.6501 49.6298 22.4301 49.3498C22.2601 49.1398 22.0401 49.0098 21.8101 48.8998C21.5801 48.8198 21.3101 48.7898 21.1201 48.6298C20.9901 48.5298 20.9001 48.3698 20.7701 48.2598C20.5201 48.0698 20.1601 48.0098 19.8501 48.1098C19.7501 48.1498 19.7501 48.1398 19.7901 48.2098L19.7801 48.1998Z" fill="#7EC600"/>
<path d="M19.56 47.4999C19.56 47.4999 18.36 46.5299 18.99 45.9799C19.62 45.4299 20.02 47.3899 20.02 47.3899L19.55 47.4999H19.56Z" fill="#FFFDFD"/>
<path d="M19.44 47.3597C19.44 47.3597 18.63 46.3597 18.17 46.8997C17.71 47.4397 19.35 47.7497 19.35 47.7497L19.44 47.3597Z" fill="#FFFDFD"/>
<path d="M19.0702 47.6698C19.0702 47.6698 17.8602 47.2298 17.7402 47.9098C17.6202 48.5898 19.1902 48.0498 19.1902 48.0498L19.0702 47.6698Z" fill="#FFFDFD"/>
<path d="M19.05 48.0498C19.05 48.0498 17.56 48.3898 17.81 49.1098C18.06 49.8298 19.38 48.3298 19.38 48.3298L19.05 48.0498Z" fill="#FFFDFD"/>
<path d="M19.2001 48.3899C19.2001 48.3899 18.2901 49.4499 18.8601 49.8399C19.4301 50.2299 19.5901 48.4099 19.5901 48.4099L19.1901 48.3899H19.2001Z" fill="#FFFDFD"/>
<path d="M19.4402 48.4099C19.4402 48.4099 19.4302 49.8099 20.1202 49.7399C20.8102 49.6699 19.7602 48.1699 19.7602 48.1699L19.4402 48.4099Z" fill="#FFFDFD"/>
<path d="M19.8301 48.3697C19.8301 48.3697 20.6101 49.5297 21.1401 49.0797C21.6701 48.6297 19.9601 47.9897 19.9601 47.9897L19.8301 48.3597V48.3697Z" fill="#FFFDFD"/>
<path d="M20.3302 47.7698C20.3302 47.7698 21.6502 47.5398 21.7002 48.1998C21.7502 48.8598 20.1602 48.1098 20.1602 48.1098L20.3302 47.7698Z" fill="#FFFDFD"/>
<path d="M20.4802 47.3698C20.4802 47.3698 21.6802 46.7098 21.9502 47.3398C22.2202 47.9698 20.4302 47.7498 20.4302 47.7498L20.4902 47.3698H20.4802Z" fill="#FFFDFD"/>
<path d="M20.6001 47.3298C20.6001 47.3298 21.9501 47.0698 21.7501 46.4198C21.5501 45.7698 20.3101 47.0698 20.3101 47.0698L20.6001 47.3298Z" fill="#FFFDFD"/>
<path d="M19.8501 47.1699C19.8501 47.1699 19.7401 45.5699 20.5501 45.6099C21.3601 45.6499 20.2301 47.4199 20.2301 47.4199L19.8401 47.1599L19.8501 47.1699Z" fill="#FFFDFD"/>
<path d="M20.1238 48.3396C20.581 47.992 20.7755 47.4785 20.5582 47.1927C20.3409 46.907 19.7941 46.9572 19.3369 47.3048C18.8797 47.6525 18.6852 48.166 18.9025 48.4517C19.1198 48.7375 19.6666 48.6873 20.1238 48.3396Z" fill="#FFC931"/>
<path d="M18.9601 48.2498C18.8901 48.1598 18.8701 48.0498 18.8801 47.9198C18.7901 48.1398 18.7901 48.3398 18.9101 48.4898C19.1301 48.7798 19.6701 48.7298 20.1301 48.3798C20.4401 48.1398 20.6301 47.8298 20.6501 47.5598C20.5701 47.7598 20.4101 47.9698 20.1901 48.1298C19.7301 48.4798 19.1901 48.5298 18.9701 48.2398L18.9601 48.2498Z" fill="#F7BC14"/>
<path d="M20.5701 47.19C20.3501 46.9 19.8101 46.95 19.3501 47.3C19.0601 47.52 18.8701 47.81 18.8401 48.07C18.9201 47.87 19.0801 47.66 19.3001 47.49C19.7601 47.14 20.3001 47.09 20.5201 47.38C20.6001 47.48 20.6201 47.61 20.6001 47.75C20.6901 47.54 20.6901 47.33 20.5701 47.18V47.19Z" fill="#FFD55F"/>
<path d="M19.1001 46.1799C19.1201 46.5099 19.2801 46.8699 19.5701 47.0499C19.3801 46.7799 19.2501 46.4799 19.1001 46.1799Z" fill="#EDEDED"/>
<path d="M18.3301 46.96C18.5901 47.11 18.8501 47.24 19.0801 47.43C18.9501 47.15 18.6301 46.98 18.3301 46.96Z" fill="#EDEDED"/>
<path d="M17.9402 47.9098C18.2202 47.8898 18.4802 47.8498 18.7702 47.8798C18.5302 47.7198 18.1802 47.7598 17.9402 47.9098Z" fill="#EDEDED"/>
<path d="M17.9502 48.9997C18.2102 48.8197 18.4602 48.6297 18.7502 48.4897C18.4202 48.4897 18.1102 48.7197 17.9502 48.9997Z" fill="#EDEDED"/>
<path d="M21.5101 48.1999C21.2601 47.9999 20.9001 47.8899 20.5801 47.9899C20.9001 48.0199 21.2001 48.1099 21.5101 48.1999Z" fill="#EDEDED"/>
<path d="M21.71 47.3999C21.4 47.2999 21.02 47.3299 20.77 47.5499C21.08 47.4599 21.39 47.4399 21.71 47.3999Z" fill="#EDEDED"/>
<path d="M21.4702 46.5798C21.1502 46.6198 20.8202 46.8098 20.6902 47.1198C20.9302 46.9098 21.2102 46.7498 21.4702 46.5798Z" fill="#EDEDED"/>
<path d="M18.9502 49.6998C19.0402 49.3998 19.1202 49.0898 19.2602 48.7998C19.0102 49.0098 18.9102 49.3798 18.9502 49.6998Z" fill="#EDEDED"/>
<path d="M20.1101 49.52C19.9801 49.26 19.8401 49.01 19.7601 48.72C19.7101 49.02 19.8701 49.34 20.1101 49.52Z" fill="#EDEDED"/>
<path d="M21 48.8899C20.74 48.7499 20.48 48.63 20.25 48.45C20.38 48.73 20.7 48.8799 21 48.8899Z" fill="#EDEDED"/>
<path d="M20.45 45.8799C20.25 46.1499 20.15 46.5299 20.26 46.8499C20.28 46.5199 20.37 46.1999 20.45 45.8799Z" fill="#EDEDED"/>
<path d="M18.4401 50.1898C18.4401 50.1898 18.6501 49.2598 18.1401 49.2298C17.6301 49.1998 18.1801 50.3098 18.1801 50.3098L18.4501 50.1798L18.4401 50.1898Z" fill="#FFFDFD"/>
<path d="M18.4402 50.0799C18.4402 50.0799 18.4602 49.2799 18.8802 49.3699C19.3002 49.4599 18.6302 50.2399 18.6302 50.2399L18.4402 50.0799Z" fill="#FFFDFD"/>
<path d="M18.74 50.0899C18.74 50.0899 19.16 49.4099 19.48 49.6999C19.8 49.9899 18.82 50.3199 18.82 50.3199L18.73 50.0899H18.74Z" fill="#FFFDFD"/>
<path d="M17.9401 50.48C17.9401 50.48 17.1001 50.62 17.2101 51.03C17.3201 51.44 18.1101 50.65 18.1101 50.65L17.9301 50.48H17.9401Z" fill="#FFFDFD"/>
<path d="M17.8701 50.5098C17.8701 50.5098 17.1101 50.8998 16.9601 50.5098C16.8101 50.1198 17.9101 50.2798 17.9101 50.2798L17.8701 50.5198V50.5098Z" fill="#FFFDFD"/>
<path d="M18.1701 50.1398C18.1701 50.1398 17.6101 49.3198 17.2301 49.6498C16.8501 49.9798 18.0801 50.4098 18.0801 50.4098L18.1701 50.1398Z" fill="#FFFDFD"/>
<path d="M18.4843 50.8168C18.8377 50.8116 19.1216 50.6284 19.1184 50.4075C19.1152 50.1866 18.8261 50.0117 18.4727 50.0169C18.1193 50.022 17.8354 50.2052 17.8386 50.4261C17.8418 50.647 18.1309 50.8219 18.4843 50.8168Z" fill="#FFC931"/>
<path d="M19.0202 50.3299C19.0202 50.2599 18.9902 50.1899 18.9402 50.1399C19.0602 50.2099 19.1402 50.3099 19.1502 50.4299C19.1502 50.6499 18.8702 50.8399 18.5102 50.8399C18.2702 50.8399 18.0602 50.7599 17.9502 50.6399C18.0702 50.7099 18.2202 50.7499 18.3902 50.7399C18.7502 50.7399 19.0302 50.5499 19.0302 50.3299H19.0202Z" fill="#F7BC14"/>
<path d="M17.8301 50.4298C17.8301 50.2098 18.1101 50.0198 18.4701 50.0198C18.7001 50.0198 18.9001 50.0898 19.0201 50.1998C18.9001 50.1298 18.7501 50.0898 18.5801 50.0898C18.2201 50.0898 17.9401 50.2798 17.9401 50.4998C17.9401 50.5798 17.9801 50.6498 18.0401 50.7098C17.9201 50.6398 17.8401 50.5398 17.8301 50.4198V50.4298Z" fill="#FFD55F"/>
<path d="M18.1501 49.3699C18.1701 49.5799 18.2201 49.7699 18.2501 49.9699C18.3501 49.7799 18.2901 49.5199 18.1501 49.3699Z" fill="#EDEDED"/>
<path d="M18.8301 49.46C18.6701 49.57 18.5701 49.79 18.6401 49.98C18.7101 49.8 18.7801 49.65 18.8301 49.46Z" fill="#EDEDED"/>
<path d="M19.39 49.7698C19.21 49.7698 19.01 49.8898 18.98 50.0698C19.13 49.9598 19.26 49.8898 19.39 49.7698Z" fill="#EDEDED"/>
<path d="M17.1501 50.4698C17.3501 50.4698 17.5301 50.4498 17.7401 50.4298C17.5701 50.3098 17.3101 50.3398 17.1501 50.4698Z" fill="#EDEDED"/>
<path d="M17.3901 49.7397C17.5401 49.8897 17.6901 49.9997 17.8501 50.1397C17.8001 49.9297 17.6001 49.7697 17.3901 49.7397Z" fill="#EDEDED"/>
<path d="M53.24 16.7298C53.26 17.0498 53.53 17.2898 53.85 17.2698C53.87 17.2698 53.88 17.2698 53.9 17.2698C53.95 17.5498 54.2 17.7498 54.5 17.7398C54.8 17.7298 55.02 17.4898 55.04 17.1998C55.06 17.1998 55.09 17.1998 55.11 17.1998C55.43 17.1798 55.67 16.9098 55.65 16.5898C55.64 16.3598 55.49 16.1698 55.29 16.0898C55.31 16.0298 55.32 15.9698 55.31 15.8998C55.29 15.5798 55.02 15.3398 54.7 15.3598C54.57 15.3598 54.46 15.4198 54.37 15.4898C54.27 15.4298 54.15 15.3898 54.03 15.3998C53.71 15.4198 53.47 15.6898 53.49 16.0098C53.49 16.0798 53.51 16.1398 53.54 16.1998C53.36 16.3098 53.24 16.5098 53.25 16.7298H53.24Z" fill="#FFE94A"/>
<path d="M54.4401 16.8499C54.6389 16.8499 54.8001 16.6887 54.8001 16.4899C54.8001 16.2911 54.6389 16.1299 54.4401 16.1299C54.2413 16.1299 54.0801 16.2911 54.0801 16.4899C54.0801 16.6887 54.2413 16.8499 54.4401 16.8499Z" fill="#FFC931"/>
<path d="M17.4101 43.1699C17.4501 43.4899 17.7501 43.6999 18.0601 43.6599C18.0801 43.6599 18.0901 43.6599 18.1101 43.6499C18.1901 43.9199 18.4501 44.1099 18.7401 44.0699C19.0301 44.0299 19.2401 43.7799 19.2301 43.4899C19.2501 43.4899 19.2801 43.4899 19.3001 43.4899C19.6201 43.4499 19.8301 43.1499 19.7901 42.8399C19.7601 42.6099 19.6001 42.4399 19.3901 42.3699C19.4001 42.3099 19.4101 42.2499 19.3901 42.1799C19.3501 41.8599 19.0501 41.6499 18.7401 41.6899C18.6101 41.7099 18.5001 41.7699 18.4201 41.8499C18.3201 41.7899 18.1901 41.7699 18.0701 41.7899C17.7501 41.8299 17.5401 42.1299 17.5801 42.4399C17.5801 42.5099 17.6101 42.5699 17.6401 42.6199C17.4701 42.7399 17.3601 42.9499 17.4001 43.1699H17.4101Z" fill="#FFE94A"/>
<path d="M18.58 43.19C18.7788 43.19 18.94 43.0288 18.94 42.83C18.94 42.6311 18.7788 42.47 18.58 42.47C18.3811 42.47 18.22 42.6311 18.22 42.83C18.22 43.0288 18.3811 43.19 18.58 43.19Z" fill="#FFC931"/>
<path d="M25.6601 34.5398C25.6601 34.5398 26.6101 33.7298 26.0001 33.3598C26.0001 33.3598 25.6601 33.1498 25.5101 33.4898C25.5101 33.4898 25.1301 33.1198 24.8501 33.6198C24.5701 34.1198 25.6701 34.5398 25.6701 34.5398H25.6601Z" fill="#ACDE47"/>
<path d="M25.64 34.4397C25.64 34.1797 25.64 33.9297 25.54 33.6797C25.72 33.8797 25.73 34.1997 25.64 34.4397Z" fill="#EAFFB0"/>
<path d="M25.5901 34.5398C25.5901 34.5398 25.9901 35.7198 26.5601 35.2998C26.5601 35.2998 26.8801 35.0698 26.6301 34.7898C26.6301 34.7898 27.1101 34.5698 26.7601 34.1298C26.4101 33.6898 25.6001 34.5398 25.6001 34.5398H25.5901Z" fill="#ACDE47"/>
<path d="M25.6799 34.5598C25.9199 34.6598 26.1599 34.7398 26.4199 34.7498C26.1699 34.8398 25.8699 34.7398 25.6799 34.5598Z" fill="#EAFFB0"/>
<path d="M25.6601 34.5398C25.6601 34.5398 24.6301 33.8498 24.4301 34.5398C24.4301 34.5398 24.3201 34.9198 24.6901 34.9798C24.6901 34.9798 24.4401 35.4498 24.9901 35.5798C25.5401 35.7098 25.6601 34.5398 25.6601 34.5398Z" fill="#ACDE47"/>
<path d="M25.5901 34.6099C25.4201 34.8099 25.1401 34.9399 24.8801 34.8899C25.1401 34.8499 25.3601 34.7399 25.5901 34.6099Z" fill="#EAFFB0"/>
<path d="M22.32 39.6898C22.32 39.6898 22.97 38.1998 22.05 38.0998C22.05 38.0998 21.5401 38.0498 21.5401 38.5398C21.5401 38.5398 20.88 38.3298 20.83 39.0698C20.78 39.8098 22.32 39.6898 22.32 39.6898Z" fill="#8DC945"/>
<path d="M22.25 39.5797C22.1 39.2697 21.95 38.9797 21.7 38.7397C22.02 38.8797 22.22 39.2397 22.25 39.5797Z" fill="#EAFFB0"/>
<path d="M22.24 39.7297C22.24 39.7297 23.38 40.8997 23.81 40.0697C23.81 40.0697 24.05 39.6097 23.6 39.4297C23.6 39.4297 24.05 38.8997 23.38 38.5697C22.71 38.2397 22.24 39.7197 22.24 39.7197V39.7297Z" fill="#8DC945"/>
<path d="M22.3701 39.7098C22.7101 39.6898 23.0401 39.6498 23.3501 39.5198C23.1001 39.7698 22.6901 39.8198 22.3701 39.7098Z" fill="#EAFFB0"/>
<path d="M22.3299 39.6899C22.3299 39.6899 20.7099 39.4699 20.8799 40.3799C20.8799 40.3799 20.9699 40.8899 21.4399 40.7499C21.4399 40.7499 21.4099 41.4399 22.1399 41.2899C22.8699 41.1399 22.3399 39.6899 22.3399 39.6899H22.3299Z" fill="#8DC945"/>
<path d="M22.2801 39.8098C22.2001 40.1398 21.9401 40.4598 21.6001 40.5398C21.8801 40.3498 22.0901 40.0898 22.2801 39.8098Z" fill="#EAFFB0"/>
<path d="M23.61 36.9397C23.61 36.9397 22.17 39.4397 23.78 39.7797C23.78 39.7797 24.67 39.9697 24.76 39.1197C24.76 39.1197 25.88 39.6297 26.11 38.3297C26.34 37.0297 23.61 36.9397 23.61 36.9397Z" fill="#78C13B"/>
<path d="M23.72 37.1399C23.92 37.7199 24.13 38.2499 24.52 38.7199C23.98 38.4099 23.7 37.7399 23.72 37.1399Z" fill="#CBF36E"/>
<path d="M23.76 36.8798C23.76 36.8798 21.99 34.6098 21.06 35.9698C21.06 35.9698 20.55 36.7298 21.31 37.1298C21.31 37.1298 20.42 37.9797 21.53 38.6797C22.64 39.3797 23.75 36.8897 23.75 36.8897L23.76 36.8798Z" fill="#78C13B"/>
<path d="M23.54 36.8997C22.93 36.8697 22.35 36.8597 21.77 37.0497C22.26 36.6597 22.98 36.6497 23.54 36.8997Z" fill="#CBF36E"/>
<path d="M23.6002 36.9397C23.6002 36.9397 26.3902 37.6497 26.2902 36.0097C26.2902 36.0097 26.2302 35.0997 25.3802 35.2397C25.3802 35.2397 25.5602 34.0297 24.2602 34.1497C22.9602 34.2697 23.6002 36.9297 23.6002 36.9297V36.9397Z" fill="#78C13B"/>
<path d="M23.71 36.7298C23.92 36.1598 24.44 35.6498 25.05 35.5698C24.51 35.8598 24.11 36.2698 23.71 36.7298Z" fill="#CBF36E"/>
<path d="M41.0801 24.4699C41.4101 24.7999 41.5701 25.1199 41.4601 25.3499C41.4201 25.4399 41.3301 25.5099 41.2201 25.5499C40.8001 25.4999 40.3701 25.4399 39.9501 25.3499C39.7601 25.3099 39.5801 25.2699 39.3901 25.2199C38.8201 24.9399 38.3701 24.5699 38.1501 24.2399C38.1001 24.1599 38.0701 24.0899 38.0401 24.0199C37.8201 23.7399 37.7201 23.1799 37.8101 22.5699C37.8401 22.3399 37.8901 22.1299 37.9601 21.9499C38.1501 21.4299 38.4601 21.0899 38.7601 21.1299C39.0101 21.1599 39.1901 21.4399 39.2701 21.8499C39.2701 21.8999 39.2901 21.9599 39.3001 22.0099C39.8201 21.6699 40.3501 21.4699 40.7501 21.4399C41.0401 21.4199 41.2701 21.4899 41.3801 21.6499C41.6001 21.9699 41.2901 22.5799 40.6801 23.1199C40.6801 23.1199 40.6801 23.1199 40.6901 23.1199C42.1901 23.1199 43.4001 23.4099 43.4001 23.7899C43.4001 24.1299 42.3901 24.4199 41.0801 24.4799V24.4699Z" fill="#59AF38"/>
<path d="M52.1199 19.1798C52.3629 19.1798 52.5599 18.9828 52.5599 18.7398C52.5599 18.4968 52.3629 18.2998 52.1199 18.2998C51.8769 18.2998 51.6799 18.4968 51.6799 18.7398C51.6799 18.9828 51.8769 19.1798 52.1199 19.1798Z" fill="#ACDE47"/>
<path d="M23.57 49.0099C23.7302 49.0099 23.86 48.8801 23.86 48.7199C23.86 48.5598 23.7302 48.4299 23.57 48.4299C23.4099 48.4299 23.28 48.5598 23.28 48.7199C23.28 48.8801 23.4099 49.0099 23.57 49.0099Z" fill="#FFFDFD"/>
<path d="M16.53 48.54C16.6846 48.54 16.81 48.4146 16.81 48.26C16.81 48.1053 16.6846 47.98 16.53 47.98C16.3754 47.98 16.25 48.1053 16.25 48.26C16.25 48.4146 16.3754 48.54 16.53 48.54Z" fill="#FFE94A"/>
<path d="M57.59 17.9099C57.9269 17.9099 58.2 17.6368 58.2 17.2999C58.2 16.963 57.9269 16.6899 57.59 16.6899C57.2531 16.6899 56.98 16.963 56.98 17.2999C56.98 17.6368 57.2531 17.9099 57.59 17.9099Z" fill="#78C13B"/>
<path d="M36.62 26.9399C36.87 26.4599 36.91 25.9899 36.71 25.8899C36.54 25.7999 36.26 26.0099 36.03 26.3699C35.95 26.2499 35.84 26.1699 35.73 26.1799C35.51 26.1999 35.36 26.5399 35.39 26.9499C35.42 27.3599 35.63 27.6799 35.85 27.6599C35.87 27.6599 35.9 27.6599 35.92 27.6399C36.12 27.6199 36.41 27.3399 36.62 26.9399Z" fill="#ACDE47"/>
<path d="M21.3499 63.1799C21.5599 62.6799 21.5599 62.2099 21.3499 62.1199C21.1799 62.0499 20.9099 62.2799 20.7099 62.6599C20.6199 62.5399 20.5099 62.4799 20.3999 62.4999C20.1799 62.5399 20.0599 62.8899 20.1199 63.2999C20.1799 63.7099 20.4199 64.0099 20.6399 63.9699C20.6599 63.9699 20.6899 63.9599 20.7099 63.9499C20.9099 63.9199 21.1799 63.6099 21.3499 63.1899V63.1799Z" fill="#FFFDFD"/>
<path d="M17.6099 60.6498C17.4199 60.3498 17.3699 60.0498 17.4999 59.9698C17.5999 59.9098 17.7999 60.0198 17.9699 60.2398C18.0199 60.1598 18.0799 60.0998 18.1499 60.0998C18.2899 60.0998 18.4099 60.3098 18.4099 60.5798C18.4099 60.8498 18.2999 61.0598 18.1499 61.0598C18.1299 61.0598 18.1199 61.0598 18.0999 61.0598C17.9699 61.0598 17.7699 60.8898 17.6099 60.6398V60.6498Z" fill="#FFE94A"/>
<path d="M29.19 28.5898C28.31 28.9498 27.48 28.9398 27.33 28.5898C27.21 28.2798 27.61 27.8198 28.28 27.4698C28.08 27.3098 27.96 27.1098 28 26.9198C28.06 26.5398 28.69 26.3198 29.41 26.4398C30.13 26.5598 30.65 26.9698 30.58 27.3498C30.58 27.3898 30.56 27.4298 30.54 27.4698C30.48 27.8198 29.94 28.2898 29.2 28.5898H29.19Z" fill="#78C13B"/>
<path d="M113.52 21.59C113.97 21.1 114.73 21.06 115.2 21.51C115.23 21.53 115.24 21.56 115.27 21.59C115.73 21.21 116.4 21.2 116.84 21.61C117.28 22.02 117.33 22.69 116.98 23.17C117.02 23.2 117.06 23.22 117.09 23.25C117.57 23.69 117.59 24.45 117.13 24.94C116.8 25.29 116.33 25.4 115.9 25.28C115.85 25.4 115.78 25.51 115.69 25.61C115.24 26.1 114.48 26.14 114.01 25.69C113.82 25.51 113.7 25.29 113.66 25.05C113.42 25.02 113.18 24.93 112.99 24.75C112.51 24.31 112.49 23.55 112.95 23.06C113.05 22.96 113.16 22.88 113.27 22.82C113.12 22.41 113.2 21.93 113.52 21.59Z" fill="#F7FEEE"/>
<path d="M115.723 23.9212C116.008 23.6134 115.996 23.1387 115.697 22.8608C115.397 22.5829 114.923 22.6071 114.637 22.9149C114.352 23.2227 114.364 23.6974 114.663 23.9753C114.963 24.2532 115.437 24.229 115.723 23.9212Z" fill="#FFC931"/>
<path d="M118.99 30.8899C119.23 30.8099 119.49 30.9299 119.57 31.1699C119.57 31.1799 119.57 31.1999 119.57 31.2099C119.79 31.1599 120.02 31.2799 120.09 31.4999C120.16 31.7199 120.06 31.9499 119.85 32.0499C119.85 32.0699 119.87 32.0799 119.87 32.0999C119.95 32.3399 119.82 32.5899 119.58 32.6799C119.41 32.7399 119.23 32.6899 119.11 32.5699C119.07 32.5999 119.03 32.6299 118.98 32.6399C118.74 32.7199 118.48 32.5999 118.4 32.3599C118.37 32.2699 118.37 32.1699 118.4 32.0799C118.32 32.0299 118.26 31.9499 118.23 31.8599C118.15 31.6199 118.28 31.3699 118.52 31.2799C118.57 31.2599 118.62 31.2599 118.67 31.2599C118.69 31.0999 118.81 30.9499 118.98 30.8899H118.99Z" fill="#F7FEEE"/>
<path d="M119.309 32.0843C119.461 32.0321 119.543 31.8713 119.492 31.7251C119.442 31.5789 119.278 31.5027 119.127 31.5549C118.976 31.6071 118.894 31.7679 118.944 31.9141C118.994 32.0603 119.158 32.1365 119.309 32.0843Z" fill="#FFC931"/>
<path d="M99.6402 18.8601C99.5102 18.1401 99.9902 17.4501 100.7 17.3201C100.96 17.2701 101.21 17.3001 101.44 17.4001C101.62 17.2301 101.85 17.1101 102.1 17.0701C102.82 16.9401 103.51 17.4201 103.64 18.1301C103.69 18.3901 103.66 18.6401 103.56 18.8701C103.73 19.0501 103.85 19.2801 103.89 19.5301C104.02 20.2501 103.54 20.9401 102.83 21.0701C102.57 21.1201 102.32 21.0901 102.09 20.9901C101.91 21.1601 101.68 21.2801 101.43 21.3201C100.71 21.4501 100.02 20.9701 99.8902 20.2601C99.8402 20.0001 99.8702 19.7501 99.9702 19.5201C99.8002 19.3401 99.6802 19.1101 99.6402 18.8601Z" fill="#ACDE47"/>
<path d="M102.094 19.4468L102.142 19.3823C102.174 19.3378 102.165 19.2753 102.12 19.2426L101.532 18.8104C101.487 18.7777 101.425 18.7873 101.392 18.8318L101.345 18.8963C101.312 18.9408 101.322 19.0033 101.366 19.036L101.955 19.4682C101.999 19.5009 102.062 19.4913 102.094 19.4468Z" fill="#59AF38"/>
<path d="M101.444 19.4843L101.508 19.5316C101.553 19.5643 101.615 19.5547 101.648 19.5102L102.08 18.9219C102.113 18.8774 102.103 18.8148 102.059 18.7821L101.994 18.7347C101.95 18.702 101.887 18.7116 101.854 18.7561L101.422 19.3445C101.389 19.389 101.399 19.4516 101.444 19.4843Z" fill="#59AF38"/>
<path d="M127.87 58.1799C127.56 57.7899 127.63 57.2199 128.02 56.9099C128.16 56.7999 128.32 56.7399 128.49 56.7199C128.54 56.5599 128.64 56.4199 128.78 56.3099C129.17 55.9999 129.74 56.0699 130.05 56.4599C130.16 56.5999 130.22 56.7599 130.24 56.9299C130.4 56.9799 130.54 57.0799 130.65 57.2199C130.96 57.6099 130.89 58.1799 130.5 58.4899C130.36 58.5999 130.2 58.6599 130.03 58.6799C129.98 58.8399 129.88 58.9799 129.74 59.0899C129.35 59.3999 128.78 59.3299 128.47 58.9399C128.36 58.7999 128.3 58.6399 128.28 58.4699C128.12 58.4199 127.98 58.3199 127.87 58.1799Z" fill="#78C13B"/>
<path d="M129.043 57.5456C128.989 57.5374 128.938 57.5729 128.931 57.6248C128.923 57.6767 128.961 57.7254 129.015 57.7335L129.441 57.7969C129.495 57.8051 129.546 57.7696 129.554 57.7177C129.561 57.6658 129.523 57.6171 129.469 57.609L129.043 57.5456Z" fill="#FFFDFD"/>
<path d="M129.18 57.4445L129.116 57.8698C129.108 57.9245 129.144 57.975 129.196 57.9828C129.247 57.9905 129.296 57.9525 129.304 57.8979L129.368 57.4726C129.376 57.4179 129.34 57.3674 129.288 57.3596C129.237 57.3519 129.188 57.3899 129.18 57.4445Z" fill="#FFFDFD"/>
<path d="M126.66 59.5698C126.44 59.2898 126.49 58.8898 126.77 58.6698C126.87 58.5898 126.99 58.5498 127.1 58.5398C127.14 58.4298 127.21 58.3298 127.31 58.2498C127.59 58.0298 127.99 58.0798 128.21 58.3598C128.29 58.4598 128.33 58.5798 128.34 58.6898C128.45 58.7298 128.55 58.7998 128.63 58.8998C128.85 59.1798 128.8 59.5798 128.52 59.7998C128.42 59.8798 128.3 59.9198 128.19 59.9298C128.15 60.0398 128.08 60.1398 127.98 60.2198C127.7 60.4398 127.3 60.3898 127.08 60.1098C127 60.0098 126.96 59.8898 126.95 59.7798C126.84 59.7398 126.74 59.6698 126.66 59.5698Z" fill="#ACDE47"/>
<path d="M127.756 59.2947C127.794 59.3004 127.83 59.274 127.836 59.2357C127.841 59.1975 127.815 59.1619 127.777 59.1562L127.47 59.1105C127.432 59.1048 127.396 59.1311 127.391 59.1694C127.385 59.2076 127.411 59.2432 127.449 59.2489L127.756 59.2947Z" fill="#59AF38"/>
<path d="M127.535 59.3459C127.529 59.3841 127.556 59.4198 127.594 59.4255C127.632 59.4312 127.668 59.4048 127.674 59.3666L127.719 59.0599C127.725 59.0217 127.699 58.9861 127.66 58.9804C127.622 58.9747 127.587 59.0011 127.581 59.0393L127.535 59.3459Z" fill="#59AF38"/>
<path d="M124.26 45.96L124.31 46.01C124.38 46.09 124.42 46.18 124.44 46.29V46.36C124.46 46.46 124.59 46.51 124.66 46.44L124.71 46.39C124.79 46.32 124.88 46.28 124.99 46.26H125.06C125.16 46.24 125.21 46.11 125.14 46.04L125.09 45.99C125.02 45.91 124.98 45.82 124.96 45.71V45.64C124.94 45.54 124.81 45.49 124.74 45.56L124.69 45.61C124.61 45.68 124.52 45.72 124.41 45.74H124.34C124.24 45.76 124.19 45.89 124.26 45.96Z" fill="#78C13B"/>
<path d="M130.13 53.68L130.37 53.71C130.47 53.72 130.57 53.76 130.65 53.83L130.83 53.99H130.84L130.87 53.75C130.88 53.65 130.92 53.55 130.99 53.47L131.15 53.29V53.28L130.91 53.25C130.81 53.24 130.71 53.2 130.63 53.13L130.45 52.97H130.44L130.41 53.21C130.4 53.31 130.36 53.41 130.29 53.49L130.13 53.67V53.68Z" fill="#ACDE47"/>
<path d="M106.122 17.3687L106.023 17.388C105.996 17.3934 105.979 17.4197 105.984 17.4468L106.282 18.9577C106.287 18.9848 106.313 19.0025 106.34 18.9971L106.438 18.9778C106.465 18.9725 106.483 18.9462 106.478 18.9191L106.18 17.4081C106.175 17.381 106.149 17.3634 106.122 17.3687Z" fill="#78C13B"/>
<path d="M105.445 17.9141L105.422 18.0116C105.416 18.0385 105.433 18.0653 105.46 18.0715L106.961 18.4166C106.988 18.4228 107.014 18.406 107.021 18.3791L107.043 18.2816C107.049 18.2547 107.032 18.2279 107.006 18.2217L105.505 17.8766C105.478 17.8704 105.451 17.8872 105.445 17.9141Z" fill="#78C13B"/>
<path d="M127.06 54.3951L127.055 54.4648C127.052 54.4923 127.073 54.5165 127.1 54.5189L128.386 54.6277C128.413 54.63 128.437 54.6096 128.44 54.5821L128.445 54.5124C128.448 54.4848 128.427 54.4606 128.4 54.4583L127.114 54.3495C127.087 54.3471 127.063 54.3676 127.06 54.3951Z" fill="#FFC931"/>
<path d="M127.963 53.8882L127.339 55.0173C127.326 55.0414 127.335 55.0719 127.359 55.0852L127.42 55.1191C127.444 55.1324 127.475 55.1237 127.488 55.0995L128.112 53.9705C128.126 53.9463 128.117 53.9159 128.093 53.9025L128.031 53.8687C128.007 53.8553 127.977 53.8641 127.963 53.8882Z" fill="#FFC931"/>
<path d="M126.286 42.2711C126.28 42.2162 126.23 42.1767 126.176 42.1828C126.121 42.1889 126.081 42.2383 126.087 42.2932L126.247 43.7244C126.253 43.7793 126.302 43.8188 126.357 43.8127C126.412 43.8066 126.452 43.7571 126.446 43.7022L126.286 42.2711Z" fill="#78C13B"/>
<path d="M125.615 42.6422C125.562 42.6254 125.506 42.6544 125.489 42.707C125.472 42.7596 125.501 42.8159 125.554 42.8327L126.926 43.2712C126.978 43.288 127.034 43.259 127.051 43.2064C127.068 43.1538 127.039 43.0975 126.986 43.0807L125.615 42.6422Z" fill="#78C13B"/>
<path d="M121.758 31.2144C121.782 31.2448 121.826 31.2501 121.856 31.2261C121.887 31.2022 121.892 31.1582 121.868 31.1279L121.256 30.3499C121.232 30.3195 121.188 30.3142 121.157 30.3381C121.127 30.362 121.122 30.406 121.146 30.4364L121.758 31.2144Z" fill="#FFE94A"/>
<path d="M122.002 30.7214C122.04 30.712 122.062 30.674 122.053 30.6365C122.044 30.599 122.005 30.5762 121.968 30.5857L121.008 30.8272C120.97 30.8366 120.948 30.8747 120.957 30.9122C120.967 30.9496 121.005 30.9724 121.042 30.963L122.002 30.7214Z" fill="#FFE94A"/>
<path d="M98.0362 15.15L97.9077 15.1298C97.8586 15.122 97.8126 15.1555 97.8048 15.2046L97.4275 17.595C97.4197 17.6441 97.4533 17.6902 97.5024 17.698L97.6308 17.7182C97.6799 17.726 97.726 17.6925 97.7337 17.6434L98.111 15.253C98.1188 15.2039 98.0852 15.1578 98.0362 15.15Z" fill="#FFFDFD"/>
<path d="M99.0545 16.0683L99.0205 15.9428C99.0076 15.8949 98.9582 15.8665 98.9102 15.8794L96.574 16.5107C96.526 16.5236 96.4976 16.573 96.5106 16.621L96.5445 16.7465C96.5574 16.7945 96.6068 16.8229 96.6548 16.8099L98.991 16.1787C99.039 16.1657 99.0674 16.1163 99.0545 16.0683Z" fill="#FFFDFD"/>
<path d="M125.17 50.3901C125.41 49.8201 126.34 49.6201 126.69 50.1801C126.13 50.0801 125.73 50.2201 125.17 50.3901Z" fill="#6FB64E"/>
<path d="M129.42 50.6099C129.64 50.6799 129.8 50.8399 129.74 51.0299C129.7 51.1099 129.6 51.1899 129.58 51.2599C129.56 51.3299 129.59 51.3999 129.65 51.4799C129.76 51.6299 129.79 51.8199 129.73 51.9899C129.65 52.1999 129.23 52.3999 129.14 52.1799C129.14 51.9299 129.05 51.8699 129.07 51.7699C129.11 51.6499 129.18 51.5599 129.3 51.4599C129.36 51.3999 129.4 51.3299 129.38 51.2599C129.36 51.1899 129.25 51.1299 129.2 51.0699C129.15 51.0099 129.17 50.9399 129.2 50.8799C129.27 50.7399 129.31 50.7399 129.42 50.6099Z" fill="#7EC600"/>
<path d="M128.86 50.3699C128.86 50.3699 128 49.9699 127.85 50.4099C127.7 50.8499 128.92 50.6299 128.92 50.6299L128.86 50.3699Z" fill="#FFFDFD"/>
<path d="M128.81 50.5999C128.81 50.5999 127.96 50.7699 128.09 51.1799C128.22 51.5899 129 50.7599 129 50.7599L128.82 50.5999H128.81Z" fill="#FFFDFD"/>
<path d="M128.92 50.7C128.92 50.7 128.38 51.38 128.74 51.61C129.1 51.84 129.16 50.7099 129.16 50.7099H128.91L128.92 50.7Z" fill="#FFFDFD"/>
<path d="M129.12 50.83C129.12 50.83 129.06 51.7 129.49 51.68C129.92 51.66 129.33 50.7 129.33 50.7L129.12 50.83Z" fill="#FFFDFD"/>
<path d="M129.6 50.73C129.6 50.73 130.34 51.12 130.1 51.46C129.86 51.8 129.38 50.83 129.38 50.83L129.59 50.73H129.6Z" fill="#FFFDFD"/>
<path d="M127.96 50.4201C128.14 50.3201 128.39 50.3301 128.55 50.4801C128.35 50.4601 128.16 50.4601 127.96 50.4201Z" fill="#EDEDED"/>
<path d="M130.01 51.3899C129.87 51.2499 129.76 51.0899 129.64 50.9399C129.85 50.9799 129.99 51.1899 130.01 51.3899Z" fill="#EDEDED"/>
<path d="M130.41 51.08C130.23 51 130.07 50.8899 129.9 50.7899C130.11 50.7599 130.32 50.89 130.41 51.08Z" fill="#EDEDED"/>
<path d="M128.19 51.1499C128.27 50.9599 128.47 50.8099 128.68 50.8299C128.51 50.9399 128.36 51.0599 128.19 51.1499Z" fill="#EDEDED"/>
<path d="M128.82 51.5C128.75 51.32 128.79 51.09 128.95 50.98C128.9 51.17 128.88 51.33 128.82 51.5Z" fill="#EDEDED"/>
<path d="M129.5 51.53C129.34 51.43 129.23 51.21 129.3 51.03C129.37 51.21 129.44 51.35 129.5 51.53Z" fill="#EDEDED"/>
<path d="M125.36 49.79C125.53 49.23 125.68 48.84 125.58 48.27C126.14 48.63 125.93 49.55 125.36 49.79Z" fill="#6FB64E"/>
<path d="M127.98 48.31C127.8 48.56 127.54 48.77 127.24 48.85C127.09 48.88 126.9 48.8499 126.76 48.9199C126.47 49.0299 126.34 49.39 126.14 49.6C125.86 49.99 125.58 50.13 125.23 50.52H125.16C124.99 50.18 125.11 49.74 125.33 49.46C125.5 49.25 125.72 49.12 125.95 49.01C126.18 48.93 126.45 48.9 126.64 48.74C126.77 48.64 126.86 48.48 126.99 48.37C127.24 48.18 127.6 48.12 127.91 48.22C128.01 48.26 128.01 48.25 127.97 48.32L127.98 48.31Z" fill="#7EC600"/>
<path d="M128.2 47.61C128.2 47.61 129.4 46.64 128.77 46.09C128.14 45.54 127.74 47.5 127.74 47.5L128.21 47.61H128.2Z" fill="#FFFDFD"/>
<path d="M128.32 47.4699C128.32 47.4699 129.13 46.4699 129.59 47.0099C130.05 47.5499 128.41 47.8599 128.41 47.8599L128.32 47.4699Z" fill="#FFFDFD"/>
<path d="M128.69 47.7699C128.69 47.7699 129.9 47.3299 130.02 48.0099C130.14 48.6899 128.57 48.1499 128.57 48.1499L128.69 47.7699Z" fill="#FFFDFD"/>
<path d="M128.72 48.1599C128.72 48.1599 130.21 48.4999 129.96 49.2199C129.71 49.9399 128.39 48.4399 128.39 48.4399L128.72 48.1599Z" fill="#FFFDFD"/>
<path d="M128.56 48.49C128.56 48.49 129.47 49.55 128.9 49.94C128.33 50.33 128.17 48.51 128.17 48.51L128.57 48.49H128.56Z" fill="#FFFDFD"/>
<path d="M128.32 48.52C128.32 48.52 128.33 49.92 127.64 49.85C126.95 49.78 128 48.28 128 48.28L128.32 48.52Z" fill="#FFFDFD"/>
<path d="M127.93 48.4799C127.93 48.4799 127.15 49.6399 126.62 49.1899C126.09 48.7399 127.8 48.0999 127.8 48.0999L127.93 48.4699V48.4799Z" fill="#FFFDFD"/>
<path d="M127.43 47.8799C127.43 47.8799 126.11 47.6499 126.06 48.3099C126.01 48.9699 127.6 48.2199 127.6 48.2199L127.43 47.8799Z" fill="#FFFDFD"/>
<path d="M127.28 47.4799C127.28 47.4799 126.08 46.8199 125.81 47.4499C125.54 48.0799 127.33 47.8599 127.33 47.8599L127.27 47.4799H127.28Z" fill="#FFFDFD"/>
<path d="M127.16 47.4399C127.16 47.4399 125.81 47.1799 126.01 46.5299C126.21 45.8799 127.45 47.1799 127.45 47.1799L127.16 47.4399Z" fill="#FFFDFD"/>
<path d="M127.91 47.28C127.91 47.28 128.02 45.68 127.21 45.72C126.4 45.76 127.53 47.53 127.53 47.53L127.92 47.27L127.91 47.28Z" fill="#FFFDFD"/>
<path d="M128.866 48.569C129.083 48.2832 128.889 47.7698 128.432 47.4221C127.974 47.0744 127.428 47.0242 127.21 47.31C126.993 47.5957 127.188 48.1092 127.645 48.4569C128.102 48.8046 128.649 48.8548 128.866 48.569Z" fill="#FFC931"/>
<path d="M128.8 48.3599C128.87 48.2699 128.89 48.1599 128.88 48.0299C128.97 48.2499 128.97 48.4499 128.85 48.5999C128.63 48.8899 128.09 48.8399 127.63 48.4899C127.32 48.2499 127.13 47.9399 127.11 47.6699C127.19 47.8699 127.35 48.0799 127.57 48.2399C128.03 48.5899 128.57 48.6399 128.79 48.3499L128.8 48.3599Z" fill="#F7BC14"/>
<path d="M127.19 47.3001C127.41 47.0101 127.95 47.0601 128.41 47.4101C128.7 47.6301 128.89 47.9201 128.92 48.1801C128.84 47.9801 128.68 47.7701 128.46 47.6001C128 47.2501 127.46 47.2001 127.24 47.4901C127.16 47.5901 127.14 47.7201 127.16 47.8601C127.07 47.6501 127.07 47.4401 127.19 47.2901V47.3001Z" fill="#FFD55F"/>
<path d="M128.66 46.29C128.64 46.62 128.48 46.98 128.19 47.16C128.38 46.89 128.51 46.59 128.66 46.29Z" fill="#EDEDED"/>
<path d="M129.43 47.0701C129.17 47.2201 128.91 47.3501 128.68 47.5401C128.81 47.2601 129.13 47.0901 129.43 47.0701Z" fill="#EDEDED"/>
<path d="M129.82 48.0199C129.54 47.9999 129.28 47.9599 128.99 47.9899C129.23 47.8299 129.58 47.8699 129.82 48.0199Z" fill="#EDEDED"/>
<path d="M129.81 49.1099C129.55 48.9299 129.3 48.7399 129.01 48.5999C129.34 48.5999 129.65 48.8299 129.81 49.1099Z" fill="#EDEDED"/>
<path d="M126.25 48.31C126.5 48.11 126.86 48 127.18 48.1C126.86 48.13 126.56 48.22 126.25 48.31Z" fill="#EDEDED"/>
<path d="M126.05 47.51C126.36 47.41 126.74 47.44 126.99 47.66C126.68 47.57 126.37 47.55 126.05 47.51Z" fill="#EDEDED"/>
<path d="M126.29 46.6899C126.61 46.7299 126.94 46.9199 127.07 47.2299C126.83 47.0199 126.55 46.8599 126.29 46.6899Z" fill="#EDEDED"/>
<path d="M128.81 49.8099C128.72 49.5099 128.64 49.1999 128.5 48.9099C128.75 49.1199 128.85 49.4899 128.81 49.8099Z" fill="#EDEDED"/>
<path d="M127.66 49.6301C127.79 49.3701 127.93 49.1201 128.01 48.8301C128.06 49.1301 127.9 49.4501 127.66 49.6301Z" fill="#EDEDED"/>
<path d="M126.76 49.0001C127.02 48.8601 127.28 48.7401 127.51 48.5601C127.38 48.8401 127.06 48.9901 126.76 49.0001Z" fill="#EDEDED"/>
<path d="M127.32 45.99C127.52 46.26 127.62 46.64 127.51 46.96C127.49 46.63 127.4 46.31 127.32 45.99Z" fill="#EDEDED"/>
<path d="M129.32 50.3C129.32 50.3 129.11 49.37 129.62 49.34C130.13 49.31 129.58 50.42 129.58 50.42L129.31 50.29L129.32 50.3Z" fill="#FFFDFD"/>
<path d="M129.32 50.19C129.32 50.19 129.3 49.39 128.88 49.48C128.46 49.57 129.13 50.35 129.13 50.35L129.32 50.19Z" fill="#FFFDFD"/>
<path d="M129.02 50.2C129.02 50.2 128.6 49.52 128.28 49.81C127.96 50.1 128.94 50.43 128.94 50.43L129.03 50.2H129.02Z" fill="#FFFDFD"/>
<path d="M129.82 50.5901C129.82 50.5901 130.66 50.7301 130.55 51.1401C130.44 51.5501 129.65 50.7601 129.65 50.7601L129.83 50.5901H129.82Z" fill="#FFFDFD"/>
<path d="M129.9 50.6199C129.9 50.6199 130.66 51.0099 130.81 50.6199C130.96 50.2299 129.86 50.3899 129.86 50.3899L129.9 50.6299V50.6199Z" fill="#FFFDFD"/>
<path d="M129.59 50.2499C129.59 50.2499 130.15 49.4299 130.53 49.7599C130.91 50.0899 129.68 50.5199 129.68 50.5199L129.59 50.2499Z" fill="#FFFDFD"/>
<path d="M129.928 50.5346C129.931 50.3137 129.647 50.1305 129.293 50.1254C128.94 50.1202 128.651 50.2952 128.648 50.5161C128.644 50.737 128.928 50.9202 129.282 50.9253C129.635 50.9304 129.924 50.7555 129.928 50.5346Z" fill="#FFC931"/>
<path d="M128.74 50.44C128.74 50.37 128.77 50.3 128.82 50.25C128.7 50.32 128.62 50.42 128.61 50.54C128.61 50.76 128.89 50.95 129.25 50.95C129.49 50.95 129.7 50.87 129.81 50.75C129.69 50.82 129.54 50.86 129.37 50.85C129.01 50.85 128.73 50.66 128.73 50.44H128.74Z" fill="#F7BC14"/>
<path d="M129.93 50.5399C129.93 50.3199 129.65 50.1299 129.29 50.1299C129.06 50.1299 128.86 50.1999 128.74 50.3099C128.86 50.2399 129.01 50.1999 129.18 50.1999C129.54 50.1999 129.82 50.3899 129.82 50.6099C129.82 50.6899 129.78 50.7599 129.72 50.8199C129.84 50.7499 129.92 50.6499 129.93 50.5299V50.5399Z" fill="#FFD55F"/>
<path d="M129.61 49.48C129.59 49.69 129.54 49.88 129.51 50.08C129.41 49.89 129.47 49.63 129.61 49.48Z" fill="#EDEDED"/>
<path d="M128.93 49.5701C129.09 49.6801 129.19 49.9001 129.12 50.0901C129.05 49.9101 128.98 49.7601 128.93 49.5701Z" fill="#EDEDED"/>
<path d="M128.38 49.8799C128.56 49.8799 128.76 49.9999 128.79 50.1799C128.64 50.0699 128.51 49.9999 128.38 49.8799Z" fill="#EDEDED"/>
<path d="M130.61 50.5799C130.41 50.5799 130.23 50.5599 130.02 50.5399C130.19 50.4199 130.45 50.4499 130.61 50.5799Z" fill="#EDEDED"/>
<path d="M130.38 49.8499C130.23 49.9999 130.08 50.1099 129.92 50.2499C129.97 50.0399 130.17 49.8799 130.38 49.8499Z" fill="#EDEDED"/>
<path d="M94.52 16.8399C94.5 17.1599 94.2301 17.3999 93.9101 17.3799C93.8901 17.3799 93.8801 17.3799 93.8601 17.3799C93.8101 17.6599 93.5601 17.8599 93.2601 17.8499C92.9601 17.8399 92.7401 17.5999 92.7201 17.3099C92.7001 17.3099 92.6701 17.3099 92.6501 17.3099C92.3301 17.2899 92.0901 17.0199 92.1101 16.6999C92.1201 16.4699 92.2701 16.2799 92.4701 16.1999C92.4501 16.1399 92.44 16.0799 92.45 16.0099C92.47 15.6899 92.74 15.4499 93.06 15.4699C93.19 15.4699 93.3 15.5299 93.39 15.5999C93.49 15.5399 93.6101 15.4999 93.7301 15.5099C94.0501 15.5299 94.29 15.7999 94.27 16.1199C94.27 16.1899 94.2501 16.2499 94.2201 16.3099C94.4001 16.4199 94.5201 16.6199 94.5101 16.8399H94.52Z" fill="#FFE94A"/>
<path d="M93.33 16.95C93.5288 16.95 93.69 16.7888 93.69 16.59C93.69 16.3912 93.5288 16.23 93.33 16.23C93.1311 16.23 92.97 16.3912 92.97 16.59C92.97 16.7888 93.1311 16.95 93.33 16.95Z" fill="#FFC931"/>
<path d="M130.35 43.28C130.31 43.6 130.01 43.81 129.7 43.77C129.68 43.77 129.67 43.77 129.65 43.76C129.57 44.03 129.31 44.22 129.02 44.18C128.73 44.14 128.52 43.89 128.53 43.6C128.51 43.6 128.48 43.6 128.46 43.6C128.14 43.56 127.93 43.26 127.97 42.95C128 42.72 128.16 42.55 128.37 42.48C128.36 42.42 128.35 42.36 128.37 42.29C128.41 41.97 128.71 41.76 129.02 41.8C129.15 41.82 129.26 41.88 129.34 41.96C129.44 41.9 129.57 41.88 129.69 41.9C130.01 41.94 130.22 42.24 130.18 42.55C130.18 42.62 130.15 42.68 130.12 42.73C130.29 42.85 130.4 43.06 130.36 43.28H130.35Z" fill="#FFE94A"/>
<path d="M129.18 43.3001C129.379 43.3001 129.54 43.1389 129.54 42.9401C129.54 42.7413 129.379 42.5801 129.18 42.5801C128.981 42.5801 128.82 42.7413 128.82 42.9401C128.82 43.1389 128.981 43.3001 129.18 43.3001Z" fill="#FFC931"/>
<path d="M122.1 34.6499C122.1 34.6499 121.15 33.8399 121.76 33.4699C121.76 33.4699 122.1 33.2599 122.25 33.5999C122.25 33.5999 122.63 33.2299 122.91 33.7299C123.19 34.2299 122.09 34.6499 122.09 34.6499H122.1Z" fill="#ACDE47"/>
<path d="M122.12 34.5498C122.12 34.2898 122.12 34.0398 122.22 33.7898C122.04 33.9898 122.03 34.3098 122.12 34.5498Z" fill="#EAFFB0"/>
<path d="M122.17 34.6499C122.17 34.6499 121.77 35.8299 121.2 35.4099C121.2 35.4099 120.88 35.1799 121.13 34.8999C121.13 34.8999 120.65 34.6799 121 34.2399C121.35 33.7999 122.16 34.6499 122.16 34.6499H122.17Z" fill="#ACDE47"/>
<path d="M122.08 34.6699C121.84 34.7699 121.6 34.8499 121.34 34.8599C121.59 34.9499 121.89 34.8499 122.08 34.6699Z" fill="#EAFFB0"/>
<path d="M122.1 34.6499C122.1 34.6499 123.13 33.9599 123.33 34.6499C123.33 34.6499 123.44 35.0299 123.07 35.0899C123.07 35.0899 123.32 35.5599 122.77 35.6899C122.22 35.8199 122.1 34.6499 122.1 34.6499Z" fill="#ACDE47"/>
<path d="M122.17 34.72C122.34 34.92 122.62 35.05 122.88 35C122.62 34.96 122.4 34.85 122.17 34.72Z" fill="#EAFFB0"/>
<path d="M125.44 39.7999C125.44 39.7999 124.79 38.3099 125.71 38.2099C125.71 38.2099 126.22 38.1599 126.22 38.6499C126.22 38.6499 126.88 38.4399 126.93 39.1799C126.98 39.9199 125.44 39.7999 125.44 39.7999Z" fill="#8DC945"/>
<path d="M125.51 39.6899C125.66 39.3799 125.81 39.0899 126.06 38.8499C125.74 38.9899 125.54 39.3499 125.51 39.6899Z" fill="#EAFFB0"/>
<path d="M125.52 39.8398C125.52 39.8398 124.38 41.0098 123.95 40.1798C123.95 40.1798 123.71 39.7198 124.16 39.5398C124.16 39.5398 123.71 39.0098 124.38 38.6798C125.05 38.3498 125.52 39.8298 125.52 39.8298V39.8398Z" fill="#8DC945"/>
<path d="M125.4 39.8199C125.06 39.7999 124.73 39.7599 124.42 39.6299C124.67 39.8799 125.08 39.9299 125.4 39.8199Z" fill="#EAFFB0"/>
<path d="M125.44 39.8C125.44 39.8 127.06 39.58 126.89 40.49C126.89 40.49 126.8 41 126.33 40.86C126.33 40.86 126.36 41.55 125.63 41.4C124.9 41.25 125.43 39.8 125.43 39.8H125.44Z" fill="#8DC945"/>
<path d="M125.48 39.9199C125.56 40.2499 125.82 40.5699 126.16 40.6499C125.88 40.4599 125.67 40.1999 125.48 39.9199Z" fill="#EAFFB0"/>
<path d="M124.15 37.0498C124.15 37.0498 125.59 39.5498 123.98 39.8898C123.98 39.8898 123.09 40.0798 123 39.2298C123 39.2298 121.88 39.7398 121.65 38.4398C121.42 37.1398 124.15 37.0498 124.15 37.0498Z" fill="#78C13B"/>
<path d="M124.04 37.25C123.84 37.83 123.63 38.36 123.24 38.83C123.78 38.52 124.06 37.85 124.04 37.25Z" fill="#CBF36E"/>
<path d="M124 36.9899C124 36.9899 125.77 34.7199 126.7 36.0799C126.7 36.0799 127.21 36.8399 126.45 37.2399C126.45 37.2399 127.34 38.0899 126.23 38.7899C125.12 39.4899 124.01 36.9999 124.01 36.9999L124 36.9899Z" fill="#78C13B"/>
<path d="M124.23 37.0098C124.84 36.9798 125.42 36.9698 126 37.1598C125.51 36.7698 124.79 36.7598 124.23 37.0098Z" fill="#CBF36E"/>
<path d="M124.16 37.0498C124.16 37.0498 121.37 37.7598 121.47 36.1198C121.47 36.1198 121.53 35.2098 122.38 35.3498C122.38 35.3498 122.2 34.1398 123.5 34.2598C124.8 34.3798 124.16 37.0398 124.16 37.0398V37.0498Z" fill="#78C13B"/>
<path d="M124.05 36.8399C123.84 36.2699 123.32 35.7599 122.71 35.6799C123.25 35.9699 123.65 36.3799 124.05 36.8399Z" fill="#CBF36E"/>
<path d="M106.68 24.58C106.35 24.91 106.19 25.23 106.3 25.46C106.34 25.55 106.43 25.62 106.54 25.66C106.96 25.61 107.39 25.55 107.81 25.46C108 25.42 108.18 25.38 108.37 25.33C108.94 25.05 109.39 24.68 109.61 24.35C109.66 24.27 109.69 24.2 109.72 24.13C109.94 23.85 110.04 23.29 109.95 22.68C109.92 22.45 109.87 22.24 109.8 22.06C109.61 21.54 109.3 21.2 109 21.24C108.75 21.27 108.57 21.55 108.49 21.96C108.49 22.01 108.47 22.07 108.46 22.12C107.94 21.78 107.41 21.58 107.01 21.55C106.72 21.53 106.49 21.6 106.38 21.76C106.16 22.08 106.47 22.69 107.08 23.23C107.08 23.23 107.08 23.23 107.07 23.23C105.57 23.23 104.36 23.52 104.36 23.9C104.36 24.24 105.37 24.53 106.68 24.59V24.58Z" fill="#59AF38"/>
<path d="M95.64 19.2899C95.883 19.2899 96.08 19.0929 96.08 18.8499C96.08 18.6069 95.883 18.4099 95.64 18.4099C95.3969 18.4099 95.2 18.6069 95.2 18.8499C95.2 19.0929 95.3969 19.2899 95.64 19.2899Z" fill="#ACDE47"/>
<path d="M124.19 49.12C124.35 49.12 124.48 48.9902 124.48 48.83C124.48 48.6699 124.35 48.54 124.19 48.54C124.03 48.54 123.9 48.6699 123.9 48.83C123.9 48.9902 124.03 49.12 124.19 49.12Z" fill="#FFFDFD"/>
<path d="M131.23 48.6501C131.385 48.6501 131.51 48.5247 131.51 48.3701C131.51 48.2154 131.385 48.0901 131.23 48.0901C131.075 48.0901 130.95 48.2154 130.95 48.3701C130.95 48.5247 131.075 48.6501 131.23 48.6501Z" fill="#FFE94A"/>
<path d="M90.1701 18.0201C90.507 18.0201 90.7801 17.7469 90.7801 17.41C90.7801 17.0732 90.507 16.8 90.1701 16.8C89.8332 16.8 89.5601 17.0732 89.5601 17.41C89.5601 17.7469 89.8332 18.0201 90.1701 18.0201Z" fill="#78C13B"/>
<path d="M111.14 27.05C110.89 26.57 110.85 26.1 111.05 26C111.22 25.91 111.5 26.12 111.73 26.48C111.81 26.36 111.92 26.28 112.03 26.29C112.25 26.31 112.4 26.65 112.37 27.06C112.34 27.47 112.13 27.79 111.91 27.77C111.89 27.77 111.86 27.77 111.84 27.75C111.64 27.73 111.35 27.45 111.14 27.05Z" fill="#ACDE47"/>
<path d="M126.41 63.29C126.2 62.79 126.2 62.32 126.41 62.23C126.58 62.16 126.85 62.39 127.05 62.77C127.14 62.65 127.25 62.59 127.36 62.61C127.58 62.65 127.7 63 127.64 63.41C127.58 63.82 127.34 64.12 127.12 64.08C127.1 64.08 127.07 64.07 127.05 64.06C126.85 64.03 126.58 63.72 126.41 63.3V63.29Z" fill="#FFFDFD"/>
<path d="M130.15 60.7599C130.34 60.4599 130.39 60.1599 130.26 60.0799C130.16 60.0199 129.96 60.1299 129.79 60.3499C129.74 60.2699 129.68 60.2099 129.61 60.2099C129.47 60.2099 129.35 60.4199 129.35 60.6899C129.35 60.9599 129.46 61.1699 129.61 61.1699C129.63 61.1699 129.64 61.1699 129.66 61.1699C129.79 61.1699 129.99 60.9999 130.15 60.7499V60.7599Z" fill="#FFE94A"/>
<path d="M118.57 28.6999C119.45 29.0599 120.28 29.0499 120.43 28.6999C120.55 28.3899 120.15 27.9299 119.48 27.5799C119.68 27.4199 119.8 27.2199 119.76 27.0299C119.7 26.6499 119.07 26.4299 118.35 26.5499C117.63 26.6699 117.11 27.0799 117.18 27.4599C117.18 27.4999 117.2 27.5399 117.22 27.5799C117.28 27.9299 117.82 28.3999 118.56 28.6999H118.57Z" fill="#78C13B"/>
</svg>
