<svg width="148" height="148" viewBox="0 0 148 148" fill="none" xmlns="http://www.w3.org/2000/svg">
<path d="M138 51.57C138 28.61 119.39 10 96.43 10C88.16 10 80.47 12.42 74 16.58C67.53 12.42 59.83 10 51.57 10C28.61 10 10 28.61 10 51.57C10 59.84 12.42 67.53 16.58 74C12.42 80.47 10 88.17 10 96.43C10 119.39 28.61 138 51.57 138C59.84 138 67.53 135.58 74 131.42C80.47 135.58 88.17 138 96.43 138C119.39 138 138 119.39 138 96.43C138 88.16 135.58 80.47 131.42 74C135.58 67.53 138 59.83 138 51.57Z" fill="#FDFBEF"/>
<path d="M32.8601 114.53C32.8601 114.53 28.0901 113.76 28.5101 116.48C28.5101 116.48 28.7401 117.99 30.1301 117.62C30.1301 117.62 30.0001 119.67 32.1701 119.27C34.3301 118.87 32.8601 114.53 32.8601 114.53Z" fill="#78C13B"/>
<path d="M32.6101 114.81C31.8301 115.46 31.1101 116.12 30.6101 117C30.7701 115.97 31.6501 115.13 32.6101 114.81Z" fill="#CBF36E"/>
<path d="M33.04 114.72C33.04 114.72 35.55 110.59 32.87 109.96C32.87 109.96 31.38 109.61 31.2 111.04C31.2 111.04 29.35 110.15 28.91 112.31C28.47 114.47 33.04 114.73 33.04 114.73V114.72Z" fill="#78C13B"/>
<path d="M32.8701 114.38C32.5601 113.41 32.2201 112.5 31.5901 111.7C32.4801 112.23 32.9301 113.37 32.8701 114.38Z" fill="#CBF36E"/>
<path d="M32.8501 114.51C32.8501 114.51 33.3901 119.31 35.9001 118.17C35.9001 118.17 37.2901 117.54 36.5601 116.3C36.5601 116.3 38.5701 115.87 37.6001 113.89C36.6301 111.91 32.8501 114.51 32.8501 114.51Z" fill="#78C13B"/>
<path d="M33.24 114.56C34.25 114.56 35.36 115.06 35.85 115.98C35.08 115.31 34.19 114.92 33.24 114.56Z" fill="#CBF36E"/>
<path d="M38.2901 122.07C38.2901 122.07 36.0601 123.41 37.1701 124.38C37.1701 124.38 37.7901 124.92 38.2401 124.29C38.2401 124.29 38.9001 125.18 39.6501 124.26C40.4001 123.34 38.2901 122.07 38.2901 122.07Z" fill="#78C13B"/>
<path d="M38.2801 122.27C38.1801 122.81 38.1201 123.33 38.2101 123.87C37.9201 123.39 37.9901 122.74 38.2801 122.27Z" fill="#CBF36E"/>
<path d="M38.4301 122.08C38.4301 122.08 38.0301 119.51 36.7101 120.18C36.7101 120.18 35.9701 120.55 36.4001 121.2C36.4001 121.2 35.3301 121.48 35.9001 122.52C36.4701 123.56 38.4401 122.08 38.4401 122.08H38.4301Z" fill="#78C13B"/>
<path d="M38.25 122C37.79 121.71 37.33 121.45 36.79 121.34C37.34 121.25 37.92 121.56 38.25 122Z" fill="#CBF36E"/>
<path d="M38.28 122.07C38.28 122.07 40.17 123.86 40.81 122.52C40.81 122.52 41.16 121.78 40.43 121.52C40.43 121.52 41.11 120.65 40.02 120.17C38.93 119.69 38.28 122.07 38.28 122.07Z" fill="#78C13B"/>
<path d="M38.46 121.95C38.88 121.59 39.51 121.42 40.03 121.63C39.48 121.62 38.98 121.77 38.46 121.95Z" fill="#CBF36E"/>
<path d="M37.6301 107.52C37.6301 107.52 35.4101 106.16 35.0601 107.6C35.0601 107.6 34.8701 108.4 35.6401 108.5C35.6401 108.5 35.1601 109.5 36.3201 109.74C37.4801 109.98 37.6301 107.52 37.6301 107.52Z" fill="#78C13B"/>
<path d="M37.44 107.61C36.92 107.77 36.43 107.96 35.99 108.29C36.28 107.81 36.89 107.57 37.44 107.61Z" fill="#CBF36E"/>
<path d="M37.6799 107.66C37.6799 107.66 39.7699 106.11 38.5599 105.25C38.5599 105.25 37.8899 104.77 37.5099 105.45C37.5099 105.45 36.7699 104.63 36.1099 105.62C35.4499 106.61 37.6799 107.67 37.6799 107.67V107.66Z" fill="#78C13B"/>
<path d="M37.6598 107.45C37.6998 106.9 37.7198 106.38 37.5698 105.85C37.9098 106.3 37.8998 106.95 37.6598 107.45Z" fill="#CBF36E"/>
<path d="M37.6199 107.51C37.6199 107.51 36.9099 110.01 38.3899 109.96C38.3899 109.96 39.2099 109.93 39.0999 109.16C39.0999 109.16 40.1899 109.35 40.1099 108.17C40.0299 106.99 37.6199 107.51 37.6199 107.51Z" fill="#78C13B"/>
<path d="M37.8101 107.62C38.3201 107.82 38.7701 108.3 38.8201 108.86C38.5701 108.37 38.2101 107.99 37.8101 107.62Z" fill="#CBF36E"/>
<path d="M43.1499 115.08C43.1499 115.08 44.1299 119.31 46.2499 118.03C46.2499 118.03 47.4299 117.32 46.6499 116.29C46.6499 116.29 48.3999 115.7 47.3299 114.04C46.2599 112.38 43.1599 115.08 43.1599 115.08H43.1499Z" fill="#CBF36E"/>
<path d="M43.47 115.19C44.28 115.62 45.06 115.99 45.97 116.11C45.06 116.33 44.06 115.88 43.47 115.19Z" fill="#EAFFB0"/>
<path d="M43.25 114.86C43.25 114.86 38.96 114.18 39.35 116.62C39.35 116.62 39.56 117.98 40.81 117.64C40.81 117.64 40.7 119.48 42.65 119.11C44.6 118.74 43.25 114.85 43.25 114.85V114.86Z" fill="#CBF36E"/>
<path d="M43.03 115.12C42.33 115.71 41.69 116.3 41.24 117.09C41.38 116.16 42.17 115.41 43.03 115.12Z" fill="#EAFFB0"/>
<path d="M43.14 115.09C43.14 115.09 46.95 113.01 45.15 111.31C45.15 111.31 44.15 110.37 43.37 111.4C43.37 111.4 42.33 109.88 41.02 111.36C39.71 112.84 43.15 115.1 43.15 115.1L43.14 115.09Z" fill="#CBF36E"/>
<path d="M43.05 114.75C42.7 113.91 42.74 112.82 43.34 112.1C43.04 112.97 43.02 113.84 43.05 114.75Z" fill="#EAFFB0"/>
<path d="M24.6301 116.01C24.6301 116.01 26.4601 117.01 26.6801 115.84C26.6801 115.84 26.8001 115.19 26.1801 115.14C26.1801 115.14 26.5301 114.33 25.5901 114.18C24.6501 114.03 24.6301 116.01 24.6301 116.01Z" fill="#CBF36E"/>
<path d="M24.77 115.93C25.18 115.78 25.57 115.61 25.9 115.33C25.69 115.73 25.21 115.94 24.77 115.93Z" fill="#EAFFB0"/>
<path d="M24.5802 115.9C24.5802 115.9 22.9702 117.22 23.9702 117.86C23.9702 117.86 24.5302 118.22 24.8002 117.66C24.8002 117.66 25.4302 118.29 25.9102 117.47C26.3902 116.65 24.5802 115.89 24.5802 115.89V115.9Z" fill="#CBF36E"/>
<path d="M24.6002 116.06C24.5902 116.5 24.6002 116.92 24.7402 117.33C24.4502 116.98 24.4302 116.46 24.6002 116.06Z" fill="#EAFFB0"/>
<path d="M24.6301 116.01C24.6301 116.01 25.1001 113.98 23.9201 114.08C23.9201 114.08 23.2601 114.14 23.3801 114.75C23.3801 114.75 22.5001 114.64 22.6101 115.58C22.7201 116.52 24.6301 116.01 24.6301 116.01Z" fill="#CBF36E"/>
<path d="M24.4801 115.94C24.0701 115.8 23.6901 115.43 23.6201 114.99C23.8401 115.37 24.1401 115.66 24.4801 115.94Z" fill="#EAFFB0"/>
<path d="M26.5402 108.66C26.5402 108.66 29.2702 108.79 28.8602 107.29C28.8602 107.29 28.6302 106.45 27.8702 106.75C27.8702 106.75 27.8102 105.59 26.6202 105.95C25.4302 106.31 26.5302 108.66 26.5302 108.66H26.5402Z" fill="#8DC945"/>
<path d="M26.6602 108.48C27.0602 108.07 27.4202 107.65 27.6502 107.12C27.6302 107.71 27.1802 108.24 26.6602 108.48Z" fill="#EAFFB0"/>
<path d="M26.4202 108.56C26.4202 108.56 25.2702 111.04 26.8202 111.23C26.8202 111.23 27.6802 111.33 27.6902 110.52C27.6902 110.52 28.7902 110.9 28.9002 109.66C29.0102 108.42 26.4302 108.56 26.4302 108.56H26.4202Z" fill="#8DC945"/>
<path d="M26.5403 108.74C26.7703 109.27 27.0203 109.75 27.4303 110.16C26.8903 109.92 26.5703 109.31 26.5403 108.74Z" fill="#EAFFB0"/>
<path d="M26.5402 108.67C26.5402 108.67 25.9302 106.01 24.5902 106.8C24.5902 106.8 23.8502 107.24 24.3402 107.89C24.3402 107.89 23.2402 108.26 23.9102 109.31C24.5802 110.36 26.5402 108.66 26.5402 108.66V108.67Z" fill="#8DC945"/>
<path d="M26.3203 108.66C25.7503 108.73 25.1003 108.52 24.7603 108.03C25.2303 108.36 25.7603 108.52 26.3203 108.66Z" fill="#EAFFB0"/>
<path d="M45.6802 121.55C45.6802 121.55 46.9502 122.62 47.3102 121.75C47.3102 121.75 47.5102 121.26 47.0302 121.12C47.0302 121.12 47.4302 120.54 46.7202 120.27C46.0102 120 45.6802 121.55 45.6802 121.55Z" fill="#8DC945"/>
<path d="M45.8 121.51C46.15 121.46 46.47 121.39 46.78 121.22C46.55 121.5 46.14 121.59 45.8 121.51Z" fill="#EAFFB0"/>
<path d="M45.66 121.46C45.66 121.46 44.19 122.23 44.87 122.9C44.87 122.9 45.25 123.27 45.55 122.88C45.55 122.88 45.94 123.47 46.45 122.91C46.96 122.35 45.66 121.46 45.66 121.46Z" fill="#8DC945"/>
<path d="M45.65 121.59C45.57 121.93 45.51 122.26 45.55 122.61C45.38 122.29 45.45 121.88 45.65 121.59Z" fill="#EAFFB0"/>
<path d="M45.6801 121.56C45.6801 121.56 46.3701 120.05 45.4301 119.94C45.4301 119.94 44.9101 119.88 44.9001 120.38C44.9001 120.38 44.2301 120.15 44.1701 120.91C44.1101 121.67 45.6801 121.57 45.6801 121.57V121.56Z" fill="#8DC945"/>
<path d="M45.5702 121.47C45.2702 121.29 45.0302 120.95 45.0502 120.59C45.1602 120.92 45.3502 121.2 45.5702 121.47Z" fill="#EAFFB0"/>
<path d="M108.23 115.23C108.23 115.23 103.46 116 103.88 113.28C103.88 113.28 104.11 111.77 105.5 112.14C105.5 112.14 105.37 110.09 107.54 110.49C109.7 110.89 108.23 115.23 108.23 115.23Z" fill="#78C13B"/>
<path d="M107.98 114.95C107.2 114.3 106.48 113.64 105.98 112.76C106.14 113.79 107.02 114.63 107.98 114.95Z" fill="#CBF36E"/>
<path d="M108.41 115.04C108.41 115.04 110.92 119.17 108.24 119.8C108.24 119.8 106.75 120.15 106.57 118.72C106.57 118.72 104.72 119.61 104.28 117.45C103.84 115.29 108.41 115.03 108.41 115.03V115.04Z" fill="#78C13B"/>
<path d="M108.25 115.38C107.94 116.35 107.6 117.26 106.97 118.06C107.86 117.53 108.31 116.39 108.25 115.38Z" fill="#CBF36E"/>
<path d="M108.22 115.25C108.22 115.25 108.76 110.45 111.27 111.59C111.27 111.59 112.66 112.22 111.93 113.46C111.93 113.46 113.94 113.89 112.97 115.87C112 117.85 108.22 115.25 108.22 115.25Z" fill="#78C13B"/>
<path d="M108.61 115.2C109.62 115.2 110.73 114.7 111.22 113.78C110.45 114.45 109.56 114.84 108.61 115.2Z" fill="#CBF36E"/>
<path d="M113.67 107.69C113.67 107.69 111.44 106.35 112.55 105.38C112.55 105.38 113.17 104.84 113.62 105.47C113.62 105.47 114.28 104.58 115.03 105.5C115.78 106.42 113.67 107.69 113.67 107.69Z" fill="#78C13B"/>
<path d="M113.66 107.48C113.56 106.94 113.5 106.42 113.59 105.88C113.3 106.36 113.37 107.01 113.66 107.48Z" fill="#CBF36E"/>
<path d="M113.81 107.67C113.81 107.67 113.41 110.24 112.09 109.57C112.09 109.57 111.35 109.2 111.78 108.55C111.78 108.55 110.71 108.27 111.28 107.23C111.85 106.19 113.82 107.67 113.82 107.67H113.81Z" fill="#78C13B"/>
<path d="M113.62 107.75C113.16 108.04 112.7 108.3 112.16 108.41C112.71 108.5 113.29 108.19 113.62 107.75Z" fill="#CBF36E"/>
<path d="M113.66 107.69C113.66 107.69 115.55 105.9 116.19 107.24C116.19 107.24 116.54 107.98 115.81 108.24C115.81 108.24 116.49 109.11 115.4 109.59C114.31 110.07 113.66 107.69 113.66 107.69Z" fill="#78C13B"/>
<path d="M113.84 107.81C114.26 108.17 114.89 108.34 115.41 108.13C114.86 108.14 114.36 107.99 113.84 107.81Z" fill="#CBF36E"/>
<path d="M113 122.23C113 122.23 110.78 123.59 110.43 122.15C110.43 122.15 110.24 121.35 111.01 121.25C111.01 121.25 110.53 120.25 111.69 120.01C112.85 119.77 113 122.23 113 122.23Z" fill="#78C13B"/>
<path d="M112.82 122.14C112.3 121.98 111.81 121.79 111.37 121.46C111.66 121.94 112.27 122.18 112.82 122.14Z" fill="#CBF36E"/>
<path d="M113.05 122.1C113.05 122.1 115.14 123.65 113.93 124.51C113.93 124.51 113.26 124.99 112.88 124.31C112.88 124.31 112.14 125.13 111.48 124.14C110.82 123.15 113.05 122.09 113.05 122.09V122.1Z" fill="#78C13B"/>
<path d="M113.04 122.3C113.08 122.85 113.1 123.37 112.95 123.9C113.29 123.45 113.28 122.8 113.04 122.3Z" fill="#CBF36E"/>
<path d="M113 122.24C113 122.24 112.29 119.74 113.77 119.79C113.77 119.79 114.59 119.82 114.48 120.59C114.48 120.59 115.57 120.4 115.49 121.58C115.41 122.76 113 122.24 113 122.24Z" fill="#78C13B"/>
<path d="M113.19 122.14C113.7 121.94 114.15 121.46 114.2 120.9C113.95 121.39 113.59 121.77 113.19 122.14Z" fill="#CBF36E"/>
<path d="M118.53 114.67C118.53 114.67 119.51 110.44 121.63 111.72C121.63 111.72 122.81 112.43 122.03 113.46C122.03 113.46 123.78 114.05 122.71 115.71C121.64 117.37 118.54 114.67 118.54 114.67H118.53Z" fill="#CBF36E"/>
<path d="M118.85 114.56C119.66 114.13 120.44 113.76 121.35 113.64C120.44 113.42 119.44 113.87 118.85 114.56Z" fill="#EAFFB0"/>
<path d="M118.63 114.89C118.63 114.89 114.34 115.57 114.73 113.13C114.73 113.13 114.94 111.77 116.19 112.11C116.19 112.11 116.08 110.27 118.03 110.64C119.98 111.01 118.63 114.9 118.63 114.9V114.89Z" fill="#CBF36E"/>
<path d="M118.4 114.64C117.7 114.05 117.06 113.46 116.61 112.67C116.75 113.6 117.54 114.35 118.4 114.64Z" fill="#EAFFB0"/>
<path d="M118.52 114.66C118.52 114.66 122.33 116.74 120.53 118.44C120.53 118.44 119.53 119.38 118.75 118.35C118.75 118.35 117.71 119.87 116.4 118.39C115.09 116.91 118.53 114.65 118.53 114.65L118.52 114.66Z" fill="#CBF36E"/>
<path d="M118.43 115C118.08 115.84 118.12 116.93 118.72 117.65C118.42 116.78 118.4 115.91 118.43 115Z" fill="#EAFFB0"/>
<path d="M100.01 113.75C100.01 113.75 101.84 112.75 102.06 113.92C102.06 113.92 102.18 114.57 101.56 114.62C101.56 114.62 101.91 115.43 100.97 115.58C100.03 115.73 100.01 113.75 100.01 113.75Z" fill="#CBF36E"/>
<path d="M100.15 113.83C100.56 113.98 100.95 114.15 101.28 114.43C101.07 114.03 100.59 113.82 100.15 113.83Z" fill="#EAFFB0"/>
<path d="M99.9601 113.85C99.9601 113.85 98.3501 112.53 99.3501 111.89C99.3501 111.89 99.9101 111.53 100.18 112.09C100.18 112.09 100.81 111.46 101.29 112.28C101.77 113.1 99.9601 113.86 99.9601 113.86V113.85Z" fill="#CBF36E"/>
<path d="M99.9801 113.69C99.9701 113.25 99.9801 112.83 100.12 112.42C99.8301 112.77 99.8101 113.29 99.9801 113.69Z" fill="#EAFFB0"/>
<path d="M100.01 113.74C100.01 113.74 100.48 115.77 99.3 115.67C99.3 115.67 98.64 115.61 98.76 115C98.76 115 97.88 115.11 97.99 114.17C98.1 113.23 100.01 113.74 100.01 113.74Z" fill="#CBF36E"/>
<path d="M99.86 113.82C99.45 113.96 99.07 114.33 99 114.77C99.22 114.39 99.52 114.1 99.86 113.82Z" fill="#EAFFB0"/>
<path d="M101.91 121.1C101.91 121.1 104.64 120.97 104.23 122.47C104.23 122.47 104 123.31 103.24 123.01C103.24 123.01 103.18 124.17 101.99 123.81C100.8 123.45 101.9 121.1 101.9 121.1H101.91Z" fill="#8DC945"/>
<path d="M102.03 121.27C102.43 121.68 102.79 122.1 103.02 122.63C103 122.04 102.55 121.51 102.03 121.27Z" fill="#EAFFB0"/>
<path d="M101.8 121.19C101.8 121.19 100.65 118.71 102.2 118.52C102.2 118.52 103.06 118.42 103.07 119.23C103.07 119.23 104.17 118.85 104.28 120.09C104.39 121.33 101.81 121.19 101.81 121.19H101.8Z" fill="#8DC945"/>
<path d="M101.91 121.01C102.14 120.48 102.39 120 102.8 119.59C102.26 119.83 101.94 120.44 101.91 121.01Z" fill="#EAFFB0"/>
<path d="M101.92 121.09C101.92 121.09 101.31 123.75 99.9701 122.96C99.9701 122.96 99.2301 122.52 99.7201 121.87C99.7201 121.87 98.6201 121.5 99.2901 120.45C99.9601 119.4 101.92 121.1 101.92 121.1V121.09Z" fill="#8DC945"/>
<path d="M101.7 121.09C101.13 121.02 100.48 121.23 100.14 121.72C100.61 121.39 101.14 121.23 101.7 121.09Z" fill="#EAFFB0"/>
<path d="M121.06 108.21C121.06 108.21 122.33 107.14 122.69 108.01C122.69 108.01 122.89 108.5 122.41 108.64C122.41 108.64 122.81 109.22 122.1 109.49C121.39 109.76 121.06 108.21 121.06 108.21Z" fill="#8DC945"/>
<path d="M121.18 108.25C121.53 108.3 121.85 108.37 122.16 108.54C121.93 108.26 121.52 108.17 121.18 108.25Z" fill="#EAFFB0"/>
<path d="M121.04 108.3C121.04 108.3 119.57 107.53 120.25 106.86C120.25 106.86 120.63 106.49 120.93 106.88C120.93 106.88 121.32 106.29 121.83 106.85C122.34 107.41 121.04 108.3 121.04 108.3Z" fill="#8DC945"/>
<path d="M121.02 108.17C120.94 107.83 120.88 107.5 120.92 107.15C120.75 107.47 120.82 107.88 121.02 108.17Z" fill="#EAFFB0"/>
<path d="M121.06 108.2C121.06 108.2 121.75 109.71 120.81 109.82C120.81 109.82 120.29 109.88 120.28 109.38C120.28 109.38 119.61 109.61 119.55 108.85C119.49 108.09 121.06 108.19 121.06 108.19V108.2Z" fill="#8DC945"/>
<path d="M120.95 108.28C120.65 108.46 120.41 108.8 120.43 109.16C120.54 108.83 120.73 108.55 120.95 108.28Z" fill="#EAFFB0"/>
<path d="M117.67 35.59C117.67 35.59 121.95 37.83 122.41 35.12C122.41 35.12 122.67 33.61 121.23 33.52C121.23 33.52 122 31.62 119.82 31.31C117.64 31.01 117.67 35.59 117.67 35.59Z" fill="#78C13B"/>
<path d="M118 35.4C118.95 35.03 119.83 34.63 120.59 33.95C120.11 34.88 119.01 35.39 118 35.4Z" fill="#CBF36E"/>
<path d="M117.56 35.3501C117.56 35.3501 113.88 38.4801 116.22 39.9201C116.22 39.9201 117.52 40.7201 118.14 39.4201C118.14 39.4201 119.62 40.8501 120.72 38.9401C121.82 37.0301 117.56 35.3401 117.56 35.3401V35.3501Z" fill="#78C13B"/>
<path d="M117.61 35.73C117.6 36.75 117.63 37.72 117.98 38.68C117.3 37.89 117.23 36.68 117.61 35.73Z" fill="#CBF36E"/>
<path d="M117.68 35.61C117.68 35.61 118.68 30.88 115.94 31.17C115.94 31.17 114.42 31.33 114.72 32.74C114.72 32.74 112.68 32.51 112.98 34.7C113.28 36.89 117.68 35.61 117.68 35.61Z" fill="#78C13B"/>
<path d="M117.32 35.44C116.35 35.13 115.46 34.3 115.29 33.27C115.81 34.15 116.53 34.8 117.32 35.44Z" fill="#CBF36E"/>
<path d="M114.9 26.7201C114.9 26.7201 117.44 26.1601 116.69 24.8801C116.69 24.8801 116.27 24.1701 115.65 24.6301C115.65 24.6301 115.31 23.5801 114.3 24.2101C113.29 24.8401 114.9 26.7201 114.9 26.7201Z" fill="#78C13B"/>
<path d="M114.97 26.53C115.23 26.05 115.46 25.58 115.54 25.03C115.66 25.58 115.39 26.17 114.97 26.53Z" fill="#CBF36E"/>
<path d="M114.77 26.6602C114.77 26.6602 114.34 29.2302 115.8 29.0102C115.8 29.0102 116.62 28.8902 116.42 28.1402C116.42 28.1402 117.52 28.2202 117.31 27.0502C117.1 25.8802 114.76 26.6602 114.76 26.6602H114.77Z" fill="#78C13B"/>
<path d="M114.92 26.8003C115.27 27.2203 115.62 27.6103 116.09 27.8903C115.54 27.8003 115.09 27.3203 114.92 26.8003Z" fill="#CBF36E"/>
<path d="M114.9 26.7301C114.9 26.7301 113.67 24.4401 112.64 25.5001C112.64 25.5001 112.07 26.0901 112.68 26.5701C112.68 26.5701 111.76 27.1801 112.64 27.9801C113.52 28.7801 114.89 26.7301 114.89 26.7301H114.9Z" fill="#78C13B"/>
<path d="M114.7 26.7801C114.19 26.9901 113.54 26.9501 113.11 26.5901C113.63 26.7701 114.15 26.7901 114.7 26.7801Z" fill="#CBF36E"/>
<path d="M110.93 40.7298C110.93 40.7298 112.61 42.7198 113.39 41.4598C113.39 41.4598 113.83 40.7598 113.13 40.4198C113.13 40.4198 113.9 39.6298 112.87 39.0298C111.84 38.4298 110.93 40.7298 110.93 40.7298Z" fill="#78C13B"/>
<path d="M111.14 40.6998C111.69 40.6998 112.21 40.6998 112.73 40.5098C112.3 40.8698 111.65 40.9098 111.14 40.6998Z" fill="#CBF36E"/>
<path d="M110.93 40.5898C110.93 40.5898 108.46 41.3998 109.33 42.5998C109.33 42.5998 109.82 43.2698 110.39 42.7398C110.39 42.7398 110.84 43.7498 111.77 43.0198C112.71 42.2898 110.93 40.5798 110.93 40.5798V40.5898Z" fill="#78C13B"/>
<path d="M110.88 40.7798C110.67 41.2798 110.49 41.7798 110.46 42.3198C110.28 41.7898 110.5 41.1698 110.88 40.7798Z" fill="#CBF36E"/>
<path d="M110.93 40.7399C110.93 40.7399 112.39 38.5899 110.97 38.1699C110.97 38.1699 110.18 37.9399 110.04 38.6999C110.04 38.6999 109.07 38.1699 108.77 39.3199C108.47 40.4699 110.93 40.7299 110.93 40.7299V40.7399Z" fill="#78C13B"/>
<path d="M110.79 40.5798C110.37 40.2298 110.1 39.6298 110.22 39.0898C110.3 39.6298 110.53 40.0998 110.79 40.5798Z" fill="#CBF36E"/>
<path d="M108.08 31.8199C108.08 31.8199 108.49 27.4999 106.07 28.0399C106.07 28.0399 104.73 28.3399 105.14 29.5599C105.14 29.5599 103.3 29.5599 103.79 31.4799C104.28 33.3999 108.08 31.8099 108.08 31.8099V31.8199Z" fill="#CBF36E"/>
<path d="M107.81 31.61C107.18 30.95 106.55 30.35 105.73 29.95C106.66 30.03 107.47 30.77 107.81 31.61Z" fill="#EAFFB0"/>
<path d="M107.92 31.9899C107.92 31.9899 111.77 33.9899 112.18 31.5499C112.18 31.5499 112.41 30.1899 111.11 30.1199C111.11 30.1199 111.79 28.4099 109.83 28.1399C107.87 27.8699 107.91 31.9899 107.91 31.9899H107.92Z" fill="#CBF36E"/>
<path d="M108.21 31.8198C109.06 31.4898 109.85 31.1198 110.53 30.5098C110.1 31.3398 109.12 31.8098 108.21 31.8198Z" fill="#EAFFB0"/>
<path d="M108.09 31.8098C108.09 31.8098 103.82 32.5898 104.99 34.7598C104.99 34.7598 105.64 35.9698 106.71 35.2398C106.71 35.2398 107.22 37.0098 108.93 36.0198C110.64 35.0298 108.09 31.7998 108.09 31.7998V31.8098Z" fill="#CBF36E"/>
<path d="M108.07 32.1599C108.14 33.0699 107.75 34.0899 106.96 34.5799C107.51 33.8499 107.81 33.0299 108.07 32.1599Z" fill="#EAFFB0"/>
<path d="M125.94 36.78C125.94 36.78 124.52 35.25 123.94 36.29C123.94 36.29 123.62 36.87 124.19 37.11C124.19 37.11 123.6 37.77 124.45 38.21C125.3 38.65 125.94 36.78 125.94 36.78Z" fill="#CBF36E"/>
<path d="M125.78 36.81C125.34 36.82 124.92 36.86 124.52 37.03C124.85 36.72 125.37 36.67 125.78 36.81Z" fill="#EAFFB0"/>
<path d="M125.95 36.8999C125.95 36.8999 127.9 36.1599 127.15 35.2299C127.15 35.2299 126.74 34.7199 126.3 35.1599C126.3 35.1599 125.9 34.3699 125.18 34.9899C124.46 35.6099 125.95 36.9099 125.95 36.9099V36.8999Z" fill="#CBF36E"/>
<path d="M125.99 36.74C126.14 36.33 126.27 35.93 126.26 35.49C126.42 35.91 126.28 36.41 125.99 36.74Z" fill="#EAFFB0"/>
<path d="M125.94 36.7798C125.94 36.7798 124.85 38.5598 126.01 38.8398C126.01 38.8398 126.65 38.9898 126.73 38.3798C126.73 38.3798 127.53 38.7598 127.72 37.8298C127.91 36.8998 125.94 36.7798 125.94 36.7798Z" fill="#CBF36E"/>
<path d="M126.06 36.8999C126.41 37.1699 126.65 37.6299 126.57 38.0699C126.49 37.6399 126.29 37.2699 126.06 36.8999Z" fill="#EAFFB0"/>
<path d="M121.82 43.1601C121.82 43.1601 119.27 42.1701 119.18 43.7301C119.18 43.7301 119.13 44.5901 119.94 44.5501C119.94 44.5501 119.63 45.6701 120.87 45.7001C122.11 45.7301 121.81 43.1601 121.81 43.1601H121.82Z" fill="#8DC945"/>
<path d="M121.65 43.28C121.14 43.55 120.67 43.83 120.28 44.26C120.49 43.71 121.07 43.35 121.65 43.28Z" fill="#EAFFB0"/>
<path d="M121.89 43.2801C121.89 43.2801 123.76 41.2901 122.35 40.6201C122.35 40.6201 121.57 40.2501 121.3 41.0201C121.3 41.0201 120.38 40.3101 119.88 41.4501C119.38 42.5901 121.88 43.2701 121.88 43.2701L121.89 43.2801Z" fill="#8DC945"/>
<path d="M121.84 43.0802C121.78 42.5102 121.7 41.9702 121.45 41.4502C121.88 41.8502 122 42.5302 121.84 43.0802Z" fill="#EAFFB0"/>
<path d="M121.81 43.1502C121.81 43.1502 121.55 45.8702 123.07 45.5302C123.07 45.5302 123.91 45.3402 123.66 44.5702C123.66 44.5702 124.82 44.5702 124.52 43.3602C124.22 42.1502 121.82 43.1402 121.82 43.1402L121.81 43.1502Z" fill="#8DC945"/>
<path d="M122.02 43.2202C122.58 43.3302 123.14 43.7402 123.3 44.3102C122.95 43.8502 122.51 43.5302 122.02 43.2202Z" fill="#EAFFB0"/>
<path d="M107.72 24.88C107.72 24.88 106.85 23.46 106.24 24.18C106.24 24.18 105.9 24.58 106.31 24.86C106.31 24.86 105.75 25.29 106.34 25.76C106.93 26.23 107.73 24.88 107.73 24.88H107.72Z" fill="#8DC945"/>
<path d="M107.59 24.8801C107.24 24.8201 106.91 24.7801 106.57 24.8501C106.88 24.6601 107.29 24.7001 107.59 24.8801Z" fill="#EAFFB0"/>
<path d="M107.71 24.97C107.71 24.97 109.35 24.7 108.92 23.86C108.92 23.86 108.68 23.39 108.26 23.67C108.26 23.67 108.08 22.99 107.41 23.36C106.74 23.73 107.7 24.98 107.7 24.98L107.71 24.97Z" fill="#8DC945"/>
<path d="M107.76 24.8499C107.94 24.5499 108.11 24.2599 108.17 23.9199C108.23 24.2699 108.04 24.6399 107.76 24.8499Z" fill="#EAFFB0"/>
<path d="M107.72 24.8699C107.72 24.8699 106.59 26.0899 107.45 26.4899C107.45 26.4899 107.93 26.7099 108.09 26.2399C108.09 26.2399 108.65 26.6699 108.95 25.9699C109.25 25.2699 107.73 24.8699 107.73 24.8699H107.72Z" fill="#8DC945"/>
<path d="M107.8 24.99C108.03 25.25 108.15 25.66 108.01 25.99C108.01 25.64 107.92 25.32 107.8 24.99Z" fill="#EAFFB0"/>
<path d="M32.5998 33.5002C32.5998 33.5002 34.2498 28.9602 31.4998 28.8602C31.4998 28.8602 29.9698 28.8002 30.0698 30.2402C30.0698 30.2402 28.0798 29.7302 28.0698 31.9302C28.0598 34.1302 32.5898 33.5002 32.5898 33.5002H32.5998Z" fill="#78C13B"/>
<path d="M32.3698 33.2003C31.8798 32.3103 31.3698 31.4803 30.5898 30.8203C31.5698 31.1703 32.2298 32.1903 32.3698 33.2003Z" fill="#CBF36E"/>
<path d="M32.3699 33.6403C32.3699 33.6403 35.9599 36.8803 37.0799 34.3703C37.0799 34.3703 37.7099 32.9703 36.3399 32.5303C36.3399 32.5303 37.5599 30.8803 35.5199 30.0403C33.4799 29.2003 32.3699 33.6403 32.3699 33.6403Z" fill="#78C13B"/>
<path d="M32.74 33.5403C33.75 33.4203 34.71 33.2503 35.61 32.7903C34.92 33.5703 33.72 33.7903 32.74 33.5403Z" fill="#CBF36E"/>
<path d="M32.6199 33.4902C32.6199 33.4902 27.7999 33.1202 28.4499 35.8002C28.4499 35.8002 28.8099 37.2902 30.1599 36.8002C30.1599 36.8002 30.2099 38.8502 32.3299 38.2702C34.4499 37.6902 32.6199 33.4902 32.6199 33.4902Z" fill="#78C13B"/>
<path d="M32.4899 33.8701C32.3099 34.8701 31.5999 35.8601 30.6099 36.1701C31.4099 35.5401 31.9599 34.7401 32.4899 33.8701Z" fill="#CBF36E"/>
<path d="M24.17 37.4201C24.17 37.4201 23.28 34.9801 22.11 35.8901C22.11 35.8901 21.46 36.4001 22 36.9501C22 36.9501 21 37.4301 21.76 38.3401C22.52 39.2501 24.17 37.4201 24.17 37.4201Z" fill="#78C13B"/>
<path d="M23.9699 37.3802C23.4599 37.1802 22.9599 37.0202 22.4099 37.0202C22.9399 36.8202 23.5599 37.0202 23.9699 37.3802Z" fill="#CBF36E"/>
<path d="M24.1301 37.5601C24.1301 37.5601 26.7301 37.6501 26.3201 36.2201C26.3201 36.2201 26.0901 35.4301 25.3701 35.7201C25.3701 35.7201 25.3001 34.6201 24.1701 34.9801C23.0401 35.3401 24.1201 37.5601 24.1201 37.5601H24.1301Z" fill="#78C13B"/>
<path d="M24.24 37.3901C24.62 36.9901 24.95 36.5901 25.16 36.0801C25.14 36.6401 24.73 37.1501 24.24 37.3901Z" fill="#CBF36E"/>
<path d="M24.1698 37.4102C24.1698 37.4102 22.0598 38.9302 23.2498 39.8102C23.2498 39.8102 23.9098 40.3002 24.2998 39.6302C24.2998 39.6302 25.0298 40.4602 25.6998 39.4802C26.3698 38.5002 24.1598 37.4102 24.1598 37.4102H24.1698Z" fill="#78C13B"/>
<path d="M24.2498 37.6101C24.5198 38.0801 24.5798 38.7401 24.2698 39.2101C24.3798 38.6701 24.3298 38.1501 24.2498 37.6101Z" fill="#CBF36E"/>
<path d="M38.5799 39.5C38.5799 39.5 40.3299 37.57 38.9799 36.96C38.9799 36.96 38.2299 36.62 37.9899 37.36C37.9899 37.36 37.0999 36.7 36.6499 37.8C36.1999 38.9 38.5899 39.5 38.5899 39.5H38.5799Z" fill="#78C13B"/>
<path d="M38.5199 39.31C38.4599 38.77 38.3699 38.25 38.1199 37.76C38.5399 38.13 38.6599 38.78 38.5199 39.31Z" fill="#CBF36E"/>
<path d="M38.4399 39.53C38.4399 39.53 39.5699 41.88 40.6399 40.85C40.6399 40.85 41.2399 40.28 40.6399 39.78C40.6399 39.78 41.5799 39.2 40.7399 38.37C39.8999 37.54 38.4399 39.53 38.4399 39.53Z" fill="#78C13B"/>
<path d="M38.6399 39.55C39.1699 39.7 39.6799 39.81 40.2299 39.76C39.7299 40.01 39.0799 39.88 38.6399 39.55Z" fill="#CBF36E"/>
<path d="M38.59 39.5C38.59 39.5 36.26 38.34 36.04 39.8C36.04 39.8 35.92 40.61 36.69 40.65C36.69 40.65 36.29 41.68 37.47 41.82C38.65 41.96 38.59 39.5 38.59 39.5Z" fill="#78C13B"/>
<path d="M38.45 39.6599C38.16 40.1199 37.6 40.4699 37.04 40.4199C37.57 40.2699 38 39.9799 38.45 39.6599Z" fill="#CBF36E"/>
<path d="M30.1199 43.51C30.1199 43.51 25.7799 43.68 26.6399 46C26.6399 46 27.1099 47.29 28.2699 46.72C28.2699 46.72 28.5199 48.55 30.3599 47.81C32.1999 47.07 30.1199 43.52 30.1199 43.52V43.51Z" fill="#CBF36E"/>
<path d="M29.95 43.8C29.38 44.51 28.86 45.22 28.58 46.09C28.54 45.16 29.16 44.26 29.95 43.8Z" fill="#EAFFB0"/>
<path d="M30.31 43.65C30.31 43.65 31.78 39.57 29.31 39.49C29.31 39.49 27.94 39.44 28.03 40.73C28.03 40.73 26.24 40.28 26.24 42.26C26.24 44.24 30.31 43.65 30.31 43.65Z" fill="#CBF36E"/>
<path d="M30.1 43.38C29.66 42.58 29.19 41.84 28.5 41.25C29.38 41.56 29.98 42.48 30.1 43.38Z" fill="#EAFFB0"/>
<path d="M30.1101 43.5C30.1101 43.5 31.4401 47.63 33.4501 46.18C33.4501 46.18 34.5601 45.38 33.7001 44.41C33.7001 44.41 35.3901 43.67 34.1801 42.11C32.9701 40.54 30.1101 43.5 30.1101 43.5Z" fill="#CBF36E"/>
<path d="M30.46 43.4699C31.35 43.2799 32.42 43.5299 33.01 44.2499C32.22 43.7999 31.36 43.6099 30.46 43.4699Z" fill="#EAFFB0"/>
<path d="M32.6899 25.1401C32.6899 25.1401 31.3599 26.7501 32.4699 27.1801C32.4699 27.1801 33.0799 27.4201 33.2499 26.8201C33.2499 26.8201 33.9899 27.3101 34.3099 26.4201C34.6299 25.5301 32.6999 25.1301 32.6999 25.1301L32.6899 25.1401Z" fill="#CBF36E"/>
<path d="M32.7402 25.3C32.8102 25.73 32.9002 26.1401 33.1202 26.5201C32.7702 26.2401 32.6502 25.73 32.7402 25.3Z" fill="#EAFFB0"/>
<path d="M32.8001 25.12C32.8001 25.12 31.8101 23.29 30.9901 24.15C30.9901 24.15 30.5301 24.63 31.0301 25.01C31.0301 25.01 30.3001 25.51 31.0001 26.14C31.7001 26.77 32.8001 25.13 32.8001 25.13V25.12Z" fill="#CBF36E"/>
<path d="M32.6401 25.1101C32.2101 25.0101 31.8001 24.9401 31.3601 25.0001C31.7501 24.7801 32.2701 24.8601 32.6401 25.1101Z" fill="#EAFFB0"/>
<path d="M32.6799 25.1401C32.6799 25.1401 34.5899 25.9801 34.7099 24.8001C34.7099 24.8001 34.7799 24.1401 34.1599 24.1501C34.1599 24.1501 34.4399 23.3101 33.4899 23.2401C32.5399 23.1701 32.6899 25.1401 32.6899 25.1401H32.6799Z" fill="#CBF36E"/>
<path d="M32.79 25.0101C33.01 24.6301 33.44 24.3301 33.89 24.3501C33.47 24.4901 33.14 24.7401 32.79 25.0101Z" fill="#EAFFB0"/>
<path d="M39.5499 28.3902C39.5499 28.3902 38.9099 31.0502 40.4599 30.9302C40.4599 30.9302 41.3199 30.8602 41.1699 30.0602C41.1699 30.0602 42.3199 30.2202 42.1899 28.9802C42.0599 27.7402 39.5499 28.3902 39.5499 28.3902Z" fill="#8DC945"/>
<path d="M39.7 28.55C40.03 29.02 40.3699 29.4501 40.8499 29.7701C40.2799 29.6401 39.84 29.1 39.7 28.55Z" fill="#EAFFB0"/>
<path d="M39.6699 28.3002C39.6699 28.3002 37.4499 26.7102 36.9799 28.1902C36.9799 28.1902 36.7199 29.0102 37.5099 29.1802C37.5099 29.1802 36.9299 30.1802 38.1299 30.5302C39.3299 30.8702 39.6699 28.3102 39.6699 28.3102V28.3002Z" fill="#8DC945"/>
<path d="M39.4699 28.3802C38.9099 28.5102 38.3799 28.6602 37.8999 28.9802C38.2399 28.5002 38.8999 28.3002 39.4699 28.3802Z" fill="#EAFFB0"/>
<path d="M39.54 28.4002C39.54 28.4002 42.27 28.3002 41.74 26.8402C41.74 26.8402 41.44 26.0302 40.71 26.3902C40.71 26.3902 40.55 25.2402 39.4 25.7002C38.25 26.1602 39.54 28.4002 39.54 28.4002Z" fill="#8DC945"/>
<path d="M39.5798 28.1803C39.6198 27.6103 39.9498 27.0103 40.4898 26.7703C40.0798 27.1703 39.8198 27.6603 39.5798 28.1803Z" fill="#EAFFB0"/>
<path d="M23.29 44.7703C23.29 44.7703 22 45.8203 22.79 46.3303C22.79 46.3303 23.23 46.6203 23.46 46.1803C23.46 46.1803 23.96 46.6803 24.35 46.0403C24.74 45.4003 23.29 44.7803 23.29 44.7803V44.7703Z" fill="#8DC945"/>
<path d="M23.3001 44.9001C23.2901 45.2501 23.3001 45.5801 23.4001 45.9201C23.1701 45.6401 23.1601 45.2201 23.3001 44.9001Z" fill="#EAFFB0"/>
<path d="M23.3801 44.7703C23.3801 44.7703 22.9001 43.1803 22.1201 43.7203C22.1201 43.7203 21.6901 44.0203 22.0101 44.4003C22.0101 44.4003 21.3601 44.6703 21.8101 45.2803C22.2601 45.8903 23.3801 44.7703 23.3801 44.7703Z" fill="#8DC945"/>
<path d="M23.26 44.7402C22.94 44.6002 22.63 44.4802 22.28 44.4502C22.62 44.3402 23.02 44.4902 23.26 44.7402Z" fill="#EAFFB0"/>
<path d="M23.28 44.7702C23.28 44.7702 24.64 45.7302 24.92 44.8302C24.92 44.8302 25.08 44.3302 24.59 44.2302C24.59 44.2302 24.94 43.6202 24.21 43.4102C23.48 43.2002 23.28 44.7702 23.28 44.7702Z" fill="#8DC945"/>
<path d="M23.3901 44.6802C23.6201 44.4202 24.0001 44.2502 24.3501 44.3402C24.0001 44.3802 23.7001 44.5202 23.3901 44.6802Z" fill="#EAFFB0"/>
</svg>
