<svg width="148" height="148" viewBox="0 0 148 148" fill="none" xmlns="http://www.w3.org/2000/svg">
<path d="M137.62 73.9999C137.62 76.5299 137.48 79.0399 137.2 81.4999C136.32 89.3599 134.07 96.7999 130.69 103.55C129.67 105.63 128.52 107.64 127.27 109.58C124.15 114.48 120.39 118.92 116.12 122.78C114.63 124.13 113.07 125.41 111.45 126.63C110.56 127.3 109.64 127.94 108.72 128.56C106.64 129.95 104.48 131.22 102.25 132.34C98.0499 134.48 93.5899 136.14 88.9299 137.28C87.1399 137.73 85.3199 138.08 83.4699 138.37C81.4299 138.69 79.3599 138.9 77.2699 139.01C76.3499 139.05 75.4099 139.08 74.4799 139.08H74.4599C74.3099 139.09 74.1599 139.09 74.0099 139.09C70.6099 139.09 67.2699 138.82 64.0199 138.3C57.4799 137.24 51.2699 135.17 45.5499 132.23C43.7399 131.3 41.9699 130.29 40.2699 129.19C39.9699 129.01 39.6699 128.81 39.3899 128.62C38.7399 128.19 38.0999 127.75 37.4699 127.29C37.2399 127.13 37.0099 126.96 36.7799 126.79C35.5599 125.89 34.3699 124.94 33.2199 123.94C33.0399 123.79 32.8599 123.63 32.6799 123.48C30.2499 121.35 27.9799 119.04 25.8899 116.57L24.6599 115.07C22.6299 112.54 20.7899 109.83 19.1599 106.99C16.4699 102.32 14.3299 97.2699 12.8399 91.9299C11.8099 88.2499 11.0799 84.4299 10.6999 80.5099C10.6999 80.3799 10.6799 80.2599 10.6699 80.1199C10.5799 79.1899 10.5199 78.2699 10.4699 77.3299C10.4099 76.2199 10.3799 75.0999 10.3799 73.9699C10.3799 70.5099 10.6399 67.1099 11.1599 63.8099C12.1599 57.2399 14.1299 50.9799 16.9199 45.2199C27.2799 23.7199 48.9399 8.8999 73.9999 8.8999C96.0199 8.8999 115.42 20.3399 126.84 37.7399C131.97 45.5399 135.49 54.5499 136.91 64.2599C137.38 67.4299 137.62 70.6899 137.62 74.0099V73.9999Z" fill="#29772C"/>
<path d="M47.31 77.9499C58.5269 77.9499 67.62 68.6464 67.62 57.1699C67.62 45.6934 58.5269 36.3899 47.31 36.3899C36.0931 36.3899 27 45.6934 27 57.1699C27 68.6464 36.0931 77.9499 47.31 77.9499Z" fill="#8DC945"/>
<path d="M66.3003 82.3998C75.0208 82.3998 82.0903 75.1648 82.0903 66.2398C82.0903 57.3149 75.0208 50.0798 66.3003 50.0798C57.5797 50.0798 50.5103 57.3149 50.5103 66.2398C50.5103 75.1648 57.5797 82.3998 66.3003 82.3998Z" fill="#8DC945"/>
<path d="M40.9301 63.1698C40.9301 67.3798 39.5801 71.2698 37.2901 74.3998C37.1501 74.5898 37.0001 74.7898 36.8501 74.9798C33.8701 78.7598 29.4701 81.3398 24.4901 81.8798C23.8401 81.9498 23.2001 81.9898 22.5301 81.9898C19.1801 81.9898 16.0301 81.0698 13.3201 79.4698C12.3001 78.8598 11.3401 78.1598 10.4601 77.3598C10.4001 76.2498 10.3701 75.1298 10.3701 73.9998C10.3701 70.5398 10.6301 67.1398 11.1501 63.8398C12.1501 57.2698 14.1201 51.0098 16.9101 45.2498C18.6801 44.6598 20.5701 44.3398 22.5401 44.3398C25.2501 44.3398 27.8401 44.9398 30.1601 46.0298C36.5101 48.9998 40.9301 55.5498 40.9301 63.1598V63.1698Z" fill="#8DC945"/>
<path d="M80.0202 92.0499C87.6307 92.0499 93.8002 85.7371 93.8002 77.9499C93.8002 70.1626 87.6307 63.8499 80.0202 63.8499C72.4097 63.8499 66.2402 70.1626 66.2402 77.9499C66.2402 85.7371 72.4097 92.0499 80.0202 92.0499Z" fill="#8DC945"/>
<path d="M25.0401 77.9498C25.0401 79.3098 24.8501 80.6398 24.4901 81.8798C23.0201 87.0998 18.6801 91.0798 13.3301 91.8898C13.1601 91.9198 13.0001 91.9398 12.8301 91.9598C11.8001 88.2798 11.0701 84.4598 10.6901 80.5398C10.6901 80.4098 10.6701 80.2898 10.6601 80.1498C10.5701 79.2198 10.5101 78.2998 10.4601 77.3598C10.4001 76.2498 10.3701 75.1298 10.3701 73.9998C10.3701 70.5398 10.6301 67.1398 11.1501 63.8398H11.2601C17.6701 63.8398 23.0601 68.3298 24.5901 74.3998C24.8901 75.5398 25.0401 76.7298 25.0401 77.9498Z" fill="#8DC945"/>
<path d="M13.3301 91.9399H81.0201C82.2301 91.9399 83.2201 90.9599 83.2201 89.7399V74.3899H13.3301V91.9299V91.9399Z" fill="#8DC945"/>
<path d="M107.77 108.22C122.533 108.22 134.5 95.975 134.5 80.87C134.5 65.765 122.533 53.52 107.77 53.52C93.0075 53.52 81.04 65.765 81.04 80.87C81.04 95.975 93.0075 108.22 107.77 108.22Z" fill="#ACDE47"/>
<path d="M103.55 92.81C103.55 104.55 94.2502 114.07 82.7702 114.07C71.2902 114.07 61.9902 104.55 61.9902 92.81C61.9902 81.07 71.2902 71.55 82.7702 71.55C94.2502 71.55 103.55 81.07 103.55 92.81Z" fill="#ACDE47"/>
<path d="M137.2 81.5C136.32 89.36 134.07 96.8 130.69 103.55C129.67 105.63 128.52 107.64 127.27 109.58C125.09 108.15 123.16 106.37 121.54 104.31C121.34 104.07 121.14 103.81 120.95 103.55C117.95 99.42 116.17 94.31 116.17 88.77C116.17 78.76 121.98 70.13 130.33 66.23C132.39 65.27 134.59 64.59 136.91 64.26C137.38 67.43 137.62 70.69 137.62 74.01C137.62 76.54 137.48 79.05 137.2 81.51V81.5Z" fill="#ACDE47"/>
<path d="M82.8601 108.22C82.8601 118.47 74.7401 126.78 64.7201 126.78C54.7001 126.78 46.5801 118.47 46.5801 108.22C46.5801 97.9699 54.7001 89.6599 64.7201 89.6599C74.7401 89.6599 82.8601 97.9699 82.8601 108.22Z" fill="#ACDE47"/>
<path d="M130.69 103.55C129.67 105.63 128.52 107.64 127.27 109.58C124.15 114.48 120.39 118.92 116.12 122.78C114.63 124.13 113.07 125.41 111.45 126.63H62.7C61.5 126.63 60.52 125.63 60.52 124.4V103.55H130.69Z" fill="#ACDE47"/>
<path d="M54.9903 121.26C69.7528 121.26 81.7203 109.015 81.7203 93.9101C81.7203 78.8051 69.7528 66.5601 54.9903 66.5601C40.2277 66.5601 28.2603 78.8051 28.2603 93.9101C28.2603 109.015 40.2277 121.26 54.9903 121.26Z" fill="#CBF36E"/>
<path d="M79.99 127.1C91.4664 127.1 100.77 117.582 100.77 105.84C100.77 94.0985 91.4664 84.5801 79.99 84.5801C68.5135 84.5801 59.21 94.0985 59.21 105.84C59.21 117.582 68.5135 127.1 79.99 127.1Z" fill="#CBF36E"/>
<path d="M46.5802 101.8C46.5802 107.34 44.8002 112.45 41.8002 116.58C41.6102 116.84 41.4102 117.1 41.2102 117.35C39.0402 120.1 36.3202 122.35 33.2102 123.94C33.0302 123.79 32.8502 123.63 32.6702 123.48C30.2402 121.35 27.9702 119.04 25.8802 116.57L24.6502 115.07C22.6202 112.54 20.7802 109.83 19.1502 106.99C14.6002 99.09 11.6202 90.1 10.6902 80.51C10.6902 80.38 10.6702 80.26 10.6602 80.12C14.1302 78.14 18.1302 77.02 22.3702 77.02C25.9502 77.02 29.3502 77.81 32.4102 79.25C40.7702 83.15 46.5802 91.77 46.5802 101.78V101.8Z" fill="#CBF36E"/>
<path d="M116.18 121.26C116.18 121.77 116.16 122.28 116.12 122.79C114.63 124.14 113.07 125.42 111.45 126.64C110.56 127.31 109.64 127.95 108.72 128.57C106.64 129.96 104.48 131.23 102.25 132.35C98.0502 134.49 93.5902 136.15 88.9302 137.29C85.1402 135.04 82.2302 131.41 80.8302 127.09C80.7802 126.94 80.7302 126.78 80.6902 126.63C80.1802 124.93 79.9102 123.13 79.9102 121.26C79.9102 120.11 80.0102 118.98 80.2202 117.88C80.2902 117.43 80.3802 117.01 80.4902 116.58C80.7202 115.69 81.0101 114.83 81.3401 114.01C81.6901 113.17 82.1002 112.36 82.5502 111.6V111.59C84.8202 107.8 88.3702 104.92 92.5802 103.55C92.6402 103.53 92.6902 103.51 92.7502 103.5C94.4202 102.97 96.1902 102.7 98.0302 102.7C98.8902 102.7 99.7202 102.76 100.55 102.88C100.71 102.9 100.88 102.92 101.04 102.95C101.88 103.09 102.7 103.3 103.5 103.55C106.27 104.45 108.76 106 110.78 108.05C114.12 111.41 116.19 116.09 116.19 121.26H116.18Z" fill="#CBF36E"/>
<path d="M24.6504 115.09C22.6204 112.56 20.7804 109.85 19.1504 107.01C21.6404 109.12 23.5504 111.9 24.6504 115.09Z" fill="#CBF36E"/>
<path d="M102.24 116.58V132.35C98.0404 134.49 93.5804 136.15 88.9204 137.29C87.1304 137.74 85.3104 138.09 83.4604 138.38C81.4204 138.7 79.3504 138.91 77.2604 139.02C76.3404 139.06 75.4004 139.09 74.4704 139.09H74.4504C74.3004 139.1 74.1504 139.1 74.0004 139.1C70.6004 139.1 67.2604 138.83 64.0104 138.31C57.4704 137.25 51.2604 135.18 45.5404 132.24C43.7304 131.31 41.9604 130.3 40.2604 129.2C39.9604 129.02 39.6604 128.82 39.3804 128.63C38.7304 128.2 38.0904 127.76 37.4604 127.3C37.2304 127.14 37.0004 126.97 36.7704 126.8C35.5504 125.9 34.3604 124.95 33.2104 123.95C33.0304 123.8 32.8504 123.64 32.6704 123.49C30.2404 121.36 27.9704 119.05 25.8804 116.58H102.23H102.24Z" fill="#CBF36E"/>
<path d="M129.84 70.29C129.84 69.31 129.07 68.52 128.11 68.52C128.06 68.52 128.01 68.53 127.96 68.54C127.85 67.67 127.13 67 126.25 67C125.37 67 124.65 67.68 124.54 68.55C124.47 68.55 124.41 68.53 124.34 68.53C123.38 68.53 122.61 69.32 122.61 70.3C122.61 71 123.01 71.6 123.59 71.89C123.53 72.07 123.49 72.26 123.49 72.46C123.49 73.44 124.26 74.23 125.22 74.23C125.6 74.23 125.95 74.1 126.24 73.89C126.53 74.1 126.88 74.23 127.26 74.23C128.22 74.23 128.99 73.44 128.99 72.46C128.99 72.25 128.95 72.06 128.89 71.88C129.45 71.59 129.85 71 129.85 70.3L129.84 70.29Z" fill="#F7FEEE"/>
<path d="M126.23 71.71C126.832 71.71 127.32 71.213 127.32 70.6C127.32 69.987 126.832 69.49 126.23 69.49C125.628 69.49 125.14 69.987 125.14 70.6C125.14 71.213 125.628 71.71 126.23 71.71Z" fill="#FFC931"/>
<path d="M121.05 101.15C121.05 99.92 120.08 98.92 118.87 98.92C118.81 98.92 118.74 98.93 118.68 98.94C118.54 97.85 117.64 97 116.53 97C115.42 97 114.52 97.85 114.38 98.95C114.29 98.94 114.21 98.92 114.12 98.92C112.92 98.92 111.94 99.92 111.94 101.15C111.94 102.03 112.45 102.79 113.17 103.15C113.09 103.38 113.04 103.61 113.04 103.87C113.04 105.1 114.01 106.1 115.22 106.1C115.7 106.1 116.14 105.94 116.5 105.67C116.86 105.94 117.3 106.1 117.78 106.1C118.98 106.1 119.96 105.1 119.96 103.87C119.96 103.61 119.91 103.37 119.83 103.14C120.54 102.77 121.03 102.03 121.03 101.16L121.05 101.15Z" fill="#F7FEEE"/>
<path d="M116.5 102.95C117.256 102.95 117.87 102.323 117.87 101.55C117.87 100.777 117.256 100.15 116.5 100.15C115.743 100.15 115.13 100.777 115.13 101.55C115.13 102.323 115.743 102.95 116.5 102.95Z" fill="#FFC931"/>
<path d="M126.86 85.6901C126.67 84.8901 125.88 84.4 125.1 84.59C125.06 84.6 125.02 84.62 124.98 84.63C124.72 83.94 124 83.5401 123.28 83.7201C122.56 83.9001 122.1 84.6 122.18 85.34C122.12 85.34 122.07 85.3501 122.01 85.3601C121.23 85.5601 120.75 86.3601 120.94 87.1601C121.08 87.7301 121.52 88.1401 122.05 88.2601C122.04 88.4201 122.05 88.58 122.08 88.75C122.27 89.55 123.06 90.04 123.84 89.85C124.15 89.77 124.41 89.5901 124.61 89.3601C124.89 89.4801 125.2 89.51 125.51 89.43C126.29 89.2301 126.77 88.43 126.58 87.63C126.54 87.46 126.47 87.31 126.38 87.17C126.79 86.82 126.99 86.25 126.86 85.68V85.6901Z" fill="#F7FEEE"/>
<path d="M123.97 87.63C124.478 87.63 124.89 87.2092 124.89 86.69C124.89 86.1709 124.478 85.75 123.97 85.75C123.462 85.75 123.05 86.1709 123.05 86.69C123.05 87.2092 123.462 87.63 123.97 87.63Z" fill="#FFC931"/>
<path d="M108.96 114.96C109.4 114.43 109.34 113.63 108.83 113.17C108.8 113.15 108.77 113.13 108.74 113.11C109.07 112.59 108.99 111.88 108.51 111.46C108.03 111.04 107.33 111.07 106.88 111.49C106.85 111.45 106.82 111.41 106.78 111.38C106.26 110.93 105.48 110.99 105.04 111.52C104.72 111.9 104.67 112.42 104.85 112.85C104.74 112.92 104.63 113 104.54 113.11C104.1 113.64 104.16 114.44 104.67 114.9C104.88 115.08 105.13 115.18 105.38 115.2C105.44 115.45 105.57 115.69 105.78 115.87C106.3 116.32 107.08 116.26 107.52 115.73C107.61 115.62 107.68 115.49 107.73 115.36C108.17 115.47 108.65 115.34 108.97 114.96H108.96Z" fill="#F7FEEE"/>
<path d="M106.86 114.21C107.291 114.21 107.64 113.852 107.64 113.41C107.64 112.968 107.291 112.61 106.86 112.61C106.429 112.61 106.08 112.968 106.08 113.41C106.08 113.852 106.429 114.21 106.86 114.21Z" fill="#FFC931"/>
<path d="M96.1296 122.92C96.7996 122.13 96.7196 120.95 95.9496 120.26C95.9096 120.22 95.8596 120.2 95.8196 120.17C96.3196 119.39 96.2096 118.34 95.4996 117.71C94.7896 117.08 93.7496 117.11 93.0696 117.73C93.0196 117.67 92.9796 117.62 92.9196 117.57C92.1496 116.89 90.9896 116.97 90.3196 117.76C89.8396 118.32 89.7496 119.09 90.0196 119.74C89.8496 119.84 89.6896 119.97 89.5496 120.13C88.8796 120.92 88.9596 122.1 89.7296 122.79C90.0396 123.06 90.4096 123.21 90.7796 123.24C90.8596 123.62 91.0596 123.97 91.3596 124.24C92.1296 124.92 93.2896 124.84 93.9596 124.05C94.0996 123.88 94.1996 123.7 94.2696 123.51C94.9196 123.68 95.6396 123.48 96.1096 122.93L96.1296 122.92Z" fill="#F7FEEE"/>
<path d="M93.0096 121.77C93.6503 121.77 94.1696 121.242 94.1696 120.59C94.1696 119.938 93.6503 119.41 93.0096 119.41C92.369 119.41 91.8496 119.938 91.8496 120.59C91.8496 121.242 92.369 121.77 93.0096 121.77Z" fill="#FFC931"/>
<path d="M80.5798 125.61C80.5798 124.05 79.3498 122.79 77.8198 122.79C77.7398 122.79 77.6598 122.81 77.5798 122.81C77.3998 121.43 76.2598 120.35 74.8598 120.35C73.4598 120.35 72.3098 121.43 72.1398 122.82C72.0298 122.81 71.9298 122.79 71.8098 122.79C70.2898 122.79 69.0498 124.05 69.0498 125.61C69.0498 126.73 69.6898 127.69 70.6098 128.14C70.5098 128.43 70.4498 128.73 70.4498 129.05C70.4498 130.61 71.6798 131.87 73.2098 131.87C73.8198 131.87 74.3798 131.66 74.8298 131.32C75.2898 131.66 75.8398 131.87 76.4498 131.87C77.9698 131.87 79.2098 130.61 79.2098 129.05C79.2098 128.72 79.1398 128.41 79.0398 128.12C79.9398 127.66 80.5598 126.71 80.5598 125.61H80.5798Z" fill="#F7FEEE"/>
<path d="M74.8198 127.89C75.7753 127.89 76.5499 127.098 76.5499 126.12C76.5499 125.143 75.7753 124.35 74.8198 124.35C73.8644 124.35 73.0898 125.143 73.0898 126.12C73.0898 127.098 73.8644 127.89 74.8198 127.89Z" fill="#FFC931"/>
<path d="M16.1499 78.13C16.1499 79.09 16.9299 79.87 17.8899 79.87C17.9399 79.87 17.9899 79.86 18.0399 79.85C18.1499 80.7 18.8699 81.36 19.7599 81.36C20.6499 81.36 21.3699 80.7 21.4799 79.84C21.5499 79.84 21.6199 79.86 21.6899 79.86C22.6499 79.86 23.4299 79.08 23.4299 78.12C23.4299 77.43 23.0299 76.84 22.4399 76.56C22.4999 76.38 22.5399 76.2 22.5399 76C22.5399 75.04 21.7599 74.26 20.7999 74.26C20.4199 74.26 20.0599 74.39 19.7799 74.6C19.4899 74.39 19.1399 74.26 18.7599 74.26C17.7999 74.26 17.0199 75.04 17.0199 76C17.0199 76.2 17.0599 76.39 17.1199 76.57C16.5499 76.86 16.1599 77.44 16.1599 78.12L16.1499 78.13Z" fill="#F7FEEE"/>
<path d="M19.7897 78.91C20.3917 78.91 20.8797 78.422 20.8797 77.82C20.8797 77.218 20.3917 76.73 19.7897 76.73C19.1877 76.73 18.6997 77.218 18.6997 77.82C18.6997 78.422 19.1877 78.91 19.7897 78.91Z" fill="#FFC931"/>
<path d="M25 47.79C25 49 25.98 49.9799 27.19 49.9799C27.26 49.9799 27.32 49.9699 27.38 49.9599C27.52 51.0299 28.43 51.8699 29.54 51.8699C30.65 51.8699 31.56 51.0299 31.7 49.9599C31.79 49.9699 31.87 49.99 31.96 49.99C33.17 49.99 34.15 49.0099 34.15 47.7999C34.15 46.9299 33.64 46.19 32.91 45.84C32.99 45.62 33.04 45.3799 33.04 45.1399C33.04 43.9299 32.06 42.95 30.85 42.95C30.37 42.95 29.92 43.11 29.56 43.38C29.2 43.11 28.76 42.95 28.27 42.95C27.06 42.95 26.08 43.9299 26.08 45.1399C26.08 45.3899 26.13 45.63 26.21 45.86C25.5 46.22 25 46.95 25 47.81V47.79Z" fill="#F7FEEE"/>
<path d="M29.5802 48.78C30.3423 48.78 30.9602 48.1622 30.9602 47.4C30.9602 46.6379 30.3423 46.02 29.5802 46.02C28.818 46.02 28.2002 46.6379 28.2002 47.4C28.2002 48.1622 28.818 48.78 29.5802 48.78Z" fill="#FFC931"/>
<path d="M19.15 62.9899C19.34 63.7799 20.14 64.2599 20.92 64.0699C20.96 64.0599 21 64.0399 21.04 64.0299C21.3 64.7099 22.03 65.0999 22.75 64.9299C23.47 64.7599 23.93 64.0599 23.85 63.3399C23.91 63.3399 23.97 63.3299 24.02 63.3199C24.81 63.1299 25.29 62.3299 25.1 61.5499C24.96 60.9899 24.51 60.5799 23.98 60.4699C23.99 60.3099 23.98 60.1499 23.95 59.9899C23.76 59.1999 22.96 58.7199 22.18 58.9099C21.87 58.9899 21.6 59.1599 21.41 59.3899C21.13 59.2799 20.82 59.2399 20.5 59.3199C19.71 59.5099 19.23 60.3099 19.42 61.0899C19.46 61.2599 19.53 61.3999 19.62 61.5399C19.21 61.8899 19.01 62.4399 19.14 62.9999L19.15 62.9899Z" fill="#F7FEEE"/>
<path d="M22.0699 62.9298C22.578 62.9298 22.9899 62.5179 22.9899 62.0098C22.9899 61.5017 22.578 61.0898 22.0699 61.0898C21.5618 61.0898 21.1499 61.5017 21.1499 62.0098C21.1499 62.5179 21.5618 62.9298 22.0699 62.9298Z" fill="#FFC931"/>
<path d="M36.9999 32.4C36.5599 32.93 36.6199 33.73 37.1299 34.19C37.1599 34.21 37.1899 34.23 37.2199 34.25C36.8899 34.77 36.9699 35.48 37.4499 35.9C37.9299 36.32 38.6299 36.29 39.0799 35.87C39.1099 35.91 39.1399 35.95 39.1799 35.98C39.6999 36.43 40.4799 36.37 40.9199 35.84C41.2399 35.46 41.2899 34.94 41.1099 34.51C41.2199 34.44 41.3299 34.36 41.4199 34.25C41.8599 33.72 41.7999 32.92 41.2899 32.46C41.0799 32.28 40.8299 32.18 40.5799 32.16C40.5199 31.91 40.3899 31.67 40.1799 31.49C39.6599 31.04 38.8799 31.1 38.4399 31.63C38.3499 31.74 38.2799 31.87 38.2299 32C37.7899 31.89 37.3099 32.02 36.9899 32.4H36.9999Z" fill="#F7FEEE"/>
<path d="M39.1101 34.7501C39.5409 34.7501 39.8901 34.392 39.8901 33.9501C39.8901 33.5083 39.5409 33.1501 39.1101 33.1501C38.6793 33.1501 38.3301 33.5083 38.3301 33.9501C38.3301 34.392 38.6793 34.7501 39.1101 34.7501Z" fill="#FFC931"/>
<path d="M49.8401 24.4501C49.1701 25.2401 49.2501 26.4201 50.0201 27.1101C50.0601 27.1501 50.1101 27.1701 50.1501 27.2001C49.6501 27.9801 49.7601 29.0301 50.4701 29.6601C51.1801 30.2901 52.2201 30.2601 52.9001 29.6401C52.9501 29.7001 52.9901 29.7501 53.0501 29.8001C53.8201 30.4801 54.9801 30.4001 55.6501 29.6101C56.1301 29.0501 56.2201 28.2801 55.9501 27.6301C56.1201 27.5301 56.2801 27.4001 56.4201 27.2401C57.0901 26.4501 57.0101 25.2701 56.2401 24.5801C55.9301 24.3101 55.5601 24.1601 55.1901 24.1301C55.1101 23.7501 54.9101 23.4001 54.6101 23.1301C53.8401 22.4501 52.6801 22.5301 52.0101 23.3201C51.8701 23.4901 51.7701 23.6701 51.7001 23.8601C51.0501 23.6901 50.3301 23.8901 49.8601 24.4401L49.8401 24.4501Z" fill="#F7FEEE"/>
<path d="M52.9603 27.9501C53.6009 27.9501 54.1203 27.4218 54.1203 26.7701C54.1203 26.1184 53.6009 25.5901 52.9603 25.5901C52.3196 25.5901 51.8003 26.1184 51.8003 26.7701C51.8003 27.4218 52.3196 27.9501 52.9603 27.9501Z" fill="#FFC931"/>
<path d="M65.3799 21.75C65.3799 23.31 66.6099 24.57 68.1399 24.57C68.2199 24.57 68.2999 24.55 68.3799 24.55C68.5599 25.93 69.6999 27.01 71.0999 27.01C72.4999 27.01 73.6499 25.93 73.8199 24.54C73.9299 24.55 74.0299 24.57 74.1499 24.57C75.6699 24.57 76.9099 23.31 76.9099 21.75C76.9099 20.63 76.2699 19.67 75.3499 19.22C75.4499 18.93 75.5099 18.63 75.5099 18.31C75.5099 16.75 74.2799 15.49 72.7499 15.49C72.1399 15.49 71.5799 15.7 71.1299 16.04C70.6699 15.7 70.1199 15.49 69.5099 15.49C67.9899 15.49 66.7499 16.75 66.7499 18.31C66.7499 18.64 66.8199 18.95 66.9199 19.24C66.0199 19.7 65.3999 20.65 65.3999 21.75H65.3799Z" fill="#F7FEEE"/>
<path d="M71.1397 23.02C72.0951 23.02 72.8697 22.2275 72.8697 21.25C72.8697 20.2724 72.0951 19.48 71.1397 19.48C70.1842 19.48 69.4097 20.2724 69.4097 21.25C69.4097 22.2275 70.1842 23.02 71.1397 23.02Z" fill="#FFC931"/>
</svg>
