<svg width="148" height="148" viewBox="0 0 148 148" fill="none" xmlns="http://www.w3.org/2000/svg">
<path d="M74 138C109.346 138 138 109.346 138 74C138 38.6538 109.346 10 74 10C38.6538 10 10 38.6538 10 74C10 109.346 38.6538 138 74 138Z" fill="#FDFBEF"/>
<path d="M80.12 29.4399C80.12 28.0099 78.96 26.8499 77.53 26.8499C77.45 26.8499 77.38 26.8699 77.31 26.8699C77.14 25.5999 76.07 24.6199 74.76 24.6199C73.45 24.6199 72.37 25.6099 72.2 26.8799C72.1 26.8699 72 26.8499 71.89 26.8499C70.46 26.8499 69.3 28.0099 69.3 29.4399C69.3 30.4699 69.9 31.3399 70.77 31.7599C70.68 32.0199 70.62 32.2999 70.62 32.5899C70.62 34.0199 71.78 35.1799 73.21 35.1799C73.78 35.1799 74.3 34.9899 74.73 34.6799C75.16 34.9899 75.68 35.1799 76.25 35.1799C77.68 35.1799 78.84 34.0199 78.84 32.5899C78.84 32.2899 78.78 32.0099 78.68 31.7399C79.53 31.3099 80.11 30.4499 80.11 29.4399H80.12Z" fill="#FFE94A"/>
<path d="M74.7201 31.5298C75.6203 31.5298 76.3501 30.8 76.3501 29.8998C76.3501 28.9996 75.6203 28.2698 74.7201 28.2698C73.8199 28.2698 73.0901 28.9996 73.0901 29.8998C73.0901 30.8 73.8199 31.5298 74.7201 31.5298Z" fill="#FFC931"/>
<path d="M69.4601 32.13C67.5701 31.34 66.0401 31.76 64.5201 32.85C63.2001 33.94 64.2201 32.34 64.7001 31.82C65.9201 30.41 68.5201 30.41 69.4601 32.13Z" fill="#8DC945"/>
<path d="M79.98 31.69C80.92 29.97 83.52 29.97 84.74 31.38C85.22 31.9 86.24 33.51 84.92 32.41C83.4 31.32 81.87 30.9 79.98 31.69Z" fill="#8DC945"/>
<path d="M70.8001 20.9199C70.8001 19.7999 69.9001 18.8999 68.7801 18.8999C68.7201 18.8999 68.6601 18.9099 68.6101 18.9199C68.4801 17.9299 67.6401 17.1599 66.6201 17.1599C65.6001 17.1599 64.7501 17.9299 64.6301 18.9299C64.5501 18.9299 64.4701 18.9099 64.3901 18.9099C63.2701 18.9099 62.3701 19.8099 62.3701 20.9299C62.3701 21.7299 62.8401 22.4199 63.5201 22.7399C63.4501 22.9499 63.4001 23.1599 63.4001 23.3899C63.4001 24.5099 64.3001 25.4099 65.4201 25.4099C65.8701 25.4099 66.2701 25.2599 66.6101 25.0199C66.9401 25.2599 67.3501 25.4099 67.8001 25.4099C68.9201 25.4099 69.8201 24.5099 69.8201 23.3899C69.8201 23.1599 69.7701 22.9299 69.7001 22.7199C70.3601 22.3899 70.8201 21.7099 70.8201 20.9199H70.8001Z" fill="#CBF36E"/>
<path d="M66.5801 22.55C67.2815 22.55 67.8501 21.9814 67.8501 21.28C67.8501 20.5786 67.2815 20.01 66.5801 20.01C65.8787 20.01 65.3101 20.5786 65.3101 21.28C65.3101 21.9814 65.8787 22.55 66.5801 22.55Z" fill="#F7FEEE"/>
<path d="M62.0701 23.0699C62.0701 23.0699 59.9601 21.2199 56.9501 23.0199C56.9201 23.0399 56.8901 23.0499 56.8601 23.0699C53.7901 24.9499 60.2301 25.9999 62.0701 23.0699Z" fill="#8DC945"/>
<path d="M62.7201 24.71C62.7201 24.71 60.5201 24.63 59.5701 27.22C59.5701 27.25 59.5501 27.27 59.5401 27.3C58.6001 29.97 63.0501 27.42 62.7201 24.71Z" fill="#ACDE47"/>
<path d="M87.1202 21.1099C87.1202 19.9899 86.2202 19.0899 85.1002 19.0899C85.0402 19.0899 84.9802 19.0999 84.9302 19.1099C84.8002 18.1199 83.9602 17.3499 82.9402 17.3499C81.9202 17.3499 81.0702 18.1199 80.9502 19.1199C80.8702 19.1199 80.7902 19.0999 80.7102 19.0999C79.5902 19.0999 78.6902 19.9999 78.6902 21.1199C78.6902 21.9199 79.1602 22.6099 79.8402 22.9299C79.7702 23.1399 79.7202 23.3499 79.7202 23.5799C79.7202 24.6999 80.6202 25.5999 81.7402 25.5999C82.1902 25.5999 82.5902 25.4499 82.9302 25.2099C83.2602 25.4499 83.6702 25.5999 84.1202 25.5999C85.2402 25.5999 86.1402 24.6999 86.1402 23.5799C86.1402 23.3499 86.0902 23.1199 86.0202 22.9099C86.6802 22.5799 87.1402 21.8999 87.1402 21.1099H87.1202Z" fill="#CBF36E"/>
<path d="M82.9001 22.74C83.6015 22.74 84.1701 22.1714 84.1701 21.4699C84.1701 20.7685 83.6015 20.2 82.9001 20.2C82.1987 20.2 81.6301 20.7685 81.6301 21.4699C81.6301 22.1714 82.1987 22.74 82.9001 22.74Z" fill="#F7FEEE"/>
<path d="M87.1301 24.8599C87.1301 24.8599 89.3301 24.7799 90.2801 27.3699C90.2801 27.3999 90.3001 27.4199 90.3101 27.4499C91.2501 30.1199 86.8001 27.5699 87.1301 24.8599Z" fill="#ACDE47"/>
<path d="M87.6902 23.2198C87.6902 23.2198 89.8002 21.3698 92.8102 23.1698C92.8402 23.1898 92.8702 23.1998 92.9002 23.2198C95.9702 25.0998 89.5302 26.1498 87.6902 23.2198Z" fill="#8DC945"/>
<path d="M69.6401 118.73C69.6401 120.16 70.8001 121.32 72.2301 121.32C72.3101 121.32 72.3801 121.3 72.4501 121.3C72.6201 122.57 73.6901 123.55 75.0001 123.55C76.3101 123.55 77.3901 122.56 77.5601 121.29C77.6601 121.3 77.7601 121.32 77.8701 121.32C79.3001 121.32 80.4601 120.16 80.4601 118.73C80.4601 117.7 79.8601 116.83 78.9901 116.41C79.0801 116.15 79.1401 115.87 79.1401 115.58C79.1401 114.15 77.9801 112.99 76.5501 112.99C75.9801 112.99 75.4601 113.18 75.0301 113.49C74.6001 113.18 74.0801 112.99 73.5101 112.99C72.0801 112.99 70.9201 114.15 70.9201 115.58C70.9201 115.88 70.9801 116.16 71.0801 116.43C70.2301 116.86 69.6501 117.72 69.6501 118.73H69.6401Z" fill="#FFE94A"/>
<path d="M75.0402 119.89C75.9404 119.89 76.6702 119.16 76.6702 118.26C76.6702 117.36 75.9404 116.63 75.0402 116.63C74.1399 116.63 73.4102 117.36 73.4102 118.26C73.4102 119.16 74.1399 119.89 75.0402 119.89Z" fill="#FFC931"/>
<path d="M80.3 116.03C82.19 116.82 83.72 116.4 85.24 115.31C86.56 114.22 85.54 115.82 85.06 116.34C83.84 117.75 81.24 117.75 80.3 116.03Z" fill="#8DC945"/>
<path d="M69.7802 116.47C68.8402 118.19 66.2402 118.19 65.0202 116.78C64.5402 116.26 63.5202 114.65 64.8402 115.75C66.3602 116.84 67.8902 117.26 69.7802 116.47Z" fill="#8DC945"/>
<path d="M78.9602 127.24C78.9602 128.36 79.8602 129.26 80.9802 129.26C81.0402 129.26 81.1002 129.25 81.1502 129.24C81.2802 130.23 82.1202 131 83.1402 131C84.1602 131 85.0102 130.23 85.1302 129.23C85.2102 129.23 85.2902 129.25 85.3702 129.25C86.4902 129.25 87.3902 128.35 87.3902 127.23C87.3902 126.43 86.9202 125.74 86.2402 125.42C86.3102 125.21 86.3602 125 86.3602 124.77C86.3602 123.65 85.4602 122.75 84.3402 122.75C83.8902 122.75 83.4902 122.9 83.1502 123.14C82.8202 122.9 82.4102 122.75 81.9602 122.75C80.8402 122.75 79.9402 123.65 79.9402 124.77C79.9402 125 79.9902 125.23 80.0602 125.44C79.4002 125.77 78.9402 126.45 78.9402 127.24H78.9602Z" fill="#CBF36E"/>
<path d="M83.1802 128.15C83.8816 128.15 84.4501 127.582 84.4501 126.88C84.4501 126.179 83.8816 125.61 83.1802 125.61C82.4788 125.61 81.9102 126.179 81.9102 126.88C81.9102 127.582 82.4788 128.15 83.1802 128.15Z" fill="#F7FEEE"/>
<path d="M87.6902 125.09C87.6902 125.09 89.8002 126.94 92.8102 125.14C92.8402 125.12 92.8702 125.11 92.9002 125.09C95.9702 123.21 89.5302 122.16 87.6902 125.09Z" fill="#8DC945"/>
<path d="M87.0402 123.45C87.0402 123.45 89.2402 123.53 90.1902 120.94C90.1902 120.91 90.2102 120.89 90.2202 120.86C91.1602 118.19 86.7102 120.74 87.0402 123.45Z" fill="#ACDE47"/>
<path d="M62.6401 127.05C62.6401 128.17 63.5401 129.07 64.6601 129.07C64.7201 129.07 64.7801 129.06 64.8301 129.05C64.9601 130.04 65.8001 130.81 66.8201 130.81C67.8401 130.81 68.6901 130.04 68.8101 129.04C68.8901 129.04 68.9701 129.06 69.0501 129.06C70.1701 129.06 71.0701 128.16 71.0701 127.04C71.0701 126.24 70.6001 125.55 69.9201 125.23C69.9901 125.02 70.0401 124.81 70.0401 124.58C70.0401 123.46 69.1401 122.56 68.0201 122.56C67.5701 122.56 67.1701 122.71 66.8301 122.95C66.5001 122.71 66.0901 122.56 65.6401 122.56C64.5201 122.56 63.6201 123.46 63.6201 124.58C63.6201 124.81 63.6701 125.04 63.7401 125.25C63.0801 125.58 62.6201 126.26 62.6201 127.05H62.6401Z" fill="#CBF36E"/>
<path d="M66.8601 127.96C67.5615 127.96 68.1301 127.392 68.1301 126.69C68.1301 125.989 67.5615 125.42 66.8601 125.42C66.1587 125.42 65.5901 125.989 65.5901 126.69C65.5901 127.392 66.1587 127.96 66.8601 127.96Z" fill="#F7FEEE"/>
<path d="M62.63 123.3C62.63 123.3 60.43 123.38 59.48 120.79C59.48 120.76 59.46 120.74 59.45 120.71C58.51 118.04 62.96 120.59 62.63 123.3Z" fill="#ACDE47"/>
<path d="M62.0701 124.94C62.0701 124.94 59.9601 126.79 56.9501 124.99C56.9201 124.97 56.8901 124.96 56.8601 124.94C53.7901 123.06 60.2301 122.01 62.0701 124.94Z" fill="#8DC945"/>
</svg>
