<svg width="148" height="148" viewBox="0 0 148 148" fill="none" xmlns="http://www.w3.org/2000/svg">
<path d="M138 51.57C138 28.61 119.39 10 96.43 10C88.16 10 80.47 12.42 74 16.58C67.53 12.42 59.83 10 51.57 10C28.61 10 10 28.61 10 51.57C10 59.84 12.42 67.53 16.58 74C12.42 80.47 10 88.17 10 96.43C10 119.39 28.61 138 51.57 138C59.84 138 67.53 135.58 74 131.42C80.47 135.58 88.17 138 96.43 138C119.39 138 138 119.39 138 96.43C138 88.16 135.58 80.47 131.42 74C135.58 67.53 138 59.83 138 51.57Z" fill="white"/>
<path d="M111.9 31.69C113.19 31.8 114.33 30.83 114.44 29.54C114.48 29.07 114.38 28.63 114.17 28.24C114.43 27.89 114.61 27.47 114.65 27.01C114.76 25.72 113.79 24.58 112.5 24.47C112.03 24.43 111.59 24.53 111.2 24.74C110.85 24.48 110.43 24.3 109.97 24.26C108.68 24.15 107.54 25.12 107.43 26.41C107.39 26.88 107.49 27.32 107.7 27.71C107.44 28.06 107.26 28.48 107.22 28.94C107.11 30.23 108.08 31.37 109.37 31.48C109.84 31.52 110.28 31.42 110.67 31.21C111.02 31.47 111.44 31.65 111.9 31.69Z" fill="#CBF36E"/>
<path d="M111.242 28.5894C111.334 28.6922 111.492 28.7007 111.595 28.6084C111.698 28.5162 111.706 28.3581 111.614 28.2554L110.846 27.3997C110.754 27.297 110.596 27.2885 110.493 27.3807C110.39 27.4729 110.382 27.631 110.474 27.7337L111.242 28.5894Z" fill="#ACDE47"/>
<path d="M111.639 27.7976C111.742 27.7054 111.75 27.5473 111.658 27.4446C111.566 27.3418 111.408 27.3333 111.305 27.4256L110.45 28.1939C110.347 28.2861 110.338 28.4442 110.431 28.5469C110.523 28.6497 110.681 28.6582 110.784 28.5659L111.639 27.7976Z" fill="#ACDE47"/>
<path d="M117.22 41.71C116.99 42.99 117.84 44.21 119.12 44.44C119.58 44.52 120.03 44.47 120.44 44.3C120.76 44.6 121.16 44.81 121.62 44.89C122.9 45.12 124.12 44.27 124.35 42.99C124.43 42.53 124.38 42.08 124.21 41.67C124.51 41.35 124.72 40.95 124.8 40.49C125.03 39.21 124.18 37.99 122.9 37.76C122.44 37.68 121.99 37.73 121.58 37.9C121.26 37.6 120.86 37.39 120.4 37.31C119.12 37.08 117.9 37.93 117.67 39.21C117.59 39.67 117.64 40.12 117.81 40.53C117.51 40.85 117.3 41.25 117.22 41.71Z" fill="#CBF36E"/>
<path d="M120.361 41.3562C120.249 41.4381 120.226 41.5946 120.308 41.7058C120.39 41.8169 120.546 41.8406 120.657 41.7586L121.583 41.0762C121.694 40.9943 121.718 40.8377 121.636 40.7266C121.554 40.6155 121.397 40.5918 121.286 40.6737L120.361 41.3562Z" fill="#ACDE47"/>
<path d="M121.116 41.8294C121.198 41.9405 121.355 41.9642 121.466 41.8822C121.577 41.8003 121.601 41.6438 121.519 41.5327L120.836 40.607C120.754 40.4959 120.598 40.4722 120.487 40.5542C120.375 40.6361 120.352 40.7926 120.434 40.9037L121.116 41.8294Z" fill="#ACDE47"/>
<path d="M115.17 37.4399C116.3 38.8499 118.37 39.0699 119.77 37.9299C120.28 37.5199 120.63 36.9899 120.82 36.4199C121.42 36.3599 122.01 36.1199 122.52 35.7099C123.93 34.5799 124.15 32.5099 123.01 31.1099C122.6 30.5999 122.07 30.2499 121.5 30.0599C121.44 29.4599 121.2 28.8699 120.79 28.3599C119.66 26.9499 117.59 26.7299 116.19 27.8699C115.68 28.2799 115.33 28.8099 115.14 29.3799C114.54 29.4399 113.95 29.6799 113.44 30.0899C112.03 31.2199 111.81 33.2899 112.95 34.6899C113.36 35.1999 113.89 35.5499 114.46 35.7399C114.52 36.3399 114.76 36.9299 115.17 37.4399Z" fill="#8DC945"/>
<path d="M117.784 32.2129L117.66 33.798C117.645 33.9908 117.789 34.1592 117.981 34.1744C118.174 34.1895 118.343 34.0456 118.358 33.8528L118.482 32.2677C118.497 32.075 118.353 31.9065 118.161 31.8914C117.968 31.8763 117.8 32.0202 117.784 32.2129Z" fill="#CBF36E"/>
<path d="M117.301 32.6164C117.109 32.6013 116.94 32.7452 116.925 32.9379C116.91 33.1306 117.054 33.2991 117.247 33.3143L118.832 33.4387C119.024 33.4539 119.193 33.3099 119.208 33.1172C119.223 32.9245 119.079 32.756 118.887 32.7409L117.301 32.6164Z" fill="#CBF36E"/>
<path d="M37.5 118.69C36.2 118.7 35.16 119.77 35.17 121.07C35.17 121.54 35.32 121.97 35.56 122.33C35.33 122.7 35.2 123.14 35.2 123.6C35.21 124.9 36.28 125.94 37.58 125.93C38.05 125.93 38.48 125.78 38.84 125.54C39.21 125.77 39.65 125.9 40.11 125.9C41.41 125.89 42.45 124.82 42.44 123.52C42.44 123.05 42.29 122.62 42.05 122.26C42.28 121.89 42.41 121.45 42.41 120.99C42.4 119.69 41.33 118.65 40.03 118.66C39.56 118.66 39.13 118.81 38.77 119.05C38.4 118.82 37.96 118.69 37.5 118.69Z" fill="#CBF36E"/>
<path d="M38.4355 121.712C38.3341 121.618 38.1759 121.624 38.0822 121.726C37.9885 121.827 37.9948 121.985 38.0962 122.079L38.941 122.859C39.0424 122.953 39.2006 122.947 39.2943 122.845C39.3879 122.744 39.3817 122.586 39.2803 122.492L38.4355 121.712Z" fill="#ACDE47"/>
<path d="M38.1114 122.544C38.0178 122.646 38.024 122.804 38.1254 122.898C38.2269 122.991 38.385 122.985 38.4787 122.883L39.259 122.039C39.3527 121.937 39.3465 121.779 39.245 121.685C39.1436 121.592 38.9855 121.598 38.8918 121.699L38.1114 122.544Z" fill="#ACDE47"/>
<path d="M31.2599 109.21C31.3699 107.92 30.4099 106.78 29.1199 106.67C28.6499 106.63 28.2099 106.73 27.8199 106.93C27.4799 106.66 27.0499 106.49 26.5899 106.45C25.2999 106.34 24.1599 107.3 24.0499 108.59C24.0099 109.06 24.1099 109.5 24.3099 109.89C24.0399 110.23 23.8699 110.66 23.8299 111.12C23.7199 112.41 24.6799 113.55 25.9699 113.66C26.4399 113.7 26.8799 113.6 27.2699 113.4C27.6099 113.67 28.0399 113.84 28.4999 113.88C29.7899 113.99 30.9299 113.03 31.0399 111.74C31.0799 111.27 30.9799 110.83 30.7799 110.44C31.0499 110.1 31.2199 109.67 31.2599 109.21Z" fill="#CBF36E"/>
<path d="M28.1664 109.856C28.2695 109.764 28.2784 109.606 28.1865 109.503C28.0946 109.4 27.9365 109.391 27.8335 109.483L26.9755 110.249C26.8725 110.341 26.8636 110.499 26.9555 110.602C27.0474 110.705 27.2055 110.714 27.3085 110.622L28.1664 109.856Z" fill="#ACDE47"/>
<path d="M27.3759 109.454C27.284 109.351 27.1259 109.342 27.0229 109.434C26.9199 109.526 26.911 109.684 27.0029 109.787L27.7687 110.645C27.8606 110.748 28.0186 110.757 28.1216 110.665C28.2246 110.573 28.2336 110.415 28.1417 110.312L27.3759 109.454Z" fill="#ACDE47"/>
<path d="M33.7 113.27C32.44 111.97 30.37 111.95 29.07 113.21C28.6 113.66 28.3 114.22 28.17 114.81C27.58 114.93 27.01 115.22 26.54 115.67C25.24 116.93 25.22 119 26.48 120.3C26.93 120.77 27.49 121.07 28.08 121.2C28.2 121.79 28.49 122.36 28.94 122.83C30.2 124.13 32.27 124.15 33.57 122.89C34.04 122.44 34.34 121.88 34.47 121.29C35.06 121.17 35.63 120.88 36.1 120.43C37.4 119.17 37.42 117.1 36.16 115.8C35.71 115.33 35.15 115.03 34.56 114.9C34.44 114.31 34.15 113.74 33.7 113.27Z" fill="#8DC945"/>
<path d="M31.5646 117.123C31.5616 116.93 31.4026 116.775 31.2093 116.778C31.0161 116.781 30.8617 116.94 30.8646 117.133L30.8885 118.723C30.8914 118.917 31.0504 119.071 31.2437 119.068C31.437 119.065 31.5913 118.906 31.5884 118.713L31.5646 117.123Z" fill="#CBF36E"/>
<path d="M32.0111 117.566L30.4213 117.59C30.228 117.593 30.0736 117.752 30.0765 117.945C30.0794 118.139 30.2385 118.293 30.4318 118.29L32.0216 118.266C32.2149 118.263 32.3692 118.104 32.3663 117.911C32.3634 117.718 32.2043 117.563 32.0111 117.566Z" fill="#CBF36E"/>
</svg>
