<svg width="148" height="148" viewBox="0 0 148 148" fill="none" xmlns="http://www.w3.org/2000/svg">
<path d="M134.08 10H13.92C11.755 10 10 11.755 10 13.92V134.08C10 136.245 11.755 138 13.92 138H134.08C136.245 138 138 136.245 138 134.08V13.92C138 11.755 136.245 10 134.08 10Z" fill="#D9EDA4"/>
<path d="M28.2999 27.78C29.0199 26.54 28.5999 24.96 27.3699 24.24C26.9299 23.98 26.4299 23.87 25.9599 23.89C25.7399 23.46 25.3999 23.09 24.9599 22.83C23.7199 22.11 22.1399 22.53 21.4199 23.76C21.1599 24.2 21.0499 24.7 21.0699 25.17C20.6399 25.39 20.2699 25.73 20.0099 26.17C19.2899 27.41 19.7099 28.99 20.9399 29.71C21.3799 29.97 21.8799 30.08 22.3499 30.06C22.5699 30.49 22.9099 30.86 23.3499 31.12C24.5899 31.84 26.1699 31.42 26.8899 30.19C27.1499 29.75 27.2599 29.25 27.2399 28.78C27.6699 28.56 28.0399 28.22 28.2999 27.78Z" fill="#ACDE47"/>
<path d="M24.9038 26.9618C25.0522 26.9183 25.1378 26.7648 25.095 26.6191C25.0523 26.4734 24.8973 26.3905 24.7489 26.4341L23.5495 26.7862C23.4011 26.8297 23.3155 26.9832 23.3583 27.1289C23.4011 27.2746 23.5561 27.3575 23.7044 27.3139L24.9038 26.9618Z" fill="#59AF38"/>
<path d="M24.3117 26.1963C24.2681 26.0479 24.1147 25.9623 23.9689 26.0051C23.8232 26.0478 23.7404 26.2028 23.7839 26.3512L24.136 27.5506C24.1796 27.699 24.333 27.7846 24.4788 27.7418C24.6245 27.699 24.7073 27.544 24.6638 27.3957L24.3117 26.1963Z" fill="#59AF38"/>
<path d="M41.8002 130.34C42.2202 129.61 41.9802 128.68 41.2502 128.26C40.9902 128.11 40.7002 128.04 40.4202 128.05C40.2902 127.8 40.0902 127.58 39.8302 127.43C39.1002 127.01 38.1702 127.25 37.7502 127.98C37.6002 128.24 37.5302 128.53 37.5402 128.81C37.2902 128.94 37.0702 129.14 36.9202 129.4C36.5002 130.13 36.7402 131.06 37.4702 131.48C37.7302 131.63 38.0202 131.7 38.3002 131.69C38.4302 131.94 38.6302 132.16 38.8902 132.31C39.6202 132.73 40.5502 132.49 40.9702 131.76C41.1202 131.5 41.1902 131.21 41.1802 130.93C41.4302 130.8 41.6502 130.6 41.8002 130.34Z" fill="#78C13B"/>
<path d="M39.8165 129.855C39.9013 129.83 39.9498 129.741 39.925 129.656C39.9001 129.571 39.8112 129.523 39.7264 129.548L39.0067 129.759C38.922 129.784 38.8734 129.873 38.8983 129.957C38.9232 130.042 39.0121 130.091 39.0969 130.066L39.8165 129.855Z" fill="#CBF36E"/>
<path d="M39.4546 129.404C39.4298 129.319 39.3408 129.27 39.2561 129.295C39.1713 129.32 39.1227 129.409 39.1476 129.494L39.3589 130.213C39.3837 130.298 39.4727 130.347 39.5574 130.322C39.6422 130.297 39.6908 130.208 39.6659 130.123L39.4546 129.404Z" fill="#CBF36E"/>
<path d="M124.56 79.4099C124.6 78.4099 125.89 77.5599 126.75 78.2099C125.83 78.3899 125.31 78.8299 124.56 79.4099Z" fill="#6FB64E"/>
<path d="M124.5 78.4C124.44 77.45 124.43 76.77 123.96 75.96C125.02 76.18 125.23 77.71 124.5 78.4Z" fill="#6FB64E"/>
<path d="M127.64 74.63C127.51 75.12 127.24 75.59 126.83 75.88C126.62 76.01 126.32 76.08 126.14 76.26C125.75 76.59 125.77 77.22 125.58 77.65C125.38 78.4 125.04 78.77 124.73 79.57L124.63 79.6C124.17 79.19 124.1 78.45 124.28 77.89C124.41 77.48 124.68 77.14 124.97 76.84C125.27 76.58 125.67 76.38 125.87 76.03C126.01 75.81 126.05 75.5 126.18 75.26C126.45 74.82 126.97 74.53 127.5 74.5C127.68 74.5 127.66 74.5 127.65 74.62L127.64 74.63Z" fill="#7EC600"/>
<path d="M127.56 73.4299C127.56 73.4299 128.83 71.2599 127.54 70.7899C126.25 70.3199 126.79 73.5299 126.79 73.5299L127.56 73.4199V73.4299Z" fill="#FFFDFD"/>
<path d="M127.66 73.1499C127.66 73.1499 128.32 71.1599 129.32 71.7099C130.32 72.2599 128.02 73.6899 128.02 73.6899L127.66 73.1499Z" fill="#FFFDFD"/>
<path d="M128.4 73.3999C128.4 73.3999 129.98 72.0299 130.56 72.9999C131.14 73.9699 128.43 74.0399 128.43 74.0399L128.4 73.3899V73.3999Z" fill="#FFFDFD"/>
<path d="M128.66 73.9699C128.66 73.9699 131.12 73.6299 131.16 74.8599C131.2 76.0899 128.32 74.5799 128.32 74.5799L128.66 73.9699Z" fill="#FFFDFD"/>
<path d="M128.62 74.5698C128.62 74.5698 130.62 75.6598 129.98 76.5898C129.34 77.5198 128.04 74.8398 128.04 74.8398L128.63 74.5698H128.62Z" fill="#FFFDFD"/>
<path d="M128.27 74.7498C128.27 74.7498 129.1 76.8698 128 77.1698C126.9 77.4698 127.65 74.5798 127.65 74.5798L128.27 74.7598V74.7498Z" fill="#FFFDFD"/>
<path d="M127.65 74.9099C127.65 74.9099 127.13 77.1299 126.07 76.7499C125.01 76.3699 127.24 74.4099 127.24 74.4099L127.65 74.9099Z" fill="#FFFDFD"/>
<path d="M126.54 74.29C126.54 74.29 124.39 74.7 124.71 75.74C125.03 76.78 127 74.71 127 74.71L126.54 74.3V74.29Z" fill="#FFFDFD"/>
<path d="M126.09 73.76C126.09 73.76 123.87 73.45 123.84 74.56C123.81 75.67 126.4 74.31 126.4 74.31L126.09 73.76Z" fill="#FFFDFD"/>
<path d="M125.88 73.78C125.88 73.78 123.68 74.17 123.6 73.06C123.52 71.95 126.17 73.22 126.17 73.22L125.88 73.78Z" fill="#FFFDFD"/>
<path d="M126.93 73.0999C126.93 73.0999 126.17 70.5999 124.96 71.1399C123.75 71.6799 126.49 73.7099 126.49 73.7099L126.93 73.0999Z" fill="#FFFDFD"/>
<path d="M129.095 74.4996C129.261 73.9381 128.669 73.2689 127.774 73.0049C126.879 72.7409 126.019 72.9821 125.853 73.5436C125.688 74.1051 126.279 74.7743 127.174 75.0383C128.07 75.3023 128.93 75.0611 129.095 74.4996Z" fill="#FFC931"/>
<path d="M128.91 74.2299C128.96 74.0499 128.93 73.8699 128.85 73.6799C129.11 73.9599 129.23 74.2799 129.14 74.5699C128.97 75.1299 128.11 75.3699 127.22 75.1099C126.61 74.9299 126.14 74.5599 125.96 74.1599C126.2 74.4199 126.56 74.6399 126.99 74.7699C127.88 75.0299 128.74 74.7899 128.91 74.2299Z" fill="#F7BC14"/>
<path d="M125.85 73.5398C126.02 72.9798 126.87 72.7398 127.77 72.9998C128.35 73.1698 128.79 73.5098 129 73.8798C128.76 73.6198 128.4 73.3998 127.97 73.2698C127.08 73.0098 126.22 73.2498 126.05 73.8098C125.99 74.0098 126.03 74.2198 126.14 74.4298C125.88 74.1498 125.77 73.8398 125.85 73.5498V73.5398Z" fill="#FFD55F"/>
<path d="M127.49 71.1499C127.66 71.6699 127.62 72.2999 127.28 72.7499C127.41 72.2299 127.44 71.6899 127.49 71.1499Z" fill="#EDEDED"/>
<path d="M129.12 71.8999C128.81 72.2699 128.49 72.6299 128.25 73.0599C128.28 72.5499 128.67 72.1099 129.12 71.8999Z" fill="#EDEDED"/>
<path d="M130.27 73.11C129.83 73.24 129.41 73.33 129 73.55C129.28 73.16 129.82 73.02 130.27 73.11Z" fill="#EDEDED"/>
<path d="M130.88 74.78C130.38 74.66 129.88 74.51 129.36 74.47C129.87 74.29 130.46 74.45 130.88 74.78Z" fill="#EDEDED"/>
<path d="M124.99 75.62C125.25 75.17 125.75 74.79 126.28 74.77C125.81 75 125.41 75.32 124.99 75.62Z" fill="#EDEDED"/>
<path d="M124.23 74.53C124.64 74.2 125.23 74.03 125.74 74.21C125.22 74.26 124.73 74.4 124.23 74.53Z" fill="#EDEDED"/>
<path d="M124.12 73.14C124.63 73.02 125.24 73.12 125.62 73.5C125.13 73.32 124.62 73.24 124.12 73.14Z" fill="#EDEDED"/>
<path d="M129.76 76.43C129.45 76.02 129.15 75.6 128.77 75.24C129.28 75.41 129.64 75.92 129.76 76.43Z" fill="#EDEDED"/>
<path d="M127.9 76.8199C127.95 76.3499 128.01 75.8799 127.97 75.4099C128.23 75.8399 128.15 76.4099 127.9 76.8199Z" fill="#EDEDED"/>
<path d="M126.17 76.37C126.48 76.02 126.81 75.68 127.06 75.27C127.02 75.77 126.62 76.19 126.17 76.37Z" fill="#EDEDED"/>
<path d="M125.28 71.48C125.74 71.78 126.11 72.29 126.13 72.85C125.9 72.36 125.58 71.93 125.28 71.48Z" fill="#EDEDED"/>
<path d="M131.15 77.1898C131.52 77.1698 131.86 77.3197 131.89 77.6397C131.89 77.7797 131.77 77.9598 131.78 78.0798C131.78 78.1998 131.88 78.2897 132.01 78.3797C132.27 78.5497 132.42 78.8098 132.43 79.1198C132.43 79.4898 131.91 80.0298 131.63 79.7498C131.49 79.3698 131.32 79.3298 131.29 79.1598C131.28 78.9598 131.34 78.7697 131.45 78.5597C131.51 78.4297 131.53 78.2997 131.45 78.2097C131.38 78.1197 131.18 78.0897 131.07 78.0197C130.96 77.9497 130.96 77.8498 130.95 77.7298C130.97 77.4698 131.04 77.4498 131.14 77.1898H131.15Z" fill="#7EC600"/>
<path d="M130.83 76.7798C130.83 76.7798 129.96 75.4798 130.74 75.1498C131.52 74.8198 131.31 76.8198 131.31 76.8198L130.83 76.7798Z" fill="#FFFDFD"/>
<path d="M130.76 76.6098C130.76 76.6098 130.27 75.4098 129.68 75.7798C129.09 76.1498 130.56 76.9598 130.56 76.9598L130.76 76.6098Z" fill="#FFFDFD"/>
<path d="M130.31 76.7898C130.31 76.7898 129.28 75.9998 128.96 76.6298C128.64 77.2598 130.32 77.1998 130.32 77.1998V76.7998L130.31 76.7898Z" fill="#FFFDFD"/>
<path d="M130.17 77.1498C130.17 77.1498 128.63 77.0298 128.66 77.7998C128.69 78.5698 130.41 77.5198 130.41 77.5198L130.17 77.1498Z" fill="#FFFDFD"/>
<path d="M130.22 77.5198C130.22 77.5198 129.02 78.2698 129.46 78.8198C129.9 79.3698 130.6 77.6598 130.6 77.6598L130.23 77.5198H130.22Z" fill="#FFFDFD"/>
<path d="M130.44 77.6198C130.44 77.6198 130.01 78.9697 130.7 79.1097C131.39 79.2497 130.82 77.4897 130.82 77.4897L130.44 77.6198Z" fill="#FFFDFD"/>
<path d="M130.83 77.6899C130.83 77.6899 131.24 79.0399 131.88 78.7699C132.52 78.4999 131.06 77.3699 131.06 77.3699L130.82 77.6899H130.83Z" fill="#FFFDFD"/>
<path d="M131.5 77.2698C131.5 77.2698 132.85 77.4398 132.69 78.0998C132.53 78.7598 131.23 77.5498 131.23 77.5498L131.5 77.2798V77.2698Z" fill="#FFFDFD"/>
<path d="M131.76 76.9197C131.76 76.9197 133.12 76.6397 133.18 77.3297C133.24 78.0197 131.59 77.2697 131.59 77.2697L131.76 76.9197Z" fill="#FFFDFD"/>
<path d="M131.88 76.9199C131.88 76.9199 133.26 77.0699 133.26 76.3799C133.26 75.6899 131.68 76.5799 131.68 76.5799L131.88 76.9199Z" fill="#FFFDFD"/>
<path d="M131.21 76.5399C131.21 76.5399 131.59 74.9599 132.36 75.2499C133.13 75.5399 131.51 76.8999 131.51 76.8999L131.21 76.5399Z" fill="#FFFDFD"/>
<path d="M131.125 77.7697C131.67 77.5716 132.011 77.1332 131.886 76.7907C131.762 76.4481 131.219 76.331 130.674 76.5292C130.129 76.7273 129.788 77.1656 129.913 77.5082C130.037 77.8508 130.58 77.9679 131.125 77.7697Z" fill="#FFC931"/>
<path d="M130.03 77.3197C129.99 77.2097 130 77.0997 130.05 76.9797C129.9 77.1597 129.84 77.3597 129.9 77.5397C130.02 77.8797 130.57 77.9997 131.11 77.7997C131.48 77.6597 131.75 77.4197 131.85 77.1697C131.71 77.3397 131.5 77.4897 131.24 77.5897C130.7 77.7897 130.15 77.6697 130.03 77.3297V77.3197Z" fill="#F7BC14"/>
<path d="M131.89 76.7799C131.77 76.4399 131.22 76.3199 130.68 76.5199C130.33 76.6499 130.07 76.8699 129.95 77.1099C130.09 76.9399 130.3 76.7899 130.57 76.6899C131.11 76.4899 131.66 76.6099 131.78 76.9499C131.82 77.0699 131.81 77.2099 131.75 77.3399C131.9 77.1599 131.96 76.9599 131.9 76.7799H131.89Z" fill="#FFD55F"/>
<path d="M130.78 75.3599C130.87 75.6899 130.91 75.9999 130.97 76.3399C130.71 76.0999 130.65 75.6799 130.78 75.3599Z" fill="#EDEDED"/>
<path d="M129.81 75.8799C130.12 75.9499 130.39 76.2399 130.39 76.5599C130.18 76.3199 129.99 76.1299 129.81 75.8799Z" fill="#EDEDED"/>
<path d="M129.14 76.6798C129.41 76.5598 129.79 76.6398 129.95 76.8998C129.66 76.8198 129.42 76.7798 129.14 76.6798Z" fill="#EDEDED"/>
<path d="M128.83 77.7399C129.05 77.4899 129.44 77.3599 129.76 77.4899C129.44 77.5799 129.15 77.6799 128.83 77.7399Z" fill="#EDEDED"/>
<path d="M132.5 78.0298C132.2 77.8898 131.95 77.7198 131.67 77.5498C132.01 77.4998 132.35 77.7298 132.5 78.0298Z" fill="#EDEDED"/>
<path d="M132.93 77.3199C132.6 77.2999 132.31 77.2299 131.98 77.1799C132.28 77.0099 132.68 77.0999 132.93 77.3199Z" fill="#EDEDED"/>
<path d="M132.95 76.4597C132.65 76.5797 132.35 76.6497 132.03 76.7397C132.23 76.4597 132.63 76.3597 132.95 76.4597Z" fill="#EDEDED"/>
<path d="M129.59 78.7197C129.6 78.3897 129.83 78.0397 130.16 77.9497C129.96 78.2197 129.81 78.4797 129.59 78.7197Z" fill="#EDEDED"/>
<path d="M130.75 78.8798C130.54 78.6598 130.47 78.2698 130.65 78.0098C130.69 78.3198 130.74 78.5798 130.75 78.8798Z" fill="#EDEDED"/>
<path d="M131.8 78.5399C131.49 78.4799 131.21 78.2099 131.21 77.8899C131.42 78.1199 131.62 78.2999 131.8 78.5399Z" fill="#EDEDED"/>
<path d="M132.17 75.4797C132.03 75.7897 131.86 76.0597 131.7 76.3597C131.65 76.0097 131.87 75.6497 132.17 75.4797Z" fill="#EDEDED"/>
<path d="M29.9898 131.87C29.9398 130.52 28.2098 129.38 27.0498 130.26C28.2798 130.5 28.9798 131.1 29.9898 131.87Z" fill="#6FB64E"/>
<path d="M30.0799 130.51C30.1599 129.24 30.1699 128.32 30.7999 127.23C29.3799 127.53 29.0999 129.58 30.0799 130.51Z" fill="#6FB64E"/>
<path d="M25.8597 125.45C26.0397 126.11 26.3997 126.73 26.9497 127.13C27.2397 127.31 27.6397 127.4 27.8797 127.64C28.3997 128.08 28.3697 128.93 28.6297 129.51C28.8997 130.52 29.3597 131.02 29.7697 132.09L29.9097 132.13C30.5297 131.58 30.6197 130.59 30.3797 129.84C30.1997 129.29 29.8497 128.84 29.4597 128.43C29.0497 128.08 28.5097 127.81 28.2497 127.35C28.0697 127.05 28.0097 126.64 27.8297 126.32C27.4597 125.73 26.7597 125.34 26.0597 125.29C25.8197 125.29 25.8397 125.28 25.8597 125.46V125.45Z" fill="#7EC600"/>
<path d="M25.9601 123.85C25.9601 123.85 24.2601 120.93 25.9801 120.31C27.7001 119.69 26.9901 123.99 26.9901 123.99L25.9501 123.85H25.9601Z" fill="#FFFDFD"/>
<path d="M25.8301 123.47C25.8301 123.47 24.9401 120.8 23.6001 121.54C22.2601 122.28 25.3501 124.2 25.3501 124.2L25.8301 123.47Z" fill="#FFFDFD"/>
<path d="M24.8299 123.8C24.8299 123.8 22.7099 121.95 21.9299 123.27C21.1499 124.58 24.7899 124.67 24.7899 124.67L24.8299 123.8Z" fill="#FFFDFD"/>
<path d="M24.4799 124.56C24.4799 124.56 21.1699 124.1 21.1299 125.76C21.0799 127.42 24.9499 125.38 24.9499 125.38L24.4899 124.56H24.4799Z" fill="#FFFDFD"/>
<path d="M24.5401 125.37C24.5401 125.37 21.8501 126.83 22.7201 128.08C23.5901 129.33 25.3301 125.73 25.3301 125.73L24.5401 125.37Z" fill="#FFFDFD"/>
<path d="M25.0097 125.62C25.0097 125.62 23.8997 128.47 25.3697 128.87C26.8397 129.27 25.8497 125.39 25.8497 125.39L25.0197 125.63L25.0097 125.62Z" fill="#FFFDFD"/>
<path d="M25.8398 125.82C25.8398 125.82 26.5298 128.8 27.9698 128.3C29.4098 127.8 26.3998 125.16 26.3998 125.16L25.8498 125.83L25.8398 125.82Z" fill="#FFFDFD"/>
<path d="M27.33 125C27.33 125 30.22 125.55 29.79 126.94C29.36 128.34 26.71 125.55 26.71 125.55L27.33 124.99V125Z" fill="#FFFDFD"/>
<path d="M27.94 124.29C27.94 124.29 30.92 123.88 30.96 125.37C31 126.86 27.52 125.03 27.52 125.03L27.94 124.29Z" fill="#FFFDFD"/>
<path d="M28.2098 124.31C28.2098 124.31 31.1698 124.83 31.2698 123.34C31.3698 121.85 27.8198 123.56 27.8198 123.56L28.2098 124.32V124.31Z" fill="#FFFDFD"/>
<path d="M26.7998 123.39C26.7998 123.39 27.8298 120.03 29.4498 120.76C31.0698 121.49 27.3898 124.22 27.3898 124.22L26.7998 123.4V123.39Z" fill="#FFFDFD"/>
<path d="M26.4581 125.992C27.6606 125.637 28.4556 124.74 28.2338 123.988C28.012 123.236 26.8573 122.913 25.6548 123.268C24.4524 123.622 23.6574 124.52 23.8792 125.272C24.101 126.024 25.2556 126.346 26.4581 125.992Z" fill="#FFC931"/>
<path d="M24.1498 124.91C24.0798 124.67 24.1198 124.42 24.2298 124.18C23.8798 124.55 23.7198 124.98 23.8398 125.37C24.0598 126.12 25.2198 126.45 26.4198 126.09C27.2398 125.85 27.8598 125.35 28.1098 124.82C27.7898 125.17 27.3098 125.47 26.7298 125.64C25.5298 125.99 24.3698 125.67 24.1498 124.92V124.91Z" fill="#F7BC14"/>
<path d="M28.2598 123.99C28.0398 123.24 26.8798 122.91 25.6798 123.27C24.9098 123.5 24.3098 123.95 24.0298 124.45C24.3498 124.1 24.8298 123.8 25.4098 123.63C26.6098 123.28 27.7698 123.6 27.9898 124.35C28.0698 124.62 28.0098 124.9 27.8598 125.18C28.1998 124.81 28.3598 124.38 28.2498 123.99H28.2598Z" fill="#FFD55F"/>
<path d="M26.0501 120.78C25.8201 121.48 25.8801 122.33 26.3301 122.92C26.1501 122.22 26.1101 121.49 26.0501 120.78Z" fill="#EDEDED"/>
<path d="M23.8701 121.78C24.2801 122.28 24.7101 122.76 25.0401 123.33C25.0001 122.65 24.4701 122.05 23.8701 121.78Z" fill="#EDEDED"/>
<path d="M22.3198 123.41C22.9098 123.58 23.4698 123.71 24.0298 123.99C23.6598 123.47 22.9298 123.28 22.3198 123.41Z" fill="#EDEDED"/>
<path d="M21.5 125.66C22.17 125.49 22.84 125.3 23.54 125.25C22.86 125 22.06 125.23 21.5 125.66Z" fill="#EDEDED"/>
<path d="M29.4099 126.78C29.0599 126.17 28.3999 125.67 27.6699 125.64C28.2999 125.95 28.8399 126.38 29.4099 126.78Z" fill="#EDEDED"/>
<path d="M30.4299 125.31C29.8799 124.87 29.0799 124.64 28.3999 124.88C29.0999 124.94 29.7599 125.14 30.4299 125.31Z" fill="#EDEDED"/>
<path d="M30.5801 123.45C29.8901 123.29 29.0701 123.43 28.5601 123.93C29.2201 123.68 29.9001 123.58 30.5801 123.45Z" fill="#EDEDED"/>
<path d="M23.0098 127.87C23.4298 127.32 23.8298 126.75 24.3398 126.27C23.6598 126.5 23.1698 127.18 23.0098 127.87Z" fill="#EDEDED"/>
<path d="M25.5099 128.39C25.4499 127.76 25.3599 127.13 25.4099 126.49C25.0699 127.06 25.1599 127.84 25.5099 128.39Z" fill="#EDEDED"/>
<path d="M27.8296 127.79C27.4096 127.31 26.9696 126.86 26.6396 126.31C26.6996 126.98 27.2296 127.55 27.8296 127.79Z" fill="#EDEDED"/>
<path d="M29.0296 121.22C28.4096 121.62 27.9096 122.31 27.8896 123.06C28.1996 122.4 28.6196 121.82 29.0296 121.22Z" fill="#EDEDED"/>
<path d="M19.98 78.8799C19.98 78.8799 20.12 76.6299 21.3 76.9299C22.48 77.2299 20.5 79.3499 20.5 79.3499L19.98 78.8899V78.8799Z" fill="#FFFDFD"/>
<path d="M20.0399 78.6199C20.0399 78.6199 20.5299 76.8099 19.5199 76.7299C18.5099 76.6499 19.5099 78.8499 19.5099 78.8499L20.0399 78.6199Z" fill="#FFFDFD"/>
<path d="M19.3701 78.4399C19.3701 78.4399 18.8801 76.6299 17.9601 77.0699C17.0401 77.5099 19.0201 78.8999 19.0201 78.8999L19.3701 78.4299V78.4399Z" fill="#FFFDFD"/>
<path d="M18.8901 78.7299C18.8901 78.7299 17.2301 77.2599 16.5901 78.1599C15.9501 79.0599 18.8401 79.3598 18.8401 79.3598L18.8901 78.7299Z" fill="#FFFDFD"/>
<path d="M18.6303 79.1999C18.6303 79.1999 16.6003 79.0199 16.6203 80.0299C16.6403 81.0399 18.9403 79.6899 18.9403 79.6899L18.6303 79.1999Z" fill="#FFFDFD"/>
<path d="M18.8002 79.51C18.8002 79.51 17.1302 80.68 17.8002 81.44C18.4702 82.2 19.3502 79.69 19.3502 79.69L18.8002 79.51Z" fill="#FFFDFD"/>
<path d="M19.1802 79.93C19.1802 79.93 18.4602 81.84 19.4402 82.09C20.4202 82.34 19.7302 79.77 19.7302 79.77L19.1802 79.93Z" fill="#FFFDFD"/>
<path d="M20.3103 80.02C20.3103 80.02 21.7103 81.39 20.9503 82.01C20.1903 82.63 19.7603 80.1 19.7603 80.1L20.3103 80.02Z" fill="#FFFDFD"/>
<path d="M20.9099 79.8599C20.9099 79.8599 22.7099 80.7299 22.1799 81.5699C21.6499 82.4099 20.3999 80.1099 20.3999 80.1099L20.8999 79.8499L20.9099 79.8599Z" fill="#FFFDFD"/>
<path d="M21.0503 79.9699C21.0503 79.9699 22.5003 81.3499 23.1003 80.5599C23.7003 79.7699 21.1103 79.4099 21.1103 79.4099L21.0503 79.9699Z" fill="#FFFDFD"/>
<path d="M20.6099 78.9399C20.6099 78.9399 22.4199 77.4599 23.0499 78.4599C23.6799 79.4599 20.6299 79.6099 20.6299 79.6099L20.6099 78.9399Z" fill="#FFFDFD"/>
<path d="M21.184 79.7998C21.3398 79.2988 20.8206 78.6918 20.0243 78.4441C19.228 78.1964 18.4561 78.4017 18.3003 78.9027C18.1444 79.4037 18.6636 80.0106 19.4599 80.2583C20.2562 80.5061 21.0281 80.3008 21.184 79.7998Z" fill="#FFC931"/>
<path d="M18.5799 78.7999C18.6299 78.6399 18.7399 78.5199 18.8999 78.4199C18.5699 78.4999 18.3199 78.6799 18.2399 78.9299C18.0799 79.4299 18.5999 80.0399 19.3999 80.2799C19.9499 80.4499 20.4699 80.3999 20.8099 80.1999C20.4999 80.2699 20.1299 80.2599 19.7399 80.1399C18.9399 79.8899 18.4199 79.2899 18.5799 78.7899V78.7999Z" fill="#F7BC14"/>
<path d="M21.1902 79.8099C21.3502 79.3099 20.8302 78.6999 20.0302 78.4599C19.5202 78.2999 19.0202 78.3299 18.6802 78.4999C18.9902 78.4299 19.3602 78.4399 19.7502 78.5599C20.5502 78.8099 21.0702 79.4099 20.9102 79.9099C20.8502 80.0899 20.7202 80.2299 20.5302 80.3199C20.8602 80.2399 21.1002 80.0599 21.1802 79.8099H21.1902Z" fill="#FFD55F"/>
<path d="M21.1602 77.22C20.7802 77.52 20.4902 78.01 20.5202 78.51C20.6802 78.05 20.9302 77.64 21.1602 77.22Z" fill="#EDEDED"/>
<path d="M19.5801 76.96C19.6201 77.39 19.6801 77.81 19.6501 78.25C19.8801 77.86 19.8101 77.33 19.5801 76.96Z" fill="#EDEDED"/>
<path d="M18.1201 77.2998C18.3801 77.6098 18.6501 77.8898 18.8501 78.2598C18.8401 77.8398 18.5001 77.4598 18.1201 77.2998Z" fill="#EDEDED"/>
<path d="M16.8398 78.2399C17.2698 78.3999 17.7098 78.5399 18.1198 78.7699C17.8298 78.3799 17.3098 78.2099 16.8398 78.2399Z" fill="#EDEDED"/>
<path d="M20.8003 81.78C20.8303 81.31 20.6503 80.79 20.2603 80.51C20.4903 80.91 20.6403 81.35 20.8003 81.78Z" fill="#EDEDED"/>
<path d="M21.9099 81.3399C21.7699 80.8899 21.4099 80.4699 20.9399 80.3499C21.2999 80.6399 21.5999 80.9999 21.9099 81.3399Z" fill="#EDEDED"/>
<path d="M22.6901 80.37C22.3701 80.03 21.8601 79.8 21.3901 79.89C21.8401 80 22.2601 80.19 22.6901 80.37Z" fill="#EDEDED"/>
<path d="M16.8599 80.02C17.2999 79.87 17.7299 79.7 18.1899 79.63C17.7199 79.51 17.2099 79.7 16.8599 80.02Z" fill="#EDEDED"/>
<path d="M18.0503 81.2299C18.2503 80.8599 18.4303 80.4799 18.7003 80.1399C18.3003 80.3299 18.0703 80.7999 18.0503 81.2299Z" fill="#EDEDED"/>
<path d="M19.55 81.76C19.49 81.34 19.42 80.93 19.44 80.5C19.23 80.89 19.31 81.4 19.55 81.76Z" fill="#EDEDED"/>
<path d="M22.6498 78.5598C22.1598 78.5598 21.6298 78.7498 21.3398 79.1598C21.7498 78.9098 22.2098 78.7398 22.6498 78.5598Z" fill="#EDEDED"/>
<path d="M127.4 125.57C127.4 125.57 128.85 123 130.08 124.02C131.31 125.04 127.74 126.41 127.74 126.41L127.39 125.56L127.4 125.57Z" fill="#FFFDFD"/>
<path d="M127.62 125.3C127.62 125.3 129.24 123.45 128.09 122.77C126.94 122.09 126.85 125.26 126.85 125.26L127.61 125.3H127.62Z" fill="#FFFDFD"/>
<path d="M126.94 124.69C126.94 124.69 127.4 122.27 126.06 122.27C124.72 122.27 126.26 125.05 126.26 125.05L126.94 124.7V124.69Z" fill="#FFFDFD"/>
<path d="M126.2 124.76C126.2 124.76 125.09 122.06 123.81 122.76C122.53 123.46 125.78 125.47 125.78 125.47L126.2 124.76Z" fill="#FFFDFD"/>
<path d="M125.62 125.17C125.62 125.17 123.33 123.79 122.77 124.99C122.21 126.19 125.7 125.92 125.7 125.92L125.62 125.17Z" fill="#FFFDFD"/>
<path d="M125.64 125.63C125.64 125.63 123 126.05 123.35 127.33C123.7 128.61 126.19 126.15 126.19 126.15L125.64 125.63Z" fill="#FFFDFD"/>
<path d="M125.85 126.35C125.85 126.35 123.91 128.19 124.92 129.05C125.93 129.91 126.6 126.47 126.6 126.47L125.85 126.35Z" fill="#FFFDFD"/>
<path d="M127.14 127.11C127.14 127.11 128 129.53 126.76 129.83C125.52 130.13 126.45 126.89 126.45 126.89L127.14 127.11Z" fill="#FFFDFD"/>
<path d="M127.94 127.26C127.94 127.26 129.57 129.32 128.46 130.02C127.35 130.72 127.2 127.28 127.2 127.28H127.94V127.26Z" fill="#FFFDFD"/>
<path d="M128.04 127.47C128.04 127.47 128.96 129.93 130.12 129.35C131.29 128.77 128.44 126.84 128.44 126.84L128.04 127.47Z" fill="#FFFDFD"/>
<path d="M128.11 126C128.11 126 131.1 125.29 131.27 126.84C131.44 128.39 127.75 126.81 127.75 126.81L128.11 126Z" fill="#FFFDFD"/>
<path d="M128.296 127.35C128.765 126.852 128.5 125.84 127.704 125.09C126.907 124.341 125.881 124.138 125.412 124.637C124.943 125.135 125.208 126.147 126.004 126.896C126.801 127.646 127.827 127.849 128.296 127.35Z" fill="#FFC931"/>
<path d="M125.79 124.67C125.94 124.51 126.15 124.43 126.38 124.41C125.95 124.31 125.55 124.38 125.31 124.64C124.84 125.14 125.1 126.16 125.9 126.91C126.45 127.42 127.1 127.67 127.61 127.62C127.21 127.53 126.77 127.3 126.38 126.94C125.58 126.19 125.32 125.17 125.79 124.67Z" fill="#F7BC14"/>
<path d="M128.3 127.36C128.77 126.86 128.51 125.85 127.71 125.09C127.2 124.61 126.59 124.35 126.09 124.37C126.49 124.46 126.93 124.69 127.32 125.05C128.12 125.8 128.38 126.82 127.91 127.32C127.74 127.5 127.5 127.58 127.23 127.59C127.66 127.69 128.05 127.62 128.3 127.36Z" fill="#FFD55F"/>
<path d="M129.75 124.28C129.12 124.42 128.5 124.83 128.26 125.44C128.71 124.99 129.24 124.65 129.75 124.28Z" fill="#EDEDED"/>
<path d="M128.03 123.08C127.83 123.61 127.66 124.15 127.37 124.65C127.86 124.32 128.08 123.66 128.03 123.08Z" fill="#EDEDED"/>
<path d="M126.12 122.63C126.25 123.15 126.4 123.63 126.43 124.18C126.66 123.67 126.48 123.03 126.12 122.63Z" fill="#EDEDED"/>
<path d="M124.06 123C124.48 123.44 124.92 123.85 125.27 124.36C125.16 123.74 124.63 123.23 124.06 123Z" fill="#EDEDED"/>
<path d="M126.7 129.46C127 128.92 127.09 128.2 126.79 127.65C126.83 128.26 126.75 128.86 126.7 129.46Z" fill="#EDEDED"/>
<path d="M128.26 129.59C128.35 128.98 128.17 128.28 127.69 127.87C127.95 128.42 128.09 129.01 128.26 129.59Z" fill="#EDEDED"/>
<path d="M129.74 128.88C129.56 128.29 129.09 127.73 128.48 127.57C128.96 127.96 129.34 128.43 129.74 128.88Z" fill="#EDEDED"/>
<path d="M123.06 125.11C123.66 125.18 124.26 125.24 124.85 125.41C124.37 125 123.65 124.93 123.06 125.11Z" fill="#EDEDED"/>
<path d="M123.77 127.23C124.22 126.9 124.65 126.56 125.16 126.32C124.58 126.32 124.03 126.73 123.77 127.23Z" fill="#EDEDED"/>
<path d="M125.24 128.72C125.41 128.19 125.56 127.66 125.83 127.16C125.35 127.5 125.16 128.15 125.24 128.72Z" fill="#EDEDED"/>
<path d="M130.74 126.72C130.17 126.43 129.43 126.36 128.85 126.67C129.48 126.61 130.11 126.67 130.74 126.72Z" fill="#EDEDED"/>
<path d="M21.1399 129.03C20.6399 129.01 20.1799 129.21 20.1499 129.63C20.1599 129.82 20.3099 130.06 20.2899 130.22C20.2799 130.39 20.1599 130.51 19.9799 130.62C19.6299 130.85 19.4299 131.2 19.4199 131.61C19.4199 132.11 20.1199 132.83 20.4899 132.45C20.6799 131.94 20.8999 131.89 20.9499 131.66C20.9699 131.39 20.8799 131.14 20.7299 130.85C20.6499 130.67 20.6199 130.5 20.7299 130.39C20.8199 130.27 21.0899 130.22 21.2399 130.14C21.3799 130.05 21.3899 129.91 21.3999 129.75C21.3799 129.41 21.2799 129.37 21.1499 129.03H21.1399Z" fill="#7EC600"/>
<path d="M21.5696 128.47C21.5696 128.47 22.7396 126.73 21.6896 126.28C20.6396 125.83 20.9196 128.52 20.9196 128.52L21.5696 128.47Z" fill="#FFFDFD"/>
<path d="M21.6697 128.25C21.6697 128.25 22.3297 126.63 23.1197 127.14C23.9097 127.65 21.9297 128.72 21.9297 128.72L21.6597 128.25H21.6697Z" fill="#FFFDFD"/>
<path d="M22.27 128.49C22.27 128.49 23.66 127.43 24.09 128.27C24.52 129.11 22.27 129.03 22.27 129.03V128.49Z" fill="#FFFDFD"/>
<path d="M22.4596 128.98C22.4596 128.98 24.5196 128.82 24.4896 129.85C24.4596 130.88 22.1396 129.47 22.1396 129.47L22.4596 128.98Z" fill="#FFFDFD"/>
<path d="M22.3899 129.48C22.3899 129.48 23.9999 130.49 23.4099 131.23C22.8199 131.97 21.8799 129.67 21.8799 129.67L22.3799 129.48H22.3899Z" fill="#FFFDFD"/>
<path d="M22.0896 129.61C22.0896 129.61 22.6696 131.42 21.7396 131.61C20.8096 131.8 21.5796 129.43 21.5796 129.43L22.0896 129.61Z" fill="#FFFDFD"/>
<path d="M21.5698 129.71C21.5698 129.71 21.0298 131.53 20.1598 131.16C19.2898 130.79 21.2598 129.27 21.2598 129.27L21.5798 129.7L21.5698 129.71Z" fill="#FFFDFD"/>
<path d="M20.6799 129.13C20.6799 129.13 18.8699 129.36 19.0799 130.24C19.2899 131.12 21.0399 129.5 21.0399 129.5L20.6799 129.13Z" fill="#FFFDFD"/>
<path d="M20.3301 128.67C20.3301 128.67 18.5001 128.3 18.4201 129.22C18.3401 130.14 20.5601 129.14 20.5601 129.14L20.3301 128.66V128.67Z" fill="#FFFDFD"/>
<path d="M20.1598 128.67C20.1598 128.67 18.3098 128.88 18.2998 127.95C18.2898 127.02 20.4298 128.22 20.4298 128.22L20.1598 128.67Z" fill="#FFFDFD"/>
<path d="M21.0698 128.16C21.0698 128.16 20.5598 126.04 19.5298 126.43C18.4998 126.82 20.6698 128.65 20.6698 128.65L21.0698 128.16Z" fill="#FFFDFD"/>
<path d="M22.8025 129.429C22.9686 128.973 22.5099 128.387 21.7781 128.12C21.0462 127.854 20.3183 128.009 20.1523 128.466C19.9862 128.922 20.4448 129.508 21.1767 129.775C21.9086 130.041 22.6364 129.886 22.8025 129.429Z" fill="#FFC931"/>
<path d="M22.65 129.21C22.7 129.07 22.69 128.91 22.63 128.75C22.83 128.99 22.91 129.26 22.83 129.5C22.66 129.96 21.94 130.11 21.21 129.85C20.71 129.67 20.34 129.34 20.21 129C20.4 129.23 20.68 129.43 21.03 129.56C21.76 129.83 22.49 129.67 22.65 129.21Z" fill="#F7BC14"/>
<path d="M20.1397 128.48C20.3097 128.02 21.0297 127.87 21.7597 128.13C22.2297 128.3 22.5797 128.61 22.7297 128.92C22.5397 128.69 22.2597 128.49 21.8997 128.36C21.1697 128.09 20.4398 128.25 20.2798 128.71C20.2198 128.87 20.2397 129.05 20.3297 129.23C20.1297 128.99 20.0497 128.72 20.1397 128.48Z" fill="#FFD55F"/>
<path d="M21.6296 126.57C21.5096 127.01 21.4596 127.43 21.3696 127.89C21.7196 127.57 21.7996 127.01 21.6296 126.57Z" fill="#EDEDED"/>
<path d="M22.9397 127.28C22.5297 127.38 22.1597 127.76 22.1597 128.2C22.4397 127.88 22.6997 127.63 22.9397 127.28Z" fill="#EDEDED"/>
<path d="M23.8398 128.35C23.4698 128.19 22.9698 128.29 22.7598 128.65C23.1498 128.55 23.4698 128.49 23.8398 128.35Z" fill="#EDEDED"/>
<path d="M24.2598 129.77C23.9598 129.43 23.4398 129.26 23.0098 129.44C23.4398 129.56 23.8198 129.69 24.2598 129.77Z" fill="#EDEDED"/>
<path d="M19.3198 130.16C19.7198 129.97 20.0498 129.74 20.4398 129.52C19.9798 129.45 19.5198 129.76 19.3198 130.16Z" fill="#EDEDED"/>
<path d="M18.75 129.21C19.19 129.18 19.58 129.09 20.02 129.02C19.62 128.79 19.08 128.91 18.75 129.21Z" fill="#EDEDED"/>
<path d="M18.7197 128.05C19.1297 128.21 19.5197 128.3 19.9497 128.43C19.6897 128.05 19.1497 127.92 18.7197 128.05Z" fill="#EDEDED"/>
<path d="M23.24 131.08C23.22 130.63 22.92 130.16 22.48 130.04C22.74 130.4 22.95 130.75 23.24 131.08Z" fill="#EDEDED"/>
<path d="M21.6797 131.31C21.9697 131.01 22.0597 130.49 21.8097 130.14C21.7597 130.56 21.6897 130.9 21.6797 131.31Z" fill="#EDEDED"/>
<path d="M20.2598 130.85C20.6698 130.77 21.0498 130.41 21.0598 129.98C20.7798 130.29 20.5098 130.52 20.2598 130.85Z" fill="#EDEDED"/>
<path d="M19.77 126.73C19.95 127.15 20.18 127.5 20.4 127.91C20.47 127.44 20.17 126.96 19.77 126.73Z" fill="#EDEDED"/>
<path d="M37.28 18.3599L36.49 18.4499C36.36 18.4699 36.23 18.5199 36.13 18.6099L35.53 19.1299C35.3 19.3199 34.95 19.1899 34.92 18.8899L34.83 18.0999C34.81 17.9699 34.76 17.8399 34.67 17.7399L34.15 17.1399C33.96 16.9099 34.09 16.5599 34.39 16.5299L35.18 16.4399C35.31 16.4199 35.44 16.3699 35.54 16.2799L36.14 15.7599C36.37 15.5699 36.72 15.6999 36.75 15.9999L36.84 16.7899C36.86 16.9199 36.91 17.0499 37 17.1499L37.52 17.7499C37.71 17.9799 37.58 18.3299 37.28 18.3599Z" fill="#78C13B"/>
<path d="M131.11 51.6L130.11 51.71C129.98 51.73 129.85 51.78 129.75 51.87L128.99 52.53C128.76 52.72 128.41 52.59 128.38 52.29L128.27 51.29C128.25 51.16 128.2 51.03 128.11 50.93L127.45 50.17C127.26 49.94 127.39 49.59 127.69 49.56L128.69 49.45C128.82 49.43 128.95 49.38 129.05 49.29L129.81 48.63C130.04 48.44 130.39 48.57 130.42 48.87L130.53 49.87C130.55 50 130.6 50.13 130.69 50.23L131.35 50.99C131.54 51.22 131.41 51.57 131.11 51.6Z" fill="#F7FEEE"/>
<path d="M129.07 46.18L128.96 46.46C128.91 46.59 128.9 46.72 128.94 46.85L129.01 47.14C129.08 47.43 128.8 47.68 128.52 47.57L128.24 47.46C128.11 47.41 127.98 47.4 127.85 47.44L127.56 47.51C127.27 47.58 127.02 47.3 127.13 47.02L127.24 46.74C127.29 46.61 127.3 46.48 127.26 46.35L127.19 46.06C127.12 45.77 127.4 45.52 127.68 45.63L127.96 45.74C128.09 45.79 128.22 45.8 128.35 45.76L128.64 45.69C128.93 45.62 129.18 45.9 129.07 46.18Z" fill="#FFE94A"/>
<path d="M95.2699 130.46L94.4699 131.22C94.3699 131.31 94.3099 131.43 94.2799 131.57L94.0499 132.65C93.9899 132.94 93.6299 133.04 93.4199 132.83L92.6599 132.03C92.5699 131.93 92.4499 131.87 92.3099 131.84L91.2299 131.61C90.9399 131.55 90.8399 131.19 91.0499 130.98L91.8499 130.22C91.9499 130.13 92.0099 130.01 92.0399 129.87L92.2699 128.79C92.3299 128.5 92.6899 128.4 92.8999 128.61L93.6599 129.41C93.7499 129.51 93.8699 129.57 94.0099 129.6L95.0899 129.83C95.3799 129.89 95.4799 130.25 95.2699 130.46Z" fill="#78C13B"/>
<path d="M88.9899 132.82L88.62 132.89C88.49 132.91 88.3699 132.98 88.2699 133.07L87.9999 133.34C87.7899 133.55 87.4299 133.44 87.3799 133.14L87.3099 132.77C87.2899 132.64 87.2199 132.52 87.1299 132.42L86.8599 132.15C86.6499 131.94 86.7599 131.58 87.0599 131.53L87.4299 131.46C87.5599 131.44 87.6799 131.37 87.7799 131.28L88.05 131.01C88.26 130.8 88.6199 130.91 88.6699 131.21L88.7399 131.58C88.7599 131.71 88.8299 131.83 88.9199 131.93L89.19 132.2C89.4 132.41 89.2899 132.77 88.9899 132.82Z" fill="#8DC945"/>
<path d="M28.0001 18.9599C28.221 18.9599 28.4001 18.7808 28.4001 18.5599C28.4001 18.339 28.221 18.1599 28.0001 18.1599C27.7792 18.1599 27.6001 18.339 27.6001 18.5599C27.6001 18.7808 27.7792 18.9599 28.0001 18.9599Z" fill="#78C13B"/>
<path d="M31.1001 23.7399C31.3983 23.7399 31.6401 23.4981 31.6401 23.1999C31.6401 22.9017 31.3983 22.6599 31.1001 22.6599C30.8018 22.6599 30.5601 22.9017 30.5601 23.1999C30.5601 23.4981 30.8018 23.7399 31.1001 23.7399Z" fill="#C6FC68"/>
<path d="M19.1601 14.98H19.1101C18.9886 14.98 18.8901 15.0785 18.8901 15.2V18.87C18.8901 18.9915 18.9886 19.09 19.1101 19.09H19.1601C19.2816 19.09 19.3801 18.9915 19.3801 18.87V15.2C19.3801 15.0785 19.2816 14.98 19.1601 14.98Z" fill="#FFC931"/>
<path d="M20.7118 15.9479L17.3615 17.4458C17.2506 17.4954 17.2008 17.6256 17.2504 17.7365L17.2709 17.7821C17.3204 17.893 17.4506 17.9428 17.5615 17.8932L20.9118 16.3952C21.0228 16.3456 21.0725 16.2155 21.0229 16.1045L21.0025 16.0589C20.9529 15.948 20.8228 15.8983 20.7118 15.9479Z" fill="#FFC931"/>
<path d="M130.39 17.6499H130.34C130.219 17.6499 130.12 17.7484 130.12 17.8699V21.5399C130.12 21.6614 130.219 21.7599 130.34 21.7599H130.39C130.512 21.7599 130.61 21.6614 130.61 21.5399V17.8699C130.61 17.7484 130.512 17.6499 130.39 17.6499Z" fill="#FFC931"/>
<path d="M131.944 18.6144L128.594 20.1124C128.483 20.1619 128.433 20.2921 128.483 20.403L128.503 20.4486C128.553 20.5596 128.683 20.6093 128.794 20.5597L132.144 19.0617C132.255 19.0121 132.305 18.882 132.255 18.771L132.235 18.7254C132.185 18.6145 132.055 18.5648 131.944 18.6144Z" fill="#FFC931"/>
<path d="M130.4 65.7101C130.4 65.6438 130.349 65.5901 130.285 65.5901C130.222 65.5901 130.17 65.6438 130.17 65.7101V67.4301C130.17 67.4964 130.222 67.5501 130.285 67.5501C130.349 67.5501 130.4 67.4964 130.4 67.4301V65.7101Z" fill="#FFE94A"/>
<path d="M131.124 66.2736C131.185 66.2465 131.213 66.1776 131.187 66.1196C131.161 66.0617 131.091 66.0366 131.03 66.0636L129.46 66.7657C129.4 66.7927 129.372 66.8617 129.398 66.9197C129.423 66.9776 129.494 67.0027 129.554 66.9756L131.124 66.2736Z" fill="#FFE94A"/>
<path d="M128.512 27.3782L127.029 29.4895C126.975 29.5664 126.994 29.6724 127.071 29.7264L127.079 29.7321C127.156 29.7861 127.262 29.7675 127.316 29.6907L128.799 27.5793C128.853 27.5025 128.834 27.3965 128.757 27.3425L128.749 27.3368C128.672 27.2828 128.566 27.3014 128.512 27.3782Z" fill="#C6FC68"/>
<path d="M126.528 28.1878L126.527 28.1976C126.509 28.2898 126.569 28.379 126.661 28.3969L129.194 28.8888C129.286 28.9067 129.375 28.8465 129.393 28.7543L129.395 28.7445C129.413 28.6523 129.353 28.5631 129.26 28.5452L126.728 28.0533C126.636 28.0354 126.546 28.0956 126.528 28.1878Z" fill="#C6FC68"/>
<path d="M122.24 118.724L121.654 121.697C121.635 121.795 121.699 121.89 121.796 121.909L121.835 121.917C121.933 121.936 122.028 121.872 122.047 121.775L122.632 118.802C122.651 118.704 122.588 118.61 122.49 118.59L122.451 118.583C122.354 118.563 122.259 118.627 122.24 118.724Z" fill="#C6FC68"/>
<path d="M123.597 119.622L120.644 120.301C120.548 120.323 120.487 120.42 120.509 120.517L120.518 120.556C120.541 120.653 120.637 120.713 120.734 120.691L123.687 120.012C123.784 119.99 123.844 119.893 123.822 119.796L123.813 119.757C123.791 119.66 123.694 119.6 123.597 119.622Z" fill="#C6FC68"/>
<path d="M47.6686 130.854L47.2648 132.904C47.2499 132.98 47.2993 133.054 47.3752 133.069C47.451 133.084 47.5246 133.034 47.5396 132.958L47.9434 130.908C47.9583 130.832 47.9089 130.758 47.8331 130.743C47.7572 130.729 47.6836 130.778 47.6686 130.854Z" fill="#C6FC68"/>
<path d="M48.6162 131.463L46.5793 131.932C46.504 131.949 46.4569 132.024 46.4742 132.099C46.4916 132.175 46.5667 132.222 46.6421 132.204L48.6789 131.736C48.7543 131.719 48.8013 131.644 48.784 131.568C48.7666 131.493 48.6915 131.446 48.6162 131.463Z" fill="#C6FC68"/>
<path d="M19.3975 102.062L19.3582 102.054C19.2607 102.035 19.1661 102.099 19.1469 102.196L18.5614 105.169C18.5422 105.267 18.6057 105.361 18.7033 105.38L18.7425 105.388C18.8401 105.407 18.9347 105.344 18.9539 105.246L19.5393 102.273C19.5585 102.176 19.495 102.081 19.3975 102.062Z" fill="#FFC931"/>
<path d="M20.7187 103.282L20.7098 103.243C20.6875 103.146 20.5909 103.085 20.494 103.108L17.5411 103.787C17.4442 103.809 17.3837 103.906 17.406 104.003L17.415 104.041C17.4372 104.138 17.5338 104.199 17.6307 104.177L20.5837 103.498C20.6805 103.475 20.741 103.379 20.7187 103.282Z" fill="#FFC931"/>
<path d="M17.3251 110.321C17.2973 110.18 17.1606 110.089 17.0197 110.117C16.8789 110.144 16.7871 110.281 16.8149 110.422L17.5529 114.17C17.5807 114.311 17.7174 114.402 17.8583 114.375C17.9992 114.347 18.0909 114.21 18.0631 114.069L17.3251 110.321Z" fill="#FFFDFD"/>
<path d="M15.6067 111.46C15.4668 111.428 15.3273 111.515 15.2951 111.655C15.2629 111.795 15.3503 111.935 15.4902 111.967L19.213 112.823C19.353 112.855 19.4925 112.768 19.5247 112.628C19.5569 112.488 19.4695 112.348 19.3296 112.316L15.6067 111.46Z" fill="#FFFDFD"/>
<path d="M31.8943 125.172L31.8845 125.174C31.8032 125.19 31.7503 125.269 31.7663 125.35L32.2087 127.597C32.2247 127.678 32.3036 127.731 32.3849 127.715L32.3947 127.713C32.476 127.697 32.5289 127.619 32.5129 127.537L32.0704 125.29C32.0544 125.209 31.9756 125.156 31.8943 125.172Z" fill="#78C13B"/>
<path d="M30.8567 126.087L30.8544 126.097C30.8359 126.178 30.8863 126.258 30.967 126.277L33.1987 126.79C33.2795 126.809 33.36 126.758 33.3785 126.678L33.3808 126.668C33.3993 126.587 33.3489 126.507 33.2682 126.488L31.0365 125.975C30.9557 125.956 30.8752 126.007 30.8567 126.087Z" fill="#78C13B"/>
<path d="M119.39 23.3499C119.39 24.1499 120.04 24.7999 120.84 24.7999C120.88 24.7999 120.92 24.7999 120.96 24.7899C121.05 25.4999 121.65 26.0499 122.39 26.0499C123.13 26.0499 123.73 25.4999 123.82 24.7899C123.88 24.7899 123.93 24.8099 123.99 24.8099C124.79 24.8099 125.44 24.1599 125.44 23.3599C125.44 22.7899 125.1 22.2999 124.62 22.0599C124.67 21.9099 124.7 21.7599 124.7 21.5899C124.7 20.7899 124.05 20.1399 123.25 20.1399C122.93 20.1399 122.64 20.2499 122.4 20.4199C122.16 20.2399 121.87 20.1399 121.55 20.1399C120.75 20.1399 120.1 20.7899 120.1 21.5899C120.1 21.7599 120.13 21.9199 120.19 22.0699C119.72 22.3099 119.39 22.7899 119.39 23.3599V23.3499Z" fill="#F7FEEE"/>
<path d="M122.41 23.82C122.913 23.82 123.32 23.4126 123.32 22.91C123.32 22.4074 122.913 22 122.41 22C121.907 22 121.5 22.4074 121.5 22.91C121.5 23.4126 121.907 23.82 122.41 23.82Z" fill="#FFC931"/>
<path d="M101.52 130.96C101.52 131.76 102.17 132.41 102.97 132.41C103.01 132.41 103.05 132.41 103.09 132.4C103.18 133.11 103.78 133.66 104.52 133.66C105.26 133.66 105.86 133.11 105.95 132.4C106.01 132.4 106.06 132.42 106.12 132.42C106.92 132.42 107.57 131.77 107.57 130.97C107.57 130.4 107.23 129.91 106.75 129.67C106.8 129.52 106.83 129.37 106.83 129.2C106.83 128.4 106.18 127.75 105.38 127.75C105.06 127.75 104.77 127.86 104.53 128.03C104.29 127.85 104 127.75 103.68 127.75C102.88 127.75 102.23 128.4 102.23 129.2C102.23 129.37 102.26 129.53 102.32 129.68C101.85 129.92 101.52 130.4 101.52 130.97V130.96Z" fill="#FFE94A"/>
<path d="M104.55 131.44C105.053 131.44 105.46 131.033 105.46 130.53C105.46 130.028 105.053 129.62 104.55 129.62C104.048 129.62 103.64 130.028 103.64 130.53C103.64 131.033 104.048 131.44 104.55 131.44Z" fill="#FFC931"/>
<path d="M66.3399 18.83C67.1352 18.83 67.7799 18.1852 67.7799 17.39C67.7799 16.5947 67.1352 15.95 66.3399 15.95C65.5446 15.95 64.8999 16.5947 64.8999 17.39C64.8999 18.1852 65.5446 18.83 66.3399 18.83Z" stroke="#78C13B" stroke-miterlimit="10"/>
<path d="M109.47 24.6399C110.022 24.6399 110.47 24.1922 110.47 23.6399C110.47 23.0876 110.022 22.6399 109.47 22.6399C108.918 22.6399 108.47 23.0876 108.47 23.6399C108.47 24.1922 108.918 24.6399 109.47 24.6399Z" fill="#78C13B"/>
<path d="M117.9 16.0201C118.303 16.0201 118.63 15.6932 118.63 15.2901C118.63 14.8869 118.303 14.5601 117.9 14.5601C117.497 14.5601 117.17 14.8869 117.17 15.2901C117.17 15.6932 117.497 16.0201 117.9 16.0201Z" fill="#8DC945"/>
<path d="M132.39 35.6699C132.666 35.6699 132.89 35.4461 132.89 35.1699C132.89 34.8938 132.666 34.6699 132.39 34.6699C132.114 34.6699 131.89 34.8938 131.89 35.1699C131.89 35.4461 132.114 35.6699 132.39 35.6699Z" fill="#78C13B"/>
<path d="M125.577 85.1651L125.568 85.1694C125.369 85.2637 125.283 85.5021 125.377 85.7018L127.187 89.5364C127.281 89.7362 127.519 89.8217 127.719 89.7275L127.728 89.7232C127.928 89.6289 128.013 89.3906 127.919 89.1908L126.11 85.3562C126.016 85.1564 125.777 85.0709 125.577 85.1651Z" fill="#7EC600"/>
<path d="M127.002 83.4139L126.993 83.4182C126.793 83.5124 126.707 83.7508 126.802 83.9506L127.928 86.3382C128.022 86.538 128.261 86.6235 128.461 86.5292L128.47 86.525C128.669 86.4307 128.755 86.1923 128.661 85.9925L127.534 83.605C127.44 83.4052 127.201 83.3196 127.002 83.4139Z" fill="#7EC600"/>
<path d="M128.26 62.1599C128.26 62.1599 129.72 61.4699 129.09 60.7999C129.09 60.7999 128.74 60.4299 128.43 60.7999C128.43 60.7999 128.08 60.2099 127.56 60.7299C127.04 61.2499 128.27 62.1599 128.27 62.1599H128.26Z" fill="#8DC945"/>
<path d="M128.28 62.0398C128.37 61.7098 128.44 61.3998 128.42 61.0598C128.57 61.3698 128.49 61.7698 128.28 62.0398Z" fill="#EAFFB0"/>
<path d="M128.18 62.1398C128.18 62.1398 128.27 63.7498 129.13 63.4198C129.13 63.4198 129.61 63.2298 129.38 62.8098C129.38 62.8098 130.06 62.6998 129.77 62.0298C129.48 61.3598 128.18 62.1498 128.18 62.1498V62.1398Z" fill="#8DC945"/>
<path d="M128.29 62.2C128.56 62.41 128.82 62.5899 129.15 62.6899C128.8 62.7099 128.47 62.49 128.29 62.2Z" fill="#EAFFB0"/>
<path d="M128.27 62.1598C128.27 62.1598 127.21 60.9398 126.74 61.7298C126.74 61.7298 126.48 62.1698 126.91 62.3698C126.91 62.3698 126.44 62.8698 127.08 63.2298C127.72 63.5898 128.27 62.1598 128.27 62.1598Z" fill="#8DC945"/>
<path d="M128.15 62.22C127.87 62.41 127.47 62.49 127.17 62.32C127.51 62.36 127.83 62.3 128.15 62.22Z" fill="#EAFFB0"/>
<path d="M129.89 59.8801C129.89 59.8801 127.87 60.4301 128.52 61.4301C128.52 61.4301 128.88 61.9801 129.37 61.5901C129.37 61.5901 129.69 62.4201 130.47 61.8701C131.25 61.3201 129.89 59.8801 129.89 59.8801Z" fill="#78C13B"/>
<path d="M129.84 60.04C129.65 60.44 129.48 60.82 129.44 61.26C129.32 60.83 129.51 60.34 129.84 60.04Z" fill="#CBF36E"/>
<path d="M130 59.93C130 59.93 130.25 57.85 129.07 58.08C129.07 58.08 128.42 58.21 128.61 58.81C128.61 58.81 127.72 58.79 127.93 59.72C128.14 60.65 129.99 59.93 129.99 59.93H130Z" fill="#78C13B"/>
<path d="M129.87 59.82C129.57 59.49 129.28 59.2 128.88 58.99C129.33 59.04 129.71 59.41 129.87 59.82Z" fill="#CBF36E"/>
<path d="M129.88 59.88C129.88 59.88 130.96 61.6799 131.74 60.7799C131.74 60.7799 132.18 60.2799 131.66 59.9199C131.66 59.9199 132.37 59.3899 131.64 58.7799C130.91 58.1699 129.88 59.88 129.88 59.88Z" fill="#78C13B"/>
<path d="M130.05 59.8299C130.45 59.6399 130.98 59.6399 131.33 59.9199C130.91 59.7899 130.49 59.7999 130.05 59.8299Z" fill="#CBF36E"/>
<path d="M99.7 25.3401L100.69 28.0401" stroke="#78C13B" stroke-linecap="round" stroke-linejoin="round"/>
<path d="M101.35 24.5801L102.05 26.4201" stroke="#78C13B" stroke-linecap="round" stroke-linejoin="round"/>
<path d="M72.6699 22.04C73.2899 22.04 73.8799 22.01 74.4699 21.79C73.9899 22.21 73.2499 22.27 72.6699 22.04Z" fill="#EAFFB0"/>
<path d="M72.3798 22.1299C72.1498 22.7099 71.9498 23.2699 71.9398 23.8899C71.7298 23.2899 71.9598 22.5799 72.3798 22.1299Z" fill="#EAFFB0"/>
<path d="M72.4399 22.0701C72.4399 22.0701 74.3899 24.2901 75.2499 22.8501C75.2499 22.8501 75.7299 22.0501 74.9299 21.6801C74.9299 21.6801 75.7899 20.7601 74.6099 20.1101C73.4299 19.4601 72.4399 22.0701 72.4399 22.0701Z" fill="#ACDE47"/>
<path d="M72.43 21.9099C72.43 21.9099 69.64 22.8799 70.65 24.2199C70.65 24.2199 71.21 24.9699 71.86 24.3599C71.86 24.3599 72.39 25.4999 73.44 24.6499C74.49 23.7999 72.43 21.8999 72.43 21.8999V21.9099Z" fill="#ACDE47"/>
<path d="M72.4398 22.08C72.4398 22.08 74.0498 19.61 72.4398 19.16C72.4398 19.16 71.5398 18.91 71.3998 19.79C71.3998 19.79 70.2898 19.21 69.9698 20.52C69.6498 21.83 72.4498 22.08 72.4498 22.08H72.4398Z" fill="#ACDE47"/>
<path d="M72.2798 21.91C71.7998 21.52 71.4698 20.85 71.5998 20.23C71.6998 20.85 71.9698 21.37 72.2798 21.91Z" fill="#EAFFB0"/>
<path d="M41.1802 17.6699H41.6802" stroke="#8DC945" stroke-width="0.5" stroke-linecap="round" stroke-linejoin="round"/>
<path d="M42.7002 17.6699H60.6702" stroke="#8DC945" stroke-width="0.5" stroke-linecap="round" stroke-linejoin="round"/>
<path d="M61.1899 17.6699H61.6899" stroke="#8DC945" stroke-width="0.5" stroke-linecap="round" stroke-linejoin="round"/>
<path d="M85.4681 18.706C85.7067 17.6049 85.5283 16.6317 85.0695 16.5323C84.6107 16.4328 84.0453 17.2448 83.8067 18.3459C83.568 19.447 83.7464 20.4202 84.2052 20.5197C84.664 20.6191 85.2294 19.8071 85.4681 18.706Z" fill="#FFE94A"/>
<path d="M86.4576 19.9547C87.2952 19.2011 87.6687 18.2508 87.2919 17.832C86.9151 17.4132 85.9307 17.6847 85.0931 18.4382C84.2556 19.1918 83.8821 20.1422 84.2589 20.561C84.6357 20.9797 85.6201 20.7083 86.4576 19.9547Z" fill="#FFE94A"/>
<path d="M86.0768 21.1333C87.0084 21.0764 87.7451 20.7265 87.7223 20.3516C87.6994 19.9768 86.9256 19.719 85.994 19.7758C85.0624 19.8326 84.3257 20.1825 84.3485 20.5574C84.3714 20.9323 85.1452 21.1901 86.0768 21.1333Z" fill="#FFE94A"/>
<path d="M87.7545 21.6127C87.8763 21.2574 87.1661 20.6922 86.1682 20.3501C85.1703 20.0081 84.2627 20.0188 84.1409 20.3741C84.0191 20.7293 84.7293 21.2946 85.7272 21.6366C86.7251 21.9787 87.6327 21.968 87.7545 21.6127Z" fill="#FFE94A"/>
<path d="M84.7658 20.9385C85.0875 20.7448 84.9073 19.8552 84.3632 18.9515C83.8191 18.0477 83.1172 17.4722 82.7955 17.6659C82.4737 17.8596 82.654 18.7492 83.198 19.6529C83.7421 20.5567 84.444 21.1322 84.7658 20.9385Z" fill="#FFE94A"/>
<path d="M18.7802 87.91C18.4902 87.96 18.3102 88.43 18.3102 89.05C17.7002 88.64 17.1102 88.49 16.9002 88.74C16.6902 88.99 16.9302 89.54 17.4402 90.07C17.2002 90.16 17.0402 90.31 17.0102 90.49C16.9502 90.87 17.4802 91.25 18.1702 91.36C18.7802 91.45 19.3302 91.29 19.4902 90.99C19.7202 90.73 19.8102 90.1 19.7002 89.41C19.5602 88.52 19.1402 87.85 18.7702 87.91H18.7802Z" fill="#78C13B"/>
<path d="M18.4 96.9101C19.03 96.3301 19.35 95.7301 19.14 95.3801C18.94 95.0501 18.3 95.0601 17.56 95.3401C17.58 94.9601 17.48 94.6501 17.25 94.5201C16.85 94.2901 16.2 94.6601 15.67 95.3601C15.23 94.7601 14.67 94.5001 14.29 94.7001C13.81 94.9501 13.8 95.9301 14.29 96.9201C14.7 97.7501 15.33 98.3101 15.8 98.3201C16.16 98.4201 16.65 98.4501 17.18 98.3801C18.22 98.2501 19.03 97.8001 18.97 97.3701C18.94 97.1701 18.72 97.0101 18.39 96.9101H18.4Z" fill="#ACDE47"/>
<path d="M16.0099 106.54C16.3468 106.54 16.6199 106.267 16.6199 105.93C16.6199 105.593 16.3468 105.32 16.0099 105.32C15.673 105.32 15.3999 105.593 15.3999 105.93C15.3999 106.267 15.673 106.54 16.0099 106.54Z" fill="#8DC945"/>
<path d="M24.0202 117.11C24.324 117.11 24.5702 116.864 24.5702 116.56C24.5702 116.256 24.324 116.01 24.0202 116.01C23.7165 116.01 23.4702 116.256 23.4702 116.56C23.4702 116.864 23.7165 117.11 24.0202 117.11Z" fill="#CBF36E"/>
<path d="M113.23 127.74C113.677 127.74 114.04 127.377 114.04 126.93C114.04 126.483 113.677 126.12 113.23 126.12C112.783 126.12 112.42 126.483 112.42 126.93C112.42 127.377 112.783 127.74 113.23 127.74Z" fill="#FFFDFD"/>
<path d="M81.17 129.58C81.413 129.58 81.61 129.383 81.61 129.14C81.61 128.897 81.413 128.7 81.17 128.7C80.927 128.7 80.73 128.897 80.73 129.14C80.73 129.383 80.927 129.58 81.17 129.58Z" fill="#C6FC68"/>
<path d="M62.0399 133.52C62.4044 133.52 62.6999 133.224 62.6999 132.86C62.6999 132.495 62.4044 132.2 62.0399 132.2C61.6754 132.2 61.3799 132.495 61.3799 132.86C61.3799 133.224 61.6754 133.52 62.0399 133.52Z" fill="#FFC931"/>
<path d="M43.8598 126.89C44.3072 126.89 44.6698 126.527 44.6698 126.08C44.6698 125.633 44.3072 125.27 43.8598 125.27C43.4125 125.27 43.0498 125.633 43.0498 126.08C43.0498 126.527 43.4125 126.89 43.8598 126.89Z" fill="#FFFDFD"/>
<path d="M133.44 110.7C133.794 110.7 134.08 110.413 134.08 110.06C134.08 109.706 133.794 109.42 133.44 109.42C133.087 109.42 132.8 109.706 132.8 110.06C132.8 110.413 133.087 110.7 133.44 110.7Z" fill="#78C13B"/>
<path d="M16.9799 70.25C17.4699 70.44 18.0199 70.2 18.2199 69.71C18.2899 69.53 18.2999 69.35 18.2699 69.18C18.4099 69.08 18.5299 68.93 18.5999 68.76C18.7899 68.27 18.5499 67.72 18.0599 67.52C17.8799 67.45 17.6999 67.44 17.5299 67.47C17.4299 67.33 17.2799 67.21 17.1099 67.14C16.6199 66.95 16.0699 67.19 15.8699 67.68C15.7999 67.86 15.7899 68.04 15.8199 68.21C15.6799 68.31 15.5599 68.46 15.4899 68.63C15.2999 69.12 15.5399 69.67 16.0299 69.87C16.2099 69.94 16.3899 69.95 16.5599 69.92C16.6599 70.06 16.8099 70.18 16.9799 70.25Z" fill="#CBF36E"/>
<path d="M17.0983 68.9787C17.1216 69.0288 17.1811 69.0504 17.2311 69.0271C17.2812 69.0038 17.3029 68.9443 17.2795 68.8942L17.081 68.4682C17.0576 68.4182 16.9981 68.3965 16.9481 68.4198C16.898 68.4432 16.8764 68.5027 16.8997 68.5527L17.0983 68.9787Z" fill="#ACDE47"/>
<path d="M17.3391 68.7016C17.3891 68.6782 17.4108 68.6187 17.3875 68.5687C17.3641 68.5186 17.3046 68.4969 17.2546 68.5203L16.8286 68.7188C16.7785 68.7422 16.7568 68.8017 16.7802 68.8517C16.8035 68.9018 16.863 68.9234 16.9131 68.9001L17.3391 68.7016Z" fill="#ACDE47"/>
<path d="M21.0498 71.5299C21.6998 71.1899 21.9498 70.3899 21.6198 69.7399C21.4998 69.5099 21.3198 69.3199 21.0998 69.1999C21.1198 68.9599 21.0798 68.6999 20.9598 68.4699C20.6198 67.8199 19.8198 67.5699 19.1698 67.8999C18.9398 68.0199 18.7498 68.1999 18.6298 68.4199C18.3898 68.3999 18.1298 68.4399 17.8998 68.5599C17.2498 68.8999 16.9998 69.6999 17.3298 70.3499C17.4498 70.5799 17.6298 70.7699 17.8498 70.8899C17.8298 71.1299 17.8698 71.3899 17.9898 71.6199C18.3298 72.2699 19.1298 72.5199 19.7798 72.1899C20.0098 72.0699 20.1998 71.8899 20.3198 71.6699C20.5598 71.6899 20.8198 71.6499 21.0498 71.5299Z" fill="#8DC945"/>
<path d="M19.2621 69.8074C19.1878 69.7862 19.1103 69.8293 19.0891 69.9037C19.068 69.978 19.1111 70.0555 19.1854 70.0767L19.8106 70.2548C19.8849 70.2759 19.9624 70.2328 19.9836 70.1585C20.0047 70.0841 19.9616 70.0067 19.8873 69.9855L19.2621 69.8074Z" fill="#CBF36E"/>
<path d="M19.4874 69.6741L19.3094 70.2992C19.2882 70.3736 19.3313 70.451 19.4056 70.4722C19.48 70.4934 19.5575 70.4503 19.5786 70.3759L19.7567 69.7508C19.7779 69.6764 19.7348 69.599 19.6604 69.5778C19.5861 69.5566 19.5086 69.5997 19.4874 69.6741Z" fill="#CBF36E"/>
<path d="M23.33 60.39C24.04 59 24.16 57.64 23.59 57.35C23.11 57.1 22.29 57.7 21.61 58.74C21.37 58.38 21.07 58.17 20.76 58.2C20.12 58.25 19.68 59.25 19.77 60.44C19.86 61.63 20.46 62.54 21.09 62.49C21.16 62.49 21.23 62.47 21.3 62.44C21.89 62.39 22.73 61.58 23.33 60.4V60.39Z" fill="#FFED92"/>
<path d="M51.1701 130.44C50.6501 129.42 50.5601 128.42 50.9801 128.2C51.3301 128.02 51.9401 128.46 52.4301 129.22C52.6001 128.96 52.8301 128.8 53.0601 128.82C53.5301 128.86 53.8501 129.59 53.7901 130.46C53.7301 131.33 53.2901 132.01 52.8201 131.97C52.7701 131.97 52.7201 131.95 52.6701 131.93C52.2401 131.9 51.6201 131.3 51.1801 130.44H51.1701Z" fill="#FFE94A"/>
<path d="M16.7801 24.6C17.1667 24.6 17.4801 24.2865 17.4801 23.9C17.4801 23.5134 17.1667 23.2 16.7801 23.2C16.3935 23.2 16.0801 23.5134 16.0801 23.9C16.0801 24.2865 16.3935 24.6 16.7801 24.6Z" fill="#F7FEEE"/>
<path d="M16.7801 26.9898C17.1667 26.9898 17.4801 26.6764 17.4801 26.2898C17.4801 25.9032 17.1667 25.5898 16.7801 25.5898C16.3935 25.5898 16.0801 25.9032 16.0801 26.2898C16.0801 26.6764 16.3935 26.9898 16.7801 26.9898Z" fill="#F7FEEE"/>
<path d="M16.7801 29.37C17.1667 29.37 17.4801 29.0566 17.4801 28.67C17.4801 28.2834 17.1667 27.97 16.7801 27.97C16.3935 27.97 16.0801 28.2834 16.0801 28.67C16.0801 29.0566 16.3935 29.37 16.7801 29.37Z" fill="#F7FEEE"/>
<path d="M16.7801 31.7499C17.1667 31.7499 17.4801 31.4365 17.4801 31.0499C17.4801 30.6633 17.1667 30.3499 16.7801 30.3499C16.3935 30.3499 16.0801 30.6633 16.0801 31.0499C16.0801 31.4365 16.3935 31.7499 16.7801 31.7499Z" fill="#F7FEEE"/>
<path d="M16.7801 34.14C17.1667 34.14 17.4801 33.8266 17.4801 33.44C17.4801 33.0534 17.1667 32.74 16.7801 32.74C16.3935 32.74 16.0801 33.0534 16.0801 33.44C16.0801 33.8266 16.3935 34.14 16.7801 34.14Z" fill="#F7FEEE"/>
<path d="M16.7801 36.5199C17.1667 36.5199 17.4801 36.2065 17.4801 35.8199C17.4801 35.4333 17.1667 35.1199 16.7801 35.1199C16.3935 35.1199 16.0801 35.4333 16.0801 35.8199C16.0801 36.2065 16.3935 36.5199 16.7801 36.5199Z" fill="#F7FEEE"/>
<path d="M16.7801 38.9C17.1667 38.9 17.4801 38.5866 17.4801 38.2C17.4801 37.8134 17.1667 37.5 16.7801 37.5C16.3935 37.5 16.0801 37.8134 16.0801 38.2C16.0801 38.5866 16.3935 38.9 16.7801 38.9Z" fill="#F7FEEE"/>
<path d="M16.7801 41.2899C17.1667 41.2899 17.4801 40.9765 17.4801 40.5899C17.4801 40.2033 17.1667 39.8899 16.7801 39.8899C16.3935 39.8899 16.0801 40.2033 16.0801 40.5899C16.0801 40.9765 16.3935 41.2899 16.7801 41.2899Z" fill="#F7FEEE"/>
<path d="M16.7801 43.67C17.1667 43.67 17.4801 43.3566 17.4801 42.97C17.4801 42.5834 17.1667 42.27 16.7801 42.27C16.3935 42.27 16.0801 42.5834 16.0801 42.97C16.0801 43.3566 16.3935 43.67 16.7801 43.67Z" fill="#F7FEEE"/>
<path d="M16.7801 46.0499C17.1667 46.0499 17.4801 45.7365 17.4801 45.3499C17.4801 44.9633 17.1667 44.6499 16.7801 44.6499C16.3935 44.6499 16.0801 44.9633 16.0801 45.3499C16.0801 45.7365 16.3935 46.0499 16.7801 46.0499Z" fill="#F7FEEE"/>
<path d="M16.7801 48.44C17.1667 48.44 17.4801 48.1266 17.4801 47.74C17.4801 47.3534 17.1667 47.04 16.7801 47.04C16.3935 47.04 16.0801 47.3534 16.0801 47.74C16.0801 48.1266 16.3935 48.44 16.7801 48.44Z" fill="#F7FEEE"/>
<path d="M16.7801 50.8199C17.1667 50.8199 17.4801 50.5065 17.4801 50.1199C17.4801 49.7333 17.1667 49.4199 16.7801 49.4199C16.3935 49.4199 16.0801 49.7333 16.0801 50.1199C16.0801 50.5065 16.3935 50.8199 16.7801 50.8199Z" fill="#F7FEEE"/>
<path d="M16.7801 53.2101C17.1667 53.2101 17.4801 52.8967 17.4801 52.5101C17.4801 52.1235 17.1667 51.8101 16.7801 51.8101C16.3935 51.8101 16.0801 52.1235 16.0801 52.5101C16.0801 52.8967 16.3935 53.2101 16.7801 53.2101Z" fill="#F7FEEE"/>
<path d="M16.7801 55.5899C17.1667 55.5899 17.4801 55.2765 17.4801 54.8899C17.4801 54.5033 17.1667 54.1899 16.7801 54.1899C16.3935 54.1899 16.0801 54.5033 16.0801 54.8899C16.0801 55.2765 16.3935 55.5899 16.7801 55.5899Z" fill="#F7FEEE"/>
<path d="M16.7801 57.9701C17.1667 57.9701 17.4801 57.6567 17.4801 57.2701C17.4801 56.8835 17.1667 56.5701 16.7801 56.5701C16.3935 56.5701 16.0801 56.8835 16.0801 57.2701C16.0801 57.6567 16.3935 57.9701 16.7801 57.9701Z" fill="#F7FEEE"/>
<path d="M129.13 102.35C129.345 102.35 129.52 102.175 129.52 101.96C129.52 101.745 129.345 101.57 129.13 101.57C128.915 101.57 128.74 101.745 128.74 101.96C128.74 102.175 128.915 102.35 129.13 102.35Z" fill="#FFE94A"/>
<path d="M129.13 103.66C129.345 103.66 129.52 103.486 129.52 103.27C129.52 103.055 129.345 102.88 129.13 102.88C128.915 102.88 128.74 103.055 128.74 103.27C128.74 103.486 128.915 103.66 129.13 103.66Z" fill="#FFE94A"/>
<path d="M129.13 104.98C129.345 104.98 129.52 104.805 129.52 104.59C129.52 104.375 129.345 104.2 129.13 104.2C128.915 104.2 128.74 104.375 128.74 104.59C128.74 104.805 128.915 104.98 129.13 104.98Z" fill="#FFE94A"/>
<path d="M129.13 106.3C129.345 106.3 129.52 106.125 129.52 105.91C129.52 105.695 129.345 105.52 129.13 105.52C128.915 105.52 128.74 105.695 128.74 105.91C128.74 106.125 128.915 106.3 129.13 106.3Z" fill="#FFE94A"/>
<path d="M129.13 107.62C129.345 107.62 129.52 107.445 129.52 107.23C129.52 107.015 129.345 106.84 129.13 106.84C128.915 106.84 128.74 107.015 128.74 107.23C128.74 107.445 128.915 107.62 129.13 107.62Z" fill="#FFE94A"/>
<path d="M129.13 108.93C129.345 108.93 129.52 108.756 129.52 108.54C129.52 108.325 129.345 108.15 129.13 108.15C128.915 108.15 128.74 108.325 128.74 108.54C128.74 108.756 128.915 108.93 129.13 108.93Z" fill="#FFE94A"/>
<path d="M129.13 110.25C129.345 110.25 129.52 110.075 129.52 109.86C129.52 109.645 129.345 109.47 129.13 109.47C128.915 109.47 128.74 109.645 128.74 109.86C128.74 110.075 128.915 110.25 129.13 110.25Z" fill="#FFE94A"/>
<path d="M129.13 111.57C129.345 111.57 129.52 111.395 129.52 111.18C129.52 110.965 129.345 110.79 129.13 110.79C128.915 110.79 128.74 110.965 128.74 111.18C128.74 111.395 128.915 111.57 129.13 111.57Z" fill="#FFE94A"/>
<path d="M129.13 112.89C129.345 112.89 129.52 112.715 129.52 112.5C129.52 112.285 129.345 112.11 129.13 112.11C128.915 112.11 128.74 112.285 128.74 112.5C128.74 112.715 128.915 112.89 129.13 112.89Z" fill="#FFE94A"/>
<path d="M129.13 114.2C129.345 114.2 129.52 114.026 129.52 113.81C129.52 113.595 129.345 113.42 129.13 113.42C128.915 113.42 128.74 113.595 128.74 113.81C128.74 114.026 128.915 114.2 129.13 114.2Z" fill="#FFE94A"/>
<path d="M129.13 115.52C129.345 115.52 129.52 115.345 129.52 115.13C129.52 114.915 129.345 114.74 129.13 114.74C128.915 114.74 128.74 114.915 128.74 115.13C128.74 115.345 128.915 115.52 129.13 115.52Z" fill="#FFE94A"/>
<path d="M129.13 116.84C129.345 116.84 129.52 116.665 129.52 116.45C129.52 116.235 129.345 116.06 129.13 116.06C128.915 116.06 128.74 116.235 128.74 116.45C128.74 116.665 128.915 116.84 129.13 116.84Z" fill="#FFE94A"/>
<path d="M129.13 118.16C129.345 118.16 129.52 117.986 129.52 117.77C129.52 117.555 129.345 117.38 129.13 117.38C128.915 117.38 128.74 117.555 128.74 117.77C128.74 117.986 128.915 118.16 129.13 118.16Z" fill="#FFE94A"/>
<path d="M129.13 119.47C129.345 119.47 129.52 119.296 129.52 119.08C129.52 118.865 129.345 118.69 129.13 118.69C128.915 118.69 128.74 118.865 128.74 119.08C128.74 119.296 128.915 119.47 129.13 119.47Z" fill="#FFE94A"/>
<path d="M129.13 120.79C129.345 120.79 129.52 120.615 129.52 120.4C129.52 120.185 129.345 120.01 129.13 120.01C128.915 120.01 128.74 120.185 128.74 120.4C128.74 120.615 128.915 120.79 129.13 120.79Z" fill="#FFE94A"/>
<path d="M77.24 130.21C77.24 130.21 78.88 130.69 78.85 129.72C78.85 129.72 78.83 129.18 78.33 129.25C78.33 129.25 78.46 128.54 77.69 128.59C76.92 128.64 77.25 130.22 77.25 130.22L77.24 130.21Z" fill="#CBF36E"/>
<path d="M77.3398 130.12C77.6398 129.93 77.9198 129.73 78.1398 129.44C78.0398 129.79 77.6998 130.05 77.3398 130.12Z" fill="#EAFFB0"/>
<path d="M77.18 130.13C77.18 130.13 76.13 131.47 77.04 131.8C77.04 131.8 77.55 131.99 77.67 131.49C77.67 131.49 78.28 131.88 78.53 131.14C78.78 130.4 77.19 130.12 77.19 130.12L77.18 130.13Z" fill="#CBF36E"/>
<path d="M77.2299 130.26C77.2999 130.61 77.3799 130.95 77.5599 131.25C77.2699 131.02 77.1599 130.61 77.2299 130.26Z" fill="#EAFFB0"/>
<path d="M77.2398 130.21C77.2398 130.21 77.2598 128.51 76.3298 128.8C76.3298 128.8 75.8198 128.96 76.0198 129.43C76.0198 129.43 75.2998 129.49 75.5498 130.23C75.7998 130.97 77.2398 130.22 77.2398 130.22V130.21Z" fill="#CBF36E"/>
<path d="M77.1098 130.18C76.7498 130.14 76.3898 129.92 76.2598 129.57C76.4998 129.84 76.7898 130.01 77.1098 130.18Z" fill="#EAFFB0"/>
<path d="M68.8299 130.25C68.8299 130.25 71.0299 129.88 70.4399 128.75C70.4399 128.75 70.1099 128.12 69.5599 128.49C69.5599 128.49 69.3099 127.57 68.4199 128.07C67.5299 128.57 68.8299 130.25 68.8299 130.25Z" fill="#8DC945"/>
<path d="M68.8999 130.09C69.1499 129.69 69.3599 129.29 69.4499 128.83C69.5299 129.3 69.2699 129.8 68.8999 130.09Z" fill="#EAFFB0"/>
<path d="M68.7198 130.2C68.7198 130.2 68.2398 132.38 69.5098 132.26C69.5098 132.26 70.2098 132.19 70.0798 131.54C70.0798 131.54 71.0198 131.65 70.8898 130.64C70.7598 129.63 68.7198 130.2 68.7198 130.2Z" fill="#8DC945"/>
<path d="M68.8501 130.32C69.1301 130.7 69.4101 131.04 69.8101 131.3C69.3401 131.2 68.9701 130.77 68.8501 130.32Z" fill="#EAFFB0"/>
<path d="M68.84 130.26C68.84 130.26 67.88 128.24 66.96 129.11C66.96 129.11 66.44 129.59 66.96 130.03C66.96 130.03 66.15 130.52 66.87 131.24C67.59 131.96 68.85 130.26 68.85 130.26H68.84Z" fill="#8DC945"/>
<path d="M68.6601 130.3C68.2201 130.46 67.6601 130.4 67.3101 130.07C67.7501 130.25 68.1901 130.29 68.6601 130.3Z" fill="#EAFFB0"/>
<path d="M72.9502 129.67C72.9502 129.67 69.0102 129.89 69.8202 131.99C69.8202 131.99 70.2702 133.16 71.3202 132.62C71.3202 132.62 71.5802 134.28 73.2402 133.58C74.9002 132.88 72.9502 129.68 72.9502 129.68V129.67Z" fill="#78C13B"/>
<path d="M72.8001 129.94C72.2901 130.6 71.8401 131.25 71.5901 132.04C71.5401 131.19 72.0901 130.37 72.8001 129.94Z" fill="#CBF36E"/>
<path d="M73.1301 129.79C73.1301 129.79 74.4001 126.05 72.1501 126.02C72.1501 126.02 70.9001 126 71.0101 127.17C71.0101 127.17 69.3801 126.79 69.4001 128.59C69.4301 130.39 73.1201 129.79 73.1201 129.79H73.1301Z" fill="#78C13B"/>
<path d="M72.9402 129.55C72.5202 128.83 72.0902 128.17 71.4502 127.64C72.2602 127.91 72.8102 128.73 72.9402 129.55Z" fill="#CBF36E"/>
<path d="M72.9399 129.66C72.9399 129.66 74.2199 133.4 76.0199 132.05C76.0199 132.05 77.0199 131.3 76.2199 130.44C76.2199 130.44 77.7499 129.74 76.6199 128.34C75.4899 126.94 72.9399 129.67 72.9399 129.67V129.66Z" fill="#78C13B"/>
<path d="M73.2598 129.63C74.0698 129.44 75.0398 129.65 75.5898 130.3C74.8598 129.9 74.0798 129.75 73.2598 129.63Z" fill="#CBF36E"/>
<path d="M95.7198 18.24C95.7198 18.24 92.4598 21.45 94.7698 22.65C94.7698 22.65 96.0498 23.32 96.5498 22.05C96.5498 22.05 98.0398 23.29 98.9498 21.42C99.8498 19.54 95.7198 18.25 95.7198 18.25V18.24Z" fill="#78C13B"/>
<path d="M95.7998 18.5901C95.8598 19.5501 95.9598 20.4601 96.3498 21.3401C95.6498 20.6401 95.5098 19.5001 95.7998 18.5901Z" fill="#CBF36E"/>
<path d="M95.9699 18.2099C95.9699 18.2099 94.2199 13.9899 92.2399 15.6799C92.2399 15.6799 91.1399 16.6199 92.1299 17.5499C92.1299 17.5499 90.4199 18.4699 91.8199 20.0099C93.2199 21.5499 95.9699 18.2099 95.9699 18.2099Z" fill="#78C13B"/>
<path d="M95.6199 18.1499C94.7099 17.8399 93.8199 17.5999 92.8599 17.6299C93.7699 17.2499 94.8799 17.5399 95.6199 18.1499Z" fill="#CBF36E"/>
<path d="M95.71 18.2399C95.71 18.2399 99.68 20.5099 100.21 17.9599C100.21 17.9599 100.51 16.5399 99.15 16.4099C99.15 16.4099 99.94 14.6399 97.89 14.2699C95.84 13.8999 95.71 18.2399 95.71 18.2399Z" fill="#78C13B"/>
<path d="M95.96 17.97C96.52 17.19 97.52 16.63 98.5 16.77C97.56 16.98 96.77 17.44 95.96 17.97Z" fill="#CBF36E"/>
<path d="M102.5 17.43L101.93 17.98C101.83 18.07 101.77 18.19 101.74 18.33L101.58 19.1C101.52 19.39 101.16 19.49 100.95 19.28L100.4 18.71C100.31 18.61 100.19 18.55 100.05 18.52L99.2802 18.36C98.9902 18.3 98.8902 17.94 99.1002 17.73L99.6702 17.18C99.7702 17.09 99.8302 16.97 99.8602 16.83L100.02 16.06C100.08 15.77 100.44 15.67 100.65 15.88L101.2 16.45C101.29 16.55 101.41 16.61 101.55 16.64L102.32 16.8C102.61 16.86 102.71 17.22 102.5 17.43Z" fill="#ACDE47"/>
<path d="M128.475 94.249C128.442 94.0921 128.291 93.9907 128.137 94.0225C127.983 94.0543 127.884 94.2072 127.916 94.3641L128.954 99.3982C128.987 99.5551 129.138 99.6565 129.292 99.6247C129.446 99.5929 129.545 99.44 129.513 99.2831L128.475 94.249Z" fill="#ACDE47"/>
<path d="M131.301 96.5748C131.458 96.5425 131.559 96.3913 131.527 96.2371C131.495 96.083 131.343 95.9842 131.186 96.0166L126.152 97.0545C125.995 97.0868 125.893 97.238 125.925 97.3922C125.957 97.5464 126.11 97.6451 126.267 97.6128L131.301 96.5748Z" fill="#ACDE47"/>
<path d="M126.728 95.1669C126.594 95.0789 126.415 95.1141 126.329 95.2456C126.242 95.3771 126.281 95.555 126.414 95.6431L130.708 98.4688C130.842 98.5568 131.02 98.5216 131.107 98.3902C131.193 98.2587 131.155 98.0807 131.021 97.9927L126.728 95.1669Z" fill="#ACDE47"/>
<path d="M127.067 98.8123C126.979 98.9461 127.014 99.1247 127.145 99.2112C127.277 99.2978 127.455 99.2595 127.543 99.1257L130.369 94.8321C130.457 94.6983 130.422 94.5197 130.29 94.4332C130.159 94.3466 129.981 94.3849 129.893 94.5187L127.067 98.8123Z" fill="#ACDE47"/>
<path d="M114.79 29.56C114.85 29.42 114.97 29.15 115.32 28.45C115.17 28.38 114.98 28.28 114.81 28.19C114.72 28.15 114.64 28.11 114.57 28.08C114.39 28.43 114.21 28.81 114.03 29.17C114 29.24 113.98 29.26 113.81 29.19C113.78 29.19 113.72 29.15 113.67 29.12C113.61 29.07 113.55 29.03 113.57 28.98C113.66 28.77 113.95 28.13 114.79 26.46C114.88 26.46 115.16 26.5 115.27 26.56C115.29 26.59 115.29 26.63 115.28 26.65C115.28 26.65 115.26 26.71 115.19 26.84C115.1 27.01 114.89 27.42 114.65 27.91L115.4 28.28C115.54 28 115.71 27.65 115.93 27.23C116.02 27.23 116.3 27.27 116.41 27.33C116.44 27.37 116.43 27.39 116.43 27.42C116.43 27.42 116.41 27.48 116.34 27.61C116.25 27.79 116.05 28.16 115.82 28.63C115.64 28.98 115.45 29.38 115.26 29.78C115.23 29.85 115.21 29.87 115.04 29.8C115.01 29.79 114.95 29.76 114.9 29.73C114.84 29.69 114.78 29.64 114.8 29.58L114.79 29.56Z" fill="#78C13B"/>
<path d="M117.16 28.6099C117.35 28.6999 117.39 28.8199 117.45 28.9699C117.5 28.9699 117.63 29.0099 117.66 29.0399C117.72 29.0799 117.69 29.1299 117.69 29.1399C117.47 29.5999 117.28 30.0899 117.04 30.5699C116.99 30.6499 116.98 30.6599 116.89 30.6299C116.78 30.5999 116.63 30.5299 116.54 30.4699C116.54 30.4399 116.58 30.3599 116.6 30.3199C116.5 30.3599 116.33 30.3899 116.19 30.3399C115.74 30.1799 115.53 29.8599 115.69 29.4299C115.73 29.3399 115.77 29.2499 115.81 29.1699C116.24 28.4199 116.89 28.4699 117.15 28.5999L117.16 28.6099ZM116.25 30.1499C116.44 30.2499 116.8 29.8399 116.92 29.6199C116.99 29.4199 117.07 29.2499 117.17 29.0299C117.14 28.8799 117.07 28.8199 117.02 28.7899C116.76 28.6599 116.41 29.0499 116.28 29.3299C116.15 29.5999 115.96 30.0099 116.25 30.1599V30.1499Z" fill="#78C13B"/>
<path d="M118.62 29.1299C118.62 29.1299 118.66 29.1599 118.65 29.1899L118.63 29.2699C118.73 29.2899 118.86 29.3499 118.96 29.3999C119.42 29.6299 119.64 29.8999 119.37 30.4199C119.11 30.9299 118.48 30.9599 117.96 30.7999C117.83 31.0699 117.75 31.2399 117.61 31.5199C117.61 31.5199 117.5 31.7399 117.47 31.7999L117.11 31.6199C117.04 31.5899 117.06 31.5299 117.07 31.4999C117.17 31.2399 117.35 30.8299 117.5 30.4899C117.83 29.7399 117.93 29.5399 118.02 29.3599L118.16 29.0799C118.2 29.0099 118.55 29.1199 118.62 29.1399V29.1299ZM118.06 30.6099C118.54 30.6699 118.79 30.3499 118.87 30.1799C118.99 29.9199 119.03 29.6299 118.79 29.5099C118.73 29.4799 118.64 29.4599 118.57 29.4499L118.03 30.5899C118.03 30.5899 118.06 30.5999 118.07 30.5999L118.06 30.6099Z" fill="#78C13B"/>
<path d="M120.38 30.0201C120.38 30.0201 120.42 30.0501 120.41 30.0801L120.39 30.1601C120.49 30.1801 120.62 30.2301 120.72 30.2901C121.18 30.5201 121.4 30.7901 121.13 31.3101C120.87 31.8201 120.24 31.8401 119.72 31.6901C119.59 31.9601 119.51 32.1301 119.37 32.4101C119.37 32.4101 119.26 32.6301 119.23 32.6901L118.87 32.5101C118.8 32.4801 118.82 32.4201 118.83 32.3901C118.93 32.1301 119.11 31.7101 119.26 31.3801C119.59 30.6301 119.69 30.4301 119.78 30.2601L119.92 29.9801C119.96 29.9101 120.31 30.0201 120.38 30.0401V30.0201ZM119.83 31.5001C120.31 31.5701 120.56 31.2401 120.64 31.0701C120.76 30.8101 120.8 30.5201 120.56 30.4001C120.5 30.3701 120.41 30.3501 120.34 30.3401L119.8 31.4801C119.8 31.4801 119.83 31.4901 119.84 31.4901L119.83 31.5001Z" fill="#78C13B"/>
<path d="M121.37 32.57C121.39 32.01 121.43 31.35 121.54 30.8C121.62 30.79 121.89 30.8 122.04 30.89C121.9 31.69 121.88 31.97 121.86 32.18C122.06 31.99 122.49 31.53 122.65 31.31C122.79 31.33 122.98 31.36 123.1 31.43C123.17 31.47 123.17 31.55 123.02 31.68C122.33 32.34 121.63 33.01 120.87 33.67C120.67 33.59 120.56 33.55 120.49 33.51C120.44 33.48 120.42 33.45 120.47 33.4C120.78 33.13 121.07 32.9 121.36 32.58L121.37 32.57Z" fill="#78C13B"/>
</svg>
