<svg width="148" height="148" viewBox="0 0 148 148" fill="none" xmlns="http://www.w3.org/2000/svg">
<path d="M74 138C109.346 138 138 109.346 138 74C138 38.6538 109.346 10 74 10C38.6538 10 10 38.6538 10 74C10 109.346 38.6538 138 74 138Z" fill="#FDFBEF"/>
<path d="M121.46 116.95C109.75 129.88 92.82 138 74 138C55.18 138 38.25 129.88 26.54 116.95H121.46Z" fill="#ACDE47"/>
<path d="M95.0601 115.1C95.1706 115.1 95.2601 115.01 95.2601 114.9C95.2601 114.789 95.1706 114.7 95.0601 114.7C94.9496 114.7 94.8601 114.789 94.8601 114.9C94.8601 115.01 94.9496 115.1 95.0601 115.1Z" fill="#6DB84F"/>
<path d="M105.47 116.52C106.05 116.52 106.52 116.05 106.52 115.47C106.52 114.89 106.05 114.42 105.47 114.42C104.89 114.42 104.42 114.89 104.42 115.47C104.42 116.05 104.89 116.52 105.47 116.52Z" fill="#76CE4D"/>
<path d="M106.45 116.74C106.903 116.74 107.27 116.373 107.27 115.92C107.27 115.467 106.903 115.1 106.45 115.1C105.997 115.1 105.63 115.467 105.63 115.92C105.63 116.373 105.997 116.74 106.45 116.74Z" fill="#76CE4D"/>
<path d="M104.19 116.72C104.715 116.72 105.14 116.294 105.14 115.77C105.14 115.245 104.715 114.82 104.19 114.82C103.665 114.82 103.24 115.245 103.24 115.77C103.24 116.294 103.665 116.72 104.19 116.72Z" fill="#76CE4D"/>
<path d="M107.16 117.22C107.552 117.22 107.87 116.902 107.87 116.51C107.87 116.118 107.552 115.8 107.16 115.8C106.768 115.8 106.45 116.118 106.45 116.51C106.45 116.902 106.768 117.22 107.16 117.22Z" fill="#76CE4D"/>
<path d="M103.61 117.22C104.002 117.22 104.32 116.902 104.32 116.51C104.32 116.118 104.002 115.8 103.61 115.8C103.218 115.8 102.9 116.118 102.9 116.51C102.9 116.902 103.218 117.22 103.61 117.22Z" fill="#76CE4D"/>
<path d="M103.72 117.22H106.76C107.07 117.22 107.33 116.97 107.33 116.65V116.33H103.72V117.22Z" fill="#76CE4D"/>
<path d="M106.86 100.61C107.164 100.61 107.41 100.364 107.41 100.06C107.41 99.7562 107.164 99.51 106.86 99.51C106.556 99.51 106.31 99.7562 106.31 100.06C106.31 100.364 106.556 100.61 106.86 100.61Z" fill="#76CE4D"/>
<path d="M113.61 112.04H108.11V117.23H113.61V112.04Z" fill="#CBF36E"/>
<path d="M111.25 109.09C113.575 109.09 115.46 107.205 115.46 104.88C115.46 102.555 113.575 100.67 111.25 100.67C108.925 100.67 107.04 102.555 107.04 104.88C107.04 107.205 108.925 109.09 111.25 109.09Z" fill="#65B640"/>
<path d="M107.23 114.36C109.555 114.36 111.44 112.475 111.44 110.15C111.44 107.825 109.555 105.94 107.23 105.94C104.905 105.94 103.02 107.825 103.02 110.15C103.02 112.475 104.905 114.36 107.23 114.36Z" fill="#65B640"/>
<path d="M114.49 114.36C116.815 114.36 118.7 112.475 118.7 110.15C118.7 107.825 116.815 105.94 114.49 105.94C112.165 105.94 110.28 107.825 110.28 110.15C110.28 112.475 112.165 114.36 114.49 114.36Z" fill="#65B640"/>
<path d="M103.69 112.04H98.1899V117.23H103.69V112.04Z" fill="#CBF36E"/>
<path d="M100.14 101.08L94.4099 111C94.0499 111.62 94.4999 112.4 95.2199 112.4H106.67C107.39 112.4 107.83 111.62 107.48 111L101.75 101.08C101.39 100.46 100.5 100.46 100.14 101.08Z" fill="#ACDE47"/>
<path d="M94.1098 115.83C95.253 115.83 96.1798 114.903 96.1798 113.76C96.1798 112.617 95.253 111.69 94.1098 111.69C92.9666 111.69 92.0398 112.617 92.0398 113.76C92.0398 114.903 92.9666 115.83 94.1098 115.83Z" fill="#6DB84F"/>
<path d="M92.1798 116.27C93.069 116.27 93.7898 115.549 93.7898 114.66C93.7898 113.771 93.069 113.05 92.1798 113.05C91.2906 113.05 90.5698 113.771 90.5698 114.66C90.5698 115.549 91.2906 116.27 92.1798 116.27Z" fill="#6DB84F"/>
<path d="M96.6298 116.23C97.6625 116.23 98.4998 115.393 98.4998 114.36C98.4998 113.327 97.6625 112.49 96.6298 112.49C95.597 112.49 94.7598 113.327 94.7598 114.36C94.7598 115.393 95.597 116.23 96.6298 116.23Z" fill="#6DB84F"/>
<path d="M90.7799 117.23C91.5531 117.23 92.1799 116.603 92.1799 115.83C92.1799 115.057 91.5531 114.43 90.7799 114.43C90.0067 114.43 89.3799 115.057 89.3799 115.83C89.3799 116.603 90.0067 117.23 90.7799 117.23Z" fill="#6DB84F"/>
<path d="M97.7699 117.23C98.5431 117.23 99.1699 116.603 99.1699 115.83C99.1699 115.057 98.5431 114.43 97.7699 114.43C96.9967 114.43 96.3699 115.057 96.3699 115.83C96.3699 116.603 96.9967 117.23 97.7699 117.23Z" fill="#6DB84F"/>
<path d="M97.56 117.22H91.57C90.95 117.22 90.45 116.72 90.45 116.1V115.48H97.56V117.22Z" fill="#6DB84F"/>
<path d="M117.4 115.88C118.422 115.88 119.25 115.052 119.25 114.03C119.25 113.008 118.422 112.18 117.4 112.18C116.378 112.18 115.55 113.008 115.55 114.03C115.55 115.052 116.378 115.88 117.4 115.88Z" fill="#76CE4D"/>
<path d="M115.67 116.27C116.465 116.27 117.11 115.625 117.11 114.83C117.11 114.035 116.465 113.39 115.67 113.39C114.875 113.39 114.23 114.035 114.23 114.83C114.23 115.625 114.875 116.27 115.67 116.27Z" fill="#76CE4D"/>
<path d="M119.73 117.23C120.818 117.23 121.7 116.348 121.7 115.26C121.7 114.172 120.818 113.29 119.73 113.29C118.642 113.29 117.76 114.172 117.76 115.26C117.76 116.348 118.642 117.23 119.73 117.23Z" fill="#76CE4D"/>
<path d="M114.43 117.12C115.12 117.12 115.68 116.56 115.68 115.87C115.68 115.18 115.12 114.62 114.43 114.62C113.74 114.62 113.18 115.18 113.18 115.87C113.18 116.56 113.74 117.12 114.43 117.12Z" fill="#76CE4D"/>
<path d="M118.47 116.92C119.16 116.92 119.72 116.36 119.72 115.67C119.72 114.98 119.16 114.42 118.47 114.42C117.78 114.42 117.22 114.98 117.22 115.67C117.22 116.36 117.78 116.92 118.47 116.92Z" fill="#76CE4D"/>
<path d="M113.3 115.67H119.65V117.23H114.3C113.75 117.23 113.3 116.78 113.3 116.23V115.67Z" fill="#76CE4D"/>
<path d="M118.853 100.165L118.778 100.137C118.726 100.118 118.668 100.145 118.649 100.197L117.74 102.675C117.72 102.727 117.747 102.784 117.799 102.803L117.874 102.831C117.926 102.85 117.983 102.824 118.002 102.772L118.912 100.293C118.931 100.242 118.905 100.184 118.853 100.165Z" fill="#76CE4D"/>
<path d="M119.645 102.003L119.672 101.928C119.691 101.876 119.665 101.819 119.613 101.8L117.135 100.89C117.083 100.871 117.025 100.897 117.006 100.949L116.979 101.024C116.96 101.076 116.986 101.133 117.038 101.153L119.516 102.062C119.568 102.081 119.626 102.055 119.645 102.003Z" fill="#76CE4D"/>
<path d="M117.773 100.177L117.7 100.211C117.65 100.234 117.628 100.294 117.651 100.344L118.76 102.739C118.784 102.79 118.843 102.811 118.893 102.788L118.966 102.755C119.016 102.731 119.038 102.672 119.015 102.622L117.905 100.226C117.882 100.176 117.823 100.154 117.773 100.177Z" fill="#76CE4D"/>
<path d="M117.027 102.037L117.061 102.11C117.084 102.16 117.143 102.182 117.194 102.159L119.589 101.05C119.639 101.026 119.661 100.967 119.638 100.917L119.604 100.844C119.581 100.794 119.522 100.772 119.472 100.796L117.076 101.905C117.026 101.928 117.004 101.987 117.027 102.037Z" fill="#76CE4D"/>
<path d="M85.5743 112.047L85.5051 112.087C85.4572 112.115 85.4408 112.176 85.4685 112.224L86.7885 114.51C86.8161 114.558 86.8772 114.574 86.9251 114.547L86.9943 114.507C87.0422 114.479 87.0586 114.418 87.0309 114.37L85.7109 112.084C85.6833 112.036 85.6222 112.02 85.5743 112.047Z" fill="#76CE4D"/>
<path d="M87.5026 112.604L87.4626 112.535C87.435 112.487 87.3738 112.471 87.326 112.498L85.0397 113.818C84.9919 113.846 84.9755 113.907 85.0031 113.955L85.0431 114.024C85.0707 114.072 85.1319 114.088 85.1797 114.061L87.466 112.741C87.5138 112.713 87.5302 112.652 87.5026 112.604Z" fill="#76CE4D"/>
<path d="M84.9016 112.884L84.8809 112.962C84.8666 113.015 84.8982 113.07 84.9516 113.084L87.5016 113.767C87.555 113.782 87.6098 113.75 87.6241 113.697L87.6448 113.619C87.6591 113.566 87.6274 113.511 87.5741 113.497L85.024 112.814C84.9707 112.799 84.9159 112.831 84.9016 112.884Z" fill="#76CE4D"/>
<path d="M85.8542 114.648L85.9315 114.669C85.9848 114.683 86.0397 114.652 86.054 114.598L86.7372 112.048C86.7515 111.995 86.7199 111.94 86.6665 111.926L86.5893 111.905C86.5359 111.891 86.4811 111.922 86.4668 111.976L85.7835 114.526C85.7692 114.579 85.8009 114.634 85.8542 114.648Z" fill="#76CE4D"/>
<path d="M104.68 101H104.64C104.607 101 104.58 101.027 104.58 101.06V102.54C104.58 102.573 104.607 102.6 104.64 102.6H104.68C104.713 102.6 104.74 102.573 104.74 102.54V101.06C104.74 101.027 104.713 101 104.68 101Z" fill="#ACDE47"/>
<path d="M105.4 101.72H103.92C103.887 101.72 103.86 101.747 103.86 101.78V101.82C103.86 101.853 103.887 101.88 103.92 101.88H105.4C105.433 101.88 105.46 101.853 105.46 101.82V101.78C105.46 101.747 105.433 101.72 105.4 101.72Z" fill="#ACDE47"/>
<path d="M104.108 101.218L104.079 101.246C104.056 101.27 104.056 101.308 104.079 101.331L105.126 102.378C105.149 102.401 105.187 102.401 105.211 102.378L105.239 102.349C105.262 102.326 105.262 102.288 105.239 102.264L104.192 101.218C104.169 101.194 104.131 101.194 104.108 101.218Z" fill="#ACDE47"/>
<path d="M105.126 101.218L104.079 102.264C104.056 102.288 104.056 102.326 104.079 102.349L104.108 102.378C104.131 102.401 104.169 102.401 104.192 102.378L105.239 101.331C105.262 101.308 105.262 101.27 105.239 101.246L105.211 101.218C105.187 101.195 105.149 101.195 105.126 101.218Z" fill="#ACDE47"/>
<path d="M89.3799 109.72C89.645 109.72 89.8599 109.505 89.8599 109.24C89.8599 108.975 89.645 108.76 89.3799 108.76C89.1148 108.76 88.8999 108.975 88.8999 109.24C88.8999 109.505 89.1148 109.72 89.3799 109.72Z" fill="#ACDE47"/>
<path d="M118.13 105.41C118.318 105.41 118.47 105.258 118.47 105.07C118.47 104.882 118.318 104.73 118.13 104.73C117.942 104.73 117.79 104.882 117.79 105.07C117.79 105.258 117.942 105.41 118.13 105.41Z" fill="#76CE4D"/>
<path d="M115.45 101.2C115.56 101.2 115.65 101.111 115.65 101C115.65 100.89 115.56 100.8 115.45 100.8C115.34 100.8 115.25 100.89 115.25 101C115.25 101.111 115.34 101.2 115.45 101.2Z" fill="#CBF36E"/>
<path d="M63.6899 23.74C63.6799 23.37 63.6899 22.98 63.6899 22.49C63.6899 21.82 63.6999 20.8299 63.6999 19.4C63.8299 19.33 64.2599 19.2 64.4499 19.2C64.4799 19.2 64.4999 19.27 64.4999 19.27C64.9699 19.27 65.4499 19.27 65.9199 19.27C66.0299 19.27 66.1099 19.2799 66.1099 19.3099C66.1099 19.3899 66.0899 19.5 66.0499 19.57H65.9399C65.7799 19.58 65.3899 19.59 65.0199 19.59H64.5299L64.4799 21.24C65.6699 21.24 65.6999 21.24 65.7399 21.24C65.7799 21.25 65.7799 21.26 65.7799 21.29C65.7799 21.37 65.7699 21.45 65.7299 21.53C65.3099 21.55 64.8899 21.5399 64.4699 21.5499C64.4599 21.9599 64.4599 22.41 64.4599 22.85C64.4599 23.14 64.4599 23.42 64.4599 23.7C64.4599 23.83 64.4599 23.8599 64.1699 23.8899C64.1199 23.8899 64.0099 23.8899 63.9299 23.8899C63.8099 23.8699 63.6999 23.85 63.6799 23.76L63.6899 23.74Z" fill="#65B640"/>
<path d="M67.53 20.77C68.65 20.77 68.92 22.03 68.92 22.3C68.92 23.04 68.56 23.84 67.37 23.84C66.43 23.84 66 23.37 66 22.41C66 21.63 66.51 20.77 67.54 20.77H67.53ZM67.48 23.55C67.89 23.55 68.14 22.86 68.14 22.39C68.14 21.88 67.83 21.05 67.31 21.1C66.94 21.15 66.79 21.94 66.79 22.22C66.79 22.71 66.9 23.55 67.48 23.55Z" fill="#65B640"/>
<path d="M69.5899 21C69.6699 20.89 69.9899 20.74 70.1999 20.74C70.3399 20.74 70.3599 20.76 70.3699 20.83L70.3899 21.21C70.6399 21.01 70.91 20.87 71.3 20.84C71.7699 20.8 71.9899 20.98 72.1099 21.27C72.2399 21.59 72.2899 21.83 72.2999 22.04C72.2999 22.17 72.2499 22.18 72.1299 22.19C71.9699 22.21 71.7199 22.23 71.4999 22.19L71.4499 21.92C71.4399 21.82 71.3499 21.21 71.1199 21.21C70.8099 21.21 70.5799 21.68 70.3999 22.14C70.3999 22.47 70.3899 22.59 70.3999 22.94C70.3999 23.18 70.42 23.61 70.41 23.79C70.21 23.84 69.9199 23.87 69.6099 23.79C69.5999 23.58 69.5699 22.6 69.5699 22.39C69.5599 21.95 69.5599 21.5 69.5899 21Z" fill="#65B640"/>
<path d="M73.9899 20.56C74.6599 20.5 75.0299 20.99 75.0299 21.49C75.0299 22.02 74.4799 22.05 74.0799 22.07C73.7999 22.08 73.5199 22.09 73.2199 22.07C73.2199 22.11 73.2199 22.2 73.2199 22.33C73.2199 22.82 73.3399 23.58 73.9699 23.58C74.0799 23.58 74.3099 23.47 74.5499 23.3C74.8299 23.1 75.0499 23.26 74.7099 23.55C74.3399 23.87 73.7099 23.9701 73.2299 23.7701C72.6899 23.5501 72.3999 23.0901 72.3899 22.2801C72.4099 21.1101 73.3699 20.6 73.9899 20.55V20.56ZM73.5399 21.82C73.7299 21.82 74.0099 21.82 74.1599 21.8C74.2799 21.8 74.2699 21.73 74.2699 21.55C74.2499 21.13 74.1399 20.84 73.9499 20.83C73.6799 20.83 73.4799 21.18 73.3499 21.5C73.3499 21.51 73.3399 21.5201 73.2699 21.7901C73.3699 21.8201 73.5199 21.82 73.5499 21.82H73.5399Z" fill="#65B640"/>
<path d="M75.6799 23.38C75.7799 23.34 75.8499 23.32 75.8999 23.36C76.1299 23.59 76.2799 23.7 76.4299 23.7C76.6799 23.7 76.8499 23.5 76.8799 23.19C76.8999 23.01 76.8399 22.69 76.7099 22.64C76.5199 22.57 76.3099 22.6 76.1199 22.54C75.6699 22.41 75.3299 22.13 75.3899 21.66C75.4699 21.14 76.0599 20.52 76.7999 20.52C77.2699 20.52 77.6999 20.87 77.7699 21.29C77.7699 21.48 77.2999 21.58 77.1799 21.58C77.0199 21.35 76.8999 20.82 76.5899 20.86C76.3599 20.9 76.2499 21.26 76.2499 21.6C76.2499 21.89 76.2699 22.21 76.5299 22.25C76.7199 22.29 76.9099 22.29 77.1299 22.34C77.6299 22.45 77.7599 22.74 77.7499 23.1C77.7099 23.8 76.6399 24.03 76.0399 23.96C75.7499 23.92 75.5199 23.83 75.3799 23.64C75.3799 23.58 75.5299 23.41 75.6999 23.36L75.6799 23.38Z" fill="#65B640"/>
<path d="M79.47 21.35C79.49 22.09 79.54 22.86 79.63 23.71C79.37 23.81 79.18 23.81 79 23.8C78.89 23.8 78.83 23.76 78.82 23.75C78.74 22.96 78.69 22.16 78.66 21.36C78.47 21.36 78.28 21.34 78.07 21.33C77.97 21.33 77.83 21.29 77.92 21.18C77.99 21.11 78.03 21.07 78.18 20.99C78.33 21 78.49 21.01 78.65 21.01C78.65 20.6 78.65 20.18 78.67 19.75C78.78 19.7 78.9 19.62 79.14 19.54H79.24C79.41 19.54 79.46 19.62 79.46 19.75C79.46 20.19 79.46 20.61 79.47 21.03C79.88 21.03 80.29 21.01 80.72 20.99C80.74 20.99 80.78 20.99 80.78 21.03C80.78 21.11 80.75 21.25 80.72 21.32C80.31 21.33 79.89 21.36 79.48 21.36L79.47 21.35Z" fill="#65B640"/>
<path d="M61.1699 21.77H60.6699" stroke="#65B640" stroke-width="0.3" stroke-miterlimit="10" stroke-linecap="round"/>
<path d="M59.7 21.77H46.71" stroke="#65B640" stroke-width="0.3" stroke-miterlimit="10" stroke-linecap="round"/>
<path d="M46.23 21.77H45.73" stroke="#65B640" stroke-width="0.3" stroke-miterlimit="10" stroke-linecap="round"/>
<path d="M98.1899 21.77H97.6899" stroke="#65B640" stroke-width="0.3" stroke-miterlimit="10" stroke-linecap="round"/>
<path d="M96.73 21.77H83.73" stroke="#65B640" stroke-width="0.3" stroke-miterlimit="10" stroke-linecap="round"/>
<path d="M83.25 21.77H82.75" stroke="#65B640" stroke-width="0.3" stroke-miterlimit="10" stroke-linecap="round"/>
</svg>
