<svg width="148" height="148" viewBox="0 0 148 148" fill="none" xmlns="http://www.w3.org/2000/svg">
<path d="M138 51.57C138 28.61 119.39 10 96.43 10C88.16 10 80.47 12.42 74 16.58C67.53 12.42 59.83 10 51.57 10C28.61 10 10 28.61 10 51.57C10 59.84 12.42 67.53 16.58 74C12.42 80.47 10 88.17 10 96.43C10 119.39 28.61 138 51.57 138C59.84 138 67.53 135.58 74 131.42C80.47 135.58 88.17 138 96.43 138C119.39 138 138 119.39 138 96.43C138 88.16 135.58 80.47 131.42 74C135.58 67.53 138 59.83 138 51.57Z" fill="#59AF38"/>
<path d="M44.8799 24.41C44.9499 22.03 43.0699 20.04 40.6899 19.97C39.8299 19.95 39.0299 20.17 38.3399 20.59C37.6799 20.14 36.8899 19.87 36.0299 19.84C33.6499 19.77 31.6599 21.65 31.5899 24.03C31.5699 24.89 31.7899 25.69 32.2099 26.38C31.7599 27.04 31.4899 27.83 31.4599 28.69C31.3899 31.07 33.2699 33.06 35.6499 33.13C36.5099 33.15 37.3099 32.93 37.9999 32.51C38.6599 32.96 39.4499 33.23 40.3099 33.26C42.6899 33.33 44.6799 31.45 44.7499 29.07C44.7699 28.21 44.5499 27.41 44.1299 26.72C44.5799 26.06 44.8499 25.27 44.8799 24.41Z" fill="#78C13B"/>
<path d="M38.6139 25.276L37.129 26.7609C36.9493 26.9406 36.9493 27.2318 37.129 27.4115C37.3086 27.5911 37.5999 27.5911 37.7795 27.4114L39.2644 25.9265C39.4441 25.7469 39.4441 25.4556 39.2644 25.276C39.0848 25.0963 38.7935 25.0963 38.6139 25.276Z" fill="#C6FC68"/>
<path d="M37.7866 25.269C37.607 25.0893 37.3157 25.0893 37.1361 25.269C36.9564 25.4486 36.9564 25.7399 37.1361 25.9195L38.621 27.4044C38.8006 27.5841 39.0919 27.5841 39.2715 27.4044C39.4512 27.2248 39.4512 26.9335 39.2715 26.7539L37.7866 25.269Z" fill="#C6FC68"/>
<path d="M32.5399 38.5099C33.4499 36.9499 32.9199 34.9399 31.3599 34.0299C30.7999 33.6999 30.1799 33.5599 29.5699 33.5899C29.2899 33.0499 28.8699 32.5799 28.3099 32.2499C26.7499 31.3399 24.7399 31.8699 23.8299 33.4299C23.4999 33.9899 23.3599 34.6099 23.3899 35.2199C22.8499 35.4999 22.3799 35.9199 22.0499 36.4799C21.1399 38.0399 21.6699 40.0499 23.2299 40.9599C23.7899 41.2899 24.4099 41.4299 25.0199 41.3999C25.2999 41.9399 25.7199 42.4099 26.2799 42.7399C27.8399 43.6499 29.8499 43.1199 30.7599 41.5599C31.0899 40.9999 31.2299 40.3799 31.1999 39.7699C31.7399 39.4899 32.2099 39.0699 32.5399 38.5099Z" fill="#C6FC68"/>
<path d="M28.0465 36.8134L26.5209 37.2613C26.3354 37.3157 26.2292 37.5102 26.2836 37.6957C26.3381 37.8812 26.5326 37.9874 26.7181 37.9329L28.2437 37.4851C28.4292 37.4306 28.5354 37.2361 28.4809 37.0507C28.4265 36.8652 28.232 36.759 28.0465 36.8134Z" fill="#59AF38"/>
<path d="M27.4975 36.5056C27.4431 36.3201 27.2486 36.2139 27.0631 36.2684C26.8776 36.3228 26.7714 36.5173 26.8259 36.7028L27.2737 38.2284C27.3282 38.4139 27.5227 38.5201 27.7081 38.4656C27.8936 38.4112 27.9998 38.2167 27.9454 38.0312L27.4975 36.5056Z" fill="#59AF38"/>
<path d="M23.6999 44.3101C23.6999 44.3101 18.6199 58.1501 28.4299 71.3801" stroke="#CBF36E" stroke-linecap="round" stroke-linejoin="round"/>
<path d="M99.2199 122.89C98.7799 125.23 100.33 127.48 102.67 127.92C103.51 128.08 104.34 127.98 105.08 127.68C105.66 128.23 106.4 128.62 107.24 128.78C109.58 129.22 111.83 127.67 112.27 125.33C112.43 124.49 112.33 123.66 112.03 122.92C112.58 122.34 112.97 121.6 113.13 120.76C113.57 118.42 112.02 116.17 109.68 115.73C108.84 115.57 108.01 115.67 107.27 115.97C106.69 115.42 105.95 115.03 105.11 114.87C102.77 114.43 100.52 115.98 100.08 118.32C99.9199 119.16 100.02 119.99 100.32 120.73C99.7699 121.31 99.3799 122.05 99.2199 122.89Z" fill="#78C13B"/>
<path d="M106.689 121.034L104.991 122.27C104.786 122.42 104.741 122.707 104.89 122.913C105.04 123.118 105.328 123.163 105.533 123.014L107.23 121.777C107.436 121.628 107.481 121.34 107.331 121.135C107.182 120.929 106.894 120.884 106.689 121.034Z" fill="#C6FC68"/>
<path d="M105.864 120.904C105.715 120.699 105.427 120.654 105.222 120.803C105.016 120.953 104.971 121.241 105.121 121.446L106.357 123.143C106.507 123.349 106.794 123.394 107 123.244C107.205 123.095 107.25 122.807 107.101 122.602L105.864 120.904Z" fill="#C6FC68"/>
<path d="M113.6 110.88C112.46 112.28 112.67 114.34 114.07 115.49C114.57 115.9 115.16 116.14 115.77 116.21C115.96 116.79 116.31 117.32 116.81 117.73C118.21 118.87 120.27 118.66 121.42 117.26C121.83 116.76 122.07 116.17 122.14 115.56C122.72 115.37 123.25 115.02 123.66 114.52C124.8 113.12 124.59 111.06 123.19 109.91C122.69 109.5 122.1 109.26 121.49 109.19C121.3 108.61 120.95 108.08 120.45 107.67C119.05 106.53 116.99 106.74 115.84 108.14C115.43 108.64 115.19 109.23 115.12 109.84C114.54 110.03 114.01 110.38 113.6 110.88Z" fill="#C6FC68"/>
<path d="M119.241 112.369L117.664 112.574C117.473 112.599 117.338 112.775 117.363 112.966C117.388 113.158 117.563 113.293 117.755 113.268L119.332 113.063C119.523 113.038 119.658 112.862 119.633 112.67C119.608 112.479 119.433 112.344 119.241 112.369Z" fill="#59AF38"/>
<path d="M118.747 111.979C118.722 111.788 118.546 111.652 118.354 111.677C118.163 111.702 118.028 111.878 118.053 112.07L118.258 113.646C118.283 113.838 118.459 113.973 118.651 113.948C118.842 113.923 118.977 113.748 118.952 113.556L118.747 111.979Z" fill="#59AF38"/>
<path d="M123.23 106.52C123.23 106.52 130.4 93.64 122.76 79.05" stroke="#CBF36E" stroke-linecap="round" stroke-linejoin="round"/>
<path d="M44.95 24.2101C45.02 21.8301 43.14 19.8401 40.76 19.7701C39.9 19.7501 39.1 19.9701 38.41 20.3901C37.75 19.9401 36.96 19.6701 36.1 19.6401C33.72 19.5701 31.73 21.4501 31.66 23.8301C31.64 24.6901 31.86 25.4901 32.28 26.1801C31.83 26.8401 31.56 27.6301 31.53 28.4901C31.46 30.8701 33.34 32.8601 35.72 32.9301C36.58 32.9501 37.38 32.7301 38.07 32.3101C38.73 32.7601 39.52 33.0301 40.38 33.0601C42.76 33.1301 44.75 31.2501 44.82 28.8701C44.84 28.0101 44.62 27.2101 44.2 26.5201C44.65 25.8601 44.92 25.0701 44.95 24.2101Z" fill="#78C13B"/>
<path d="M39.345 25.7275C39.5247 25.5479 39.5247 25.2566 39.345 25.077C39.1654 24.8973 38.8741 24.8973 38.6945 25.077L37.2096 26.5619C37.0299 26.7415 37.0299 27.0328 37.2096 27.2124C37.3892 27.3921 37.6805 27.3921 37.8601 27.2124L39.345 25.7275Z" fill="#C6FC68"/>
<path d="M37.8476 25.0751C37.668 24.8955 37.3767 24.8955 37.1971 25.0751C37.0175 25.2548 37.0175 25.546 37.1971 25.7257L38.682 27.2106C38.8617 27.3902 39.1529 27.3902 39.3326 27.2106C39.5122 27.0309 39.5122 26.7397 39.3326 26.56L37.8476 25.0751Z" fill="#C6FC68"/>
<path d="M32.6 38.3099C33.51 36.7499 32.98 34.7399 31.42 33.8299C30.86 33.4999 30.24 33.3599 29.63 33.3899C29.35 32.8499 28.93 32.3799 28.37 32.0499C26.81 31.1399 24.8 31.6699 23.89 33.2299C23.56 33.7899 23.42 34.4099 23.45 35.0199C22.91 35.2999 22.44 35.7199 22.11 36.2799C21.2 37.8399 21.73 39.8499 23.29 40.7599C23.85 41.0899 24.47 41.2299 25.08 41.1999C25.36 41.7399 25.78 42.2099 26.34 42.5399C27.9 43.4499 29.91 42.9199 30.82 41.3599C31.15 40.7999 31.29 40.1799 31.26 39.5699C31.8 39.2899 32.27 38.8699 32.6 38.3099Z" fill="#C6FC68"/>
<path d="M28.1173 36.612L26.5917 37.0599C26.4062 37.1143 26.3 37.3088 26.3544 37.4943C26.4089 37.6797 26.6034 37.786 26.7889 37.7315L28.3145 37.2837C28.5 37.2292 28.6062 37.0347 28.5517 36.8492C28.4973 36.6638 28.3028 36.5576 28.1173 36.612Z" fill="#59AF38"/>
<path d="M27.5615 36.3166C27.5071 36.1312 27.3126 36.0249 27.1271 36.0794C26.9416 36.1338 26.8354 36.3283 26.8898 36.5138L27.3377 38.0394C27.3922 38.2249 27.5866 38.3311 27.7721 38.2767C27.9576 38.2222 28.0638 38.0277 28.0094 37.8423L27.5615 36.3166Z" fill="#59AF38"/>
<path d="M23.77 44.1101C23.77 44.1101 18.69 57.9501 28.5 71.1801" stroke="#CBF36E" stroke-linecap="round" stroke-linejoin="round"/>
<path d="M99.28 122.7C98.84 125.04 100.39 127.29 102.73 127.73C103.57 127.89 104.4 127.79 105.14 127.49C105.72 128.04 106.46 128.43 107.3 128.59C109.64 129.03 111.89 127.48 112.33 125.14C112.49 124.3 112.39 123.47 112.09 122.73C112.64 122.15 113.03 121.41 113.19 120.57C113.63 118.23 112.08 115.98 109.74 115.54C108.9 115.38 108.07 115.48 107.33 115.78C106.75 115.23 106.01 114.84 105.17 114.68C102.83 114.24 100.58 115.79 100.14 118.13C99.98 118.97 100.08 119.8 100.38 120.54C99.83 121.12 99.44 121.86 99.28 122.7Z" fill="#78C13B"/>
<path d="M105.051 122.077C104.846 122.226 104.801 122.514 104.95 122.719C105.1 122.925 105.388 122.97 105.593 122.82L107.29 121.584C107.496 121.434 107.541 121.147 107.391 120.941C107.242 120.736 106.954 120.691 106.749 120.84L105.051 122.077Z" fill="#C6FC68"/>
<path d="M106.417 122.949C106.567 123.154 106.854 123.199 107.06 123.05C107.265 122.9 107.31 122.612 107.161 122.407L105.924 120.71C105.775 120.504 105.487 120.459 105.281 120.609C105.076 120.758 105.031 121.046 105.181 121.251L106.417 122.949Z" fill="#C6FC68"/>
<path d="M113.67 110.68C112.53 112.08 112.74 114.14 114.14 115.29C114.64 115.7 115.23 115.94 115.84 116.01C116.03 116.59 116.38 117.12 116.88 117.53C118.28 118.67 120.34 118.46 121.49 117.06C121.9 116.56 122.14 115.97 122.21 115.36C122.79 115.17 123.32 114.82 123.73 114.32C124.87 112.92 124.66 110.86 123.26 109.71C122.76 109.3 122.17 109.06 121.56 108.99C121.37 108.41 121.02 107.88 120.52 107.47C119.12 106.33 117.06 106.54 115.91 107.94C115.5 108.44 115.26 109.03 115.19 109.64C114.61 109.83 114.08 110.18 113.67 110.68Z" fill="#C6FC68"/>
<path d="M119.315 112.161L117.738 112.367C117.546 112.392 117.411 112.567 117.436 112.759C117.461 112.951 117.637 113.086 117.828 113.061L119.405 112.855C119.597 112.83 119.732 112.655 119.707 112.463C119.682 112.271 119.506 112.136 119.315 112.161Z" fill="#59AF38"/>
<path d="M118.82 111.782C118.795 111.59 118.62 111.455 118.428 111.48C118.236 111.505 118.101 111.681 118.126 111.872L118.332 113.449C118.357 113.641 118.532 113.776 118.724 113.751C118.916 113.726 119.051 113.55 119.026 113.359L118.82 111.782Z" fill="#59AF38"/>
<path d="M123.29 106.33C123.29 106.33 130.46 93.4501 122.82 78.8601" stroke="#CBF36E" stroke-linecap="round" stroke-linejoin="round"/>
</svg>
