<svg width="148" height="148" viewBox="0 0 148 148" fill="none" xmlns="http://www.w3.org/2000/svg">
<path d="M138 16.2699V131.58C138 135.08 135.16 137.92 131.66 137.92H16.34C12.84 137.92 10 135.08 10 131.58V16.2699C10 12.7599 12.84 9.91992 16.34 9.91992H131.66C135.16 9.91992 138 12.7599 138 16.2699Z" fill="#F7F8FB"/>
<path d="M138 72.9499V102.16H10V80.6099C10.45 80.5299 10.92 80.4899 11.39 80.4899C13.98 80.4899 16.3 81.6799 17.83 83.5399C19.2 82.5299 20.89 81.9299 22.73 81.9299C23.75 81.9299 24.72 82.1199 25.63 82.4599C25.62 82.2799 25.6 82.1099 25.6 81.9299C25.6 79.8699 26.23 77.9699 27.31 76.3899C27.21 75.8099 27.15 75.2199 27.15 74.6199C27.15 69.1899 31.55 64.7899 36.98 64.7899C37.84 64.7899 38.68 64.9099 39.48 65.1199C41.76 62.0899 45.37 60.1299 49.44 60.1299C56.33 60.1299 61.91 65.7099 61.91 72.5999C61.91 72.9399 61.88 73.2799 61.86 73.6099H61.91C66.5 73.6099 70.23 77.3399 70.23 81.9299C70.23 83.0499 70.01 84.1199 69.6 85.0899C70.61 85.1799 71.56 85.4799 72.4 85.9499C73.62 83.8499 75.89 82.4399 78.5 82.4399C82.04 82.4399 84.96 85.0499 85.47 88.4499C86.63 87.6199 88.04 87.1199 89.57 87.1199C92.67 87.1199 95.3 89.1199 96.25 91.8999C97.53 92.0499 98.77 92.3099 99.95 92.6899C99.95 92.4999 99.93 92.3099 99.93 92.1199C99.93 88.6599 102.42 85.7799 105.71 85.1799C105.06 84.1799 104.67 82.9999 104.67 81.7099C104.67 78.2099 107.5 75.3799 111 75.3799C111.42 75.3799 111.84 75.4199 112.23 75.4999C112.21 75.2099 112.19 74.9199 112.19 74.6199C112.19 69.0699 116.69 64.5699 122.23 64.5699C127.14 64.5699 131.22 68.0899 132.1 72.7499C132.93 72.5199 133.8 72.3899 134.7 72.3899C135.86 72.3899 136.97 72.5799 138 72.9499Z" fill="#EEF2FB"/>
<path d="M138 104.28V123.16H10V88.0899C15.07 85.1999 26.06 81.7399 44.3 89.3499C70.75 100.38 68.47 99.5099 78.98 97.9299C84.24 97.1399 87.88 99.3799 92.31 102.05C96.73 104.69 101.94 107.75 110.34 108.62C122.32 109.87 131.9 107.47 138 104.28Z" fill="#8DC945"/>
<mask id="mask0_1054_15719" style="mask-type:luminance" maskUnits="userSpaceOnUse" x="10" y="84" width="128" height="40">
<path d="M138 104.28V123.16H10V88.0899C15.07 85.1999 26.06 81.7399 44.3 89.3499C70.75 100.38 68.47 99.5099 78.98 97.9299C84.24 97.1399 87.88 99.3799 92.31 102.05C96.73 104.69 101.94 107.75 110.34 108.62C122.32 109.87 131.9 107.47 138 104.28Z" fill="white"/>
</mask>
<g mask="url(#mask0_1054_15719)">
<path d="M32.61 83.2798H19.21V129.83H32.61V83.2798Z" fill="#A5D82A"/>
<path d="M62.8199 83.2798H49.4199V129.83H62.8199V83.2798Z" fill="#A5D82A"/>
<path d="M93.0299 83.2798H79.6299V129.83H93.0299V83.2798Z" fill="#A5D82A"/>
<path d="M123.25 83.2798H109.85V129.83H123.25V83.2798Z" fill="#A5D82A"/>
</g>
<path d="M50.8 110.74C53.9922 110.74 56.58 108.152 56.58 104.96C56.58 101.768 53.9922 99.1799 50.8 99.1799C47.6078 99.1799 45.02 101.768 45.02 104.96C45.02 108.152 47.6078 110.74 50.8 110.74Z" fill="#97D305"/>
<path d="M56.2002 111.97C58.68 111.97 60.6902 109.96 60.6902 107.48C60.6902 105 58.68 102.99 56.2002 102.99C53.7204 102.99 51.7102 105 51.7102 107.48C51.7102 109.96 53.7204 111.97 56.2002 111.97Z" fill="#97D305"/>
<path d="M43.75 111.86C46.6385 111.86 48.98 109.518 48.98 106.63C48.98 103.741 46.6385 101.4 43.75 101.4C40.8616 101.4 38.52 103.741 38.52 106.63C38.52 109.518 40.8616 111.86 43.75 111.86Z" fill="#97D305"/>
<path d="M60.1102 114.66C62.2751 114.66 64.0302 112.905 64.0302 110.74C64.0302 108.575 62.2751 106.82 60.1102 106.82C57.9452 106.82 56.1902 108.575 56.1902 110.74C56.1902 112.905 57.9452 114.66 60.1102 114.66Z" fill="#97D305"/>
<path d="M40.5401 114.66C42.7051 114.66 44.4601 112.905 44.4601 110.74C44.4601 108.575 42.7051 106.82 40.5401 106.82C38.3752 106.82 36.6201 108.575 36.6201 110.74C36.6201 112.905 38.3752 114.66 40.5401 114.66Z" fill="#97D305"/>
<path d="M41.1301 114.63H58.8201C60.0301 114.63 61.0201 113.65 61.0201 112.43V109.75H41.1401V114.63H41.1301Z" fill="#97D305"/>
<path d="M138 98.18V131.53C138 132.08 137.93 132.61 137.79 133.11H10.21C10.07 132.61 10 132.08 10 131.53V114.36C16.12 117.48 25.6 119.8 37.42 118.57C44.97 117.78 49.94 115.23 54.07 112.8C59.15 109.81 62.98 107.01 68.77 107.88C77.5 109.19 77.41 110.02 92.31 103.93C95.34 102.69 98.99 101.17 103.46 99.3C122 91.56 133.05 95.27 138 98.18Z" fill="#65B640"/>
<mask id="mask1_1054_15719" style="mask-type:luminance" maskUnits="userSpaceOnUse" x="10" y="94" width="128" height="40">
<path d="M138 98.18V131.53C138 132.08 137.93 132.61 137.79 133.11H10.21C10.07 132.61 10 132.08 10 131.53V114.36C16.12 117.48 25.6 119.8 37.42 118.57C44.97 117.78 49.94 115.23 54.07 112.8C59.15 109.81 62.98 107.01 68.77 107.88C77.5 109.19 77.41 110.02 92.31 103.93C95.34 102.69 98.99 101.17 103.46 99.3C122 91.56 133.05 95.27 138 98.18Z" fill="white"/>
</mask>
<g mask="url(#mask1_1054_15719)">
<path d="M30.2999 66.27H17.1599V141.21H30.2999V66.27Z" fill="#6DB84F"/>
<path d="M60.0799 66.27H46.9399V141.21H60.0799V66.27Z" fill="#6DB84F"/>
<path d="M89.87 66.27H76.73V141.21H89.87V66.27Z" fill="#6DB84F"/>
<path d="M119.65 66.27H106.51V141.21H119.65V66.27Z" fill="#6DB84F"/>
<path d="M149.04 66.27H135.9V141.21H149.04V66.27Z" fill="#6DB84F"/>
</g>
<path d="M117.08 100.83C118.207 100.83 119.12 100.396 119.12 99.8599C119.12 99.3242 118.207 98.8899 117.08 98.8899C115.953 98.8899 115.04 99.3242 115.04 99.8599C115.04 100.396 115.953 100.83 117.08 100.83Z" fill="#F7FEEE"/>
<path d="M117.08 100.24C117.522 100.24 117.88 100.07 117.88 99.86C117.88 99.6501 117.522 99.48 117.08 99.48C116.638 99.48 116.28 99.6501 116.28 99.86C116.28 100.07 116.638 100.24 117.08 100.24Z" fill="#F6C13D"/>
<path d="M121.34 102.84C122.168 102.84 122.84 102.522 122.84 102.13C122.84 101.738 122.168 101.42 121.34 101.42C120.511 101.42 119.84 101.738 119.84 102.13C119.84 102.522 120.511 102.84 121.34 102.84Z" fill="#F7FEEE"/>
<path d="M121.34 102.41C121.666 102.41 121.93 102.284 121.93 102.13C121.93 101.975 121.666 101.85 121.34 101.85C121.014 101.85 120.75 101.975 120.75 102.13C120.75 102.284 121.014 102.41 121.34 102.41Z" fill="#F6C13D"/>
<path d="M114.16 103.42C114.834 103.42 115.38 103.16 115.38 102.84C115.38 102.52 114.834 102.26 114.16 102.26C113.486 102.26 112.94 102.52 112.94 102.84C112.94 103.16 113.486 103.42 114.16 103.42Z" fill="#F7FEEE"/>
<path d="M114.16 103.07C114.425 103.07 114.64 102.967 114.64 102.84C114.64 102.713 114.425 102.61 114.16 102.61C113.895 102.61 113.68 102.713 113.68 102.84C113.68 102.967 113.895 103.07 114.16 103.07Z" fill="#F6C13D"/>
<path d="M132.31 112.94C133.437 112.94 134.35 112.506 134.35 111.97C134.35 111.434 133.437 111 132.31 111C131.183 111 130.27 111.434 130.27 111.97C130.27 112.506 131.183 112.94 132.31 112.94Z" fill="#F7FEEE"/>
<path d="M132.31 112.35C132.752 112.35 133.11 112.18 133.11 111.97C133.11 111.76 132.752 111.59 132.31 111.59C131.868 111.59 131.51 111.76 131.51 111.97C131.51 112.18 131.868 112.35 132.31 112.35Z" fill="#F6C13D"/>
<path d="M94.6099 109.3C95.3997 109.3 96.0399 108.995 96.0399 108.62C96.0399 108.244 95.3997 107.94 94.6099 107.94C93.8202 107.94 93.1799 108.244 93.1799 108.62C93.1799 108.995 93.8202 109.3 94.6099 109.3Z" fill="#F7FEEE"/>
<path d="M94.61 108.89C94.9193 108.89 95.17 108.769 95.17 108.62C95.17 108.471 94.9193 108.35 94.61 108.35C94.3008 108.35 94.05 108.471 94.05 108.62C94.05 108.769 94.3008 108.89 94.61 108.89Z" fill="#F6C13D"/>
<path d="M104.79 126.09C107.242 126.09 109.23 124.102 109.23 121.65C109.23 119.198 107.242 117.21 104.79 117.21C102.338 117.21 100.35 119.198 100.35 121.65C100.35 124.102 102.338 126.09 104.79 126.09Z" fill="#76CE4D"/>
<path d="M100.63 127.04C102.536 127.04 104.08 125.495 104.08 123.59C104.08 121.685 102.536 120.14 100.63 120.14C98.7248 120.14 97.1802 121.685 97.1802 123.59C97.1802 125.495 98.7248 127.04 100.63 127.04Z" fill="#76CE4D"/>
<path d="M110.21 126.95C112.43 126.95 114.23 125.15 114.23 122.93C114.23 120.71 112.43 118.91 110.21 118.91C107.99 118.91 106.19 120.71 106.19 122.93C106.19 125.15 107.99 126.95 110.21 126.95Z" fill="#76CE4D"/>
<path d="M97.6301 129.11C99.298 129.11 100.65 127.758 100.65 126.09C100.65 124.422 99.298 123.07 97.6301 123.07C95.9622 123.07 94.6101 124.422 94.6101 126.09C94.6101 127.758 95.9622 129.11 97.6301 129.11Z" fill="#76CE4D"/>
<path d="M112.68 129.11C114.348 129.11 115.7 127.758 115.7 126.09C115.7 124.422 114.348 123.07 112.68 123.07C111.012 123.07 109.66 124.422 109.66 126.09C109.66 127.758 111.012 129.11 112.68 129.11Z" fill="#76CE4D"/>
<path d="M112.22 129.08H99.1202C97.9102 129.08 96.9202 128.1 96.9202 126.88V125.32H112.21V129.07L112.22 129.08Z" fill="#76CE4D"/>
<path d="M123.44 126.54C126.632 126.54 129.22 123.952 129.22 120.76C129.22 117.568 126.632 114.98 123.44 114.98C120.248 114.98 117.66 117.568 117.66 120.76C117.66 123.952 120.248 126.54 123.44 126.54Z" fill="#7CC365"/>
<path d="M118.03 127.78C120.51 127.78 122.52 125.77 122.52 123.29C122.52 120.81 120.51 118.8 118.03 118.8C115.55 118.8 113.54 120.81 113.54 123.29C113.54 125.77 115.55 127.78 118.03 127.78Z" fill="#7CC365"/>
<path d="M130.49 127.66C133.378 127.66 135.72 125.318 135.72 122.43C135.72 119.542 133.378 117.2 130.49 117.2C127.602 117.2 125.26 119.542 125.26 122.43C125.26 125.318 127.602 127.66 130.49 127.66Z" fill="#7CC365"/>
<path d="M114.13 130.46C116.295 130.46 118.05 128.705 118.05 126.54C118.05 124.375 116.295 122.62 114.13 122.62C111.965 122.62 110.21 124.375 110.21 126.54C110.21 128.705 111.965 130.46 114.13 130.46Z" fill="#7CC365"/>
<path d="M133.69 130.46C135.855 130.46 137.61 128.705 137.61 126.54C137.61 124.375 135.855 122.62 133.69 122.62C131.525 122.62 129.77 124.375 129.77 126.54C129.77 128.705 131.525 130.46 133.69 130.46Z" fill="#7CC365"/>
<path d="M133.11 130.43H115.42C114.21 130.43 113.22 129.45 113.22 128.23V125.55H133.1V130.43H133.11Z" fill="#7CC365"/>
<path d="M138 125.01V131.68C138 132.23 137.93 132.76 137.79 133.26C137.1 136 134.61 138.02 131.66 138.02H16.34C13.39 138.02 10.9 136 10.21 133.26C10.07 132.76 10 132.23 10 131.68V109C14.29 106.08 25.59 101.06 45.63 109.43C48.84 110.77 51.63 111.94 54.07 112.95C71.72 120.25 71.09 119.4 80.32 118.02C87.59 116.93 91.76 121.62 99.21 125.19C102.53 126.79 106.49 128.16 111.67 128.7C122.58 129.83 131.49 127.95 137.61 125.19C137.74 125.14 137.87 125.08 138 125.01Z" fill="#CBF36E"/>
<mask id="mask2_1054_15719" style="mask-type:luminance" maskUnits="userSpaceOnUse" x="10" y="104" width="128" height="35">
<path d="M138 125.01V131.68C138 132.23 137.93 132.76 137.79 133.26C137.1 136 134.61 138.02 131.66 138.02H16.34C13.39 138.02 10.9 136 10.21 133.26C10.07 132.76 10 132.23 10 131.68V109C14.29 106.08 25.59 101.06 45.63 109.43C48.84 110.77 51.63 111.94 54.07 112.95C71.72 120.25 71.09 119.4 80.32 118.02C87.59 116.93 91.76 121.62 99.21 125.19C102.53 126.79 106.49 128.16 111.67 128.7C122.58 129.83 131.49 127.95 137.61 125.19C137.74 125.14 137.87 125.08 138 125.01Z" fill="white"/>
</mask>
<g mask="url(#mask2_1054_15719)">
<path d="M32.5299 84.99H19.3899V159.93H32.5299V84.99Z" fill="#ACDE47"/>
<path d="M62.3099 84.99H49.1699V159.93H62.3099V84.99Z" fill="#ACDE47"/>
<path d="M92.09 84.99H78.95V159.93H92.09V84.99Z" fill="#ACDE47"/>
<path d="M121.87 84.99H108.73V159.93H121.87V84.99Z" fill="#ACDE47"/>
</g>
<path d="M28.7201 116.56C30.2776 116.56 31.5401 115.964 31.5401 115.23C31.5401 114.495 30.2776 113.9 28.7201 113.9C27.1627 113.9 25.9001 114.495 25.9001 115.23C25.9001 115.964 27.1627 116.56 28.7201 116.56Z" fill="#F7FEEE"/>
<path d="M28.7201 115.75C29.3331 115.75 29.8301 115.517 29.8301 115.23C29.8301 114.943 29.3331 114.71 28.7201 114.71C28.1071 114.71 27.6101 114.943 27.6101 115.23C27.6101 115.517 28.1071 115.75 28.7201 115.75Z" fill="#F6C13D"/>
<path d="M18.4801 128.57C19.2533 128.57 19.8801 128.275 19.8801 127.91C19.8801 127.545 19.2533 127.25 18.4801 127.25C17.7069 127.25 17.0801 127.545 17.0801 127.91C17.0801 128.275 17.7069 128.57 18.4801 128.57Z" fill="#F7FEEE"/>
<path d="M18.4802 128.17C18.7839 128.17 19.0302 128.053 19.0302 127.91C19.0302 127.766 18.7839 127.65 18.4802 127.65C18.1764 127.65 17.9302 127.766 17.9302 127.91C17.9302 128.053 18.1764 128.17 18.4802 128.17Z" fill="#F6C13D"/>
<path d="M47.3801 123.75C48.5067 123.75 49.4201 123.316 49.4201 122.78C49.4201 122.244 48.5067 121.81 47.3801 121.81C46.2534 121.81 45.3401 122.244 45.3401 122.78C45.3401 123.316 46.2534 123.75 47.3801 123.75Z" fill="#F7FEEE"/>
<path d="M47.3801 123.16C47.8219 123.16 48.1801 122.99 48.1801 122.78C48.1801 122.57 47.8219 122.4 47.3801 122.4C46.9382 122.4 46.5801 122.57 46.5801 122.78C46.5801 122.99 46.9382 123.16 47.3801 123.16Z" fill="#F6C13D"/>
<path d="M127.43 136.55C128.557 136.55 129.47 136.116 129.47 135.58C129.47 135.044 128.557 134.61 127.43 134.61C126.303 134.61 125.39 135.044 125.39 135.58C125.39 136.116 126.303 136.55 127.43 136.55Z" fill="#F7FEEE"/>
<path d="M127.43 135.96C127.872 135.96 128.23 135.79 128.23 135.58C128.23 135.37 127.872 135.2 127.43 135.2C126.988 135.2 126.63 135.37 126.63 135.58C126.63 135.79 126.988 135.96 127.43 135.96Z" fill="#F6C13D"/>
<path d="M37.9101 133.23C38.6226 133.23 39.2001 132.957 39.2001 132.62C39.2001 132.283 38.6226 132.01 37.9101 132.01C37.1977 132.01 36.6201 132.283 36.6201 132.62C36.6201 132.957 37.1977 133.23 37.9101 133.23Z" fill="#F7FEEE"/>
<path d="M37.9101 132.86C38.1918 132.86 38.4201 132.753 38.4201 132.62C38.4201 132.488 38.1918 132.38 37.9101 132.38C37.6285 132.38 37.4001 132.488 37.4001 132.62C37.4001 132.753 37.6285 132.86 37.9101 132.86Z" fill="#F6C13D"/>
<path d="M95.1201 135.58C95.8325 135.58 96.4101 135.307 96.4101 134.97C96.4101 134.633 95.8325 134.36 95.1201 134.36C94.4076 134.36 93.8301 134.633 93.8301 134.97C93.8301 135.307 94.4076 135.58 95.1201 135.58Z" fill="#F7FEEE"/>
<path d="M95.1201 135.21C95.4018 135.21 95.6301 135.103 95.6301 134.97C95.6301 134.837 95.4018 134.73 95.1201 134.73C94.8384 134.73 94.6101 134.837 94.6101 134.97C94.6101 135.103 94.8384 135.21 95.1201 135.21Z" fill="#F6C13D"/>
<path d="M66.3102 132.62C66.9343 132.62 67.4402 132.383 67.4402 132.09C67.4402 131.797 66.9343 131.56 66.3102 131.56C65.6861 131.56 65.1802 131.797 65.1802 132.09C65.1802 132.383 65.6861 132.62 66.3102 132.62Z" fill="#F7FEEE"/>
<path d="M66.3101 132.3C66.5531 132.3 66.7501 132.206 66.7501 132.09C66.7501 131.974 66.5531 131.88 66.3101 131.88C66.0671 131.88 65.8701 131.974 65.8701 132.09C65.8701 132.206 66.0671 132.3 66.3101 132.3Z" fill="#F6C13D"/>
<path d="M87.31 125.93C87.7518 125.93 88.11 125.76 88.11 125.55C88.11 125.34 87.7518 125.17 87.31 125.17C86.8682 125.17 86.51 125.34 86.51 125.55C86.51 125.76 86.8682 125.93 87.31 125.93Z" fill="#F7FEEE"/>
<path d="M87.31 125.7C87.4812 125.7 87.62 125.633 87.62 125.55C87.62 125.467 87.4812 125.4 87.31 125.4C87.1388 125.4 87 125.467 87 125.55C87 125.633 87.1388 125.7 87.31 125.7Z" fill="#F6C13D"/>
<path d="M14.8899 136.92C15.5099 134.01 18.9999 131.6 21.8399 133.12C18.9099 133.17 16.8499 134.81 14.8899 136.92Z" fill="#6FB64E"/>
<path d="M14.68 133.71C14.99 130.85 14.86 128.22 12.98 125.98C15.98 127.12 16.47 131.33 14.68 133.71Z" fill="#6FB64E"/>
<path d="M24.6599 121.69C23.8099 122.98 22.8599 124.33 21.6599 125.33C21.0299 125.82 20.2599 126.2 19.7099 126.78C18.5799 127.92 18.2199 129.63 17.5399 131.01C16.6999 133.22 15.6699 134.97 15.3599 137.45L15.1699 137.51C13.5399 135.3 14.3999 132.13 15.8899 130.1C16.7599 128.67 18.2899 127.75 19.2099 126.38C19.6799 125.71 19.9799 124.89 20.4399 124.19C21.3099 123.01 22.5599 122.09 23.9399 121.6C24.1699 121.54 24.3499 121.46 24.6799 121.5L24.6599 121.7V121.69Z" fill="#7EC600"/>
<path d="M24.3998 117.97C24.3998 117.97 28.4098 111.08 24.3498 109.61C20.2898 108.14 21.9598 118.31 21.9598 118.31L24.4098 117.97H24.3998Z" fill="#FFFDFD"/>
<path d="M24.72 117.08C24.72 117.08 26.83 110.78 29.98 112.52C33.13 114.26 25.85 118.8 25.85 118.8L24.72 117.08Z" fill="#FFFDFD"/>
<path d="M27.0698 117.86C27.0698 117.86 32.0798 113.5 33.9198 116.6C35.7498 119.7 27.1798 119.91 27.1798 119.91L27.0798 117.86H27.0698Z" fill="#FFFDFD"/>
<path d="M27.8998 119.66C27.8998 119.66 35.7098 118.58 35.8198 122.49C35.9298 126.4 26.8098 121.6 26.8098 121.6L27.8998 119.66Z" fill="#FFFDFD"/>
<path d="M27.7599 121.57C27.7599 121.57 34.1099 125.02 32.0599 127.97C30.0099 130.92 25.8999 122.41 25.8999 122.41L27.7599 121.57Z" fill="#FFFDFD"/>
<path d="M26.6398 122.15C26.6398 122.15 29.2598 128.88 25.7998 129.81C22.3298 130.74 24.6798 121.59 24.6798 121.59L26.6498 122.15H26.6398Z" fill="#FFFDFD"/>
<path d="M24.69 122.64C24.69 122.64 23.05 129.68 19.67 128.49C16.28 127.3 23.39 121.07 23.39 121.07L24.7 122.64H24.69Z" fill="#FFFDFD"/>
<path d="M21.1699 120.68C21.1699 120.68 14.3499 121.98 15.3599 125.27C16.3699 128.57 22.6299 121.99 22.6299 121.99L21.1699 120.67V120.68Z" fill="#FFFDFD"/>
<path d="M19.7198 119.01C19.7198 119.01 12.6898 118.03 12.5898 121.55C12.4898 125.07 20.6998 120.76 20.6998 120.76L19.7198 119.01Z" fill="#FFFDFD"/>
<path d="M19.0799 119.06C19.0799 119.06 12.0899 120.28 11.8599 116.77C11.6299 113.25 19.9999 117.28 19.9999 117.28L19.0799 119.07V119.06Z" fill="#FFFDFD"/>
<path d="M22.4098 116.9C22.4098 116.9 19.9898 108.97 16.1498 110.68C12.3198 112.4 21.0098 118.84 21.0098 118.84L22.4098 116.9Z" fill="#FFFDFD"/>
<path d="M29.3015 121.336C29.8263 119.556 27.9501 117.434 25.1107 116.597C22.2713 115.76 19.5441 116.524 19.0192 118.304C18.4943 120.084 20.3706 122.205 23.21 123.043C26.0493 123.88 28.7766 123.116 29.3015 121.336Z" fill="#FFC931"/>
<path d="M28.6698 120.49C28.8398 119.93 28.7398 119.33 28.4698 118.76C29.2898 119.64 29.6698 120.65 29.3898 121.57C28.8698 123.35 26.1398 124.11 23.2998 123.28C21.3598 122.71 19.8898 121.53 19.3098 120.28C20.0698 121.1 21.1998 121.8 22.5698 122.21C25.4098 123.05 28.1298 122.28 28.6598 120.5L28.6698 120.49Z" fill="#F7BC14"/>
<path d="M18.98 118.32C19.5 116.54 22.23 115.78 25.07 116.61C26.9 117.15 28.31 118.22 28.96 119.39C28.2 118.57 27.06 117.86 25.69 117.46C22.85 116.62 20.13 117.39 19.6 119.17C19.41 119.8 19.54 120.48 19.9 121.13C19.09 120.25 18.71 119.25 18.98 118.33V118.32Z" fill="#FFD55F"/>
<path d="M24.1898 110.73C24.5798 112.4 24.4698 114.32 23.5198 115.79C24.0898 114.15 24.1498 112.46 24.1898 110.73Z" fill="#EDEDED"/>
<path d="M29.3398 113.1C28.2498 114.22 27.2198 115.33 26.5898 116.76C26.8298 115.2 28.0098 113.87 29.3398 113.1Z" fill="#EDEDED"/>
<path d="M32.99 116.95C31.56 117.23 30.18 117.54 28.95 118.33C29.92 117.21 31.56 116.8 32.99 116.95Z" fill="#EDEDED"/>
<path d="M34.9299 122.25C33.3499 121.73 31.7899 121.26 30.1199 121.28C31.7499 120.84 33.5399 121.35 34.9299 122.25Z" fill="#EDEDED"/>
<path d="M16.2598 124.9C17.2098 123.56 18.6898 122.41 20.3598 122.21C18.7998 122.81 17.5398 123.83 16.2598 124.9Z" fill="#EDEDED"/>
<path d="M13.8499 121.43C15.2299 120.52 17.0099 119.99 18.6499 120.41C16.9799 120.41 15.4299 120.89 13.8499 121.43Z" fill="#EDEDED"/>
<path d="M13.49 117.03C15.12 116.8 16.96 117.09 18.26 118.17C16.76 117.45 15.15 117.22 13.49 117.03Z" fill="#EDEDED"/>
<path d="M31.37 127.47C30.46 126.08 29.55 124.73 28.23 123.7C29.77 124.38 30.85 125.9 31.37 127.47Z" fill="#EDEDED"/>
<path d="M25.47 128.7C25.75 127.19 25.98 125.72 25.7 124.21C26.37 125.61 26.14 127.34 25.47 128.7Z" fill="#EDEDED"/>
<path d="M19.99 127.29C21.09 126.23 22.14 125.18 22.81 123.79C22.54 125.32 21.33 126.59 19.99 127.29Z" fill="#EDEDED"/>
<path d="M17.1599 111.76C18.5199 112.81 19.6499 114.36 19.8499 116.1C19.2599 114.47 18.2299 113.12 17.1599 111.76Z" fill="#EDEDED"/>
<path d="M35.77 129.95C36.74 130.09 37.41 130.72 37.6 131.55C37.65 131.95 37.5 132.42 37.58 132.78C37.65 133.15 37.87 133.46 38.17 133.76C38.76 134.37 39.09 135.16 39.12 136.01C39.08 136.94 38.51 137.99 37.54 138.15L37.39 138.01C37.28 136.7 36.83 136.29 36.99 135.15C36.94 134.51 37.41 133.61 36.99 133.01C36.81 132.7 36.37 132.5 36.11 132.25C35.59 131.62 35.53 130.74 35.79 129.94L35.77 129.95Z" fill="#7EC600"/>
<path d="M34.7699 128.56C34.7699 128.56 32.0199 124.45 34.4799 123.38C36.9399 122.31 36.2999 128.68 36.2999 128.68L34.7699 128.56Z" fill="#FFFDFD"/>
<path d="M34.54 128.03C34.54 128.03 32.99 124.21 31.11 125.41C29.22 126.61 33.91 129.14 33.91 129.14L34.54 128.03Z" fill="#FFFDFD"/>
<path d="M33.1099 128.6C33.1099 128.6 29.8399 126.09 28.8199 128.08C27.7999 130.07 33.1199 129.87 33.1199 129.87V128.59L33.1099 128.6Z" fill="#FFFDFD"/>
<path d="M32.6699 129.75C32.6699 129.75 27.7899 129.38 27.8799 131.81C27.9599 134.24 33.4199 130.91 33.4199 130.91L32.6699 129.75Z" fill="#FFFDFD"/>
<path d="M32.83 130.93C32.83 130.93 29.03 133.31 30.41 135.06C31.79 136.81 34.01 131.38 34.01 131.38L32.82 130.93H32.83Z" fill="#FFFDFD"/>
<path d="M33.5399 131.24C33.5399 131.24 32.1699 135.51 34.3599 135.95C36.5499 136.39 34.7399 130.81 34.7399 130.81L33.5399 131.23V131.24Z" fill="#FFFDFD"/>
<path d="M34.7698 131.47C34.7698 131.47 36.0598 135.76 38.1098 134.9C40.1598 134.04 35.5198 130.45 35.5198 130.45L34.7698 131.47Z" fill="#FFFDFD"/>
<path d="M36.8798 130.12C36.8798 130.12 41.1498 130.66 40.6498 132.74C40.1498 134.82 36.0198 130.99 36.0198 130.99L36.8698 130.12H36.8798Z" fill="#FFFDFD"/>
<path d="M37.6999 129.03C37.6999 129.03 42.0099 128.15 42.2199 130.33C42.4199 132.51 37.1599 130.15 37.1599 130.15L37.6999 129.03Z" fill="#FFFDFD"/>
<path d="M38.1 129.04C38.1 129.04 42.48 129.53 42.48 127.34C42.48 125.15 37.46 127.97 37.46 127.97L38.1 129.04Z" fill="#FFFDFD"/>
<path d="M35.96 127.83C35.96 127.83 37.16 122.82 39.6 123.74C42.04 124.66 36.9 128.98 36.9 128.98L35.96 127.83Z" fill="#FFFDFD"/>
<path d="M35.6954 131.672C37.4186 131.045 38.4974 129.662 38.1049 128.583C37.7124 127.503 35.9972 127.136 34.274 127.762C32.5508 128.389 31.472 129.772 31.8645 130.852C32.2571 131.931 33.9722 132.298 35.6954 131.672Z" fill="#FFC931"/>
<path d="M32.22 130.29C32.1 129.95 32.13 129.58 32.28 129.21C31.81 129.79 31.61 130.43 31.82 130.99C32.21 132.07 33.93 132.44 35.66 131.81C36.84 131.38 37.7 130.6 38.02 129.8C37.58 130.34 36.91 130.82 36.07 131.12C34.34 131.75 32.63 131.38 32.23 130.3L32.22 130.29Z" fill="#F7BC14"/>
<path d="M38.14 128.57C37.75 127.49 36.03 127.12 34.3 127.75C33.19 128.15 32.35 128.87 32 129.62C32.44 129.08 33.12 128.6 33.95 128.3C35.68 127.67 37.39 128.04 37.79 129.12C37.93 129.51 37.88 129.93 37.68 130.34C38.15 129.77 38.34 129.13 38.14 128.57Z" fill="#FFD55F"/>
<path d="M34.6198 124.08C34.7698 125.12 34.8898 126.18 35.2298 127.19C34.5198 126.36 34.3698 125.12 34.6198 124.08Z" fill="#EDEDED"/>
<path d="M31.5198 125.74C32.4198 126.1 33.2298 126.92 33.3698 127.9C32.8498 127.09 32.1798 126.42 31.5198 125.74Z" fill="#EDEDED"/>
<path d="M29.4099 128.26C30.2899 128.03 31.3699 128.24 31.9699 128.96C31.1499 128.59 30.2799 128.44 29.4099 128.26Z" fill="#EDEDED"/>
<path d="M28.4099 131.62C29.1899 130.95 30.3299 130.55 31.3499 130.84C30.3299 130.97 29.3799 131.31 28.4099 131.62Z" fill="#EDEDED"/>
<path d="M40.0799 132.54C39.2299 131.99 38.3899 131.42 37.4399 131.03C38.4999 131.01 39.4999 131.69 40.0799 132.54Z" fill="#EDEDED"/>
<path d="M41.4299 130.3C40.4399 130.1 39.4499 129.87 38.4199 129.85C39.3999 129.45 40.5799 129.72 41.4299 130.3Z" fill="#EDEDED"/>
<path d="M41.4898 127.56C40.5098 127.81 39.5098 128.02 38.5798 128.45C39.2898 127.67 40.4698 127.4 41.4898 127.56Z" fill="#EDEDED"/>
<path d="M30.8198 134.72C30.9998 133.71 31.6498 132.68 32.6198 132.27C31.9098 133.01 31.3798 133.88 30.8198 134.72Z" fill="#EDEDED"/>
<path d="M34.5199 135.25C33.9799 134.47 33.7599 133.35 34.1999 132.48C34.1699 133.42 34.3599 134.33 34.5199 135.25Z" fill="#EDEDED"/>
<path d="M37.86 134.17C36.96 133.86 36.13 133.08 35.98 132.11C36.51 132.89 37.19 133.52 37.86 134.17Z" fill="#EDEDED"/>
<path d="M39.01 124.44C38.47 125.34 37.89 126.23 37.51 127.23C37.49 126.13 38.15 125.08 39.01 124.44Z" fill="#EDEDED"/>
</svg>
