<svg width="148" height="148" viewBox="0 0 148 148" fill="none" xmlns="http://www.w3.org/2000/svg">
<path d="M138 16.35V131.66C138 135.16 135.16 138 131.66 138H16.34C12.84 138 10 135.16 10 131.66V16.35C10 12.84 12.84 10 16.34 10H131.66C135.16 10 138 12.84 138 16.35Z" fill="white"/>
<path d="M138 131.66V128.22V78.6999V77.9799L10 37.1599V84.0899V103.77L30.49 110.3L35.72 111.97L41.97 113.97L117.31 138L138 131.66Z" fill="#8DC945"/>
<path d="M138 78.7V131.66C138 135.16 135.16 138 131.66 138H29.4001L23.1201 120.89L138 78.7Z" fill="#ACDE47"/>
<path d="M138 128.22V131.66C138 135.16 135.16 138 131.66 138H16.34C12.84 138 10 135.16 10 131.66V84.0901L138 128.22Z" fill="#CBF36E"/>
<path d="M23.3501 123.61C23.3501 123.61 14.7901 122.83 15.8701 127.61C15.8701 127.61 16.4701 130.26 18.8901 129.43C18.8901 129.43 18.9201 133.08 22.7101 132.1C26.5001 131.12 23.3401 123.61 23.3401 123.61H23.3501Z" fill="#78C13B"/>
<path d="M22.9402 124.15C21.6302 125.4 20.4502 126.65 19.6602 128.29C19.8202 126.44 21.2702 124.85 22.9402 124.15Z" fill="#CBF36E"/>
<path d="M23.7001 123.93C23.7001 123.93 27.6301 116.29 22.8001 115.5C22.8001 115.5 20.1101 115.06 19.9701 117.62C19.9701 117.62 16.5801 116.28 16.0601 120.16C15.5501 124.04 23.6901 123.93 23.6901 123.93H23.7001Z" fill="#78C13B"/>
<path d="M23.36 123.35C22.69 121.67 21.97 120.1 20.76 118.76C22.41 119.6 23.35 121.55 23.36 123.35Z" fill="#CBF36E"/>
<path d="M23.3301 123.59C23.3301 123.59 24.8901 132.04 29.2001 129.71C29.2001 129.71 31.5901 128.42 30.1401 126.31C30.1401 126.31 33.6501 125.3 31.6801 121.91C29.7101 118.52 23.3301 123.59 23.3301 123.59Z" fill="#78C13B"/>
<path d="M24.03 123.63C25.83 123.49 27.86 124.25 28.83 125.82C27.38 124.73 25.76 124.15 24.03 123.63Z" fill="#CBF36E"/>
<path d="M32.2199 114.78C32.2199 114.78 28.8599 110.9 27.3399 113.4C27.3399 113.4 26.4999 114.79 27.8899 115.44C27.8899 115.44 26.3899 117.02 28.4299 118.17C30.4699 119.32 32.2199 114.78 32.2199 114.78Z" fill="#78C13B"/>
<path d="M31.83 114.84C30.75 114.84 29.72 114.89 28.7 115.26C29.53 114.53 30.82 114.45 31.83 114.84Z" fill="#CBF36E"/>
<path d="M32.2399 115.06C32.2399 115.06 37.0999 113.4 35.3499 111.06C35.3499 111.06 34.3799 109.76 33.2499 110.8C33.2499 110.8 32.3499 108.81 30.5099 110.27C28.6799 111.73 32.2299 115.06 32.2299 115.06H32.2399Z" fill="#78C13B"/>
<path d="M32.3298 114.67C32.7398 113.67 33.0798 112.7 33.1098 111.61C33.4798 112.66 33.0698 113.88 32.3298 114.67Z" fill="#CBF36E"/>
<path d="M32.22 114.76C32.22 114.76 29.39 119.05 32.21 119.83C32.21 119.83 33.78 120.26 34.03 118.75C34.03 118.75 35.96 119.77 36.52 117.49C37.08 115.22 32.23 114.76 32.23 114.76H32.22Z" fill="#78C13B"/>
<path d="M32.51 115.06C33.34 115.74 33.9 116.91 33.67 117.99C33.5 116.92 33.04 116 32.51 115.06Z" fill="#CBF36E"/>
<path d="M36.3801 124.72C36.3801 124.72 37.8301 128.04 39.3801 126.67C39.3801 126.67 40.2401 125.91 39.4401 125.18C39.4401 125.18 40.7801 124.43 39.6501 123.23C38.5201 122.03 36.3901 124.72 36.3901 124.72H36.3801Z" fill="#8DC945"/>
<path d="M36.6602 124.77C37.3902 125 38.0902 125.18 38.8502 125.14C38.1402 125.46 37.2502 125.24 36.6602 124.77Z" fill="#CBF36E"/>
<path d="M36.43 124.53C36.43 124.53 32.81 124.63 33.5 126.58C33.5 126.58 33.88 127.66 34.86 127.19C34.86 127.19 35.05 128.72 36.59 128.12C38.13 127.52 36.43 124.53 36.43 124.53Z" fill="#8DC945"/>
<path d="M36.2801 124.77C35.7901 125.36 35.3601 125.94 35.1101 126.67C35.0801 125.89 35.6101 125.15 36.2801 124.77Z" fill="#CBF36E"/>
<path d="M36.3701 124.74C36.3701 124.74 39.1701 122.45 37.4401 121.33C37.4401 121.33 36.4801 120.71 35.9901 121.67C35.9901 121.67 34.9001 120.58 34.0501 122C33.2001 123.42 36.3701 124.74 36.3701 124.74Z" fill="#8DC945"/>
<path d="M36.2501 124.47C35.8301 123.83 35.7001 122.93 36.0801 122.25C35.9701 123.01 36.0801 123.72 36.2501 124.47Z" fill="#CBF36E"/>
<path d="M89.5 17.6399H91" stroke="#8DC945" stroke-linecap="round" stroke-linejoin="round"/>
<path d="M93.98 17.6399H128.21" stroke="#8DC945" stroke-linecap="round" stroke-linejoin="round"/>
<path d="M129.7 17.6399H131.2V19.1399" stroke="#8DC945" stroke-linecap="round" stroke-linejoin="round"/>
<path d="M131.2 22.22V45.26" stroke="#8DC945" stroke-linecap="round" stroke-linejoin="round"/>
<path d="M131.2 46.7998V48.2998" stroke="#8DC945" stroke-linecap="round" stroke-linejoin="round"/>
</svg>
