<svg width="148" height="148" viewBox="0 0 148 148" fill="none" xmlns="http://www.w3.org/2000/svg">
<path d="M138 74C138 76.49 137.86 78.95 137.58 81.37C135.36 100.74 124.48 117.48 108.92 127.64C101.4 132.55 92.78 135.91 83.52 137.29C81.47 137.6 79.39 137.81 77.28 137.92C76.35 137.96 75.41 137.99 74.47 137.99H74.45C74.3 138 74.15 138 74 138C70.58 138 67.22 137.73 63.95 137.22C57.37 136.18 51.12 134.14 45.37 131.25C43.55 130.34 41.77 129.34 40.06 128.26C39.76 128.08 39.46 127.89 39.17 127.7C38.52 127.28 37.87 126.84 37.24 126.39C37.01 126.23 36.78 126.07 36.55 125.9C35.13 124.88 33.76 123.79 32.43 122.65C20.23 112.23 12 97.28 10.32 80.42C10.11 78.31 10 76.17 10 74C10 38.65 38.65 10 74 10C96.15 10 115.67 21.25 127.16 38.35C134.01 48.54 138 60.8 138 74Z" fill="#ACDE47"/>
<path d="M138 74.0001C138 76.4901 137.86 78.9501 137.58 81.3701C117 78.9001 103.06 74.1201 103.06 68.6401C103.06 67.8101 103.4 67.0001 104.01 66.2101C80.3601 63.9801 63.8201 58.8501 63.8201 52.8701C63.8201 45.0901 91.8701 38.7401 127.16 38.3501C134.01 48.5401 138 60.8001 138 74.0001Z" fill="#8DC945"/>
<path d="M66.9601 108.89C64.5801 109.41 61.9401 109.87 59.0901 110.28C68.4201 112.14 74.2701 114.82 74.2701 117.8C74.2701 119.38 72.6301 120.87 69.7101 122.21C68.0701 122.95 66.0201 123.65 63.6301 124.29C59.1901 125.46 53.5601 126.42 47.1501 127.07C47.0701 127.08 47.0001 127.09 46.9201 127.09C44.8201 127.31 42.6301 127.49 40.3801 127.62C39.9801 127.65 39.5801 127.68 39.1701 127.7C38.5201 127.28 37.8701 126.84 37.2401 126.39C37.0101 126.23 36.7801 126.07 36.5501 125.9C35.1301 124.88 33.7601 123.79 32.4301 122.65C20.2301 112.23 12.0001 97.2799 10.3201 80.4199C18.2401 80.5799 25.5901 81.1599 31.8801 82.0599C32.5601 82.1599 33.2201 82.2599 33.8701 82.3699C38.3101 83.0799 42.1401 83.9599 45.1901 84.9599C46.9101 85.5199 48.3701 86.1199 49.5501 86.7499C51.7601 87.9399 52.9801 89.2399 52.9801 90.5999C52.9801 91.1799 52.7401 91.7499 52.3101 92.3099C53.9301 92.4599 55.5001 92.6399 57.0201 92.8299C58.7901 93.0499 60.4901 93.2999 62.1001 93.5599C62.4101 93.6099 62.7101 93.6699 63.0101 93.7199C64.8201 94.0399 66.5201 94.3799 68.1001 94.7499C71.3401 95.5199 74.0801 96.3999 76.1401 97.3699C76.1401 97.3699 76.1467 97.3699 76.1601 97.3699C76.6401 97.5799 77.0801 97.8099 77.4801 98.0499C79.4701 99.1699 80.5601 100.4 80.5601 101.69C80.5601 102.38 80.2501 103.05 79.6401 103.7C78.4901 104.96 76.2801 106.13 73.2401 107.17C73.2401 107.17 73.2401 107.17 73.2201 107.18C71.4101 107.79 69.3001 108.37 66.9401 108.89H66.9601Z" fill="#8DC945"/>
<path d="M40.3898 127.54C40.3898 127.54 40.3898 127.59 40.3898 127.62C40.3698 127.85 40.2598 128.07 40.0698 128.26C39.7698 128.08 39.4698 127.89 39.1798 127.7C38.5298 127.28 37.8798 126.84 37.2498 126.39C37.0198 126.23 36.7898 126.07 36.5598 125.9C36.7298 125.89 36.9098 125.88 37.0898 125.88C37.2498 125.88 37.3998 125.89 37.5498 125.9C39.1598 126.01 40.3998 126.7 40.3998 127.54H40.3898Z" fill="#FFE94A"/>
<path d="M37.6499 125.36C37.6499 125.54 37.6099 125.72 37.5399 125.9C37.4799 126.07 37.3799 126.23 37.2399 126.39C37.0099 126.23 36.7799 126.07 36.5499 125.9C35.1299 124.88 33.7599 123.79 32.4299 122.65C35.3299 122.71 37.6499 123.9 37.6499 125.36Z" fill="#FFE94A"/>
<path d="M103.1 105.94C103.47 100.69 105.42 96.66 107.74 96.68C109.72 96.7 111.38 99.65 112 103.79C115.63 100.44 119.4 98.91 121.03 100.35C122.65 101.78 121.6 105.7 118.74 109.69C120.42 110.05 121.63 110.87 122 112.07C122.74 114.51 119.67 117.6 115.14 118.97C112.75 119.69 110.44 119.79 108.67 119.36C106.51 119.26 103.58 117.9 100.92 115.54C96.9101 112 95.0401 107.58 96.7301 105.66C97.8801 104.36 100.37 104.56 103.11 105.92L103.1 105.94Z" fill="#FFE94A"/>
<path d="M50.5301 76.4099C43.2901 94.8299 43.0001 114.67 50.8501 132.94C38.9601 116.74 39.2401 92.8499 50.5301 76.4099Z" fill="#CBF36E"/>
<path d="M36.3 106.83C45.12 107.88 50.2401 116.15 47.8101 124.59C47.4601 125.66 47.05 126.71 46.59 127.72C46.62 126.59 46.76 125.51 46.84 124.43C47.3 115.96 43.85 110.64 36.3 106.83Z" fill="#78C13B"/>
<path d="M108.92 127.64C106.79 126.39 106.39 123.91 107.98 122.03C110.3 123.05 110.75 125.91 108.92 127.64Z" fill="#78C13B"/>
<path d="M107.37 80.93C110.17 78.38 111.56 75.71 110.62 74.2C109.72 72.77 106.93 72.79 103.64 74.02C103.71 72.33 103.27 71 102.27 70.42C100.51 69.41 97.6201 71.02 95.3101 74.1C93.3501 71.46 90.8801 70.33 89.2401 71.18C87.1201 72.28 87.1001 76.62 89.2401 80.96C91.0501 84.62 93.8101 87.08 95.9101 87.12C97.5101 87.56 99.6701 87.69 102.02 87.39C106.63 86.81 110.17 84.82 109.93 82.95C109.82 82.05 108.85 81.35 107.37 80.92V80.93Z" fill="#FFED92"/>
<path d="M93.8399 88.6799C80.5799 102.32 74.5599 118.97 77.2799 137.92C69.8799 120.39 77.7099 98.4199 93.8399 88.6799Z" fill="#78C13B"/>
<path d="M45.3701 131.25C47.1701 119.87 54.5101 106.48 64.3101 100.44C64.7301 100.23 65.1801 100.01 65.6501 99.99C64.4901 100.71 63.7401 101.89 62.8701 102.92C56.1001 111.72 50.8201 121.6 45.3701 131.25Z" fill="#78C13B"/>
<path d="M81.51 132.38C83.49 133.5 84.64 134.84 84.4 136.05C84.3 136.53 84 136.94 83.52 137.29C81.47 137.6 79.39 137.81 77.28 137.92C76.35 137.96 75.41 137.99 74.47 137.99H74.45C71.39 137.37 68.82 136.19 67.39 134.89C67.07 134.59 66.81 134.29 66.61 133.99C65.23 132.93 64.07 130.44 63.7 127.43C63.56 126.32 63.55 125.26 63.64 124.29C63.88 121.59 64.93 119.61 66.4 119.44C67.6 119.29 68.82 120.39 69.72 122.21C69.83 122.44 69.9501 122.69 70.0501 122.95C72.0701 120.69 74.33 119.1 76.2 118.46C77.56 118 78.7101 118.03 79.4401 118.67C80.8701 119.93 80.18 123.17 77.95 126.49C77.97 126.49 77.99 126.48 78.01 126.48C85.0601 124.58 91.16 124.48 91.64 126.25C92.08 127.87 87.66 130.49 81.52 132.38H81.51Z" fill="#FFED92"/>
<path d="M34.4801 91.12C32.8801 91.37 31.9001 93.96 31.8901 97.38C28.5601 95.11 25.3201 94.33 24.1801 95.68C23.0401 97.03 24.3601 100.07 27.1601 102.96C25.8501 103.45 24.9601 104.26 24.8101 105.27C24.5101 107.33 27.3601 109.46 31.1801 110.03C34.5401 110.53 37.5301 109.65 38.4101 108.03C39.6601 106.59 40.1901 103.18 39.5901 99.35C38.8301 94.48 36.5401 90.8 34.4801 91.12Z" fill="#FFE94A"/>
<path d="M55.5 76.3401C58.08 71.3101 58.5 66.3701 56.44 65.3101C54.69 64.4101 51.72 66.5901 49.28 70.3501C48.42 69.0501 47.32 68.2901 46.19 68.3801C43.88 68.5601 42.27 72.1901 42.61 76.4801C42.95 80.7701 45.09 84.1101 47.41 83.9201C47.67 83.9001 47.92 83.8301 48.16 83.7301C50.29 83.5601 53.32 80.6101 55.51 76.3501L55.5 76.3401Z" fill="#FFED92"/>
<path d="M69.6066 89.7605C71.3159 81.8747 70.05 74.9073 66.7791 74.1983C63.5082 73.4893 59.471 79.3073 57.7617 87.193C56.0524 95.0788 57.3183 102.046 60.5892 102.755C63.8601 103.464 67.8973 97.6462 69.6066 89.7605Z" fill="#FFE94A"/>
<path d="M76.7857 98.718C82.784 93.3209 85.4484 86.5029 82.737 83.4894C80.0255 80.4759 72.9649 82.4081 66.9667 87.8052C60.9685 93.2022 58.304 100.02 61.0155 103.034C63.7269 106.047 70.7875 104.115 76.7857 98.718Z" fill="#FFE94A"/>
<path d="M74.0953 107.139C80.7655 106.732 86.0401 104.226 85.8764 101.541C85.7127 98.8567 80.1726 97.0102 73.5024 97.417C66.8321 97.8238 61.5575 100.33 61.7213 103.015C61.885 105.699 67.425 107.546 74.0953 107.139Z" fill="#FFE94A"/>
<path d="M86.1647 110.675C87.0368 108.131 81.9415 104.079 74.784 101.626C67.6265 99.1728 61.1172 99.2465 60.2451 101.791C59.373 104.335 64.4683 108.387 71.6258 110.84C78.7833 113.293 85.2926 113.22 86.1647 110.675Z" fill="#FFE94A"/>
<path d="M64.702 105.773C67.0062 104.386 65.7105 98.0063 61.8079 91.5241C57.9053 85.0419 52.8737 80.9116 50.5694 82.2989C48.2652 83.6862 49.5609 90.0656 53.4635 96.5478C57.3661 103.03 62.3977 107.16 64.702 105.773Z" fill="#FFE94A"/>
</svg>
